%TF.GenerationSoftware,KiCad,Pcbnew,8.0.5*%
%TF.CreationDate,2024-10-21T18:22:43-10:00*%
%TF.ProjectId,SiPMT.revA,5369504d-542e-4726-9576-412e6b696361,rev?*%
%TF.SameCoordinates,Original*%
%TF.FileFunction,Legend,Top*%
%TF.FilePolarity,Positive*%
%FSLAX46Y46*%
G04 Gerber Fmt 4.6, Leading zero omitted, Abs format (unit mm)*
G04 Created by KiCad (PCBNEW 8.0.5) date 2024-10-21 18:22:43*
%MOMM*%
%LPD*%
G01*
G04 APERTURE LIST*
%ADD10C,0.300000*%
%ADD11C,0.150000*%
G04 APERTURE END LIST*
D10*
X127670582Y-63948685D02*
X127742010Y-63877257D01*
X127742010Y-63877257D02*
X127884868Y-63805828D01*
X127884868Y-63805828D02*
X128242010Y-63805828D01*
X128242010Y-63805828D02*
X128384868Y-63877257D01*
X128384868Y-63877257D02*
X128456296Y-63948685D01*
X128456296Y-63948685D02*
X128527725Y-64091542D01*
X128527725Y-64091542D02*
X128527725Y-64234400D01*
X128527725Y-64234400D02*
X128456296Y-64448685D01*
X128456296Y-64448685D02*
X127599153Y-65305828D01*
X127599153Y-65305828D02*
X128527725Y-65305828D01*
X129456296Y-63805828D02*
X129599153Y-63805828D01*
X129599153Y-63805828D02*
X129742010Y-63877257D01*
X129742010Y-63877257D02*
X129813439Y-63948685D01*
X129813439Y-63948685D02*
X129884867Y-64091542D01*
X129884867Y-64091542D02*
X129956296Y-64377257D01*
X129956296Y-64377257D02*
X129956296Y-64734400D01*
X129956296Y-64734400D02*
X129884867Y-65020114D01*
X129884867Y-65020114D02*
X129813439Y-65162971D01*
X129813439Y-65162971D02*
X129742010Y-65234400D01*
X129742010Y-65234400D02*
X129599153Y-65305828D01*
X129599153Y-65305828D02*
X129456296Y-65305828D01*
X129456296Y-65305828D02*
X129313439Y-65234400D01*
X129313439Y-65234400D02*
X129242010Y-65162971D01*
X129242010Y-65162971D02*
X129170581Y-65020114D01*
X129170581Y-65020114D02*
X129099153Y-64734400D01*
X129099153Y-64734400D02*
X129099153Y-64377257D01*
X129099153Y-64377257D02*
X129170581Y-64091542D01*
X129170581Y-64091542D02*
X129242010Y-63948685D01*
X129242010Y-63948685D02*
X129313439Y-63877257D01*
X129313439Y-63877257D02*
X129456296Y-63805828D01*
X130527724Y-63948685D02*
X130599152Y-63877257D01*
X130599152Y-63877257D02*
X130742010Y-63805828D01*
X130742010Y-63805828D02*
X131099152Y-63805828D01*
X131099152Y-63805828D02*
X131242010Y-63877257D01*
X131242010Y-63877257D02*
X131313438Y-63948685D01*
X131313438Y-63948685D02*
X131384867Y-64091542D01*
X131384867Y-64091542D02*
X131384867Y-64234400D01*
X131384867Y-64234400D02*
X131313438Y-64448685D01*
X131313438Y-64448685D02*
X130456295Y-65305828D01*
X130456295Y-65305828D02*
X131384867Y-65305828D01*
X132670581Y-64305828D02*
X132670581Y-65305828D01*
X132313438Y-63734400D02*
X131956295Y-64805828D01*
X131956295Y-64805828D02*
X132884866Y-64805828D01*
X133456294Y-64734400D02*
X134599152Y-64734400D01*
X135599152Y-63805828D02*
X135742009Y-63805828D01*
X135742009Y-63805828D02*
X135884866Y-63877257D01*
X135884866Y-63877257D02*
X135956295Y-63948685D01*
X135956295Y-63948685D02*
X136027723Y-64091542D01*
X136027723Y-64091542D02*
X136099152Y-64377257D01*
X136099152Y-64377257D02*
X136099152Y-64734400D01*
X136099152Y-64734400D02*
X136027723Y-65020114D01*
X136027723Y-65020114D02*
X135956295Y-65162971D01*
X135956295Y-65162971D02*
X135884866Y-65234400D01*
X135884866Y-65234400D02*
X135742009Y-65305828D01*
X135742009Y-65305828D02*
X135599152Y-65305828D01*
X135599152Y-65305828D02*
X135456295Y-65234400D01*
X135456295Y-65234400D02*
X135384866Y-65162971D01*
X135384866Y-65162971D02*
X135313437Y-65020114D01*
X135313437Y-65020114D02*
X135242009Y-64734400D01*
X135242009Y-64734400D02*
X135242009Y-64377257D01*
X135242009Y-64377257D02*
X135313437Y-64091542D01*
X135313437Y-64091542D02*
X135384866Y-63948685D01*
X135384866Y-63948685D02*
X135456295Y-63877257D01*
X135456295Y-63877257D02*
X135599152Y-63805828D01*
X136813437Y-65305828D02*
X137099151Y-65305828D01*
X137099151Y-65305828D02*
X137242008Y-65234400D01*
X137242008Y-65234400D02*
X137313437Y-65162971D01*
X137313437Y-65162971D02*
X137456294Y-64948685D01*
X137456294Y-64948685D02*
X137527723Y-64662971D01*
X137527723Y-64662971D02*
X137527723Y-64091542D01*
X137527723Y-64091542D02*
X137456294Y-63948685D01*
X137456294Y-63948685D02*
X137384866Y-63877257D01*
X137384866Y-63877257D02*
X137242008Y-63805828D01*
X137242008Y-63805828D02*
X136956294Y-63805828D01*
X136956294Y-63805828D02*
X136813437Y-63877257D01*
X136813437Y-63877257D02*
X136742008Y-63948685D01*
X136742008Y-63948685D02*
X136670580Y-64091542D01*
X136670580Y-64091542D02*
X136670580Y-64448685D01*
X136670580Y-64448685D02*
X136742008Y-64591542D01*
X136742008Y-64591542D02*
X136813437Y-64662971D01*
X136813437Y-64662971D02*
X136956294Y-64734400D01*
X136956294Y-64734400D02*
X137242008Y-64734400D01*
X137242008Y-64734400D02*
X137384866Y-64662971D01*
X137384866Y-64662971D02*
X137456294Y-64591542D01*
X137456294Y-64591542D02*
X137527723Y-64448685D01*
X138170579Y-64734400D02*
X139313437Y-64734400D01*
X139884865Y-63805828D02*
X140813437Y-63805828D01*
X140813437Y-63805828D02*
X140313437Y-64377257D01*
X140313437Y-64377257D02*
X140527722Y-64377257D01*
X140527722Y-64377257D02*
X140670580Y-64448685D01*
X140670580Y-64448685D02*
X140742008Y-64520114D01*
X140742008Y-64520114D02*
X140813437Y-64662971D01*
X140813437Y-64662971D02*
X140813437Y-65020114D01*
X140813437Y-65020114D02*
X140742008Y-65162971D01*
X140742008Y-65162971D02*
X140670580Y-65234400D01*
X140670580Y-65234400D02*
X140527722Y-65305828D01*
X140527722Y-65305828D02*
X140099151Y-65305828D01*
X140099151Y-65305828D02*
X139956294Y-65234400D01*
X139956294Y-65234400D02*
X139884865Y-65162971D01*
X141742008Y-63805828D02*
X141884865Y-63805828D01*
X141884865Y-63805828D02*
X142027722Y-63877257D01*
X142027722Y-63877257D02*
X142099151Y-63948685D01*
X142099151Y-63948685D02*
X142170579Y-64091542D01*
X142170579Y-64091542D02*
X142242008Y-64377257D01*
X142242008Y-64377257D02*
X142242008Y-64734400D01*
X142242008Y-64734400D02*
X142170579Y-65020114D01*
X142170579Y-65020114D02*
X142099151Y-65162971D01*
X142099151Y-65162971D02*
X142027722Y-65234400D01*
X142027722Y-65234400D02*
X141884865Y-65305828D01*
X141884865Y-65305828D02*
X141742008Y-65305828D01*
X141742008Y-65305828D02*
X141599151Y-65234400D01*
X141599151Y-65234400D02*
X141527722Y-65162971D01*
X141527722Y-65162971D02*
X141456293Y-65020114D01*
X141456293Y-65020114D02*
X141384865Y-64734400D01*
X141384865Y-64734400D02*
X141384865Y-64377257D01*
X141384865Y-64377257D02*
X141456293Y-64091542D01*
X141456293Y-64091542D02*
X141527722Y-63948685D01*
X141527722Y-63948685D02*
X141599151Y-63877257D01*
X141599151Y-63877257D02*
X141742008Y-63805828D01*
X153470582Y-65184400D02*
X153684868Y-65255828D01*
X153684868Y-65255828D02*
X154042010Y-65255828D01*
X154042010Y-65255828D02*
X154184868Y-65184400D01*
X154184868Y-65184400D02*
X154256296Y-65112971D01*
X154256296Y-65112971D02*
X154327725Y-64970114D01*
X154327725Y-64970114D02*
X154327725Y-64827257D01*
X154327725Y-64827257D02*
X154256296Y-64684400D01*
X154256296Y-64684400D02*
X154184868Y-64612971D01*
X154184868Y-64612971D02*
X154042010Y-64541542D01*
X154042010Y-64541542D02*
X153756296Y-64470114D01*
X153756296Y-64470114D02*
X153613439Y-64398685D01*
X153613439Y-64398685D02*
X153542010Y-64327257D01*
X153542010Y-64327257D02*
X153470582Y-64184400D01*
X153470582Y-64184400D02*
X153470582Y-64041542D01*
X153470582Y-64041542D02*
X153542010Y-63898685D01*
X153542010Y-63898685D02*
X153613439Y-63827257D01*
X153613439Y-63827257D02*
X153756296Y-63755828D01*
X153756296Y-63755828D02*
X154113439Y-63755828D01*
X154113439Y-63755828D02*
X154327725Y-63827257D01*
X154970581Y-65255828D02*
X154970581Y-64255828D01*
X154970581Y-63755828D02*
X154899153Y-63827257D01*
X154899153Y-63827257D02*
X154970581Y-63898685D01*
X154970581Y-63898685D02*
X155042010Y-63827257D01*
X155042010Y-63827257D02*
X154970581Y-63755828D01*
X154970581Y-63755828D02*
X154970581Y-63898685D01*
X155684867Y-65255828D02*
X155684867Y-63755828D01*
X155684867Y-63755828D02*
X156256296Y-63755828D01*
X156256296Y-63755828D02*
X156399153Y-63827257D01*
X156399153Y-63827257D02*
X156470582Y-63898685D01*
X156470582Y-63898685D02*
X156542010Y-64041542D01*
X156542010Y-64041542D02*
X156542010Y-64255828D01*
X156542010Y-64255828D02*
X156470582Y-64398685D01*
X156470582Y-64398685D02*
X156399153Y-64470114D01*
X156399153Y-64470114D02*
X156256296Y-64541542D01*
X156256296Y-64541542D02*
X155684867Y-64541542D01*
X157184867Y-65255828D02*
X157184867Y-63755828D01*
X157184867Y-63755828D02*
X157684867Y-64827257D01*
X157684867Y-64827257D02*
X158184867Y-63755828D01*
X158184867Y-63755828D02*
X158184867Y-65255828D01*
X158684868Y-63755828D02*
X159542011Y-63755828D01*
X159113439Y-65255828D02*
X159113439Y-63755828D01*
X161184867Y-65255828D02*
X161184867Y-64255828D01*
X161184867Y-64541542D02*
X161256296Y-64398685D01*
X161256296Y-64398685D02*
X161327725Y-64327257D01*
X161327725Y-64327257D02*
X161470582Y-64255828D01*
X161470582Y-64255828D02*
X161613439Y-64255828D01*
X162684867Y-65184400D02*
X162542010Y-65255828D01*
X162542010Y-65255828D02*
X162256296Y-65255828D01*
X162256296Y-65255828D02*
X162113438Y-65184400D01*
X162113438Y-65184400D02*
X162042010Y-65041542D01*
X162042010Y-65041542D02*
X162042010Y-64470114D01*
X162042010Y-64470114D02*
X162113438Y-64327257D01*
X162113438Y-64327257D02*
X162256296Y-64255828D01*
X162256296Y-64255828D02*
X162542010Y-64255828D01*
X162542010Y-64255828D02*
X162684867Y-64327257D01*
X162684867Y-64327257D02*
X162756296Y-64470114D01*
X162756296Y-64470114D02*
X162756296Y-64612971D01*
X162756296Y-64612971D02*
X162042010Y-64755828D01*
X163256295Y-64255828D02*
X163613438Y-65255828D01*
X163613438Y-65255828D02*
X163970581Y-64255828D01*
X164470581Y-64827257D02*
X165184867Y-64827257D01*
X164327724Y-65255828D02*
X164827724Y-63755828D01*
X164827724Y-63755828D02*
X165327724Y-65255828D01*
D11*
X166899404Y-110312200D02*
X166804166Y-110359819D01*
X166804166Y-110359819D02*
X166613690Y-110359819D01*
X166613690Y-110359819D02*
X166518452Y-110312200D01*
X166518452Y-110312200D02*
X166470833Y-110264580D01*
X166470833Y-110264580D02*
X166423214Y-110169342D01*
X166423214Y-110169342D02*
X166423214Y-109883628D01*
X166423214Y-109883628D02*
X166470833Y-109788390D01*
X166470833Y-109788390D02*
X166518452Y-109740771D01*
X166518452Y-109740771D02*
X166613690Y-109693152D01*
X166613690Y-109693152D02*
X166804166Y-109693152D01*
X166804166Y-109693152D02*
X166899404Y-109740771D01*
X167518452Y-109359819D02*
X167613690Y-109359819D01*
X167613690Y-109359819D02*
X167708928Y-109407438D01*
X167708928Y-109407438D02*
X167756547Y-109455057D01*
X167756547Y-109455057D02*
X167804166Y-109550295D01*
X167804166Y-109550295D02*
X167851785Y-109740771D01*
X167851785Y-109740771D02*
X167851785Y-109978866D01*
X167851785Y-109978866D02*
X167804166Y-110169342D01*
X167804166Y-110169342D02*
X167756547Y-110264580D01*
X167756547Y-110264580D02*
X167708928Y-110312200D01*
X167708928Y-110312200D02*
X167613690Y-110359819D01*
X167613690Y-110359819D02*
X167518452Y-110359819D01*
X167518452Y-110359819D02*
X167423214Y-110312200D01*
X167423214Y-110312200D02*
X167375595Y-110264580D01*
X167375595Y-110264580D02*
X167327976Y-110169342D01*
X167327976Y-110169342D02*
X167280357Y-109978866D01*
X167280357Y-109978866D02*
X167280357Y-109740771D01*
X167280357Y-109740771D02*
X167327976Y-109550295D01*
X167327976Y-109550295D02*
X167375595Y-109455057D01*
X167375595Y-109455057D02*
X167423214Y-109407438D01*
X167423214Y-109407438D02*
X167518452Y-109359819D01*
X164111905Y-122784819D02*
X164111905Y-121784819D01*
X164111905Y-122261009D02*
X164683333Y-122261009D01*
X164683333Y-122784819D02*
X164683333Y-121784819D01*
X165683333Y-122784819D02*
X165111905Y-122784819D01*
X165397619Y-122784819D02*
X165397619Y-121784819D01*
X165397619Y-121784819D02*
X165302381Y-121927676D01*
X165302381Y-121927676D02*
X165207143Y-122022914D01*
X165207143Y-122022914D02*
X165111905Y-122070533D01*
X166302381Y-121784819D02*
X166397619Y-121784819D01*
X166397619Y-121784819D02*
X166492857Y-121832438D01*
X166492857Y-121832438D02*
X166540476Y-121880057D01*
X166540476Y-121880057D02*
X166588095Y-121975295D01*
X166588095Y-121975295D02*
X166635714Y-122165771D01*
X166635714Y-122165771D02*
X166635714Y-122403866D01*
X166635714Y-122403866D02*
X166588095Y-122594342D01*
X166588095Y-122594342D02*
X166540476Y-122689580D01*
X166540476Y-122689580D02*
X166492857Y-122737200D01*
X166492857Y-122737200D02*
X166397619Y-122784819D01*
X166397619Y-122784819D02*
X166302381Y-122784819D01*
X166302381Y-122784819D02*
X166207143Y-122737200D01*
X166207143Y-122737200D02*
X166159524Y-122689580D01*
X166159524Y-122689580D02*
X166111905Y-122594342D01*
X166111905Y-122594342D02*
X166064286Y-122403866D01*
X166064286Y-122403866D02*
X166064286Y-122165771D01*
X166064286Y-122165771D02*
X166111905Y-121975295D01*
X166111905Y-121975295D02*
X166159524Y-121880057D01*
X166159524Y-121880057D02*
X166207143Y-121832438D01*
X166207143Y-121832438D02*
X166302381Y-121784819D01*
X167399404Y-83812200D02*
X167304166Y-83859819D01*
X167304166Y-83859819D02*
X167113690Y-83859819D01*
X167113690Y-83859819D02*
X167018452Y-83812200D01*
X167018452Y-83812200D02*
X166970833Y-83764580D01*
X166970833Y-83764580D02*
X166923214Y-83669342D01*
X166923214Y-83669342D02*
X166923214Y-83383628D01*
X166923214Y-83383628D02*
X166970833Y-83288390D01*
X166970833Y-83288390D02*
X167018452Y-83240771D01*
X167018452Y-83240771D02*
X167113690Y-83193152D01*
X167113690Y-83193152D02*
X167304166Y-83193152D01*
X167304166Y-83193152D02*
X167399404Y-83240771D01*
X167732738Y-82859819D02*
X168351785Y-82859819D01*
X168351785Y-82859819D02*
X168018452Y-83240771D01*
X168018452Y-83240771D02*
X168161309Y-83240771D01*
X168161309Y-83240771D02*
X168256547Y-83288390D01*
X168256547Y-83288390D02*
X168304166Y-83336009D01*
X168304166Y-83336009D02*
X168351785Y-83431247D01*
X168351785Y-83431247D02*
X168351785Y-83669342D01*
X168351785Y-83669342D02*
X168304166Y-83764580D01*
X168304166Y-83764580D02*
X168256547Y-83812200D01*
X168256547Y-83812200D02*
X168161309Y-83859819D01*
X168161309Y-83859819D02*
X167875595Y-83859819D01*
X167875595Y-83859819D02*
X167780357Y-83812200D01*
X167780357Y-83812200D02*
X167732738Y-83764580D01*
X167149404Y-92562200D02*
X167054166Y-92609819D01*
X167054166Y-92609819D02*
X166863690Y-92609819D01*
X166863690Y-92609819D02*
X166768452Y-92562200D01*
X166768452Y-92562200D02*
X166720833Y-92514580D01*
X166720833Y-92514580D02*
X166673214Y-92419342D01*
X166673214Y-92419342D02*
X166673214Y-92133628D01*
X166673214Y-92133628D02*
X166720833Y-92038390D01*
X166720833Y-92038390D02*
X166768452Y-91990771D01*
X166768452Y-91990771D02*
X166863690Y-91943152D01*
X166863690Y-91943152D02*
X167054166Y-91943152D01*
X167054166Y-91943152D02*
X167149404Y-91990771D01*
X167530357Y-91705057D02*
X167577976Y-91657438D01*
X167577976Y-91657438D02*
X167673214Y-91609819D01*
X167673214Y-91609819D02*
X167911309Y-91609819D01*
X167911309Y-91609819D02*
X168006547Y-91657438D01*
X168006547Y-91657438D02*
X168054166Y-91705057D01*
X168054166Y-91705057D02*
X168101785Y-91800295D01*
X168101785Y-91800295D02*
X168101785Y-91895533D01*
X168101785Y-91895533D02*
X168054166Y-92038390D01*
X168054166Y-92038390D02*
X167482738Y-92609819D01*
X167482738Y-92609819D02*
X168101785Y-92609819D01*
X136275595Y-122809819D02*
X136275595Y-121809819D01*
X136275595Y-122286009D02*
X136847023Y-122286009D01*
X136847023Y-122809819D02*
X136847023Y-121809819D01*
X137370833Y-122809819D02*
X137561309Y-122809819D01*
X137561309Y-122809819D02*
X137656547Y-122762200D01*
X137656547Y-122762200D02*
X137704166Y-122714580D01*
X137704166Y-122714580D02*
X137799404Y-122571723D01*
X137799404Y-122571723D02*
X137847023Y-122381247D01*
X137847023Y-122381247D02*
X137847023Y-122000295D01*
X137847023Y-122000295D02*
X137799404Y-121905057D01*
X137799404Y-121905057D02*
X137751785Y-121857438D01*
X137751785Y-121857438D02*
X137656547Y-121809819D01*
X137656547Y-121809819D02*
X137466071Y-121809819D01*
X137466071Y-121809819D02*
X137370833Y-121857438D01*
X137370833Y-121857438D02*
X137323214Y-121905057D01*
X137323214Y-121905057D02*
X137275595Y-122000295D01*
X137275595Y-122000295D02*
X137275595Y-122238390D01*
X137275595Y-122238390D02*
X137323214Y-122333628D01*
X137323214Y-122333628D02*
X137370833Y-122381247D01*
X137370833Y-122381247D02*
X137466071Y-122428866D01*
X137466071Y-122428866D02*
X137656547Y-122428866D01*
X137656547Y-122428866D02*
X137751785Y-122381247D01*
X137751785Y-122381247D02*
X137799404Y-122333628D01*
X137799404Y-122333628D02*
X137847023Y-122238390D01*
X131361905Y-122834819D02*
X131361905Y-121834819D01*
X131361905Y-122311009D02*
X131933333Y-122311009D01*
X131933333Y-122834819D02*
X131933333Y-121834819D01*
X132933333Y-122834819D02*
X132361905Y-122834819D01*
X132647619Y-122834819D02*
X132647619Y-121834819D01*
X132647619Y-121834819D02*
X132552381Y-121977676D01*
X132552381Y-121977676D02*
X132457143Y-122072914D01*
X132457143Y-122072914D02*
X132361905Y-122120533D01*
X133790476Y-122168152D02*
X133790476Y-122834819D01*
X133552381Y-121787200D02*
X133314286Y-122501485D01*
X133314286Y-122501485D02*
X133933333Y-122501485D01*
X155988095Y-122784819D02*
X155988095Y-121784819D01*
X155988095Y-122261009D02*
X156559523Y-122261009D01*
X156559523Y-122784819D02*
X156559523Y-121784819D01*
X156940476Y-121784819D02*
X157607142Y-121784819D01*
X157607142Y-121784819D02*
X157178571Y-122784819D01*
X159761905Y-122809819D02*
X159761905Y-121809819D01*
X159761905Y-122286009D02*
X160333333Y-122286009D01*
X160333333Y-122809819D02*
X160333333Y-121809819D01*
X161333333Y-122809819D02*
X160761905Y-122809819D01*
X161047619Y-122809819D02*
X161047619Y-121809819D01*
X161047619Y-121809819D02*
X160952381Y-121952676D01*
X160952381Y-121952676D02*
X160857143Y-122047914D01*
X160857143Y-122047914D02*
X160761905Y-122095533D01*
X161666667Y-121809819D02*
X162285714Y-121809819D01*
X162285714Y-121809819D02*
X161952381Y-122190771D01*
X161952381Y-122190771D02*
X162095238Y-122190771D01*
X162095238Y-122190771D02*
X162190476Y-122238390D01*
X162190476Y-122238390D02*
X162238095Y-122286009D01*
X162238095Y-122286009D02*
X162285714Y-122381247D01*
X162285714Y-122381247D02*
X162285714Y-122619342D01*
X162285714Y-122619342D02*
X162238095Y-122714580D01*
X162238095Y-122714580D02*
X162190476Y-122762200D01*
X162190476Y-122762200D02*
X162095238Y-122809819D01*
X162095238Y-122809819D02*
X161809524Y-122809819D01*
X161809524Y-122809819D02*
X161714286Y-122762200D01*
X161714286Y-122762200D02*
X161666667Y-122714580D01*
X167149404Y-101312200D02*
X167054166Y-101359819D01*
X167054166Y-101359819D02*
X166863690Y-101359819D01*
X166863690Y-101359819D02*
X166768452Y-101312200D01*
X166768452Y-101312200D02*
X166720833Y-101264580D01*
X166720833Y-101264580D02*
X166673214Y-101169342D01*
X166673214Y-101169342D02*
X166673214Y-100883628D01*
X166673214Y-100883628D02*
X166720833Y-100788390D01*
X166720833Y-100788390D02*
X166768452Y-100740771D01*
X166768452Y-100740771D02*
X166863690Y-100693152D01*
X166863690Y-100693152D02*
X167054166Y-100693152D01*
X167054166Y-100693152D02*
X167149404Y-100740771D01*
X168101785Y-101359819D02*
X167530357Y-101359819D01*
X167816071Y-101359819D02*
X167816071Y-100359819D01*
X167816071Y-100359819D02*
X167720833Y-100502676D01*
X167720833Y-100502676D02*
X167625595Y-100597914D01*
X167625595Y-100597914D02*
X167530357Y-100645533D01*
X140111905Y-122834819D02*
X140111905Y-121834819D01*
X140111905Y-122311009D02*
X140683333Y-122311009D01*
X140683333Y-122834819D02*
X140683333Y-121834819D01*
X141683333Y-122834819D02*
X141111905Y-122834819D01*
X141397619Y-122834819D02*
X141397619Y-121834819D01*
X141397619Y-121834819D02*
X141302381Y-121977676D01*
X141302381Y-121977676D02*
X141207143Y-122072914D01*
X141207143Y-122072914D02*
X141111905Y-122120533D01*
X142064286Y-121930057D02*
X142111905Y-121882438D01*
X142111905Y-121882438D02*
X142207143Y-121834819D01*
X142207143Y-121834819D02*
X142445238Y-121834819D01*
X142445238Y-121834819D02*
X142540476Y-121882438D01*
X142540476Y-121882438D02*
X142588095Y-121930057D01*
X142588095Y-121930057D02*
X142635714Y-122025295D01*
X142635714Y-122025295D02*
X142635714Y-122120533D01*
X142635714Y-122120533D02*
X142588095Y-122263390D01*
X142588095Y-122263390D02*
X142016667Y-122834819D01*
X142016667Y-122834819D02*
X142635714Y-122834819D01*
X151261905Y-122809819D02*
X151261905Y-121809819D01*
X151261905Y-122286009D02*
X151833333Y-122286009D01*
X151833333Y-122809819D02*
X151833333Y-121809819D01*
X152833333Y-122809819D02*
X152261905Y-122809819D01*
X152547619Y-122809819D02*
X152547619Y-121809819D01*
X152547619Y-121809819D02*
X152452381Y-121952676D01*
X152452381Y-121952676D02*
X152357143Y-122047914D01*
X152357143Y-122047914D02*
X152261905Y-122095533D01*
X153785714Y-122809819D02*
X153214286Y-122809819D01*
X153500000Y-122809819D02*
X153500000Y-121809819D01*
X153500000Y-121809819D02*
X153404762Y-121952676D01*
X153404762Y-121952676D02*
X153309524Y-122047914D01*
X153309524Y-122047914D02*
X153214286Y-122095533D01*
X127381243Y-122809819D02*
X127381243Y-121809819D01*
X127381243Y-122286009D02*
X127952671Y-122286009D01*
X127952671Y-122809819D02*
X127952671Y-121809819D01*
X128571719Y-122238390D02*
X128476481Y-122190771D01*
X128476481Y-122190771D02*
X128428862Y-122143152D01*
X128428862Y-122143152D02*
X128381243Y-122047914D01*
X128381243Y-122047914D02*
X128381243Y-122000295D01*
X128381243Y-122000295D02*
X128428862Y-121905057D01*
X128428862Y-121905057D02*
X128476481Y-121857438D01*
X128476481Y-121857438D02*
X128571719Y-121809819D01*
X128571719Y-121809819D02*
X128762195Y-121809819D01*
X128762195Y-121809819D02*
X128857433Y-121857438D01*
X128857433Y-121857438D02*
X128905052Y-121905057D01*
X128905052Y-121905057D02*
X128952671Y-122000295D01*
X128952671Y-122000295D02*
X128952671Y-122047914D01*
X128952671Y-122047914D02*
X128905052Y-122143152D01*
X128905052Y-122143152D02*
X128857433Y-122190771D01*
X128857433Y-122190771D02*
X128762195Y-122238390D01*
X128762195Y-122238390D02*
X128571719Y-122238390D01*
X128571719Y-122238390D02*
X128476481Y-122286009D01*
X128476481Y-122286009D02*
X128428862Y-122333628D01*
X128428862Y-122333628D02*
X128381243Y-122428866D01*
X128381243Y-122428866D02*
X128381243Y-122619342D01*
X128381243Y-122619342D02*
X128428862Y-122714580D01*
X128428862Y-122714580D02*
X128476481Y-122762200D01*
X128476481Y-122762200D02*
X128571719Y-122809819D01*
X128571719Y-122809819D02*
X128762195Y-122809819D01*
X128762195Y-122809819D02*
X128857433Y-122762200D01*
X128857433Y-122762200D02*
X128905052Y-122714580D01*
X128905052Y-122714580D02*
X128952671Y-122619342D01*
X128952671Y-122619342D02*
X128952671Y-122428866D01*
X128952671Y-122428866D02*
X128905052Y-122333628D01*
X128905052Y-122333628D02*
X128857433Y-122286009D01*
X128857433Y-122286009D02*
X128762195Y-122238390D01*
M02*
