%TF.GenerationSoftware,KiCad,Pcbnew,8.0.5*%
%TF.CreationDate,2025-09-21T17:17:36-10:00*%
%TF.ProjectId,SiPMT.revA,5369504d-542e-4726-9576-412e6b696361,rev?*%
%TF.SameCoordinates,Original*%
%TF.FileFunction,AssemblyDrawing,Bot*%
%FSLAX46Y46*%
G04 Gerber Fmt 4.6, Leading zero omitted, Abs format (unit mm)*
G04 Created by KiCad (PCBNEW 8.0.5) date 2025-09-21 17:17:36*
%MOMM*%
%LPD*%
G01*
G04 APERTURE LIST*
%ADD10C,0.150000*%
%ADD11C,0.060000*%
%ADD12C,0.120000*%
%ADD13C,0.100000*%
G04 APERTURE END LIST*
D10*
X130864285Y-81134819D02*
X130864285Y-80134819D01*
X130864285Y-80134819D02*
X130626190Y-80134819D01*
X130626190Y-80134819D02*
X130483333Y-80182438D01*
X130483333Y-80182438D02*
X130388095Y-80277676D01*
X130388095Y-80277676D02*
X130340476Y-80372914D01*
X130340476Y-80372914D02*
X130292857Y-80563390D01*
X130292857Y-80563390D02*
X130292857Y-80706247D01*
X130292857Y-80706247D02*
X130340476Y-80896723D01*
X130340476Y-80896723D02*
X130388095Y-80991961D01*
X130388095Y-80991961D02*
X130483333Y-81087200D01*
X130483333Y-81087200D02*
X130626190Y-81134819D01*
X130626190Y-81134819D02*
X130864285Y-81134819D01*
X129911904Y-80230057D02*
X129864285Y-80182438D01*
X129864285Y-80182438D02*
X129769047Y-80134819D01*
X129769047Y-80134819D02*
X129530952Y-80134819D01*
X129530952Y-80134819D02*
X129435714Y-80182438D01*
X129435714Y-80182438D02*
X129388095Y-80230057D01*
X129388095Y-80230057D02*
X129340476Y-80325295D01*
X129340476Y-80325295D02*
X129340476Y-80420533D01*
X129340476Y-80420533D02*
X129388095Y-80563390D01*
X129388095Y-80563390D02*
X129959523Y-81134819D01*
X129959523Y-81134819D02*
X129340476Y-81134819D01*
X128721428Y-80134819D02*
X128626190Y-80134819D01*
X128626190Y-80134819D02*
X128530952Y-80182438D01*
X128530952Y-80182438D02*
X128483333Y-80230057D01*
X128483333Y-80230057D02*
X128435714Y-80325295D01*
X128435714Y-80325295D02*
X128388095Y-80515771D01*
X128388095Y-80515771D02*
X128388095Y-80753866D01*
X128388095Y-80753866D02*
X128435714Y-80944342D01*
X128435714Y-80944342D02*
X128483333Y-81039580D01*
X128483333Y-81039580D02*
X128530952Y-81087200D01*
X128530952Y-81087200D02*
X128626190Y-81134819D01*
X128626190Y-81134819D02*
X128721428Y-81134819D01*
X128721428Y-81134819D02*
X128816666Y-81087200D01*
X128816666Y-81087200D02*
X128864285Y-81039580D01*
X128864285Y-81039580D02*
X128911904Y-80944342D01*
X128911904Y-80944342D02*
X128959523Y-80753866D01*
X128959523Y-80753866D02*
X128959523Y-80515771D01*
X128959523Y-80515771D02*
X128911904Y-80325295D01*
X128911904Y-80325295D02*
X128864285Y-80230057D01*
X128864285Y-80230057D02*
X128816666Y-80182438D01*
X128816666Y-80182438D02*
X128721428Y-80134819D01*
X144876785Y-81134819D02*
X144876785Y-80134819D01*
X144876785Y-80134819D02*
X144638690Y-80134819D01*
X144638690Y-80134819D02*
X144495833Y-80182438D01*
X144495833Y-80182438D02*
X144400595Y-80277676D01*
X144400595Y-80277676D02*
X144352976Y-80372914D01*
X144352976Y-80372914D02*
X144305357Y-80563390D01*
X144305357Y-80563390D02*
X144305357Y-80706247D01*
X144305357Y-80706247D02*
X144352976Y-80896723D01*
X144352976Y-80896723D02*
X144400595Y-80991961D01*
X144400595Y-80991961D02*
X144495833Y-81087200D01*
X144495833Y-81087200D02*
X144638690Y-81134819D01*
X144638690Y-81134819D02*
X144876785Y-81134819D01*
X143352976Y-81134819D02*
X143924404Y-81134819D01*
X143638690Y-81134819D02*
X143638690Y-80134819D01*
X143638690Y-80134819D02*
X143733928Y-80277676D01*
X143733928Y-80277676D02*
X143829166Y-80372914D01*
X143829166Y-80372914D02*
X143924404Y-80420533D01*
X143019642Y-80134819D02*
X142352976Y-80134819D01*
X142352976Y-80134819D02*
X142781547Y-81134819D01*
X137864285Y-81134819D02*
X137864285Y-80134819D01*
X137864285Y-80134819D02*
X137626190Y-80134819D01*
X137626190Y-80134819D02*
X137483333Y-80182438D01*
X137483333Y-80182438D02*
X137388095Y-80277676D01*
X137388095Y-80277676D02*
X137340476Y-80372914D01*
X137340476Y-80372914D02*
X137292857Y-80563390D01*
X137292857Y-80563390D02*
X137292857Y-80706247D01*
X137292857Y-80706247D02*
X137340476Y-80896723D01*
X137340476Y-80896723D02*
X137388095Y-80991961D01*
X137388095Y-80991961D02*
X137483333Y-81087200D01*
X137483333Y-81087200D02*
X137626190Y-81134819D01*
X137626190Y-81134819D02*
X137864285Y-81134819D01*
X136340476Y-81134819D02*
X136911904Y-81134819D01*
X136626190Y-81134819D02*
X136626190Y-80134819D01*
X136626190Y-80134819D02*
X136721428Y-80277676D01*
X136721428Y-80277676D02*
X136816666Y-80372914D01*
X136816666Y-80372914D02*
X136911904Y-80420533D01*
X135435714Y-80134819D02*
X135911904Y-80134819D01*
X135911904Y-80134819D02*
X135959523Y-80611009D01*
X135959523Y-80611009D02*
X135911904Y-80563390D01*
X135911904Y-80563390D02*
X135816666Y-80515771D01*
X135816666Y-80515771D02*
X135578571Y-80515771D01*
X135578571Y-80515771D02*
X135483333Y-80563390D01*
X135483333Y-80563390D02*
X135435714Y-80611009D01*
X135435714Y-80611009D02*
X135388095Y-80706247D01*
X135388095Y-80706247D02*
X135388095Y-80944342D01*
X135388095Y-80944342D02*
X135435714Y-81039580D01*
X135435714Y-81039580D02*
X135483333Y-81087200D01*
X135483333Y-81087200D02*
X135578571Y-81134819D01*
X135578571Y-81134819D02*
X135816666Y-81134819D01*
X135816666Y-81134819D02*
X135911904Y-81087200D01*
X135911904Y-81087200D02*
X135959523Y-81039580D01*
D11*
X159541666Y-69861927D02*
X159674999Y-69671451D01*
X159770237Y-69861927D02*
X159770237Y-69461927D01*
X159770237Y-69461927D02*
X159617856Y-69461927D01*
X159617856Y-69461927D02*
X159579761Y-69480975D01*
X159579761Y-69480975D02*
X159560714Y-69500022D01*
X159560714Y-69500022D02*
X159541666Y-69538118D01*
X159541666Y-69538118D02*
X159541666Y-69595260D01*
X159541666Y-69595260D02*
X159560714Y-69633356D01*
X159560714Y-69633356D02*
X159579761Y-69652403D01*
X159579761Y-69652403D02*
X159617856Y-69671451D01*
X159617856Y-69671451D02*
X159770237Y-69671451D01*
X159408333Y-69461927D02*
X159160714Y-69461927D01*
X159160714Y-69461927D02*
X159294047Y-69614308D01*
X159294047Y-69614308D02*
X159236904Y-69614308D01*
X159236904Y-69614308D02*
X159198809Y-69633356D01*
X159198809Y-69633356D02*
X159179761Y-69652403D01*
X159179761Y-69652403D02*
X159160714Y-69690499D01*
X159160714Y-69690499D02*
X159160714Y-69785737D01*
X159160714Y-69785737D02*
X159179761Y-69823832D01*
X159179761Y-69823832D02*
X159198809Y-69842880D01*
X159198809Y-69842880D02*
X159236904Y-69861927D01*
X159236904Y-69861927D02*
X159351190Y-69861927D01*
X159351190Y-69861927D02*
X159389285Y-69842880D01*
X159389285Y-69842880D02*
X159408333Y-69823832D01*
X152629166Y-69861927D02*
X152762499Y-69671451D01*
X152857737Y-69861927D02*
X152857737Y-69461927D01*
X152857737Y-69461927D02*
X152705356Y-69461927D01*
X152705356Y-69461927D02*
X152667261Y-69480975D01*
X152667261Y-69480975D02*
X152648214Y-69500022D01*
X152648214Y-69500022D02*
X152629166Y-69538118D01*
X152629166Y-69538118D02*
X152629166Y-69595260D01*
X152629166Y-69595260D02*
X152648214Y-69633356D01*
X152648214Y-69633356D02*
X152667261Y-69652403D01*
X152667261Y-69652403D02*
X152705356Y-69671451D01*
X152705356Y-69671451D02*
X152857737Y-69671451D01*
X152248214Y-69861927D02*
X152476785Y-69861927D01*
X152362499Y-69861927D02*
X152362499Y-69461927D01*
X152362499Y-69461927D02*
X152400595Y-69519070D01*
X152400595Y-69519070D02*
X152438690Y-69557165D01*
X152438690Y-69557165D02*
X152476785Y-69576213D01*
X145669642Y-111911927D02*
X145802975Y-111721451D01*
X145898213Y-111911927D02*
X145898213Y-111511927D01*
X145898213Y-111511927D02*
X145745832Y-111511927D01*
X145745832Y-111511927D02*
X145707737Y-111530975D01*
X145707737Y-111530975D02*
X145688690Y-111550022D01*
X145688690Y-111550022D02*
X145669642Y-111588118D01*
X145669642Y-111588118D02*
X145669642Y-111645260D01*
X145669642Y-111645260D02*
X145688690Y-111683356D01*
X145688690Y-111683356D02*
X145707737Y-111702403D01*
X145707737Y-111702403D02*
X145745832Y-111721451D01*
X145745832Y-111721451D02*
X145898213Y-111721451D01*
X145307737Y-111511927D02*
X145498213Y-111511927D01*
X145498213Y-111511927D02*
X145517261Y-111702403D01*
X145517261Y-111702403D02*
X145498213Y-111683356D01*
X145498213Y-111683356D02*
X145460118Y-111664308D01*
X145460118Y-111664308D02*
X145364880Y-111664308D01*
X145364880Y-111664308D02*
X145326785Y-111683356D01*
X145326785Y-111683356D02*
X145307737Y-111702403D01*
X145307737Y-111702403D02*
X145288690Y-111740499D01*
X145288690Y-111740499D02*
X145288690Y-111835737D01*
X145288690Y-111835737D02*
X145307737Y-111873832D01*
X145307737Y-111873832D02*
X145326785Y-111892880D01*
X145326785Y-111892880D02*
X145364880Y-111911927D01*
X145364880Y-111911927D02*
X145460118Y-111911927D01*
X145460118Y-111911927D02*
X145498213Y-111892880D01*
X145498213Y-111892880D02*
X145517261Y-111873832D01*
X144926785Y-111511927D02*
X145117261Y-111511927D01*
X145117261Y-111511927D02*
X145136309Y-111702403D01*
X145136309Y-111702403D02*
X145117261Y-111683356D01*
X145117261Y-111683356D02*
X145079166Y-111664308D01*
X145079166Y-111664308D02*
X144983928Y-111664308D01*
X144983928Y-111664308D02*
X144945833Y-111683356D01*
X144945833Y-111683356D02*
X144926785Y-111702403D01*
X144926785Y-111702403D02*
X144907738Y-111740499D01*
X144907738Y-111740499D02*
X144907738Y-111835737D01*
X144907738Y-111835737D02*
X144926785Y-111873832D01*
X144926785Y-111873832D02*
X144945833Y-111892880D01*
X144945833Y-111892880D02*
X144983928Y-111911927D01*
X144983928Y-111911927D02*
X145079166Y-111911927D01*
X145079166Y-111911927D02*
X145117261Y-111892880D01*
X145117261Y-111892880D02*
X145136309Y-111873832D01*
X152769642Y-118911927D02*
X152902975Y-118721451D01*
X152998213Y-118911927D02*
X152998213Y-118511927D01*
X152998213Y-118511927D02*
X152845832Y-118511927D01*
X152845832Y-118511927D02*
X152807737Y-118530975D01*
X152807737Y-118530975D02*
X152788690Y-118550022D01*
X152788690Y-118550022D02*
X152769642Y-118588118D01*
X152769642Y-118588118D02*
X152769642Y-118645260D01*
X152769642Y-118645260D02*
X152788690Y-118683356D01*
X152788690Y-118683356D02*
X152807737Y-118702403D01*
X152807737Y-118702403D02*
X152845832Y-118721451D01*
X152845832Y-118721451D02*
X152998213Y-118721451D01*
X152407737Y-118511927D02*
X152598213Y-118511927D01*
X152598213Y-118511927D02*
X152617261Y-118702403D01*
X152617261Y-118702403D02*
X152598213Y-118683356D01*
X152598213Y-118683356D02*
X152560118Y-118664308D01*
X152560118Y-118664308D02*
X152464880Y-118664308D01*
X152464880Y-118664308D02*
X152426785Y-118683356D01*
X152426785Y-118683356D02*
X152407737Y-118702403D01*
X152407737Y-118702403D02*
X152388690Y-118740499D01*
X152388690Y-118740499D02*
X152388690Y-118835737D01*
X152388690Y-118835737D02*
X152407737Y-118873832D01*
X152407737Y-118873832D02*
X152426785Y-118892880D01*
X152426785Y-118892880D02*
X152464880Y-118911927D01*
X152464880Y-118911927D02*
X152560118Y-118911927D01*
X152560118Y-118911927D02*
X152598213Y-118892880D01*
X152598213Y-118892880D02*
X152617261Y-118873832D01*
X152160119Y-118683356D02*
X152198214Y-118664308D01*
X152198214Y-118664308D02*
X152217261Y-118645260D01*
X152217261Y-118645260D02*
X152236309Y-118607165D01*
X152236309Y-118607165D02*
X152236309Y-118588118D01*
X152236309Y-118588118D02*
X152217261Y-118550022D01*
X152217261Y-118550022D02*
X152198214Y-118530975D01*
X152198214Y-118530975D02*
X152160119Y-118511927D01*
X152160119Y-118511927D02*
X152083928Y-118511927D01*
X152083928Y-118511927D02*
X152045833Y-118530975D01*
X152045833Y-118530975D02*
X152026785Y-118550022D01*
X152026785Y-118550022D02*
X152007738Y-118588118D01*
X152007738Y-118588118D02*
X152007738Y-118607165D01*
X152007738Y-118607165D02*
X152026785Y-118645260D01*
X152026785Y-118645260D02*
X152045833Y-118664308D01*
X152045833Y-118664308D02*
X152083928Y-118683356D01*
X152083928Y-118683356D02*
X152160119Y-118683356D01*
X152160119Y-118683356D02*
X152198214Y-118702403D01*
X152198214Y-118702403D02*
X152217261Y-118721451D01*
X152217261Y-118721451D02*
X152236309Y-118759546D01*
X152236309Y-118759546D02*
X152236309Y-118835737D01*
X152236309Y-118835737D02*
X152217261Y-118873832D01*
X152217261Y-118873832D02*
X152198214Y-118892880D01*
X152198214Y-118892880D02*
X152160119Y-118911927D01*
X152160119Y-118911927D02*
X152083928Y-118911927D01*
X152083928Y-118911927D02*
X152045833Y-118892880D01*
X152045833Y-118892880D02*
X152026785Y-118873832D01*
X152026785Y-118873832D02*
X152007738Y-118835737D01*
X152007738Y-118835737D02*
X152007738Y-118759546D01*
X152007738Y-118759546D02*
X152026785Y-118721451D01*
X152026785Y-118721451D02*
X152045833Y-118702403D01*
X152045833Y-118702403D02*
X152083928Y-118683356D01*
X166629166Y-69861927D02*
X166762499Y-69671451D01*
X166857737Y-69861927D02*
X166857737Y-69461927D01*
X166857737Y-69461927D02*
X166705356Y-69461927D01*
X166705356Y-69461927D02*
X166667261Y-69480975D01*
X166667261Y-69480975D02*
X166648214Y-69500022D01*
X166648214Y-69500022D02*
X166629166Y-69538118D01*
X166629166Y-69538118D02*
X166629166Y-69595260D01*
X166629166Y-69595260D02*
X166648214Y-69633356D01*
X166648214Y-69633356D02*
X166667261Y-69652403D01*
X166667261Y-69652403D02*
X166705356Y-69671451D01*
X166705356Y-69671451D02*
X166857737Y-69671451D01*
X166267261Y-69461927D02*
X166457737Y-69461927D01*
X166457737Y-69461927D02*
X166476785Y-69652403D01*
X166476785Y-69652403D02*
X166457737Y-69633356D01*
X166457737Y-69633356D02*
X166419642Y-69614308D01*
X166419642Y-69614308D02*
X166324404Y-69614308D01*
X166324404Y-69614308D02*
X166286309Y-69633356D01*
X166286309Y-69633356D02*
X166267261Y-69652403D01*
X166267261Y-69652403D02*
X166248214Y-69690499D01*
X166248214Y-69690499D02*
X166248214Y-69785737D01*
X166248214Y-69785737D02*
X166267261Y-69823832D01*
X166267261Y-69823832D02*
X166286309Y-69842880D01*
X166286309Y-69842880D02*
X166324404Y-69861927D01*
X166324404Y-69861927D02*
X166419642Y-69861927D01*
X166419642Y-69861927D02*
X166457737Y-69842880D01*
X166457737Y-69842880D02*
X166476785Y-69823832D01*
X159719642Y-97911927D02*
X159852975Y-97721451D01*
X159948213Y-97911927D02*
X159948213Y-97511927D01*
X159948213Y-97511927D02*
X159795832Y-97511927D01*
X159795832Y-97511927D02*
X159757737Y-97530975D01*
X159757737Y-97530975D02*
X159738690Y-97550022D01*
X159738690Y-97550022D02*
X159719642Y-97588118D01*
X159719642Y-97588118D02*
X159719642Y-97645260D01*
X159719642Y-97645260D02*
X159738690Y-97683356D01*
X159738690Y-97683356D02*
X159757737Y-97702403D01*
X159757737Y-97702403D02*
X159795832Y-97721451D01*
X159795832Y-97721451D02*
X159948213Y-97721451D01*
X159376785Y-97645260D02*
X159376785Y-97911927D01*
X159472023Y-97492880D02*
X159567261Y-97778594D01*
X159567261Y-97778594D02*
X159319642Y-97778594D01*
X159205357Y-97511927D02*
X158957738Y-97511927D01*
X158957738Y-97511927D02*
X159091071Y-97664308D01*
X159091071Y-97664308D02*
X159033928Y-97664308D01*
X159033928Y-97664308D02*
X158995833Y-97683356D01*
X158995833Y-97683356D02*
X158976785Y-97702403D01*
X158976785Y-97702403D02*
X158957738Y-97740499D01*
X158957738Y-97740499D02*
X158957738Y-97835737D01*
X158957738Y-97835737D02*
X158976785Y-97873832D01*
X158976785Y-97873832D02*
X158995833Y-97892880D01*
X158995833Y-97892880D02*
X159033928Y-97911927D01*
X159033928Y-97911927D02*
X159148214Y-97911927D01*
X159148214Y-97911927D02*
X159186309Y-97892880D01*
X159186309Y-97892880D02*
X159205357Y-97873832D01*
X171382142Y-101861927D02*
X171515475Y-101671451D01*
X171610713Y-101861927D02*
X171610713Y-101461927D01*
X171610713Y-101461927D02*
X171458332Y-101461927D01*
X171458332Y-101461927D02*
X171420237Y-101480975D01*
X171420237Y-101480975D02*
X171401190Y-101500022D01*
X171401190Y-101500022D02*
X171382142Y-101538118D01*
X171382142Y-101538118D02*
X171382142Y-101595260D01*
X171382142Y-101595260D02*
X171401190Y-101633356D01*
X171401190Y-101633356D02*
X171420237Y-101652403D01*
X171420237Y-101652403D02*
X171458332Y-101671451D01*
X171458332Y-101671451D02*
X171610713Y-101671451D01*
X171039285Y-101595260D02*
X171039285Y-101861927D01*
X171134523Y-101442880D02*
X171229761Y-101728594D01*
X171229761Y-101728594D02*
X170982142Y-101728594D01*
X170772619Y-101633356D02*
X170810714Y-101614308D01*
X170810714Y-101614308D02*
X170829761Y-101595260D01*
X170829761Y-101595260D02*
X170848809Y-101557165D01*
X170848809Y-101557165D02*
X170848809Y-101538118D01*
X170848809Y-101538118D02*
X170829761Y-101500022D01*
X170829761Y-101500022D02*
X170810714Y-101480975D01*
X170810714Y-101480975D02*
X170772619Y-101461927D01*
X170772619Y-101461927D02*
X170696428Y-101461927D01*
X170696428Y-101461927D02*
X170658333Y-101480975D01*
X170658333Y-101480975D02*
X170639285Y-101500022D01*
X170639285Y-101500022D02*
X170620238Y-101538118D01*
X170620238Y-101538118D02*
X170620238Y-101557165D01*
X170620238Y-101557165D02*
X170639285Y-101595260D01*
X170639285Y-101595260D02*
X170658333Y-101614308D01*
X170658333Y-101614308D02*
X170696428Y-101633356D01*
X170696428Y-101633356D02*
X170772619Y-101633356D01*
X170772619Y-101633356D02*
X170810714Y-101652403D01*
X170810714Y-101652403D02*
X170829761Y-101671451D01*
X170829761Y-101671451D02*
X170848809Y-101709546D01*
X170848809Y-101709546D02*
X170848809Y-101785737D01*
X170848809Y-101785737D02*
X170829761Y-101823832D01*
X170829761Y-101823832D02*
X170810714Y-101842880D01*
X170810714Y-101842880D02*
X170772619Y-101861927D01*
X170772619Y-101861927D02*
X170696428Y-101861927D01*
X170696428Y-101861927D02*
X170658333Y-101842880D01*
X170658333Y-101842880D02*
X170639285Y-101823832D01*
X170639285Y-101823832D02*
X170620238Y-101785737D01*
X170620238Y-101785737D02*
X170620238Y-101709546D01*
X170620238Y-101709546D02*
X170639285Y-101671451D01*
X170639285Y-101671451D02*
X170658333Y-101652403D01*
X170658333Y-101652403D02*
X170696428Y-101633356D01*
D10*
X132431547Y-124610057D02*
X132383928Y-124562438D01*
X132383928Y-124562438D02*
X132288690Y-124514819D01*
X132288690Y-124514819D02*
X132050595Y-124514819D01*
X132050595Y-124514819D02*
X131955357Y-124562438D01*
X131955357Y-124562438D02*
X131907738Y-124610057D01*
X131907738Y-124610057D02*
X131860119Y-124705295D01*
X131860119Y-124705295D02*
X131860119Y-124800533D01*
X131860119Y-124800533D02*
X131907738Y-124943390D01*
X131907738Y-124943390D02*
X132479166Y-125514819D01*
X132479166Y-125514819D02*
X131860119Y-125514819D01*
X131479166Y-124610057D02*
X131431547Y-124562438D01*
X131431547Y-124562438D02*
X131336309Y-124514819D01*
X131336309Y-124514819D02*
X131098214Y-124514819D01*
X131098214Y-124514819D02*
X131002976Y-124562438D01*
X131002976Y-124562438D02*
X130955357Y-124610057D01*
X130955357Y-124610057D02*
X130907738Y-124705295D01*
X130907738Y-124705295D02*
X130907738Y-124800533D01*
X130907738Y-124800533D02*
X130955357Y-124943390D01*
X130955357Y-124943390D02*
X131526785Y-125514819D01*
X131526785Y-125514819D02*
X130907738Y-125514819D01*
X130288690Y-124514819D02*
X130193452Y-124514819D01*
X130193452Y-124514819D02*
X130098214Y-124562438D01*
X130098214Y-124562438D02*
X130050595Y-124610057D01*
X130050595Y-124610057D02*
X130002976Y-124705295D01*
X130002976Y-124705295D02*
X129955357Y-124895771D01*
X129955357Y-124895771D02*
X129955357Y-125133866D01*
X129955357Y-125133866D02*
X130002976Y-125324342D01*
X130002976Y-125324342D02*
X130050595Y-125419580D01*
X130050595Y-125419580D02*
X130098214Y-125467200D01*
X130098214Y-125467200D02*
X130193452Y-125514819D01*
X130193452Y-125514819D02*
X130288690Y-125514819D01*
X130288690Y-125514819D02*
X130383928Y-125467200D01*
X130383928Y-125467200D02*
X130431547Y-125419580D01*
X130431547Y-125419580D02*
X130479166Y-125324342D01*
X130479166Y-125324342D02*
X130526785Y-125133866D01*
X130526785Y-125133866D02*
X130526785Y-124895771D01*
X130526785Y-124895771D02*
X130479166Y-124705295D01*
X130479166Y-124705295D02*
X130431547Y-124610057D01*
X130431547Y-124610057D02*
X130383928Y-124562438D01*
X130383928Y-124562438D02*
X130288690Y-124514819D01*
X129526785Y-124848152D02*
X129526785Y-125848152D01*
X129526785Y-124895771D02*
X129431547Y-124848152D01*
X129431547Y-124848152D02*
X129241071Y-124848152D01*
X129241071Y-124848152D02*
X129145833Y-124895771D01*
X129145833Y-124895771D02*
X129098214Y-124943390D01*
X129098214Y-124943390D02*
X129050595Y-125038628D01*
X129050595Y-125038628D02*
X129050595Y-125324342D01*
X129050595Y-125324342D02*
X129098214Y-125419580D01*
X129098214Y-125419580D02*
X129145833Y-125467200D01*
X129145833Y-125467200D02*
X129241071Y-125514819D01*
X129241071Y-125514819D02*
X129431547Y-125514819D01*
X129431547Y-125514819D02*
X129526785Y-125467200D01*
X128288690Y-124991009D02*
X128622023Y-124991009D01*
X128622023Y-125514819D02*
X128622023Y-124514819D01*
X128622023Y-124514819D02*
X128145833Y-124514819D01*
D11*
X130379166Y-123773832D02*
X130398214Y-123792880D01*
X130398214Y-123792880D02*
X130455356Y-123811927D01*
X130455356Y-123811927D02*
X130493452Y-123811927D01*
X130493452Y-123811927D02*
X130550595Y-123792880D01*
X130550595Y-123792880D02*
X130588690Y-123754784D01*
X130588690Y-123754784D02*
X130607737Y-123716689D01*
X130607737Y-123716689D02*
X130626785Y-123640499D01*
X130626785Y-123640499D02*
X130626785Y-123583356D01*
X130626785Y-123583356D02*
X130607737Y-123507165D01*
X130607737Y-123507165D02*
X130588690Y-123469070D01*
X130588690Y-123469070D02*
X130550595Y-123430975D01*
X130550595Y-123430975D02*
X130493452Y-123411927D01*
X130493452Y-123411927D02*
X130455356Y-123411927D01*
X130455356Y-123411927D02*
X130398214Y-123430975D01*
X130398214Y-123430975D02*
X130379166Y-123450022D01*
X130036309Y-123545260D02*
X130036309Y-123811927D01*
X130131547Y-123392880D02*
X130226785Y-123678594D01*
X130226785Y-123678594D02*
X129979166Y-123678594D01*
X145657142Y-90911927D02*
X145790475Y-90721451D01*
X145885713Y-90911927D02*
X145885713Y-90511927D01*
X145885713Y-90511927D02*
X145733332Y-90511927D01*
X145733332Y-90511927D02*
X145695237Y-90530975D01*
X145695237Y-90530975D02*
X145676190Y-90550022D01*
X145676190Y-90550022D02*
X145657142Y-90588118D01*
X145657142Y-90588118D02*
X145657142Y-90645260D01*
X145657142Y-90645260D02*
X145676190Y-90683356D01*
X145676190Y-90683356D02*
X145695237Y-90702403D01*
X145695237Y-90702403D02*
X145733332Y-90721451D01*
X145733332Y-90721451D02*
X145885713Y-90721451D01*
X145504761Y-90550022D02*
X145485713Y-90530975D01*
X145485713Y-90530975D02*
X145447618Y-90511927D01*
X145447618Y-90511927D02*
X145352380Y-90511927D01*
X145352380Y-90511927D02*
X145314285Y-90530975D01*
X145314285Y-90530975D02*
X145295237Y-90550022D01*
X145295237Y-90550022D02*
X145276190Y-90588118D01*
X145276190Y-90588118D02*
X145276190Y-90626213D01*
X145276190Y-90626213D02*
X145295237Y-90683356D01*
X145295237Y-90683356D02*
X145523809Y-90911927D01*
X145523809Y-90911927D02*
X145276190Y-90911927D01*
X144933333Y-90645260D02*
X144933333Y-90911927D01*
X145028571Y-90492880D02*
X145123809Y-90778594D01*
X145123809Y-90778594D02*
X144876190Y-90778594D01*
X138719642Y-90911927D02*
X138852975Y-90721451D01*
X138948213Y-90911927D02*
X138948213Y-90511927D01*
X138948213Y-90511927D02*
X138795832Y-90511927D01*
X138795832Y-90511927D02*
X138757737Y-90530975D01*
X138757737Y-90530975D02*
X138738690Y-90550022D01*
X138738690Y-90550022D02*
X138719642Y-90588118D01*
X138719642Y-90588118D02*
X138719642Y-90645260D01*
X138719642Y-90645260D02*
X138738690Y-90683356D01*
X138738690Y-90683356D02*
X138757737Y-90702403D01*
X138757737Y-90702403D02*
X138795832Y-90721451D01*
X138795832Y-90721451D02*
X138948213Y-90721451D01*
X138338690Y-90911927D02*
X138567261Y-90911927D01*
X138452975Y-90911927D02*
X138452975Y-90511927D01*
X138452975Y-90511927D02*
X138491071Y-90569070D01*
X138491071Y-90569070D02*
X138529166Y-90607165D01*
X138529166Y-90607165D02*
X138567261Y-90626213D01*
X137995833Y-90511927D02*
X138072023Y-90511927D01*
X138072023Y-90511927D02*
X138110119Y-90530975D01*
X138110119Y-90530975D02*
X138129166Y-90550022D01*
X138129166Y-90550022D02*
X138167261Y-90607165D01*
X138167261Y-90607165D02*
X138186309Y-90683356D01*
X138186309Y-90683356D02*
X138186309Y-90835737D01*
X138186309Y-90835737D02*
X138167261Y-90873832D01*
X138167261Y-90873832D02*
X138148214Y-90892880D01*
X138148214Y-90892880D02*
X138110119Y-90911927D01*
X138110119Y-90911927D02*
X138033928Y-90911927D01*
X138033928Y-90911927D02*
X137995833Y-90892880D01*
X137995833Y-90892880D02*
X137976785Y-90873832D01*
X137976785Y-90873832D02*
X137957738Y-90835737D01*
X137957738Y-90835737D02*
X137957738Y-90740499D01*
X137957738Y-90740499D02*
X137976785Y-90702403D01*
X137976785Y-90702403D02*
X137995833Y-90683356D01*
X137995833Y-90683356D02*
X138033928Y-90664308D01*
X138033928Y-90664308D02*
X138110119Y-90664308D01*
X138110119Y-90664308D02*
X138148214Y-90683356D01*
X138148214Y-90683356D02*
X138167261Y-90702403D01*
X138167261Y-90702403D02*
X138186309Y-90740499D01*
X138732142Y-69836927D02*
X138865475Y-69646451D01*
X138960713Y-69836927D02*
X138960713Y-69436927D01*
X138960713Y-69436927D02*
X138808332Y-69436927D01*
X138808332Y-69436927D02*
X138770237Y-69455975D01*
X138770237Y-69455975D02*
X138751190Y-69475022D01*
X138751190Y-69475022D02*
X138732142Y-69513118D01*
X138732142Y-69513118D02*
X138732142Y-69570260D01*
X138732142Y-69570260D02*
X138751190Y-69608356D01*
X138751190Y-69608356D02*
X138770237Y-69627403D01*
X138770237Y-69627403D02*
X138808332Y-69646451D01*
X138808332Y-69646451D02*
X138960713Y-69646451D01*
X138579761Y-69475022D02*
X138560713Y-69455975D01*
X138560713Y-69455975D02*
X138522618Y-69436927D01*
X138522618Y-69436927D02*
X138427380Y-69436927D01*
X138427380Y-69436927D02*
X138389285Y-69455975D01*
X138389285Y-69455975D02*
X138370237Y-69475022D01*
X138370237Y-69475022D02*
X138351190Y-69513118D01*
X138351190Y-69513118D02*
X138351190Y-69551213D01*
X138351190Y-69551213D02*
X138370237Y-69608356D01*
X138370237Y-69608356D02*
X138598809Y-69836927D01*
X138598809Y-69836927D02*
X138351190Y-69836927D01*
X137970238Y-69836927D02*
X138198809Y-69836927D01*
X138084523Y-69836927D02*
X138084523Y-69436927D01*
X138084523Y-69436927D02*
X138122619Y-69494070D01*
X138122619Y-69494070D02*
X138160714Y-69532165D01*
X138160714Y-69532165D02*
X138198809Y-69551213D01*
X152769642Y-111911927D02*
X152902975Y-111721451D01*
X152998213Y-111911927D02*
X152998213Y-111511927D01*
X152998213Y-111511927D02*
X152845832Y-111511927D01*
X152845832Y-111511927D02*
X152807737Y-111530975D01*
X152807737Y-111530975D02*
X152788690Y-111550022D01*
X152788690Y-111550022D02*
X152769642Y-111588118D01*
X152769642Y-111588118D02*
X152769642Y-111645260D01*
X152769642Y-111645260D02*
X152788690Y-111683356D01*
X152788690Y-111683356D02*
X152807737Y-111702403D01*
X152807737Y-111702403D02*
X152845832Y-111721451D01*
X152845832Y-111721451D02*
X152998213Y-111721451D01*
X152407737Y-111511927D02*
X152598213Y-111511927D01*
X152598213Y-111511927D02*
X152617261Y-111702403D01*
X152617261Y-111702403D02*
X152598213Y-111683356D01*
X152598213Y-111683356D02*
X152560118Y-111664308D01*
X152560118Y-111664308D02*
X152464880Y-111664308D01*
X152464880Y-111664308D02*
X152426785Y-111683356D01*
X152426785Y-111683356D02*
X152407737Y-111702403D01*
X152407737Y-111702403D02*
X152388690Y-111740499D01*
X152388690Y-111740499D02*
X152388690Y-111835737D01*
X152388690Y-111835737D02*
X152407737Y-111873832D01*
X152407737Y-111873832D02*
X152426785Y-111892880D01*
X152426785Y-111892880D02*
X152464880Y-111911927D01*
X152464880Y-111911927D02*
X152560118Y-111911927D01*
X152560118Y-111911927D02*
X152598213Y-111892880D01*
X152598213Y-111892880D02*
X152617261Y-111873832D01*
X152255357Y-111511927D02*
X151988690Y-111511927D01*
X151988690Y-111511927D02*
X152160119Y-111911927D01*
X124541666Y-76836927D02*
X124674999Y-76646451D01*
X124770237Y-76836927D02*
X124770237Y-76436927D01*
X124770237Y-76436927D02*
X124617856Y-76436927D01*
X124617856Y-76436927D02*
X124579761Y-76455975D01*
X124579761Y-76455975D02*
X124560714Y-76475022D01*
X124560714Y-76475022D02*
X124541666Y-76513118D01*
X124541666Y-76513118D02*
X124541666Y-76570260D01*
X124541666Y-76570260D02*
X124560714Y-76608356D01*
X124560714Y-76608356D02*
X124579761Y-76627403D01*
X124579761Y-76627403D02*
X124617856Y-76646451D01*
X124617856Y-76646451D02*
X124770237Y-76646451D01*
X124408333Y-76436927D02*
X124141666Y-76436927D01*
X124141666Y-76436927D02*
X124313095Y-76836927D01*
X171191666Y-66836927D02*
X171324999Y-66646451D01*
X171420237Y-66836927D02*
X171420237Y-66436927D01*
X171420237Y-66436927D02*
X171267856Y-66436927D01*
X171267856Y-66436927D02*
X171229761Y-66455975D01*
X171229761Y-66455975D02*
X171210714Y-66475022D01*
X171210714Y-66475022D02*
X171191666Y-66513118D01*
X171191666Y-66513118D02*
X171191666Y-66570260D01*
X171191666Y-66570260D02*
X171210714Y-66608356D01*
X171210714Y-66608356D02*
X171229761Y-66627403D01*
X171229761Y-66627403D02*
X171267856Y-66646451D01*
X171267856Y-66646451D02*
X171420237Y-66646451D01*
X170963095Y-66608356D02*
X171001190Y-66589308D01*
X171001190Y-66589308D02*
X171020237Y-66570260D01*
X171020237Y-66570260D02*
X171039285Y-66532165D01*
X171039285Y-66532165D02*
X171039285Y-66513118D01*
X171039285Y-66513118D02*
X171020237Y-66475022D01*
X171020237Y-66475022D02*
X171001190Y-66455975D01*
X171001190Y-66455975D02*
X170963095Y-66436927D01*
X170963095Y-66436927D02*
X170886904Y-66436927D01*
X170886904Y-66436927D02*
X170848809Y-66455975D01*
X170848809Y-66455975D02*
X170829761Y-66475022D01*
X170829761Y-66475022D02*
X170810714Y-66513118D01*
X170810714Y-66513118D02*
X170810714Y-66532165D01*
X170810714Y-66532165D02*
X170829761Y-66570260D01*
X170829761Y-66570260D02*
X170848809Y-66589308D01*
X170848809Y-66589308D02*
X170886904Y-66608356D01*
X170886904Y-66608356D02*
X170963095Y-66608356D01*
X170963095Y-66608356D02*
X171001190Y-66627403D01*
X171001190Y-66627403D02*
X171020237Y-66646451D01*
X171020237Y-66646451D02*
X171039285Y-66684546D01*
X171039285Y-66684546D02*
X171039285Y-66760737D01*
X171039285Y-66760737D02*
X171020237Y-66798832D01*
X171020237Y-66798832D02*
X171001190Y-66817880D01*
X171001190Y-66817880D02*
X170963095Y-66836927D01*
X170963095Y-66836927D02*
X170886904Y-66836927D01*
X170886904Y-66836927D02*
X170848809Y-66817880D01*
X170848809Y-66817880D02*
X170829761Y-66798832D01*
X170829761Y-66798832D02*
X170810714Y-66760737D01*
X170810714Y-66760737D02*
X170810714Y-66684546D01*
X170810714Y-66684546D02*
X170829761Y-66646451D01*
X170829761Y-66646451D02*
X170848809Y-66627403D01*
X170848809Y-66627403D02*
X170886904Y-66608356D01*
X131669642Y-118911927D02*
X131802975Y-118721451D01*
X131898213Y-118911927D02*
X131898213Y-118511927D01*
X131898213Y-118511927D02*
X131745832Y-118511927D01*
X131745832Y-118511927D02*
X131707737Y-118530975D01*
X131707737Y-118530975D02*
X131688690Y-118550022D01*
X131688690Y-118550022D02*
X131669642Y-118588118D01*
X131669642Y-118588118D02*
X131669642Y-118645260D01*
X131669642Y-118645260D02*
X131688690Y-118683356D01*
X131688690Y-118683356D02*
X131707737Y-118702403D01*
X131707737Y-118702403D02*
X131745832Y-118721451D01*
X131745832Y-118721451D02*
X131898213Y-118721451D01*
X131307737Y-118511927D02*
X131498213Y-118511927D01*
X131498213Y-118511927D02*
X131517261Y-118702403D01*
X131517261Y-118702403D02*
X131498213Y-118683356D01*
X131498213Y-118683356D02*
X131460118Y-118664308D01*
X131460118Y-118664308D02*
X131364880Y-118664308D01*
X131364880Y-118664308D02*
X131326785Y-118683356D01*
X131326785Y-118683356D02*
X131307737Y-118702403D01*
X131307737Y-118702403D02*
X131288690Y-118740499D01*
X131288690Y-118740499D02*
X131288690Y-118835737D01*
X131288690Y-118835737D02*
X131307737Y-118873832D01*
X131307737Y-118873832D02*
X131326785Y-118892880D01*
X131326785Y-118892880D02*
X131364880Y-118911927D01*
X131364880Y-118911927D02*
X131460118Y-118911927D01*
X131460118Y-118911927D02*
X131498213Y-118892880D01*
X131498213Y-118892880D02*
X131517261Y-118873832D01*
X131136309Y-118550022D02*
X131117261Y-118530975D01*
X131117261Y-118530975D02*
X131079166Y-118511927D01*
X131079166Y-118511927D02*
X130983928Y-118511927D01*
X130983928Y-118511927D02*
X130945833Y-118530975D01*
X130945833Y-118530975D02*
X130926785Y-118550022D01*
X130926785Y-118550022D02*
X130907738Y-118588118D01*
X130907738Y-118588118D02*
X130907738Y-118626213D01*
X130907738Y-118626213D02*
X130926785Y-118683356D01*
X130926785Y-118683356D02*
X131155357Y-118911927D01*
X131155357Y-118911927D02*
X130907738Y-118911927D01*
X145669642Y-83911927D02*
X145802975Y-83721451D01*
X145898213Y-83911927D02*
X145898213Y-83511927D01*
X145898213Y-83511927D02*
X145745832Y-83511927D01*
X145745832Y-83511927D02*
X145707737Y-83530975D01*
X145707737Y-83530975D02*
X145688690Y-83550022D01*
X145688690Y-83550022D02*
X145669642Y-83588118D01*
X145669642Y-83588118D02*
X145669642Y-83645260D01*
X145669642Y-83645260D02*
X145688690Y-83683356D01*
X145688690Y-83683356D02*
X145707737Y-83702403D01*
X145707737Y-83702403D02*
X145745832Y-83721451D01*
X145745832Y-83721451D02*
X145898213Y-83721451D01*
X145517261Y-83550022D02*
X145498213Y-83530975D01*
X145498213Y-83530975D02*
X145460118Y-83511927D01*
X145460118Y-83511927D02*
X145364880Y-83511927D01*
X145364880Y-83511927D02*
X145326785Y-83530975D01*
X145326785Y-83530975D02*
X145307737Y-83550022D01*
X145307737Y-83550022D02*
X145288690Y-83588118D01*
X145288690Y-83588118D02*
X145288690Y-83626213D01*
X145288690Y-83626213D02*
X145307737Y-83683356D01*
X145307737Y-83683356D02*
X145536309Y-83911927D01*
X145536309Y-83911927D02*
X145288690Y-83911927D01*
X145155357Y-83511927D02*
X144907738Y-83511927D01*
X144907738Y-83511927D02*
X145041071Y-83664308D01*
X145041071Y-83664308D02*
X144983928Y-83664308D01*
X144983928Y-83664308D02*
X144945833Y-83683356D01*
X144945833Y-83683356D02*
X144926785Y-83702403D01*
X144926785Y-83702403D02*
X144907738Y-83740499D01*
X144907738Y-83740499D02*
X144907738Y-83835737D01*
X144907738Y-83835737D02*
X144926785Y-83873832D01*
X144926785Y-83873832D02*
X144945833Y-83892880D01*
X144945833Y-83892880D02*
X144983928Y-83911927D01*
X144983928Y-83911927D02*
X145098214Y-83911927D01*
X145098214Y-83911927D02*
X145136309Y-83892880D01*
X145136309Y-83892880D02*
X145155357Y-83873832D01*
X145732142Y-76836927D02*
X145865475Y-76646451D01*
X145960713Y-76836927D02*
X145960713Y-76436927D01*
X145960713Y-76436927D02*
X145808332Y-76436927D01*
X145808332Y-76436927D02*
X145770237Y-76455975D01*
X145770237Y-76455975D02*
X145751190Y-76475022D01*
X145751190Y-76475022D02*
X145732142Y-76513118D01*
X145732142Y-76513118D02*
X145732142Y-76570260D01*
X145732142Y-76570260D02*
X145751190Y-76608356D01*
X145751190Y-76608356D02*
X145770237Y-76627403D01*
X145770237Y-76627403D02*
X145808332Y-76646451D01*
X145808332Y-76646451D02*
X145960713Y-76646451D01*
X145351190Y-76836927D02*
X145579761Y-76836927D01*
X145465475Y-76836927D02*
X145465475Y-76436927D01*
X145465475Y-76436927D02*
X145503571Y-76494070D01*
X145503571Y-76494070D02*
X145541666Y-76532165D01*
X145541666Y-76532165D02*
X145579761Y-76551213D01*
X145217857Y-76436927D02*
X144951190Y-76436927D01*
X144951190Y-76436927D02*
X145122619Y-76836927D01*
X131732142Y-76836927D02*
X131865475Y-76646451D01*
X131960713Y-76836927D02*
X131960713Y-76436927D01*
X131960713Y-76436927D02*
X131808332Y-76436927D01*
X131808332Y-76436927D02*
X131770237Y-76455975D01*
X131770237Y-76455975D02*
X131751190Y-76475022D01*
X131751190Y-76475022D02*
X131732142Y-76513118D01*
X131732142Y-76513118D02*
X131732142Y-76570260D01*
X131732142Y-76570260D02*
X131751190Y-76608356D01*
X131751190Y-76608356D02*
X131770237Y-76627403D01*
X131770237Y-76627403D02*
X131808332Y-76646451D01*
X131808332Y-76646451D02*
X131960713Y-76646451D01*
X131579761Y-76475022D02*
X131560713Y-76455975D01*
X131560713Y-76455975D02*
X131522618Y-76436927D01*
X131522618Y-76436927D02*
X131427380Y-76436927D01*
X131427380Y-76436927D02*
X131389285Y-76455975D01*
X131389285Y-76455975D02*
X131370237Y-76475022D01*
X131370237Y-76475022D02*
X131351190Y-76513118D01*
X131351190Y-76513118D02*
X131351190Y-76551213D01*
X131351190Y-76551213D02*
X131370237Y-76608356D01*
X131370237Y-76608356D02*
X131598809Y-76836927D01*
X131598809Y-76836927D02*
X131351190Y-76836927D01*
X131103571Y-76436927D02*
X131065476Y-76436927D01*
X131065476Y-76436927D02*
X131027380Y-76455975D01*
X131027380Y-76455975D02*
X131008333Y-76475022D01*
X131008333Y-76475022D02*
X130989285Y-76513118D01*
X130989285Y-76513118D02*
X130970238Y-76589308D01*
X130970238Y-76589308D02*
X130970238Y-76684546D01*
X130970238Y-76684546D02*
X130989285Y-76760737D01*
X130989285Y-76760737D02*
X131008333Y-76798832D01*
X131008333Y-76798832D02*
X131027380Y-76817880D01*
X131027380Y-76817880D02*
X131065476Y-76836927D01*
X131065476Y-76836927D02*
X131103571Y-76836927D01*
X131103571Y-76836927D02*
X131141666Y-76817880D01*
X131141666Y-76817880D02*
X131160714Y-76798832D01*
X131160714Y-76798832D02*
X131179761Y-76760737D01*
X131179761Y-76760737D02*
X131198809Y-76684546D01*
X131198809Y-76684546D02*
X131198809Y-76589308D01*
X131198809Y-76589308D02*
X131179761Y-76513118D01*
X131179761Y-76513118D02*
X131160714Y-76475022D01*
X131160714Y-76475022D02*
X131141666Y-76455975D01*
X131141666Y-76455975D02*
X131103571Y-76436927D01*
X138719642Y-104911927D02*
X138852975Y-104721451D01*
X138948213Y-104911927D02*
X138948213Y-104511927D01*
X138948213Y-104511927D02*
X138795832Y-104511927D01*
X138795832Y-104511927D02*
X138757737Y-104530975D01*
X138757737Y-104530975D02*
X138738690Y-104550022D01*
X138738690Y-104550022D02*
X138719642Y-104588118D01*
X138719642Y-104588118D02*
X138719642Y-104645260D01*
X138719642Y-104645260D02*
X138738690Y-104683356D01*
X138738690Y-104683356D02*
X138757737Y-104702403D01*
X138757737Y-104702403D02*
X138795832Y-104721451D01*
X138795832Y-104721451D02*
X138948213Y-104721451D01*
X138586309Y-104511927D02*
X138338690Y-104511927D01*
X138338690Y-104511927D02*
X138472023Y-104664308D01*
X138472023Y-104664308D02*
X138414880Y-104664308D01*
X138414880Y-104664308D02*
X138376785Y-104683356D01*
X138376785Y-104683356D02*
X138357737Y-104702403D01*
X138357737Y-104702403D02*
X138338690Y-104740499D01*
X138338690Y-104740499D02*
X138338690Y-104835737D01*
X138338690Y-104835737D02*
X138357737Y-104873832D01*
X138357737Y-104873832D02*
X138376785Y-104892880D01*
X138376785Y-104892880D02*
X138414880Y-104911927D01*
X138414880Y-104911927D02*
X138529166Y-104911927D01*
X138529166Y-104911927D02*
X138567261Y-104892880D01*
X138567261Y-104892880D02*
X138586309Y-104873832D01*
X138110119Y-104683356D02*
X138148214Y-104664308D01*
X138148214Y-104664308D02*
X138167261Y-104645260D01*
X138167261Y-104645260D02*
X138186309Y-104607165D01*
X138186309Y-104607165D02*
X138186309Y-104588118D01*
X138186309Y-104588118D02*
X138167261Y-104550022D01*
X138167261Y-104550022D02*
X138148214Y-104530975D01*
X138148214Y-104530975D02*
X138110119Y-104511927D01*
X138110119Y-104511927D02*
X138033928Y-104511927D01*
X138033928Y-104511927D02*
X137995833Y-104530975D01*
X137995833Y-104530975D02*
X137976785Y-104550022D01*
X137976785Y-104550022D02*
X137957738Y-104588118D01*
X137957738Y-104588118D02*
X137957738Y-104607165D01*
X137957738Y-104607165D02*
X137976785Y-104645260D01*
X137976785Y-104645260D02*
X137995833Y-104664308D01*
X137995833Y-104664308D02*
X138033928Y-104683356D01*
X138033928Y-104683356D02*
X138110119Y-104683356D01*
X138110119Y-104683356D02*
X138148214Y-104702403D01*
X138148214Y-104702403D02*
X138167261Y-104721451D01*
X138167261Y-104721451D02*
X138186309Y-104759546D01*
X138186309Y-104759546D02*
X138186309Y-104835737D01*
X138186309Y-104835737D02*
X138167261Y-104873832D01*
X138167261Y-104873832D02*
X138148214Y-104892880D01*
X138148214Y-104892880D02*
X138110119Y-104911927D01*
X138110119Y-104911927D02*
X138033928Y-104911927D01*
X138033928Y-104911927D02*
X137995833Y-104892880D01*
X137995833Y-104892880D02*
X137976785Y-104873832D01*
X137976785Y-104873832D02*
X137957738Y-104835737D01*
X137957738Y-104835737D02*
X137957738Y-104759546D01*
X137957738Y-104759546D02*
X137976785Y-104721451D01*
X137976785Y-104721451D02*
X137995833Y-104702403D01*
X137995833Y-104702403D02*
X138033928Y-104683356D01*
X145732142Y-69886927D02*
X145865475Y-69696451D01*
X145960713Y-69886927D02*
X145960713Y-69486927D01*
X145960713Y-69486927D02*
X145808332Y-69486927D01*
X145808332Y-69486927D02*
X145770237Y-69505975D01*
X145770237Y-69505975D02*
X145751190Y-69525022D01*
X145751190Y-69525022D02*
X145732142Y-69563118D01*
X145732142Y-69563118D02*
X145732142Y-69620260D01*
X145732142Y-69620260D02*
X145751190Y-69658356D01*
X145751190Y-69658356D02*
X145770237Y-69677403D01*
X145770237Y-69677403D02*
X145808332Y-69696451D01*
X145808332Y-69696451D02*
X145960713Y-69696451D01*
X145579761Y-69525022D02*
X145560713Y-69505975D01*
X145560713Y-69505975D02*
X145522618Y-69486927D01*
X145522618Y-69486927D02*
X145427380Y-69486927D01*
X145427380Y-69486927D02*
X145389285Y-69505975D01*
X145389285Y-69505975D02*
X145370237Y-69525022D01*
X145370237Y-69525022D02*
X145351190Y-69563118D01*
X145351190Y-69563118D02*
X145351190Y-69601213D01*
X145351190Y-69601213D02*
X145370237Y-69658356D01*
X145370237Y-69658356D02*
X145598809Y-69886927D01*
X145598809Y-69886927D02*
X145351190Y-69886927D01*
X145198809Y-69525022D02*
X145179761Y-69505975D01*
X145179761Y-69505975D02*
X145141666Y-69486927D01*
X145141666Y-69486927D02*
X145046428Y-69486927D01*
X145046428Y-69486927D02*
X145008333Y-69505975D01*
X145008333Y-69505975D02*
X144989285Y-69525022D01*
X144989285Y-69525022D02*
X144970238Y-69563118D01*
X144970238Y-69563118D02*
X144970238Y-69601213D01*
X144970238Y-69601213D02*
X144989285Y-69658356D01*
X144989285Y-69658356D02*
X145217857Y-69886927D01*
X145217857Y-69886927D02*
X144970238Y-69886927D01*
X166819642Y-104911927D02*
X166952975Y-104721451D01*
X167048213Y-104911927D02*
X167048213Y-104511927D01*
X167048213Y-104511927D02*
X166895832Y-104511927D01*
X166895832Y-104511927D02*
X166857737Y-104530975D01*
X166857737Y-104530975D02*
X166838690Y-104550022D01*
X166838690Y-104550022D02*
X166819642Y-104588118D01*
X166819642Y-104588118D02*
X166819642Y-104645260D01*
X166819642Y-104645260D02*
X166838690Y-104683356D01*
X166838690Y-104683356D02*
X166857737Y-104702403D01*
X166857737Y-104702403D02*
X166895832Y-104721451D01*
X166895832Y-104721451D02*
X167048213Y-104721451D01*
X166476785Y-104645260D02*
X166476785Y-104911927D01*
X166572023Y-104492880D02*
X166667261Y-104778594D01*
X166667261Y-104778594D02*
X166419642Y-104778594D01*
X166095833Y-104511927D02*
X166172023Y-104511927D01*
X166172023Y-104511927D02*
X166210119Y-104530975D01*
X166210119Y-104530975D02*
X166229166Y-104550022D01*
X166229166Y-104550022D02*
X166267261Y-104607165D01*
X166267261Y-104607165D02*
X166286309Y-104683356D01*
X166286309Y-104683356D02*
X166286309Y-104835737D01*
X166286309Y-104835737D02*
X166267261Y-104873832D01*
X166267261Y-104873832D02*
X166248214Y-104892880D01*
X166248214Y-104892880D02*
X166210119Y-104911927D01*
X166210119Y-104911927D02*
X166133928Y-104911927D01*
X166133928Y-104911927D02*
X166095833Y-104892880D01*
X166095833Y-104892880D02*
X166076785Y-104873832D01*
X166076785Y-104873832D02*
X166057738Y-104835737D01*
X166057738Y-104835737D02*
X166057738Y-104740499D01*
X166057738Y-104740499D02*
X166076785Y-104702403D01*
X166076785Y-104702403D02*
X166095833Y-104683356D01*
X166095833Y-104683356D02*
X166133928Y-104664308D01*
X166133928Y-104664308D02*
X166210119Y-104664308D01*
X166210119Y-104664308D02*
X166248214Y-104683356D01*
X166248214Y-104683356D02*
X166267261Y-104702403D01*
X166267261Y-104702403D02*
X166286309Y-104740499D01*
D10*
X156769047Y-124530057D02*
X156721428Y-124482438D01*
X156721428Y-124482438D02*
X156626190Y-124434819D01*
X156626190Y-124434819D02*
X156388095Y-124434819D01*
X156388095Y-124434819D02*
X156292857Y-124482438D01*
X156292857Y-124482438D02*
X156245238Y-124530057D01*
X156245238Y-124530057D02*
X156197619Y-124625295D01*
X156197619Y-124625295D02*
X156197619Y-124720533D01*
X156197619Y-124720533D02*
X156245238Y-124863390D01*
X156245238Y-124863390D02*
X156816666Y-125434819D01*
X156816666Y-125434819D02*
X156197619Y-125434819D01*
X155816666Y-124530057D02*
X155769047Y-124482438D01*
X155769047Y-124482438D02*
X155673809Y-124434819D01*
X155673809Y-124434819D02*
X155435714Y-124434819D01*
X155435714Y-124434819D02*
X155340476Y-124482438D01*
X155340476Y-124482438D02*
X155292857Y-124530057D01*
X155292857Y-124530057D02*
X155245238Y-124625295D01*
X155245238Y-124625295D02*
X155245238Y-124720533D01*
X155245238Y-124720533D02*
X155292857Y-124863390D01*
X155292857Y-124863390D02*
X155864285Y-125434819D01*
X155864285Y-125434819D02*
X155245238Y-125434819D01*
X154626190Y-124434819D02*
X154530952Y-124434819D01*
X154530952Y-124434819D02*
X154435714Y-124482438D01*
X154435714Y-124482438D02*
X154388095Y-124530057D01*
X154388095Y-124530057D02*
X154340476Y-124625295D01*
X154340476Y-124625295D02*
X154292857Y-124815771D01*
X154292857Y-124815771D02*
X154292857Y-125053866D01*
X154292857Y-125053866D02*
X154340476Y-125244342D01*
X154340476Y-125244342D02*
X154388095Y-125339580D01*
X154388095Y-125339580D02*
X154435714Y-125387200D01*
X154435714Y-125387200D02*
X154530952Y-125434819D01*
X154530952Y-125434819D02*
X154626190Y-125434819D01*
X154626190Y-125434819D02*
X154721428Y-125387200D01*
X154721428Y-125387200D02*
X154769047Y-125339580D01*
X154769047Y-125339580D02*
X154816666Y-125244342D01*
X154816666Y-125244342D02*
X154864285Y-125053866D01*
X154864285Y-125053866D02*
X154864285Y-124815771D01*
X154864285Y-124815771D02*
X154816666Y-124625295D01*
X154816666Y-124625295D02*
X154769047Y-124530057D01*
X154769047Y-124530057D02*
X154721428Y-124482438D01*
X154721428Y-124482438D02*
X154626190Y-124434819D01*
X153864285Y-124768152D02*
X153864285Y-125768152D01*
X153864285Y-124815771D02*
X153769047Y-124768152D01*
X153769047Y-124768152D02*
X153578571Y-124768152D01*
X153578571Y-124768152D02*
X153483333Y-124815771D01*
X153483333Y-124815771D02*
X153435714Y-124863390D01*
X153435714Y-124863390D02*
X153388095Y-124958628D01*
X153388095Y-124958628D02*
X153388095Y-125244342D01*
X153388095Y-125244342D02*
X153435714Y-125339580D01*
X153435714Y-125339580D02*
X153483333Y-125387200D01*
X153483333Y-125387200D02*
X153578571Y-125434819D01*
X153578571Y-125434819D02*
X153769047Y-125434819D01*
X153769047Y-125434819D02*
X153864285Y-125387200D01*
X152626190Y-124911009D02*
X152959523Y-124911009D01*
X152959523Y-125434819D02*
X152959523Y-124434819D01*
X152959523Y-124434819D02*
X152483333Y-124434819D01*
D11*
X154716666Y-123773832D02*
X154735714Y-123792880D01*
X154735714Y-123792880D02*
X154792856Y-123811927D01*
X154792856Y-123811927D02*
X154830952Y-123811927D01*
X154830952Y-123811927D02*
X154888095Y-123792880D01*
X154888095Y-123792880D02*
X154926190Y-123754784D01*
X154926190Y-123754784D02*
X154945237Y-123716689D01*
X154945237Y-123716689D02*
X154964285Y-123640499D01*
X154964285Y-123640499D02*
X154964285Y-123583356D01*
X154964285Y-123583356D02*
X154945237Y-123507165D01*
X154945237Y-123507165D02*
X154926190Y-123469070D01*
X154926190Y-123469070D02*
X154888095Y-123430975D01*
X154888095Y-123430975D02*
X154830952Y-123411927D01*
X154830952Y-123411927D02*
X154792856Y-123411927D01*
X154792856Y-123411927D02*
X154735714Y-123430975D01*
X154735714Y-123430975D02*
X154716666Y-123450022D01*
X154583333Y-123411927D02*
X154316666Y-123411927D01*
X154316666Y-123411927D02*
X154488095Y-123811927D01*
X145669642Y-97911927D02*
X145802975Y-97721451D01*
X145898213Y-97911927D02*
X145898213Y-97511927D01*
X145898213Y-97511927D02*
X145745832Y-97511927D01*
X145745832Y-97511927D02*
X145707737Y-97530975D01*
X145707737Y-97530975D02*
X145688690Y-97550022D01*
X145688690Y-97550022D02*
X145669642Y-97588118D01*
X145669642Y-97588118D02*
X145669642Y-97645260D01*
X145669642Y-97645260D02*
X145688690Y-97683356D01*
X145688690Y-97683356D02*
X145707737Y-97702403D01*
X145707737Y-97702403D02*
X145745832Y-97721451D01*
X145745832Y-97721451D02*
X145898213Y-97721451D01*
X145536309Y-97511927D02*
X145288690Y-97511927D01*
X145288690Y-97511927D02*
X145422023Y-97664308D01*
X145422023Y-97664308D02*
X145364880Y-97664308D01*
X145364880Y-97664308D02*
X145326785Y-97683356D01*
X145326785Y-97683356D02*
X145307737Y-97702403D01*
X145307737Y-97702403D02*
X145288690Y-97740499D01*
X145288690Y-97740499D02*
X145288690Y-97835737D01*
X145288690Y-97835737D02*
X145307737Y-97873832D01*
X145307737Y-97873832D02*
X145326785Y-97892880D01*
X145326785Y-97892880D02*
X145364880Y-97911927D01*
X145364880Y-97911927D02*
X145479166Y-97911927D01*
X145479166Y-97911927D02*
X145517261Y-97892880D01*
X145517261Y-97892880D02*
X145536309Y-97873832D01*
X145098214Y-97911927D02*
X145022023Y-97911927D01*
X145022023Y-97911927D02*
X144983928Y-97892880D01*
X144983928Y-97892880D02*
X144964880Y-97873832D01*
X144964880Y-97873832D02*
X144926785Y-97816689D01*
X144926785Y-97816689D02*
X144907738Y-97740499D01*
X144907738Y-97740499D02*
X144907738Y-97588118D01*
X144907738Y-97588118D02*
X144926785Y-97550022D01*
X144926785Y-97550022D02*
X144945833Y-97530975D01*
X144945833Y-97530975D02*
X144983928Y-97511927D01*
X144983928Y-97511927D02*
X145060119Y-97511927D01*
X145060119Y-97511927D02*
X145098214Y-97530975D01*
X145098214Y-97530975D02*
X145117261Y-97550022D01*
X145117261Y-97550022D02*
X145136309Y-97588118D01*
X145136309Y-97588118D02*
X145136309Y-97683356D01*
X145136309Y-97683356D02*
X145117261Y-97721451D01*
X145117261Y-97721451D02*
X145098214Y-97740499D01*
X145098214Y-97740499D02*
X145060119Y-97759546D01*
X145060119Y-97759546D02*
X144983928Y-97759546D01*
X144983928Y-97759546D02*
X144945833Y-97740499D01*
X144945833Y-97740499D02*
X144926785Y-97721451D01*
X144926785Y-97721451D02*
X144907738Y-97683356D01*
X124719642Y-104911927D02*
X124852975Y-104721451D01*
X124948213Y-104911927D02*
X124948213Y-104511927D01*
X124948213Y-104511927D02*
X124795832Y-104511927D01*
X124795832Y-104511927D02*
X124757737Y-104530975D01*
X124757737Y-104530975D02*
X124738690Y-104550022D01*
X124738690Y-104550022D02*
X124719642Y-104588118D01*
X124719642Y-104588118D02*
X124719642Y-104645260D01*
X124719642Y-104645260D02*
X124738690Y-104683356D01*
X124738690Y-104683356D02*
X124757737Y-104702403D01*
X124757737Y-104702403D02*
X124795832Y-104721451D01*
X124795832Y-104721451D02*
X124948213Y-104721451D01*
X124586309Y-104511927D02*
X124338690Y-104511927D01*
X124338690Y-104511927D02*
X124472023Y-104664308D01*
X124472023Y-104664308D02*
X124414880Y-104664308D01*
X124414880Y-104664308D02*
X124376785Y-104683356D01*
X124376785Y-104683356D02*
X124357737Y-104702403D01*
X124357737Y-104702403D02*
X124338690Y-104740499D01*
X124338690Y-104740499D02*
X124338690Y-104835737D01*
X124338690Y-104835737D02*
X124357737Y-104873832D01*
X124357737Y-104873832D02*
X124376785Y-104892880D01*
X124376785Y-104892880D02*
X124414880Y-104911927D01*
X124414880Y-104911927D02*
X124529166Y-104911927D01*
X124529166Y-104911927D02*
X124567261Y-104892880D01*
X124567261Y-104892880D02*
X124586309Y-104873832D01*
X123995833Y-104645260D02*
X123995833Y-104911927D01*
X124091071Y-104492880D02*
X124186309Y-104778594D01*
X124186309Y-104778594D02*
X123938690Y-104778594D01*
X145669642Y-118911927D02*
X145802975Y-118721451D01*
X145898213Y-118911927D02*
X145898213Y-118511927D01*
X145898213Y-118511927D02*
X145745832Y-118511927D01*
X145745832Y-118511927D02*
X145707737Y-118530975D01*
X145707737Y-118530975D02*
X145688690Y-118550022D01*
X145688690Y-118550022D02*
X145669642Y-118588118D01*
X145669642Y-118588118D02*
X145669642Y-118645260D01*
X145669642Y-118645260D02*
X145688690Y-118683356D01*
X145688690Y-118683356D02*
X145707737Y-118702403D01*
X145707737Y-118702403D02*
X145745832Y-118721451D01*
X145745832Y-118721451D02*
X145898213Y-118721451D01*
X145307737Y-118511927D02*
X145498213Y-118511927D01*
X145498213Y-118511927D02*
X145517261Y-118702403D01*
X145517261Y-118702403D02*
X145498213Y-118683356D01*
X145498213Y-118683356D02*
X145460118Y-118664308D01*
X145460118Y-118664308D02*
X145364880Y-118664308D01*
X145364880Y-118664308D02*
X145326785Y-118683356D01*
X145326785Y-118683356D02*
X145307737Y-118702403D01*
X145307737Y-118702403D02*
X145288690Y-118740499D01*
X145288690Y-118740499D02*
X145288690Y-118835737D01*
X145288690Y-118835737D02*
X145307737Y-118873832D01*
X145307737Y-118873832D02*
X145326785Y-118892880D01*
X145326785Y-118892880D02*
X145364880Y-118911927D01*
X145364880Y-118911927D02*
X145460118Y-118911927D01*
X145460118Y-118911927D02*
X145498213Y-118892880D01*
X145498213Y-118892880D02*
X145517261Y-118873832D01*
X144945833Y-118511927D02*
X145022023Y-118511927D01*
X145022023Y-118511927D02*
X145060119Y-118530975D01*
X145060119Y-118530975D02*
X145079166Y-118550022D01*
X145079166Y-118550022D02*
X145117261Y-118607165D01*
X145117261Y-118607165D02*
X145136309Y-118683356D01*
X145136309Y-118683356D02*
X145136309Y-118835737D01*
X145136309Y-118835737D02*
X145117261Y-118873832D01*
X145117261Y-118873832D02*
X145098214Y-118892880D01*
X145098214Y-118892880D02*
X145060119Y-118911927D01*
X145060119Y-118911927D02*
X144983928Y-118911927D01*
X144983928Y-118911927D02*
X144945833Y-118892880D01*
X144945833Y-118892880D02*
X144926785Y-118873832D01*
X144926785Y-118873832D02*
X144907738Y-118835737D01*
X144907738Y-118835737D02*
X144907738Y-118740499D01*
X144907738Y-118740499D02*
X144926785Y-118702403D01*
X144926785Y-118702403D02*
X144945833Y-118683356D01*
X144945833Y-118683356D02*
X144983928Y-118664308D01*
X144983928Y-118664308D02*
X145060119Y-118664308D01*
X145060119Y-118664308D02*
X145098214Y-118683356D01*
X145098214Y-118683356D02*
X145117261Y-118702403D01*
X145117261Y-118702403D02*
X145136309Y-118740499D01*
X152769642Y-90911927D02*
X152902975Y-90721451D01*
X152998213Y-90911927D02*
X152998213Y-90511927D01*
X152998213Y-90511927D02*
X152845832Y-90511927D01*
X152845832Y-90511927D02*
X152807737Y-90530975D01*
X152807737Y-90530975D02*
X152788690Y-90550022D01*
X152788690Y-90550022D02*
X152769642Y-90588118D01*
X152769642Y-90588118D02*
X152769642Y-90645260D01*
X152769642Y-90645260D02*
X152788690Y-90683356D01*
X152788690Y-90683356D02*
X152807737Y-90702403D01*
X152807737Y-90702403D02*
X152845832Y-90721451D01*
X152845832Y-90721451D02*
X152998213Y-90721451D01*
X152617261Y-90550022D02*
X152598213Y-90530975D01*
X152598213Y-90530975D02*
X152560118Y-90511927D01*
X152560118Y-90511927D02*
X152464880Y-90511927D01*
X152464880Y-90511927D02*
X152426785Y-90530975D01*
X152426785Y-90530975D02*
X152407737Y-90550022D01*
X152407737Y-90550022D02*
X152388690Y-90588118D01*
X152388690Y-90588118D02*
X152388690Y-90626213D01*
X152388690Y-90626213D02*
X152407737Y-90683356D01*
X152407737Y-90683356D02*
X152636309Y-90911927D01*
X152636309Y-90911927D02*
X152388690Y-90911927D01*
X152045833Y-90511927D02*
X152122023Y-90511927D01*
X152122023Y-90511927D02*
X152160119Y-90530975D01*
X152160119Y-90530975D02*
X152179166Y-90550022D01*
X152179166Y-90550022D02*
X152217261Y-90607165D01*
X152217261Y-90607165D02*
X152236309Y-90683356D01*
X152236309Y-90683356D02*
X152236309Y-90835737D01*
X152236309Y-90835737D02*
X152217261Y-90873832D01*
X152217261Y-90873832D02*
X152198214Y-90892880D01*
X152198214Y-90892880D02*
X152160119Y-90911927D01*
X152160119Y-90911927D02*
X152083928Y-90911927D01*
X152083928Y-90911927D02*
X152045833Y-90892880D01*
X152045833Y-90892880D02*
X152026785Y-90873832D01*
X152026785Y-90873832D02*
X152007738Y-90835737D01*
X152007738Y-90835737D02*
X152007738Y-90740499D01*
X152007738Y-90740499D02*
X152026785Y-90702403D01*
X152026785Y-90702403D02*
X152045833Y-90683356D01*
X152045833Y-90683356D02*
X152083928Y-90664308D01*
X152083928Y-90664308D02*
X152160119Y-90664308D01*
X152160119Y-90664308D02*
X152198214Y-90683356D01*
X152198214Y-90683356D02*
X152217261Y-90702403D01*
X152217261Y-90702403D02*
X152236309Y-90740499D01*
X152769642Y-97911927D02*
X152902975Y-97721451D01*
X152998213Y-97911927D02*
X152998213Y-97511927D01*
X152998213Y-97511927D02*
X152845832Y-97511927D01*
X152845832Y-97511927D02*
X152807737Y-97530975D01*
X152807737Y-97530975D02*
X152788690Y-97550022D01*
X152788690Y-97550022D02*
X152769642Y-97588118D01*
X152769642Y-97588118D02*
X152769642Y-97645260D01*
X152769642Y-97645260D02*
X152788690Y-97683356D01*
X152788690Y-97683356D02*
X152807737Y-97702403D01*
X152807737Y-97702403D02*
X152845832Y-97721451D01*
X152845832Y-97721451D02*
X152998213Y-97721451D01*
X152426785Y-97645260D02*
X152426785Y-97911927D01*
X152522023Y-97492880D02*
X152617261Y-97778594D01*
X152617261Y-97778594D02*
X152369642Y-97778594D01*
X152007738Y-97911927D02*
X152236309Y-97911927D01*
X152122023Y-97911927D02*
X152122023Y-97511927D01*
X152122023Y-97511927D02*
X152160119Y-97569070D01*
X152160119Y-97569070D02*
X152198214Y-97607165D01*
X152198214Y-97607165D02*
X152236309Y-97626213D01*
X166819642Y-90911927D02*
X166952975Y-90721451D01*
X167048213Y-90911927D02*
X167048213Y-90511927D01*
X167048213Y-90511927D02*
X166895832Y-90511927D01*
X166895832Y-90511927D02*
X166857737Y-90530975D01*
X166857737Y-90530975D02*
X166838690Y-90550022D01*
X166838690Y-90550022D02*
X166819642Y-90588118D01*
X166819642Y-90588118D02*
X166819642Y-90645260D01*
X166819642Y-90645260D02*
X166838690Y-90683356D01*
X166838690Y-90683356D02*
X166857737Y-90702403D01*
X166857737Y-90702403D02*
X166895832Y-90721451D01*
X166895832Y-90721451D02*
X167048213Y-90721451D01*
X166686309Y-90511927D02*
X166438690Y-90511927D01*
X166438690Y-90511927D02*
X166572023Y-90664308D01*
X166572023Y-90664308D02*
X166514880Y-90664308D01*
X166514880Y-90664308D02*
X166476785Y-90683356D01*
X166476785Y-90683356D02*
X166457737Y-90702403D01*
X166457737Y-90702403D02*
X166438690Y-90740499D01*
X166438690Y-90740499D02*
X166438690Y-90835737D01*
X166438690Y-90835737D02*
X166457737Y-90873832D01*
X166457737Y-90873832D02*
X166476785Y-90892880D01*
X166476785Y-90892880D02*
X166514880Y-90911927D01*
X166514880Y-90911927D02*
X166629166Y-90911927D01*
X166629166Y-90911927D02*
X166667261Y-90892880D01*
X166667261Y-90892880D02*
X166686309Y-90873832D01*
X166191071Y-90511927D02*
X166152976Y-90511927D01*
X166152976Y-90511927D02*
X166114880Y-90530975D01*
X166114880Y-90530975D02*
X166095833Y-90550022D01*
X166095833Y-90550022D02*
X166076785Y-90588118D01*
X166076785Y-90588118D02*
X166057738Y-90664308D01*
X166057738Y-90664308D02*
X166057738Y-90759546D01*
X166057738Y-90759546D02*
X166076785Y-90835737D01*
X166076785Y-90835737D02*
X166095833Y-90873832D01*
X166095833Y-90873832D02*
X166114880Y-90892880D01*
X166114880Y-90892880D02*
X166152976Y-90911927D01*
X166152976Y-90911927D02*
X166191071Y-90911927D01*
X166191071Y-90911927D02*
X166229166Y-90892880D01*
X166229166Y-90892880D02*
X166248214Y-90873832D01*
X166248214Y-90873832D02*
X166267261Y-90835737D01*
X166267261Y-90835737D02*
X166286309Y-90759546D01*
X166286309Y-90759546D02*
X166286309Y-90664308D01*
X166286309Y-90664308D02*
X166267261Y-90588118D01*
X166267261Y-90588118D02*
X166248214Y-90550022D01*
X166248214Y-90550022D02*
X166229166Y-90530975D01*
X166229166Y-90530975D02*
X166191071Y-90511927D01*
X131732142Y-69836927D02*
X131865475Y-69646451D01*
X131960713Y-69836927D02*
X131960713Y-69436927D01*
X131960713Y-69436927D02*
X131808332Y-69436927D01*
X131808332Y-69436927D02*
X131770237Y-69455975D01*
X131770237Y-69455975D02*
X131751190Y-69475022D01*
X131751190Y-69475022D02*
X131732142Y-69513118D01*
X131732142Y-69513118D02*
X131732142Y-69570260D01*
X131732142Y-69570260D02*
X131751190Y-69608356D01*
X131751190Y-69608356D02*
X131770237Y-69627403D01*
X131770237Y-69627403D02*
X131808332Y-69646451D01*
X131808332Y-69646451D02*
X131960713Y-69646451D01*
X131351190Y-69836927D02*
X131579761Y-69836927D01*
X131465475Y-69836927D02*
X131465475Y-69436927D01*
X131465475Y-69436927D02*
X131503571Y-69494070D01*
X131503571Y-69494070D02*
X131541666Y-69532165D01*
X131541666Y-69532165D02*
X131579761Y-69551213D01*
X131160714Y-69836927D02*
X131084523Y-69836927D01*
X131084523Y-69836927D02*
X131046428Y-69817880D01*
X131046428Y-69817880D02*
X131027380Y-69798832D01*
X131027380Y-69798832D02*
X130989285Y-69741689D01*
X130989285Y-69741689D02*
X130970238Y-69665499D01*
X130970238Y-69665499D02*
X130970238Y-69513118D01*
X130970238Y-69513118D02*
X130989285Y-69475022D01*
X130989285Y-69475022D02*
X131008333Y-69455975D01*
X131008333Y-69455975D02*
X131046428Y-69436927D01*
X131046428Y-69436927D02*
X131122619Y-69436927D01*
X131122619Y-69436927D02*
X131160714Y-69455975D01*
X131160714Y-69455975D02*
X131179761Y-69475022D01*
X131179761Y-69475022D02*
X131198809Y-69513118D01*
X131198809Y-69513118D02*
X131198809Y-69608356D01*
X131198809Y-69608356D02*
X131179761Y-69646451D01*
X131179761Y-69646451D02*
X131160714Y-69665499D01*
X131160714Y-69665499D02*
X131122619Y-69684546D01*
X131122619Y-69684546D02*
X131046428Y-69684546D01*
X131046428Y-69684546D02*
X131008333Y-69665499D01*
X131008333Y-69665499D02*
X130989285Y-69646451D01*
X130989285Y-69646451D02*
X130970238Y-69608356D01*
X171382142Y-94861927D02*
X171515475Y-94671451D01*
X171610713Y-94861927D02*
X171610713Y-94461927D01*
X171610713Y-94461927D02*
X171458332Y-94461927D01*
X171458332Y-94461927D02*
X171420237Y-94480975D01*
X171420237Y-94480975D02*
X171401190Y-94500022D01*
X171401190Y-94500022D02*
X171382142Y-94538118D01*
X171382142Y-94538118D02*
X171382142Y-94595260D01*
X171382142Y-94595260D02*
X171401190Y-94633356D01*
X171401190Y-94633356D02*
X171420237Y-94652403D01*
X171420237Y-94652403D02*
X171458332Y-94671451D01*
X171458332Y-94671451D02*
X171610713Y-94671451D01*
X171039285Y-94595260D02*
X171039285Y-94861927D01*
X171134523Y-94442880D02*
X171229761Y-94728594D01*
X171229761Y-94728594D02*
X170982142Y-94728594D01*
X170867857Y-94461927D02*
X170601190Y-94461927D01*
X170601190Y-94461927D02*
X170772619Y-94861927D01*
X159719642Y-104911927D02*
X159852975Y-104721451D01*
X159948213Y-104911927D02*
X159948213Y-104511927D01*
X159948213Y-104511927D02*
X159795832Y-104511927D01*
X159795832Y-104511927D02*
X159757737Y-104530975D01*
X159757737Y-104530975D02*
X159738690Y-104550022D01*
X159738690Y-104550022D02*
X159719642Y-104588118D01*
X159719642Y-104588118D02*
X159719642Y-104645260D01*
X159719642Y-104645260D02*
X159738690Y-104683356D01*
X159738690Y-104683356D02*
X159757737Y-104702403D01*
X159757737Y-104702403D02*
X159795832Y-104721451D01*
X159795832Y-104721451D02*
X159948213Y-104721451D01*
X159376785Y-104645260D02*
X159376785Y-104911927D01*
X159472023Y-104492880D02*
X159567261Y-104778594D01*
X159567261Y-104778594D02*
X159319642Y-104778594D01*
X158995833Y-104645260D02*
X158995833Y-104911927D01*
X159091071Y-104492880D02*
X159186309Y-104778594D01*
X159186309Y-104778594D02*
X158938690Y-104778594D01*
D10*
X165556547Y-124530057D02*
X165508928Y-124482438D01*
X165508928Y-124482438D02*
X165413690Y-124434819D01*
X165413690Y-124434819D02*
X165175595Y-124434819D01*
X165175595Y-124434819D02*
X165080357Y-124482438D01*
X165080357Y-124482438D02*
X165032738Y-124530057D01*
X165032738Y-124530057D02*
X164985119Y-124625295D01*
X164985119Y-124625295D02*
X164985119Y-124720533D01*
X164985119Y-124720533D02*
X165032738Y-124863390D01*
X165032738Y-124863390D02*
X165604166Y-125434819D01*
X165604166Y-125434819D02*
X164985119Y-125434819D01*
X164604166Y-124530057D02*
X164556547Y-124482438D01*
X164556547Y-124482438D02*
X164461309Y-124434819D01*
X164461309Y-124434819D02*
X164223214Y-124434819D01*
X164223214Y-124434819D02*
X164127976Y-124482438D01*
X164127976Y-124482438D02*
X164080357Y-124530057D01*
X164080357Y-124530057D02*
X164032738Y-124625295D01*
X164032738Y-124625295D02*
X164032738Y-124720533D01*
X164032738Y-124720533D02*
X164080357Y-124863390D01*
X164080357Y-124863390D02*
X164651785Y-125434819D01*
X164651785Y-125434819D02*
X164032738Y-125434819D01*
X163413690Y-124434819D02*
X163318452Y-124434819D01*
X163318452Y-124434819D02*
X163223214Y-124482438D01*
X163223214Y-124482438D02*
X163175595Y-124530057D01*
X163175595Y-124530057D02*
X163127976Y-124625295D01*
X163127976Y-124625295D02*
X163080357Y-124815771D01*
X163080357Y-124815771D02*
X163080357Y-125053866D01*
X163080357Y-125053866D02*
X163127976Y-125244342D01*
X163127976Y-125244342D02*
X163175595Y-125339580D01*
X163175595Y-125339580D02*
X163223214Y-125387200D01*
X163223214Y-125387200D02*
X163318452Y-125434819D01*
X163318452Y-125434819D02*
X163413690Y-125434819D01*
X163413690Y-125434819D02*
X163508928Y-125387200D01*
X163508928Y-125387200D02*
X163556547Y-125339580D01*
X163556547Y-125339580D02*
X163604166Y-125244342D01*
X163604166Y-125244342D02*
X163651785Y-125053866D01*
X163651785Y-125053866D02*
X163651785Y-124815771D01*
X163651785Y-124815771D02*
X163604166Y-124625295D01*
X163604166Y-124625295D02*
X163556547Y-124530057D01*
X163556547Y-124530057D02*
X163508928Y-124482438D01*
X163508928Y-124482438D02*
X163413690Y-124434819D01*
X162651785Y-124768152D02*
X162651785Y-125768152D01*
X162651785Y-124815771D02*
X162556547Y-124768152D01*
X162556547Y-124768152D02*
X162366071Y-124768152D01*
X162366071Y-124768152D02*
X162270833Y-124815771D01*
X162270833Y-124815771D02*
X162223214Y-124863390D01*
X162223214Y-124863390D02*
X162175595Y-124958628D01*
X162175595Y-124958628D02*
X162175595Y-125244342D01*
X162175595Y-125244342D02*
X162223214Y-125339580D01*
X162223214Y-125339580D02*
X162270833Y-125387200D01*
X162270833Y-125387200D02*
X162366071Y-125434819D01*
X162366071Y-125434819D02*
X162556547Y-125434819D01*
X162556547Y-125434819D02*
X162651785Y-125387200D01*
X161413690Y-124911009D02*
X161747023Y-124911009D01*
X161747023Y-125434819D02*
X161747023Y-124434819D01*
X161747023Y-124434819D02*
X161270833Y-124434819D01*
D11*
X163504166Y-123773832D02*
X163523214Y-123792880D01*
X163523214Y-123792880D02*
X163580356Y-123811927D01*
X163580356Y-123811927D02*
X163618452Y-123811927D01*
X163618452Y-123811927D02*
X163675595Y-123792880D01*
X163675595Y-123792880D02*
X163713690Y-123754784D01*
X163713690Y-123754784D02*
X163732737Y-123716689D01*
X163732737Y-123716689D02*
X163751785Y-123640499D01*
X163751785Y-123640499D02*
X163751785Y-123583356D01*
X163751785Y-123583356D02*
X163732737Y-123507165D01*
X163732737Y-123507165D02*
X163713690Y-123469070D01*
X163713690Y-123469070D02*
X163675595Y-123430975D01*
X163675595Y-123430975D02*
X163618452Y-123411927D01*
X163618452Y-123411927D02*
X163580356Y-123411927D01*
X163580356Y-123411927D02*
X163523214Y-123430975D01*
X163523214Y-123430975D02*
X163504166Y-123450022D01*
X163161309Y-123411927D02*
X163237499Y-123411927D01*
X163237499Y-123411927D02*
X163275595Y-123430975D01*
X163275595Y-123430975D02*
X163294642Y-123450022D01*
X163294642Y-123450022D02*
X163332737Y-123507165D01*
X163332737Y-123507165D02*
X163351785Y-123583356D01*
X163351785Y-123583356D02*
X163351785Y-123735737D01*
X163351785Y-123735737D02*
X163332737Y-123773832D01*
X163332737Y-123773832D02*
X163313690Y-123792880D01*
X163313690Y-123792880D02*
X163275595Y-123811927D01*
X163275595Y-123811927D02*
X163199404Y-123811927D01*
X163199404Y-123811927D02*
X163161309Y-123792880D01*
X163161309Y-123792880D02*
X163142261Y-123773832D01*
X163142261Y-123773832D02*
X163123214Y-123735737D01*
X163123214Y-123735737D02*
X163123214Y-123640499D01*
X163123214Y-123640499D02*
X163142261Y-123602403D01*
X163142261Y-123602403D02*
X163161309Y-123583356D01*
X163161309Y-123583356D02*
X163199404Y-123564308D01*
X163199404Y-123564308D02*
X163275595Y-123564308D01*
X163275595Y-123564308D02*
X163313690Y-123583356D01*
X163313690Y-123583356D02*
X163332737Y-123602403D01*
X163332737Y-123602403D02*
X163351785Y-123640499D01*
X166819642Y-118911927D02*
X166952975Y-118721451D01*
X167048213Y-118911927D02*
X167048213Y-118511927D01*
X167048213Y-118511927D02*
X166895832Y-118511927D01*
X166895832Y-118511927D02*
X166857737Y-118530975D01*
X166857737Y-118530975D02*
X166838690Y-118550022D01*
X166838690Y-118550022D02*
X166819642Y-118588118D01*
X166819642Y-118588118D02*
X166819642Y-118645260D01*
X166819642Y-118645260D02*
X166838690Y-118683356D01*
X166838690Y-118683356D02*
X166857737Y-118702403D01*
X166857737Y-118702403D02*
X166895832Y-118721451D01*
X166895832Y-118721451D02*
X167048213Y-118721451D01*
X166476785Y-118511927D02*
X166552975Y-118511927D01*
X166552975Y-118511927D02*
X166591071Y-118530975D01*
X166591071Y-118530975D02*
X166610118Y-118550022D01*
X166610118Y-118550022D02*
X166648213Y-118607165D01*
X166648213Y-118607165D02*
X166667261Y-118683356D01*
X166667261Y-118683356D02*
X166667261Y-118835737D01*
X166667261Y-118835737D02*
X166648213Y-118873832D01*
X166648213Y-118873832D02*
X166629166Y-118892880D01*
X166629166Y-118892880D02*
X166591071Y-118911927D01*
X166591071Y-118911927D02*
X166514880Y-118911927D01*
X166514880Y-118911927D02*
X166476785Y-118892880D01*
X166476785Y-118892880D02*
X166457737Y-118873832D01*
X166457737Y-118873832D02*
X166438690Y-118835737D01*
X166438690Y-118835737D02*
X166438690Y-118740499D01*
X166438690Y-118740499D02*
X166457737Y-118702403D01*
X166457737Y-118702403D02*
X166476785Y-118683356D01*
X166476785Y-118683356D02*
X166514880Y-118664308D01*
X166514880Y-118664308D02*
X166591071Y-118664308D01*
X166591071Y-118664308D02*
X166629166Y-118683356D01*
X166629166Y-118683356D02*
X166648213Y-118702403D01*
X166648213Y-118702403D02*
X166667261Y-118740499D01*
X166286309Y-118550022D02*
X166267261Y-118530975D01*
X166267261Y-118530975D02*
X166229166Y-118511927D01*
X166229166Y-118511927D02*
X166133928Y-118511927D01*
X166133928Y-118511927D02*
X166095833Y-118530975D01*
X166095833Y-118530975D02*
X166076785Y-118550022D01*
X166076785Y-118550022D02*
X166057738Y-118588118D01*
X166057738Y-118588118D02*
X166057738Y-118626213D01*
X166057738Y-118626213D02*
X166076785Y-118683356D01*
X166076785Y-118683356D02*
X166305357Y-118911927D01*
X166305357Y-118911927D02*
X166057738Y-118911927D01*
X131719642Y-83911927D02*
X131852975Y-83721451D01*
X131948213Y-83911927D02*
X131948213Y-83511927D01*
X131948213Y-83511927D02*
X131795832Y-83511927D01*
X131795832Y-83511927D02*
X131757737Y-83530975D01*
X131757737Y-83530975D02*
X131738690Y-83550022D01*
X131738690Y-83550022D02*
X131719642Y-83588118D01*
X131719642Y-83588118D02*
X131719642Y-83645260D01*
X131719642Y-83645260D02*
X131738690Y-83683356D01*
X131738690Y-83683356D02*
X131757737Y-83702403D01*
X131757737Y-83702403D02*
X131795832Y-83721451D01*
X131795832Y-83721451D02*
X131948213Y-83721451D01*
X131338690Y-83911927D02*
X131567261Y-83911927D01*
X131452975Y-83911927D02*
X131452975Y-83511927D01*
X131452975Y-83511927D02*
X131491071Y-83569070D01*
X131491071Y-83569070D02*
X131529166Y-83607165D01*
X131529166Y-83607165D02*
X131567261Y-83626213D01*
X131186309Y-83550022D02*
X131167261Y-83530975D01*
X131167261Y-83530975D02*
X131129166Y-83511927D01*
X131129166Y-83511927D02*
X131033928Y-83511927D01*
X131033928Y-83511927D02*
X130995833Y-83530975D01*
X130995833Y-83530975D02*
X130976785Y-83550022D01*
X130976785Y-83550022D02*
X130957738Y-83588118D01*
X130957738Y-83588118D02*
X130957738Y-83626213D01*
X130957738Y-83626213D02*
X130976785Y-83683356D01*
X130976785Y-83683356D02*
X131205357Y-83911927D01*
X131205357Y-83911927D02*
X130957738Y-83911927D01*
X166819642Y-97911927D02*
X166952975Y-97721451D01*
X167048213Y-97911927D02*
X167048213Y-97511927D01*
X167048213Y-97511927D02*
X166895832Y-97511927D01*
X166895832Y-97511927D02*
X166857737Y-97530975D01*
X166857737Y-97530975D02*
X166838690Y-97550022D01*
X166838690Y-97550022D02*
X166819642Y-97588118D01*
X166819642Y-97588118D02*
X166819642Y-97645260D01*
X166819642Y-97645260D02*
X166838690Y-97683356D01*
X166838690Y-97683356D02*
X166857737Y-97702403D01*
X166857737Y-97702403D02*
X166895832Y-97721451D01*
X166895832Y-97721451D02*
X167048213Y-97721451D01*
X166476785Y-97645260D02*
X166476785Y-97911927D01*
X166572023Y-97492880D02*
X166667261Y-97778594D01*
X166667261Y-97778594D02*
X166419642Y-97778594D01*
X166076785Y-97511927D02*
X166267261Y-97511927D01*
X166267261Y-97511927D02*
X166286309Y-97702403D01*
X166286309Y-97702403D02*
X166267261Y-97683356D01*
X166267261Y-97683356D02*
X166229166Y-97664308D01*
X166229166Y-97664308D02*
X166133928Y-97664308D01*
X166133928Y-97664308D02*
X166095833Y-97683356D01*
X166095833Y-97683356D02*
X166076785Y-97702403D01*
X166076785Y-97702403D02*
X166057738Y-97740499D01*
X166057738Y-97740499D02*
X166057738Y-97835737D01*
X166057738Y-97835737D02*
X166076785Y-97873832D01*
X166076785Y-97873832D02*
X166095833Y-97892880D01*
X166095833Y-97892880D02*
X166133928Y-97911927D01*
X166133928Y-97911927D02*
X166229166Y-97911927D01*
X166229166Y-97911927D02*
X166267261Y-97892880D01*
X166267261Y-97892880D02*
X166286309Y-97873832D01*
X152629166Y-76861927D02*
X152762499Y-76671451D01*
X152857737Y-76861927D02*
X152857737Y-76461927D01*
X152857737Y-76461927D02*
X152705356Y-76461927D01*
X152705356Y-76461927D02*
X152667261Y-76480975D01*
X152667261Y-76480975D02*
X152648214Y-76500022D01*
X152648214Y-76500022D02*
X152629166Y-76538118D01*
X152629166Y-76538118D02*
X152629166Y-76595260D01*
X152629166Y-76595260D02*
X152648214Y-76633356D01*
X152648214Y-76633356D02*
X152667261Y-76652403D01*
X152667261Y-76652403D02*
X152705356Y-76671451D01*
X152705356Y-76671451D02*
X152857737Y-76671451D01*
X152476785Y-76500022D02*
X152457737Y-76480975D01*
X152457737Y-76480975D02*
X152419642Y-76461927D01*
X152419642Y-76461927D02*
X152324404Y-76461927D01*
X152324404Y-76461927D02*
X152286309Y-76480975D01*
X152286309Y-76480975D02*
X152267261Y-76500022D01*
X152267261Y-76500022D02*
X152248214Y-76538118D01*
X152248214Y-76538118D02*
X152248214Y-76576213D01*
X152248214Y-76576213D02*
X152267261Y-76633356D01*
X152267261Y-76633356D02*
X152495833Y-76861927D01*
X152495833Y-76861927D02*
X152248214Y-76861927D01*
X171382142Y-108861927D02*
X171515475Y-108671451D01*
X171610713Y-108861927D02*
X171610713Y-108461927D01*
X171610713Y-108461927D02*
X171458332Y-108461927D01*
X171458332Y-108461927D02*
X171420237Y-108480975D01*
X171420237Y-108480975D02*
X171401190Y-108500022D01*
X171401190Y-108500022D02*
X171382142Y-108538118D01*
X171382142Y-108538118D02*
X171382142Y-108595260D01*
X171382142Y-108595260D02*
X171401190Y-108633356D01*
X171401190Y-108633356D02*
X171420237Y-108652403D01*
X171420237Y-108652403D02*
X171458332Y-108671451D01*
X171458332Y-108671451D02*
X171610713Y-108671451D01*
X171039285Y-108461927D02*
X171115475Y-108461927D01*
X171115475Y-108461927D02*
X171153571Y-108480975D01*
X171153571Y-108480975D02*
X171172618Y-108500022D01*
X171172618Y-108500022D02*
X171210713Y-108557165D01*
X171210713Y-108557165D02*
X171229761Y-108633356D01*
X171229761Y-108633356D02*
X171229761Y-108785737D01*
X171229761Y-108785737D02*
X171210713Y-108823832D01*
X171210713Y-108823832D02*
X171191666Y-108842880D01*
X171191666Y-108842880D02*
X171153571Y-108861927D01*
X171153571Y-108861927D02*
X171077380Y-108861927D01*
X171077380Y-108861927D02*
X171039285Y-108842880D01*
X171039285Y-108842880D02*
X171020237Y-108823832D01*
X171020237Y-108823832D02*
X171001190Y-108785737D01*
X171001190Y-108785737D02*
X171001190Y-108690499D01*
X171001190Y-108690499D02*
X171020237Y-108652403D01*
X171020237Y-108652403D02*
X171039285Y-108633356D01*
X171039285Y-108633356D02*
X171077380Y-108614308D01*
X171077380Y-108614308D02*
X171153571Y-108614308D01*
X171153571Y-108614308D02*
X171191666Y-108633356D01*
X171191666Y-108633356D02*
X171210713Y-108652403D01*
X171210713Y-108652403D02*
X171229761Y-108690499D01*
X170867857Y-108461927D02*
X170620238Y-108461927D01*
X170620238Y-108461927D02*
X170753571Y-108614308D01*
X170753571Y-108614308D02*
X170696428Y-108614308D01*
X170696428Y-108614308D02*
X170658333Y-108633356D01*
X170658333Y-108633356D02*
X170639285Y-108652403D01*
X170639285Y-108652403D02*
X170620238Y-108690499D01*
X170620238Y-108690499D02*
X170620238Y-108785737D01*
X170620238Y-108785737D02*
X170639285Y-108823832D01*
X170639285Y-108823832D02*
X170658333Y-108842880D01*
X170658333Y-108842880D02*
X170696428Y-108861927D01*
X170696428Y-108861927D02*
X170810714Y-108861927D01*
X170810714Y-108861927D02*
X170848809Y-108842880D01*
X170848809Y-108842880D02*
X170867857Y-108823832D01*
X138732142Y-76836927D02*
X138865475Y-76646451D01*
X138960713Y-76836927D02*
X138960713Y-76436927D01*
X138960713Y-76436927D02*
X138808332Y-76436927D01*
X138808332Y-76436927D02*
X138770237Y-76455975D01*
X138770237Y-76455975D02*
X138751190Y-76475022D01*
X138751190Y-76475022D02*
X138732142Y-76513118D01*
X138732142Y-76513118D02*
X138732142Y-76570260D01*
X138732142Y-76570260D02*
X138751190Y-76608356D01*
X138751190Y-76608356D02*
X138770237Y-76627403D01*
X138770237Y-76627403D02*
X138808332Y-76646451D01*
X138808332Y-76646451D02*
X138960713Y-76646451D01*
X138351190Y-76836927D02*
X138579761Y-76836927D01*
X138465475Y-76836927D02*
X138465475Y-76436927D01*
X138465475Y-76436927D02*
X138503571Y-76494070D01*
X138503571Y-76494070D02*
X138541666Y-76532165D01*
X138541666Y-76532165D02*
X138579761Y-76551213D01*
X137989285Y-76436927D02*
X138179761Y-76436927D01*
X138179761Y-76436927D02*
X138198809Y-76627403D01*
X138198809Y-76627403D02*
X138179761Y-76608356D01*
X138179761Y-76608356D02*
X138141666Y-76589308D01*
X138141666Y-76589308D02*
X138046428Y-76589308D01*
X138046428Y-76589308D02*
X138008333Y-76608356D01*
X138008333Y-76608356D02*
X137989285Y-76627403D01*
X137989285Y-76627403D02*
X137970238Y-76665499D01*
X137970238Y-76665499D02*
X137970238Y-76760737D01*
X137970238Y-76760737D02*
X137989285Y-76798832D01*
X137989285Y-76798832D02*
X138008333Y-76817880D01*
X138008333Y-76817880D02*
X138046428Y-76836927D01*
X138046428Y-76836927D02*
X138141666Y-76836927D01*
X138141666Y-76836927D02*
X138179761Y-76817880D01*
X138179761Y-76817880D02*
X138198809Y-76798832D01*
X124719642Y-97911927D02*
X124852975Y-97721451D01*
X124948213Y-97911927D02*
X124948213Y-97511927D01*
X124948213Y-97511927D02*
X124795832Y-97511927D01*
X124795832Y-97511927D02*
X124757737Y-97530975D01*
X124757737Y-97530975D02*
X124738690Y-97550022D01*
X124738690Y-97550022D02*
X124719642Y-97588118D01*
X124719642Y-97588118D02*
X124719642Y-97645260D01*
X124719642Y-97645260D02*
X124738690Y-97683356D01*
X124738690Y-97683356D02*
X124757737Y-97702403D01*
X124757737Y-97702403D02*
X124795832Y-97721451D01*
X124795832Y-97721451D02*
X124948213Y-97721451D01*
X124586309Y-97511927D02*
X124338690Y-97511927D01*
X124338690Y-97511927D02*
X124472023Y-97664308D01*
X124472023Y-97664308D02*
X124414880Y-97664308D01*
X124414880Y-97664308D02*
X124376785Y-97683356D01*
X124376785Y-97683356D02*
X124357737Y-97702403D01*
X124357737Y-97702403D02*
X124338690Y-97740499D01*
X124338690Y-97740499D02*
X124338690Y-97835737D01*
X124338690Y-97835737D02*
X124357737Y-97873832D01*
X124357737Y-97873832D02*
X124376785Y-97892880D01*
X124376785Y-97892880D02*
X124414880Y-97911927D01*
X124414880Y-97911927D02*
X124529166Y-97911927D01*
X124529166Y-97911927D02*
X124567261Y-97892880D01*
X124567261Y-97892880D02*
X124586309Y-97873832D01*
X124205357Y-97511927D02*
X123957738Y-97511927D01*
X123957738Y-97511927D02*
X124091071Y-97664308D01*
X124091071Y-97664308D02*
X124033928Y-97664308D01*
X124033928Y-97664308D02*
X123995833Y-97683356D01*
X123995833Y-97683356D02*
X123976785Y-97702403D01*
X123976785Y-97702403D02*
X123957738Y-97740499D01*
X123957738Y-97740499D02*
X123957738Y-97835737D01*
X123957738Y-97835737D02*
X123976785Y-97873832D01*
X123976785Y-97873832D02*
X123995833Y-97892880D01*
X123995833Y-97892880D02*
X124033928Y-97911927D01*
X124033928Y-97911927D02*
X124148214Y-97911927D01*
X124148214Y-97911927D02*
X124186309Y-97892880D01*
X124186309Y-97892880D02*
X124205357Y-97873832D01*
X159719642Y-90911927D02*
X159852975Y-90721451D01*
X159948213Y-90911927D02*
X159948213Y-90511927D01*
X159948213Y-90511927D02*
X159795832Y-90511927D01*
X159795832Y-90511927D02*
X159757737Y-90530975D01*
X159757737Y-90530975D02*
X159738690Y-90550022D01*
X159738690Y-90550022D02*
X159719642Y-90588118D01*
X159719642Y-90588118D02*
X159719642Y-90645260D01*
X159719642Y-90645260D02*
X159738690Y-90683356D01*
X159738690Y-90683356D02*
X159757737Y-90702403D01*
X159757737Y-90702403D02*
X159795832Y-90721451D01*
X159795832Y-90721451D02*
X159948213Y-90721451D01*
X159567261Y-90550022D02*
X159548213Y-90530975D01*
X159548213Y-90530975D02*
X159510118Y-90511927D01*
X159510118Y-90511927D02*
X159414880Y-90511927D01*
X159414880Y-90511927D02*
X159376785Y-90530975D01*
X159376785Y-90530975D02*
X159357737Y-90550022D01*
X159357737Y-90550022D02*
X159338690Y-90588118D01*
X159338690Y-90588118D02*
X159338690Y-90626213D01*
X159338690Y-90626213D02*
X159357737Y-90683356D01*
X159357737Y-90683356D02*
X159586309Y-90911927D01*
X159586309Y-90911927D02*
X159338690Y-90911927D01*
X159110119Y-90683356D02*
X159148214Y-90664308D01*
X159148214Y-90664308D02*
X159167261Y-90645260D01*
X159167261Y-90645260D02*
X159186309Y-90607165D01*
X159186309Y-90607165D02*
X159186309Y-90588118D01*
X159186309Y-90588118D02*
X159167261Y-90550022D01*
X159167261Y-90550022D02*
X159148214Y-90530975D01*
X159148214Y-90530975D02*
X159110119Y-90511927D01*
X159110119Y-90511927D02*
X159033928Y-90511927D01*
X159033928Y-90511927D02*
X158995833Y-90530975D01*
X158995833Y-90530975D02*
X158976785Y-90550022D01*
X158976785Y-90550022D02*
X158957738Y-90588118D01*
X158957738Y-90588118D02*
X158957738Y-90607165D01*
X158957738Y-90607165D02*
X158976785Y-90645260D01*
X158976785Y-90645260D02*
X158995833Y-90664308D01*
X158995833Y-90664308D02*
X159033928Y-90683356D01*
X159033928Y-90683356D02*
X159110119Y-90683356D01*
X159110119Y-90683356D02*
X159148214Y-90702403D01*
X159148214Y-90702403D02*
X159167261Y-90721451D01*
X159167261Y-90721451D02*
X159186309Y-90759546D01*
X159186309Y-90759546D02*
X159186309Y-90835737D01*
X159186309Y-90835737D02*
X159167261Y-90873832D01*
X159167261Y-90873832D02*
X159148214Y-90892880D01*
X159148214Y-90892880D02*
X159110119Y-90911927D01*
X159110119Y-90911927D02*
X159033928Y-90911927D01*
X159033928Y-90911927D02*
X158995833Y-90892880D01*
X158995833Y-90892880D02*
X158976785Y-90873832D01*
X158976785Y-90873832D02*
X158957738Y-90835737D01*
X158957738Y-90835737D02*
X158957738Y-90759546D01*
X158957738Y-90759546D02*
X158976785Y-90721451D01*
X158976785Y-90721451D02*
X158995833Y-90702403D01*
X158995833Y-90702403D02*
X159033928Y-90683356D01*
X124719642Y-90911927D02*
X124852975Y-90721451D01*
X124948213Y-90911927D02*
X124948213Y-90511927D01*
X124948213Y-90511927D02*
X124795832Y-90511927D01*
X124795832Y-90511927D02*
X124757737Y-90530975D01*
X124757737Y-90530975D02*
X124738690Y-90550022D01*
X124738690Y-90550022D02*
X124719642Y-90588118D01*
X124719642Y-90588118D02*
X124719642Y-90645260D01*
X124719642Y-90645260D02*
X124738690Y-90683356D01*
X124738690Y-90683356D02*
X124757737Y-90702403D01*
X124757737Y-90702403D02*
X124795832Y-90721451D01*
X124795832Y-90721451D02*
X124948213Y-90721451D01*
X124338690Y-90911927D02*
X124567261Y-90911927D01*
X124452975Y-90911927D02*
X124452975Y-90511927D01*
X124452975Y-90511927D02*
X124491071Y-90569070D01*
X124491071Y-90569070D02*
X124529166Y-90607165D01*
X124529166Y-90607165D02*
X124567261Y-90626213D01*
X123957738Y-90911927D02*
X124186309Y-90911927D01*
X124072023Y-90911927D02*
X124072023Y-90511927D01*
X124072023Y-90511927D02*
X124110119Y-90569070D01*
X124110119Y-90569070D02*
X124148214Y-90607165D01*
X124148214Y-90607165D02*
X124186309Y-90626213D01*
D10*
X141181547Y-124610057D02*
X141133928Y-124562438D01*
X141133928Y-124562438D02*
X141038690Y-124514819D01*
X141038690Y-124514819D02*
X140800595Y-124514819D01*
X140800595Y-124514819D02*
X140705357Y-124562438D01*
X140705357Y-124562438D02*
X140657738Y-124610057D01*
X140657738Y-124610057D02*
X140610119Y-124705295D01*
X140610119Y-124705295D02*
X140610119Y-124800533D01*
X140610119Y-124800533D02*
X140657738Y-124943390D01*
X140657738Y-124943390D02*
X141229166Y-125514819D01*
X141229166Y-125514819D02*
X140610119Y-125514819D01*
X140229166Y-124610057D02*
X140181547Y-124562438D01*
X140181547Y-124562438D02*
X140086309Y-124514819D01*
X140086309Y-124514819D02*
X139848214Y-124514819D01*
X139848214Y-124514819D02*
X139752976Y-124562438D01*
X139752976Y-124562438D02*
X139705357Y-124610057D01*
X139705357Y-124610057D02*
X139657738Y-124705295D01*
X139657738Y-124705295D02*
X139657738Y-124800533D01*
X139657738Y-124800533D02*
X139705357Y-124943390D01*
X139705357Y-124943390D02*
X140276785Y-125514819D01*
X140276785Y-125514819D02*
X139657738Y-125514819D01*
X139038690Y-124514819D02*
X138943452Y-124514819D01*
X138943452Y-124514819D02*
X138848214Y-124562438D01*
X138848214Y-124562438D02*
X138800595Y-124610057D01*
X138800595Y-124610057D02*
X138752976Y-124705295D01*
X138752976Y-124705295D02*
X138705357Y-124895771D01*
X138705357Y-124895771D02*
X138705357Y-125133866D01*
X138705357Y-125133866D02*
X138752976Y-125324342D01*
X138752976Y-125324342D02*
X138800595Y-125419580D01*
X138800595Y-125419580D02*
X138848214Y-125467200D01*
X138848214Y-125467200D02*
X138943452Y-125514819D01*
X138943452Y-125514819D02*
X139038690Y-125514819D01*
X139038690Y-125514819D02*
X139133928Y-125467200D01*
X139133928Y-125467200D02*
X139181547Y-125419580D01*
X139181547Y-125419580D02*
X139229166Y-125324342D01*
X139229166Y-125324342D02*
X139276785Y-125133866D01*
X139276785Y-125133866D02*
X139276785Y-124895771D01*
X139276785Y-124895771D02*
X139229166Y-124705295D01*
X139229166Y-124705295D02*
X139181547Y-124610057D01*
X139181547Y-124610057D02*
X139133928Y-124562438D01*
X139133928Y-124562438D02*
X139038690Y-124514819D01*
X138276785Y-124848152D02*
X138276785Y-125848152D01*
X138276785Y-124895771D02*
X138181547Y-124848152D01*
X138181547Y-124848152D02*
X137991071Y-124848152D01*
X137991071Y-124848152D02*
X137895833Y-124895771D01*
X137895833Y-124895771D02*
X137848214Y-124943390D01*
X137848214Y-124943390D02*
X137800595Y-125038628D01*
X137800595Y-125038628D02*
X137800595Y-125324342D01*
X137800595Y-125324342D02*
X137848214Y-125419580D01*
X137848214Y-125419580D02*
X137895833Y-125467200D01*
X137895833Y-125467200D02*
X137991071Y-125514819D01*
X137991071Y-125514819D02*
X138181547Y-125514819D01*
X138181547Y-125514819D02*
X138276785Y-125467200D01*
X137038690Y-124991009D02*
X137372023Y-124991009D01*
X137372023Y-125514819D02*
X137372023Y-124514819D01*
X137372023Y-124514819D02*
X136895833Y-124514819D01*
D11*
X139129166Y-123773832D02*
X139148214Y-123792880D01*
X139148214Y-123792880D02*
X139205356Y-123811927D01*
X139205356Y-123811927D02*
X139243452Y-123811927D01*
X139243452Y-123811927D02*
X139300595Y-123792880D01*
X139300595Y-123792880D02*
X139338690Y-123754784D01*
X139338690Y-123754784D02*
X139357737Y-123716689D01*
X139357737Y-123716689D02*
X139376785Y-123640499D01*
X139376785Y-123640499D02*
X139376785Y-123583356D01*
X139376785Y-123583356D02*
X139357737Y-123507165D01*
X139357737Y-123507165D02*
X139338690Y-123469070D01*
X139338690Y-123469070D02*
X139300595Y-123430975D01*
X139300595Y-123430975D02*
X139243452Y-123411927D01*
X139243452Y-123411927D02*
X139205356Y-123411927D01*
X139205356Y-123411927D02*
X139148214Y-123430975D01*
X139148214Y-123430975D02*
X139129166Y-123450022D01*
X138767261Y-123411927D02*
X138957737Y-123411927D01*
X138957737Y-123411927D02*
X138976785Y-123602403D01*
X138976785Y-123602403D02*
X138957737Y-123583356D01*
X138957737Y-123583356D02*
X138919642Y-123564308D01*
X138919642Y-123564308D02*
X138824404Y-123564308D01*
X138824404Y-123564308D02*
X138786309Y-123583356D01*
X138786309Y-123583356D02*
X138767261Y-123602403D01*
X138767261Y-123602403D02*
X138748214Y-123640499D01*
X138748214Y-123640499D02*
X138748214Y-123735737D01*
X138748214Y-123735737D02*
X138767261Y-123773832D01*
X138767261Y-123773832D02*
X138786309Y-123792880D01*
X138786309Y-123792880D02*
X138824404Y-123811927D01*
X138824404Y-123811927D02*
X138919642Y-123811927D01*
X138919642Y-123811927D02*
X138957737Y-123792880D01*
X138957737Y-123792880D02*
X138976785Y-123773832D01*
X124719642Y-83911927D02*
X124852975Y-83721451D01*
X124948213Y-83911927D02*
X124948213Y-83511927D01*
X124948213Y-83511927D02*
X124795832Y-83511927D01*
X124795832Y-83511927D02*
X124757737Y-83530975D01*
X124757737Y-83530975D02*
X124738690Y-83550022D01*
X124738690Y-83550022D02*
X124719642Y-83588118D01*
X124719642Y-83588118D02*
X124719642Y-83645260D01*
X124719642Y-83645260D02*
X124738690Y-83683356D01*
X124738690Y-83683356D02*
X124757737Y-83702403D01*
X124757737Y-83702403D02*
X124795832Y-83721451D01*
X124795832Y-83721451D02*
X124948213Y-83721451D01*
X124338690Y-83911927D02*
X124567261Y-83911927D01*
X124452975Y-83911927D02*
X124452975Y-83511927D01*
X124452975Y-83511927D02*
X124491071Y-83569070D01*
X124491071Y-83569070D02*
X124529166Y-83607165D01*
X124529166Y-83607165D02*
X124567261Y-83626213D01*
X124091071Y-83511927D02*
X124052976Y-83511927D01*
X124052976Y-83511927D02*
X124014880Y-83530975D01*
X124014880Y-83530975D02*
X123995833Y-83550022D01*
X123995833Y-83550022D02*
X123976785Y-83588118D01*
X123976785Y-83588118D02*
X123957738Y-83664308D01*
X123957738Y-83664308D02*
X123957738Y-83759546D01*
X123957738Y-83759546D02*
X123976785Y-83835737D01*
X123976785Y-83835737D02*
X123995833Y-83873832D01*
X123995833Y-83873832D02*
X124014880Y-83892880D01*
X124014880Y-83892880D02*
X124052976Y-83911927D01*
X124052976Y-83911927D02*
X124091071Y-83911927D01*
X124091071Y-83911927D02*
X124129166Y-83892880D01*
X124129166Y-83892880D02*
X124148214Y-83873832D01*
X124148214Y-83873832D02*
X124167261Y-83835737D01*
X124167261Y-83835737D02*
X124186309Y-83759546D01*
X124186309Y-83759546D02*
X124186309Y-83664308D01*
X124186309Y-83664308D02*
X124167261Y-83588118D01*
X124167261Y-83588118D02*
X124148214Y-83550022D01*
X124148214Y-83550022D02*
X124129166Y-83530975D01*
X124129166Y-83530975D02*
X124091071Y-83511927D01*
X159719642Y-118911927D02*
X159852975Y-118721451D01*
X159948213Y-118911927D02*
X159948213Y-118511927D01*
X159948213Y-118511927D02*
X159795832Y-118511927D01*
X159795832Y-118511927D02*
X159757737Y-118530975D01*
X159757737Y-118530975D02*
X159738690Y-118550022D01*
X159738690Y-118550022D02*
X159719642Y-118588118D01*
X159719642Y-118588118D02*
X159719642Y-118645260D01*
X159719642Y-118645260D02*
X159738690Y-118683356D01*
X159738690Y-118683356D02*
X159757737Y-118702403D01*
X159757737Y-118702403D02*
X159795832Y-118721451D01*
X159795832Y-118721451D02*
X159948213Y-118721451D01*
X159376785Y-118511927D02*
X159452975Y-118511927D01*
X159452975Y-118511927D02*
X159491071Y-118530975D01*
X159491071Y-118530975D02*
X159510118Y-118550022D01*
X159510118Y-118550022D02*
X159548213Y-118607165D01*
X159548213Y-118607165D02*
X159567261Y-118683356D01*
X159567261Y-118683356D02*
X159567261Y-118835737D01*
X159567261Y-118835737D02*
X159548213Y-118873832D01*
X159548213Y-118873832D02*
X159529166Y-118892880D01*
X159529166Y-118892880D02*
X159491071Y-118911927D01*
X159491071Y-118911927D02*
X159414880Y-118911927D01*
X159414880Y-118911927D02*
X159376785Y-118892880D01*
X159376785Y-118892880D02*
X159357737Y-118873832D01*
X159357737Y-118873832D02*
X159338690Y-118835737D01*
X159338690Y-118835737D02*
X159338690Y-118740499D01*
X159338690Y-118740499D02*
X159357737Y-118702403D01*
X159357737Y-118702403D02*
X159376785Y-118683356D01*
X159376785Y-118683356D02*
X159414880Y-118664308D01*
X159414880Y-118664308D02*
X159491071Y-118664308D01*
X159491071Y-118664308D02*
X159529166Y-118683356D01*
X159529166Y-118683356D02*
X159548213Y-118702403D01*
X159548213Y-118702403D02*
X159567261Y-118740499D01*
X159091071Y-118511927D02*
X159052976Y-118511927D01*
X159052976Y-118511927D02*
X159014880Y-118530975D01*
X159014880Y-118530975D02*
X158995833Y-118550022D01*
X158995833Y-118550022D02*
X158976785Y-118588118D01*
X158976785Y-118588118D02*
X158957738Y-118664308D01*
X158957738Y-118664308D02*
X158957738Y-118759546D01*
X158957738Y-118759546D02*
X158976785Y-118835737D01*
X158976785Y-118835737D02*
X158995833Y-118873832D01*
X158995833Y-118873832D02*
X159014880Y-118892880D01*
X159014880Y-118892880D02*
X159052976Y-118911927D01*
X159052976Y-118911927D02*
X159091071Y-118911927D01*
X159091071Y-118911927D02*
X159129166Y-118892880D01*
X159129166Y-118892880D02*
X159148214Y-118873832D01*
X159148214Y-118873832D02*
X159167261Y-118835737D01*
X159167261Y-118835737D02*
X159186309Y-118759546D01*
X159186309Y-118759546D02*
X159186309Y-118664308D01*
X159186309Y-118664308D02*
X159167261Y-118588118D01*
X159167261Y-118588118D02*
X159148214Y-118550022D01*
X159148214Y-118550022D02*
X159129166Y-118530975D01*
X159129166Y-118530975D02*
X159091071Y-118511927D01*
X171191666Y-73811927D02*
X171324999Y-73621451D01*
X171420237Y-73811927D02*
X171420237Y-73411927D01*
X171420237Y-73411927D02*
X171267856Y-73411927D01*
X171267856Y-73411927D02*
X171229761Y-73430975D01*
X171229761Y-73430975D02*
X171210714Y-73450022D01*
X171210714Y-73450022D02*
X171191666Y-73488118D01*
X171191666Y-73488118D02*
X171191666Y-73545260D01*
X171191666Y-73545260D02*
X171210714Y-73583356D01*
X171210714Y-73583356D02*
X171229761Y-73602403D01*
X171229761Y-73602403D02*
X171267856Y-73621451D01*
X171267856Y-73621451D02*
X171420237Y-73621451D01*
X171001190Y-73811927D02*
X170924999Y-73811927D01*
X170924999Y-73811927D02*
X170886904Y-73792880D01*
X170886904Y-73792880D02*
X170867856Y-73773832D01*
X170867856Y-73773832D02*
X170829761Y-73716689D01*
X170829761Y-73716689D02*
X170810714Y-73640499D01*
X170810714Y-73640499D02*
X170810714Y-73488118D01*
X170810714Y-73488118D02*
X170829761Y-73450022D01*
X170829761Y-73450022D02*
X170848809Y-73430975D01*
X170848809Y-73430975D02*
X170886904Y-73411927D01*
X170886904Y-73411927D02*
X170963095Y-73411927D01*
X170963095Y-73411927D02*
X171001190Y-73430975D01*
X171001190Y-73430975D02*
X171020237Y-73450022D01*
X171020237Y-73450022D02*
X171039285Y-73488118D01*
X171039285Y-73488118D02*
X171039285Y-73583356D01*
X171039285Y-73583356D02*
X171020237Y-73621451D01*
X171020237Y-73621451D02*
X171001190Y-73640499D01*
X171001190Y-73640499D02*
X170963095Y-73659546D01*
X170963095Y-73659546D02*
X170886904Y-73659546D01*
X170886904Y-73659546D02*
X170848809Y-73640499D01*
X170848809Y-73640499D02*
X170829761Y-73621451D01*
X170829761Y-73621451D02*
X170810714Y-73583356D01*
X159719642Y-111911927D02*
X159852975Y-111721451D01*
X159948213Y-111911927D02*
X159948213Y-111511927D01*
X159948213Y-111511927D02*
X159795832Y-111511927D01*
X159795832Y-111511927D02*
X159757737Y-111530975D01*
X159757737Y-111530975D02*
X159738690Y-111550022D01*
X159738690Y-111550022D02*
X159719642Y-111588118D01*
X159719642Y-111588118D02*
X159719642Y-111645260D01*
X159719642Y-111645260D02*
X159738690Y-111683356D01*
X159738690Y-111683356D02*
X159757737Y-111702403D01*
X159757737Y-111702403D02*
X159795832Y-111721451D01*
X159795832Y-111721451D02*
X159948213Y-111721451D01*
X159357737Y-111511927D02*
X159548213Y-111511927D01*
X159548213Y-111511927D02*
X159567261Y-111702403D01*
X159567261Y-111702403D02*
X159548213Y-111683356D01*
X159548213Y-111683356D02*
X159510118Y-111664308D01*
X159510118Y-111664308D02*
X159414880Y-111664308D01*
X159414880Y-111664308D02*
X159376785Y-111683356D01*
X159376785Y-111683356D02*
X159357737Y-111702403D01*
X159357737Y-111702403D02*
X159338690Y-111740499D01*
X159338690Y-111740499D02*
X159338690Y-111835737D01*
X159338690Y-111835737D02*
X159357737Y-111873832D01*
X159357737Y-111873832D02*
X159376785Y-111892880D01*
X159376785Y-111892880D02*
X159414880Y-111911927D01*
X159414880Y-111911927D02*
X159510118Y-111911927D01*
X159510118Y-111911927D02*
X159548213Y-111892880D01*
X159548213Y-111892880D02*
X159567261Y-111873832D01*
X159148214Y-111911927D02*
X159072023Y-111911927D01*
X159072023Y-111911927D02*
X159033928Y-111892880D01*
X159033928Y-111892880D02*
X159014880Y-111873832D01*
X159014880Y-111873832D02*
X158976785Y-111816689D01*
X158976785Y-111816689D02*
X158957738Y-111740499D01*
X158957738Y-111740499D02*
X158957738Y-111588118D01*
X158957738Y-111588118D02*
X158976785Y-111550022D01*
X158976785Y-111550022D02*
X158995833Y-111530975D01*
X158995833Y-111530975D02*
X159033928Y-111511927D01*
X159033928Y-111511927D02*
X159110119Y-111511927D01*
X159110119Y-111511927D02*
X159148214Y-111530975D01*
X159148214Y-111530975D02*
X159167261Y-111550022D01*
X159167261Y-111550022D02*
X159186309Y-111588118D01*
X159186309Y-111588118D02*
X159186309Y-111683356D01*
X159186309Y-111683356D02*
X159167261Y-111721451D01*
X159167261Y-111721451D02*
X159148214Y-111740499D01*
X159148214Y-111740499D02*
X159110119Y-111759546D01*
X159110119Y-111759546D02*
X159033928Y-111759546D01*
X159033928Y-111759546D02*
X158995833Y-111740499D01*
X158995833Y-111740499D02*
X158976785Y-111721451D01*
X158976785Y-111721451D02*
X158957738Y-111683356D01*
X171382142Y-87861927D02*
X171515475Y-87671451D01*
X171610713Y-87861927D02*
X171610713Y-87461927D01*
X171610713Y-87461927D02*
X171458332Y-87461927D01*
X171458332Y-87461927D02*
X171420237Y-87480975D01*
X171420237Y-87480975D02*
X171401190Y-87500022D01*
X171401190Y-87500022D02*
X171382142Y-87538118D01*
X171382142Y-87538118D02*
X171382142Y-87595260D01*
X171382142Y-87595260D02*
X171401190Y-87633356D01*
X171401190Y-87633356D02*
X171420237Y-87652403D01*
X171420237Y-87652403D02*
X171458332Y-87671451D01*
X171458332Y-87671451D02*
X171610713Y-87671451D01*
X171248809Y-87461927D02*
X171001190Y-87461927D01*
X171001190Y-87461927D02*
X171134523Y-87614308D01*
X171134523Y-87614308D02*
X171077380Y-87614308D01*
X171077380Y-87614308D02*
X171039285Y-87633356D01*
X171039285Y-87633356D02*
X171020237Y-87652403D01*
X171020237Y-87652403D02*
X171001190Y-87690499D01*
X171001190Y-87690499D02*
X171001190Y-87785737D01*
X171001190Y-87785737D02*
X171020237Y-87823832D01*
X171020237Y-87823832D02*
X171039285Y-87842880D01*
X171039285Y-87842880D02*
X171077380Y-87861927D01*
X171077380Y-87861927D02*
X171191666Y-87861927D01*
X171191666Y-87861927D02*
X171229761Y-87842880D01*
X171229761Y-87842880D02*
X171248809Y-87823832D01*
X170848809Y-87500022D02*
X170829761Y-87480975D01*
X170829761Y-87480975D02*
X170791666Y-87461927D01*
X170791666Y-87461927D02*
X170696428Y-87461927D01*
X170696428Y-87461927D02*
X170658333Y-87480975D01*
X170658333Y-87480975D02*
X170639285Y-87500022D01*
X170639285Y-87500022D02*
X170620238Y-87538118D01*
X170620238Y-87538118D02*
X170620238Y-87576213D01*
X170620238Y-87576213D02*
X170639285Y-87633356D01*
X170639285Y-87633356D02*
X170867857Y-87861927D01*
X170867857Y-87861927D02*
X170620238Y-87861927D01*
X131719642Y-104911927D02*
X131852975Y-104721451D01*
X131948213Y-104911927D02*
X131948213Y-104511927D01*
X131948213Y-104511927D02*
X131795832Y-104511927D01*
X131795832Y-104511927D02*
X131757737Y-104530975D01*
X131757737Y-104530975D02*
X131738690Y-104550022D01*
X131738690Y-104550022D02*
X131719642Y-104588118D01*
X131719642Y-104588118D02*
X131719642Y-104645260D01*
X131719642Y-104645260D02*
X131738690Y-104683356D01*
X131738690Y-104683356D02*
X131757737Y-104702403D01*
X131757737Y-104702403D02*
X131795832Y-104721451D01*
X131795832Y-104721451D02*
X131948213Y-104721451D01*
X131586309Y-104511927D02*
X131338690Y-104511927D01*
X131338690Y-104511927D02*
X131472023Y-104664308D01*
X131472023Y-104664308D02*
X131414880Y-104664308D01*
X131414880Y-104664308D02*
X131376785Y-104683356D01*
X131376785Y-104683356D02*
X131357737Y-104702403D01*
X131357737Y-104702403D02*
X131338690Y-104740499D01*
X131338690Y-104740499D02*
X131338690Y-104835737D01*
X131338690Y-104835737D02*
X131357737Y-104873832D01*
X131357737Y-104873832D02*
X131376785Y-104892880D01*
X131376785Y-104892880D02*
X131414880Y-104911927D01*
X131414880Y-104911927D02*
X131529166Y-104911927D01*
X131529166Y-104911927D02*
X131567261Y-104892880D01*
X131567261Y-104892880D02*
X131586309Y-104873832D01*
X130995833Y-104511927D02*
X131072023Y-104511927D01*
X131072023Y-104511927D02*
X131110119Y-104530975D01*
X131110119Y-104530975D02*
X131129166Y-104550022D01*
X131129166Y-104550022D02*
X131167261Y-104607165D01*
X131167261Y-104607165D02*
X131186309Y-104683356D01*
X131186309Y-104683356D02*
X131186309Y-104835737D01*
X131186309Y-104835737D02*
X131167261Y-104873832D01*
X131167261Y-104873832D02*
X131148214Y-104892880D01*
X131148214Y-104892880D02*
X131110119Y-104911927D01*
X131110119Y-104911927D02*
X131033928Y-104911927D01*
X131033928Y-104911927D02*
X130995833Y-104892880D01*
X130995833Y-104892880D02*
X130976785Y-104873832D01*
X130976785Y-104873832D02*
X130957738Y-104835737D01*
X130957738Y-104835737D02*
X130957738Y-104740499D01*
X130957738Y-104740499D02*
X130976785Y-104702403D01*
X130976785Y-104702403D02*
X130995833Y-104683356D01*
X130995833Y-104683356D02*
X131033928Y-104664308D01*
X131033928Y-104664308D02*
X131110119Y-104664308D01*
X131110119Y-104664308D02*
X131148214Y-104683356D01*
X131148214Y-104683356D02*
X131167261Y-104702403D01*
X131167261Y-104702403D02*
X131186309Y-104740499D01*
X171382142Y-115861927D02*
X171515475Y-115671451D01*
X171610713Y-115861927D02*
X171610713Y-115461927D01*
X171610713Y-115461927D02*
X171458332Y-115461927D01*
X171458332Y-115461927D02*
X171420237Y-115480975D01*
X171420237Y-115480975D02*
X171401190Y-115500022D01*
X171401190Y-115500022D02*
X171382142Y-115538118D01*
X171382142Y-115538118D02*
X171382142Y-115595260D01*
X171382142Y-115595260D02*
X171401190Y-115633356D01*
X171401190Y-115633356D02*
X171420237Y-115652403D01*
X171420237Y-115652403D02*
X171458332Y-115671451D01*
X171458332Y-115671451D02*
X171610713Y-115671451D01*
X171039285Y-115461927D02*
X171115475Y-115461927D01*
X171115475Y-115461927D02*
X171153571Y-115480975D01*
X171153571Y-115480975D02*
X171172618Y-115500022D01*
X171172618Y-115500022D02*
X171210713Y-115557165D01*
X171210713Y-115557165D02*
X171229761Y-115633356D01*
X171229761Y-115633356D02*
X171229761Y-115785737D01*
X171229761Y-115785737D02*
X171210713Y-115823832D01*
X171210713Y-115823832D02*
X171191666Y-115842880D01*
X171191666Y-115842880D02*
X171153571Y-115861927D01*
X171153571Y-115861927D02*
X171077380Y-115861927D01*
X171077380Y-115861927D02*
X171039285Y-115842880D01*
X171039285Y-115842880D02*
X171020237Y-115823832D01*
X171020237Y-115823832D02*
X171001190Y-115785737D01*
X171001190Y-115785737D02*
X171001190Y-115690499D01*
X171001190Y-115690499D02*
X171020237Y-115652403D01*
X171020237Y-115652403D02*
X171039285Y-115633356D01*
X171039285Y-115633356D02*
X171077380Y-115614308D01*
X171077380Y-115614308D02*
X171153571Y-115614308D01*
X171153571Y-115614308D02*
X171191666Y-115633356D01*
X171191666Y-115633356D02*
X171210713Y-115652403D01*
X171210713Y-115652403D02*
X171229761Y-115690499D01*
X170658333Y-115595260D02*
X170658333Y-115861927D01*
X170753571Y-115442880D02*
X170848809Y-115728594D01*
X170848809Y-115728594D02*
X170601190Y-115728594D01*
X131669642Y-111911927D02*
X131802975Y-111721451D01*
X131898213Y-111911927D02*
X131898213Y-111511927D01*
X131898213Y-111511927D02*
X131745832Y-111511927D01*
X131745832Y-111511927D02*
X131707737Y-111530975D01*
X131707737Y-111530975D02*
X131688690Y-111550022D01*
X131688690Y-111550022D02*
X131669642Y-111588118D01*
X131669642Y-111588118D02*
X131669642Y-111645260D01*
X131669642Y-111645260D02*
X131688690Y-111683356D01*
X131688690Y-111683356D02*
X131707737Y-111702403D01*
X131707737Y-111702403D02*
X131745832Y-111721451D01*
X131745832Y-111721451D02*
X131898213Y-111721451D01*
X131307737Y-111511927D02*
X131498213Y-111511927D01*
X131498213Y-111511927D02*
X131517261Y-111702403D01*
X131517261Y-111702403D02*
X131498213Y-111683356D01*
X131498213Y-111683356D02*
X131460118Y-111664308D01*
X131460118Y-111664308D02*
X131364880Y-111664308D01*
X131364880Y-111664308D02*
X131326785Y-111683356D01*
X131326785Y-111683356D02*
X131307737Y-111702403D01*
X131307737Y-111702403D02*
X131288690Y-111740499D01*
X131288690Y-111740499D02*
X131288690Y-111835737D01*
X131288690Y-111835737D02*
X131307737Y-111873832D01*
X131307737Y-111873832D02*
X131326785Y-111892880D01*
X131326785Y-111892880D02*
X131364880Y-111911927D01*
X131364880Y-111911927D02*
X131460118Y-111911927D01*
X131460118Y-111911927D02*
X131498213Y-111892880D01*
X131498213Y-111892880D02*
X131517261Y-111873832D01*
X130907738Y-111911927D02*
X131136309Y-111911927D01*
X131022023Y-111911927D02*
X131022023Y-111511927D01*
X131022023Y-111511927D02*
X131060119Y-111569070D01*
X131060119Y-111569070D02*
X131098214Y-111607165D01*
X131098214Y-111607165D02*
X131136309Y-111626213D01*
X159516666Y-76861927D02*
X159649999Y-76671451D01*
X159745237Y-76861927D02*
X159745237Y-76461927D01*
X159745237Y-76461927D02*
X159592856Y-76461927D01*
X159592856Y-76461927D02*
X159554761Y-76480975D01*
X159554761Y-76480975D02*
X159535714Y-76500022D01*
X159535714Y-76500022D02*
X159516666Y-76538118D01*
X159516666Y-76538118D02*
X159516666Y-76595260D01*
X159516666Y-76595260D02*
X159535714Y-76633356D01*
X159535714Y-76633356D02*
X159554761Y-76652403D01*
X159554761Y-76652403D02*
X159592856Y-76671451D01*
X159592856Y-76671451D02*
X159745237Y-76671451D01*
X159173809Y-76595260D02*
X159173809Y-76861927D01*
X159269047Y-76442880D02*
X159364285Y-76728594D01*
X159364285Y-76728594D02*
X159116666Y-76728594D01*
X159719642Y-83911927D02*
X159852975Y-83721451D01*
X159948213Y-83911927D02*
X159948213Y-83511927D01*
X159948213Y-83511927D02*
X159795832Y-83511927D01*
X159795832Y-83511927D02*
X159757737Y-83530975D01*
X159757737Y-83530975D02*
X159738690Y-83550022D01*
X159738690Y-83550022D02*
X159719642Y-83588118D01*
X159719642Y-83588118D02*
X159719642Y-83645260D01*
X159719642Y-83645260D02*
X159738690Y-83683356D01*
X159738690Y-83683356D02*
X159757737Y-83702403D01*
X159757737Y-83702403D02*
X159795832Y-83721451D01*
X159795832Y-83721451D02*
X159948213Y-83721451D01*
X159567261Y-83550022D02*
X159548213Y-83530975D01*
X159548213Y-83530975D02*
X159510118Y-83511927D01*
X159510118Y-83511927D02*
X159414880Y-83511927D01*
X159414880Y-83511927D02*
X159376785Y-83530975D01*
X159376785Y-83530975D02*
X159357737Y-83550022D01*
X159357737Y-83550022D02*
X159338690Y-83588118D01*
X159338690Y-83588118D02*
X159338690Y-83626213D01*
X159338690Y-83626213D02*
X159357737Y-83683356D01*
X159357737Y-83683356D02*
X159586309Y-83911927D01*
X159586309Y-83911927D02*
X159338690Y-83911927D01*
X159205357Y-83511927D02*
X158938690Y-83511927D01*
X158938690Y-83511927D02*
X159110119Y-83911927D01*
X171382142Y-80861927D02*
X171515475Y-80671451D01*
X171610713Y-80861927D02*
X171610713Y-80461927D01*
X171610713Y-80461927D02*
X171458332Y-80461927D01*
X171458332Y-80461927D02*
X171420237Y-80480975D01*
X171420237Y-80480975D02*
X171401190Y-80500022D01*
X171401190Y-80500022D02*
X171382142Y-80538118D01*
X171382142Y-80538118D02*
X171382142Y-80595260D01*
X171382142Y-80595260D02*
X171401190Y-80633356D01*
X171401190Y-80633356D02*
X171420237Y-80652403D01*
X171420237Y-80652403D02*
X171458332Y-80671451D01*
X171458332Y-80671451D02*
X171610713Y-80671451D01*
X171248809Y-80461927D02*
X171001190Y-80461927D01*
X171001190Y-80461927D02*
X171134523Y-80614308D01*
X171134523Y-80614308D02*
X171077380Y-80614308D01*
X171077380Y-80614308D02*
X171039285Y-80633356D01*
X171039285Y-80633356D02*
X171020237Y-80652403D01*
X171020237Y-80652403D02*
X171001190Y-80690499D01*
X171001190Y-80690499D02*
X171001190Y-80785737D01*
X171001190Y-80785737D02*
X171020237Y-80823832D01*
X171020237Y-80823832D02*
X171039285Y-80842880D01*
X171039285Y-80842880D02*
X171077380Y-80861927D01*
X171077380Y-80861927D02*
X171191666Y-80861927D01*
X171191666Y-80861927D02*
X171229761Y-80842880D01*
X171229761Y-80842880D02*
X171248809Y-80823832D01*
X170620238Y-80861927D02*
X170848809Y-80861927D01*
X170734523Y-80861927D02*
X170734523Y-80461927D01*
X170734523Y-80461927D02*
X170772619Y-80519070D01*
X170772619Y-80519070D02*
X170810714Y-80557165D01*
X170810714Y-80557165D02*
X170848809Y-80576213D01*
X152819642Y-83911927D02*
X152952975Y-83721451D01*
X153048213Y-83911927D02*
X153048213Y-83511927D01*
X153048213Y-83511927D02*
X152895832Y-83511927D01*
X152895832Y-83511927D02*
X152857737Y-83530975D01*
X152857737Y-83530975D02*
X152838690Y-83550022D01*
X152838690Y-83550022D02*
X152819642Y-83588118D01*
X152819642Y-83588118D02*
X152819642Y-83645260D01*
X152819642Y-83645260D02*
X152838690Y-83683356D01*
X152838690Y-83683356D02*
X152857737Y-83702403D01*
X152857737Y-83702403D02*
X152895832Y-83721451D01*
X152895832Y-83721451D02*
X153048213Y-83721451D01*
X152667261Y-83550022D02*
X152648213Y-83530975D01*
X152648213Y-83530975D02*
X152610118Y-83511927D01*
X152610118Y-83511927D02*
X152514880Y-83511927D01*
X152514880Y-83511927D02*
X152476785Y-83530975D01*
X152476785Y-83530975D02*
X152457737Y-83550022D01*
X152457737Y-83550022D02*
X152438690Y-83588118D01*
X152438690Y-83588118D02*
X152438690Y-83626213D01*
X152438690Y-83626213D02*
X152457737Y-83683356D01*
X152457737Y-83683356D02*
X152686309Y-83911927D01*
X152686309Y-83911927D02*
X152438690Y-83911927D01*
X152076785Y-83511927D02*
X152267261Y-83511927D01*
X152267261Y-83511927D02*
X152286309Y-83702403D01*
X152286309Y-83702403D02*
X152267261Y-83683356D01*
X152267261Y-83683356D02*
X152229166Y-83664308D01*
X152229166Y-83664308D02*
X152133928Y-83664308D01*
X152133928Y-83664308D02*
X152095833Y-83683356D01*
X152095833Y-83683356D02*
X152076785Y-83702403D01*
X152076785Y-83702403D02*
X152057738Y-83740499D01*
X152057738Y-83740499D02*
X152057738Y-83835737D01*
X152057738Y-83835737D02*
X152076785Y-83873832D01*
X152076785Y-83873832D02*
X152095833Y-83892880D01*
X152095833Y-83892880D02*
X152133928Y-83911927D01*
X152133928Y-83911927D02*
X152229166Y-83911927D01*
X152229166Y-83911927D02*
X152267261Y-83892880D01*
X152267261Y-83892880D02*
X152286309Y-83873832D01*
X145669642Y-104911927D02*
X145802975Y-104721451D01*
X145898213Y-104911927D02*
X145898213Y-104511927D01*
X145898213Y-104511927D02*
X145745832Y-104511927D01*
X145745832Y-104511927D02*
X145707737Y-104530975D01*
X145707737Y-104530975D02*
X145688690Y-104550022D01*
X145688690Y-104550022D02*
X145669642Y-104588118D01*
X145669642Y-104588118D02*
X145669642Y-104645260D01*
X145669642Y-104645260D02*
X145688690Y-104683356D01*
X145688690Y-104683356D02*
X145707737Y-104702403D01*
X145707737Y-104702403D02*
X145745832Y-104721451D01*
X145745832Y-104721451D02*
X145898213Y-104721451D01*
X145326785Y-104645260D02*
X145326785Y-104911927D01*
X145422023Y-104492880D02*
X145517261Y-104778594D01*
X145517261Y-104778594D02*
X145269642Y-104778594D01*
X145041071Y-104511927D02*
X145002976Y-104511927D01*
X145002976Y-104511927D02*
X144964880Y-104530975D01*
X144964880Y-104530975D02*
X144945833Y-104550022D01*
X144945833Y-104550022D02*
X144926785Y-104588118D01*
X144926785Y-104588118D02*
X144907738Y-104664308D01*
X144907738Y-104664308D02*
X144907738Y-104759546D01*
X144907738Y-104759546D02*
X144926785Y-104835737D01*
X144926785Y-104835737D02*
X144945833Y-104873832D01*
X144945833Y-104873832D02*
X144964880Y-104892880D01*
X144964880Y-104892880D02*
X145002976Y-104911927D01*
X145002976Y-104911927D02*
X145041071Y-104911927D01*
X145041071Y-104911927D02*
X145079166Y-104892880D01*
X145079166Y-104892880D02*
X145098214Y-104873832D01*
X145098214Y-104873832D02*
X145117261Y-104835737D01*
X145117261Y-104835737D02*
X145136309Y-104759546D01*
X145136309Y-104759546D02*
X145136309Y-104664308D01*
X145136309Y-104664308D02*
X145117261Y-104588118D01*
X145117261Y-104588118D02*
X145098214Y-104550022D01*
X145098214Y-104550022D02*
X145079166Y-104530975D01*
X145079166Y-104530975D02*
X145041071Y-104511927D01*
X166629166Y-76861927D02*
X166762499Y-76671451D01*
X166857737Y-76861927D02*
X166857737Y-76461927D01*
X166857737Y-76461927D02*
X166705356Y-76461927D01*
X166705356Y-76461927D02*
X166667261Y-76480975D01*
X166667261Y-76480975D02*
X166648214Y-76500022D01*
X166648214Y-76500022D02*
X166629166Y-76538118D01*
X166629166Y-76538118D02*
X166629166Y-76595260D01*
X166629166Y-76595260D02*
X166648214Y-76633356D01*
X166648214Y-76633356D02*
X166667261Y-76652403D01*
X166667261Y-76652403D02*
X166705356Y-76671451D01*
X166705356Y-76671451D02*
X166857737Y-76671451D01*
X166286309Y-76461927D02*
X166362499Y-76461927D01*
X166362499Y-76461927D02*
X166400595Y-76480975D01*
X166400595Y-76480975D02*
X166419642Y-76500022D01*
X166419642Y-76500022D02*
X166457737Y-76557165D01*
X166457737Y-76557165D02*
X166476785Y-76633356D01*
X166476785Y-76633356D02*
X166476785Y-76785737D01*
X166476785Y-76785737D02*
X166457737Y-76823832D01*
X166457737Y-76823832D02*
X166438690Y-76842880D01*
X166438690Y-76842880D02*
X166400595Y-76861927D01*
X166400595Y-76861927D02*
X166324404Y-76861927D01*
X166324404Y-76861927D02*
X166286309Y-76842880D01*
X166286309Y-76842880D02*
X166267261Y-76823832D01*
X166267261Y-76823832D02*
X166248214Y-76785737D01*
X166248214Y-76785737D02*
X166248214Y-76690499D01*
X166248214Y-76690499D02*
X166267261Y-76652403D01*
X166267261Y-76652403D02*
X166286309Y-76633356D01*
X166286309Y-76633356D02*
X166324404Y-76614308D01*
X166324404Y-76614308D02*
X166400595Y-76614308D01*
X166400595Y-76614308D02*
X166438690Y-76633356D01*
X166438690Y-76633356D02*
X166457737Y-76652403D01*
X166457737Y-76652403D02*
X166476785Y-76690499D01*
X138719642Y-111911927D02*
X138852975Y-111721451D01*
X138948213Y-111911927D02*
X138948213Y-111511927D01*
X138948213Y-111511927D02*
X138795832Y-111511927D01*
X138795832Y-111511927D02*
X138757737Y-111530975D01*
X138757737Y-111530975D02*
X138738690Y-111550022D01*
X138738690Y-111550022D02*
X138719642Y-111588118D01*
X138719642Y-111588118D02*
X138719642Y-111645260D01*
X138719642Y-111645260D02*
X138738690Y-111683356D01*
X138738690Y-111683356D02*
X138757737Y-111702403D01*
X138757737Y-111702403D02*
X138795832Y-111721451D01*
X138795832Y-111721451D02*
X138948213Y-111721451D01*
X138357737Y-111511927D02*
X138548213Y-111511927D01*
X138548213Y-111511927D02*
X138567261Y-111702403D01*
X138567261Y-111702403D02*
X138548213Y-111683356D01*
X138548213Y-111683356D02*
X138510118Y-111664308D01*
X138510118Y-111664308D02*
X138414880Y-111664308D01*
X138414880Y-111664308D02*
X138376785Y-111683356D01*
X138376785Y-111683356D02*
X138357737Y-111702403D01*
X138357737Y-111702403D02*
X138338690Y-111740499D01*
X138338690Y-111740499D02*
X138338690Y-111835737D01*
X138338690Y-111835737D02*
X138357737Y-111873832D01*
X138357737Y-111873832D02*
X138376785Y-111892880D01*
X138376785Y-111892880D02*
X138414880Y-111911927D01*
X138414880Y-111911927D02*
X138510118Y-111911927D01*
X138510118Y-111911927D02*
X138548213Y-111892880D01*
X138548213Y-111892880D02*
X138567261Y-111873832D01*
X138205357Y-111511927D02*
X137957738Y-111511927D01*
X137957738Y-111511927D02*
X138091071Y-111664308D01*
X138091071Y-111664308D02*
X138033928Y-111664308D01*
X138033928Y-111664308D02*
X137995833Y-111683356D01*
X137995833Y-111683356D02*
X137976785Y-111702403D01*
X137976785Y-111702403D02*
X137957738Y-111740499D01*
X137957738Y-111740499D02*
X137957738Y-111835737D01*
X137957738Y-111835737D02*
X137976785Y-111873832D01*
X137976785Y-111873832D02*
X137995833Y-111892880D01*
X137995833Y-111892880D02*
X138033928Y-111911927D01*
X138033928Y-111911927D02*
X138148214Y-111911927D01*
X138148214Y-111911927D02*
X138186309Y-111892880D01*
X138186309Y-111892880D02*
X138205357Y-111873832D01*
X131719642Y-90911927D02*
X131852975Y-90721451D01*
X131948213Y-90911927D02*
X131948213Y-90511927D01*
X131948213Y-90511927D02*
X131795832Y-90511927D01*
X131795832Y-90511927D02*
X131757737Y-90530975D01*
X131757737Y-90530975D02*
X131738690Y-90550022D01*
X131738690Y-90550022D02*
X131719642Y-90588118D01*
X131719642Y-90588118D02*
X131719642Y-90645260D01*
X131719642Y-90645260D02*
X131738690Y-90683356D01*
X131738690Y-90683356D02*
X131757737Y-90702403D01*
X131757737Y-90702403D02*
X131795832Y-90721451D01*
X131795832Y-90721451D02*
X131948213Y-90721451D01*
X131338690Y-90911927D02*
X131567261Y-90911927D01*
X131452975Y-90911927D02*
X131452975Y-90511927D01*
X131452975Y-90511927D02*
X131491071Y-90569070D01*
X131491071Y-90569070D02*
X131529166Y-90607165D01*
X131529166Y-90607165D02*
X131567261Y-90626213D01*
X131205357Y-90511927D02*
X130957738Y-90511927D01*
X130957738Y-90511927D02*
X131091071Y-90664308D01*
X131091071Y-90664308D02*
X131033928Y-90664308D01*
X131033928Y-90664308D02*
X130995833Y-90683356D01*
X130995833Y-90683356D02*
X130976785Y-90702403D01*
X130976785Y-90702403D02*
X130957738Y-90740499D01*
X130957738Y-90740499D02*
X130957738Y-90835737D01*
X130957738Y-90835737D02*
X130976785Y-90873832D01*
X130976785Y-90873832D02*
X130995833Y-90892880D01*
X130995833Y-90892880D02*
X131033928Y-90911927D01*
X131033928Y-90911927D02*
X131148214Y-90911927D01*
X131148214Y-90911927D02*
X131186309Y-90892880D01*
X131186309Y-90892880D02*
X131205357Y-90873832D01*
X152769642Y-104911927D02*
X152902975Y-104721451D01*
X152998213Y-104911927D02*
X152998213Y-104511927D01*
X152998213Y-104511927D02*
X152845832Y-104511927D01*
X152845832Y-104511927D02*
X152807737Y-104530975D01*
X152807737Y-104530975D02*
X152788690Y-104550022D01*
X152788690Y-104550022D02*
X152769642Y-104588118D01*
X152769642Y-104588118D02*
X152769642Y-104645260D01*
X152769642Y-104645260D02*
X152788690Y-104683356D01*
X152788690Y-104683356D02*
X152807737Y-104702403D01*
X152807737Y-104702403D02*
X152845832Y-104721451D01*
X152845832Y-104721451D02*
X152998213Y-104721451D01*
X152426785Y-104645260D02*
X152426785Y-104911927D01*
X152522023Y-104492880D02*
X152617261Y-104778594D01*
X152617261Y-104778594D02*
X152369642Y-104778594D01*
X152236309Y-104550022D02*
X152217261Y-104530975D01*
X152217261Y-104530975D02*
X152179166Y-104511927D01*
X152179166Y-104511927D02*
X152083928Y-104511927D01*
X152083928Y-104511927D02*
X152045833Y-104530975D01*
X152045833Y-104530975D02*
X152026785Y-104550022D01*
X152026785Y-104550022D02*
X152007738Y-104588118D01*
X152007738Y-104588118D02*
X152007738Y-104626213D01*
X152007738Y-104626213D02*
X152026785Y-104683356D01*
X152026785Y-104683356D02*
X152255357Y-104911927D01*
X152255357Y-104911927D02*
X152007738Y-104911927D01*
X138707142Y-83911927D02*
X138840475Y-83721451D01*
X138935713Y-83911927D02*
X138935713Y-83511927D01*
X138935713Y-83511927D02*
X138783332Y-83511927D01*
X138783332Y-83511927D02*
X138745237Y-83530975D01*
X138745237Y-83530975D02*
X138726190Y-83550022D01*
X138726190Y-83550022D02*
X138707142Y-83588118D01*
X138707142Y-83588118D02*
X138707142Y-83645260D01*
X138707142Y-83645260D02*
X138726190Y-83683356D01*
X138726190Y-83683356D02*
X138745237Y-83702403D01*
X138745237Y-83702403D02*
X138783332Y-83721451D01*
X138783332Y-83721451D02*
X138935713Y-83721451D01*
X138326190Y-83911927D02*
X138554761Y-83911927D01*
X138440475Y-83911927D02*
X138440475Y-83511927D01*
X138440475Y-83511927D02*
X138478571Y-83569070D01*
X138478571Y-83569070D02*
X138516666Y-83607165D01*
X138516666Y-83607165D02*
X138554761Y-83626213D01*
X137983333Y-83645260D02*
X137983333Y-83911927D01*
X138078571Y-83492880D02*
X138173809Y-83778594D01*
X138173809Y-83778594D02*
X137926190Y-83778594D01*
X138719642Y-97911927D02*
X138852975Y-97721451D01*
X138948213Y-97911927D02*
X138948213Y-97511927D01*
X138948213Y-97511927D02*
X138795832Y-97511927D01*
X138795832Y-97511927D02*
X138757737Y-97530975D01*
X138757737Y-97530975D02*
X138738690Y-97550022D01*
X138738690Y-97550022D02*
X138719642Y-97588118D01*
X138719642Y-97588118D02*
X138719642Y-97645260D01*
X138719642Y-97645260D02*
X138738690Y-97683356D01*
X138738690Y-97683356D02*
X138757737Y-97702403D01*
X138757737Y-97702403D02*
X138795832Y-97721451D01*
X138795832Y-97721451D02*
X138948213Y-97721451D01*
X138586309Y-97511927D02*
X138338690Y-97511927D01*
X138338690Y-97511927D02*
X138472023Y-97664308D01*
X138472023Y-97664308D02*
X138414880Y-97664308D01*
X138414880Y-97664308D02*
X138376785Y-97683356D01*
X138376785Y-97683356D02*
X138357737Y-97702403D01*
X138357737Y-97702403D02*
X138338690Y-97740499D01*
X138338690Y-97740499D02*
X138338690Y-97835737D01*
X138338690Y-97835737D02*
X138357737Y-97873832D01*
X138357737Y-97873832D02*
X138376785Y-97892880D01*
X138376785Y-97892880D02*
X138414880Y-97911927D01*
X138414880Y-97911927D02*
X138529166Y-97911927D01*
X138529166Y-97911927D02*
X138567261Y-97892880D01*
X138567261Y-97892880D02*
X138586309Y-97873832D01*
X138205357Y-97511927D02*
X137938690Y-97511927D01*
X137938690Y-97511927D02*
X138110119Y-97911927D01*
X138719642Y-118911927D02*
X138852975Y-118721451D01*
X138948213Y-118911927D02*
X138948213Y-118511927D01*
X138948213Y-118511927D02*
X138795832Y-118511927D01*
X138795832Y-118511927D02*
X138757737Y-118530975D01*
X138757737Y-118530975D02*
X138738690Y-118550022D01*
X138738690Y-118550022D02*
X138719642Y-118588118D01*
X138719642Y-118588118D02*
X138719642Y-118645260D01*
X138719642Y-118645260D02*
X138738690Y-118683356D01*
X138738690Y-118683356D02*
X138757737Y-118702403D01*
X138757737Y-118702403D02*
X138795832Y-118721451D01*
X138795832Y-118721451D02*
X138948213Y-118721451D01*
X138357737Y-118511927D02*
X138548213Y-118511927D01*
X138548213Y-118511927D02*
X138567261Y-118702403D01*
X138567261Y-118702403D02*
X138548213Y-118683356D01*
X138548213Y-118683356D02*
X138510118Y-118664308D01*
X138510118Y-118664308D02*
X138414880Y-118664308D01*
X138414880Y-118664308D02*
X138376785Y-118683356D01*
X138376785Y-118683356D02*
X138357737Y-118702403D01*
X138357737Y-118702403D02*
X138338690Y-118740499D01*
X138338690Y-118740499D02*
X138338690Y-118835737D01*
X138338690Y-118835737D02*
X138357737Y-118873832D01*
X138357737Y-118873832D02*
X138376785Y-118892880D01*
X138376785Y-118892880D02*
X138414880Y-118911927D01*
X138414880Y-118911927D02*
X138510118Y-118911927D01*
X138510118Y-118911927D02*
X138548213Y-118892880D01*
X138548213Y-118892880D02*
X138567261Y-118873832D01*
X137995833Y-118645260D02*
X137995833Y-118911927D01*
X138091071Y-118492880D02*
X138186309Y-118778594D01*
X138186309Y-118778594D02*
X137938690Y-118778594D01*
X166819642Y-83911927D02*
X166952975Y-83721451D01*
X167048213Y-83911927D02*
X167048213Y-83511927D01*
X167048213Y-83511927D02*
X166895832Y-83511927D01*
X166895832Y-83511927D02*
X166857737Y-83530975D01*
X166857737Y-83530975D02*
X166838690Y-83550022D01*
X166838690Y-83550022D02*
X166819642Y-83588118D01*
X166819642Y-83588118D02*
X166819642Y-83645260D01*
X166819642Y-83645260D02*
X166838690Y-83683356D01*
X166838690Y-83683356D02*
X166857737Y-83702403D01*
X166857737Y-83702403D02*
X166895832Y-83721451D01*
X166895832Y-83721451D02*
X167048213Y-83721451D01*
X166667261Y-83550022D02*
X166648213Y-83530975D01*
X166648213Y-83530975D02*
X166610118Y-83511927D01*
X166610118Y-83511927D02*
X166514880Y-83511927D01*
X166514880Y-83511927D02*
X166476785Y-83530975D01*
X166476785Y-83530975D02*
X166457737Y-83550022D01*
X166457737Y-83550022D02*
X166438690Y-83588118D01*
X166438690Y-83588118D02*
X166438690Y-83626213D01*
X166438690Y-83626213D02*
X166457737Y-83683356D01*
X166457737Y-83683356D02*
X166686309Y-83911927D01*
X166686309Y-83911927D02*
X166438690Y-83911927D01*
X166248214Y-83911927D02*
X166172023Y-83911927D01*
X166172023Y-83911927D02*
X166133928Y-83892880D01*
X166133928Y-83892880D02*
X166114880Y-83873832D01*
X166114880Y-83873832D02*
X166076785Y-83816689D01*
X166076785Y-83816689D02*
X166057738Y-83740499D01*
X166057738Y-83740499D02*
X166057738Y-83588118D01*
X166057738Y-83588118D02*
X166076785Y-83550022D01*
X166076785Y-83550022D02*
X166095833Y-83530975D01*
X166095833Y-83530975D02*
X166133928Y-83511927D01*
X166133928Y-83511927D02*
X166210119Y-83511927D01*
X166210119Y-83511927D02*
X166248214Y-83530975D01*
X166248214Y-83530975D02*
X166267261Y-83550022D01*
X166267261Y-83550022D02*
X166286309Y-83588118D01*
X166286309Y-83588118D02*
X166286309Y-83683356D01*
X166286309Y-83683356D02*
X166267261Y-83721451D01*
X166267261Y-83721451D02*
X166248214Y-83740499D01*
X166248214Y-83740499D02*
X166210119Y-83759546D01*
X166210119Y-83759546D02*
X166133928Y-83759546D01*
X166133928Y-83759546D02*
X166095833Y-83740499D01*
X166095833Y-83740499D02*
X166076785Y-83721451D01*
X166076785Y-83721451D02*
X166057738Y-83683356D01*
X124719642Y-111911927D02*
X124852975Y-111721451D01*
X124948213Y-111911927D02*
X124948213Y-111511927D01*
X124948213Y-111511927D02*
X124795832Y-111511927D01*
X124795832Y-111511927D02*
X124757737Y-111530975D01*
X124757737Y-111530975D02*
X124738690Y-111550022D01*
X124738690Y-111550022D02*
X124719642Y-111588118D01*
X124719642Y-111588118D02*
X124719642Y-111645260D01*
X124719642Y-111645260D02*
X124738690Y-111683356D01*
X124738690Y-111683356D02*
X124757737Y-111702403D01*
X124757737Y-111702403D02*
X124795832Y-111721451D01*
X124795832Y-111721451D02*
X124948213Y-111721451D01*
X124376785Y-111645260D02*
X124376785Y-111911927D01*
X124472023Y-111492880D02*
X124567261Y-111778594D01*
X124567261Y-111778594D02*
X124319642Y-111778594D01*
X124148214Y-111911927D02*
X124072023Y-111911927D01*
X124072023Y-111911927D02*
X124033928Y-111892880D01*
X124033928Y-111892880D02*
X124014880Y-111873832D01*
X124014880Y-111873832D02*
X123976785Y-111816689D01*
X123976785Y-111816689D02*
X123957738Y-111740499D01*
X123957738Y-111740499D02*
X123957738Y-111588118D01*
X123957738Y-111588118D02*
X123976785Y-111550022D01*
X123976785Y-111550022D02*
X123995833Y-111530975D01*
X123995833Y-111530975D02*
X124033928Y-111511927D01*
X124033928Y-111511927D02*
X124110119Y-111511927D01*
X124110119Y-111511927D02*
X124148214Y-111530975D01*
X124148214Y-111530975D02*
X124167261Y-111550022D01*
X124167261Y-111550022D02*
X124186309Y-111588118D01*
X124186309Y-111588118D02*
X124186309Y-111683356D01*
X124186309Y-111683356D02*
X124167261Y-111721451D01*
X124167261Y-111721451D02*
X124148214Y-111740499D01*
X124148214Y-111740499D02*
X124110119Y-111759546D01*
X124110119Y-111759546D02*
X124033928Y-111759546D01*
X124033928Y-111759546D02*
X123995833Y-111740499D01*
X123995833Y-111740499D02*
X123976785Y-111721451D01*
X123976785Y-111721451D02*
X123957738Y-111683356D01*
X166819642Y-111911927D02*
X166952975Y-111721451D01*
X167048213Y-111911927D02*
X167048213Y-111511927D01*
X167048213Y-111511927D02*
X166895832Y-111511927D01*
X166895832Y-111511927D02*
X166857737Y-111530975D01*
X166857737Y-111530975D02*
X166838690Y-111550022D01*
X166838690Y-111550022D02*
X166819642Y-111588118D01*
X166819642Y-111588118D02*
X166819642Y-111645260D01*
X166819642Y-111645260D02*
X166838690Y-111683356D01*
X166838690Y-111683356D02*
X166857737Y-111702403D01*
X166857737Y-111702403D02*
X166895832Y-111721451D01*
X166895832Y-111721451D02*
X167048213Y-111721451D01*
X166476785Y-111511927D02*
X166552975Y-111511927D01*
X166552975Y-111511927D02*
X166591071Y-111530975D01*
X166591071Y-111530975D02*
X166610118Y-111550022D01*
X166610118Y-111550022D02*
X166648213Y-111607165D01*
X166648213Y-111607165D02*
X166667261Y-111683356D01*
X166667261Y-111683356D02*
X166667261Y-111835737D01*
X166667261Y-111835737D02*
X166648213Y-111873832D01*
X166648213Y-111873832D02*
X166629166Y-111892880D01*
X166629166Y-111892880D02*
X166591071Y-111911927D01*
X166591071Y-111911927D02*
X166514880Y-111911927D01*
X166514880Y-111911927D02*
X166476785Y-111892880D01*
X166476785Y-111892880D02*
X166457737Y-111873832D01*
X166457737Y-111873832D02*
X166438690Y-111835737D01*
X166438690Y-111835737D02*
X166438690Y-111740499D01*
X166438690Y-111740499D02*
X166457737Y-111702403D01*
X166457737Y-111702403D02*
X166476785Y-111683356D01*
X166476785Y-111683356D02*
X166514880Y-111664308D01*
X166514880Y-111664308D02*
X166591071Y-111664308D01*
X166591071Y-111664308D02*
X166629166Y-111683356D01*
X166629166Y-111683356D02*
X166648213Y-111702403D01*
X166648213Y-111702403D02*
X166667261Y-111740499D01*
X166057738Y-111911927D02*
X166286309Y-111911927D01*
X166172023Y-111911927D02*
X166172023Y-111511927D01*
X166172023Y-111511927D02*
X166210119Y-111569070D01*
X166210119Y-111569070D02*
X166248214Y-111607165D01*
X166248214Y-111607165D02*
X166286309Y-111626213D01*
X124719642Y-118911927D02*
X124852975Y-118721451D01*
X124948213Y-118911927D02*
X124948213Y-118511927D01*
X124948213Y-118511927D02*
X124795832Y-118511927D01*
X124795832Y-118511927D02*
X124757737Y-118530975D01*
X124757737Y-118530975D02*
X124738690Y-118550022D01*
X124738690Y-118550022D02*
X124719642Y-118588118D01*
X124719642Y-118588118D02*
X124719642Y-118645260D01*
X124719642Y-118645260D02*
X124738690Y-118683356D01*
X124738690Y-118683356D02*
X124757737Y-118702403D01*
X124757737Y-118702403D02*
X124795832Y-118721451D01*
X124795832Y-118721451D02*
X124948213Y-118721451D01*
X124357737Y-118511927D02*
X124548213Y-118511927D01*
X124548213Y-118511927D02*
X124567261Y-118702403D01*
X124567261Y-118702403D02*
X124548213Y-118683356D01*
X124548213Y-118683356D02*
X124510118Y-118664308D01*
X124510118Y-118664308D02*
X124414880Y-118664308D01*
X124414880Y-118664308D02*
X124376785Y-118683356D01*
X124376785Y-118683356D02*
X124357737Y-118702403D01*
X124357737Y-118702403D02*
X124338690Y-118740499D01*
X124338690Y-118740499D02*
X124338690Y-118835737D01*
X124338690Y-118835737D02*
X124357737Y-118873832D01*
X124357737Y-118873832D02*
X124376785Y-118892880D01*
X124376785Y-118892880D02*
X124414880Y-118911927D01*
X124414880Y-118911927D02*
X124510118Y-118911927D01*
X124510118Y-118911927D02*
X124548213Y-118892880D01*
X124548213Y-118892880D02*
X124567261Y-118873832D01*
X124091071Y-118511927D02*
X124052976Y-118511927D01*
X124052976Y-118511927D02*
X124014880Y-118530975D01*
X124014880Y-118530975D02*
X123995833Y-118550022D01*
X123995833Y-118550022D02*
X123976785Y-118588118D01*
X123976785Y-118588118D02*
X123957738Y-118664308D01*
X123957738Y-118664308D02*
X123957738Y-118759546D01*
X123957738Y-118759546D02*
X123976785Y-118835737D01*
X123976785Y-118835737D02*
X123995833Y-118873832D01*
X123995833Y-118873832D02*
X124014880Y-118892880D01*
X124014880Y-118892880D02*
X124052976Y-118911927D01*
X124052976Y-118911927D02*
X124091071Y-118911927D01*
X124091071Y-118911927D02*
X124129166Y-118892880D01*
X124129166Y-118892880D02*
X124148214Y-118873832D01*
X124148214Y-118873832D02*
X124167261Y-118835737D01*
X124167261Y-118835737D02*
X124186309Y-118759546D01*
X124186309Y-118759546D02*
X124186309Y-118664308D01*
X124186309Y-118664308D02*
X124167261Y-118588118D01*
X124167261Y-118588118D02*
X124148214Y-118550022D01*
X124148214Y-118550022D02*
X124129166Y-118530975D01*
X124129166Y-118530975D02*
X124091071Y-118511927D01*
X131719642Y-97911927D02*
X131852975Y-97721451D01*
X131948213Y-97911927D02*
X131948213Y-97511927D01*
X131948213Y-97511927D02*
X131795832Y-97511927D01*
X131795832Y-97511927D02*
X131757737Y-97530975D01*
X131757737Y-97530975D02*
X131738690Y-97550022D01*
X131738690Y-97550022D02*
X131719642Y-97588118D01*
X131719642Y-97588118D02*
X131719642Y-97645260D01*
X131719642Y-97645260D02*
X131738690Y-97683356D01*
X131738690Y-97683356D02*
X131757737Y-97702403D01*
X131757737Y-97702403D02*
X131795832Y-97721451D01*
X131795832Y-97721451D02*
X131948213Y-97721451D01*
X131586309Y-97511927D02*
X131338690Y-97511927D01*
X131338690Y-97511927D02*
X131472023Y-97664308D01*
X131472023Y-97664308D02*
X131414880Y-97664308D01*
X131414880Y-97664308D02*
X131376785Y-97683356D01*
X131376785Y-97683356D02*
X131357737Y-97702403D01*
X131357737Y-97702403D02*
X131338690Y-97740499D01*
X131338690Y-97740499D02*
X131338690Y-97835737D01*
X131338690Y-97835737D02*
X131357737Y-97873832D01*
X131357737Y-97873832D02*
X131376785Y-97892880D01*
X131376785Y-97892880D02*
X131414880Y-97911927D01*
X131414880Y-97911927D02*
X131529166Y-97911927D01*
X131529166Y-97911927D02*
X131567261Y-97892880D01*
X131567261Y-97892880D02*
X131586309Y-97873832D01*
X130976785Y-97511927D02*
X131167261Y-97511927D01*
X131167261Y-97511927D02*
X131186309Y-97702403D01*
X131186309Y-97702403D02*
X131167261Y-97683356D01*
X131167261Y-97683356D02*
X131129166Y-97664308D01*
X131129166Y-97664308D02*
X131033928Y-97664308D01*
X131033928Y-97664308D02*
X130995833Y-97683356D01*
X130995833Y-97683356D02*
X130976785Y-97702403D01*
X130976785Y-97702403D02*
X130957738Y-97740499D01*
X130957738Y-97740499D02*
X130957738Y-97835737D01*
X130957738Y-97835737D02*
X130976785Y-97873832D01*
X130976785Y-97873832D02*
X130995833Y-97892880D01*
X130995833Y-97892880D02*
X131033928Y-97911927D01*
X131033928Y-97911927D02*
X131129166Y-97911927D01*
X131129166Y-97911927D02*
X131167261Y-97892880D01*
X131167261Y-97892880D02*
X131186309Y-97873832D01*
X124732142Y-69836927D02*
X124865475Y-69646451D01*
X124960713Y-69836927D02*
X124960713Y-69436927D01*
X124960713Y-69436927D02*
X124808332Y-69436927D01*
X124808332Y-69436927D02*
X124770237Y-69455975D01*
X124770237Y-69455975D02*
X124751190Y-69475022D01*
X124751190Y-69475022D02*
X124732142Y-69513118D01*
X124732142Y-69513118D02*
X124732142Y-69570260D01*
X124732142Y-69570260D02*
X124751190Y-69608356D01*
X124751190Y-69608356D02*
X124770237Y-69627403D01*
X124770237Y-69627403D02*
X124808332Y-69646451D01*
X124808332Y-69646451D02*
X124960713Y-69646451D01*
X124351190Y-69836927D02*
X124579761Y-69836927D01*
X124465475Y-69836927D02*
X124465475Y-69436927D01*
X124465475Y-69436927D02*
X124503571Y-69494070D01*
X124503571Y-69494070D02*
X124541666Y-69532165D01*
X124541666Y-69532165D02*
X124579761Y-69551213D01*
X124122619Y-69608356D02*
X124160714Y-69589308D01*
X124160714Y-69589308D02*
X124179761Y-69570260D01*
X124179761Y-69570260D02*
X124198809Y-69532165D01*
X124198809Y-69532165D02*
X124198809Y-69513118D01*
X124198809Y-69513118D02*
X124179761Y-69475022D01*
X124179761Y-69475022D02*
X124160714Y-69455975D01*
X124160714Y-69455975D02*
X124122619Y-69436927D01*
X124122619Y-69436927D02*
X124046428Y-69436927D01*
X124046428Y-69436927D02*
X124008333Y-69455975D01*
X124008333Y-69455975D02*
X123989285Y-69475022D01*
X123989285Y-69475022D02*
X123970238Y-69513118D01*
X123970238Y-69513118D02*
X123970238Y-69532165D01*
X123970238Y-69532165D02*
X123989285Y-69570260D01*
X123989285Y-69570260D02*
X124008333Y-69589308D01*
X124008333Y-69589308D02*
X124046428Y-69608356D01*
X124046428Y-69608356D02*
X124122619Y-69608356D01*
X124122619Y-69608356D02*
X124160714Y-69627403D01*
X124160714Y-69627403D02*
X124179761Y-69646451D01*
X124179761Y-69646451D02*
X124198809Y-69684546D01*
X124198809Y-69684546D02*
X124198809Y-69760737D01*
X124198809Y-69760737D02*
X124179761Y-69798832D01*
X124179761Y-69798832D02*
X124160714Y-69817880D01*
X124160714Y-69817880D02*
X124122619Y-69836927D01*
X124122619Y-69836927D02*
X124046428Y-69836927D01*
X124046428Y-69836927D02*
X124008333Y-69817880D01*
X124008333Y-69817880D02*
X123989285Y-69798832D01*
X123989285Y-69798832D02*
X123970238Y-69760737D01*
X123970238Y-69760737D02*
X123970238Y-69684546D01*
X123970238Y-69684546D02*
X123989285Y-69646451D01*
X123989285Y-69646451D02*
X124008333Y-69627403D01*
X124008333Y-69627403D02*
X124046428Y-69608356D01*
%TO.C,D18*%
D12*
X123812500Y-69730000D02*
X121387500Y-69730000D01*
X121387500Y-71630000D01*
X123812500Y-71630000D01*
X123812500Y-69730000D01*
%TO.C,D40*%
X144900000Y-104705000D02*
X142475000Y-104705000D01*
X142475000Y-106605000D01*
X144900000Y-106605000D01*
X144900000Y-104705000D01*
%TO.C,D11*%
X123882500Y-90705000D02*
X121457500Y-90705000D01*
X121457500Y-92605000D01*
X123882500Y-92605000D01*
X123882500Y-90705000D01*
%TO.C,D25*%
X151900000Y-83755000D02*
X149475000Y-83755000D01*
X149475000Y-85655000D01*
X151900000Y-85655000D01*
X151900000Y-83755000D01*
%TO.C,D20*%
X130862500Y-76730000D02*
X128437500Y-76730000D01*
X128437500Y-78630000D01*
X130862500Y-78630000D01*
X130862500Y-76730000D01*
%TO.C,D42*%
X151900000Y-104705000D02*
X149475000Y-104705000D01*
X149475000Y-106605000D01*
X151900000Y-106605000D01*
X151900000Y-104705000D01*
%TO.C,D4*%
X158900000Y-76705000D02*
X156475000Y-76705000D01*
X156475000Y-78605000D01*
X158900000Y-78605000D01*
X158900000Y-76705000D01*
%TO.C,D55*%
X144900000Y-111705000D02*
X142475000Y-111705000D01*
X142475000Y-113605000D01*
X144900000Y-113605000D01*
X144900000Y-111705000D01*
%TO.C,D32*%
X172900000Y-90705000D02*
X170475000Y-90705000D01*
X170475000Y-92605000D01*
X172900000Y-92605000D01*
X172900000Y-90705000D01*
%TO.C,D36*%
X130850000Y-104705000D02*
X128425000Y-104705000D01*
X128425000Y-106605000D01*
X130850000Y-106605000D01*
X130850000Y-104705000D01*
%TO.C,D43*%
X158850000Y-97705000D02*
X156425000Y-97705000D01*
X156425000Y-99605000D01*
X158850000Y-99605000D01*
X158850000Y-97705000D01*
%TO.C,D53*%
X137900000Y-111705000D02*
X135475000Y-111705000D01*
X135475000Y-113605000D01*
X137900000Y-113605000D01*
X137900000Y-111705000D01*
%TO.C,D10*%
X123877500Y-83755000D02*
X121452500Y-83755000D01*
X121452500Y-85655000D01*
X123877500Y-85655000D01*
X123877500Y-83755000D01*
%TO.C,D17*%
X144875000Y-76730000D02*
X142450000Y-76730000D01*
X142450000Y-78630000D01*
X144875000Y-78630000D01*
X144875000Y-76730000D01*
%TO.C,D14*%
X137925000Y-83755000D02*
X135500000Y-83755000D01*
X135500000Y-85655000D01*
X137925000Y-85655000D01*
X137925000Y-83755000D01*
%TO.C,D54*%
X137912500Y-118705000D02*
X135487500Y-118705000D01*
X135487500Y-120605000D01*
X137912500Y-120605000D01*
X137912500Y-118705000D01*
%TO.C,D38*%
X137950000Y-104705000D02*
X135525000Y-104705000D01*
X135525000Y-106605000D01*
X137950000Y-106605000D01*
X137950000Y-104705000D01*
%TO.C,D33*%
X123900000Y-97705000D02*
X121475000Y-97705000D01*
X121475000Y-99605000D01*
X123900000Y-99605000D01*
X123900000Y-97705000D01*
%TO.C,D62*%
X165862500Y-118705000D02*
X163437500Y-118705000D01*
X163437500Y-120605000D01*
X165862500Y-120605000D01*
X165862500Y-118705000D01*
%TO.C,D8*%
X172900000Y-69705000D02*
X170475000Y-69705000D01*
X170475000Y-71605000D01*
X172900000Y-71605000D01*
X172900000Y-69705000D01*
%TO.C,D64*%
X172862500Y-118705000D02*
X170437500Y-118705000D01*
X170437500Y-120605000D01*
X172862500Y-120605000D01*
X172862500Y-118705000D01*
%TO.C,D37*%
X137950000Y-97705000D02*
X135525000Y-97705000D01*
X135525000Y-99605000D01*
X137950000Y-99605000D01*
X137950000Y-97705000D01*
%TO.C,D12*%
X130900000Y-83755000D02*
X128475000Y-83755000D01*
X128475000Y-85655000D01*
X130900000Y-85655000D01*
X130900000Y-83755000D01*
%TO.C,D46*%
X165900000Y-104705000D02*
X163475000Y-104705000D01*
X163475000Y-106605000D01*
X165900000Y-106605000D01*
X165900000Y-104705000D01*
%TO.C,D26*%
X151900000Y-90705000D02*
X149475000Y-90705000D01*
X149475000Y-92605000D01*
X151900000Y-92605000D01*
X151900000Y-90705000D01*
%TO.C,D60*%
X158912500Y-118705000D02*
X156487500Y-118705000D01*
X156487500Y-120605000D01*
X158912500Y-120605000D01*
X158912500Y-118705000D01*
%TO.C,D7*%
X123825000Y-76730000D02*
X121400000Y-76730000D01*
X121400000Y-78630000D01*
X123825000Y-78630000D01*
X123825000Y-76730000D01*
%TO.C,D2*%
X151900000Y-76705000D02*
X149475000Y-76705000D01*
X149475000Y-78605000D01*
X151900000Y-78605000D01*
X151900000Y-76705000D01*
%TO.C,D58*%
X151912500Y-118705000D02*
X149487500Y-118705000D01*
X149487500Y-120605000D01*
X151912500Y-120605000D01*
X151912500Y-118705000D01*
%TO.C,D44*%
X158850000Y-104705000D02*
X156425000Y-104705000D01*
X156425000Y-106605000D01*
X158850000Y-106605000D01*
X158850000Y-104705000D01*
%TO.C,D24*%
X144900000Y-90705000D02*
X142475000Y-90705000D01*
X142475000Y-92605000D01*
X144900000Y-92605000D01*
X144900000Y-90705000D01*
%TO.C,D23*%
X144900000Y-83755000D02*
X142475000Y-83755000D01*
X142475000Y-85655000D01*
X144900000Y-85655000D01*
X144900000Y-83755000D01*
%TO.C,D5*%
X165850000Y-69630000D02*
X163425000Y-69630000D01*
X163425000Y-71530000D01*
X165850000Y-71530000D01*
X165850000Y-69630000D01*
%TO.C,D3*%
X158800000Y-69655000D02*
X156375000Y-69655000D01*
X156375000Y-71555000D01*
X158800000Y-71555000D01*
X158800000Y-69655000D01*
%TO.C,D6*%
X165900000Y-76705000D02*
X163475000Y-76705000D01*
X163475000Y-78605000D01*
X165900000Y-78605000D01*
X165900000Y-76705000D01*
%TO.C,D48*%
X172912500Y-104705000D02*
X170487500Y-104705000D01*
X170487500Y-106605000D01*
X172912500Y-106605000D01*
X172912500Y-104705000D01*
%TO.C,D49*%
X123900000Y-111705000D02*
X121475000Y-111705000D01*
X121475000Y-113605000D01*
X123900000Y-113605000D01*
X123900000Y-111705000D01*
%TO.C,D13*%
X130950000Y-90705000D02*
X128525000Y-90705000D01*
X128525000Y-92605000D01*
X130950000Y-92605000D01*
X130950000Y-90705000D01*
%TO.C,D63*%
X172862500Y-111705000D02*
X170437500Y-111705000D01*
X170437500Y-113605000D01*
X172862500Y-113605000D01*
X172862500Y-111705000D01*
%TO.C,D21*%
X137875000Y-69680000D02*
X135450000Y-69680000D01*
X135450000Y-71580000D01*
X137875000Y-71580000D01*
X137875000Y-69680000D01*
%TO.C,D61*%
X165862500Y-111705000D02*
X163437500Y-111705000D01*
X163437500Y-113605000D01*
X165862500Y-113605000D01*
X165862500Y-111705000D01*
%TO.C,D51*%
X130850000Y-111705000D02*
X128425000Y-111705000D01*
X128425000Y-113605000D01*
X130850000Y-113605000D01*
X130850000Y-111705000D01*
%TO.C,D56*%
X144912500Y-118705000D02*
X142487500Y-118705000D01*
X142487500Y-120605000D01*
X144912500Y-120605000D01*
X144912500Y-118705000D01*
%TO.C,D35*%
X130812500Y-97705000D02*
X128387500Y-97705000D01*
X128387500Y-99605000D01*
X130812500Y-99605000D01*
X130812500Y-97705000D01*
%TO.C,D28*%
X158850000Y-90705000D02*
X156425000Y-90705000D01*
X156425000Y-92605000D01*
X158850000Y-92605000D01*
X158850000Y-90705000D01*
%TO.C,D30*%
X165900000Y-90705000D02*
X163475000Y-90705000D01*
X163475000Y-92605000D01*
X165900000Y-92605000D01*
X165900000Y-90705000D01*
%TO.C,D47*%
X172900000Y-97705000D02*
X170475000Y-97705000D01*
X170475000Y-99605000D01*
X172900000Y-99605000D01*
X172900000Y-97705000D01*
%TO.C,D19*%
X130762500Y-69680000D02*
X128337500Y-69680000D01*
X128337500Y-71580000D01*
X130762500Y-71580000D01*
X130762500Y-69680000D01*
%TO.C,D22*%
X144862500Y-69680000D02*
X142437500Y-69680000D01*
X142437500Y-71580000D01*
X144862500Y-71580000D01*
X144862500Y-69680000D01*
%TO.C,D15*%
X137862500Y-76730000D02*
X135437500Y-76730000D01*
X135437500Y-78630000D01*
X137862500Y-78630000D01*
X137862500Y-76730000D01*
%TO.C,D1*%
X151900000Y-69730000D02*
X149475000Y-69730000D01*
X149475000Y-71630000D01*
X151900000Y-71630000D01*
X151900000Y-69730000D01*
%TO.C,D29*%
X165900000Y-83755000D02*
X163475000Y-83755000D01*
X163475000Y-85655000D01*
X165900000Y-85655000D01*
X165900000Y-83755000D01*
%TO.C,D41*%
X151900000Y-97705000D02*
X149475000Y-97705000D01*
X149475000Y-99605000D01*
X151900000Y-99605000D01*
X151900000Y-97705000D01*
%TO.C,D16*%
X137950000Y-90705000D02*
X135525000Y-90705000D01*
X135525000Y-92605000D01*
X137950000Y-92605000D01*
X137950000Y-90705000D01*
%TO.C,D31*%
X172900000Y-83755000D02*
X170475000Y-83755000D01*
X170475000Y-85655000D01*
X172900000Y-85655000D01*
X172900000Y-83755000D01*
%TO.C,D9*%
X172900000Y-76705000D02*
X170475000Y-76705000D01*
X170475000Y-78605000D01*
X172900000Y-78605000D01*
X172900000Y-76705000D01*
%TO.C,D34*%
X123900000Y-104705000D02*
X121475000Y-104705000D01*
X121475000Y-106605000D01*
X123900000Y-106605000D01*
X123900000Y-104705000D01*
%TO.C,D57*%
X151862500Y-111705000D02*
X149437500Y-111705000D01*
X149437500Y-113605000D01*
X151862500Y-113605000D01*
X151862500Y-111705000D01*
%TO.C,D59*%
X158762500Y-111705000D02*
X156337500Y-111705000D01*
X156337500Y-113605000D01*
X158762500Y-113605000D01*
X158762500Y-111705000D01*
%TO.C,D45*%
X165900000Y-97705000D02*
X163475000Y-97705000D01*
X163475000Y-99605000D01*
X165900000Y-99605000D01*
X165900000Y-97705000D01*
%TO.C,D39*%
X144900000Y-97705000D02*
X142475000Y-97705000D01*
X142475000Y-99605000D01*
X144900000Y-99605000D01*
X144900000Y-97705000D01*
%TO.C,D52*%
X130900000Y-118705000D02*
X128475000Y-118705000D01*
X128475000Y-120605000D01*
X130900000Y-120605000D01*
X130900000Y-118705000D01*
%TO.C,D50*%
X123900000Y-118705000D02*
X121475000Y-118705000D01*
X121475000Y-120605000D01*
X123900000Y-120605000D01*
X123900000Y-118705000D01*
%TO.C,D27*%
X158862500Y-83755000D02*
X156437500Y-83755000D01*
X156437500Y-85655000D01*
X158862500Y-85655000D01*
X158862500Y-83755000D01*
%TO.C,R3*%
D13*
X160187400Y-67748600D02*
X158612600Y-67748600D01*
X158612600Y-68561400D01*
X160187400Y-68561400D01*
X160187400Y-67748600D01*
%TO.C,R1*%
X153274900Y-67748600D02*
X151700100Y-67748600D01*
X151700100Y-68561400D01*
X153274900Y-68561400D01*
X153274900Y-67748600D01*
%TO.C,R55*%
X146124900Y-109798600D02*
X144550100Y-109798600D01*
X144550100Y-110611400D01*
X146124900Y-110611400D01*
X146124900Y-109798600D01*
%TO.C,R58*%
X153224900Y-116798600D02*
X151650100Y-116798600D01*
X151650100Y-117611400D01*
X153224900Y-117611400D01*
X153224900Y-116798600D01*
%TO.C,R5*%
X167274900Y-67748600D02*
X165700100Y-67748600D01*
X165700100Y-68561400D01*
X167274900Y-68561400D01*
X167274900Y-67748600D01*
%TO.C,R43*%
X160174900Y-95798600D02*
X158600100Y-95798600D01*
X158600100Y-96611400D01*
X160174900Y-96611400D01*
X160174900Y-95798600D01*
%TO.C,R48*%
X170412600Y-103611400D02*
X171987400Y-103611400D01*
X171987400Y-102798600D01*
X170412600Y-102798600D01*
X170412600Y-103611400D01*
%TO.C,C4*%
X129512500Y-123230000D02*
X131112500Y-123230000D01*
X129512500Y-124030000D02*
X129512500Y-123230000D01*
X131112500Y-123230000D02*
X131112500Y-124030000D01*
X131112500Y-124030000D02*
X129512500Y-124030000D01*
%TO.C,R24*%
X146112400Y-88798600D02*
X144537600Y-88798600D01*
X144537600Y-89611400D01*
X146112400Y-89611400D01*
X146112400Y-88798600D01*
%TO.C,R16*%
X139174900Y-88798600D02*
X137600100Y-88798600D01*
X137600100Y-89611400D01*
X139174900Y-89611400D01*
X139174900Y-88798600D01*
%TO.C,R21*%
X139187400Y-67723600D02*
X137612600Y-67723600D01*
X137612600Y-68536400D01*
X139187400Y-68536400D01*
X139187400Y-67723600D01*
%TO.C,R57*%
X153224900Y-109798600D02*
X151650100Y-109798600D01*
X151650100Y-110611400D01*
X153224900Y-110611400D01*
X153224900Y-109798600D01*
%TO.C,R7*%
X125187400Y-74723600D02*
X123612600Y-74723600D01*
X123612600Y-75536400D01*
X125187400Y-75536400D01*
X125187400Y-74723600D01*
%TO.C,R8*%
X170412600Y-68586400D02*
X171987400Y-68586400D01*
X171987400Y-67773600D01*
X170412600Y-67773600D01*
X170412600Y-68586400D01*
%TO.C,R52*%
X132124900Y-116798600D02*
X130550100Y-116798600D01*
X130550100Y-117611400D01*
X132124900Y-117611400D01*
X132124900Y-116798600D01*
%TO.C,R23*%
X146124900Y-81798600D02*
X144550100Y-81798600D01*
X144550100Y-82611400D01*
X146124900Y-82611400D01*
X146124900Y-81798600D01*
%TO.C,R17*%
X146187400Y-74723600D02*
X144612600Y-74723600D01*
X144612600Y-75536400D01*
X146187400Y-75536400D01*
X146187400Y-74723600D01*
%TO.C,R20*%
X132187400Y-74723600D02*
X130612600Y-74723600D01*
X130612600Y-75536400D01*
X132187400Y-75536400D01*
X132187400Y-74723600D01*
%TO.C,R38*%
X139174900Y-102798600D02*
X137600100Y-102798600D01*
X137600100Y-103611400D01*
X139174900Y-103611400D01*
X139174900Y-102798600D01*
%TO.C,R22*%
X146187400Y-67773600D02*
X144612600Y-67773600D01*
X144612600Y-68586400D01*
X146187400Y-68586400D01*
X146187400Y-67773600D01*
%TO.C,R46*%
X167274900Y-102798600D02*
X165700100Y-102798600D01*
X165700100Y-103611400D01*
X167274900Y-103611400D01*
X167274900Y-102798600D01*
%TO.C,C7*%
X153850000Y-123230000D02*
X155450000Y-123230000D01*
X153850000Y-124030000D02*
X153850000Y-123230000D01*
X155450000Y-123230000D02*
X155450000Y-124030000D01*
X155450000Y-124030000D02*
X153850000Y-124030000D01*
%TO.C,R39*%
X146124900Y-95798600D02*
X144550100Y-95798600D01*
X144550100Y-96611400D01*
X146124900Y-96611400D01*
X146124900Y-95798600D01*
%TO.C,R34*%
X125174900Y-102798600D02*
X123600100Y-102798600D01*
X123600100Y-103611400D01*
X125174900Y-103611400D01*
X125174900Y-102798600D01*
%TO.C,R56*%
X146124900Y-116798600D02*
X144550100Y-116798600D01*
X144550100Y-117611400D01*
X146124900Y-117611400D01*
X146124900Y-116798600D01*
%TO.C,R26*%
X153224900Y-88798600D02*
X151650100Y-88798600D01*
X151650100Y-89611400D01*
X153224900Y-89611400D01*
X153224900Y-88798600D01*
%TO.C,R41*%
X153224900Y-95798600D02*
X151650100Y-95798600D01*
X151650100Y-96611400D01*
X153224900Y-96611400D01*
X153224900Y-95798600D01*
%TO.C,R30*%
X167274900Y-88798600D02*
X165700100Y-88798600D01*
X165700100Y-89611400D01*
X167274900Y-89611400D01*
X167274900Y-88798600D01*
%TO.C,R19*%
X132187400Y-67723600D02*
X130612600Y-67723600D01*
X130612600Y-68536400D01*
X132187400Y-68536400D01*
X132187400Y-67723600D01*
%TO.C,R47*%
X170412600Y-96611400D02*
X171987400Y-96611400D01*
X171987400Y-95798600D01*
X170412600Y-95798600D01*
X170412600Y-96611400D01*
%TO.C,R44*%
X160174900Y-102798600D02*
X158600100Y-102798600D01*
X158600100Y-103611400D01*
X160174900Y-103611400D01*
X160174900Y-102798600D01*
%TO.C,C6*%
X162637500Y-123230000D02*
X164237500Y-123230000D01*
X162637500Y-124030000D02*
X162637500Y-123230000D01*
X164237500Y-123230000D02*
X164237500Y-124030000D01*
X164237500Y-124030000D02*
X162637500Y-124030000D01*
%TO.C,R62*%
X167274900Y-116798600D02*
X165700100Y-116798600D01*
X165700100Y-117611400D01*
X167274900Y-117611400D01*
X167274900Y-116798600D01*
%TO.C,R12*%
X132174900Y-81798600D02*
X130600100Y-81798600D01*
X130600100Y-82611400D01*
X132174900Y-82611400D01*
X132174900Y-81798600D01*
%TO.C,R45*%
X167274900Y-95798600D02*
X165700100Y-95798600D01*
X165700100Y-96611400D01*
X167274900Y-96611400D01*
X167274900Y-95798600D01*
%TO.C,R2*%
X153274900Y-74748600D02*
X151700100Y-74748600D01*
X151700100Y-75561400D01*
X153274900Y-75561400D01*
X153274900Y-74748600D01*
%TO.C,R63*%
X170412600Y-110611400D02*
X171987400Y-110611400D01*
X171987400Y-109798600D01*
X170412600Y-109798600D01*
X170412600Y-110611400D01*
%TO.C,R15*%
X139187400Y-74723600D02*
X137612600Y-74723600D01*
X137612600Y-75536400D01*
X139187400Y-75536400D01*
X139187400Y-74723600D01*
%TO.C,R33*%
X125174900Y-95798600D02*
X123600100Y-95798600D01*
X123600100Y-96611400D01*
X125174900Y-96611400D01*
X125174900Y-95798600D01*
%TO.C,R28*%
X160174900Y-88798600D02*
X158600100Y-88798600D01*
X158600100Y-89611400D01*
X160174900Y-89611400D01*
X160174900Y-88798600D01*
%TO.C,R11*%
X125174900Y-88798600D02*
X123600100Y-88798600D01*
X123600100Y-89611400D01*
X125174900Y-89611400D01*
X125174900Y-88798600D01*
%TO.C,C5*%
X138262500Y-123230000D02*
X139862500Y-123230000D01*
X138262500Y-124030000D02*
X138262500Y-123230000D01*
X139862500Y-123230000D02*
X139862500Y-124030000D01*
X139862500Y-124030000D02*
X138262500Y-124030000D01*
%TO.C,R10*%
X125174900Y-81798600D02*
X123600100Y-81798600D01*
X123600100Y-82611400D01*
X125174900Y-82611400D01*
X125174900Y-81798600D01*
%TO.C,R60*%
X160174900Y-116798600D02*
X158600100Y-116798600D01*
X158600100Y-117611400D01*
X160174900Y-117611400D01*
X160174900Y-116798600D01*
%TO.C,R9*%
X170412600Y-75561400D02*
X171987400Y-75561400D01*
X171987400Y-74748600D01*
X170412600Y-74748600D01*
X170412600Y-75561400D01*
%TO.C,R59*%
X160174900Y-109798600D02*
X158600100Y-109798600D01*
X158600100Y-110611400D01*
X160174900Y-110611400D01*
X160174900Y-109798600D01*
%TO.C,R32*%
X170412600Y-89611400D02*
X171987400Y-89611400D01*
X171987400Y-88798600D01*
X170412600Y-88798600D01*
X170412600Y-89611400D01*
%TO.C,R36*%
X132174900Y-102798600D02*
X130600100Y-102798600D01*
X130600100Y-103611400D01*
X132174900Y-103611400D01*
X132174900Y-102798600D01*
%TO.C,R64*%
X170412600Y-117611400D02*
X171987400Y-117611400D01*
X171987400Y-116798600D01*
X170412600Y-116798600D01*
X170412600Y-117611400D01*
%TO.C,R51*%
X132124900Y-109798600D02*
X130550100Y-109798600D01*
X130550100Y-110611400D01*
X132124900Y-110611400D01*
X132124900Y-109798600D01*
%TO.C,R4*%
X160162400Y-74748600D02*
X158587600Y-74748600D01*
X158587600Y-75561400D01*
X160162400Y-75561400D01*
X160162400Y-74748600D01*
%TO.C,R27*%
X160174900Y-81798600D02*
X158600100Y-81798600D01*
X158600100Y-82611400D01*
X160174900Y-82611400D01*
X160174900Y-81798600D01*
%TO.C,R31*%
X170412600Y-82611400D02*
X171987400Y-82611400D01*
X171987400Y-81798600D01*
X170412600Y-81798600D01*
X170412600Y-82611400D01*
%TO.C,R25*%
X153274900Y-81798600D02*
X151700100Y-81798600D01*
X151700100Y-82611400D01*
X153274900Y-82611400D01*
X153274900Y-81798600D01*
%TO.C,R40*%
X146124900Y-102798600D02*
X144550100Y-102798600D01*
X144550100Y-103611400D01*
X146124900Y-103611400D01*
X146124900Y-102798600D01*
%TO.C,R6*%
X167274900Y-74748600D02*
X165700100Y-74748600D01*
X165700100Y-75561400D01*
X167274900Y-75561400D01*
X167274900Y-74748600D01*
%TO.C,R53*%
X139174900Y-109798600D02*
X137600100Y-109798600D01*
X137600100Y-110611400D01*
X139174900Y-110611400D01*
X139174900Y-109798600D01*
%TO.C,R13*%
X132174900Y-88798600D02*
X130600100Y-88798600D01*
X130600100Y-89611400D01*
X132174900Y-89611400D01*
X132174900Y-88798600D01*
%TO.C,R42*%
X153224900Y-102798600D02*
X151650100Y-102798600D01*
X151650100Y-103611400D01*
X153224900Y-103611400D01*
X153224900Y-102798600D01*
%TO.C,R14*%
X139162400Y-81798600D02*
X137587600Y-81798600D01*
X137587600Y-82611400D01*
X139162400Y-82611400D01*
X139162400Y-81798600D01*
%TO.C,R37*%
X139174900Y-95798600D02*
X137600100Y-95798600D01*
X137600100Y-96611400D01*
X139174900Y-96611400D01*
X139174900Y-95798600D01*
%TO.C,R54*%
X139174900Y-116798600D02*
X137600100Y-116798600D01*
X137600100Y-117611400D01*
X139174900Y-117611400D01*
X139174900Y-116798600D01*
%TO.C,R29*%
X167274900Y-81798600D02*
X165700100Y-81798600D01*
X165700100Y-82611400D01*
X167274900Y-82611400D01*
X167274900Y-81798600D01*
%TO.C,R49*%
X125174900Y-109798600D02*
X123600100Y-109798600D01*
X123600100Y-110611400D01*
X125174900Y-110611400D01*
X125174900Y-109798600D01*
%TO.C,R61*%
X167274900Y-109798600D02*
X165700100Y-109798600D01*
X165700100Y-110611400D01*
X167274900Y-110611400D01*
X167274900Y-109798600D01*
%TO.C,R50*%
X125174900Y-116798600D02*
X123600100Y-116798600D01*
X123600100Y-117611400D01*
X125174900Y-117611400D01*
X125174900Y-116798600D01*
%TO.C,R35*%
X132174900Y-95798600D02*
X130600100Y-95798600D01*
X130600100Y-96611400D01*
X132174900Y-96611400D01*
X132174900Y-95798600D01*
%TO.C,R18*%
X125187400Y-67723600D02*
X123612600Y-67723600D01*
X123612600Y-68536400D01*
X125187400Y-68536400D01*
X125187400Y-67723600D01*
%TD*%
M02*
