%TF.GenerationSoftware,KiCad,Pcbnew,8.0.5*%
%TF.CreationDate,2025-09-21T17:17:36-10:00*%
%TF.ProjectId,SiPMT.revA,5369504d-542e-4726-9576-412e6b696361,rev?*%
%TF.SameCoordinates,Original*%
%TF.FileFunction,Other,User*%
%FSLAX46Y46*%
G04 Gerber Fmt 4.6, Leading zero omitted, Abs format (unit mm)*
G04 Created by KiCad (PCBNEW 8.0.5) date 2025-09-21 17:17:36*
%MOMM*%
%LPD*%
G01*
G04 APERTURE LIST*
%ADD10C,0.050000*%
G04 APERTURE END LIST*
D10*
%TO.C,H10*%
X167057392Y-126630000D02*
G75*
G02*
X163642608Y-126630000I-1707392J0D01*
G01*
X163642608Y-126630000D02*
G75*
G02*
X167057392Y-126630000I1707392J0D01*
G01*
%TO.C,H9*%
X138744892Y-126655000D02*
G75*
G02*
X135330108Y-126655000I-1707392J0D01*
G01*
X135330108Y-126655000D02*
G75*
G02*
X138744892Y-126655000I1707392J0D01*
G01*
%TO.C,H1*%
X125637500Y-63775000D02*
G75*
G02*
X120137500Y-63775000I-2750000J0D01*
G01*
X120137500Y-63775000D02*
G75*
G02*
X125637500Y-63775000I2750000J0D01*
G01*
%TO.C,Q3*%
X134307392Y-126680000D02*
G75*
G02*
X130892608Y-126680000I-1707392J0D01*
G01*
X130892608Y-126680000D02*
G75*
G02*
X134307392Y-126680000I1707392J0D01*
G01*
%TO.C,H7*%
X158457392Y-126630000D02*
G75*
G02*
X155042608Y-126630000I-1707392J0D01*
G01*
X155042608Y-126630000D02*
G75*
G02*
X158457392Y-126630000I1707392J0D01*
G01*
%TO.C,Q4*%
X162707392Y-126655000D02*
G75*
G02*
X159292608Y-126655000I-1707392J0D01*
G01*
X159292608Y-126655000D02*
G75*
G02*
X162707392Y-126655000I1707392J0D01*
G01*
%TO.C,H6*%
X173587500Y-126475000D02*
G75*
G02*
X168087500Y-126475000I-2750000J0D01*
G01*
X168087500Y-126475000D02*
G75*
G02*
X173587500Y-126475000I2750000J0D01*
G01*
%TO.C,Q2*%
X143057392Y-126680000D02*
G75*
G02*
X139642608Y-126680000I-1707392J0D01*
G01*
X139642608Y-126680000D02*
G75*
G02*
X143057392Y-126680000I1707392J0D01*
G01*
%TO.C,Q1*%
X154207392Y-126655000D02*
G75*
G02*
X150792608Y-126655000I-1707392J0D01*
G01*
X150792608Y-126655000D02*
G75*
G02*
X154207392Y-126655000I1707392J0D01*
G01*
%TO.C,H3*%
X173637500Y-63775000D02*
G75*
G02*
X168137500Y-63775000I-2750000J0D01*
G01*
X168137500Y-63775000D02*
G75*
G02*
X173637500Y-63775000I2750000J0D01*
G01*
%TO.C,H5*%
X149637500Y-126475000D02*
G75*
G02*
X144137500Y-126475000I-2750000J0D01*
G01*
X144137500Y-126475000D02*
G75*
G02*
X149637500Y-126475000I2750000J0D01*
G01*
%TO.C,H2*%
X149637500Y-63775000D02*
G75*
G02*
X144137500Y-63775000I-2750000J0D01*
G01*
X144137500Y-63775000D02*
G75*
G02*
X149637500Y-63775000I2750000J0D01*
G01*
%TO.C,H8*%
X129850540Y-126655000D02*
G75*
G02*
X126435756Y-126655000I-1707392J0D01*
G01*
X126435756Y-126655000D02*
G75*
G02*
X129850540Y-126655000I1707392J0D01*
G01*
%TO.C,H4*%
X125637500Y-126475000D02*
G75*
G02*
X120137500Y-126475000I-2750000J0D01*
G01*
X120137500Y-126475000D02*
G75*
G02*
X125637500Y-126475000I2750000J0D01*
G01*
%TD*%
M02*
