%TF.GenerationSoftware,KiCad,Pcbnew,8.0.5*%
%TF.CreationDate,2025-09-21T17:17:35-10:00*%
%TF.ProjectId,SiPMT.revA,5369504d-542e-4726-9576-412e6b696361,rev?*%
%TF.SameCoordinates,Original*%
%TF.FileFunction,Copper,L2,Inr*%
%TF.FilePolarity,Positive*%
%FSLAX46Y46*%
G04 Gerber Fmt 4.6, Leading zero omitted, Abs format (unit mm)*
G04 Created by KiCad (PCBNEW 8.0.5) date 2025-09-21 17:17:35*
%MOMM*%
%LPD*%
G01*
G04 APERTURE LIST*
%TA.AperFunction,ComponentPad*%
%ADD10C,3.000000*%
%TD*%
%TA.AperFunction,ComponentPad*%
%ADD11C,5.000000*%
%TD*%
%TA.AperFunction,ViaPad*%
%ADD12C,0.800000*%
%TD*%
G04 APERTURE END LIST*
D10*
%TO.N,GND*%
%TO.C,H10*%
X165350000Y-126630000D03*
%TD*%
%TO.N,GND*%
%TO.C,H9*%
X137037500Y-126655000D03*
%TD*%
D11*
%TO.N,GND*%
%TO.C,H1*%
X122887500Y-63775000D03*
%TD*%
D10*
%TO.N,+BATT 3*%
%TO.C,Q3*%
X132600000Y-126680000D03*
%TD*%
%TO.N,GND*%
%TO.C,H7*%
X156750000Y-126630000D03*
%TD*%
%TO.N,+BATT 4*%
%TO.C,Q4*%
X161000000Y-126655000D03*
%TD*%
D11*
%TO.N,GND*%
%TO.C,H6*%
X170837500Y-126475000D03*
%TD*%
D10*
%TO.N,+BATT 2*%
%TO.C,Q2*%
X141350000Y-126680000D03*
%TD*%
%TO.N,+BATT 1*%
%TO.C,Q1*%
X152500000Y-126655000D03*
%TD*%
D11*
%TO.N,GND*%
%TO.C,H3*%
X170887500Y-63775000D03*
%TD*%
%TO.N,GND*%
%TO.C,H5*%
X146887500Y-126475000D03*
%TD*%
%TO.N,GND*%
%TO.C,H2*%
X146887500Y-63775000D03*
%TD*%
D10*
%TO.N,GND*%
%TO.C,H8*%
X128143148Y-126655000D03*
%TD*%
D11*
%TO.N,GND*%
%TO.C,H4*%
X122887500Y-126475000D03*
%TD*%
D12*
%TO.N,GND*%
X133150000Y-70830000D03*
X126050000Y-91930000D03*
X168200000Y-85180000D03*
X126200000Y-84630000D03*
X126200000Y-119680000D03*
X146600000Y-77830000D03*
X167250000Y-77380000D03*
X126100000Y-97980000D03*
X126050000Y-70780000D03*
X173750000Y-73080000D03*
X154100000Y-70830000D03*
X164350000Y-116030000D03*
X168150000Y-70830000D03*
X146400000Y-119680000D03*
X161250000Y-119680000D03*
X160950000Y-70830000D03*
X153550000Y-76980000D03*
X160350000Y-77130000D03*
X168150000Y-98280000D03*
X147000000Y-70830000D03*
X154050000Y-119680000D03*
X126350000Y-106230000D03*
X132400000Y-77930000D03*
X168000000Y-91580000D03*
X156950000Y-116130000D03*
X126100000Y-113480000D03*
X140800000Y-83430000D03*
X139450000Y-77630000D03*
X167900000Y-119680000D03*
X137600000Y-87780000D03*
X140600000Y-119680000D03*
X140100000Y-70830000D03*
X168150000Y-108280000D03*
X125850000Y-77580000D03*
%TO.N,/AE0_CH7*%
X126300000Y-111680000D03*
%TO.N,/AO0_CH0*%
X132450000Y-114180000D03*
%TO.N,/AE0_CH6*%
X134300000Y-110480000D03*
%TO.N,/AO0_CH1*%
X132300000Y-119880000D03*
%TO.N,/AO0_CH2*%
X140750000Y-114180000D03*
%TO.N,/AE0_CH5*%
X141250000Y-110730000D03*
%TO.N,/AO0_CH3*%
X141900000Y-114680000D03*
%TO.N,/AE0_CH4*%
X141550000Y-112330000D03*
%TO.N,/AE0_CH3*%
X148600000Y-111980000D03*
%TO.N,/AO0_CH4*%
X149100000Y-114930000D03*
%TO.N,/AE0_CH2*%
X155750000Y-110730000D03*
%TO.N,/AO0_CH5*%
X155050000Y-114430000D03*
%TO.N,/AO0_CH6*%
X159750000Y-114780000D03*
%TO.N,/AE0_CH1*%
X162850000Y-110780000D03*
%TO.N,/AO0_CH7*%
X167800000Y-121330000D03*
%TO.N,/AE0_CH0*%
X167900000Y-112680000D03*
%TO.N,/AE1_CH7*%
X129750000Y-101130000D03*
%TO.N,/AO1_CH0*%
X130850000Y-101930000D03*
%TO.N,/AE1_CH6*%
X132450000Y-99580000D03*
%TO.N,/AO1_CH1*%
X134200000Y-104030000D03*
%TO.N,/AO1_CH2*%
X139800000Y-105180000D03*
%TO.N,/AE1_CH5*%
X139750000Y-99580000D03*
%TO.N,/AO1_CH3*%
X141350000Y-103880000D03*
%TO.N,/AE1_CH4*%
X145100000Y-101430000D03*
%TO.N,/AE1_CH3*%
X150350000Y-101180000D03*
%TO.N,/AO1_CH4*%
X148750000Y-103530000D03*
%TO.N,/AE1_CH2*%
X154250000Y-99480000D03*
%TO.N,/AO1_CH5*%
X154100000Y-105480000D03*
%TO.N,/AO1_CH6*%
X159850000Y-104680000D03*
%TO.N,/AE1_CH1*%
X161350000Y-99580000D03*
%TO.N,/AO1_CH7*%
X167150000Y-105430000D03*
%TO.N,/AE1_CH0*%
X167900000Y-99730000D03*
%TO.N,/AE2_CH7*%
X123050000Y-87380000D03*
%TO.N,/AO2_CH0*%
X129050000Y-96080000D03*
%TO.N,/AE2_CH6*%
X134200000Y-88230000D03*
%TO.N,/AO2_CH1*%
X134300000Y-93630000D03*
%TO.N,/AO2_CH2*%
X137950000Y-94230000D03*
%TO.N,/AE2_CH5*%
X141300000Y-88330000D03*
%TO.N,/AO2_CH3*%
X141400000Y-93830000D03*
%TO.N,/AE2_CH4*%
X145250000Y-88030000D03*
%TO.N,/AE2_CH3*%
X149500000Y-88280000D03*
%TO.N,/AO2_CH4*%
X148650000Y-93930000D03*
%TO.N,/AE2_CH2*%
X154750000Y-88480000D03*
%TO.N,/AO2_CH5*%
X155900000Y-94180000D03*
%TO.N,/AO2_CH6*%
X159500000Y-93980000D03*
%TO.N,/AE2_CH1*%
X161900000Y-88430000D03*
%TO.N,/AO2_CH7*%
X163150000Y-94330000D03*
%TO.N,/AE2_CH0*%
X164100000Y-88280000D03*
%TO.N,/AE3_CH7*%
X128200000Y-80330000D03*
%TO.N,/AO3_CH0*%
X125400000Y-80380000D03*
%TO.N,/AE3_CH6*%
X133725000Y-76930000D03*
%TO.N,/AO3_CH1*%
X132400000Y-80330000D03*
%TO.N,/AO3_CH2*%
X136100000Y-81480000D03*
%TO.N,/AE3_CH5*%
X136000000Y-74230000D03*
%TO.N,/AO3_CH3*%
X143300000Y-81280000D03*
%TO.N,/AE3_CH4*%
X140750000Y-79030000D03*
%TO.N,/AE3_CH3*%
X148400000Y-79280000D03*
%TO.N,/AO3_CH4*%
X150500000Y-79930000D03*
%TO.N,/AE3_CH2*%
X153900000Y-79230000D03*
%TO.N,/AO3_CH5*%
X154150000Y-80780000D03*
%TO.N,/AO3_CH6*%
X161350000Y-81180000D03*
%TO.N,/AE3_CH1*%
X160350000Y-79230000D03*
%TO.N,/AO3_CH7*%
X165500000Y-81080000D03*
%TO.N,/AE3_CH0*%
X171650000Y-73730000D03*
%TO.N,+BATT 4*%
X168900000Y-117230000D03*
X159400000Y-101830000D03*
X154800000Y-96180000D03*
X160850000Y-123630000D03*
X168900000Y-96230000D03*
X160300000Y-115880000D03*
X168900000Y-103230000D03*
X154100000Y-109180000D03*
X152450000Y-101830000D03*
X153350000Y-115880000D03*
X161321403Y-109208597D03*
X161800000Y-96180000D03*
X168900000Y-110180000D03*
%TO.N,+BATT 3*%
X125950000Y-109180000D03*
X140650000Y-96180000D03*
X138347230Y-101788168D03*
X133052752Y-101303092D03*
X132250000Y-115880000D03*
X146675000Y-101300001D03*
X146250000Y-97530000D03*
X133700000Y-96180000D03*
X146250000Y-115880000D03*
X132600000Y-123630000D03*
X132750000Y-109180000D03*
X125300000Y-115880000D03*
X126587347Y-96192653D03*
X124400000Y-101830000D03*
X139750000Y-109180000D03*
X139300000Y-115880000D03*
X146675000Y-109180000D03*
%TO.N,+BATT 1*%
X152300000Y-123630000D03*
X168900000Y-75130000D03*
X160300000Y-87980000D03*
X161600000Y-83280000D03*
X168900000Y-68180000D03*
X168900000Y-89180000D03*
X168900000Y-82130000D03*
X154700000Y-68130000D03*
X161650000Y-68130000D03*
X160300000Y-73880000D03*
X152900000Y-83280000D03*
X153350000Y-87980000D03*
X153400000Y-73880000D03*
%TO.N,+BATT 2*%
X126600000Y-82130000D03*
X141250000Y-123630000D03*
X146300000Y-73880000D03*
X140650000Y-68130000D03*
X139250000Y-87980000D03*
X146350000Y-69530000D03*
X126600000Y-68130000D03*
X125300000Y-87980000D03*
X132373692Y-83278998D03*
X146650000Y-83280000D03*
X146248621Y-87977441D03*
X133600000Y-68080000D03*
X126250000Y-76330000D03*
X132300000Y-87980000D03*
X139700000Y-80880000D03*
X139300000Y-73880000D03*
X132350000Y-73880000D03*
%TD*%
%TA.AperFunction,Conductor*%
%TO.N,GND*%
G36*
X122298700Y-60580008D02*
G01*
X122365738Y-60599695D01*
X122411491Y-60652500D01*
X122421432Y-60721659D01*
X122392405Y-60785214D01*
X122333626Y-60822986D01*
X122327292Y-60824666D01*
X122025629Y-60896161D01*
X121697245Y-61015683D01*
X121697239Y-61015685D01*
X121384961Y-61172519D01*
X121092980Y-61364557D01*
X120950319Y-61484264D01*
X120950318Y-61484265D01*
X122197374Y-62731320D01*
X122073180Y-62821554D01*
X121934054Y-62960680D01*
X121843820Y-63084873D01*
X120593648Y-61834701D01*
X120593647Y-61834702D01*
X120585476Y-61843363D01*
X120585472Y-61843368D01*
X120376789Y-62123677D01*
X120202061Y-62426316D01*
X120202055Y-62426329D01*
X120063645Y-62747199D01*
X119963416Y-63081988D01*
X119963414Y-63081997D01*
X119902736Y-63426119D01*
X119902735Y-63426130D01*
X119882416Y-63774996D01*
X119882416Y-63775003D01*
X119902735Y-64123869D01*
X119902736Y-64123880D01*
X119963414Y-64468002D01*
X119963416Y-64468011D01*
X120063645Y-64802800D01*
X120202055Y-65123670D01*
X120202061Y-65123683D01*
X120376789Y-65426322D01*
X120585467Y-65706625D01*
X120593648Y-65715296D01*
X121843819Y-64465124D01*
X121934054Y-64589320D01*
X122073180Y-64728446D01*
X122197373Y-64818678D01*
X120950318Y-66065733D01*
X120950319Y-66065734D01*
X121092984Y-66185445D01*
X121384961Y-66377480D01*
X121697239Y-66534314D01*
X121697245Y-66534316D01*
X122025630Y-66653838D01*
X122025633Y-66653839D01*
X122365671Y-66734429D01*
X122712776Y-66774999D01*
X122712777Y-66775000D01*
X123062223Y-66775000D01*
X123062223Y-66774999D01*
X123409327Y-66734429D01*
X123409329Y-66734429D01*
X123749366Y-66653839D01*
X123749369Y-66653838D01*
X124077754Y-66534316D01*
X124077760Y-66534314D01*
X124390038Y-66377480D01*
X124682009Y-66185449D01*
X124682010Y-66185448D01*
X124824679Y-66065734D01*
X124824680Y-66065733D01*
X123577626Y-64818678D01*
X123701820Y-64728446D01*
X123840946Y-64589320D01*
X123931178Y-64465126D01*
X125181349Y-65715297D01*
X125181351Y-65715296D01*
X125189522Y-65706636D01*
X125189533Y-65706623D01*
X125398210Y-65426322D01*
X125572938Y-65123683D01*
X125572944Y-65123670D01*
X125711354Y-64802800D01*
X125811583Y-64468011D01*
X125811585Y-64468002D01*
X125872263Y-64123880D01*
X125872264Y-64123869D01*
X125892584Y-63775003D01*
X125892584Y-63774996D01*
X125872264Y-63426130D01*
X125872263Y-63426119D01*
X125811585Y-63081997D01*
X125811583Y-63081988D01*
X125711354Y-62747199D01*
X125572944Y-62426329D01*
X125572938Y-62426316D01*
X125398210Y-62123677D01*
X125189532Y-61843374D01*
X125181350Y-61834702D01*
X123931178Y-63084873D01*
X123840946Y-62960680D01*
X123701820Y-62821554D01*
X123577625Y-62731320D01*
X124824680Y-61484265D01*
X124824679Y-61484264D01*
X124682019Y-61364557D01*
X124390038Y-61172519D01*
X124077760Y-61015685D01*
X124077754Y-61015683D01*
X123749369Y-60896161D01*
X123749366Y-60896160D01*
X123447877Y-60824706D01*
X123387184Y-60790091D01*
X123354840Y-60728159D01*
X123361113Y-60658571D01*
X123404013Y-60603422D01*
X123469918Y-60580221D01*
X123476454Y-60580048D01*
X146295253Y-60580825D01*
X146362289Y-60600512D01*
X146408042Y-60653317D01*
X146417983Y-60722476D01*
X146388956Y-60786031D01*
X146330177Y-60823803D01*
X146323843Y-60825482D01*
X146025645Y-60896156D01*
X146025630Y-60896161D01*
X145697245Y-61015683D01*
X145697239Y-61015685D01*
X145384961Y-61172519D01*
X145092980Y-61364557D01*
X144950319Y-61484264D01*
X144950318Y-61484265D01*
X146197374Y-62731320D01*
X146073180Y-62821554D01*
X145934054Y-62960680D01*
X145843820Y-63084873D01*
X144593648Y-61834701D01*
X144593647Y-61834702D01*
X144585476Y-61843363D01*
X144585472Y-61843368D01*
X144376789Y-62123677D01*
X144202061Y-62426316D01*
X144202055Y-62426329D01*
X144063645Y-62747199D01*
X143963416Y-63081988D01*
X143963414Y-63081997D01*
X143902736Y-63426119D01*
X143902735Y-63426130D01*
X143882416Y-63774996D01*
X143882416Y-63775003D01*
X143902735Y-64123869D01*
X143902736Y-64123880D01*
X143963414Y-64468002D01*
X143963416Y-64468011D01*
X144063645Y-64802800D01*
X144202055Y-65123670D01*
X144202061Y-65123683D01*
X144376789Y-65426322D01*
X144585467Y-65706625D01*
X144593648Y-65715296D01*
X145843819Y-64465124D01*
X145934054Y-64589320D01*
X146073180Y-64728446D01*
X146197373Y-64818678D01*
X144950318Y-66065733D01*
X144950319Y-66065734D01*
X145092984Y-66185445D01*
X145384961Y-66377480D01*
X145697239Y-66534314D01*
X145697245Y-66534316D01*
X146025630Y-66653838D01*
X146025633Y-66653839D01*
X146365671Y-66734429D01*
X146712776Y-66774999D01*
X146712777Y-66775000D01*
X147062223Y-66775000D01*
X147062223Y-66774999D01*
X147409327Y-66734429D01*
X147409329Y-66734429D01*
X147749366Y-66653839D01*
X147749369Y-66653838D01*
X148077754Y-66534316D01*
X148077760Y-66534314D01*
X148390038Y-66377480D01*
X148682009Y-66185449D01*
X148682010Y-66185448D01*
X148824679Y-66065734D01*
X148824680Y-66065733D01*
X147577626Y-64818678D01*
X147701820Y-64728446D01*
X147840946Y-64589320D01*
X147931178Y-64465126D01*
X149181349Y-65715297D01*
X149181351Y-65715296D01*
X149189522Y-65706636D01*
X149189533Y-65706623D01*
X149398210Y-65426322D01*
X149572938Y-65123683D01*
X149572944Y-65123670D01*
X149711354Y-64802800D01*
X149811583Y-64468011D01*
X149811585Y-64468002D01*
X149872263Y-64123880D01*
X149872264Y-64123869D01*
X149892584Y-63775003D01*
X149892584Y-63774996D01*
X149872264Y-63426130D01*
X149872263Y-63426119D01*
X149811585Y-63081997D01*
X149811583Y-63081988D01*
X149711354Y-62747199D01*
X149572944Y-62426329D01*
X149572938Y-62426316D01*
X149398210Y-62123677D01*
X149189532Y-61843374D01*
X149181350Y-61834702D01*
X147931178Y-63084873D01*
X147840946Y-62960680D01*
X147701820Y-62821554D01*
X147577625Y-62731320D01*
X148824680Y-61484265D01*
X148824679Y-61484264D01*
X148682019Y-61364557D01*
X148390038Y-61172519D01*
X148077760Y-61015685D01*
X148077754Y-61015683D01*
X147749369Y-60896161D01*
X147749366Y-60896160D01*
X147451327Y-60825524D01*
X147390634Y-60790909D01*
X147358290Y-60728977D01*
X147364563Y-60659389D01*
X147407463Y-60604240D01*
X147473368Y-60581039D01*
X147479917Y-60580866D01*
X170291802Y-60581643D01*
X170358840Y-60601330D01*
X170404593Y-60654135D01*
X170414534Y-60723294D01*
X170385507Y-60786849D01*
X170326728Y-60824621D01*
X170320393Y-60826301D01*
X170025633Y-60896160D01*
X170025630Y-60896161D01*
X169697245Y-61015683D01*
X169697239Y-61015685D01*
X169384961Y-61172519D01*
X169092980Y-61364557D01*
X168950319Y-61484264D01*
X168950318Y-61484265D01*
X170197374Y-62731320D01*
X170073180Y-62821554D01*
X169934054Y-62960680D01*
X169843820Y-63084873D01*
X168593648Y-61834701D01*
X168593647Y-61834702D01*
X168585476Y-61843363D01*
X168585472Y-61843368D01*
X168376789Y-62123677D01*
X168202061Y-62426316D01*
X168202055Y-62426329D01*
X168063645Y-62747199D01*
X167963416Y-63081988D01*
X167963414Y-63081997D01*
X167902736Y-63426119D01*
X167902735Y-63426130D01*
X167882416Y-63774996D01*
X167882416Y-63775003D01*
X167902735Y-64123869D01*
X167902736Y-64123880D01*
X167963414Y-64468002D01*
X167963416Y-64468011D01*
X168063645Y-64802800D01*
X168202055Y-65123670D01*
X168202061Y-65123683D01*
X168376789Y-65426322D01*
X168585467Y-65706625D01*
X168593648Y-65715296D01*
X169843819Y-64465124D01*
X169934054Y-64589320D01*
X170073180Y-64728446D01*
X170197373Y-64818678D01*
X168950318Y-66065733D01*
X168950319Y-66065734D01*
X169092984Y-66185445D01*
X169384961Y-66377480D01*
X169697239Y-66534314D01*
X169697245Y-66534316D01*
X170025630Y-66653838D01*
X170025633Y-66653839D01*
X170365671Y-66734429D01*
X170712776Y-66774999D01*
X170712777Y-66775000D01*
X171062223Y-66775000D01*
X171062223Y-66774999D01*
X171409327Y-66734429D01*
X171409329Y-66734429D01*
X171749366Y-66653839D01*
X171749369Y-66653838D01*
X172077754Y-66534316D01*
X172077760Y-66534314D01*
X172390038Y-66377480D01*
X172682009Y-66185449D01*
X172682010Y-66185448D01*
X172824679Y-66065734D01*
X172824680Y-66065733D01*
X171577626Y-64818678D01*
X171701820Y-64728446D01*
X171840946Y-64589320D01*
X171931178Y-64465126D01*
X173181349Y-65715297D01*
X173181351Y-65715296D01*
X173189522Y-65706636D01*
X173189533Y-65706623D01*
X173398210Y-65426322D01*
X173572938Y-65123683D01*
X173572944Y-65123670D01*
X173711354Y-64802800D01*
X173811583Y-64468011D01*
X173811585Y-64468002D01*
X173872263Y-64123880D01*
X173872264Y-64123869D01*
X173892584Y-63775003D01*
X173892584Y-63774996D01*
X173872264Y-63426130D01*
X173872263Y-63426119D01*
X173811585Y-63081997D01*
X173811583Y-63081988D01*
X173711354Y-62747199D01*
X173572944Y-62426329D01*
X173572938Y-62426316D01*
X173398210Y-62123677D01*
X173189532Y-61843374D01*
X173181350Y-61834702D01*
X171931178Y-63084873D01*
X171840946Y-62960680D01*
X171701820Y-62821554D01*
X171577625Y-62731320D01*
X172824680Y-61484265D01*
X172824679Y-61484264D01*
X172682019Y-61364557D01*
X172390038Y-61172519D01*
X172077760Y-61015685D01*
X172077754Y-61015683D01*
X171749369Y-60896161D01*
X171749370Y-60896161D01*
X171454776Y-60826341D01*
X171394084Y-60791726D01*
X171361740Y-60729794D01*
X171368013Y-60660206D01*
X171410913Y-60605057D01*
X171476818Y-60581856D01*
X171483342Y-60581683D01*
X171747137Y-60581692D01*
X171752958Y-60581831D01*
X171917247Y-60589654D01*
X171929726Y-60590884D01*
X172259861Y-60640431D01*
X172273880Y-60643372D01*
X172595216Y-60730450D01*
X172608800Y-60734989D01*
X172917947Y-60858570D01*
X172930910Y-60864642D01*
X173222096Y-61022192D01*
X173223726Y-61023074D01*
X173235918Y-61030612D01*
X173508498Y-61221779D01*
X173519731Y-61230668D01*
X173768427Y-61452014D01*
X173778554Y-61462135D01*
X174000044Y-61710702D01*
X174008945Y-61721938D01*
X174200261Y-61994394D01*
X174207807Y-62006581D01*
X174366406Y-62299300D01*
X174372494Y-62312277D01*
X174496248Y-62621335D01*
X174500798Y-62634926D01*
X174588064Y-62956213D01*
X174591016Y-62970241D01*
X174640747Y-63300303D01*
X174641989Y-63312842D01*
X174649855Y-63476984D01*
X174649997Y-63483021D01*
X174598309Y-126677150D01*
X174598169Y-126682947D01*
X174590346Y-126847233D01*
X174589113Y-126859739D01*
X174539569Y-127189856D01*
X174536625Y-127203885D01*
X174449550Y-127525211D01*
X174445008Y-127538805D01*
X174321433Y-127847938D01*
X174315352Y-127860919D01*
X174156925Y-128153726D01*
X174149387Y-128165918D01*
X173958220Y-128438498D01*
X173949325Y-128449738D01*
X173736822Y-128688500D01*
X173727997Y-128698415D01*
X173717864Y-128708554D01*
X173469297Y-128930044D01*
X173458061Y-128938945D01*
X173185605Y-129130261D01*
X173173418Y-129137807D01*
X172880699Y-129296406D01*
X172867722Y-129302494D01*
X172558664Y-129426248D01*
X172545073Y-129430798D01*
X172223786Y-129518064D01*
X172209758Y-129521016D01*
X171879696Y-129570747D01*
X171867158Y-129571989D01*
X171803164Y-129575056D01*
X171799938Y-129575210D01*
X171732034Y-129558759D01*
X171683803Y-129508206D01*
X171670560Y-129439603D01*
X171696509Y-129374730D01*
X171751592Y-129334831D01*
X172027754Y-129234316D01*
X172027760Y-129234314D01*
X172340038Y-129077480D01*
X172632009Y-128885449D01*
X172632010Y-128885448D01*
X172774679Y-128765734D01*
X172774680Y-128765733D01*
X171527626Y-127518678D01*
X171651820Y-127428446D01*
X171790946Y-127289320D01*
X171881179Y-127165126D01*
X173131350Y-128415297D01*
X173131351Y-128415296D01*
X173139522Y-128406636D01*
X173139533Y-128406623D01*
X173348210Y-128126322D01*
X173522938Y-127823683D01*
X173522944Y-127823670D01*
X173661354Y-127502800D01*
X173761583Y-127168011D01*
X173761585Y-127168002D01*
X173822263Y-126823880D01*
X173822264Y-126823869D01*
X173842584Y-126475003D01*
X173842584Y-126474996D01*
X173822264Y-126126130D01*
X173822263Y-126126119D01*
X173761585Y-125781997D01*
X173761583Y-125781988D01*
X173661354Y-125447199D01*
X173522944Y-125126329D01*
X173522938Y-125126316D01*
X173348210Y-124823677D01*
X173139532Y-124543374D01*
X173131350Y-124534702D01*
X171881178Y-125784873D01*
X171790946Y-125660680D01*
X171651820Y-125521554D01*
X171527625Y-125431320D01*
X172774680Y-124184265D01*
X172774679Y-124184264D01*
X172632019Y-124064557D01*
X172340038Y-123872519D01*
X172027760Y-123715685D01*
X172027754Y-123715683D01*
X171699369Y-123596161D01*
X171699366Y-123596160D01*
X171359328Y-123515570D01*
X171012223Y-123475000D01*
X170662777Y-123475000D01*
X170315672Y-123515570D01*
X170315670Y-123515570D01*
X169975633Y-123596160D01*
X169975630Y-123596161D01*
X169647245Y-123715683D01*
X169647239Y-123715685D01*
X169334961Y-123872519D01*
X169042980Y-124064557D01*
X168900319Y-124184264D01*
X168900318Y-124184265D01*
X170147374Y-125431320D01*
X170023180Y-125521554D01*
X169884054Y-125660680D01*
X169793820Y-125784873D01*
X168543648Y-124534701D01*
X168543647Y-124534702D01*
X168535476Y-124543363D01*
X168535472Y-124543368D01*
X168326789Y-124823677D01*
X168152061Y-125126316D01*
X168152055Y-125126329D01*
X168013645Y-125447199D01*
X167913416Y-125781988D01*
X167913414Y-125781997D01*
X167852736Y-126126119D01*
X167852735Y-126126130D01*
X167832416Y-126474996D01*
X167832416Y-126475003D01*
X167852735Y-126823869D01*
X167852736Y-126823880D01*
X167913414Y-127168002D01*
X167913416Y-127168011D01*
X168013645Y-127502800D01*
X168152055Y-127823670D01*
X168152061Y-127823683D01*
X168326789Y-128126322D01*
X168535467Y-128406625D01*
X168543648Y-128415296D01*
X169793819Y-127165124D01*
X169884054Y-127289320D01*
X170023180Y-127428446D01*
X170147373Y-127518678D01*
X168900318Y-128765733D01*
X168900319Y-128765734D01*
X169042984Y-128885445D01*
X169334961Y-129077480D01*
X169647239Y-129234314D01*
X169647245Y-129234316D01*
X169936005Y-129339416D01*
X169992269Y-129380842D01*
X170017205Y-129446111D01*
X170002895Y-129514499D01*
X169953884Y-129564295D01*
X169893591Y-129579938D01*
X147833464Y-129579187D01*
X147766425Y-129559500D01*
X147720672Y-129506695D01*
X147710731Y-129437536D01*
X147739758Y-129373981D01*
X147791058Y-129338665D01*
X148077754Y-129234316D01*
X148077760Y-129234314D01*
X148390038Y-129077480D01*
X148682009Y-128885449D01*
X148682010Y-128885448D01*
X148824679Y-128765734D01*
X148824680Y-128765733D01*
X147577626Y-127518678D01*
X147701820Y-127428446D01*
X147840946Y-127289320D01*
X147931178Y-127165126D01*
X149181349Y-128415297D01*
X149181351Y-128415296D01*
X149189522Y-128406636D01*
X149189533Y-128406623D01*
X149398210Y-128126322D01*
X149572938Y-127823683D01*
X149572944Y-127823670D01*
X149711354Y-127502800D01*
X149811583Y-127168011D01*
X149811585Y-127168002D01*
X149872263Y-126823880D01*
X149872264Y-126823869D01*
X149882100Y-126655000D01*
X150486807Y-126655000D01*
X150505557Y-126929130D01*
X150505558Y-126929132D01*
X150561458Y-127198141D01*
X150561463Y-127198158D01*
X150653476Y-127457056D01*
X150779889Y-127701024D01*
X150779893Y-127701030D01*
X150938340Y-127925499D01*
X150938343Y-127925502D01*
X151125889Y-128126314D01*
X151339031Y-128299718D01*
X151339033Y-128299719D01*
X151339034Y-128299720D01*
X151573801Y-128442485D01*
X151657656Y-128478908D01*
X151825823Y-128551953D01*
X152090404Y-128626085D01*
X152329720Y-128658978D01*
X152362614Y-128663500D01*
X152362615Y-128663500D01*
X152637386Y-128663500D01*
X152666733Y-128659466D01*
X152909596Y-128626085D01*
X153174177Y-128551953D01*
X153409500Y-128449738D01*
X153426198Y-128442485D01*
X153426200Y-128442484D01*
X153660969Y-128299718D01*
X153874111Y-128126314D01*
X154061657Y-127925502D01*
X154220111Y-127701023D01*
X154346523Y-127457058D01*
X154438538Y-127198153D01*
X154438539Y-127198146D01*
X154438541Y-127198141D01*
X154477583Y-127010258D01*
X154494442Y-126929130D01*
X154506380Y-126754599D01*
X154530594Y-126689060D01*
X154586397Y-126647015D01*
X154656073Y-126641815D01*
X154717500Y-126675109D01*
X154751175Y-126736328D01*
X154753775Y-126754216D01*
X154765300Y-126915362D01*
X154826109Y-127194895D01*
X154926091Y-127462958D01*
X155063191Y-127714038D01*
X155063196Y-127714046D01*
X155169882Y-127856561D01*
X155169883Y-127856562D01*
X156072421Y-126954024D01*
X156085359Y-126985258D01*
X156167437Y-127108097D01*
X156271903Y-127212563D01*
X156394742Y-127294641D01*
X156425974Y-127307578D01*
X155523436Y-128210115D01*
X155665960Y-128316807D01*
X155665961Y-128316808D01*
X155917042Y-128453908D01*
X155917041Y-128453908D01*
X156185104Y-128553890D01*
X156464637Y-128614699D01*
X156749999Y-128635109D01*
X156750001Y-128635109D01*
X157035362Y-128614699D01*
X157314895Y-128553890D01*
X157582958Y-128453908D01*
X157834047Y-128316803D01*
X157976561Y-128210116D01*
X157976562Y-128210115D01*
X157074025Y-127307577D01*
X157105258Y-127294641D01*
X157228097Y-127212563D01*
X157332563Y-127108097D01*
X157414641Y-126985258D01*
X157427578Y-126954025D01*
X158330115Y-127856562D01*
X158330116Y-127856561D01*
X158436803Y-127714047D01*
X158573908Y-127462958D01*
X158673890Y-127194895D01*
X158734699Y-126915362D01*
X158734699Y-126915361D01*
X158746224Y-126754217D01*
X158770640Y-126688752D01*
X158826574Y-126646880D01*
X158896265Y-126641896D01*
X158957589Y-126675380D01*
X158991074Y-126736703D01*
X158993619Y-126754599D01*
X159005558Y-126929131D01*
X159005558Y-126929132D01*
X159061458Y-127198141D01*
X159061463Y-127198158D01*
X159153476Y-127457056D01*
X159279889Y-127701024D01*
X159279893Y-127701030D01*
X159438340Y-127925499D01*
X159438343Y-127925502D01*
X159625889Y-128126314D01*
X159839031Y-128299718D01*
X159839033Y-128299719D01*
X159839034Y-128299720D01*
X160073801Y-128442485D01*
X160157656Y-128478908D01*
X160325823Y-128551953D01*
X160590404Y-128626085D01*
X160829720Y-128658978D01*
X160862614Y-128663500D01*
X160862615Y-128663500D01*
X161137386Y-128663500D01*
X161166733Y-128659466D01*
X161409596Y-128626085D01*
X161674177Y-128551953D01*
X161909500Y-128449738D01*
X161926198Y-128442485D01*
X161926200Y-128442484D01*
X162160969Y-128299718D01*
X162374111Y-128126314D01*
X162561657Y-127925502D01*
X162720111Y-127701023D01*
X162846523Y-127457058D01*
X162938538Y-127198153D01*
X162938539Y-127198146D01*
X162938541Y-127198141D01*
X162977583Y-127010258D01*
X162994442Y-126929130D01*
X163013193Y-126655000D01*
X163011483Y-126629998D01*
X163344891Y-126629998D01*
X163344891Y-126630001D01*
X163365300Y-126915362D01*
X163426109Y-127194895D01*
X163526091Y-127462958D01*
X163663191Y-127714038D01*
X163663196Y-127714046D01*
X163769882Y-127856561D01*
X163769883Y-127856562D01*
X164672421Y-126954024D01*
X164685359Y-126985258D01*
X164767437Y-127108097D01*
X164871903Y-127212563D01*
X164994742Y-127294641D01*
X165025974Y-127307578D01*
X164123436Y-128210115D01*
X164265960Y-128316807D01*
X164265961Y-128316808D01*
X164517042Y-128453908D01*
X164517041Y-128453908D01*
X164785104Y-128553890D01*
X165064637Y-128614699D01*
X165349999Y-128635109D01*
X165350001Y-128635109D01*
X165635362Y-128614699D01*
X165914895Y-128553890D01*
X166182958Y-128453908D01*
X166434047Y-128316803D01*
X166576561Y-128210116D01*
X166576562Y-128210115D01*
X165674025Y-127307577D01*
X165705258Y-127294641D01*
X165828097Y-127212563D01*
X165932563Y-127108097D01*
X166014641Y-126985258D01*
X166027578Y-126954025D01*
X166930115Y-127856562D01*
X166930116Y-127856561D01*
X167036803Y-127714047D01*
X167173908Y-127462958D01*
X167273890Y-127194895D01*
X167334699Y-126915362D01*
X167355109Y-126630001D01*
X167355109Y-126629998D01*
X167334699Y-126344637D01*
X167273890Y-126065104D01*
X167173908Y-125797041D01*
X167036808Y-125545961D01*
X167036807Y-125545960D01*
X166930115Y-125403436D01*
X166027577Y-126305973D01*
X166014641Y-126274742D01*
X165932563Y-126151903D01*
X165828097Y-126047437D01*
X165705258Y-125965359D01*
X165674024Y-125952421D01*
X166576562Y-125049883D01*
X166576561Y-125049882D01*
X166434046Y-124943196D01*
X166434038Y-124943191D01*
X166182957Y-124806091D01*
X166182958Y-124806091D01*
X165914895Y-124706109D01*
X165635362Y-124645300D01*
X165350001Y-124624891D01*
X165349999Y-124624891D01*
X165064637Y-124645300D01*
X164785104Y-124706109D01*
X164517041Y-124806091D01*
X164265961Y-124943191D01*
X164265953Y-124943196D01*
X164123437Y-125049882D01*
X164123436Y-125049883D01*
X165025975Y-125952421D01*
X164994742Y-125965359D01*
X164871903Y-126047437D01*
X164767437Y-126151903D01*
X164685359Y-126274742D01*
X164672421Y-126305974D01*
X163769883Y-125403436D01*
X163769882Y-125403437D01*
X163663196Y-125545953D01*
X163663191Y-125545961D01*
X163526091Y-125797041D01*
X163426109Y-126065104D01*
X163365300Y-126344637D01*
X163344891Y-126629998D01*
X163011483Y-126629998D01*
X162994442Y-126380870D01*
X162946862Y-126151903D01*
X162938541Y-126111858D01*
X162938536Y-126111841D01*
X162846523Y-125852943D01*
X162846523Y-125852942D01*
X162720111Y-125608977D01*
X162720110Y-125608975D01*
X162720106Y-125608969D01*
X162561659Y-125384500D01*
X162543031Y-125364555D01*
X162374111Y-125183686D01*
X162160969Y-125010282D01*
X162160967Y-125010281D01*
X162160965Y-125010279D01*
X161926198Y-124867514D01*
X161674178Y-124758047D01*
X161409602Y-124683916D01*
X161409596Y-124683915D01*
X161310870Y-124670345D01*
X161247136Y-124641715D01*
X161208998Y-124583172D01*
X161208565Y-124513304D01*
X161245974Y-124454292D01*
X161277314Y-124434224D01*
X161306752Y-124421118D01*
X161461253Y-124308866D01*
X161589040Y-124166944D01*
X161684527Y-124001556D01*
X161743542Y-123819928D01*
X161763504Y-123630000D01*
X161743542Y-123440072D01*
X161684527Y-123258444D01*
X161589040Y-123093056D01*
X161461253Y-122951134D01*
X161306752Y-122838882D01*
X161132288Y-122761206D01*
X161132286Y-122761205D01*
X160945487Y-122721500D01*
X160754513Y-122721500D01*
X160567714Y-122761205D01*
X160393246Y-122838883D01*
X160238745Y-122951135D01*
X160110959Y-123093057D01*
X160015473Y-123258443D01*
X160015470Y-123258450D01*
X159956459Y-123440068D01*
X159956458Y-123440072D01*
X159936496Y-123630000D01*
X159956458Y-123819928D01*
X159956459Y-123819931D01*
X160015470Y-124001549D01*
X160015473Y-124001556D01*
X160110960Y-124166944D01*
X160238747Y-124308866D01*
X160393248Y-124421118D01*
X160517471Y-124476425D01*
X160570709Y-124521676D01*
X160591030Y-124588525D01*
X160571985Y-124655748D01*
X160519619Y-124702004D01*
X160500491Y-124709107D01*
X160325821Y-124758047D01*
X160073801Y-124867514D01*
X159839034Y-125010279D01*
X159625892Y-125183683D01*
X159438340Y-125384500D01*
X159279893Y-125608969D01*
X159279889Y-125608975D01*
X159153476Y-125852943D01*
X159061463Y-126111841D01*
X159061458Y-126111858D01*
X159005558Y-126380867D01*
X159005557Y-126380869D01*
X158995368Y-126529841D01*
X158971154Y-126595381D01*
X158915351Y-126637426D01*
X158845675Y-126642626D01*
X158784248Y-126609332D01*
X158750573Y-126548113D01*
X158747973Y-126530225D01*
X158734699Y-126344637D01*
X158673890Y-126065104D01*
X158573908Y-125797041D01*
X158436808Y-125545961D01*
X158436807Y-125545960D01*
X158330115Y-125403436D01*
X157427577Y-126305973D01*
X157414641Y-126274742D01*
X157332563Y-126151903D01*
X157228097Y-126047437D01*
X157105258Y-125965359D01*
X157074024Y-125952421D01*
X157976562Y-125049883D01*
X157976561Y-125049882D01*
X157834046Y-124943196D01*
X157834038Y-124943191D01*
X157582957Y-124806091D01*
X157582958Y-124806091D01*
X157314895Y-124706109D01*
X157035362Y-124645300D01*
X156750001Y-124624891D01*
X156749999Y-124624891D01*
X156464637Y-124645300D01*
X156185104Y-124706109D01*
X155917041Y-124806091D01*
X155665961Y-124943191D01*
X155665953Y-124943196D01*
X155523437Y-125049882D01*
X155523436Y-125049883D01*
X156425975Y-125952421D01*
X156394742Y-125965359D01*
X156271903Y-126047437D01*
X156167437Y-126151903D01*
X156085359Y-126274742D01*
X156072421Y-126305974D01*
X155169883Y-125403436D01*
X155169882Y-125403437D01*
X155063196Y-125545953D01*
X155063191Y-125545961D01*
X154926091Y-125797041D01*
X154826109Y-126065104D01*
X154765300Y-126344637D01*
X154752026Y-126530226D01*
X154727609Y-126595690D01*
X154671675Y-126637561D01*
X154601983Y-126642545D01*
X154540660Y-126609060D01*
X154507176Y-126547736D01*
X154504632Y-126529851D01*
X154494442Y-126380870D01*
X154446862Y-126151903D01*
X154438541Y-126111858D01*
X154438536Y-126111841D01*
X154346523Y-125852943D01*
X154346523Y-125852942D01*
X154220111Y-125608977D01*
X154220110Y-125608975D01*
X154220106Y-125608969D01*
X154061659Y-125384500D01*
X154043031Y-125364555D01*
X153874111Y-125183686D01*
X153660969Y-125010282D01*
X153660967Y-125010281D01*
X153660965Y-125010279D01*
X153426198Y-124867514D01*
X153174178Y-124758047D01*
X152909602Y-124683916D01*
X152909597Y-124683915D01*
X152909596Y-124683915D01*
X152849105Y-124675600D01*
X152772666Y-124665094D01*
X152708931Y-124636464D01*
X152670793Y-124577921D01*
X152670359Y-124508053D01*
X152707768Y-124449042D01*
X152739114Y-124428970D01*
X152756752Y-124421118D01*
X152911253Y-124308866D01*
X153039040Y-124166944D01*
X153134527Y-124001556D01*
X153193542Y-123819928D01*
X153213504Y-123630000D01*
X153193542Y-123440072D01*
X153134527Y-123258444D01*
X153039040Y-123093056D01*
X152911253Y-122951134D01*
X152756752Y-122838882D01*
X152582288Y-122761206D01*
X152582286Y-122761205D01*
X152395487Y-122721500D01*
X152204513Y-122721500D01*
X152017714Y-122761205D01*
X151843246Y-122838883D01*
X151688745Y-122951135D01*
X151560959Y-123093057D01*
X151465473Y-123258443D01*
X151465470Y-123258450D01*
X151406459Y-123440068D01*
X151406458Y-123440072D01*
X151386496Y-123630000D01*
X151406458Y-123819928D01*
X151406459Y-123819931D01*
X151465470Y-124001549D01*
X151465473Y-124001556D01*
X151560960Y-124166944D01*
X151688747Y-124308866D01*
X151843248Y-124421118D01*
X151986784Y-124485024D01*
X152040020Y-124530273D01*
X152060342Y-124597122D01*
X152041297Y-124664346D01*
X151988931Y-124710602D01*
X151969803Y-124717705D01*
X151825821Y-124758047D01*
X151573801Y-124867514D01*
X151339034Y-125010279D01*
X151125892Y-125183683D01*
X150938340Y-125384500D01*
X150779893Y-125608969D01*
X150779889Y-125608975D01*
X150653476Y-125852943D01*
X150561463Y-126111841D01*
X150561458Y-126111858D01*
X150505558Y-126380867D01*
X150505557Y-126380869D01*
X150486807Y-126655000D01*
X149882100Y-126655000D01*
X149892584Y-126475003D01*
X149892584Y-126474996D01*
X149872264Y-126126130D01*
X149872263Y-126126119D01*
X149811585Y-125781997D01*
X149811583Y-125781988D01*
X149711354Y-125447199D01*
X149572944Y-125126329D01*
X149572938Y-125126316D01*
X149398210Y-124823677D01*
X149189532Y-124543374D01*
X149181350Y-124534702D01*
X147931178Y-125784873D01*
X147840946Y-125660680D01*
X147701820Y-125521554D01*
X147577625Y-125431320D01*
X148824680Y-124184265D01*
X148824679Y-124184264D01*
X148682019Y-124064557D01*
X148390038Y-123872519D01*
X148077760Y-123715685D01*
X148077754Y-123715683D01*
X147749369Y-123596161D01*
X147749366Y-123596160D01*
X147409328Y-123515570D01*
X147062223Y-123475000D01*
X146712777Y-123475000D01*
X146365672Y-123515570D01*
X146365670Y-123515570D01*
X146025633Y-123596160D01*
X146025630Y-123596161D01*
X145697245Y-123715683D01*
X145697239Y-123715685D01*
X145384961Y-123872519D01*
X145092980Y-124064557D01*
X144950319Y-124184264D01*
X144950318Y-124184265D01*
X146197374Y-125431320D01*
X146073180Y-125521554D01*
X145934054Y-125660680D01*
X145843820Y-125784873D01*
X144593648Y-124534701D01*
X144593647Y-124534702D01*
X144585476Y-124543363D01*
X144585472Y-124543368D01*
X144376789Y-124823677D01*
X144202061Y-125126316D01*
X144202055Y-125126329D01*
X144063645Y-125447199D01*
X143963416Y-125781988D01*
X143963414Y-125781997D01*
X143902736Y-126126119D01*
X143902735Y-126126130D01*
X143882416Y-126474996D01*
X143882416Y-126475003D01*
X143902735Y-126823869D01*
X143902736Y-126823880D01*
X143963414Y-127168002D01*
X143963416Y-127168011D01*
X144063645Y-127502800D01*
X144202055Y-127823670D01*
X144202061Y-127823683D01*
X144376789Y-128126322D01*
X144585467Y-128406625D01*
X144593648Y-128415296D01*
X145843819Y-127165124D01*
X145934054Y-127289320D01*
X146073180Y-127428446D01*
X146197373Y-127518678D01*
X144950318Y-128765733D01*
X144950319Y-128765734D01*
X145092984Y-128885445D01*
X145384961Y-129077480D01*
X145697239Y-129234314D01*
X145697245Y-129234316D01*
X145983764Y-129338600D01*
X146040028Y-129380026D01*
X146064964Y-129445295D01*
X146050654Y-129513683D01*
X146001643Y-129563479D01*
X145941350Y-129579122D01*
X123835710Y-129578369D01*
X123768671Y-129558682D01*
X123722918Y-129505877D01*
X123712977Y-129436718D01*
X123742004Y-129373163D01*
X123793304Y-129337847D01*
X124077754Y-129234316D01*
X124077760Y-129234314D01*
X124390038Y-129077480D01*
X124682009Y-128885449D01*
X124682010Y-128885448D01*
X124824679Y-128765734D01*
X124824680Y-128765733D01*
X123577626Y-127518678D01*
X123701820Y-127428446D01*
X123840946Y-127289320D01*
X123931178Y-127165126D01*
X125181349Y-128415297D01*
X125181351Y-128415296D01*
X125189522Y-128406636D01*
X125189533Y-128406623D01*
X125398210Y-128126322D01*
X125572938Y-127823683D01*
X125572944Y-127823670D01*
X125711354Y-127502800D01*
X125811583Y-127168011D01*
X125811585Y-127168002D01*
X125872263Y-126823880D01*
X125872264Y-126823869D01*
X125882100Y-126654998D01*
X126138039Y-126654998D01*
X126138039Y-126655001D01*
X126158448Y-126940362D01*
X126219257Y-127219895D01*
X126319239Y-127487958D01*
X126456339Y-127739038D01*
X126456344Y-127739046D01*
X126563030Y-127881561D01*
X126563031Y-127881562D01*
X127465569Y-126979024D01*
X127478507Y-127010258D01*
X127560585Y-127133097D01*
X127665051Y-127237563D01*
X127787890Y-127319641D01*
X127819122Y-127332578D01*
X126916584Y-128235115D01*
X127059108Y-128341807D01*
X127059109Y-128341808D01*
X127310190Y-128478908D01*
X127310189Y-128478908D01*
X127578252Y-128578890D01*
X127857785Y-128639699D01*
X128143147Y-128660109D01*
X128143149Y-128660109D01*
X128428510Y-128639699D01*
X128708043Y-128578890D01*
X128976106Y-128478908D01*
X129227195Y-128341803D01*
X129369709Y-128235116D01*
X129369710Y-128235115D01*
X128467173Y-127332577D01*
X128498406Y-127319641D01*
X128621245Y-127237563D01*
X128725711Y-127133097D01*
X128807789Y-127010258D01*
X128820726Y-126979025D01*
X129723263Y-127881562D01*
X129723264Y-127881561D01*
X129829951Y-127739047D01*
X129967056Y-127487958D01*
X130067038Y-127219895D01*
X130127847Y-126940362D01*
X130146469Y-126680000D01*
X130586807Y-126680000D01*
X130605557Y-126954130D01*
X130605558Y-126954132D01*
X130661458Y-127223141D01*
X130661463Y-127223158D01*
X130753476Y-127482056D01*
X130879889Y-127726024D01*
X130879893Y-127726030D01*
X131038340Y-127950499D01*
X131038343Y-127950502D01*
X131225889Y-128151314D01*
X131439031Y-128324718D01*
X131439033Y-128324719D01*
X131439034Y-128324720D01*
X131673801Y-128467485D01*
X131868265Y-128551952D01*
X131925823Y-128576953D01*
X132190404Y-128651085D01*
X132429720Y-128683978D01*
X132462614Y-128688500D01*
X132462615Y-128688500D01*
X132737386Y-128688500D01*
X132766733Y-128684466D01*
X133009596Y-128651085D01*
X133274177Y-128576953D01*
X133526200Y-128467484D01*
X133760969Y-128324718D01*
X133974111Y-128151314D01*
X134161657Y-127950502D01*
X134320111Y-127726023D01*
X134446523Y-127482058D01*
X134538538Y-127223153D01*
X134538539Y-127223146D01*
X134538541Y-127223141D01*
X134582778Y-127010258D01*
X134594442Y-126954130D01*
X134613193Y-126680000D01*
X134611483Y-126654998D01*
X135032391Y-126654998D01*
X135032391Y-126655001D01*
X135052800Y-126940362D01*
X135113609Y-127219895D01*
X135213591Y-127487958D01*
X135350691Y-127739038D01*
X135350696Y-127739046D01*
X135457382Y-127881561D01*
X135457383Y-127881562D01*
X136359921Y-126979024D01*
X136372859Y-127010258D01*
X136454937Y-127133097D01*
X136559403Y-127237563D01*
X136682242Y-127319641D01*
X136713474Y-127332578D01*
X135810936Y-128235115D01*
X135953460Y-128341807D01*
X135953461Y-128341808D01*
X136204542Y-128478908D01*
X136204541Y-128478908D01*
X136472604Y-128578890D01*
X136752137Y-128639699D01*
X137037499Y-128660109D01*
X137037501Y-128660109D01*
X137322862Y-128639699D01*
X137602395Y-128578890D01*
X137870458Y-128478908D01*
X138121547Y-128341803D01*
X138264061Y-128235116D01*
X138264062Y-128235115D01*
X137361525Y-127332577D01*
X137392758Y-127319641D01*
X137515597Y-127237563D01*
X137620063Y-127133097D01*
X137702141Y-127010258D01*
X137715078Y-126979025D01*
X138617615Y-127881562D01*
X138617616Y-127881561D01*
X138724303Y-127739047D01*
X138861408Y-127487958D01*
X138961390Y-127219895D01*
X139022199Y-126940362D01*
X139040821Y-126680000D01*
X139336807Y-126680000D01*
X139355557Y-126954130D01*
X139355558Y-126954132D01*
X139411458Y-127223141D01*
X139411463Y-127223158D01*
X139503476Y-127482056D01*
X139629889Y-127726024D01*
X139629893Y-127726030D01*
X139788340Y-127950499D01*
X139788343Y-127950502D01*
X139975889Y-128151314D01*
X140189031Y-128324718D01*
X140189033Y-128324719D01*
X140189034Y-128324720D01*
X140423801Y-128467485D01*
X140618265Y-128551952D01*
X140675823Y-128576953D01*
X140940404Y-128651085D01*
X141179720Y-128683978D01*
X141212614Y-128688500D01*
X141212615Y-128688500D01*
X141487386Y-128688500D01*
X141516733Y-128684466D01*
X141759596Y-128651085D01*
X142024177Y-128576953D01*
X142276200Y-128467484D01*
X142510969Y-128324718D01*
X142724111Y-128151314D01*
X142911657Y-127950502D01*
X143070111Y-127726023D01*
X143196523Y-127482058D01*
X143288538Y-127223153D01*
X143288539Y-127223146D01*
X143288541Y-127223141D01*
X143332778Y-127010258D01*
X143344442Y-126954130D01*
X143363193Y-126680000D01*
X143344442Y-126405870D01*
X143317193Y-126274742D01*
X143288541Y-126136858D01*
X143288536Y-126136841D01*
X143216383Y-125933822D01*
X143196523Y-125877942D01*
X143070111Y-125633977D01*
X143070110Y-125633975D01*
X143070106Y-125633969D01*
X142911659Y-125409500D01*
X142824877Y-125316580D01*
X142724111Y-125208686D01*
X142510969Y-125035282D01*
X142510967Y-125035281D01*
X142510965Y-125035279D01*
X142276198Y-124892514D01*
X142024178Y-124783047D01*
X141759602Y-124708916D01*
X141759596Y-124708915D01*
X141656170Y-124694699D01*
X141592436Y-124666069D01*
X141554298Y-124607526D01*
X141553865Y-124537658D01*
X141591274Y-124478646D01*
X141622617Y-124458576D01*
X141706752Y-124421118D01*
X141861253Y-124308866D01*
X141989040Y-124166944D01*
X142084527Y-124001556D01*
X142143542Y-123819928D01*
X142163504Y-123630000D01*
X142143542Y-123440072D01*
X142084527Y-123258444D01*
X141989040Y-123093056D01*
X141861253Y-122951134D01*
X141706752Y-122838882D01*
X141532288Y-122761206D01*
X141532286Y-122761205D01*
X141345487Y-122721500D01*
X141154513Y-122721500D01*
X140967714Y-122761205D01*
X140793246Y-122838883D01*
X140638745Y-122951135D01*
X140510959Y-123093057D01*
X140415473Y-123258443D01*
X140415470Y-123258450D01*
X140356459Y-123440068D01*
X140356458Y-123440072D01*
X140336496Y-123630000D01*
X140356458Y-123819928D01*
X140356459Y-123819931D01*
X140415470Y-124001549D01*
X140415473Y-124001556D01*
X140510960Y-124166944D01*
X140638747Y-124308866D01*
X140793248Y-124421118D01*
X140932624Y-124483172D01*
X140985859Y-124528420D01*
X141006181Y-124595269D01*
X140987136Y-124662493D01*
X140934770Y-124708749D01*
X140915642Y-124715852D01*
X140675821Y-124783047D01*
X140423801Y-124892514D01*
X140189034Y-125035279D01*
X139975892Y-125208683D01*
X139788340Y-125409500D01*
X139629893Y-125633969D01*
X139629889Y-125633975D01*
X139503476Y-125877943D01*
X139411463Y-126136841D01*
X139411458Y-126136858D01*
X139355558Y-126405867D01*
X139355557Y-126405869D01*
X139336807Y-126680000D01*
X139040821Y-126680000D01*
X139042609Y-126655001D01*
X139042609Y-126654998D01*
X139022199Y-126369637D01*
X138961390Y-126090104D01*
X138861408Y-125822041D01*
X138724308Y-125570961D01*
X138724307Y-125570960D01*
X138617615Y-125428436D01*
X137715077Y-126330973D01*
X137702141Y-126299742D01*
X137620063Y-126176903D01*
X137515597Y-126072437D01*
X137392758Y-125990359D01*
X137361524Y-125977421D01*
X138264062Y-125074883D01*
X138264061Y-125074882D01*
X138121546Y-124968196D01*
X138121538Y-124968191D01*
X137870457Y-124831091D01*
X137870458Y-124831091D01*
X137602395Y-124731109D01*
X137322862Y-124670300D01*
X137037501Y-124649891D01*
X137037499Y-124649891D01*
X136752137Y-124670300D01*
X136472604Y-124731109D01*
X136204541Y-124831091D01*
X135953461Y-124968191D01*
X135953453Y-124968196D01*
X135810937Y-125074882D01*
X135810936Y-125074883D01*
X136713475Y-125977421D01*
X136682242Y-125990359D01*
X136559403Y-126072437D01*
X136454937Y-126176903D01*
X136372859Y-126299742D01*
X136359921Y-126330974D01*
X135457383Y-125428436D01*
X135457382Y-125428437D01*
X135350696Y-125570953D01*
X135350691Y-125570961D01*
X135213591Y-125822041D01*
X135113609Y-126090104D01*
X135052800Y-126369637D01*
X135032391Y-126654998D01*
X134611483Y-126654998D01*
X134594442Y-126405870D01*
X134567193Y-126274742D01*
X134538541Y-126136858D01*
X134538536Y-126136841D01*
X134466383Y-125933822D01*
X134446523Y-125877942D01*
X134320111Y-125633977D01*
X134320110Y-125633975D01*
X134320106Y-125633969D01*
X134161659Y-125409500D01*
X134074877Y-125316580D01*
X133974111Y-125208686D01*
X133760969Y-125035282D01*
X133760967Y-125035281D01*
X133760965Y-125035279D01*
X133526198Y-124892514D01*
X133274178Y-124783047D01*
X133009602Y-124708916D01*
X133009596Y-124708915D01*
X133008388Y-124708749D01*
X132982580Y-124705201D01*
X132918847Y-124676572D01*
X132880709Y-124618029D01*
X132880276Y-124548160D01*
X132917685Y-124489149D01*
X132949027Y-124469079D01*
X133056752Y-124421118D01*
X133211253Y-124308866D01*
X133339040Y-124166944D01*
X133434527Y-124001556D01*
X133493542Y-123819928D01*
X133513504Y-123630000D01*
X133493542Y-123440072D01*
X133434527Y-123258444D01*
X133339040Y-123093056D01*
X133211253Y-122951134D01*
X133056752Y-122838882D01*
X132882288Y-122761206D01*
X132882286Y-122761205D01*
X132695487Y-122721500D01*
X132504513Y-122721500D01*
X132317714Y-122761205D01*
X132143246Y-122838883D01*
X131988745Y-122951135D01*
X131860959Y-123093057D01*
X131765473Y-123258443D01*
X131765470Y-123258450D01*
X131706459Y-123440068D01*
X131706458Y-123440072D01*
X131686496Y-123630000D01*
X131706458Y-123819928D01*
X131706459Y-123819931D01*
X131765470Y-124001549D01*
X131765473Y-124001556D01*
X131860960Y-124166944D01*
X131988747Y-124308866D01*
X132143248Y-124421118D01*
X132250967Y-124469077D01*
X132304205Y-124514328D01*
X132324526Y-124581177D01*
X132305481Y-124648400D01*
X132253115Y-124694656D01*
X132217418Y-124705202D01*
X132190403Y-124708915D01*
X132190397Y-124708916D01*
X131925821Y-124783047D01*
X131673801Y-124892514D01*
X131439034Y-125035279D01*
X131225892Y-125208683D01*
X131038340Y-125409500D01*
X130879893Y-125633969D01*
X130879889Y-125633975D01*
X130753476Y-125877943D01*
X130661463Y-126136841D01*
X130661458Y-126136858D01*
X130605558Y-126405867D01*
X130605557Y-126405869D01*
X130586807Y-126680000D01*
X130146469Y-126680000D01*
X130148257Y-126655001D01*
X130148257Y-126654998D01*
X130127847Y-126369637D01*
X130067038Y-126090104D01*
X129967056Y-125822041D01*
X129829956Y-125570961D01*
X129829955Y-125570960D01*
X129723263Y-125428436D01*
X128820725Y-126330973D01*
X128807789Y-126299742D01*
X128725711Y-126176903D01*
X128621245Y-126072437D01*
X128498406Y-125990359D01*
X128467172Y-125977421D01*
X129369710Y-125074883D01*
X129369709Y-125074882D01*
X129227194Y-124968196D01*
X129227186Y-124968191D01*
X128976105Y-124831091D01*
X128976106Y-124831091D01*
X128708043Y-124731109D01*
X128428510Y-124670300D01*
X128143149Y-124649891D01*
X128143147Y-124649891D01*
X127857785Y-124670300D01*
X127578252Y-124731109D01*
X127310189Y-124831091D01*
X127059109Y-124968191D01*
X127059101Y-124968196D01*
X126916585Y-125074882D01*
X126916584Y-125074883D01*
X127819123Y-125977421D01*
X127787890Y-125990359D01*
X127665051Y-126072437D01*
X127560585Y-126176903D01*
X127478507Y-126299742D01*
X127465569Y-126330974D01*
X126563031Y-125428436D01*
X126563030Y-125428437D01*
X126456344Y-125570953D01*
X126456339Y-125570961D01*
X126319239Y-125822041D01*
X126219257Y-126090104D01*
X126158448Y-126369637D01*
X126138039Y-126654998D01*
X125882100Y-126654998D01*
X125892584Y-126475003D01*
X125892584Y-126474996D01*
X125872264Y-126126130D01*
X125872263Y-126126119D01*
X125811585Y-125781997D01*
X125811583Y-125781988D01*
X125711354Y-125447199D01*
X125572944Y-125126329D01*
X125572938Y-125126316D01*
X125398210Y-124823677D01*
X125189532Y-124543374D01*
X125181350Y-124534702D01*
X123931178Y-125784873D01*
X123840946Y-125660680D01*
X123701820Y-125521554D01*
X123577625Y-125431320D01*
X124824680Y-124184265D01*
X124824679Y-124184264D01*
X124682019Y-124064557D01*
X124390038Y-123872519D01*
X124077760Y-123715685D01*
X124077754Y-123715683D01*
X123749369Y-123596161D01*
X123749366Y-123596160D01*
X123409328Y-123515570D01*
X123062223Y-123475000D01*
X122712777Y-123475000D01*
X122365672Y-123515570D01*
X122365670Y-123515570D01*
X122025633Y-123596160D01*
X122025630Y-123596161D01*
X121697245Y-123715683D01*
X121697239Y-123715685D01*
X121384961Y-123872519D01*
X121092980Y-124064557D01*
X120950319Y-124184264D01*
X120950318Y-124184265D01*
X122197374Y-125431320D01*
X122073180Y-125521554D01*
X121934054Y-125660680D01*
X121843820Y-125784873D01*
X120593648Y-124534701D01*
X120593647Y-124534702D01*
X120585476Y-124543363D01*
X120585472Y-124543368D01*
X120376789Y-124823677D01*
X120202061Y-125126316D01*
X120202055Y-125126329D01*
X120063645Y-125447199D01*
X119963416Y-125781988D01*
X119963414Y-125781997D01*
X119902736Y-126126119D01*
X119902735Y-126126130D01*
X119882416Y-126474996D01*
X119882416Y-126475003D01*
X119902735Y-126823869D01*
X119902736Y-126823880D01*
X119963414Y-127168002D01*
X119963416Y-127168011D01*
X120063645Y-127502800D01*
X120202055Y-127823670D01*
X120202061Y-127823683D01*
X120376789Y-128126322D01*
X120585467Y-128406625D01*
X120593648Y-128415296D01*
X121843819Y-127165124D01*
X121934054Y-127289320D01*
X122073180Y-127428446D01*
X122197373Y-127518678D01*
X120950318Y-128765733D01*
X120950319Y-128765734D01*
X121092984Y-128885445D01*
X121384961Y-129077480D01*
X121697239Y-129234314D01*
X121697245Y-129234316D01*
X121971921Y-129334290D01*
X122028185Y-129375716D01*
X122053121Y-129440985D01*
X122038811Y-129509373D01*
X121989800Y-129559169D01*
X121923613Y-129574672D01*
X121832766Y-129570346D01*
X121820260Y-129569113D01*
X121490143Y-129519569D01*
X121476114Y-129516625D01*
X121154788Y-129429550D01*
X121141194Y-129425008D01*
X120832061Y-129301433D01*
X120819080Y-129295352D01*
X120526273Y-129136925D01*
X120514081Y-129129387D01*
X120241501Y-128938220D01*
X120230266Y-128929329D01*
X119981572Y-128707985D01*
X119971445Y-128697864D01*
X119963101Y-128688500D01*
X119749951Y-128449292D01*
X119741054Y-128438061D01*
X119549738Y-128165605D01*
X119542192Y-128153418D01*
X119432248Y-127950499D01*
X119383591Y-127860695D01*
X119377505Y-127847722D01*
X119253751Y-127538664D01*
X119249201Y-127525073D01*
X119167192Y-127223141D01*
X119161934Y-127203783D01*
X119158986Y-127189773D01*
X119109251Y-126859694D01*
X119108010Y-126847157D01*
X119100143Y-126682995D01*
X119100002Y-126676978D01*
X119104375Y-121330000D01*
X166886496Y-121330000D01*
X166906458Y-121519928D01*
X166906459Y-121519931D01*
X166965470Y-121701549D01*
X166965473Y-121701556D01*
X167060960Y-121866944D01*
X167188747Y-122008866D01*
X167343248Y-122121118D01*
X167517712Y-122198794D01*
X167704513Y-122238500D01*
X167895487Y-122238500D01*
X168082288Y-122198794D01*
X168256752Y-122121118D01*
X168411253Y-122008866D01*
X168539040Y-121866944D01*
X168634527Y-121701556D01*
X168693542Y-121519928D01*
X168713504Y-121330000D01*
X168693542Y-121140072D01*
X168634527Y-120958444D01*
X168539040Y-120793056D01*
X168411253Y-120651134D01*
X168256752Y-120538882D01*
X168082288Y-120461206D01*
X168082286Y-120461205D01*
X167895487Y-120421500D01*
X167704513Y-120421500D01*
X167517714Y-120461205D01*
X167343246Y-120538883D01*
X167188745Y-120651135D01*
X167060959Y-120793057D01*
X166965473Y-120958443D01*
X166965470Y-120958450D01*
X166906459Y-121140068D01*
X166906458Y-121140072D01*
X166886496Y-121330000D01*
X119104375Y-121330000D01*
X119105561Y-119880000D01*
X131386496Y-119880000D01*
X131406458Y-120069928D01*
X131406459Y-120069931D01*
X131465470Y-120251549D01*
X131465473Y-120251556D01*
X131560960Y-120416944D01*
X131688747Y-120558866D01*
X131843248Y-120671118D01*
X132017712Y-120748794D01*
X132204513Y-120788500D01*
X132395487Y-120788500D01*
X132582288Y-120748794D01*
X132756752Y-120671118D01*
X132911253Y-120558866D01*
X133039040Y-120416944D01*
X133134527Y-120251556D01*
X133193542Y-120069928D01*
X133213504Y-119880000D01*
X133193542Y-119690072D01*
X133134527Y-119508444D01*
X133039040Y-119343056D01*
X132911253Y-119201134D01*
X132756752Y-119088882D01*
X132582288Y-119011206D01*
X132582286Y-119011205D01*
X132395487Y-118971500D01*
X132204513Y-118971500D01*
X132017714Y-119011205D01*
X131843246Y-119088883D01*
X131688745Y-119201135D01*
X131560959Y-119343057D01*
X131465473Y-119508443D01*
X131465470Y-119508450D01*
X131406459Y-119690068D01*
X131406458Y-119690072D01*
X131386496Y-119880000D01*
X119105561Y-119880000D01*
X119107729Y-117230000D01*
X167986496Y-117230000D01*
X168006458Y-117419928D01*
X168006459Y-117419931D01*
X168065470Y-117601549D01*
X168065473Y-117601556D01*
X168160960Y-117766944D01*
X168288747Y-117908866D01*
X168443248Y-118021118D01*
X168617712Y-118098794D01*
X168804513Y-118138500D01*
X168995487Y-118138500D01*
X169182288Y-118098794D01*
X169356752Y-118021118D01*
X169511253Y-117908866D01*
X169639040Y-117766944D01*
X169734527Y-117601556D01*
X169793542Y-117419928D01*
X169813504Y-117230000D01*
X169793542Y-117040072D01*
X169734527Y-116858444D01*
X169639040Y-116693056D01*
X169511253Y-116551134D01*
X169356752Y-116438882D01*
X169182288Y-116361206D01*
X169182286Y-116361205D01*
X168995487Y-116321500D01*
X168804513Y-116321500D01*
X168617714Y-116361205D01*
X168443246Y-116438883D01*
X168288745Y-116551135D01*
X168160959Y-116693057D01*
X168065473Y-116858443D01*
X168065470Y-116858450D01*
X168006459Y-117040068D01*
X168006458Y-117040072D01*
X167986496Y-117230000D01*
X119107729Y-117230000D01*
X119108833Y-115880000D01*
X124386496Y-115880000D01*
X124406458Y-116069928D01*
X124406459Y-116069931D01*
X124465470Y-116251549D01*
X124465473Y-116251556D01*
X124560960Y-116416944D01*
X124688747Y-116558866D01*
X124843248Y-116671118D01*
X125017712Y-116748794D01*
X125204513Y-116788500D01*
X125395487Y-116788500D01*
X125582288Y-116748794D01*
X125756752Y-116671118D01*
X125911253Y-116558866D01*
X126039040Y-116416944D01*
X126134527Y-116251556D01*
X126193542Y-116069928D01*
X126213504Y-115880000D01*
X131336496Y-115880000D01*
X131356458Y-116069928D01*
X131356459Y-116069931D01*
X131415470Y-116251549D01*
X131415473Y-116251556D01*
X131510960Y-116416944D01*
X131638747Y-116558866D01*
X131793248Y-116671118D01*
X131967712Y-116748794D01*
X132154513Y-116788500D01*
X132345487Y-116788500D01*
X132532288Y-116748794D01*
X132706752Y-116671118D01*
X132861253Y-116558866D01*
X132989040Y-116416944D01*
X133084527Y-116251556D01*
X133143542Y-116069928D01*
X133163504Y-115880000D01*
X138386496Y-115880000D01*
X138406458Y-116069928D01*
X138406459Y-116069931D01*
X138465470Y-116251549D01*
X138465473Y-116251556D01*
X138560960Y-116416944D01*
X138688747Y-116558866D01*
X138843248Y-116671118D01*
X139017712Y-116748794D01*
X139204513Y-116788500D01*
X139395487Y-116788500D01*
X139582288Y-116748794D01*
X139756752Y-116671118D01*
X139911253Y-116558866D01*
X140039040Y-116416944D01*
X140134527Y-116251556D01*
X140193542Y-116069928D01*
X140213504Y-115880000D01*
X145336496Y-115880000D01*
X145356458Y-116069928D01*
X145356459Y-116069931D01*
X145415470Y-116251549D01*
X145415473Y-116251556D01*
X145510960Y-116416944D01*
X145638747Y-116558866D01*
X145793248Y-116671118D01*
X145967712Y-116748794D01*
X146154513Y-116788500D01*
X146345487Y-116788500D01*
X146532288Y-116748794D01*
X146706752Y-116671118D01*
X146861253Y-116558866D01*
X146989040Y-116416944D01*
X147084527Y-116251556D01*
X147143542Y-116069928D01*
X147163504Y-115880000D01*
X152436496Y-115880000D01*
X152456458Y-116069928D01*
X152456459Y-116069931D01*
X152515470Y-116251549D01*
X152515473Y-116251556D01*
X152610960Y-116416944D01*
X152738747Y-116558866D01*
X152893248Y-116671118D01*
X153067712Y-116748794D01*
X153254513Y-116788500D01*
X153445487Y-116788500D01*
X153632288Y-116748794D01*
X153806752Y-116671118D01*
X153961253Y-116558866D01*
X154089040Y-116416944D01*
X154184527Y-116251556D01*
X154243542Y-116069928D01*
X154263504Y-115880000D01*
X154243542Y-115690072D01*
X154184527Y-115508444D01*
X154089040Y-115343056D01*
X153961253Y-115201134D01*
X153806752Y-115088882D01*
X153632288Y-115011206D01*
X153632286Y-115011205D01*
X153445487Y-114971500D01*
X153254513Y-114971500D01*
X153067714Y-115011205D01*
X153011496Y-115036235D01*
X152942711Y-115066860D01*
X152893246Y-115088883D01*
X152738745Y-115201135D01*
X152610959Y-115343057D01*
X152515473Y-115508443D01*
X152515470Y-115508450D01*
X152456459Y-115690068D01*
X152456458Y-115690072D01*
X152436496Y-115880000D01*
X147163504Y-115880000D01*
X147143542Y-115690072D01*
X147084527Y-115508444D01*
X146989040Y-115343056D01*
X146861253Y-115201134D01*
X146706752Y-115088882D01*
X146532288Y-115011206D01*
X146532286Y-115011205D01*
X146345487Y-114971500D01*
X146154513Y-114971500D01*
X145967714Y-115011205D01*
X145911496Y-115036235D01*
X145842711Y-115066860D01*
X145793246Y-115088883D01*
X145638745Y-115201135D01*
X145510959Y-115343057D01*
X145415473Y-115508443D01*
X145415470Y-115508450D01*
X145356459Y-115690068D01*
X145356458Y-115690072D01*
X145336496Y-115880000D01*
X140213504Y-115880000D01*
X140193542Y-115690072D01*
X140134527Y-115508444D01*
X140039040Y-115343056D01*
X139911253Y-115201134D01*
X139756752Y-115088882D01*
X139582288Y-115011206D01*
X139582286Y-115011205D01*
X139395487Y-114971500D01*
X139204513Y-114971500D01*
X139017714Y-115011205D01*
X138961496Y-115036235D01*
X138892711Y-115066860D01*
X138843246Y-115088883D01*
X138688745Y-115201135D01*
X138560959Y-115343057D01*
X138465473Y-115508443D01*
X138465470Y-115508450D01*
X138406459Y-115690068D01*
X138406458Y-115690072D01*
X138386496Y-115880000D01*
X133163504Y-115880000D01*
X133143542Y-115690072D01*
X133084527Y-115508444D01*
X132989040Y-115343056D01*
X132861253Y-115201134D01*
X132861249Y-115201130D01*
X132855995Y-115197313D01*
X132813331Y-115141982D01*
X132807355Y-115072368D01*
X132839963Y-115010575D01*
X132878446Y-114983720D01*
X132906752Y-114971118D01*
X133061253Y-114858866D01*
X133189040Y-114716944D01*
X133284527Y-114551556D01*
X133343542Y-114369928D01*
X133363504Y-114180000D01*
X139836496Y-114180000D01*
X139856458Y-114369928D01*
X139856459Y-114369931D01*
X139915470Y-114551549D01*
X139915473Y-114551556D01*
X140010960Y-114716944D01*
X140138747Y-114858866D01*
X140293248Y-114971118D01*
X140467712Y-115048794D01*
X140654513Y-115088500D01*
X140845487Y-115088500D01*
X140972303Y-115061544D01*
X141041970Y-115066860D01*
X141097703Y-115108997D01*
X141105468Y-115120830D01*
X141160960Y-115216944D01*
X141234658Y-115298794D01*
X141274512Y-115343057D01*
X141288747Y-115358866D01*
X141443248Y-115471118D01*
X141617712Y-115548794D01*
X141804513Y-115588500D01*
X141995487Y-115588500D01*
X142182288Y-115548794D01*
X142356752Y-115471118D01*
X142511253Y-115358866D01*
X142639040Y-115216944D01*
X142734527Y-115051556D01*
X142774023Y-114930000D01*
X148186496Y-114930000D01*
X148206458Y-115119928D01*
X148206459Y-115119931D01*
X148265470Y-115301549D01*
X148265473Y-115301556D01*
X148360960Y-115466944D01*
X148488747Y-115608866D01*
X148643248Y-115721118D01*
X148817712Y-115798794D01*
X149004513Y-115838500D01*
X149195487Y-115838500D01*
X149382288Y-115798794D01*
X149556752Y-115721118D01*
X149711253Y-115608866D01*
X149839040Y-115466944D01*
X149934527Y-115301556D01*
X149993542Y-115119928D01*
X150013504Y-114930000D01*
X149993542Y-114740072D01*
X149934527Y-114558444D01*
X149860370Y-114430000D01*
X154136496Y-114430000D01*
X154156458Y-114619928D01*
X154156459Y-114619931D01*
X154215470Y-114801549D01*
X154215473Y-114801556D01*
X154310960Y-114966944D01*
X154438747Y-115108866D01*
X154593248Y-115221118D01*
X154767712Y-115298794D01*
X154954513Y-115338500D01*
X155145487Y-115338500D01*
X155332288Y-115298794D01*
X155506752Y-115221118D01*
X155661253Y-115108866D01*
X155789040Y-114966944D01*
X155884527Y-114801556D01*
X155891531Y-114780000D01*
X158836496Y-114780000D01*
X158856458Y-114969928D01*
X158856459Y-114969931D01*
X158915470Y-115151549D01*
X158915473Y-115151556D01*
X159010960Y-115316944D01*
X159138747Y-115458866D01*
X159262522Y-115548794D01*
X159293251Y-115571120D01*
X159331037Y-115587943D01*
X159384275Y-115633192D01*
X159404597Y-115700041D01*
X159403924Y-115714179D01*
X159386496Y-115880000D01*
X159406458Y-116069928D01*
X159406459Y-116069931D01*
X159465470Y-116251549D01*
X159465473Y-116251556D01*
X159560960Y-116416944D01*
X159688747Y-116558866D01*
X159843248Y-116671118D01*
X160017712Y-116748794D01*
X160204513Y-116788500D01*
X160395487Y-116788500D01*
X160582288Y-116748794D01*
X160756752Y-116671118D01*
X160911253Y-116558866D01*
X161039040Y-116416944D01*
X161134527Y-116251556D01*
X161193542Y-116069928D01*
X161213504Y-115880000D01*
X161193542Y-115690072D01*
X161134527Y-115508444D01*
X161039040Y-115343056D01*
X160911253Y-115201134D01*
X160756752Y-115088882D01*
X160718959Y-115072055D01*
X160665723Y-115026806D01*
X160645402Y-114959957D01*
X160646073Y-114945838D01*
X160663504Y-114780000D01*
X160643542Y-114590072D01*
X160584527Y-114408444D01*
X160489040Y-114243056D01*
X160361253Y-114101134D01*
X160206752Y-113988882D01*
X160032288Y-113911206D01*
X160032286Y-113911205D01*
X159845487Y-113871500D01*
X159654513Y-113871500D01*
X159467714Y-113911205D01*
X159293246Y-113988883D01*
X159138745Y-114101135D01*
X159010959Y-114243057D01*
X158915473Y-114408443D01*
X158915470Y-114408450D01*
X158856459Y-114590068D01*
X158856458Y-114590072D01*
X158836496Y-114780000D01*
X155891531Y-114780000D01*
X155943542Y-114619928D01*
X155963504Y-114430000D01*
X155943542Y-114240072D01*
X155884527Y-114058444D01*
X155789040Y-113893056D01*
X155661253Y-113751134D01*
X155506752Y-113638882D01*
X155332288Y-113561206D01*
X155332286Y-113561205D01*
X155145487Y-113521500D01*
X154954513Y-113521500D01*
X154767714Y-113561205D01*
X154593246Y-113638883D01*
X154438745Y-113751135D01*
X154310959Y-113893057D01*
X154215473Y-114058443D01*
X154215470Y-114058450D01*
X154156459Y-114240068D01*
X154156458Y-114240072D01*
X154136496Y-114430000D01*
X149860370Y-114430000D01*
X149839040Y-114393056D01*
X149711253Y-114251134D01*
X149556752Y-114138882D01*
X149382288Y-114061206D01*
X149382286Y-114061205D01*
X149195487Y-114021500D01*
X149004513Y-114021500D01*
X148817714Y-114061205D01*
X148643246Y-114138883D01*
X148488745Y-114251135D01*
X148360959Y-114393057D01*
X148265473Y-114558443D01*
X148265470Y-114558450D01*
X148206459Y-114740068D01*
X148206458Y-114740072D01*
X148186496Y-114930000D01*
X142774023Y-114930000D01*
X142793542Y-114869928D01*
X142813504Y-114680000D01*
X142793542Y-114490072D01*
X142734527Y-114308444D01*
X142639040Y-114143056D01*
X142511253Y-114001134D01*
X142356752Y-113888882D01*
X142182288Y-113811206D01*
X142182286Y-113811205D01*
X141995487Y-113771500D01*
X141804513Y-113771500D01*
X141677697Y-113798455D01*
X141608029Y-113793139D01*
X141552296Y-113751002D01*
X141544529Y-113739165D01*
X141524331Y-113704182D01*
X141489040Y-113643056D01*
X141361253Y-113501134D01*
X141283668Y-113444765D01*
X141241004Y-113389436D01*
X141235025Y-113319822D01*
X141267631Y-113258027D01*
X141328470Y-113223670D01*
X141382335Y-113223158D01*
X141454513Y-113238500D01*
X141645487Y-113238500D01*
X141832288Y-113198794D01*
X142006752Y-113121118D01*
X142161253Y-113008866D01*
X142289040Y-112866944D01*
X142384527Y-112701556D01*
X142443542Y-112519928D01*
X142463504Y-112330000D01*
X142443542Y-112140072D01*
X142391531Y-111980000D01*
X147686496Y-111980000D01*
X147706458Y-112169928D01*
X147706459Y-112169931D01*
X147765470Y-112351549D01*
X147765473Y-112351556D01*
X147860960Y-112516944D01*
X147988747Y-112658866D01*
X148143248Y-112771118D01*
X148317712Y-112848794D01*
X148504513Y-112888500D01*
X148695487Y-112888500D01*
X148882288Y-112848794D01*
X149056752Y-112771118D01*
X149182165Y-112680000D01*
X166986496Y-112680000D01*
X167006458Y-112869928D01*
X167006459Y-112869931D01*
X167065470Y-113051549D01*
X167065473Y-113051556D01*
X167160960Y-113216944D01*
X167288747Y-113358866D01*
X167443248Y-113471118D01*
X167617712Y-113548794D01*
X167804513Y-113588500D01*
X167995487Y-113588500D01*
X168182288Y-113548794D01*
X168356752Y-113471118D01*
X168511253Y-113358866D01*
X168639040Y-113216944D01*
X168734527Y-113051556D01*
X168793542Y-112869928D01*
X168813504Y-112680000D01*
X168793542Y-112490072D01*
X168734527Y-112308444D01*
X168639040Y-112143056D01*
X168511253Y-112001134D01*
X168356752Y-111888882D01*
X168182288Y-111811206D01*
X168182286Y-111811205D01*
X167995487Y-111771500D01*
X167804513Y-111771500D01*
X167617714Y-111811205D01*
X167443246Y-111888883D01*
X167288745Y-112001135D01*
X167160959Y-112143057D01*
X167065473Y-112308443D01*
X167065470Y-112308450D01*
X167006459Y-112490068D01*
X167006458Y-112490072D01*
X166986496Y-112680000D01*
X149182165Y-112680000D01*
X149211253Y-112658866D01*
X149339040Y-112516944D01*
X149434527Y-112351556D01*
X149493542Y-112169928D01*
X149513504Y-111980000D01*
X149493542Y-111790072D01*
X149434527Y-111608444D01*
X149339040Y-111443056D01*
X149211253Y-111301134D01*
X149056752Y-111188882D01*
X148882288Y-111111206D01*
X148882286Y-111111205D01*
X148695487Y-111071500D01*
X148504513Y-111071500D01*
X148317714Y-111111205D01*
X148143246Y-111188883D01*
X147988745Y-111301135D01*
X147860959Y-111443057D01*
X147765473Y-111608443D01*
X147765470Y-111608450D01*
X147725522Y-111731398D01*
X147706458Y-111790072D01*
X147686496Y-111980000D01*
X142391531Y-111980000D01*
X142384527Y-111958444D01*
X142289040Y-111793056D01*
X142161253Y-111651134D01*
X142006752Y-111538882D01*
X142006751Y-111538881D01*
X141975238Y-111524851D01*
X141922001Y-111479601D01*
X141901680Y-111412752D01*
X141920725Y-111345528D01*
X141933515Y-111328610D01*
X141989040Y-111266944D01*
X142084527Y-111101556D01*
X142143542Y-110919928D01*
X142163504Y-110730000D01*
X154836496Y-110730000D01*
X154856458Y-110919928D01*
X154856459Y-110919931D01*
X154915470Y-111101549D01*
X154915473Y-111101556D01*
X155010960Y-111266944D01*
X155138747Y-111408866D01*
X155293248Y-111521118D01*
X155467712Y-111598794D01*
X155654513Y-111638500D01*
X155845487Y-111638500D01*
X156032288Y-111598794D01*
X156206752Y-111521118D01*
X156361253Y-111408866D01*
X156489040Y-111266944D01*
X156584527Y-111101556D01*
X156643542Y-110919928D01*
X156658249Y-110780000D01*
X161936496Y-110780000D01*
X161956458Y-110969928D01*
X161956459Y-110969931D01*
X162015470Y-111151549D01*
X162015473Y-111151556D01*
X162110960Y-111316944D01*
X162193725Y-111408864D01*
X162224512Y-111443057D01*
X162238747Y-111458866D01*
X162393248Y-111571118D01*
X162567712Y-111648794D01*
X162754513Y-111688500D01*
X162945487Y-111688500D01*
X163132288Y-111648794D01*
X163306752Y-111571118D01*
X163461253Y-111458866D01*
X163589040Y-111316944D01*
X163684527Y-111151556D01*
X163743542Y-110969928D01*
X163763504Y-110780000D01*
X163743542Y-110590072D01*
X163684527Y-110408444D01*
X163589040Y-110243056D01*
X163532264Y-110180000D01*
X167986496Y-110180000D01*
X168006458Y-110369928D01*
X168006459Y-110369931D01*
X168065470Y-110551549D01*
X168065473Y-110551556D01*
X168160960Y-110716944D01*
X168288747Y-110858866D01*
X168443248Y-110971118D01*
X168617712Y-111048794D01*
X168804513Y-111088500D01*
X168995487Y-111088500D01*
X169182288Y-111048794D01*
X169356752Y-110971118D01*
X169511253Y-110858866D01*
X169639040Y-110716944D01*
X169734527Y-110551556D01*
X169793542Y-110369928D01*
X169813504Y-110180000D01*
X169793542Y-109990072D01*
X169734527Y-109808444D01*
X169639040Y-109643056D01*
X169511253Y-109501134D01*
X169356752Y-109388882D01*
X169182288Y-109311206D01*
X169182286Y-109311205D01*
X168995487Y-109271500D01*
X168804513Y-109271500D01*
X168617714Y-109311205D01*
X168443246Y-109388883D01*
X168288745Y-109501135D01*
X168160959Y-109643057D01*
X168065473Y-109808443D01*
X168065470Y-109808450D01*
X168006844Y-109988883D01*
X168006458Y-109990072D01*
X167986496Y-110180000D01*
X163532264Y-110180000D01*
X163461253Y-110101134D01*
X163306752Y-109988882D01*
X163132288Y-109911206D01*
X163132286Y-109911205D01*
X162945487Y-109871500D01*
X162754513Y-109871500D01*
X162567714Y-109911205D01*
X162393246Y-109988883D01*
X162238745Y-110101135D01*
X162110959Y-110243057D01*
X162015473Y-110408443D01*
X162015470Y-110408450D01*
X161956459Y-110590068D01*
X161956458Y-110590072D01*
X161936496Y-110780000D01*
X156658249Y-110780000D01*
X156663504Y-110730000D01*
X156643542Y-110540072D01*
X156584527Y-110358444D01*
X156489040Y-110193056D01*
X156361253Y-110051134D01*
X156206752Y-109938882D01*
X156032288Y-109861206D01*
X156032286Y-109861205D01*
X155845487Y-109821500D01*
X155654513Y-109821500D01*
X155467714Y-109861205D01*
X155293246Y-109938883D01*
X155138745Y-110051135D01*
X155010959Y-110193057D01*
X154915473Y-110358443D01*
X154915470Y-110358450D01*
X154856459Y-110540068D01*
X154856458Y-110540072D01*
X154836496Y-110730000D01*
X142163504Y-110730000D01*
X142143542Y-110540072D01*
X142084527Y-110358444D01*
X141989040Y-110193056D01*
X141861253Y-110051134D01*
X141706752Y-109938882D01*
X141532288Y-109861206D01*
X141532286Y-109861205D01*
X141345487Y-109821500D01*
X141154513Y-109821500D01*
X140967714Y-109861205D01*
X140793246Y-109938883D01*
X140638745Y-110051135D01*
X140510959Y-110193057D01*
X140415473Y-110358443D01*
X140415470Y-110358450D01*
X140356459Y-110540068D01*
X140356458Y-110540072D01*
X140336496Y-110730000D01*
X140356458Y-110919928D01*
X140356459Y-110919931D01*
X140415470Y-111101549D01*
X140415473Y-111101556D01*
X140510960Y-111266944D01*
X140638747Y-111408866D01*
X140793248Y-111521118D01*
X140824760Y-111535148D01*
X140877997Y-111580397D01*
X140898319Y-111647246D01*
X140879274Y-111714469D01*
X140866476Y-111731398D01*
X140810959Y-111793057D01*
X140715473Y-111958443D01*
X140715470Y-111958450D01*
X140656459Y-112140068D01*
X140656458Y-112140072D01*
X140636496Y-112330000D01*
X140656458Y-112519928D01*
X140656459Y-112519931D01*
X140715470Y-112701549D01*
X140715473Y-112701556D01*
X140810960Y-112866944D01*
X140938747Y-113008866D01*
X141016331Y-113065234D01*
X141058995Y-113120563D01*
X141064974Y-113190176D01*
X141032368Y-113251971D01*
X140971529Y-113286329D01*
X140917664Y-113286841D01*
X140845488Y-113271500D01*
X140845487Y-113271500D01*
X140654513Y-113271500D01*
X140467714Y-113311205D01*
X140293246Y-113388883D01*
X140138745Y-113501135D01*
X140010959Y-113643057D01*
X139915473Y-113808443D01*
X139915470Y-113808450D01*
X139856844Y-113988883D01*
X139856458Y-113990072D01*
X139836496Y-114180000D01*
X133363504Y-114180000D01*
X133343542Y-113990072D01*
X133284527Y-113808444D01*
X133189040Y-113643056D01*
X133061253Y-113501134D01*
X132906752Y-113388882D01*
X132732288Y-113311206D01*
X132732286Y-113311205D01*
X132545487Y-113271500D01*
X132354513Y-113271500D01*
X132167714Y-113311205D01*
X131993246Y-113388883D01*
X131838745Y-113501135D01*
X131710959Y-113643057D01*
X131615473Y-113808443D01*
X131615470Y-113808450D01*
X131556844Y-113988883D01*
X131556458Y-113990072D01*
X131536496Y-114180000D01*
X131556458Y-114369928D01*
X131556459Y-114369931D01*
X131615470Y-114551549D01*
X131615473Y-114551556D01*
X131710960Y-114716944D01*
X131731785Y-114740072D01*
X131838746Y-114858865D01*
X131844002Y-114862684D01*
X131886667Y-114918015D01*
X131892645Y-114987629D01*
X131860038Y-115049423D01*
X131821553Y-115076280D01*
X131793245Y-115088883D01*
X131638745Y-115201135D01*
X131510959Y-115343057D01*
X131415473Y-115508443D01*
X131415470Y-115508450D01*
X131356459Y-115690068D01*
X131356458Y-115690072D01*
X131336496Y-115880000D01*
X126213504Y-115880000D01*
X126193542Y-115690072D01*
X126134527Y-115508444D01*
X126039040Y-115343056D01*
X125911253Y-115201134D01*
X125756752Y-115088882D01*
X125582288Y-115011206D01*
X125582286Y-115011205D01*
X125395487Y-114971500D01*
X125204513Y-114971500D01*
X125017714Y-115011205D01*
X124961496Y-115036235D01*
X124892711Y-115066860D01*
X124843246Y-115088883D01*
X124688745Y-115201135D01*
X124560959Y-115343057D01*
X124465473Y-115508443D01*
X124465470Y-115508450D01*
X124406459Y-115690068D01*
X124406458Y-115690072D01*
X124386496Y-115880000D01*
X119108833Y-115880000D01*
X119112268Y-111680000D01*
X125386496Y-111680000D01*
X125406458Y-111869928D01*
X125406459Y-111869931D01*
X125465470Y-112051549D01*
X125465473Y-112051556D01*
X125560960Y-112216944D01*
X125688747Y-112358866D01*
X125843248Y-112471118D01*
X126017712Y-112548794D01*
X126204513Y-112588500D01*
X126395487Y-112588500D01*
X126582288Y-112548794D01*
X126756752Y-112471118D01*
X126911253Y-112358866D01*
X127039040Y-112216944D01*
X127134527Y-112051556D01*
X127193542Y-111869928D01*
X127213504Y-111680000D01*
X127193542Y-111490072D01*
X127134527Y-111308444D01*
X127039040Y-111143056D01*
X126911253Y-111001134D01*
X126756752Y-110888882D01*
X126582288Y-110811206D01*
X126582286Y-110811205D01*
X126395487Y-110771500D01*
X126204513Y-110771500D01*
X126017714Y-110811205D01*
X125843246Y-110888883D01*
X125688745Y-111001135D01*
X125560959Y-111143057D01*
X125465473Y-111308443D01*
X125465470Y-111308450D01*
X125415837Y-111461206D01*
X125406458Y-111490072D01*
X125386496Y-111680000D01*
X119112268Y-111680000D01*
X119114313Y-109180000D01*
X125036496Y-109180000D01*
X125056458Y-109369928D01*
X125056459Y-109369931D01*
X125115470Y-109551549D01*
X125115473Y-109551556D01*
X125210960Y-109716944D01*
X125338747Y-109858866D01*
X125493248Y-109971118D01*
X125667712Y-110048794D01*
X125854513Y-110088500D01*
X126045487Y-110088500D01*
X126232288Y-110048794D01*
X126406752Y-109971118D01*
X126561253Y-109858866D01*
X126689040Y-109716944D01*
X126784527Y-109551556D01*
X126843542Y-109369928D01*
X126863504Y-109180000D01*
X131836496Y-109180000D01*
X131856458Y-109369928D01*
X131856459Y-109369931D01*
X131915470Y-109551549D01*
X131915473Y-109551556D01*
X132010960Y-109716944D01*
X132138747Y-109858866D01*
X132293248Y-109971118D01*
X132467712Y-110048794D01*
X132654513Y-110088500D01*
X132845487Y-110088500D01*
X133032288Y-110048794D01*
X133206752Y-109971118D01*
X133317031Y-109890995D01*
X133382835Y-109867515D01*
X133450889Y-109883340D01*
X133499584Y-109933445D01*
X133513460Y-110001923D01*
X133497303Y-110053311D01*
X133465474Y-110108441D01*
X133465470Y-110108450D01*
X133421734Y-110243057D01*
X133406458Y-110290072D01*
X133386496Y-110480000D01*
X133406458Y-110669928D01*
X133406459Y-110669931D01*
X133465470Y-110851549D01*
X133465473Y-110851556D01*
X133560960Y-111016944D01*
X133637139Y-111101549D01*
X133674512Y-111143057D01*
X133688747Y-111158866D01*
X133843248Y-111271118D01*
X134017712Y-111348794D01*
X134204513Y-111388500D01*
X134395487Y-111388500D01*
X134582288Y-111348794D01*
X134756752Y-111271118D01*
X134911253Y-111158866D01*
X135039040Y-111016944D01*
X135134527Y-110851556D01*
X135193542Y-110669928D01*
X135213504Y-110480000D01*
X135193542Y-110290072D01*
X135134527Y-110108444D01*
X135039040Y-109943056D01*
X134911253Y-109801134D01*
X134756752Y-109688882D01*
X134582288Y-109611206D01*
X134582286Y-109611205D01*
X134395487Y-109571500D01*
X134204513Y-109571500D01*
X134017714Y-109611205D01*
X133843243Y-109688884D01*
X133732969Y-109769004D01*
X133667163Y-109792484D01*
X133599109Y-109776659D01*
X133550414Y-109726553D01*
X133536539Y-109658075D01*
X133552696Y-109606688D01*
X133584527Y-109551556D01*
X133643542Y-109369928D01*
X133663504Y-109180000D01*
X138836496Y-109180000D01*
X138856458Y-109369928D01*
X138856459Y-109369931D01*
X138915470Y-109551549D01*
X138915473Y-109551556D01*
X139010960Y-109716944D01*
X139138747Y-109858866D01*
X139293248Y-109971118D01*
X139467712Y-110048794D01*
X139654513Y-110088500D01*
X139845487Y-110088500D01*
X140032288Y-110048794D01*
X140206752Y-109971118D01*
X140361253Y-109858866D01*
X140489040Y-109716944D01*
X140584527Y-109551556D01*
X140643542Y-109369928D01*
X140663504Y-109180000D01*
X145761496Y-109180000D01*
X145781458Y-109369928D01*
X145781459Y-109369931D01*
X145840470Y-109551549D01*
X145840473Y-109551556D01*
X145935960Y-109716944D01*
X146063747Y-109858866D01*
X146218248Y-109971118D01*
X146392712Y-110048794D01*
X146579513Y-110088500D01*
X146770487Y-110088500D01*
X146957288Y-110048794D01*
X147131752Y-109971118D01*
X147286253Y-109858866D01*
X147414040Y-109716944D01*
X147509527Y-109551556D01*
X147568542Y-109369928D01*
X147588504Y-109180000D01*
X153186496Y-109180000D01*
X153206458Y-109369928D01*
X153206459Y-109369931D01*
X153265470Y-109551549D01*
X153265473Y-109551556D01*
X153360960Y-109716944D01*
X153488747Y-109858866D01*
X153643248Y-109971118D01*
X153817712Y-110048794D01*
X154004513Y-110088500D01*
X154195487Y-110088500D01*
X154382288Y-110048794D01*
X154556752Y-109971118D01*
X154711253Y-109858866D01*
X154839040Y-109716944D01*
X154934527Y-109551556D01*
X154993542Y-109369928D01*
X155010498Y-109208597D01*
X160407899Y-109208597D01*
X160427861Y-109398525D01*
X160427862Y-109398528D01*
X160486873Y-109580146D01*
X160486876Y-109580153D01*
X160582363Y-109745541D01*
X160650757Y-109821500D01*
X160706437Y-109883340D01*
X160710150Y-109887463D01*
X160864651Y-109999715D01*
X161039115Y-110077391D01*
X161225916Y-110117097D01*
X161416890Y-110117097D01*
X161603691Y-110077391D01*
X161778155Y-109999715D01*
X161932656Y-109887463D01*
X162060443Y-109745541D01*
X162155930Y-109580153D01*
X162214945Y-109398525D01*
X162234907Y-109208597D01*
X162214945Y-109018669D01*
X162155930Y-108837041D01*
X162060443Y-108671653D01*
X161932656Y-108529731D01*
X161778155Y-108417479D01*
X161603691Y-108339803D01*
X161603689Y-108339802D01*
X161416890Y-108300097D01*
X161225916Y-108300097D01*
X161039117Y-108339802D01*
X160864649Y-108417480D01*
X160710148Y-108529732D01*
X160582362Y-108671654D01*
X160486876Y-108837040D01*
X160486873Y-108837047D01*
X160427862Y-109018665D01*
X160427861Y-109018669D01*
X160407899Y-109208597D01*
X155010498Y-109208597D01*
X155013504Y-109180000D01*
X154993542Y-108990072D01*
X154934527Y-108808444D01*
X154839040Y-108643056D01*
X154711253Y-108501134D01*
X154556752Y-108388882D01*
X154382288Y-108311206D01*
X154382286Y-108311205D01*
X154195487Y-108271500D01*
X154004513Y-108271500D01*
X153817714Y-108311205D01*
X153643246Y-108388883D01*
X153488745Y-108501135D01*
X153360959Y-108643057D01*
X153265473Y-108808443D01*
X153265470Y-108808450D01*
X153206459Y-108990068D01*
X153206458Y-108990072D01*
X153186496Y-109180000D01*
X147588504Y-109180000D01*
X147568542Y-108990072D01*
X147509527Y-108808444D01*
X147414040Y-108643056D01*
X147286253Y-108501134D01*
X147131752Y-108388882D01*
X146957288Y-108311206D01*
X146957286Y-108311205D01*
X146770487Y-108271500D01*
X146579513Y-108271500D01*
X146392714Y-108311205D01*
X146218246Y-108388883D01*
X146063745Y-108501135D01*
X145935959Y-108643057D01*
X145840473Y-108808443D01*
X145840470Y-108808450D01*
X145781459Y-108990068D01*
X145781458Y-108990072D01*
X145761496Y-109180000D01*
X140663504Y-109180000D01*
X140643542Y-108990072D01*
X140584527Y-108808444D01*
X140489040Y-108643056D01*
X140361253Y-108501134D01*
X140206752Y-108388882D01*
X140032288Y-108311206D01*
X140032286Y-108311205D01*
X139845487Y-108271500D01*
X139654513Y-108271500D01*
X139467714Y-108311205D01*
X139293246Y-108388883D01*
X139138745Y-108501135D01*
X139010959Y-108643057D01*
X138915473Y-108808443D01*
X138915470Y-108808450D01*
X138856459Y-108990068D01*
X138856458Y-108990072D01*
X138836496Y-109180000D01*
X133663504Y-109180000D01*
X133643542Y-108990072D01*
X133584527Y-108808444D01*
X133489040Y-108643056D01*
X133361253Y-108501134D01*
X133206752Y-108388882D01*
X133032288Y-108311206D01*
X133032286Y-108311205D01*
X132845487Y-108271500D01*
X132654513Y-108271500D01*
X132467714Y-108311205D01*
X132293246Y-108388883D01*
X132138745Y-108501135D01*
X132010959Y-108643057D01*
X131915473Y-108808443D01*
X131915470Y-108808450D01*
X131856459Y-108990068D01*
X131856458Y-108990072D01*
X131836496Y-109180000D01*
X126863504Y-109180000D01*
X126843542Y-108990072D01*
X126784527Y-108808444D01*
X126689040Y-108643056D01*
X126561253Y-108501134D01*
X126406752Y-108388882D01*
X126232288Y-108311206D01*
X126232286Y-108311205D01*
X126045487Y-108271500D01*
X125854513Y-108271500D01*
X125667714Y-108311205D01*
X125493246Y-108388883D01*
X125338745Y-108501135D01*
X125210959Y-108643057D01*
X125115473Y-108808443D01*
X125115470Y-108808450D01*
X125056459Y-108990068D01*
X125056458Y-108990072D01*
X125036496Y-109180000D01*
X119114313Y-109180000D01*
X119117584Y-105180000D01*
X138886496Y-105180000D01*
X138906458Y-105369928D01*
X138906459Y-105369931D01*
X138965470Y-105551549D01*
X138965473Y-105551556D01*
X139060960Y-105716944D01*
X139188747Y-105858866D01*
X139343248Y-105971118D01*
X139517712Y-106048794D01*
X139704513Y-106088500D01*
X139895487Y-106088500D01*
X140082288Y-106048794D01*
X140256752Y-105971118D01*
X140411253Y-105858866D01*
X140539040Y-105716944D01*
X140634527Y-105551556D01*
X140657777Y-105480000D01*
X153186496Y-105480000D01*
X153206458Y-105669928D01*
X153206459Y-105669931D01*
X153265470Y-105851549D01*
X153265473Y-105851556D01*
X153360960Y-106016944D01*
X153488747Y-106158866D01*
X153643248Y-106271118D01*
X153817712Y-106348794D01*
X154004513Y-106388500D01*
X154195487Y-106388500D01*
X154382288Y-106348794D01*
X154556752Y-106271118D01*
X154711253Y-106158866D01*
X154839040Y-106016944D01*
X154934527Y-105851556D01*
X154993542Y-105669928D01*
X155013504Y-105480000D01*
X154993542Y-105290072D01*
X154934527Y-105108444D01*
X154839040Y-104943056D01*
X154711253Y-104801134D01*
X154556752Y-104688882D01*
X154536803Y-104680000D01*
X158936496Y-104680000D01*
X158956458Y-104869928D01*
X158956459Y-104869931D01*
X159015470Y-105051549D01*
X159015473Y-105051556D01*
X159110960Y-105216944D01*
X159238747Y-105358866D01*
X159393248Y-105471118D01*
X159567712Y-105548794D01*
X159754513Y-105588500D01*
X159945487Y-105588500D01*
X160132288Y-105548794D01*
X160306752Y-105471118D01*
X160363346Y-105430000D01*
X166236496Y-105430000D01*
X166256458Y-105619928D01*
X166256459Y-105619931D01*
X166315470Y-105801549D01*
X166315473Y-105801556D01*
X166410960Y-105966944D01*
X166538747Y-106108866D01*
X166693248Y-106221118D01*
X166867712Y-106298794D01*
X167054513Y-106338500D01*
X167245487Y-106338500D01*
X167432288Y-106298794D01*
X167606752Y-106221118D01*
X167761253Y-106108866D01*
X167889040Y-105966944D01*
X167984527Y-105801556D01*
X168043542Y-105619928D01*
X168063504Y-105430000D01*
X168043542Y-105240072D01*
X167984527Y-105058444D01*
X167889040Y-104893056D01*
X167761253Y-104751134D01*
X167606752Y-104638882D01*
X167432288Y-104561206D01*
X167432286Y-104561205D01*
X167245487Y-104521500D01*
X167054513Y-104521500D01*
X166867714Y-104561205D01*
X166693246Y-104638883D01*
X166538745Y-104751135D01*
X166410959Y-104893057D01*
X166315473Y-105058443D01*
X166315470Y-105058450D01*
X166256459Y-105240068D01*
X166256458Y-105240072D01*
X166236496Y-105430000D01*
X160363346Y-105430000D01*
X160461253Y-105358866D01*
X160589040Y-105216944D01*
X160684527Y-105051556D01*
X160743542Y-104869928D01*
X160763504Y-104680000D01*
X160743542Y-104490072D01*
X160684527Y-104308444D01*
X160589040Y-104143056D01*
X160461253Y-104001134D01*
X160306752Y-103888882D01*
X160132288Y-103811206D01*
X160132286Y-103811205D01*
X159945487Y-103771500D01*
X159754513Y-103771500D01*
X159567714Y-103811205D01*
X159567712Y-103811206D01*
X159413198Y-103880000D01*
X159393246Y-103888883D01*
X159238745Y-104001135D01*
X159110959Y-104143057D01*
X159015473Y-104308443D01*
X159015470Y-104308450D01*
X158956459Y-104490068D01*
X158956458Y-104490072D01*
X158936496Y-104680000D01*
X154536803Y-104680000D01*
X154382288Y-104611206D01*
X154382286Y-104611205D01*
X154195487Y-104571500D01*
X154004513Y-104571500D01*
X153817714Y-104611205D01*
X153817712Y-104611206D01*
X153663198Y-104680000D01*
X153643246Y-104688883D01*
X153488745Y-104801135D01*
X153360959Y-104943057D01*
X153265473Y-105108443D01*
X153265470Y-105108450D01*
X153222705Y-105240068D01*
X153206458Y-105290072D01*
X153186496Y-105480000D01*
X140657777Y-105480000D01*
X140693542Y-105369928D01*
X140713504Y-105180000D01*
X140693542Y-104990072D01*
X140634527Y-104808444D01*
X140602696Y-104753312D01*
X140586224Y-104685412D01*
X140609077Y-104619386D01*
X140663998Y-104576195D01*
X140733551Y-104569554D01*
X140782966Y-104590993D01*
X140893248Y-104671118D01*
X141067712Y-104748794D01*
X141254513Y-104788500D01*
X141445487Y-104788500D01*
X141632288Y-104748794D01*
X141806752Y-104671118D01*
X141961253Y-104558866D01*
X142089040Y-104416944D01*
X142184527Y-104251556D01*
X142243542Y-104069928D01*
X142263504Y-103880000D01*
X142243542Y-103690072D01*
X142191531Y-103530000D01*
X147836496Y-103530000D01*
X147856458Y-103719928D01*
X147856459Y-103719931D01*
X147915470Y-103901549D01*
X147915473Y-103901556D01*
X148010960Y-104066944D01*
X148138747Y-104208866D01*
X148293248Y-104321118D01*
X148467712Y-104398794D01*
X148654513Y-104438500D01*
X148845487Y-104438500D01*
X149032288Y-104398794D01*
X149206752Y-104321118D01*
X149361253Y-104208866D01*
X149489040Y-104066944D01*
X149584527Y-103901556D01*
X149643542Y-103719928D01*
X149663504Y-103530000D01*
X149643542Y-103340072D01*
X149607777Y-103230000D01*
X167986496Y-103230000D01*
X168006458Y-103419928D01*
X168006459Y-103419931D01*
X168065470Y-103601549D01*
X168065473Y-103601556D01*
X168160960Y-103766944D01*
X168288747Y-103908866D01*
X168443248Y-104021118D01*
X168617712Y-104098794D01*
X168804513Y-104138500D01*
X168995487Y-104138500D01*
X169182288Y-104098794D01*
X169356752Y-104021118D01*
X169511253Y-103908866D01*
X169639040Y-103766944D01*
X169734527Y-103601556D01*
X169793542Y-103419928D01*
X169813504Y-103230000D01*
X169793542Y-103040072D01*
X169734527Y-102858444D01*
X169639040Y-102693056D01*
X169511253Y-102551134D01*
X169356752Y-102438882D01*
X169182288Y-102361206D01*
X169182286Y-102361205D01*
X168995487Y-102321500D01*
X168804513Y-102321500D01*
X168617714Y-102361205D01*
X168443246Y-102438883D01*
X168288745Y-102551135D01*
X168160959Y-102693057D01*
X168065473Y-102858443D01*
X168065470Y-102858450D01*
X168015837Y-103011206D01*
X168006458Y-103040072D01*
X167986496Y-103230000D01*
X149607777Y-103230000D01*
X149584527Y-103158444D01*
X149489040Y-102993056D01*
X149361253Y-102851134D01*
X149206752Y-102738882D01*
X149032288Y-102661206D01*
X149032286Y-102661205D01*
X148845487Y-102621500D01*
X148654513Y-102621500D01*
X148467714Y-102661205D01*
X148293246Y-102738883D01*
X148138745Y-102851135D01*
X148010959Y-102993057D01*
X147915473Y-103158443D01*
X147915470Y-103158450D01*
X147856459Y-103340068D01*
X147856458Y-103340072D01*
X147836496Y-103530000D01*
X142191531Y-103530000D01*
X142184527Y-103508444D01*
X142089040Y-103343056D01*
X141961253Y-103201134D01*
X141806752Y-103088882D01*
X141632288Y-103011206D01*
X141632286Y-103011205D01*
X141445487Y-102971500D01*
X141254513Y-102971500D01*
X141067714Y-103011205D01*
X140893246Y-103088883D01*
X140738745Y-103201135D01*
X140610959Y-103343057D01*
X140515473Y-103508443D01*
X140515470Y-103508450D01*
X140456459Y-103690068D01*
X140456458Y-103690072D01*
X140436496Y-103880000D01*
X140456458Y-104069928D01*
X140456459Y-104069931D01*
X140515470Y-104251549D01*
X140515472Y-104251553D01*
X140515473Y-104251556D01*
X140526988Y-104271500D01*
X140547303Y-104306687D01*
X140563775Y-104374587D01*
X140540922Y-104440614D01*
X140486000Y-104483804D01*
X140416447Y-104490445D01*
X140367031Y-104469005D01*
X140256752Y-104388882D01*
X140082288Y-104311206D01*
X140082286Y-104311205D01*
X139895487Y-104271500D01*
X139704513Y-104271500D01*
X139517714Y-104311205D01*
X139343246Y-104388883D01*
X139188745Y-104501135D01*
X139060959Y-104643057D01*
X138965473Y-104808443D01*
X138965470Y-104808450D01*
X138921734Y-104943057D01*
X138906458Y-104990072D01*
X138886496Y-105180000D01*
X119117584Y-105180000D01*
X119118525Y-104030000D01*
X133286496Y-104030000D01*
X133306458Y-104219928D01*
X133306459Y-104219931D01*
X133365470Y-104401549D01*
X133365473Y-104401556D01*
X133460960Y-104566944D01*
X133588747Y-104708866D01*
X133743248Y-104821118D01*
X133917712Y-104898794D01*
X134104513Y-104938500D01*
X134295487Y-104938500D01*
X134482288Y-104898794D01*
X134656752Y-104821118D01*
X134811253Y-104708866D01*
X134939040Y-104566944D01*
X135034527Y-104401556D01*
X135093542Y-104219928D01*
X135113504Y-104030000D01*
X135093542Y-103840072D01*
X135034527Y-103658444D01*
X134939040Y-103493056D01*
X134811253Y-103351134D01*
X134656752Y-103238882D01*
X134482288Y-103161206D01*
X134482286Y-103161205D01*
X134295487Y-103121500D01*
X134104513Y-103121500D01*
X133917714Y-103161205D01*
X133917712Y-103161206D01*
X133763198Y-103230000D01*
X133743246Y-103238883D01*
X133588745Y-103351135D01*
X133460959Y-103493057D01*
X133365473Y-103658443D01*
X133365470Y-103658450D01*
X133315837Y-103811206D01*
X133306458Y-103840072D01*
X133286496Y-104030000D01*
X119118525Y-104030000D01*
X119120325Y-101830000D01*
X123486496Y-101830000D01*
X123506458Y-102019928D01*
X123506459Y-102019931D01*
X123565470Y-102201549D01*
X123565473Y-102201556D01*
X123660960Y-102366944D01*
X123788747Y-102508866D01*
X123943248Y-102621118D01*
X124117712Y-102698794D01*
X124304513Y-102738500D01*
X124495487Y-102738500D01*
X124682288Y-102698794D01*
X124856752Y-102621118D01*
X125011253Y-102508866D01*
X125139040Y-102366944D01*
X125234527Y-102201556D01*
X125293542Y-102019928D01*
X125313504Y-101830000D01*
X125293542Y-101640072D01*
X125234527Y-101458444D01*
X125139040Y-101293056D01*
X125011253Y-101151134D01*
X124982165Y-101130000D01*
X128836496Y-101130000D01*
X128856458Y-101319928D01*
X128856459Y-101319931D01*
X128915470Y-101501549D01*
X128915473Y-101501556D01*
X129010960Y-101666944D01*
X129138747Y-101808866D01*
X129293248Y-101921118D01*
X129467712Y-101998794D01*
X129654513Y-102038500D01*
X129839909Y-102038500D01*
X129906948Y-102058185D01*
X129952703Y-102110989D01*
X129957840Y-102124182D01*
X130015470Y-102301549D01*
X130015473Y-102301556D01*
X130110960Y-102466944D01*
X130238747Y-102608866D01*
X130393248Y-102721118D01*
X130567712Y-102798794D01*
X130754513Y-102838500D01*
X130945487Y-102838500D01*
X131132288Y-102798794D01*
X131306752Y-102721118D01*
X131461253Y-102608866D01*
X131589040Y-102466944D01*
X131684527Y-102301556D01*
X131743542Y-102119928D01*
X131763504Y-101930000D01*
X131743542Y-101740072D01*
X131684527Y-101558444D01*
X131589040Y-101393056D01*
X131461253Y-101251134D01*
X131306752Y-101138882D01*
X131132288Y-101061206D01*
X131132286Y-101061205D01*
X130945487Y-101021500D01*
X130760091Y-101021500D01*
X130693052Y-101001815D01*
X130647297Y-100949011D01*
X130642160Y-100935818D01*
X130584529Y-100758450D01*
X130584528Y-100758449D01*
X130584527Y-100758444D01*
X130489040Y-100593056D01*
X130361253Y-100451134D01*
X130206752Y-100338882D01*
X130032288Y-100261206D01*
X130032286Y-100261205D01*
X129845487Y-100221500D01*
X129654513Y-100221500D01*
X129467714Y-100261205D01*
X129293246Y-100338883D01*
X129138745Y-100451135D01*
X129010959Y-100593057D01*
X128915473Y-100758443D01*
X128915470Y-100758450D01*
X128857840Y-100935818D01*
X128856458Y-100940072D01*
X128836496Y-101130000D01*
X124982165Y-101130000D01*
X124856752Y-101038882D01*
X124682288Y-100961206D01*
X124682286Y-100961205D01*
X124495487Y-100921500D01*
X124304513Y-100921500D01*
X124117714Y-100961205D01*
X123943246Y-101038883D01*
X123788745Y-101151135D01*
X123660959Y-101293057D01*
X123565473Y-101458443D01*
X123565470Y-101458450D01*
X123520051Y-101598236D01*
X123506458Y-101640072D01*
X123486496Y-101830000D01*
X119120325Y-101830000D01*
X119122165Y-99580000D01*
X131536496Y-99580000D01*
X131556458Y-99769928D01*
X131556459Y-99769931D01*
X131615470Y-99951549D01*
X131615473Y-99951556D01*
X131710960Y-100116944D01*
X131838747Y-100258866D01*
X131993248Y-100371118D01*
X132167712Y-100448794D01*
X132320022Y-100481168D01*
X132381503Y-100514360D01*
X132415279Y-100575523D01*
X132410627Y-100645238D01*
X132386390Y-100685430D01*
X132313711Y-100766148D01*
X132218225Y-100931535D01*
X132218222Y-100931542D01*
X132160214Y-101110073D01*
X132159210Y-101113164D01*
X132139248Y-101303092D01*
X132159210Y-101493020D01*
X132159211Y-101493023D01*
X132218222Y-101674641D01*
X132218225Y-101674648D01*
X132313712Y-101840036D01*
X132411808Y-101948983D01*
X132438021Y-101978096D01*
X132441499Y-101981958D01*
X132596000Y-102094210D01*
X132770464Y-102171886D01*
X132957265Y-102211592D01*
X133148239Y-102211592D01*
X133335040Y-102171886D01*
X133509504Y-102094210D01*
X133664005Y-101981958D01*
X133791792Y-101840036D01*
X133821738Y-101788168D01*
X137433726Y-101788168D01*
X137453688Y-101978096D01*
X137453689Y-101978099D01*
X137512700Y-102159717D01*
X137512703Y-102159724D01*
X137608190Y-102325112D01*
X137735977Y-102467034D01*
X137890478Y-102579286D01*
X138064942Y-102656962D01*
X138251743Y-102696668D01*
X138442717Y-102696668D01*
X138629518Y-102656962D01*
X138803982Y-102579286D01*
X138958483Y-102467034D01*
X139086270Y-102325112D01*
X139181757Y-102159724D01*
X139240772Y-101978096D01*
X139260734Y-101788168D01*
X139240772Y-101598240D01*
X139186107Y-101430000D01*
X144186496Y-101430000D01*
X144206458Y-101619928D01*
X144206459Y-101619931D01*
X144265470Y-101801549D01*
X144265473Y-101801556D01*
X144360960Y-101966944D01*
X144434658Y-102048794D01*
X144472767Y-102091119D01*
X144488747Y-102108866D01*
X144643248Y-102221118D01*
X144817712Y-102298794D01*
X145004513Y-102338500D01*
X145195487Y-102338500D01*
X145382288Y-102298794D01*
X145556752Y-102221118D01*
X145711253Y-102108866D01*
X145839040Y-101966944D01*
X145839041Y-101966940D01*
X145842862Y-101961684D01*
X145844631Y-101962969D01*
X145887853Y-101921747D01*
X145956458Y-101908514D01*
X146021327Y-101934472D01*
X146036835Y-101948979D01*
X146063747Y-101978867D01*
X146218248Y-102091119D01*
X146392712Y-102168795D01*
X146579513Y-102208501D01*
X146770487Y-102208501D01*
X146957288Y-102168795D01*
X147131752Y-102091119D01*
X147286253Y-101978867D01*
X147414040Y-101836945D01*
X147509527Y-101671557D01*
X147568542Y-101489929D01*
X147588504Y-101300001D01*
X147575892Y-101180000D01*
X149436496Y-101180000D01*
X149456458Y-101369928D01*
X149456459Y-101369931D01*
X149515470Y-101551549D01*
X149515473Y-101551556D01*
X149610960Y-101716944D01*
X149738747Y-101858866D01*
X149893248Y-101971118D01*
X150067712Y-102048794D01*
X150254513Y-102088500D01*
X150445487Y-102088500D01*
X150632288Y-102048794D01*
X150806752Y-101971118D01*
X150961253Y-101858866D01*
X150987244Y-101830000D01*
X151536496Y-101830000D01*
X151556458Y-102019928D01*
X151556459Y-102019931D01*
X151615470Y-102201549D01*
X151615473Y-102201556D01*
X151710960Y-102366944D01*
X151838747Y-102508866D01*
X151993248Y-102621118D01*
X152167712Y-102698794D01*
X152354513Y-102738500D01*
X152545487Y-102738500D01*
X152732288Y-102698794D01*
X152906752Y-102621118D01*
X153061253Y-102508866D01*
X153189040Y-102366944D01*
X153284527Y-102201556D01*
X153343542Y-102019928D01*
X153363504Y-101830000D01*
X158486496Y-101830000D01*
X158506458Y-102019928D01*
X158506459Y-102019931D01*
X158565470Y-102201549D01*
X158565473Y-102201556D01*
X158660960Y-102366944D01*
X158788747Y-102508866D01*
X158943248Y-102621118D01*
X159117712Y-102698794D01*
X159304513Y-102738500D01*
X159495487Y-102738500D01*
X159682288Y-102698794D01*
X159856752Y-102621118D01*
X160011253Y-102508866D01*
X160139040Y-102366944D01*
X160234527Y-102201556D01*
X160293542Y-102019928D01*
X160313504Y-101830000D01*
X160293542Y-101640072D01*
X160234527Y-101458444D01*
X160139040Y-101293056D01*
X160011253Y-101151134D01*
X159856752Y-101038882D01*
X159682288Y-100961206D01*
X159682286Y-100961205D01*
X159495487Y-100921500D01*
X159304513Y-100921500D01*
X159117714Y-100961205D01*
X158943246Y-101038883D01*
X158788745Y-101151135D01*
X158660959Y-101293057D01*
X158565473Y-101458443D01*
X158565470Y-101458450D01*
X158520051Y-101598236D01*
X158506458Y-101640072D01*
X158486496Y-101830000D01*
X153363504Y-101830000D01*
X153343542Y-101640072D01*
X153284527Y-101458444D01*
X153189040Y-101293056D01*
X153061253Y-101151134D01*
X152906752Y-101038882D01*
X152732288Y-100961206D01*
X152732286Y-100961205D01*
X152545487Y-100921500D01*
X152354513Y-100921500D01*
X152167714Y-100961205D01*
X151993246Y-101038883D01*
X151838745Y-101151135D01*
X151710959Y-101293057D01*
X151615473Y-101458443D01*
X151615470Y-101458450D01*
X151570051Y-101598236D01*
X151556458Y-101640072D01*
X151536496Y-101830000D01*
X150987244Y-101830000D01*
X151089040Y-101716944D01*
X151184527Y-101551556D01*
X151243542Y-101369928D01*
X151263504Y-101180000D01*
X151243542Y-100990072D01*
X151184527Y-100808444D01*
X151089040Y-100643056D01*
X150961253Y-100501134D01*
X150806752Y-100388882D01*
X150632288Y-100311206D01*
X150632286Y-100311205D01*
X150445487Y-100271500D01*
X150254513Y-100271500D01*
X150067714Y-100311205D01*
X149893246Y-100388883D01*
X149738745Y-100501135D01*
X149610959Y-100643057D01*
X149515473Y-100808443D01*
X149515470Y-100808450D01*
X149465837Y-100961206D01*
X149456458Y-100990072D01*
X149436496Y-101180000D01*
X147575892Y-101180000D01*
X147568542Y-101110073D01*
X147509527Y-100928445D01*
X147414040Y-100763057D01*
X147286253Y-100621135D01*
X147131752Y-100508883D01*
X146957288Y-100431207D01*
X146957286Y-100431206D01*
X146770487Y-100391501D01*
X146579513Y-100391501D01*
X146392714Y-100431206D01*
X146385769Y-100434298D01*
X146235651Y-100501135D01*
X146218246Y-100508884D01*
X146063745Y-100621136D01*
X145935958Y-100763058D01*
X145932138Y-100768317D01*
X145930376Y-100767036D01*
X145887096Y-100808279D01*
X145818485Y-100821481D01*
X145753628Y-100795493D01*
X145738163Y-100781021D01*
X145711253Y-100751134D01*
X145556752Y-100638882D01*
X145382288Y-100561206D01*
X145382286Y-100561205D01*
X145195487Y-100521500D01*
X145004513Y-100521500D01*
X144817714Y-100561205D01*
X144643246Y-100638883D01*
X144488745Y-100751135D01*
X144360959Y-100893057D01*
X144265473Y-101058443D01*
X144265470Y-101058450D01*
X144206459Y-101240068D01*
X144206458Y-101240072D01*
X144186496Y-101430000D01*
X139186107Y-101430000D01*
X139181757Y-101416612D01*
X139086270Y-101251224D01*
X138958483Y-101109302D01*
X138803982Y-100997050D01*
X138629518Y-100919374D01*
X138629516Y-100919373D01*
X138442717Y-100879668D01*
X138251743Y-100879668D01*
X138064944Y-100919373D01*
X137890476Y-100997051D01*
X137735975Y-101109303D01*
X137608189Y-101251225D01*
X137512703Y-101416611D01*
X137512700Y-101416618D01*
X137453689Y-101598236D01*
X137453688Y-101598240D01*
X137433726Y-101788168D01*
X133821738Y-101788168D01*
X133887279Y-101674648D01*
X133946294Y-101493020D01*
X133966256Y-101303092D01*
X133946294Y-101113164D01*
X133887279Y-100931536D01*
X133791792Y-100766148D01*
X133664005Y-100624226D01*
X133509504Y-100511974D01*
X133335040Y-100434298D01*
X133335038Y-100434297D01*
X133335037Y-100434297D01*
X133182730Y-100401923D01*
X133121248Y-100368730D01*
X133087472Y-100307567D01*
X133092124Y-100237853D01*
X133116359Y-100197663D01*
X133189040Y-100116944D01*
X133284527Y-99951556D01*
X133343542Y-99769928D01*
X133363504Y-99580000D01*
X138836496Y-99580000D01*
X138856458Y-99769928D01*
X138856459Y-99769931D01*
X138915470Y-99951549D01*
X138915473Y-99951556D01*
X139010960Y-100116944D01*
X139138747Y-100258866D01*
X139293248Y-100371118D01*
X139467712Y-100448794D01*
X139654513Y-100488500D01*
X139845487Y-100488500D01*
X140032288Y-100448794D01*
X140206752Y-100371118D01*
X140361253Y-100258866D01*
X140489040Y-100116944D01*
X140584527Y-99951556D01*
X140643542Y-99769928D01*
X140663504Y-99580000D01*
X140652994Y-99480000D01*
X153336496Y-99480000D01*
X153356458Y-99669928D01*
X153356459Y-99669931D01*
X153415470Y-99851549D01*
X153415473Y-99851556D01*
X153510960Y-100016944D01*
X153638747Y-100158866D01*
X153793248Y-100271118D01*
X153967712Y-100348794D01*
X154154513Y-100388500D01*
X154345487Y-100388500D01*
X154532288Y-100348794D01*
X154706752Y-100271118D01*
X154861253Y-100158866D01*
X154989040Y-100016944D01*
X155084527Y-99851556D01*
X155143542Y-99669928D01*
X155152994Y-99580000D01*
X160436496Y-99580000D01*
X160456458Y-99769928D01*
X160456459Y-99769931D01*
X160515470Y-99951549D01*
X160515473Y-99951556D01*
X160610960Y-100116944D01*
X160738747Y-100258866D01*
X160893248Y-100371118D01*
X161067712Y-100448794D01*
X161254513Y-100488500D01*
X161445487Y-100488500D01*
X161632288Y-100448794D01*
X161806752Y-100371118D01*
X161961253Y-100258866D01*
X162089040Y-100116944D01*
X162184527Y-99951556D01*
X162243542Y-99769928D01*
X162247739Y-99730000D01*
X166986496Y-99730000D01*
X167006458Y-99919928D01*
X167006459Y-99919931D01*
X167065470Y-100101549D01*
X167065473Y-100101556D01*
X167160960Y-100266944D01*
X167254757Y-100371116D01*
X167282495Y-100401923D01*
X167288747Y-100408866D01*
X167443248Y-100521118D01*
X167617712Y-100598794D01*
X167804513Y-100638500D01*
X167995487Y-100638500D01*
X168182288Y-100598794D01*
X168356752Y-100521118D01*
X168511253Y-100408866D01*
X168639040Y-100266944D01*
X168734527Y-100101556D01*
X168793542Y-99919928D01*
X168813504Y-99730000D01*
X168793542Y-99540072D01*
X168734527Y-99358444D01*
X168639040Y-99193056D01*
X168511253Y-99051134D01*
X168356752Y-98938882D01*
X168182288Y-98861206D01*
X168182286Y-98861205D01*
X167995487Y-98821500D01*
X167804513Y-98821500D01*
X167617714Y-98861205D01*
X167443246Y-98938883D01*
X167288745Y-99051135D01*
X167160959Y-99193057D01*
X167065473Y-99358443D01*
X167065470Y-99358450D01*
X167006459Y-99540068D01*
X167006458Y-99540072D01*
X166986496Y-99730000D01*
X162247739Y-99730000D01*
X162263504Y-99580000D01*
X162243542Y-99390072D01*
X162184527Y-99208444D01*
X162089040Y-99043056D01*
X161961253Y-98901134D01*
X161806752Y-98788882D01*
X161632288Y-98711206D01*
X161632286Y-98711205D01*
X161445487Y-98671500D01*
X161254513Y-98671500D01*
X161067714Y-98711205D01*
X160893246Y-98788883D01*
X160738745Y-98901135D01*
X160610959Y-99043057D01*
X160515473Y-99208443D01*
X160515470Y-99208450D01*
X160456459Y-99390068D01*
X160456458Y-99390072D01*
X160436496Y-99580000D01*
X155152994Y-99580000D01*
X155163504Y-99480000D01*
X155143542Y-99290072D01*
X155084527Y-99108444D01*
X154989040Y-98943056D01*
X154861253Y-98801134D01*
X154706752Y-98688882D01*
X154532288Y-98611206D01*
X154532286Y-98611205D01*
X154345487Y-98571500D01*
X154154513Y-98571500D01*
X153967714Y-98611205D01*
X153793246Y-98688883D01*
X153638745Y-98801135D01*
X153510959Y-98943057D01*
X153415473Y-99108443D01*
X153415470Y-99108450D01*
X153356459Y-99290068D01*
X153356458Y-99290072D01*
X153336496Y-99480000D01*
X140652994Y-99480000D01*
X140643542Y-99390072D01*
X140584527Y-99208444D01*
X140489040Y-99043056D01*
X140361253Y-98901134D01*
X140206752Y-98788882D01*
X140032288Y-98711206D01*
X140032286Y-98711205D01*
X139845487Y-98671500D01*
X139654513Y-98671500D01*
X139467714Y-98711205D01*
X139293246Y-98788883D01*
X139138745Y-98901135D01*
X139010959Y-99043057D01*
X138915473Y-99208443D01*
X138915470Y-99208450D01*
X138856459Y-99390068D01*
X138856458Y-99390072D01*
X138836496Y-99580000D01*
X133363504Y-99580000D01*
X133343542Y-99390072D01*
X133284527Y-99208444D01*
X133189040Y-99043056D01*
X133061253Y-98901134D01*
X132906752Y-98788882D01*
X132732288Y-98711206D01*
X132732286Y-98711205D01*
X132545487Y-98671500D01*
X132354513Y-98671500D01*
X132167714Y-98711205D01*
X131993246Y-98788883D01*
X131838745Y-98901135D01*
X131710959Y-99043057D01*
X131615473Y-99208443D01*
X131615470Y-99208450D01*
X131556459Y-99390068D01*
X131556458Y-99390072D01*
X131536496Y-99580000D01*
X119122165Y-99580000D01*
X119123842Y-97530000D01*
X145336496Y-97530000D01*
X145356458Y-97719928D01*
X145356459Y-97719931D01*
X145415470Y-97901549D01*
X145415473Y-97901556D01*
X145510960Y-98066944D01*
X145638747Y-98208866D01*
X145793248Y-98321118D01*
X145967712Y-98398794D01*
X146154513Y-98438500D01*
X146345487Y-98438500D01*
X146532288Y-98398794D01*
X146706752Y-98321118D01*
X146861253Y-98208866D01*
X146989040Y-98066944D01*
X147084527Y-97901556D01*
X147143542Y-97719928D01*
X147163504Y-97530000D01*
X147143542Y-97340072D01*
X147084527Y-97158444D01*
X146989040Y-96993056D01*
X146861253Y-96851134D01*
X146706752Y-96738882D01*
X146532288Y-96661206D01*
X146532286Y-96661205D01*
X146345487Y-96621500D01*
X146154513Y-96621500D01*
X145967714Y-96661205D01*
X145793246Y-96738883D01*
X145638745Y-96851135D01*
X145510959Y-96993057D01*
X145415473Y-97158443D01*
X145415470Y-97158450D01*
X145356459Y-97340068D01*
X145356458Y-97340072D01*
X145336496Y-97530000D01*
X119123842Y-97530000D01*
X119124936Y-96192653D01*
X125673843Y-96192653D01*
X125693805Y-96382581D01*
X125693806Y-96382584D01*
X125752817Y-96564202D01*
X125752820Y-96564209D01*
X125848307Y-96729597D01*
X125976094Y-96871519D01*
X126130595Y-96983771D01*
X126305059Y-97061447D01*
X126491860Y-97101153D01*
X126682834Y-97101153D01*
X126869635Y-97061447D01*
X127044099Y-96983771D01*
X127198600Y-96871519D01*
X127326387Y-96729597D01*
X127421874Y-96564209D01*
X127480889Y-96382581D01*
X127500851Y-96192653D01*
X127489011Y-96080000D01*
X128136496Y-96080000D01*
X128156458Y-96269928D01*
X128156459Y-96269931D01*
X128215470Y-96451549D01*
X128215473Y-96451556D01*
X128310960Y-96616944D01*
X128438747Y-96758866D01*
X128593248Y-96871118D01*
X128767712Y-96948794D01*
X128954513Y-96988500D01*
X129145487Y-96988500D01*
X129332288Y-96948794D01*
X129506752Y-96871118D01*
X129661253Y-96758866D01*
X129789040Y-96616944D01*
X129884527Y-96451556D01*
X129943542Y-96269928D01*
X129952994Y-96180000D01*
X132786496Y-96180000D01*
X132806458Y-96369928D01*
X132806459Y-96369931D01*
X132865470Y-96551549D01*
X132865473Y-96551556D01*
X132960960Y-96716944D01*
X133088747Y-96858866D01*
X133243248Y-96971118D01*
X133417712Y-97048794D01*
X133604513Y-97088500D01*
X133795487Y-97088500D01*
X133982288Y-97048794D01*
X134156752Y-96971118D01*
X134311253Y-96858866D01*
X134439040Y-96716944D01*
X134534527Y-96551556D01*
X134593542Y-96369928D01*
X134613504Y-96180000D01*
X139736496Y-96180000D01*
X139756458Y-96369928D01*
X139756459Y-96369931D01*
X139815470Y-96551549D01*
X139815473Y-96551556D01*
X139910960Y-96716944D01*
X140038747Y-96858866D01*
X140193248Y-96971118D01*
X140367712Y-97048794D01*
X140554513Y-97088500D01*
X140745487Y-97088500D01*
X140932288Y-97048794D01*
X141106752Y-96971118D01*
X141261253Y-96858866D01*
X141389040Y-96716944D01*
X141484527Y-96551556D01*
X141543542Y-96369928D01*
X141563504Y-96180000D01*
X153886496Y-96180000D01*
X153906458Y-96369928D01*
X153906459Y-96369931D01*
X153965470Y-96551549D01*
X153965473Y-96551556D01*
X154060960Y-96716944D01*
X154188747Y-96858866D01*
X154343248Y-96971118D01*
X154517712Y-97048794D01*
X154704513Y-97088500D01*
X154895487Y-97088500D01*
X155082288Y-97048794D01*
X155256752Y-96971118D01*
X155411253Y-96858866D01*
X155539040Y-96716944D01*
X155634527Y-96551556D01*
X155693542Y-96369928D01*
X155713504Y-96180000D01*
X160886496Y-96180000D01*
X160906458Y-96369928D01*
X160906459Y-96369931D01*
X160965470Y-96551549D01*
X160965473Y-96551556D01*
X161060960Y-96716944D01*
X161188747Y-96858866D01*
X161343248Y-96971118D01*
X161517712Y-97048794D01*
X161704513Y-97088500D01*
X161895487Y-97088500D01*
X162082288Y-97048794D01*
X162256752Y-96971118D01*
X162411253Y-96858866D01*
X162539040Y-96716944D01*
X162634527Y-96551556D01*
X162693542Y-96369928D01*
X162708249Y-96230000D01*
X167986496Y-96230000D01*
X168006458Y-96419928D01*
X168006459Y-96419931D01*
X168065470Y-96601549D01*
X168065473Y-96601556D01*
X168160960Y-96766944D01*
X168288747Y-96908866D01*
X168443248Y-97021118D01*
X168617712Y-97098794D01*
X168804513Y-97138500D01*
X168995487Y-97138500D01*
X169182288Y-97098794D01*
X169356752Y-97021118D01*
X169511253Y-96908866D01*
X169639040Y-96766944D01*
X169734527Y-96601556D01*
X169793542Y-96419928D01*
X169813504Y-96230000D01*
X169793542Y-96040072D01*
X169734527Y-95858444D01*
X169639040Y-95693056D01*
X169511253Y-95551134D01*
X169356752Y-95438882D01*
X169182288Y-95361206D01*
X169182286Y-95361205D01*
X168995487Y-95321500D01*
X168804513Y-95321500D01*
X168617714Y-95361205D01*
X168443246Y-95438883D01*
X168288745Y-95551135D01*
X168160959Y-95693057D01*
X168065473Y-95858443D01*
X168065470Y-95858450D01*
X168006459Y-96040068D01*
X168006458Y-96040072D01*
X167986496Y-96230000D01*
X162708249Y-96230000D01*
X162713504Y-96180000D01*
X162693542Y-95990072D01*
X162634527Y-95808444D01*
X162539040Y-95643056D01*
X162411253Y-95501134D01*
X162256752Y-95388882D01*
X162082288Y-95311206D01*
X162082286Y-95311205D01*
X161895487Y-95271500D01*
X161704513Y-95271500D01*
X161517714Y-95311205D01*
X161343246Y-95388883D01*
X161188745Y-95501135D01*
X161060959Y-95643057D01*
X160965473Y-95808443D01*
X160965470Y-95808450D01*
X160938950Y-95890072D01*
X160906458Y-95990072D01*
X160886496Y-96180000D01*
X155713504Y-96180000D01*
X155693542Y-95990072D01*
X155634527Y-95808444D01*
X155539040Y-95643056D01*
X155411253Y-95501134D01*
X155256752Y-95388882D01*
X155082288Y-95311206D01*
X155082286Y-95311205D01*
X154895487Y-95271500D01*
X154704513Y-95271500D01*
X154517714Y-95311205D01*
X154343246Y-95388883D01*
X154188745Y-95501135D01*
X154060959Y-95643057D01*
X153965473Y-95808443D01*
X153965470Y-95808450D01*
X153938950Y-95890072D01*
X153906458Y-95990072D01*
X153886496Y-96180000D01*
X141563504Y-96180000D01*
X141543542Y-95990072D01*
X141484527Y-95808444D01*
X141389040Y-95643056D01*
X141261253Y-95501134D01*
X141106752Y-95388882D01*
X140932288Y-95311206D01*
X140932286Y-95311205D01*
X140745487Y-95271500D01*
X140554513Y-95271500D01*
X140367714Y-95311205D01*
X140193246Y-95388883D01*
X140038745Y-95501135D01*
X139910959Y-95643057D01*
X139815473Y-95808443D01*
X139815470Y-95808450D01*
X139788950Y-95890072D01*
X139756458Y-95990072D01*
X139736496Y-96180000D01*
X134613504Y-96180000D01*
X134593542Y-95990072D01*
X134534527Y-95808444D01*
X134439040Y-95643056D01*
X134311253Y-95501134D01*
X134156752Y-95388882D01*
X133982288Y-95311206D01*
X133982286Y-95311205D01*
X133795487Y-95271500D01*
X133604513Y-95271500D01*
X133417714Y-95311205D01*
X133243246Y-95388883D01*
X133088745Y-95501135D01*
X132960959Y-95643057D01*
X132865473Y-95808443D01*
X132865470Y-95808450D01*
X132838950Y-95890072D01*
X132806458Y-95990072D01*
X132786496Y-96180000D01*
X129952994Y-96180000D01*
X129963504Y-96080000D01*
X129943542Y-95890072D01*
X129884527Y-95708444D01*
X129789040Y-95543056D01*
X129661253Y-95401134D01*
X129506752Y-95288882D01*
X129332288Y-95211206D01*
X129332286Y-95211205D01*
X129145487Y-95171500D01*
X128954513Y-95171500D01*
X128767714Y-95211205D01*
X128593246Y-95288883D01*
X128438745Y-95401135D01*
X128310959Y-95543057D01*
X128215473Y-95708443D01*
X128215470Y-95708450D01*
X128156459Y-95890068D01*
X128156458Y-95890072D01*
X128136496Y-96080000D01*
X127489011Y-96080000D01*
X127480889Y-96002725D01*
X127421874Y-95821097D01*
X127326387Y-95655709D01*
X127198600Y-95513787D01*
X127044099Y-95401535D01*
X126869635Y-95323859D01*
X126869633Y-95323858D01*
X126682834Y-95284153D01*
X126491860Y-95284153D01*
X126305061Y-95323858D01*
X126305059Y-95323859D01*
X126131494Y-95401135D01*
X126130593Y-95401536D01*
X125976092Y-95513788D01*
X125848306Y-95655710D01*
X125752820Y-95821096D01*
X125752817Y-95821103D01*
X125697916Y-95990072D01*
X125693805Y-96002725D01*
X125673843Y-96192653D01*
X119124936Y-96192653D01*
X119127032Y-93630000D01*
X133386496Y-93630000D01*
X133406458Y-93819928D01*
X133406459Y-93819931D01*
X133465470Y-94001549D01*
X133465473Y-94001556D01*
X133560960Y-94166944D01*
X133688747Y-94308866D01*
X133843248Y-94421118D01*
X134017712Y-94498794D01*
X134204513Y-94538500D01*
X134395487Y-94538500D01*
X134582288Y-94498794D01*
X134756752Y-94421118D01*
X134911253Y-94308866D01*
X134982264Y-94230000D01*
X137036496Y-94230000D01*
X137056458Y-94419928D01*
X137056459Y-94419931D01*
X137115470Y-94601549D01*
X137115473Y-94601556D01*
X137210960Y-94766944D01*
X137338747Y-94908866D01*
X137493248Y-95021118D01*
X137667712Y-95098794D01*
X137854513Y-95138500D01*
X138045487Y-95138500D01*
X138232288Y-95098794D01*
X138406752Y-95021118D01*
X138561253Y-94908866D01*
X138689040Y-94766944D01*
X138784527Y-94601556D01*
X138843542Y-94419928D01*
X138863504Y-94230000D01*
X138843542Y-94040072D01*
X138784527Y-93858444D01*
X138768105Y-93830000D01*
X140486496Y-93830000D01*
X140506458Y-94019928D01*
X140506459Y-94019931D01*
X140565470Y-94201549D01*
X140565473Y-94201556D01*
X140660960Y-94366944D01*
X140788747Y-94508866D01*
X140943248Y-94621118D01*
X141117712Y-94698794D01*
X141304513Y-94738500D01*
X141495487Y-94738500D01*
X141682288Y-94698794D01*
X141856752Y-94621118D01*
X142011253Y-94508866D01*
X142139040Y-94366944D01*
X142234527Y-94201556D01*
X142293542Y-94019928D01*
X142302994Y-93930000D01*
X147736496Y-93930000D01*
X147756458Y-94119928D01*
X147756459Y-94119931D01*
X147815470Y-94301549D01*
X147815473Y-94301556D01*
X147910960Y-94466944D01*
X148038747Y-94608866D01*
X148193248Y-94721118D01*
X148367712Y-94798794D01*
X148554513Y-94838500D01*
X148745487Y-94838500D01*
X148932288Y-94798794D01*
X149106752Y-94721118D01*
X149261253Y-94608866D01*
X149389040Y-94466944D01*
X149484527Y-94301556D01*
X149524023Y-94180000D01*
X154986496Y-94180000D01*
X155006458Y-94369928D01*
X155006459Y-94369931D01*
X155065470Y-94551549D01*
X155065473Y-94551556D01*
X155160960Y-94716944D01*
X155288747Y-94858866D01*
X155443248Y-94971118D01*
X155617712Y-95048794D01*
X155804513Y-95088500D01*
X155995487Y-95088500D01*
X156182288Y-95048794D01*
X156356752Y-94971118D01*
X156511253Y-94858866D01*
X156639040Y-94716944D01*
X156734527Y-94551556D01*
X156793542Y-94369928D01*
X156813504Y-94180000D01*
X156793542Y-93990072D01*
X156790269Y-93980000D01*
X158586496Y-93980000D01*
X158606458Y-94169928D01*
X158606459Y-94169931D01*
X158665470Y-94351549D01*
X158665473Y-94351556D01*
X158760960Y-94516944D01*
X158888747Y-94658866D01*
X159043248Y-94771118D01*
X159217712Y-94848794D01*
X159404513Y-94888500D01*
X159595487Y-94888500D01*
X159782288Y-94848794D01*
X159956752Y-94771118D01*
X160111253Y-94658866D01*
X160239040Y-94516944D01*
X160334527Y-94351556D01*
X160341531Y-94330000D01*
X162236496Y-94330000D01*
X162256458Y-94519928D01*
X162256459Y-94519931D01*
X162315470Y-94701549D01*
X162315473Y-94701556D01*
X162410960Y-94866944D01*
X162538747Y-95008866D01*
X162693248Y-95121118D01*
X162867712Y-95198794D01*
X163054513Y-95238500D01*
X163245487Y-95238500D01*
X163432288Y-95198794D01*
X163606752Y-95121118D01*
X163761253Y-95008866D01*
X163889040Y-94866944D01*
X163984527Y-94701556D01*
X164043542Y-94519928D01*
X164063504Y-94330000D01*
X164043542Y-94140072D01*
X163984527Y-93958444D01*
X163889040Y-93793056D01*
X163761253Y-93651134D01*
X163606752Y-93538882D01*
X163432288Y-93461206D01*
X163432286Y-93461205D01*
X163245487Y-93421500D01*
X163054513Y-93421500D01*
X162867714Y-93461205D01*
X162693246Y-93538883D01*
X162538745Y-93651135D01*
X162410959Y-93793057D01*
X162315473Y-93958443D01*
X162315470Y-93958450D01*
X162288950Y-94040072D01*
X162256458Y-94140072D01*
X162236496Y-94330000D01*
X160341531Y-94330000D01*
X160393542Y-94169928D01*
X160413504Y-93980000D01*
X160393542Y-93790072D01*
X160334527Y-93608444D01*
X160239040Y-93443056D01*
X160111253Y-93301134D01*
X159956752Y-93188882D01*
X159782288Y-93111206D01*
X159782286Y-93111205D01*
X159595487Y-93071500D01*
X159404513Y-93071500D01*
X159217714Y-93111205D01*
X159043246Y-93188883D01*
X158888745Y-93301135D01*
X158760959Y-93443057D01*
X158665473Y-93608443D01*
X158665470Y-93608450D01*
X158637980Y-93693057D01*
X158606458Y-93790072D01*
X158586496Y-93980000D01*
X156790269Y-93980000D01*
X156734527Y-93808444D01*
X156639040Y-93643056D01*
X156511253Y-93501134D01*
X156356752Y-93388882D01*
X156182288Y-93311206D01*
X156182286Y-93311205D01*
X155995487Y-93271500D01*
X155804513Y-93271500D01*
X155617714Y-93311205D01*
X155443246Y-93388883D01*
X155288745Y-93501135D01*
X155160959Y-93643057D01*
X155065473Y-93808443D01*
X155065470Y-93808450D01*
X155006459Y-93990068D01*
X155006458Y-93990072D01*
X154986496Y-94180000D01*
X149524023Y-94180000D01*
X149543542Y-94119928D01*
X149563504Y-93930000D01*
X149543542Y-93740072D01*
X149484527Y-93558444D01*
X149389040Y-93393056D01*
X149261253Y-93251134D01*
X149106752Y-93138882D01*
X148932288Y-93061206D01*
X148932286Y-93061205D01*
X148745487Y-93021500D01*
X148554513Y-93021500D01*
X148367714Y-93061205D01*
X148193246Y-93138883D01*
X148038745Y-93251135D01*
X147910959Y-93393057D01*
X147815473Y-93558443D01*
X147815470Y-93558450D01*
X147771734Y-93693057D01*
X147756458Y-93740072D01*
X147736496Y-93930000D01*
X142302994Y-93930000D01*
X142313504Y-93830000D01*
X142293542Y-93640072D01*
X142234527Y-93458444D01*
X142139040Y-93293056D01*
X142011253Y-93151134D01*
X141856752Y-93038882D01*
X141682288Y-92961206D01*
X141682286Y-92961205D01*
X141495487Y-92921500D01*
X141304513Y-92921500D01*
X141117714Y-92961205D01*
X140943246Y-93038883D01*
X140788745Y-93151135D01*
X140660959Y-93293057D01*
X140565473Y-93458443D01*
X140565470Y-93458450D01*
X140506459Y-93640068D01*
X140506458Y-93640072D01*
X140486496Y-93830000D01*
X138768105Y-93830000D01*
X138689040Y-93693056D01*
X138561253Y-93551134D01*
X138406752Y-93438882D01*
X138232288Y-93361206D01*
X138232286Y-93361205D01*
X138045487Y-93321500D01*
X137854513Y-93321500D01*
X137667714Y-93361205D01*
X137493246Y-93438883D01*
X137338745Y-93551135D01*
X137210959Y-93693057D01*
X137115473Y-93858443D01*
X137115470Y-93858450D01*
X137063003Y-94019928D01*
X137056458Y-94040072D01*
X137036496Y-94230000D01*
X134982264Y-94230000D01*
X135039040Y-94166944D01*
X135134527Y-94001556D01*
X135193542Y-93819928D01*
X135213504Y-93630000D01*
X135193542Y-93440072D01*
X135134527Y-93258444D01*
X135039040Y-93093056D01*
X134911253Y-92951134D01*
X134756752Y-92838882D01*
X134582288Y-92761206D01*
X134582286Y-92761205D01*
X134395487Y-92721500D01*
X134204513Y-92721500D01*
X134017714Y-92761205D01*
X133843246Y-92838883D01*
X133688745Y-92951135D01*
X133560959Y-93093057D01*
X133465473Y-93258443D01*
X133465470Y-93258450D01*
X133406844Y-93438883D01*
X133406458Y-93440072D01*
X133386496Y-93630000D01*
X119127032Y-93630000D01*
X119132144Y-87380000D01*
X122136496Y-87380000D01*
X122156458Y-87569928D01*
X122156459Y-87569931D01*
X122215470Y-87751549D01*
X122215473Y-87751556D01*
X122310960Y-87916944D01*
X122438747Y-88058866D01*
X122593248Y-88171118D01*
X122767712Y-88248794D01*
X122954513Y-88288500D01*
X123145487Y-88288500D01*
X123332288Y-88248794D01*
X123506752Y-88171118D01*
X123661253Y-88058866D01*
X123732264Y-87980000D01*
X124386496Y-87980000D01*
X124406458Y-88169928D01*
X124406459Y-88169931D01*
X124465470Y-88351549D01*
X124465473Y-88351556D01*
X124560960Y-88516944D01*
X124637145Y-88601556D01*
X124674512Y-88643057D01*
X124688747Y-88658866D01*
X124843248Y-88771118D01*
X125017712Y-88848794D01*
X125204513Y-88888500D01*
X125395487Y-88888500D01*
X125582288Y-88848794D01*
X125756752Y-88771118D01*
X125911253Y-88658866D01*
X126039040Y-88516944D01*
X126134527Y-88351556D01*
X126193542Y-88169928D01*
X126213504Y-87980000D01*
X131386496Y-87980000D01*
X131406458Y-88169928D01*
X131406459Y-88169931D01*
X131465470Y-88351549D01*
X131465473Y-88351556D01*
X131560960Y-88516944D01*
X131637145Y-88601556D01*
X131674512Y-88643057D01*
X131688747Y-88658866D01*
X131843248Y-88771118D01*
X132017712Y-88848794D01*
X132204513Y-88888500D01*
X132395487Y-88888500D01*
X132582288Y-88848794D01*
X132756752Y-88771118D01*
X132911253Y-88658866D01*
X133039040Y-88516944D01*
X133091076Y-88426815D01*
X133141639Y-88378603D01*
X133210245Y-88365379D01*
X133275110Y-88391346D01*
X133315640Y-88448260D01*
X133316391Y-88450499D01*
X133365471Y-88601552D01*
X133365473Y-88601556D01*
X133460960Y-88766944D01*
X133588747Y-88908866D01*
X133743248Y-89021118D01*
X133917712Y-89098794D01*
X134104513Y-89138500D01*
X134295487Y-89138500D01*
X134482288Y-89098794D01*
X134656752Y-89021118D01*
X134811253Y-88908866D01*
X134939040Y-88766944D01*
X135034527Y-88601556D01*
X135093542Y-88419928D01*
X135113504Y-88230000D01*
X135093542Y-88040072D01*
X135074023Y-87980000D01*
X138336496Y-87980000D01*
X138356458Y-88169928D01*
X138356459Y-88169931D01*
X138415470Y-88351549D01*
X138415473Y-88351556D01*
X138510960Y-88516944D01*
X138587145Y-88601556D01*
X138624512Y-88643057D01*
X138638747Y-88658866D01*
X138793248Y-88771118D01*
X138967712Y-88848794D01*
X139154513Y-88888500D01*
X139345487Y-88888500D01*
X139532288Y-88848794D01*
X139706752Y-88771118D01*
X139861253Y-88658866D01*
X139989040Y-88516944D01*
X140084527Y-88351556D01*
X140091531Y-88330000D01*
X140386496Y-88330000D01*
X140406458Y-88519928D01*
X140406459Y-88519931D01*
X140465470Y-88701549D01*
X140465473Y-88701556D01*
X140560960Y-88866944D01*
X140688747Y-89008866D01*
X140843248Y-89121118D01*
X141017712Y-89198794D01*
X141204513Y-89238500D01*
X141395487Y-89238500D01*
X141582288Y-89198794D01*
X141756752Y-89121118D01*
X141911253Y-89008866D01*
X142039040Y-88866944D01*
X142134527Y-88701556D01*
X142193542Y-88519928D01*
X142213504Y-88330000D01*
X142193542Y-88140072D01*
X142157777Y-88030000D01*
X144336496Y-88030000D01*
X144356458Y-88219928D01*
X144356459Y-88219931D01*
X144415470Y-88401549D01*
X144415473Y-88401556D01*
X144510960Y-88566944D01*
X144587139Y-88651549D01*
X144626971Y-88695788D01*
X144638747Y-88708866D01*
X144793248Y-88821118D01*
X144967712Y-88898794D01*
X145154513Y-88938500D01*
X145345487Y-88938500D01*
X145532288Y-88898794D01*
X145706752Y-88821118D01*
X145726028Y-88807112D01*
X145791833Y-88783632D01*
X145849346Y-88794149D01*
X145966333Y-88846235D01*
X146153134Y-88885941D01*
X146344108Y-88885941D01*
X146530909Y-88846235D01*
X146705373Y-88768559D01*
X146859874Y-88656307D01*
X146987661Y-88514385D01*
X147083148Y-88348997D01*
X147105567Y-88280000D01*
X148586496Y-88280000D01*
X148606458Y-88469928D01*
X148606459Y-88469931D01*
X148665470Y-88651549D01*
X148665473Y-88651556D01*
X148760960Y-88816944D01*
X148888747Y-88958866D01*
X149043248Y-89071118D01*
X149217712Y-89148794D01*
X149404513Y-89188500D01*
X149595487Y-89188500D01*
X149782288Y-89148794D01*
X149956752Y-89071118D01*
X150111253Y-88958866D01*
X150239040Y-88816944D01*
X150334527Y-88651556D01*
X150393542Y-88469928D01*
X150413504Y-88280000D01*
X150393542Y-88090072D01*
X150357777Y-87980000D01*
X152436496Y-87980000D01*
X152456458Y-88169928D01*
X152456459Y-88169931D01*
X152515470Y-88351549D01*
X152515473Y-88351556D01*
X152610960Y-88516944D01*
X152687145Y-88601556D01*
X152724512Y-88643057D01*
X152738747Y-88658866D01*
X152893248Y-88771118D01*
X153067712Y-88848794D01*
X153254513Y-88888500D01*
X153445487Y-88888500D01*
X153632288Y-88848794D01*
X153754321Y-88794461D01*
X153823568Y-88785177D01*
X153886845Y-88814805D01*
X153910420Y-88846969D01*
X153912224Y-88845928D01*
X153915472Y-88851554D01*
X153915473Y-88851556D01*
X154010960Y-89016944D01*
X154138747Y-89158866D01*
X154293248Y-89271118D01*
X154467712Y-89348794D01*
X154654513Y-89388500D01*
X154845487Y-89388500D01*
X155032288Y-89348794D01*
X155206752Y-89271118D01*
X155361253Y-89158866D01*
X155489040Y-89016944D01*
X155584527Y-88851556D01*
X155643542Y-88669928D01*
X155663504Y-88480000D01*
X155643542Y-88290072D01*
X155584527Y-88108444D01*
X155510370Y-87980000D01*
X159386496Y-87980000D01*
X159406458Y-88169928D01*
X159406459Y-88169931D01*
X159465470Y-88351549D01*
X159465473Y-88351556D01*
X159560960Y-88516944D01*
X159637145Y-88601556D01*
X159674512Y-88643057D01*
X159688747Y-88658866D01*
X159843248Y-88771118D01*
X160017712Y-88848794D01*
X160204513Y-88888500D01*
X160395487Y-88888500D01*
X160582288Y-88848794D01*
X160756752Y-88771118D01*
X160860434Y-88695787D01*
X160926240Y-88672307D01*
X160994294Y-88688132D01*
X161042989Y-88738237D01*
X161051251Y-88757786D01*
X161065471Y-88801552D01*
X161065473Y-88801556D01*
X161160960Y-88966944D01*
X161288747Y-89108866D01*
X161443248Y-89221118D01*
X161617712Y-89298794D01*
X161804513Y-89338500D01*
X161995487Y-89338500D01*
X162182288Y-89298794D01*
X162356752Y-89221118D01*
X162511253Y-89108866D01*
X162639040Y-88966944D01*
X162734527Y-88801556D01*
X162793542Y-88619928D01*
X162813504Y-88430000D01*
X162797739Y-88280000D01*
X163186496Y-88280000D01*
X163206458Y-88469928D01*
X163206459Y-88469931D01*
X163265470Y-88651549D01*
X163265473Y-88651556D01*
X163360960Y-88816944D01*
X163488747Y-88958866D01*
X163643248Y-89071118D01*
X163817712Y-89148794D01*
X164004513Y-89188500D01*
X164195487Y-89188500D01*
X164235476Y-89180000D01*
X167986496Y-89180000D01*
X168006458Y-89369928D01*
X168006459Y-89369931D01*
X168065470Y-89551549D01*
X168065473Y-89551556D01*
X168160960Y-89716944D01*
X168288747Y-89858866D01*
X168443248Y-89971118D01*
X168617712Y-90048794D01*
X168804513Y-90088500D01*
X168995487Y-90088500D01*
X169182288Y-90048794D01*
X169356752Y-89971118D01*
X169511253Y-89858866D01*
X169639040Y-89716944D01*
X169734527Y-89551556D01*
X169793542Y-89369928D01*
X169813504Y-89180000D01*
X169793542Y-88990072D01*
X169734527Y-88808444D01*
X169639040Y-88643056D01*
X169511253Y-88501134D01*
X169356752Y-88388882D01*
X169182288Y-88311206D01*
X169182286Y-88311205D01*
X168995487Y-88271500D01*
X168804513Y-88271500D01*
X168617714Y-88311205D01*
X168443246Y-88388883D01*
X168288745Y-88501135D01*
X168160959Y-88643057D01*
X168065473Y-88808443D01*
X168065470Y-88808450D01*
X168006459Y-88990068D01*
X168006458Y-88990072D01*
X167986496Y-89180000D01*
X164235476Y-89180000D01*
X164382288Y-89148794D01*
X164556752Y-89071118D01*
X164711253Y-88958866D01*
X164839040Y-88816944D01*
X164934527Y-88651556D01*
X164993542Y-88469928D01*
X165013504Y-88280000D01*
X164993542Y-88090072D01*
X164934527Y-87908444D01*
X164839040Y-87743056D01*
X164711253Y-87601134D01*
X164556752Y-87488882D01*
X164382288Y-87411206D01*
X164382286Y-87411205D01*
X164195487Y-87371500D01*
X164004513Y-87371500D01*
X163817714Y-87411205D01*
X163643246Y-87488883D01*
X163488745Y-87601135D01*
X163360959Y-87743057D01*
X163265473Y-87908443D01*
X163265470Y-87908450D01*
X163206459Y-88090068D01*
X163206458Y-88090072D01*
X163186496Y-88280000D01*
X162797739Y-88280000D01*
X162793542Y-88240072D01*
X162734664Y-88058866D01*
X162734529Y-88058450D01*
X162734528Y-88058449D01*
X162734527Y-88058444D01*
X162639040Y-87893056D01*
X162511253Y-87751134D01*
X162356752Y-87638882D01*
X162182288Y-87561206D01*
X162182286Y-87561205D01*
X161995487Y-87521500D01*
X161804513Y-87521500D01*
X161617714Y-87561205D01*
X161443243Y-87638884D01*
X161339564Y-87714212D01*
X161273758Y-87737692D01*
X161205704Y-87721866D01*
X161157009Y-87671761D01*
X161148748Y-87652211D01*
X161134530Y-87608452D01*
X161134528Y-87608448D01*
X161134527Y-87608444D01*
X161039040Y-87443056D01*
X160911253Y-87301134D01*
X160756752Y-87188882D01*
X160582288Y-87111206D01*
X160582286Y-87111205D01*
X160395487Y-87071500D01*
X160204513Y-87071500D01*
X160017714Y-87111205D01*
X160017712Y-87111206D01*
X159848994Y-87186324D01*
X159843246Y-87188883D01*
X159688745Y-87301135D01*
X159560959Y-87443057D01*
X159465473Y-87608443D01*
X159465470Y-87608450D01*
X159407289Y-87787513D01*
X159406458Y-87790072D01*
X159386496Y-87980000D01*
X155510370Y-87980000D01*
X155489040Y-87943056D01*
X155361253Y-87801134D01*
X155206752Y-87688882D01*
X155032288Y-87611206D01*
X155032286Y-87611205D01*
X154845487Y-87571500D01*
X154654513Y-87571500D01*
X154467713Y-87611205D01*
X154467710Y-87611206D01*
X154345679Y-87665537D01*
X154276429Y-87674821D01*
X154213153Y-87645192D01*
X154189589Y-87613025D01*
X154187776Y-87614072D01*
X154183053Y-87605891D01*
X154089040Y-87443056D01*
X153961253Y-87301134D01*
X153806752Y-87188882D01*
X153632288Y-87111206D01*
X153632286Y-87111205D01*
X153445487Y-87071500D01*
X153254513Y-87071500D01*
X153067714Y-87111205D01*
X153067712Y-87111206D01*
X152898994Y-87186324D01*
X152893246Y-87188883D01*
X152738745Y-87301135D01*
X152610959Y-87443057D01*
X152515473Y-87608443D01*
X152515470Y-87608450D01*
X152457289Y-87787513D01*
X152456458Y-87790072D01*
X152436496Y-87980000D01*
X150357777Y-87980000D01*
X150334527Y-87908444D01*
X150239040Y-87743056D01*
X150111253Y-87601134D01*
X149956752Y-87488882D01*
X149782288Y-87411206D01*
X149782286Y-87411205D01*
X149595487Y-87371500D01*
X149404513Y-87371500D01*
X149217714Y-87411205D01*
X149043246Y-87488883D01*
X148888745Y-87601135D01*
X148760959Y-87743057D01*
X148665473Y-87908443D01*
X148665470Y-87908450D01*
X148606459Y-88090068D01*
X148606458Y-88090072D01*
X148586496Y-88280000D01*
X147105567Y-88280000D01*
X147142163Y-88167369D01*
X147162125Y-87977441D01*
X147142163Y-87787513D01*
X147083981Y-87608449D01*
X147083150Y-87605891D01*
X147083149Y-87605890D01*
X147083148Y-87605885D01*
X146987661Y-87440497D01*
X146859874Y-87298575D01*
X146705373Y-87186323D01*
X146530909Y-87108647D01*
X146530907Y-87108646D01*
X146344108Y-87068941D01*
X146153134Y-87068941D01*
X145966335Y-87108646D01*
X145791869Y-87186322D01*
X145772589Y-87200330D01*
X145706783Y-87223808D01*
X145649271Y-87213290D01*
X145597113Y-87190068D01*
X145532288Y-87161206D01*
X145532286Y-87161205D01*
X145345487Y-87121500D01*
X145154513Y-87121500D01*
X144967714Y-87161205D01*
X144793246Y-87238883D01*
X144638745Y-87351135D01*
X144510959Y-87493057D01*
X144415473Y-87658443D01*
X144415470Y-87658450D01*
X144356459Y-87840068D01*
X144356458Y-87840072D01*
X144336496Y-88030000D01*
X142157777Y-88030000D01*
X142134527Y-87958444D01*
X142039040Y-87793056D01*
X141911253Y-87651134D01*
X141756752Y-87538882D01*
X141582288Y-87461206D01*
X141582286Y-87461205D01*
X141395487Y-87421500D01*
X141204513Y-87421500D01*
X141017714Y-87461205D01*
X140843246Y-87538883D01*
X140688745Y-87651135D01*
X140560959Y-87793057D01*
X140465473Y-87958443D01*
X140465470Y-87958450D01*
X140406459Y-88140068D01*
X140406458Y-88140072D01*
X140386496Y-88330000D01*
X140091531Y-88330000D01*
X140143542Y-88169928D01*
X140163504Y-87980000D01*
X140143542Y-87790072D01*
X140086356Y-87614072D01*
X140084529Y-87608450D01*
X140084528Y-87608449D01*
X140084527Y-87608444D01*
X139989040Y-87443056D01*
X139861253Y-87301134D01*
X139706752Y-87188882D01*
X139532288Y-87111206D01*
X139532286Y-87111205D01*
X139345487Y-87071500D01*
X139154513Y-87071500D01*
X138967714Y-87111205D01*
X138967712Y-87111206D01*
X138798994Y-87186324D01*
X138793246Y-87188883D01*
X138638745Y-87301135D01*
X138510959Y-87443057D01*
X138415473Y-87608443D01*
X138415470Y-87608450D01*
X138357289Y-87787513D01*
X138356458Y-87790072D01*
X138336496Y-87980000D01*
X135074023Y-87980000D01*
X135034527Y-87858444D01*
X134939040Y-87693056D01*
X134811253Y-87551134D01*
X134656752Y-87438882D01*
X134482288Y-87361206D01*
X134482286Y-87361205D01*
X134295487Y-87321500D01*
X134104513Y-87321500D01*
X133917714Y-87361205D01*
X133743246Y-87438883D01*
X133588745Y-87551135D01*
X133460959Y-87693057D01*
X133408926Y-87783181D01*
X133358359Y-87831397D01*
X133289752Y-87844620D01*
X133224887Y-87818652D01*
X133184359Y-87761737D01*
X133183608Y-87759499D01*
X133176522Y-87737692D01*
X133162019Y-87693056D01*
X133134529Y-87608449D01*
X133134526Y-87608443D01*
X133133053Y-87605891D01*
X133039040Y-87443056D01*
X132911253Y-87301134D01*
X132756752Y-87188882D01*
X132582288Y-87111206D01*
X132582286Y-87111205D01*
X132395487Y-87071500D01*
X132204513Y-87071500D01*
X132017714Y-87111205D01*
X132017712Y-87111206D01*
X131848994Y-87186324D01*
X131843246Y-87188883D01*
X131688745Y-87301135D01*
X131560959Y-87443057D01*
X131465473Y-87608443D01*
X131465470Y-87608450D01*
X131407289Y-87787513D01*
X131406458Y-87790072D01*
X131386496Y-87980000D01*
X126213504Y-87980000D01*
X126193542Y-87790072D01*
X126136356Y-87614072D01*
X126134529Y-87608450D01*
X126134528Y-87608449D01*
X126134527Y-87608444D01*
X126039040Y-87443056D01*
X125911253Y-87301134D01*
X125756752Y-87188882D01*
X125582288Y-87111206D01*
X125582286Y-87111205D01*
X125395487Y-87071500D01*
X125204513Y-87071500D01*
X125017714Y-87111205D01*
X125017712Y-87111206D01*
X124848994Y-87186324D01*
X124843246Y-87188883D01*
X124688745Y-87301135D01*
X124560959Y-87443057D01*
X124465473Y-87608443D01*
X124465470Y-87608450D01*
X124407289Y-87787513D01*
X124406458Y-87790072D01*
X124386496Y-87980000D01*
X123732264Y-87980000D01*
X123789040Y-87916944D01*
X123884527Y-87751556D01*
X123943542Y-87569928D01*
X123963504Y-87380000D01*
X123943542Y-87190072D01*
X123884527Y-87008444D01*
X123789040Y-86843056D01*
X123661253Y-86701134D01*
X123506752Y-86588882D01*
X123332288Y-86511206D01*
X123332286Y-86511205D01*
X123145487Y-86471500D01*
X122954513Y-86471500D01*
X122767714Y-86511205D01*
X122593246Y-86588883D01*
X122438745Y-86701135D01*
X122310959Y-86843057D01*
X122215473Y-87008443D01*
X122215470Y-87008450D01*
X122156844Y-87188883D01*
X122156458Y-87190072D01*
X122136496Y-87380000D01*
X119132144Y-87380000D01*
X119135498Y-83278998D01*
X131460188Y-83278998D01*
X131480150Y-83468926D01*
X131480151Y-83468929D01*
X131539162Y-83650547D01*
X131539165Y-83650554D01*
X131634652Y-83815942D01*
X131762439Y-83957864D01*
X131916940Y-84070116D01*
X132091404Y-84147792D01*
X132278205Y-84187498D01*
X132469179Y-84187498D01*
X132655980Y-84147792D01*
X132830444Y-84070116D01*
X132984945Y-83957864D01*
X133112732Y-83815942D01*
X133208219Y-83650554D01*
X133267234Y-83468926D01*
X133287091Y-83280000D01*
X145736496Y-83280000D01*
X145756458Y-83469928D01*
X145756459Y-83469931D01*
X145815470Y-83651549D01*
X145815473Y-83651556D01*
X145910960Y-83816944D01*
X146038747Y-83958866D01*
X146193248Y-84071118D01*
X146367712Y-84148794D01*
X146554513Y-84188500D01*
X146745487Y-84188500D01*
X146932288Y-84148794D01*
X147106752Y-84071118D01*
X147261253Y-83958866D01*
X147389040Y-83816944D01*
X147484527Y-83651556D01*
X147543542Y-83469928D01*
X147563504Y-83280000D01*
X151986496Y-83280000D01*
X152006458Y-83469928D01*
X152006459Y-83469931D01*
X152065470Y-83651549D01*
X152065473Y-83651556D01*
X152160960Y-83816944D01*
X152288747Y-83958866D01*
X152443248Y-84071118D01*
X152617712Y-84148794D01*
X152804513Y-84188500D01*
X152995487Y-84188500D01*
X153182288Y-84148794D01*
X153356752Y-84071118D01*
X153511253Y-83958866D01*
X153639040Y-83816944D01*
X153734527Y-83651556D01*
X153793542Y-83469928D01*
X153813504Y-83280000D01*
X160686496Y-83280000D01*
X160706458Y-83469928D01*
X160706459Y-83469931D01*
X160765470Y-83651549D01*
X160765473Y-83651556D01*
X160860960Y-83816944D01*
X160988747Y-83958866D01*
X161143248Y-84071118D01*
X161317712Y-84148794D01*
X161504513Y-84188500D01*
X161695487Y-84188500D01*
X161882288Y-84148794D01*
X162056752Y-84071118D01*
X162211253Y-83958866D01*
X162339040Y-83816944D01*
X162434527Y-83651556D01*
X162493542Y-83469928D01*
X162513504Y-83280000D01*
X162493542Y-83090072D01*
X162434527Y-82908444D01*
X162339040Y-82743056D01*
X162211253Y-82601134D01*
X162056752Y-82488882D01*
X161882288Y-82411206D01*
X161882286Y-82411205D01*
X161695487Y-82371500D01*
X161504513Y-82371500D01*
X161317714Y-82411205D01*
X161317712Y-82411206D01*
X161145497Y-82487881D01*
X161143246Y-82488883D01*
X160988745Y-82601135D01*
X160860959Y-82743057D01*
X160765473Y-82908443D01*
X160765470Y-82908450D01*
X160706459Y-83090068D01*
X160706458Y-83090072D01*
X160686496Y-83280000D01*
X153813504Y-83280000D01*
X153793542Y-83090072D01*
X153734527Y-82908444D01*
X153639040Y-82743056D01*
X153511253Y-82601134D01*
X153356752Y-82488882D01*
X153182288Y-82411206D01*
X153182286Y-82411205D01*
X152995487Y-82371500D01*
X152804513Y-82371500D01*
X152617714Y-82411205D01*
X152617712Y-82411206D01*
X152445497Y-82487881D01*
X152443246Y-82488883D01*
X152288745Y-82601135D01*
X152160959Y-82743057D01*
X152065473Y-82908443D01*
X152065470Y-82908450D01*
X152006459Y-83090068D01*
X152006458Y-83090072D01*
X151986496Y-83280000D01*
X147563504Y-83280000D01*
X147543542Y-83090072D01*
X147484527Y-82908444D01*
X147389040Y-82743056D01*
X147261253Y-82601134D01*
X147106752Y-82488882D01*
X146932288Y-82411206D01*
X146932286Y-82411205D01*
X146745487Y-82371500D01*
X146554513Y-82371500D01*
X146367714Y-82411205D01*
X146367712Y-82411206D01*
X146195497Y-82487881D01*
X146193246Y-82488883D01*
X146038745Y-82601135D01*
X145910959Y-82743057D01*
X145815473Y-82908443D01*
X145815470Y-82908450D01*
X145756459Y-83090068D01*
X145756458Y-83090072D01*
X145736496Y-83280000D01*
X133287091Y-83280000D01*
X133287196Y-83278998D01*
X133267234Y-83089070D01*
X133208219Y-82907442D01*
X133112732Y-82742054D01*
X132984945Y-82600132D01*
X132830444Y-82487880D01*
X132655980Y-82410204D01*
X132655978Y-82410203D01*
X132469179Y-82370498D01*
X132278205Y-82370498D01*
X132091406Y-82410203D01*
X131916938Y-82487881D01*
X131762437Y-82600133D01*
X131634651Y-82742055D01*
X131539165Y-82907441D01*
X131539162Y-82907448D01*
X131496581Y-83038500D01*
X131480150Y-83089070D01*
X131460188Y-83278998D01*
X119135498Y-83278998D01*
X119136438Y-82130000D01*
X125686496Y-82130000D01*
X125706458Y-82319928D01*
X125706459Y-82319931D01*
X125765470Y-82501549D01*
X125765473Y-82501556D01*
X125860960Y-82666944D01*
X125988747Y-82808866D01*
X126143248Y-82921118D01*
X126317712Y-82998794D01*
X126504513Y-83038500D01*
X126695487Y-83038500D01*
X126882288Y-82998794D01*
X127056752Y-82921118D01*
X127211253Y-82808866D01*
X127339040Y-82666944D01*
X127434527Y-82501556D01*
X127493542Y-82319928D01*
X127513504Y-82130000D01*
X127493542Y-81940072D01*
X127434664Y-81758866D01*
X127434529Y-81758450D01*
X127434528Y-81758449D01*
X127434527Y-81758444D01*
X127339040Y-81593056D01*
X127237244Y-81480000D01*
X135186496Y-81480000D01*
X135206458Y-81669928D01*
X135206459Y-81669931D01*
X135265470Y-81851549D01*
X135265473Y-81851556D01*
X135360960Y-82016944D01*
X135488747Y-82158866D01*
X135643248Y-82271118D01*
X135817712Y-82348794D01*
X136004513Y-82388500D01*
X136195487Y-82388500D01*
X136382288Y-82348794D01*
X136556752Y-82271118D01*
X136711253Y-82158866D01*
X136839040Y-82016944D01*
X136934527Y-81851556D01*
X136993542Y-81669928D01*
X137013504Y-81480000D01*
X136993542Y-81290072D01*
X136934527Y-81108444D01*
X136839040Y-80943056D01*
X136782264Y-80880000D01*
X138786496Y-80880000D01*
X138806458Y-81069928D01*
X138806459Y-81069931D01*
X138865470Y-81251549D01*
X138865473Y-81251556D01*
X138960960Y-81416944D01*
X139088747Y-81558866D01*
X139243248Y-81671118D01*
X139417712Y-81748794D01*
X139604513Y-81788500D01*
X139795487Y-81788500D01*
X139982288Y-81748794D01*
X140156752Y-81671118D01*
X140311253Y-81558866D01*
X140439040Y-81416944D01*
X140518105Y-81280000D01*
X142386496Y-81280000D01*
X142406458Y-81469928D01*
X142406459Y-81469931D01*
X142465470Y-81651549D01*
X142465473Y-81651556D01*
X142560960Y-81816944D01*
X142688747Y-81958866D01*
X142843248Y-82071118D01*
X143017712Y-82148794D01*
X143204513Y-82188500D01*
X143395487Y-82188500D01*
X143582288Y-82148794D01*
X143624500Y-82130000D01*
X167986496Y-82130000D01*
X168006458Y-82319928D01*
X168006459Y-82319931D01*
X168065470Y-82501549D01*
X168065473Y-82501556D01*
X168160960Y-82666944D01*
X168288747Y-82808866D01*
X168443248Y-82921118D01*
X168617712Y-82998794D01*
X168804513Y-83038500D01*
X168995487Y-83038500D01*
X169182288Y-82998794D01*
X169356752Y-82921118D01*
X169511253Y-82808866D01*
X169639040Y-82666944D01*
X169734527Y-82501556D01*
X169793542Y-82319928D01*
X169813504Y-82130000D01*
X169793542Y-81940072D01*
X169734664Y-81758866D01*
X169734529Y-81758450D01*
X169734528Y-81758449D01*
X169734527Y-81758444D01*
X169639040Y-81593056D01*
X169511253Y-81451134D01*
X169356752Y-81338882D01*
X169182288Y-81261206D01*
X169182286Y-81261205D01*
X168995487Y-81221500D01*
X168804513Y-81221500D01*
X168617714Y-81261205D01*
X168443246Y-81338883D01*
X168288745Y-81451135D01*
X168160959Y-81593057D01*
X168065473Y-81758443D01*
X168065470Y-81758450D01*
X168006459Y-81940068D01*
X168006458Y-81940072D01*
X167986496Y-82130000D01*
X143624500Y-82130000D01*
X143756752Y-82071118D01*
X143911253Y-81958866D01*
X144039040Y-81816944D01*
X144134527Y-81651556D01*
X144193542Y-81469928D01*
X144213504Y-81280000D01*
X144193542Y-81090072D01*
X144134527Y-80908444D01*
X144039040Y-80743056D01*
X143911253Y-80601134D01*
X143756752Y-80488882D01*
X143582288Y-80411206D01*
X143582286Y-80411205D01*
X143395487Y-80371500D01*
X143204513Y-80371500D01*
X143017714Y-80411205D01*
X142843246Y-80488883D01*
X142688745Y-80601135D01*
X142560959Y-80743057D01*
X142465473Y-80908443D01*
X142465470Y-80908450D01*
X142406459Y-81090068D01*
X142406458Y-81090072D01*
X142386496Y-81280000D01*
X140518105Y-81280000D01*
X140534527Y-81251556D01*
X140593542Y-81069928D01*
X140613504Y-80880000D01*
X140593542Y-80690072D01*
X140534527Y-80508444D01*
X140439040Y-80343056D01*
X140311253Y-80201134D01*
X140156752Y-80088882D01*
X139982288Y-80011206D01*
X139982286Y-80011205D01*
X139795487Y-79971500D01*
X139604513Y-79971500D01*
X139417714Y-80011205D01*
X139243246Y-80088883D01*
X139088745Y-80201135D01*
X138960959Y-80343057D01*
X138865473Y-80508443D01*
X138865470Y-80508450D01*
X138806844Y-80688883D01*
X138806458Y-80690072D01*
X138786496Y-80880000D01*
X136782264Y-80880000D01*
X136711253Y-80801134D01*
X136556752Y-80688882D01*
X136382288Y-80611206D01*
X136382286Y-80611205D01*
X136195487Y-80571500D01*
X136004513Y-80571500D01*
X135817714Y-80611205D01*
X135643246Y-80688883D01*
X135488745Y-80801135D01*
X135360959Y-80943057D01*
X135265473Y-81108443D01*
X135265470Y-81108450D01*
X135206459Y-81290068D01*
X135206458Y-81290072D01*
X135186496Y-81480000D01*
X127237244Y-81480000D01*
X127211253Y-81451134D01*
X127056752Y-81338882D01*
X126882288Y-81261206D01*
X126882286Y-81261205D01*
X126695487Y-81221500D01*
X126504513Y-81221500D01*
X126317714Y-81261205D01*
X126143246Y-81338883D01*
X125988745Y-81451135D01*
X125860959Y-81593057D01*
X125765473Y-81758443D01*
X125765470Y-81758450D01*
X125706459Y-81940068D01*
X125706458Y-81940072D01*
X125686496Y-82130000D01*
X119136438Y-82130000D01*
X119137869Y-80380000D01*
X124486496Y-80380000D01*
X124506458Y-80569928D01*
X124506459Y-80569931D01*
X124565470Y-80751549D01*
X124565473Y-80751556D01*
X124660960Y-80916944D01*
X124788747Y-81058866D01*
X124943248Y-81171118D01*
X125117712Y-81248794D01*
X125304513Y-81288500D01*
X125495487Y-81288500D01*
X125682288Y-81248794D01*
X125856752Y-81171118D01*
X126011253Y-81058866D01*
X126139040Y-80916944D01*
X126234527Y-80751556D01*
X126293542Y-80569928D01*
X126313504Y-80380000D01*
X126308249Y-80330000D01*
X127286496Y-80330000D01*
X127306458Y-80519928D01*
X127306459Y-80519931D01*
X127365470Y-80701549D01*
X127365473Y-80701556D01*
X127460960Y-80866944D01*
X127588747Y-81008866D01*
X127743248Y-81121118D01*
X127917712Y-81198794D01*
X128104513Y-81238500D01*
X128295487Y-81238500D01*
X128482288Y-81198794D01*
X128656752Y-81121118D01*
X128811253Y-81008866D01*
X128939040Y-80866944D01*
X129034527Y-80701556D01*
X129093542Y-80519928D01*
X129113504Y-80330000D01*
X131486496Y-80330000D01*
X131506458Y-80519928D01*
X131506459Y-80519931D01*
X131565470Y-80701549D01*
X131565473Y-80701556D01*
X131660960Y-80866944D01*
X131788747Y-81008866D01*
X131943248Y-81121118D01*
X132117712Y-81198794D01*
X132304513Y-81238500D01*
X132495487Y-81238500D01*
X132682288Y-81198794D01*
X132856752Y-81121118D01*
X133011253Y-81008866D01*
X133139040Y-80866944D01*
X133234527Y-80701556D01*
X133293542Y-80519928D01*
X133313504Y-80330000D01*
X133293542Y-80140072D01*
X133234664Y-79958866D01*
X133234529Y-79958450D01*
X133234528Y-79958449D01*
X133234527Y-79958444D01*
X133139040Y-79793056D01*
X133011253Y-79651134D01*
X132856752Y-79538882D01*
X132682288Y-79461206D01*
X132682286Y-79461205D01*
X132495487Y-79421500D01*
X132304513Y-79421500D01*
X132117714Y-79461205D01*
X131943246Y-79538883D01*
X131788745Y-79651135D01*
X131660959Y-79793057D01*
X131565473Y-79958443D01*
X131565470Y-79958450D01*
X131506903Y-80138702D01*
X131506458Y-80140072D01*
X131486496Y-80330000D01*
X129113504Y-80330000D01*
X129093542Y-80140072D01*
X129034664Y-79958866D01*
X129034529Y-79958450D01*
X129034528Y-79958449D01*
X129034527Y-79958444D01*
X128939040Y-79793056D01*
X128811253Y-79651134D01*
X128656752Y-79538882D01*
X128482288Y-79461206D01*
X128482286Y-79461205D01*
X128295487Y-79421500D01*
X128104513Y-79421500D01*
X127917714Y-79461205D01*
X127743246Y-79538883D01*
X127588745Y-79651135D01*
X127460959Y-79793057D01*
X127365473Y-79958443D01*
X127365470Y-79958450D01*
X127306903Y-80138702D01*
X127306458Y-80140072D01*
X127286496Y-80330000D01*
X126308249Y-80330000D01*
X126293542Y-80190072D01*
X126234527Y-80008444D01*
X126139040Y-79843056D01*
X126011253Y-79701134D01*
X125856752Y-79588882D01*
X125682288Y-79511206D01*
X125682286Y-79511205D01*
X125495487Y-79471500D01*
X125304513Y-79471500D01*
X125117714Y-79511205D01*
X124943246Y-79588883D01*
X124788745Y-79701135D01*
X124660959Y-79843057D01*
X124565473Y-80008443D01*
X124565470Y-80008450D01*
X124506459Y-80190068D01*
X124506458Y-80190072D01*
X124486496Y-80380000D01*
X119137869Y-80380000D01*
X119138973Y-79030000D01*
X139836496Y-79030000D01*
X139856458Y-79219928D01*
X139856459Y-79219931D01*
X139915470Y-79401549D01*
X139915473Y-79401556D01*
X140010960Y-79566944D01*
X140138747Y-79708866D01*
X140293248Y-79821118D01*
X140467712Y-79898794D01*
X140654513Y-79938500D01*
X140845487Y-79938500D01*
X141032288Y-79898794D01*
X141206752Y-79821118D01*
X141361253Y-79708866D01*
X141489040Y-79566944D01*
X141584527Y-79401556D01*
X141624023Y-79280000D01*
X147486496Y-79280000D01*
X147506458Y-79469928D01*
X147506459Y-79469931D01*
X147565470Y-79651549D01*
X147565473Y-79651556D01*
X147660960Y-79816944D01*
X147788747Y-79958866D01*
X147943248Y-80071118D01*
X148117712Y-80148794D01*
X148304513Y-80188500D01*
X148495487Y-80188500D01*
X148682288Y-80148794D01*
X148856752Y-80071118D01*
X149011253Y-79958866D01*
X149037244Y-79930000D01*
X149586496Y-79930000D01*
X149606458Y-80119928D01*
X149606459Y-80119931D01*
X149665470Y-80301549D01*
X149665473Y-80301556D01*
X149760960Y-80466944D01*
X149888747Y-80608866D01*
X150043248Y-80721118D01*
X150217712Y-80798794D01*
X150404513Y-80838500D01*
X150595487Y-80838500D01*
X150782288Y-80798794D01*
X150956752Y-80721118D01*
X151111253Y-80608866D01*
X151239040Y-80466944D01*
X151334527Y-80301556D01*
X151393542Y-80119928D01*
X151413504Y-79930000D01*
X151393542Y-79740072D01*
X151334527Y-79558444D01*
X151239040Y-79393056D01*
X151111253Y-79251134D01*
X151082165Y-79230000D01*
X152986496Y-79230000D01*
X153006458Y-79419928D01*
X153006459Y-79419931D01*
X153065470Y-79601549D01*
X153065473Y-79601556D01*
X153160960Y-79766944D01*
X153288747Y-79908866D01*
X153433120Y-80013760D01*
X153475785Y-80069089D01*
X153481764Y-80138702D01*
X153452385Y-80197048D01*
X153410959Y-80243057D01*
X153315473Y-80408443D01*
X153315470Y-80408450D01*
X153271734Y-80543057D01*
X153256458Y-80590072D01*
X153236496Y-80780000D01*
X153256458Y-80969928D01*
X153256459Y-80969931D01*
X153315470Y-81151549D01*
X153315473Y-81151556D01*
X153410960Y-81316944D01*
X153538747Y-81458866D01*
X153693248Y-81571118D01*
X153867712Y-81648794D01*
X154054513Y-81688500D01*
X154245487Y-81688500D01*
X154432288Y-81648794D01*
X154606752Y-81571118D01*
X154761253Y-81458866D01*
X154889040Y-81316944D01*
X154968105Y-81180000D01*
X160436496Y-81180000D01*
X160456458Y-81369928D01*
X160456459Y-81369931D01*
X160515470Y-81551549D01*
X160515473Y-81551556D01*
X160610960Y-81716944D01*
X160738747Y-81858866D01*
X160893248Y-81971118D01*
X161067712Y-82048794D01*
X161254513Y-82088500D01*
X161445487Y-82088500D01*
X161632288Y-82048794D01*
X161806752Y-81971118D01*
X161961253Y-81858866D01*
X162089040Y-81716944D01*
X162184527Y-81551556D01*
X162243542Y-81369928D01*
X162263504Y-81180000D01*
X162252994Y-81080000D01*
X164586496Y-81080000D01*
X164606458Y-81269928D01*
X164606459Y-81269931D01*
X164665470Y-81451549D01*
X164665473Y-81451556D01*
X164760960Y-81616944D01*
X164888747Y-81758866D01*
X165043248Y-81871118D01*
X165217712Y-81948794D01*
X165404513Y-81988500D01*
X165595487Y-81988500D01*
X165782288Y-81948794D01*
X165956752Y-81871118D01*
X166111253Y-81758866D01*
X166239040Y-81616944D01*
X166334527Y-81451556D01*
X166393542Y-81269928D01*
X166413504Y-81080000D01*
X166393542Y-80890072D01*
X166334527Y-80708444D01*
X166239040Y-80543056D01*
X166111253Y-80401134D01*
X165956752Y-80288882D01*
X165782288Y-80211206D01*
X165782286Y-80211205D01*
X165595487Y-80171500D01*
X165404513Y-80171500D01*
X165217714Y-80211205D01*
X165043246Y-80288883D01*
X164888745Y-80401135D01*
X164760959Y-80543057D01*
X164665473Y-80708443D01*
X164665470Y-80708450D01*
X164606459Y-80890068D01*
X164606458Y-80890072D01*
X164586496Y-81080000D01*
X162252994Y-81080000D01*
X162243542Y-80990072D01*
X162184527Y-80808444D01*
X162089040Y-80643056D01*
X161961253Y-80501134D01*
X161806752Y-80388882D01*
X161632288Y-80311206D01*
X161632286Y-80311205D01*
X161445487Y-80271500D01*
X161254513Y-80271500D01*
X161067714Y-80311205D01*
X161067712Y-80311206D01*
X160913198Y-80380000D01*
X160893246Y-80388883D01*
X160738745Y-80501135D01*
X160610959Y-80643057D01*
X160515473Y-80808443D01*
X160515470Y-80808450D01*
X160471734Y-80943057D01*
X160456458Y-80990072D01*
X160436496Y-81180000D01*
X154968105Y-81180000D01*
X154984527Y-81151556D01*
X155043542Y-80969928D01*
X155063504Y-80780000D01*
X155043542Y-80590072D01*
X154984527Y-80408444D01*
X154889040Y-80243056D01*
X154761253Y-80101134D01*
X154616878Y-79996239D01*
X154574214Y-79940910D01*
X154568235Y-79871296D01*
X154597614Y-79812951D01*
X154639040Y-79766944D01*
X154734527Y-79601556D01*
X154793542Y-79419928D01*
X154813504Y-79230000D01*
X159436496Y-79230000D01*
X159456458Y-79419928D01*
X159456459Y-79419931D01*
X159515470Y-79601549D01*
X159515473Y-79601556D01*
X159610960Y-79766944D01*
X159738747Y-79908866D01*
X159893248Y-80021118D01*
X160067712Y-80098794D01*
X160254513Y-80138500D01*
X160445487Y-80138500D01*
X160632288Y-80098794D01*
X160806752Y-80021118D01*
X160961253Y-79908866D01*
X161089040Y-79766944D01*
X161184527Y-79601556D01*
X161243542Y-79419928D01*
X161263504Y-79230000D01*
X161243542Y-79040072D01*
X161184527Y-78858444D01*
X161089040Y-78693056D01*
X160961253Y-78551134D01*
X160806752Y-78438882D01*
X160632288Y-78361206D01*
X160632286Y-78361205D01*
X160445487Y-78321500D01*
X160254513Y-78321500D01*
X160067714Y-78361205D01*
X159893246Y-78438883D01*
X159738745Y-78551135D01*
X159610959Y-78693057D01*
X159515473Y-78858443D01*
X159515470Y-78858450D01*
X159456459Y-79040068D01*
X159456458Y-79040072D01*
X159436496Y-79230000D01*
X154813504Y-79230000D01*
X154793542Y-79040072D01*
X154734527Y-78858444D01*
X154639040Y-78693056D01*
X154511253Y-78551134D01*
X154356752Y-78438882D01*
X154182288Y-78361206D01*
X154182286Y-78361205D01*
X153995487Y-78321500D01*
X153804513Y-78321500D01*
X153617714Y-78361205D01*
X153443246Y-78438883D01*
X153288745Y-78551135D01*
X153160959Y-78693057D01*
X153065473Y-78858443D01*
X153065470Y-78858450D01*
X153006459Y-79040068D01*
X153006458Y-79040072D01*
X152986496Y-79230000D01*
X151082165Y-79230000D01*
X150956752Y-79138882D01*
X150782288Y-79061206D01*
X150782286Y-79061205D01*
X150595487Y-79021500D01*
X150404513Y-79021500D01*
X150217714Y-79061205D01*
X150043246Y-79138883D01*
X149888745Y-79251135D01*
X149760959Y-79393057D01*
X149665473Y-79558443D01*
X149665470Y-79558450D01*
X149606459Y-79740068D01*
X149606458Y-79740072D01*
X149586496Y-79930000D01*
X149037244Y-79930000D01*
X149139040Y-79816944D01*
X149234527Y-79651556D01*
X149293542Y-79469928D01*
X149313504Y-79280000D01*
X149293542Y-79090072D01*
X149234527Y-78908444D01*
X149139040Y-78743056D01*
X149011253Y-78601134D01*
X148856752Y-78488882D01*
X148682288Y-78411206D01*
X148682286Y-78411205D01*
X148495487Y-78371500D01*
X148304513Y-78371500D01*
X148117714Y-78411205D01*
X147943246Y-78488883D01*
X147788745Y-78601135D01*
X147660959Y-78743057D01*
X147565473Y-78908443D01*
X147565470Y-78908450D01*
X147515837Y-79061206D01*
X147506458Y-79090072D01*
X147486496Y-79280000D01*
X141624023Y-79280000D01*
X141643542Y-79219928D01*
X141663504Y-79030000D01*
X141643542Y-78840072D01*
X141584527Y-78658444D01*
X141489040Y-78493056D01*
X141361253Y-78351134D01*
X141206752Y-78238882D01*
X141032288Y-78161206D01*
X141032286Y-78161205D01*
X140845487Y-78121500D01*
X140654513Y-78121500D01*
X140467714Y-78161205D01*
X140293246Y-78238883D01*
X140138745Y-78351135D01*
X140010959Y-78493057D01*
X139915473Y-78658443D01*
X139915470Y-78658450D01*
X139887980Y-78743057D01*
X139856458Y-78840072D01*
X139836496Y-79030000D01*
X119138973Y-79030000D01*
X119141182Y-76330000D01*
X125336496Y-76330000D01*
X125356458Y-76519928D01*
X125356459Y-76519931D01*
X125415470Y-76701549D01*
X125415473Y-76701556D01*
X125510960Y-76866944D01*
X125638747Y-77008866D01*
X125793248Y-77121118D01*
X125967712Y-77198794D01*
X126154513Y-77238500D01*
X126345487Y-77238500D01*
X126532288Y-77198794D01*
X126706752Y-77121118D01*
X126861253Y-77008866D01*
X126932264Y-76930000D01*
X132811496Y-76930000D01*
X132831458Y-77119928D01*
X132831459Y-77119931D01*
X132890470Y-77301549D01*
X132890473Y-77301556D01*
X132985960Y-77466944D01*
X133113747Y-77608866D01*
X133268248Y-77721118D01*
X133442712Y-77798794D01*
X133629513Y-77838500D01*
X133820487Y-77838500D01*
X134007288Y-77798794D01*
X134181752Y-77721118D01*
X134336253Y-77608866D01*
X134464040Y-77466944D01*
X134559527Y-77301556D01*
X134618542Y-77119928D01*
X134638504Y-76930000D01*
X134618542Y-76740072D01*
X134559527Y-76558444D01*
X134464040Y-76393056D01*
X134336253Y-76251134D01*
X134181752Y-76138882D01*
X134007288Y-76061206D01*
X134007286Y-76061205D01*
X133820487Y-76021500D01*
X133629513Y-76021500D01*
X133442714Y-76061205D01*
X133268246Y-76138883D01*
X133113745Y-76251135D01*
X132985959Y-76393057D01*
X132890473Y-76558443D01*
X132890470Y-76558450D01*
X132831459Y-76740068D01*
X132831458Y-76740072D01*
X132811496Y-76930000D01*
X126932264Y-76930000D01*
X126989040Y-76866944D01*
X127084527Y-76701556D01*
X127143542Y-76519928D01*
X127163504Y-76330000D01*
X127143542Y-76140072D01*
X127084527Y-75958444D01*
X126989040Y-75793056D01*
X126861253Y-75651134D01*
X126706752Y-75538882D01*
X126532288Y-75461206D01*
X126532286Y-75461205D01*
X126345487Y-75421500D01*
X126154513Y-75421500D01*
X125967714Y-75461205D01*
X125793246Y-75538883D01*
X125638745Y-75651135D01*
X125510959Y-75793057D01*
X125415473Y-75958443D01*
X125415470Y-75958450D01*
X125356844Y-76138883D01*
X125356458Y-76140072D01*
X125336496Y-76330000D01*
X119141182Y-76330000D01*
X119143186Y-73880000D01*
X131436496Y-73880000D01*
X131456458Y-74069928D01*
X131456459Y-74069931D01*
X131515470Y-74251549D01*
X131515473Y-74251556D01*
X131610960Y-74416944D01*
X131738747Y-74558866D01*
X131893248Y-74671118D01*
X132067712Y-74748794D01*
X132254513Y-74788500D01*
X132445487Y-74788500D01*
X132632288Y-74748794D01*
X132806752Y-74671118D01*
X132961253Y-74558866D01*
X133089040Y-74416944D01*
X133184527Y-74251556D01*
X133191531Y-74230000D01*
X135086496Y-74230000D01*
X135106458Y-74419928D01*
X135106459Y-74419931D01*
X135165470Y-74601549D01*
X135165473Y-74601556D01*
X135260960Y-74766944D01*
X135388747Y-74908866D01*
X135543248Y-75021118D01*
X135717712Y-75098794D01*
X135904513Y-75138500D01*
X136095487Y-75138500D01*
X136135476Y-75130000D01*
X167986496Y-75130000D01*
X168006458Y-75319928D01*
X168006459Y-75319931D01*
X168065470Y-75501549D01*
X168065473Y-75501556D01*
X168160960Y-75666944D01*
X168263290Y-75780594D01*
X168274512Y-75793057D01*
X168288747Y-75808866D01*
X168443248Y-75921118D01*
X168617712Y-75998794D01*
X168804513Y-76038500D01*
X168995487Y-76038500D01*
X169182288Y-75998794D01*
X169356752Y-75921118D01*
X169511253Y-75808866D01*
X169639040Y-75666944D01*
X169734527Y-75501556D01*
X169793542Y-75319928D01*
X169813504Y-75130000D01*
X169793542Y-74940072D01*
X169734527Y-74758444D01*
X169639040Y-74593056D01*
X169511253Y-74451134D01*
X169356752Y-74338882D01*
X169182288Y-74261206D01*
X169182286Y-74261205D01*
X168995487Y-74221500D01*
X168804513Y-74221500D01*
X168617714Y-74261205D01*
X168443246Y-74338883D01*
X168288745Y-74451135D01*
X168160959Y-74593057D01*
X168065473Y-74758443D01*
X168065470Y-74758450D01*
X168006459Y-74940068D01*
X168006458Y-74940072D01*
X167986496Y-75130000D01*
X136135476Y-75130000D01*
X136282288Y-75098794D01*
X136456752Y-75021118D01*
X136611253Y-74908866D01*
X136739040Y-74766944D01*
X136834527Y-74601556D01*
X136893542Y-74419928D01*
X136913504Y-74230000D01*
X136893542Y-74040072D01*
X136841531Y-73880000D01*
X138386496Y-73880000D01*
X138406458Y-74069928D01*
X138406459Y-74069931D01*
X138465470Y-74251549D01*
X138465473Y-74251556D01*
X138560960Y-74416944D01*
X138688747Y-74558866D01*
X138843248Y-74671118D01*
X139017712Y-74748794D01*
X139204513Y-74788500D01*
X139395487Y-74788500D01*
X139582288Y-74748794D01*
X139756752Y-74671118D01*
X139911253Y-74558866D01*
X140039040Y-74416944D01*
X140134527Y-74251556D01*
X140193542Y-74069928D01*
X140213504Y-73880000D01*
X145386496Y-73880000D01*
X145406458Y-74069928D01*
X145406459Y-74069931D01*
X145465470Y-74251549D01*
X145465473Y-74251556D01*
X145560960Y-74416944D01*
X145688747Y-74558866D01*
X145843248Y-74671118D01*
X146017712Y-74748794D01*
X146204513Y-74788500D01*
X146395487Y-74788500D01*
X146582288Y-74748794D01*
X146756752Y-74671118D01*
X146911253Y-74558866D01*
X147039040Y-74416944D01*
X147134527Y-74251556D01*
X147193542Y-74069928D01*
X147213504Y-73880000D01*
X152486496Y-73880000D01*
X152506458Y-74069928D01*
X152506459Y-74069931D01*
X152565470Y-74251549D01*
X152565473Y-74251556D01*
X152660960Y-74416944D01*
X152788747Y-74558866D01*
X152943248Y-74671118D01*
X153117712Y-74748794D01*
X153304513Y-74788500D01*
X153495487Y-74788500D01*
X153682288Y-74748794D01*
X153856752Y-74671118D01*
X154011253Y-74558866D01*
X154139040Y-74416944D01*
X154234527Y-74251556D01*
X154293542Y-74069928D01*
X154313504Y-73880000D01*
X159386496Y-73880000D01*
X159406458Y-74069928D01*
X159406459Y-74069931D01*
X159465470Y-74251549D01*
X159465473Y-74251556D01*
X159560960Y-74416944D01*
X159688747Y-74558866D01*
X159843248Y-74671118D01*
X160017712Y-74748794D01*
X160204513Y-74788500D01*
X160395487Y-74788500D01*
X160582288Y-74748794D01*
X160756752Y-74671118D01*
X160911253Y-74558866D01*
X161039040Y-74416944D01*
X161134527Y-74251556D01*
X161193542Y-74069928D01*
X161213504Y-73880000D01*
X161197739Y-73730000D01*
X170736496Y-73730000D01*
X170756458Y-73919928D01*
X170756459Y-73919931D01*
X170815470Y-74101549D01*
X170815473Y-74101556D01*
X170910960Y-74266944D01*
X171038747Y-74408866D01*
X171193248Y-74521118D01*
X171367712Y-74598794D01*
X171554513Y-74638500D01*
X171745487Y-74638500D01*
X171932288Y-74598794D01*
X172106752Y-74521118D01*
X172261253Y-74408866D01*
X172389040Y-74266944D01*
X172484527Y-74101556D01*
X172543542Y-73919928D01*
X172563504Y-73730000D01*
X172543542Y-73540072D01*
X172484527Y-73358444D01*
X172389040Y-73193056D01*
X172261253Y-73051134D01*
X172106752Y-72938882D01*
X171932288Y-72861206D01*
X171932286Y-72861205D01*
X171745487Y-72821500D01*
X171554513Y-72821500D01*
X171367714Y-72861205D01*
X171193246Y-72938883D01*
X171038745Y-73051135D01*
X170910959Y-73193057D01*
X170815473Y-73358443D01*
X170815470Y-73358450D01*
X170756459Y-73540068D01*
X170756458Y-73540072D01*
X170736496Y-73730000D01*
X161197739Y-73730000D01*
X161193542Y-73690072D01*
X161134527Y-73508444D01*
X161039040Y-73343056D01*
X160911253Y-73201134D01*
X160756752Y-73088882D01*
X160582288Y-73011206D01*
X160582286Y-73011205D01*
X160395487Y-72971500D01*
X160204513Y-72971500D01*
X160017714Y-73011205D01*
X159843246Y-73088883D01*
X159688745Y-73201135D01*
X159560959Y-73343057D01*
X159465473Y-73508443D01*
X159465470Y-73508450D01*
X159406459Y-73690068D01*
X159406458Y-73690072D01*
X159386496Y-73880000D01*
X154313504Y-73880000D01*
X154293542Y-73690072D01*
X154234527Y-73508444D01*
X154139040Y-73343056D01*
X154011253Y-73201134D01*
X153856752Y-73088882D01*
X153682288Y-73011206D01*
X153682286Y-73011205D01*
X153495487Y-72971500D01*
X153304513Y-72971500D01*
X153117714Y-73011205D01*
X152943246Y-73088883D01*
X152788745Y-73201135D01*
X152660959Y-73343057D01*
X152565473Y-73508443D01*
X152565470Y-73508450D01*
X152506459Y-73690068D01*
X152506458Y-73690072D01*
X152486496Y-73880000D01*
X147213504Y-73880000D01*
X147193542Y-73690072D01*
X147134527Y-73508444D01*
X147039040Y-73343056D01*
X146911253Y-73201134D01*
X146756752Y-73088882D01*
X146582288Y-73011206D01*
X146582286Y-73011205D01*
X146395487Y-72971500D01*
X146204513Y-72971500D01*
X146017714Y-73011205D01*
X145843246Y-73088883D01*
X145688745Y-73201135D01*
X145560959Y-73343057D01*
X145465473Y-73508443D01*
X145465470Y-73508450D01*
X145406459Y-73690068D01*
X145406458Y-73690072D01*
X145386496Y-73880000D01*
X140213504Y-73880000D01*
X140193542Y-73690072D01*
X140134527Y-73508444D01*
X140039040Y-73343056D01*
X139911253Y-73201134D01*
X139756752Y-73088882D01*
X139582288Y-73011206D01*
X139582286Y-73011205D01*
X139395487Y-72971500D01*
X139204513Y-72971500D01*
X139017714Y-73011205D01*
X138843246Y-73088883D01*
X138688745Y-73201135D01*
X138560959Y-73343057D01*
X138465473Y-73508443D01*
X138465470Y-73508450D01*
X138406459Y-73690068D01*
X138406458Y-73690072D01*
X138386496Y-73880000D01*
X136841531Y-73880000D01*
X136834527Y-73858444D01*
X136739040Y-73693056D01*
X136611253Y-73551134D01*
X136456752Y-73438882D01*
X136282288Y-73361206D01*
X136282286Y-73361205D01*
X136095487Y-73321500D01*
X135904513Y-73321500D01*
X135717714Y-73361205D01*
X135543246Y-73438883D01*
X135388745Y-73551135D01*
X135260959Y-73693057D01*
X135165473Y-73858443D01*
X135165470Y-73858450D01*
X135145495Y-73919928D01*
X135106458Y-74040072D01*
X135086496Y-74230000D01*
X133191531Y-74230000D01*
X133243542Y-74069928D01*
X133263504Y-73880000D01*
X133243542Y-73690072D01*
X133184527Y-73508444D01*
X133089040Y-73343056D01*
X132961253Y-73201134D01*
X132806752Y-73088882D01*
X132632288Y-73011206D01*
X132632286Y-73011205D01*
X132445487Y-72971500D01*
X132254513Y-72971500D01*
X132067714Y-73011205D01*
X131893246Y-73088883D01*
X131738745Y-73201135D01*
X131610959Y-73343057D01*
X131515473Y-73508443D01*
X131515470Y-73508450D01*
X131456459Y-73690068D01*
X131456458Y-73690072D01*
X131436496Y-73880000D01*
X119143186Y-73880000D01*
X119146744Y-69530000D01*
X145436496Y-69530000D01*
X145456458Y-69719928D01*
X145456459Y-69719931D01*
X145515470Y-69901549D01*
X145515473Y-69901556D01*
X145610960Y-70066944D01*
X145738747Y-70208866D01*
X145893248Y-70321118D01*
X146067712Y-70398794D01*
X146254513Y-70438500D01*
X146445487Y-70438500D01*
X146632288Y-70398794D01*
X146806752Y-70321118D01*
X146961253Y-70208866D01*
X147089040Y-70066944D01*
X147184527Y-69901556D01*
X147243542Y-69719928D01*
X147263504Y-69530000D01*
X147243542Y-69340072D01*
X147184527Y-69158444D01*
X147089040Y-68993056D01*
X146961253Y-68851134D01*
X146806752Y-68738882D01*
X146632288Y-68661206D01*
X146632286Y-68661205D01*
X146445487Y-68621500D01*
X146254513Y-68621500D01*
X146067714Y-68661205D01*
X145893246Y-68738883D01*
X145738745Y-68851135D01*
X145610959Y-68993057D01*
X145515473Y-69158443D01*
X145515470Y-69158450D01*
X145456459Y-69340068D01*
X145456458Y-69340072D01*
X145436496Y-69530000D01*
X119146744Y-69530000D01*
X119147889Y-68130000D01*
X125686496Y-68130000D01*
X125706458Y-68319928D01*
X125706459Y-68319931D01*
X125765470Y-68501549D01*
X125765473Y-68501556D01*
X125860960Y-68666944D01*
X125988747Y-68808866D01*
X126143248Y-68921118D01*
X126317712Y-68998794D01*
X126504513Y-69038500D01*
X126695487Y-69038500D01*
X126882288Y-68998794D01*
X127056752Y-68921118D01*
X127211253Y-68808866D01*
X127339040Y-68666944D01*
X127434527Y-68501556D01*
X127493542Y-68319928D01*
X127513504Y-68130000D01*
X127508249Y-68080000D01*
X132686496Y-68080000D01*
X132706458Y-68269928D01*
X132706459Y-68269931D01*
X132765470Y-68451549D01*
X132765473Y-68451556D01*
X132860960Y-68616944D01*
X132988747Y-68758866D01*
X133143248Y-68871118D01*
X133317712Y-68948794D01*
X133504513Y-68988500D01*
X133695487Y-68988500D01*
X133882288Y-68948794D01*
X134056752Y-68871118D01*
X134211253Y-68758866D01*
X134339040Y-68616944D01*
X134434527Y-68451556D01*
X134493542Y-68269928D01*
X134508249Y-68130000D01*
X139736496Y-68130000D01*
X139756458Y-68319928D01*
X139756459Y-68319931D01*
X139815470Y-68501549D01*
X139815473Y-68501556D01*
X139910960Y-68666944D01*
X140038747Y-68808866D01*
X140193248Y-68921118D01*
X140367712Y-68998794D01*
X140554513Y-69038500D01*
X140745487Y-69038500D01*
X140932288Y-68998794D01*
X141106752Y-68921118D01*
X141261253Y-68808866D01*
X141389040Y-68666944D01*
X141484527Y-68501556D01*
X141543542Y-68319928D01*
X141563504Y-68130000D01*
X153786496Y-68130000D01*
X153806458Y-68319928D01*
X153806459Y-68319931D01*
X153865470Y-68501549D01*
X153865473Y-68501556D01*
X153960960Y-68666944D01*
X154088747Y-68808866D01*
X154243248Y-68921118D01*
X154417712Y-68998794D01*
X154604513Y-69038500D01*
X154795487Y-69038500D01*
X154982288Y-68998794D01*
X155156752Y-68921118D01*
X155311253Y-68808866D01*
X155439040Y-68666944D01*
X155534527Y-68501556D01*
X155593542Y-68319928D01*
X155613504Y-68130000D01*
X160736496Y-68130000D01*
X160756458Y-68319928D01*
X160756459Y-68319931D01*
X160815470Y-68501549D01*
X160815473Y-68501556D01*
X160910960Y-68666944D01*
X161038747Y-68808866D01*
X161193248Y-68921118D01*
X161367712Y-68998794D01*
X161554513Y-69038500D01*
X161745487Y-69038500D01*
X161932288Y-68998794D01*
X162106752Y-68921118D01*
X162261253Y-68808866D01*
X162389040Y-68666944D01*
X162484527Y-68501556D01*
X162543542Y-68319928D01*
X162558249Y-68180000D01*
X167986496Y-68180000D01*
X168006458Y-68369928D01*
X168006459Y-68369931D01*
X168065470Y-68551549D01*
X168065473Y-68551556D01*
X168160960Y-68716944D01*
X168288747Y-68858866D01*
X168443248Y-68971118D01*
X168617712Y-69048794D01*
X168804513Y-69088500D01*
X168995487Y-69088500D01*
X169182288Y-69048794D01*
X169356752Y-68971118D01*
X169511253Y-68858866D01*
X169639040Y-68716944D01*
X169734527Y-68551556D01*
X169793542Y-68369928D01*
X169813504Y-68180000D01*
X169793542Y-67990072D01*
X169734527Y-67808444D01*
X169639040Y-67643056D01*
X169511253Y-67501134D01*
X169356752Y-67388882D01*
X169182288Y-67311206D01*
X169182286Y-67311205D01*
X168995487Y-67271500D01*
X168804513Y-67271500D01*
X168617714Y-67311205D01*
X168443246Y-67388883D01*
X168288745Y-67501135D01*
X168160959Y-67643057D01*
X168065473Y-67808443D01*
X168065470Y-67808450D01*
X168038950Y-67890072D01*
X168006458Y-67990072D01*
X167986496Y-68180000D01*
X162558249Y-68180000D01*
X162563504Y-68130000D01*
X162543542Y-67940072D01*
X162484527Y-67758444D01*
X162389040Y-67593056D01*
X162261253Y-67451134D01*
X162106752Y-67338882D01*
X161932288Y-67261206D01*
X161932286Y-67261205D01*
X161745487Y-67221500D01*
X161554513Y-67221500D01*
X161367714Y-67261205D01*
X161193246Y-67338883D01*
X161038745Y-67451135D01*
X160910959Y-67593057D01*
X160815473Y-67758443D01*
X160815470Y-67758450D01*
X160772705Y-67890068D01*
X160756458Y-67940072D01*
X160736496Y-68130000D01*
X155613504Y-68130000D01*
X155593542Y-67940072D01*
X155534527Y-67758444D01*
X155439040Y-67593056D01*
X155311253Y-67451134D01*
X155156752Y-67338882D01*
X154982288Y-67261206D01*
X154982286Y-67261205D01*
X154795487Y-67221500D01*
X154604513Y-67221500D01*
X154417714Y-67261205D01*
X154243246Y-67338883D01*
X154088745Y-67451135D01*
X153960959Y-67593057D01*
X153865473Y-67758443D01*
X153865470Y-67758450D01*
X153822705Y-67890068D01*
X153806458Y-67940072D01*
X153786496Y-68130000D01*
X141563504Y-68130000D01*
X141543542Y-67940072D01*
X141484527Y-67758444D01*
X141389040Y-67593056D01*
X141261253Y-67451134D01*
X141106752Y-67338882D01*
X140932288Y-67261206D01*
X140932286Y-67261205D01*
X140745487Y-67221500D01*
X140554513Y-67221500D01*
X140367714Y-67261205D01*
X140193246Y-67338883D01*
X140038745Y-67451135D01*
X139910959Y-67593057D01*
X139815473Y-67758443D01*
X139815470Y-67758450D01*
X139772705Y-67890068D01*
X139756458Y-67940072D01*
X139736496Y-68130000D01*
X134508249Y-68130000D01*
X134513504Y-68080000D01*
X134493542Y-67890072D01*
X134434527Y-67708444D01*
X134339040Y-67543056D01*
X134211253Y-67401134D01*
X134056752Y-67288882D01*
X133882288Y-67211206D01*
X133882286Y-67211205D01*
X133695487Y-67171500D01*
X133504513Y-67171500D01*
X133317714Y-67211205D01*
X133143246Y-67288883D01*
X132988745Y-67401135D01*
X132860959Y-67543057D01*
X132765473Y-67708443D01*
X132765470Y-67708450D01*
X132706459Y-67890068D01*
X132706458Y-67890072D01*
X132686496Y-68080000D01*
X127508249Y-68080000D01*
X127493542Y-67940072D01*
X127434527Y-67758444D01*
X127339040Y-67593056D01*
X127211253Y-67451134D01*
X127056752Y-67338882D01*
X126882288Y-67261206D01*
X126882286Y-67261205D01*
X126695487Y-67221500D01*
X126504513Y-67221500D01*
X126317714Y-67261205D01*
X126143246Y-67338883D01*
X125988745Y-67451135D01*
X125860959Y-67593057D01*
X125765473Y-67758443D01*
X125765470Y-67758450D01*
X125722705Y-67890068D01*
X125706458Y-67940072D01*
X125686496Y-68130000D01*
X119147889Y-68130000D01*
X119151690Y-63482822D01*
X119151829Y-63477080D01*
X119159654Y-63312751D01*
X119160884Y-63300275D01*
X119210431Y-62970134D01*
X119213372Y-62956123D01*
X119300452Y-62634778D01*
X119304987Y-62621204D01*
X119428573Y-62312045D01*
X119434639Y-62299096D01*
X119593078Y-62006265D01*
X119600607Y-61994087D01*
X119791783Y-61721495D01*
X119800661Y-61710276D01*
X120022022Y-61461563D01*
X120032123Y-61451456D01*
X120280715Y-61229944D01*
X120291932Y-61221058D01*
X120415060Y-61134598D01*
X120564394Y-61029738D01*
X120576581Y-61022192D01*
X120588591Y-61015685D01*
X120869311Y-60863587D01*
X120882271Y-60857507D01*
X121191335Y-60733750D01*
X121204926Y-60729201D01*
X121348565Y-60690186D01*
X121526220Y-60641933D01*
X121540223Y-60638986D01*
X121870307Y-60589251D01*
X121882840Y-60588010D01*
X122047039Y-60580141D01*
X122052968Y-60580000D01*
X122298700Y-60580008D01*
G37*
%TD.AperFunction*%
%TD*%
M02*
