%TF.GenerationSoftware,KiCad,Pcbnew,8.0.5*%
%TF.CreationDate,2024-10-21T18:22:43-10:00*%
%TF.ProjectId,SiPMT.revA,5369504d-542e-4726-9576-412e6b696361,rev?*%
%TF.SameCoordinates,Original*%
%TF.FileFunction,Paste,Bot*%
%TF.FilePolarity,Positive*%
%FSLAX46Y46*%
G04 Gerber Fmt 4.6, Leading zero omitted, Abs format (unit mm)*
G04 Created by KiCad (PCBNEW 8.0.5) date 2024-10-21 18:22:43*
%MOMM*%
%LPD*%
G01*
G04 APERTURE LIST*
G04 Aperture macros list*
%AMRoundRect*
0 Rectangle with rounded corners*
0 $1 Rounding radius*
0 $2 $3 $4 $5 $6 $7 $8 $9 X,Y pos of 4 corners*
0 Add a 4 corners polygon primitive as box body*
4,1,4,$2,$3,$4,$5,$6,$7,$8,$9,$2,$3,0*
0 Add four circle primitives for the rounded corners*
1,1,$1+$1,$2,$3*
1,1,$1+$1,$4,$5*
1,1,$1+$1,$6,$7*
1,1,$1+$1,$8,$9*
0 Add four rect primitives between the rounded corners*
20,1,$1+$1,$2,$3,$4,$5,0*
20,1,$1+$1,$4,$5,$6,$7,0*
20,1,$1+$1,$6,$7,$8,$9,0*
20,1,$1+$1,$8,$9,$2,$3,0*%
G04 Aperture macros list end*
%ADD10RoundRect,0.237500X0.250000X0.237500X-0.250000X0.237500X-0.250000X-0.237500X0.250000X-0.237500X0*%
%ADD11R,2.325000X1.300000*%
%ADD12RoundRect,0.237500X0.300000X0.237500X-0.300000X0.237500X-0.300000X-0.237500X0.300000X-0.237500X0*%
G04 APERTURE END LIST*
D10*
%TO.C,R3*%
X160312500Y-68155000D03*
X158487500Y-68155000D03*
%TD*%
D11*
%TO.C,D40*%
X143737500Y-104730000D03*
X143737500Y-106580000D03*
%TD*%
%TO.C,D11*%
X122720000Y-90730000D03*
X122720000Y-92580000D03*
%TD*%
%TO.C,D25*%
X150737500Y-83780000D03*
X150737500Y-85630000D03*
%TD*%
%TO.C,D20*%
X129700000Y-76755000D03*
X129700000Y-78605000D03*
%TD*%
%TO.C,D42*%
X150737500Y-104730000D03*
X150737500Y-106580000D03*
%TD*%
D10*
%TO.C,R1*%
X153400000Y-68155000D03*
X151575000Y-68155000D03*
%TD*%
%TO.C,R55*%
X146250000Y-110205000D03*
X144425000Y-110205000D03*
%TD*%
%TO.C,R58*%
X153350000Y-117205000D03*
X151525000Y-117205000D03*
%TD*%
D11*
%TO.C,D4*%
X157737500Y-76730000D03*
X157737500Y-78580000D03*
%TD*%
D10*
%TO.C,R5*%
X167400000Y-68155000D03*
X165575000Y-68155000D03*
%TD*%
D11*
%TO.C,D55*%
X143737500Y-111730000D03*
X143737500Y-113580000D03*
%TD*%
D10*
%TO.C,R43*%
X160300000Y-96205000D03*
X158475000Y-96205000D03*
%TD*%
D11*
%TO.C,D32*%
X171737500Y-90730000D03*
X171737500Y-92580000D03*
%TD*%
%TO.C,D36*%
X129687500Y-104730000D03*
X129687500Y-106580000D03*
%TD*%
%TO.C,D43*%
X157687500Y-97730000D03*
X157687500Y-99580000D03*
%TD*%
%TO.C,D53*%
X136737500Y-111730000D03*
X136737500Y-113580000D03*
%TD*%
D10*
%TO.C,R48*%
X173800000Y-103205000D03*
X171975000Y-103205000D03*
%TD*%
D11*
%TO.C,D10*%
X122715000Y-83780000D03*
X122715000Y-85630000D03*
%TD*%
D12*
%TO.C,C4*%
X131175000Y-122830000D03*
X129450000Y-122830000D03*
%TD*%
D11*
%TO.C,D17*%
X143712500Y-76755000D03*
X143712500Y-78605000D03*
%TD*%
D10*
%TO.C,R24*%
X146237500Y-89205000D03*
X144412500Y-89205000D03*
%TD*%
%TO.C,R16*%
X139300000Y-89205000D03*
X137475000Y-89205000D03*
%TD*%
D11*
%TO.C,D14*%
X136762500Y-83780000D03*
X136762500Y-85630000D03*
%TD*%
%TO.C,D18*%
X122650000Y-69755000D03*
X122650000Y-71605000D03*
%TD*%
%TO.C,D54*%
X136750000Y-118730000D03*
X136750000Y-120580000D03*
%TD*%
D10*
%TO.C,R21*%
X139312500Y-68130000D03*
X137487500Y-68130000D03*
%TD*%
%TO.C,R57*%
X153350000Y-110205000D03*
X151525000Y-110205000D03*
%TD*%
%TO.C,R7*%
X125312500Y-75130000D03*
X123487500Y-75130000D03*
%TD*%
D11*
%TO.C,D38*%
X136787500Y-104730000D03*
X136787500Y-106580000D03*
%TD*%
%TO.C,D33*%
X122737500Y-97730000D03*
X122737500Y-99580000D03*
%TD*%
%TO.C,D62*%
X164700000Y-118730000D03*
X164700000Y-120580000D03*
%TD*%
D10*
%TO.C,R8*%
X173800000Y-68155000D03*
X171975000Y-68155000D03*
%TD*%
%TO.C,R52*%
X132250000Y-117205000D03*
X130425000Y-117205000D03*
%TD*%
%TO.C,R23*%
X146250000Y-82205000D03*
X144425000Y-82205000D03*
%TD*%
%TO.C,R17*%
X146312500Y-75130000D03*
X144487500Y-75130000D03*
%TD*%
%TO.C,R20*%
X132312500Y-75130000D03*
X130487500Y-75130000D03*
%TD*%
%TO.C,R38*%
X139300000Y-103205000D03*
X137475000Y-103205000D03*
%TD*%
%TO.C,R22*%
X146312500Y-68180000D03*
X144487500Y-68180000D03*
%TD*%
D11*
%TO.C,D8*%
X171737500Y-69730000D03*
X171737500Y-71580000D03*
%TD*%
%TO.C,D64*%
X171700000Y-118730000D03*
X171700000Y-120580000D03*
%TD*%
%TO.C,D37*%
X136787500Y-97730000D03*
X136787500Y-99580000D03*
%TD*%
%TO.C,D12*%
X129737500Y-83780000D03*
X129737500Y-85630000D03*
%TD*%
D10*
%TO.C,R46*%
X167400000Y-103205000D03*
X165575000Y-103205000D03*
%TD*%
D12*
%TO.C,C7*%
X155512500Y-122830000D03*
X153787500Y-122830000D03*
%TD*%
D11*
%TO.C,D46*%
X164737500Y-104730000D03*
X164737500Y-106580000D03*
%TD*%
%TO.C,D26*%
X150737500Y-90730000D03*
X150737500Y-92580000D03*
%TD*%
D10*
%TO.C,R39*%
X146250000Y-96205000D03*
X144425000Y-96205000D03*
%TD*%
D11*
%TO.C,D60*%
X157750000Y-118730000D03*
X157750000Y-120580000D03*
%TD*%
%TO.C,D7*%
X122662500Y-76755000D03*
X122662500Y-78605000D03*
%TD*%
%TO.C,D2*%
X150737500Y-76730000D03*
X150737500Y-78580000D03*
%TD*%
%TO.C,D58*%
X150750000Y-118730000D03*
X150750000Y-120580000D03*
%TD*%
%TO.C,D44*%
X157687500Y-104730000D03*
X157687500Y-106580000D03*
%TD*%
D10*
%TO.C,R34*%
X125300000Y-103205000D03*
X123475000Y-103205000D03*
%TD*%
D11*
%TO.C,D24*%
X143737500Y-90730000D03*
X143737500Y-92580000D03*
%TD*%
D10*
%TO.C,R56*%
X146250000Y-117205000D03*
X144425000Y-117205000D03*
%TD*%
%TO.C,R26*%
X153350000Y-89205000D03*
X151525000Y-89205000D03*
%TD*%
%TO.C,R41*%
X153350000Y-96205000D03*
X151525000Y-96205000D03*
%TD*%
%TO.C,R30*%
X167400000Y-89205000D03*
X165575000Y-89205000D03*
%TD*%
D11*
%TO.C,D23*%
X143737500Y-83780000D03*
X143737500Y-85630000D03*
%TD*%
%TO.C,D5*%
X164687500Y-69655000D03*
X164687500Y-71505000D03*
%TD*%
D10*
%TO.C,R19*%
X132312500Y-68130000D03*
X130487500Y-68130000D03*
%TD*%
%TO.C,R47*%
X173800000Y-96205000D03*
X171975000Y-96205000D03*
%TD*%
%TO.C,R44*%
X160300000Y-103205000D03*
X158475000Y-103205000D03*
%TD*%
D12*
%TO.C,C6*%
X164300000Y-122830000D03*
X162575000Y-122830000D03*
%TD*%
D11*
%TO.C,D3*%
X157637500Y-69680000D03*
X157637500Y-71530000D03*
%TD*%
D10*
%TO.C,R62*%
X167400000Y-117205000D03*
X165575000Y-117205000D03*
%TD*%
%TO.C,R12*%
X132300000Y-82205000D03*
X130475000Y-82205000D03*
%TD*%
%TO.C,R45*%
X167400000Y-96205000D03*
X165575000Y-96205000D03*
%TD*%
%TO.C,R2*%
X153400000Y-75155000D03*
X151575000Y-75155000D03*
%TD*%
%TO.C,R63*%
X173800000Y-110205000D03*
X171975000Y-110205000D03*
%TD*%
%TO.C,R15*%
X139312500Y-75130000D03*
X137487500Y-75130000D03*
%TD*%
D11*
%TO.C,D6*%
X164737500Y-76730000D03*
X164737500Y-78580000D03*
%TD*%
D10*
%TO.C,R33*%
X125300000Y-96205000D03*
X123475000Y-96205000D03*
%TD*%
%TO.C,R28*%
X160300000Y-89205000D03*
X158475000Y-89205000D03*
%TD*%
D11*
%TO.C,D48*%
X171750000Y-104730000D03*
X171750000Y-106580000D03*
%TD*%
D10*
%TO.C,R11*%
X125300000Y-89205000D03*
X123475000Y-89205000D03*
%TD*%
D12*
%TO.C,C5*%
X139925000Y-122830000D03*
X138200000Y-122830000D03*
%TD*%
D10*
%TO.C,R10*%
X125300000Y-82205000D03*
X123475000Y-82205000D03*
%TD*%
D11*
%TO.C,D49*%
X122737500Y-111730000D03*
X122737500Y-113580000D03*
%TD*%
D10*
%TO.C,R60*%
X160300000Y-117205000D03*
X158475000Y-117205000D03*
%TD*%
%TO.C,R9*%
X173800000Y-75155000D03*
X171975000Y-75155000D03*
%TD*%
D11*
%TO.C,D13*%
X129787500Y-90730000D03*
X129787500Y-92580000D03*
%TD*%
D10*
%TO.C,R59*%
X160300000Y-110205000D03*
X158475000Y-110205000D03*
%TD*%
D11*
%TO.C,D63*%
X171700000Y-111730000D03*
X171700000Y-113580000D03*
%TD*%
%TO.C,D21*%
X136712500Y-69705000D03*
X136712500Y-71555000D03*
%TD*%
D10*
%TO.C,R32*%
X173800000Y-89205000D03*
X171975000Y-89205000D03*
%TD*%
D11*
%TO.C,D61*%
X164700000Y-111730000D03*
X164700000Y-113580000D03*
%TD*%
%TO.C,D51*%
X129687500Y-111730000D03*
X129687500Y-113580000D03*
%TD*%
D10*
%TO.C,R36*%
X132300000Y-103205000D03*
X130475000Y-103205000D03*
%TD*%
D11*
%TO.C,D56*%
X143750000Y-118730000D03*
X143750000Y-120580000D03*
%TD*%
D10*
%TO.C,R64*%
X173800000Y-117205000D03*
X171975000Y-117205000D03*
%TD*%
D11*
%TO.C,D35*%
X129650000Y-97730000D03*
X129650000Y-99580000D03*
%TD*%
%TO.C,D28*%
X157687500Y-90730000D03*
X157687500Y-92580000D03*
%TD*%
D10*
%TO.C,R51*%
X132250000Y-110205000D03*
X130425000Y-110205000D03*
%TD*%
D11*
%TO.C,D30*%
X164737500Y-90730000D03*
X164737500Y-92580000D03*
%TD*%
%TO.C,D47*%
X171737500Y-97730000D03*
X171737500Y-99580000D03*
%TD*%
%TO.C,D19*%
X129600000Y-69705000D03*
X129600000Y-71555000D03*
%TD*%
%TO.C,D22*%
X143700000Y-69705000D03*
X143700000Y-71555000D03*
%TD*%
%TO.C,D15*%
X136700000Y-76755000D03*
X136700000Y-78605000D03*
%TD*%
D10*
%TO.C,R4*%
X160287500Y-75155000D03*
X158462500Y-75155000D03*
%TD*%
%TO.C,R27*%
X160300000Y-82205000D03*
X158475000Y-82205000D03*
%TD*%
D11*
%TO.C,D1*%
X150737500Y-69755000D03*
X150737500Y-71605000D03*
%TD*%
%TO.C,D29*%
X164737500Y-83780000D03*
X164737500Y-85630000D03*
%TD*%
D10*
%TO.C,R31*%
X173800000Y-82205000D03*
X171975000Y-82205000D03*
%TD*%
%TO.C,R25*%
X153400000Y-82205000D03*
X151575000Y-82205000D03*
%TD*%
D11*
%TO.C,D41*%
X150737500Y-97730000D03*
X150737500Y-99580000D03*
%TD*%
%TO.C,D16*%
X136787500Y-90730000D03*
X136787500Y-92580000D03*
%TD*%
D10*
%TO.C,R40*%
X146250000Y-103205000D03*
X144425000Y-103205000D03*
%TD*%
%TO.C,R6*%
X167400000Y-75155000D03*
X165575000Y-75155000D03*
%TD*%
%TO.C,R53*%
X139300000Y-110205000D03*
X137475000Y-110205000D03*
%TD*%
D11*
%TO.C,D31*%
X171737500Y-83780000D03*
X171737500Y-85630000D03*
%TD*%
%TO.C,D9*%
X171737500Y-76730000D03*
X171737500Y-78580000D03*
%TD*%
%TO.C,D34*%
X122737500Y-104730000D03*
X122737500Y-106580000D03*
%TD*%
D10*
%TO.C,R13*%
X132300000Y-89205000D03*
X130475000Y-89205000D03*
%TD*%
%TO.C,R42*%
X153350000Y-103205000D03*
X151525000Y-103205000D03*
%TD*%
D11*
%TO.C,D57*%
X150700000Y-111730000D03*
X150700000Y-113580000D03*
%TD*%
%TO.C,D59*%
X157600000Y-111730000D03*
X157600000Y-113580000D03*
%TD*%
D10*
%TO.C,R14*%
X139287500Y-82205000D03*
X137462500Y-82205000D03*
%TD*%
D11*
%TO.C,D45*%
X164737500Y-97730000D03*
X164737500Y-99580000D03*
%TD*%
%TO.C,D39*%
X143737500Y-97730000D03*
X143737500Y-99580000D03*
%TD*%
D10*
%TO.C,R37*%
X139300000Y-96205000D03*
X137475000Y-96205000D03*
%TD*%
D11*
%TO.C,D52*%
X129737500Y-118730000D03*
X129737500Y-120580000D03*
%TD*%
D10*
%TO.C,R54*%
X139300000Y-117205000D03*
X137475000Y-117205000D03*
%TD*%
D11*
%TO.C,D50*%
X122737500Y-118730000D03*
X122737500Y-120580000D03*
%TD*%
D10*
%TO.C,R29*%
X167400000Y-82205000D03*
X165575000Y-82205000D03*
%TD*%
%TO.C,R49*%
X125300000Y-110205000D03*
X123475000Y-110205000D03*
%TD*%
%TO.C,R61*%
X167400000Y-110205000D03*
X165575000Y-110205000D03*
%TD*%
D11*
%TO.C,D27*%
X157700000Y-83780000D03*
X157700000Y-85630000D03*
%TD*%
D10*
%TO.C,R50*%
X125300000Y-117205000D03*
X123475000Y-117205000D03*
%TD*%
%TO.C,R35*%
X132300000Y-96205000D03*
X130475000Y-96205000D03*
%TD*%
%TO.C,R18*%
X125312500Y-68130000D03*
X123487500Y-68130000D03*
%TD*%
M02*
