%TF.GenerationSoftware,KiCad,Pcbnew,8.0.5*%
%TF.CreationDate,2025-09-21T17:17:35-10:00*%
%TF.ProjectId,SiPMT.revA,5369504d-542e-4726-9576-412e6b696361,rev?*%
%TF.SameCoordinates,Original*%
%TF.FileFunction,Copper,L3,Inr*%
%TF.FilePolarity,Positive*%
%FSLAX46Y46*%
G04 Gerber Fmt 4.6, Leading zero omitted, Abs format (unit mm)*
G04 Created by KiCad (PCBNEW 8.0.5) date 2025-09-21 17:17:35*
%MOMM*%
%LPD*%
G01*
G04 APERTURE LIST*
%TA.AperFunction,ComponentPad*%
%ADD10C,3.000000*%
%TD*%
%TA.AperFunction,ComponentPad*%
%ADD11C,5.000000*%
%TD*%
%TA.AperFunction,ViaPad*%
%ADD12C,0.800000*%
%TD*%
%TA.AperFunction,Conductor*%
%ADD13C,0.250000*%
%TD*%
G04 APERTURE END LIST*
D10*
%TO.N,GND*%
%TO.C,H10*%
X165350000Y-126630000D03*
%TD*%
%TO.N,GND*%
%TO.C,H9*%
X137037500Y-126655000D03*
%TD*%
D11*
%TO.N,GND*%
%TO.C,H1*%
X122887500Y-63775000D03*
%TD*%
D10*
%TO.N,+BATT 3*%
%TO.C,Q3*%
X132600000Y-126680000D03*
%TD*%
%TO.N,GND*%
%TO.C,H7*%
X156750000Y-126630000D03*
%TD*%
%TO.N,+BATT 4*%
%TO.C,Q4*%
X161000000Y-126655000D03*
%TD*%
D11*
%TO.N,GND*%
%TO.C,H6*%
X170837500Y-126475000D03*
%TD*%
D10*
%TO.N,+BATT 2*%
%TO.C,Q2*%
X141350000Y-126680000D03*
%TD*%
%TO.N,+BATT 1*%
%TO.C,Q1*%
X152500000Y-126655000D03*
%TD*%
D11*
%TO.N,GND*%
%TO.C,H3*%
X170887500Y-63775000D03*
%TD*%
%TO.N,GND*%
%TO.C,H5*%
X146887500Y-126475000D03*
%TD*%
%TO.N,GND*%
%TO.C,H2*%
X146887500Y-63775000D03*
%TD*%
D10*
%TO.N,GND*%
%TO.C,H8*%
X128143148Y-126655000D03*
%TD*%
D11*
%TO.N,GND*%
%TO.C,H4*%
X122887500Y-126475000D03*
%TD*%
D12*
%TO.N,GND*%
X133150000Y-70830000D03*
X126050000Y-91930000D03*
X168200000Y-85180000D03*
X126200000Y-84630000D03*
X126200000Y-119680000D03*
X146600000Y-77830000D03*
X167250000Y-77380000D03*
X126100000Y-97980000D03*
X126050000Y-70780000D03*
X173750000Y-73080000D03*
X154100000Y-70830000D03*
X164350000Y-116030000D03*
X168150000Y-70830000D03*
X146400000Y-119680000D03*
X161250000Y-119680000D03*
X160950000Y-70830000D03*
X153550000Y-76980000D03*
X160350000Y-77130000D03*
X168150000Y-98280000D03*
X147000000Y-70830000D03*
X154050000Y-119680000D03*
X126350000Y-106230000D03*
X132400000Y-77930000D03*
X168000000Y-91580000D03*
X156950000Y-116130000D03*
X126100000Y-113480000D03*
X140800000Y-83430000D03*
X139450000Y-77630000D03*
X167900000Y-119680000D03*
X137600000Y-87780000D03*
X140600000Y-119680000D03*
X140100000Y-70830000D03*
X168150000Y-108280000D03*
X125850000Y-77580000D03*
%TO.N,/AE0_CH7*%
X126300000Y-111680000D03*
%TO.N,/AO0_CH0*%
X132450000Y-114180000D03*
%TO.N,/AE0_CH6*%
X134300000Y-110480000D03*
%TO.N,/AO0_CH1*%
X132300000Y-119880000D03*
%TO.N,/AO0_CH2*%
X140750000Y-114180000D03*
%TO.N,/AE0_CH5*%
X141250000Y-110730000D03*
%TO.N,/AO0_CH3*%
X141900000Y-114680000D03*
%TO.N,/AE0_CH4*%
X141550000Y-112330000D03*
%TO.N,/AE0_CH3*%
X148600000Y-111980000D03*
%TO.N,/AO0_CH4*%
X149100000Y-114930000D03*
%TO.N,/AE0_CH2*%
X155750000Y-110730000D03*
%TO.N,/AO0_CH5*%
X155050000Y-114430000D03*
%TO.N,/AO0_CH6*%
X159750000Y-114780000D03*
%TO.N,/AE0_CH1*%
X162850000Y-110780000D03*
%TO.N,/AO0_CH7*%
X167800000Y-121330000D03*
%TO.N,/AE0_CH0*%
X167900000Y-112680000D03*
%TO.N,/AE1_CH7*%
X129750000Y-101130000D03*
%TO.N,/AO1_CH0*%
X130850000Y-101930000D03*
%TO.N,/AE1_CH6*%
X132450000Y-99580000D03*
%TO.N,/AO1_CH1*%
X134200000Y-104030000D03*
%TO.N,/AO1_CH2*%
X139800000Y-105180000D03*
%TO.N,/AE1_CH5*%
X139750000Y-99580000D03*
%TO.N,/AO1_CH3*%
X141350000Y-103880000D03*
%TO.N,/AE1_CH4*%
X145100000Y-101430000D03*
%TO.N,/AE1_CH3*%
X150350000Y-101180000D03*
%TO.N,/AO1_CH4*%
X148750000Y-103530000D03*
%TO.N,/AE1_CH2*%
X154250000Y-99480000D03*
%TO.N,/AO1_CH5*%
X154100000Y-105480000D03*
%TO.N,/AO1_CH6*%
X159850000Y-104680000D03*
%TO.N,/AE1_CH1*%
X161350000Y-99580000D03*
%TO.N,/AO1_CH7*%
X167150000Y-105430000D03*
%TO.N,/AE1_CH0*%
X167900000Y-99730000D03*
%TO.N,/AE2_CH7*%
X123050000Y-87380000D03*
%TO.N,/AO2_CH0*%
X129050000Y-96080000D03*
%TO.N,/AE2_CH6*%
X134200000Y-88230000D03*
%TO.N,/AO2_CH1*%
X134300000Y-93630000D03*
%TO.N,/AO2_CH2*%
X137950000Y-94230000D03*
%TO.N,/AE2_CH5*%
X141300000Y-88330000D03*
%TO.N,/AO2_CH3*%
X141400000Y-93830000D03*
%TO.N,/AE2_CH4*%
X145250000Y-88030000D03*
%TO.N,/AE2_CH3*%
X149500000Y-88280000D03*
%TO.N,/AO2_CH4*%
X148650000Y-93930000D03*
%TO.N,/AE2_CH2*%
X154750000Y-88480000D03*
%TO.N,/AO2_CH5*%
X155900000Y-94180000D03*
%TO.N,/AO2_CH6*%
X159500000Y-93980000D03*
%TO.N,/AE2_CH1*%
X161900000Y-88430000D03*
%TO.N,/AO2_CH7*%
X163150000Y-94330000D03*
%TO.N,/AE2_CH0*%
X164100000Y-88280000D03*
%TO.N,/AE3_CH7*%
X128200000Y-80330000D03*
%TO.N,/AO3_CH0*%
X125400000Y-80380000D03*
%TO.N,/AE3_CH6*%
X133725000Y-76930000D03*
%TO.N,/AO3_CH1*%
X132400000Y-80330000D03*
%TO.N,/AO3_CH2*%
X136100000Y-81480000D03*
%TO.N,/AE3_CH5*%
X136000000Y-74230000D03*
%TO.N,/AO3_CH3*%
X143300000Y-81280000D03*
%TO.N,/AE3_CH4*%
X140750000Y-79030000D03*
%TO.N,/AE3_CH3*%
X148400000Y-79280000D03*
%TO.N,/AO3_CH4*%
X150500000Y-79930000D03*
%TO.N,/AE3_CH2*%
X153900000Y-79230000D03*
%TO.N,/AO3_CH5*%
X154150000Y-80780000D03*
%TO.N,/AO3_CH6*%
X161350000Y-81180000D03*
%TO.N,/AE3_CH1*%
X160350000Y-79230000D03*
%TO.N,/AO3_CH7*%
X165500000Y-81080000D03*
%TO.N,/AE3_CH0*%
X171650000Y-73730000D03*
%TO.N,+BATT 4*%
X168900000Y-117230000D03*
X159400000Y-101830000D03*
X154800000Y-96180000D03*
X160850000Y-123630000D03*
X168900000Y-96230000D03*
X160300000Y-115880000D03*
X168900000Y-103230000D03*
X154100000Y-109180000D03*
X152450000Y-101830000D03*
X153350000Y-115880000D03*
X161321403Y-109208597D03*
X161800000Y-96180000D03*
X168900000Y-110180000D03*
%TO.N,+BATT 3*%
X125950000Y-109180000D03*
X140650000Y-96180000D03*
X138347230Y-101788168D03*
X133052752Y-101303092D03*
X132250000Y-115880000D03*
X146675000Y-101300001D03*
X146250000Y-97530000D03*
X133700000Y-96180000D03*
X146250000Y-115880000D03*
X132600000Y-123630000D03*
X132750000Y-109180000D03*
X125300000Y-115880000D03*
X126587347Y-96192653D03*
X124400000Y-101830000D03*
X139750000Y-109180000D03*
X139300000Y-115880000D03*
X146675000Y-109180000D03*
%TO.N,+BATT 1*%
X152300000Y-123630000D03*
X168900000Y-75130000D03*
X160300000Y-87980000D03*
X161600000Y-83280000D03*
X168900000Y-68180000D03*
X168900000Y-89180000D03*
X168900000Y-82130000D03*
X154700000Y-68130000D03*
X161650000Y-68130000D03*
X160300000Y-73880000D03*
X152900000Y-83280000D03*
X153350000Y-87980000D03*
X153400000Y-73880000D03*
%TO.N,+BATT 2*%
X126600000Y-82130000D03*
X141250000Y-123630000D03*
X146300000Y-73880000D03*
X140650000Y-68130000D03*
X139250000Y-87980000D03*
X146350000Y-69530000D03*
X126600000Y-68130000D03*
X125300000Y-87980000D03*
X132373692Y-83278998D03*
X146650000Y-83280000D03*
X146248621Y-87977441D03*
X133600000Y-68080000D03*
X126250000Y-76330000D03*
X132300000Y-87980000D03*
X139700000Y-80880000D03*
X139300000Y-73880000D03*
X132350000Y-73880000D03*
%TD*%
D13*
%TO.N,+BATT 4*%
X160400000Y-121030000D02*
X160400000Y-123180000D01*
X160400000Y-123180000D02*
X160850000Y-123630000D01*
%TO.N,+BATT 3*%
X133050000Y-123180000D02*
X132600000Y-123630000D01*
X133050000Y-121480000D02*
X133050000Y-123180000D01*
%TO.N,+BATT 1*%
X149000000Y-86930000D02*
X147850000Y-88080000D01*
X151850000Y-123630000D02*
X152300000Y-123630000D01*
X150800000Y-123630000D02*
X151850000Y-123630000D01*
X147850000Y-120680000D02*
X150000000Y-122830000D01*
X150000000Y-122830000D02*
X150800000Y-123630000D01*
X147850000Y-88080000D02*
X147850000Y-120680000D01*
%TO.N,+BATT 2*%
X144700000Y-123630000D02*
X141250000Y-123630000D01*
X147400000Y-120930000D02*
X144700000Y-123630000D01*
X146650000Y-91930000D02*
X147400000Y-92680000D01*
X147400000Y-92680000D02*
X147400000Y-120930000D01*
%TD*%
%TA.AperFunction,Conductor*%
%TO.N,+BATT 1*%
G36*
X170254946Y-60581642D02*
G01*
X170321985Y-60601329D01*
X170367738Y-60654134D01*
X170377679Y-60723293D01*
X170348652Y-60786848D01*
X170289873Y-60824620D01*
X170283539Y-60826299D01*
X170023198Y-60888001D01*
X170023177Y-60888008D01*
X169693872Y-61007865D01*
X169693866Y-61007868D01*
X169380703Y-61165145D01*
X169087899Y-61357724D01*
X168819451Y-61582980D01*
X168819441Y-61582990D01*
X168578950Y-61837893D01*
X168578945Y-61837899D01*
X168369675Y-62118998D01*
X168194452Y-62422494D01*
X168194446Y-62422507D01*
X168055643Y-62744286D01*
X167955132Y-63080017D01*
X167955130Y-63080024D01*
X167894279Y-63425131D01*
X167894278Y-63425142D01*
X167873901Y-63774996D01*
X167873901Y-63775003D01*
X167894278Y-64124857D01*
X167894279Y-64124868D01*
X167955130Y-64469975D01*
X167955132Y-64469982D01*
X168055643Y-64805713D01*
X168194446Y-65127492D01*
X168194452Y-65127505D01*
X168369675Y-65431001D01*
X168578945Y-65712100D01*
X168578950Y-65712106D01*
X168642717Y-65779694D01*
X168819443Y-65967012D01*
X168819449Y-65967017D01*
X168819451Y-65967019D01*
X169070845Y-66177965D01*
X169087903Y-66192278D01*
X169380700Y-66384853D01*
X169693874Y-66542135D01*
X170023190Y-66661996D01*
X170023196Y-66661997D01*
X170023198Y-66661998D01*
X170364178Y-66742813D01*
X170364185Y-66742814D01*
X170364194Y-66742816D01*
X170712275Y-66783500D01*
X170712282Y-66783500D01*
X171062718Y-66783500D01*
X171062725Y-66783500D01*
X171410806Y-66742816D01*
X171410815Y-66742813D01*
X171410821Y-66742813D01*
X171685871Y-66677623D01*
X171751810Y-66661996D01*
X172081126Y-66542135D01*
X172394300Y-66384853D01*
X172687097Y-66192278D01*
X172955557Y-65967012D01*
X173196051Y-65712104D01*
X173405325Y-65431000D01*
X173580550Y-65127501D01*
X173719357Y-64805712D01*
X173819867Y-64469984D01*
X173840784Y-64351361D01*
X173880720Y-64124868D01*
X173880719Y-64124868D01*
X173880722Y-64124857D01*
X173901099Y-63775000D01*
X173880722Y-63425143D01*
X173880720Y-63425131D01*
X173819869Y-63080024D01*
X173819867Y-63080017D01*
X173819867Y-63080016D01*
X173719357Y-62744288D01*
X173580550Y-62422499D01*
X173405325Y-62119000D01*
X173405324Y-62118998D01*
X173196054Y-61837899D01*
X173196049Y-61837893D01*
X173065235Y-61699240D01*
X172955557Y-61582988D01*
X172955550Y-61582982D01*
X172955548Y-61582980D01*
X172687100Y-61357724D01*
X172636378Y-61324364D01*
X172394300Y-61165147D01*
X172307384Y-61121496D01*
X172081133Y-61007868D01*
X172081127Y-61007865D01*
X171751822Y-60888008D01*
X171751801Y-60888001D01*
X171491642Y-60826342D01*
X171430949Y-60791728D01*
X171398606Y-60729795D01*
X171404879Y-60660208D01*
X171447779Y-60605059D01*
X171513684Y-60581858D01*
X171520236Y-60581685D01*
X171747137Y-60581692D01*
X171752958Y-60581831D01*
X171917247Y-60589654D01*
X171929726Y-60590884D01*
X172259861Y-60640431D01*
X172273880Y-60643372D01*
X172595216Y-60730450D01*
X172608800Y-60734989D01*
X172917947Y-60858570D01*
X172930910Y-60864642D01*
X173195622Y-61007868D01*
X173223726Y-61023074D01*
X173235918Y-61030612D01*
X173508498Y-61221779D01*
X173519731Y-61230668D01*
X173768427Y-61452014D01*
X173778554Y-61462135D01*
X174000044Y-61710702D01*
X174008945Y-61721938D01*
X174200261Y-61994394D01*
X174207807Y-62006581D01*
X174366406Y-62299300D01*
X174372494Y-62312277D01*
X174496248Y-62621335D01*
X174500798Y-62634926D01*
X174588064Y-62956213D01*
X174591016Y-62970241D01*
X174640747Y-63300303D01*
X174641989Y-63312842D01*
X174649855Y-63476984D01*
X174649997Y-63483021D01*
X174642711Y-72390795D01*
X174622972Y-72457819D01*
X174570130Y-72503530D01*
X174500964Y-72513417D01*
X174437432Y-72484340D01*
X174426561Y-72473666D01*
X174361254Y-72401135D01*
X174347023Y-72390795D01*
X174206752Y-72288882D01*
X174032288Y-72211206D01*
X174032286Y-72211205D01*
X173845487Y-72171500D01*
X173654513Y-72171500D01*
X173467714Y-72211205D01*
X173293246Y-72288883D01*
X173138745Y-72401135D01*
X173010959Y-72543057D01*
X172915473Y-72708443D01*
X172915470Y-72708450D01*
X172865837Y-72861206D01*
X172856458Y-72890072D01*
X172836496Y-73080000D01*
X172856458Y-73269928D01*
X172856459Y-73269931D01*
X172915470Y-73451549D01*
X172915473Y-73451556D01*
X173010960Y-73616944D01*
X173138747Y-73758866D01*
X173293248Y-73871118D01*
X173467712Y-73948794D01*
X173654513Y-73988500D01*
X173845487Y-73988500D01*
X174032288Y-73948794D01*
X174206752Y-73871118D01*
X174361253Y-73758866D01*
X174425435Y-73687584D01*
X174484918Y-73650939D01*
X174554775Y-73652268D01*
X174612823Y-73691155D01*
X174640633Y-73755251D01*
X174641582Y-73770660D01*
X174625459Y-93482590D01*
X174605720Y-93549614D01*
X174552878Y-93595325D01*
X174500163Y-93606482D01*
X163526012Y-93491769D01*
X163476874Y-93481056D01*
X163432291Y-93461207D01*
X163432286Y-93461205D01*
X163245487Y-93421500D01*
X163054513Y-93421500D01*
X162867715Y-93461205D01*
X162867707Y-93461207D01*
X162840433Y-93473350D01*
X162788706Y-93484062D01*
X160306518Y-93458116D01*
X160239688Y-93437732D01*
X160215666Y-93417097D01*
X160111253Y-93301134D01*
X159956752Y-93188882D01*
X159782288Y-93111206D01*
X159782286Y-93111205D01*
X159595487Y-93071500D01*
X159404513Y-93071500D01*
X159217714Y-93111205D01*
X159043246Y-93188883D01*
X158888745Y-93301135D01*
X158799397Y-93400365D01*
X158739910Y-93437013D01*
X158705952Y-93441385D01*
X156435353Y-93417651D01*
X156368523Y-93397267D01*
X156363765Y-93393977D01*
X156356754Y-93388883D01*
X156356752Y-93388882D01*
X156182288Y-93311206D01*
X156182286Y-93311205D01*
X155995487Y-93271500D01*
X155804513Y-93271500D01*
X155617714Y-93311205D01*
X155443246Y-93388882D01*
X155441320Y-93389995D01*
X155439928Y-93390360D01*
X155437312Y-93391525D01*
X155437121Y-93391096D01*
X155378027Y-93406599D01*
X149398878Y-93344098D01*
X149332048Y-93323714D01*
X149308024Y-93303078D01*
X149261254Y-93251135D01*
X149239047Y-93235000D01*
X149106752Y-93138882D01*
X148932288Y-93061206D01*
X148932286Y-93061205D01*
X148745487Y-93021500D01*
X148554513Y-93021500D01*
X148367713Y-93061205D01*
X148367710Y-93061206D01*
X148222565Y-93125828D01*
X148153315Y-93135112D01*
X148090039Y-93105483D01*
X148052826Y-93046348D01*
X148048134Y-93013286D01*
X148039690Y-91580000D01*
X167086496Y-91580000D01*
X167106458Y-91769928D01*
X167106459Y-91769931D01*
X167165470Y-91951549D01*
X167165473Y-91951556D01*
X167260960Y-92116944D01*
X167388747Y-92258866D01*
X167543248Y-92371118D01*
X167717712Y-92448794D01*
X167904513Y-92488500D01*
X168095487Y-92488500D01*
X168282288Y-92448794D01*
X168456752Y-92371118D01*
X168611253Y-92258866D01*
X168739040Y-92116944D01*
X168834527Y-91951556D01*
X168893542Y-91769928D01*
X168913504Y-91580000D01*
X168893542Y-91390072D01*
X168834527Y-91208444D01*
X168739040Y-91043056D01*
X168611253Y-90901134D01*
X168456752Y-90788882D01*
X168282288Y-90711206D01*
X168282286Y-90711205D01*
X168095487Y-90671500D01*
X167904513Y-90671500D01*
X167717714Y-90711205D01*
X167543246Y-90788883D01*
X167388745Y-90901135D01*
X167260959Y-91043057D01*
X167165473Y-91208443D01*
X167165470Y-91208450D01*
X167106459Y-91390068D01*
X167106458Y-91390072D01*
X167086496Y-91580000D01*
X148039690Y-91580000D01*
X148020250Y-88280000D01*
X148586496Y-88280000D01*
X148606458Y-88469928D01*
X148606459Y-88469931D01*
X148665470Y-88651549D01*
X148665473Y-88651556D01*
X148760960Y-88816944D01*
X148888747Y-88958866D01*
X149043248Y-89071118D01*
X149217712Y-89148794D01*
X149404513Y-89188500D01*
X149595487Y-89188500D01*
X149782288Y-89148794D01*
X149956752Y-89071118D01*
X150111253Y-88958866D01*
X150239040Y-88816944D01*
X150334527Y-88651556D01*
X150390269Y-88480000D01*
X153836496Y-88480000D01*
X153856458Y-88669928D01*
X153856459Y-88669931D01*
X153915470Y-88851549D01*
X153915473Y-88851556D01*
X154010960Y-89016944D01*
X154138747Y-89158866D01*
X154293248Y-89271118D01*
X154467712Y-89348794D01*
X154654513Y-89388500D01*
X154845487Y-89388500D01*
X155032288Y-89348794D01*
X155206752Y-89271118D01*
X155361253Y-89158866D01*
X155489040Y-89016944D01*
X155584527Y-88851556D01*
X155643542Y-88669928D01*
X155663504Y-88480000D01*
X155658249Y-88430000D01*
X160986496Y-88430000D01*
X161006458Y-88619928D01*
X161006459Y-88619931D01*
X161065470Y-88801549D01*
X161065473Y-88801556D01*
X161160960Y-88966944D01*
X161288747Y-89108866D01*
X161443248Y-89221118D01*
X161617712Y-89298794D01*
X161804513Y-89338500D01*
X161995487Y-89338500D01*
X162182288Y-89298794D01*
X162356752Y-89221118D01*
X162511253Y-89108866D01*
X162639040Y-88966944D01*
X162734527Y-88801556D01*
X162793542Y-88619928D01*
X162813504Y-88430000D01*
X162797739Y-88280000D01*
X163186496Y-88280000D01*
X163206458Y-88469928D01*
X163206459Y-88469931D01*
X163265470Y-88651549D01*
X163265473Y-88651556D01*
X163360960Y-88816944D01*
X163488747Y-88958866D01*
X163643248Y-89071118D01*
X163817712Y-89148794D01*
X164004513Y-89188500D01*
X164195487Y-89188500D01*
X164382288Y-89148794D01*
X164556752Y-89071118D01*
X164711253Y-88958866D01*
X164839040Y-88816944D01*
X164934527Y-88651556D01*
X164993542Y-88469928D01*
X165013504Y-88280000D01*
X164993542Y-88090072D01*
X164934527Y-87908444D01*
X164839040Y-87743056D01*
X164711253Y-87601134D01*
X164556752Y-87488882D01*
X164382288Y-87411206D01*
X164382286Y-87411205D01*
X164195487Y-87371500D01*
X164004513Y-87371500D01*
X163817714Y-87411205D01*
X163643246Y-87488883D01*
X163488745Y-87601135D01*
X163360959Y-87743057D01*
X163265473Y-87908443D01*
X163265470Y-87908450D01*
X163206459Y-88090068D01*
X163206458Y-88090072D01*
X163186496Y-88280000D01*
X162797739Y-88280000D01*
X162793542Y-88240072D01*
X162734527Y-88058444D01*
X162639040Y-87893056D01*
X162511253Y-87751134D01*
X162356752Y-87638882D01*
X162182288Y-87561206D01*
X162182286Y-87561205D01*
X161995487Y-87521500D01*
X161804513Y-87521500D01*
X161617714Y-87561205D01*
X161595494Y-87571098D01*
X161445398Y-87637925D01*
X161443246Y-87638883D01*
X161288745Y-87751135D01*
X161160959Y-87893057D01*
X161065473Y-88058443D01*
X161065470Y-88058450D01*
X161006459Y-88240068D01*
X161006458Y-88240072D01*
X160986496Y-88430000D01*
X155658249Y-88430000D01*
X155643542Y-88290072D01*
X155584527Y-88108444D01*
X155489040Y-87943056D01*
X155361253Y-87801134D01*
X155206752Y-87688882D01*
X155032288Y-87611206D01*
X155032286Y-87611205D01*
X154845487Y-87571500D01*
X154654513Y-87571500D01*
X154467714Y-87611205D01*
X154293246Y-87688883D01*
X154138745Y-87801135D01*
X154010959Y-87943057D01*
X153915473Y-88108443D01*
X153915470Y-88108450D01*
X153856459Y-88290068D01*
X153856458Y-88290072D01*
X153836496Y-88480000D01*
X150390269Y-88480000D01*
X150393542Y-88469928D01*
X150413504Y-88280000D01*
X150393542Y-88090072D01*
X150334527Y-87908444D01*
X150239040Y-87743056D01*
X150111253Y-87601134D01*
X149956752Y-87488882D01*
X149782288Y-87411206D01*
X149782286Y-87411205D01*
X149595487Y-87371500D01*
X149404513Y-87371500D01*
X149217714Y-87411205D01*
X149043246Y-87488883D01*
X148888745Y-87601135D01*
X148760959Y-87743057D01*
X148665473Y-87908443D01*
X148665470Y-87908450D01*
X148606459Y-88090068D01*
X148606458Y-88090072D01*
X148586496Y-88280000D01*
X148020250Y-88280000D01*
X148016843Y-87701654D01*
X148028580Y-87648263D01*
X148033427Y-87637932D01*
X148053797Y-87571098D01*
X148076078Y-87426653D01*
X148099104Y-85180000D01*
X167286496Y-85180000D01*
X167306458Y-85369928D01*
X167306459Y-85369931D01*
X167365470Y-85551549D01*
X167365473Y-85551556D01*
X167460960Y-85716944D01*
X167588747Y-85858866D01*
X167743248Y-85971118D01*
X167917712Y-86048794D01*
X168104513Y-86088500D01*
X168295487Y-86088500D01*
X168482288Y-86048794D01*
X168656752Y-85971118D01*
X168811253Y-85858866D01*
X168939040Y-85716944D01*
X169034527Y-85551556D01*
X169093542Y-85369928D01*
X169113504Y-85180000D01*
X169093542Y-84990072D01*
X169034527Y-84808444D01*
X168939040Y-84643056D01*
X168811253Y-84501134D01*
X168656752Y-84388882D01*
X168482288Y-84311206D01*
X168482286Y-84311205D01*
X168295487Y-84271500D01*
X168104513Y-84271500D01*
X167917714Y-84311205D01*
X167743246Y-84388883D01*
X167588745Y-84501135D01*
X167460959Y-84643057D01*
X167365473Y-84808443D01*
X167365470Y-84808450D01*
X167306459Y-84990068D01*
X167306458Y-84990072D01*
X167286496Y-85180000D01*
X148099104Y-85180000D01*
X148149043Y-80307307D01*
X148169413Y-80240474D01*
X148222683Y-80195263D01*
X148291940Y-80186028D01*
X148298789Y-80187283D01*
X148304513Y-80188500D01*
X148304517Y-80188500D01*
X148495487Y-80188500D01*
X148682288Y-80148794D01*
X148856752Y-80071118D01*
X149011253Y-79958866D01*
X149037244Y-79930000D01*
X149586496Y-79930000D01*
X149606458Y-80119928D01*
X149606459Y-80119931D01*
X149665470Y-80301549D01*
X149665473Y-80301556D01*
X149760960Y-80466944D01*
X149888747Y-80608866D01*
X150043248Y-80721118D01*
X150217712Y-80798794D01*
X150404513Y-80838500D01*
X150595487Y-80838500D01*
X150782288Y-80798794D01*
X150956752Y-80721118D01*
X151111253Y-80608866D01*
X151239040Y-80466944D01*
X151334527Y-80301556D01*
X151393542Y-80119928D01*
X151413504Y-79930000D01*
X151393542Y-79740072D01*
X151334527Y-79558444D01*
X151239040Y-79393056D01*
X151111253Y-79251134D01*
X151082165Y-79230000D01*
X152986496Y-79230000D01*
X153006458Y-79419928D01*
X153006459Y-79419931D01*
X153065470Y-79601549D01*
X153065473Y-79601556D01*
X153160960Y-79766944D01*
X153288747Y-79908866D01*
X153433120Y-80013760D01*
X153475785Y-80069089D01*
X153481764Y-80138702D01*
X153452385Y-80197048D01*
X153410959Y-80243057D01*
X153315473Y-80408443D01*
X153315470Y-80408450D01*
X153256459Y-80590068D01*
X153256458Y-80590072D01*
X153236496Y-80780000D01*
X153256458Y-80969928D01*
X153256459Y-80969931D01*
X153315470Y-81151549D01*
X153315473Y-81151556D01*
X153410960Y-81316944D01*
X153538747Y-81458866D01*
X153693248Y-81571118D01*
X153867712Y-81648794D01*
X154054513Y-81688500D01*
X154245487Y-81688500D01*
X154432288Y-81648794D01*
X154606752Y-81571118D01*
X154761253Y-81458866D01*
X154889040Y-81316944D01*
X154968105Y-81180000D01*
X160436496Y-81180000D01*
X160456458Y-81369928D01*
X160456459Y-81369931D01*
X160515470Y-81551549D01*
X160515473Y-81551556D01*
X160610960Y-81716944D01*
X160707322Y-81823965D01*
X160737728Y-81857735D01*
X160738747Y-81858866D01*
X160893248Y-81971118D01*
X161067712Y-82048794D01*
X161254513Y-82088500D01*
X161445487Y-82088500D01*
X161632288Y-82048794D01*
X161806752Y-81971118D01*
X161961253Y-81858866D01*
X162089040Y-81716944D01*
X162184527Y-81551556D01*
X162243542Y-81369928D01*
X162263504Y-81180000D01*
X162252994Y-81080000D01*
X164586496Y-81080000D01*
X164606458Y-81269928D01*
X164606459Y-81269931D01*
X164665470Y-81451549D01*
X164665473Y-81451556D01*
X164760960Y-81616944D01*
X164888747Y-81758866D01*
X165043248Y-81871118D01*
X165217712Y-81948794D01*
X165404513Y-81988500D01*
X165595487Y-81988500D01*
X165782288Y-81948794D01*
X165956752Y-81871118D01*
X166111253Y-81758866D01*
X166239040Y-81616944D01*
X166334527Y-81451556D01*
X166393542Y-81269928D01*
X166413504Y-81080000D01*
X166393542Y-80890072D01*
X166334527Y-80708444D01*
X166239040Y-80543056D01*
X166111253Y-80401134D01*
X165956752Y-80288882D01*
X165782288Y-80211206D01*
X165782286Y-80211205D01*
X165595487Y-80171500D01*
X165404513Y-80171500D01*
X165217714Y-80211205D01*
X165043246Y-80288883D01*
X164888745Y-80401135D01*
X164760959Y-80543057D01*
X164665473Y-80708443D01*
X164665470Y-80708450D01*
X164608106Y-80885000D01*
X164606458Y-80890072D01*
X164586496Y-81080000D01*
X162252994Y-81080000D01*
X162243542Y-80990072D01*
X162184527Y-80808444D01*
X162089040Y-80643056D01*
X161961253Y-80501134D01*
X161806752Y-80388882D01*
X161632288Y-80311206D01*
X161632286Y-80311205D01*
X161445487Y-80271500D01*
X161254513Y-80271500D01*
X161067714Y-80311205D01*
X161067712Y-80311206D01*
X160913198Y-80380000D01*
X160893246Y-80388883D01*
X160738745Y-80501135D01*
X160610959Y-80643057D01*
X160515473Y-80808443D01*
X160515470Y-80808450D01*
X160463003Y-80969928D01*
X160456458Y-80990072D01*
X160436496Y-81180000D01*
X154968105Y-81180000D01*
X154984527Y-81151556D01*
X155043542Y-80969928D01*
X155063504Y-80780000D01*
X155043542Y-80590072D01*
X154984527Y-80408444D01*
X154889040Y-80243056D01*
X154761253Y-80101134D01*
X154616878Y-79996239D01*
X154574214Y-79940910D01*
X154568235Y-79871296D01*
X154597614Y-79812951D01*
X154639040Y-79766944D01*
X154734527Y-79601556D01*
X154793542Y-79419928D01*
X154813504Y-79230000D01*
X159436496Y-79230000D01*
X159456458Y-79419928D01*
X159456459Y-79419931D01*
X159515470Y-79601549D01*
X159515473Y-79601556D01*
X159610960Y-79766944D01*
X159738747Y-79908866D01*
X159893248Y-80021118D01*
X160067712Y-80098794D01*
X160254513Y-80138500D01*
X160445487Y-80138500D01*
X160632288Y-80098794D01*
X160806752Y-80021118D01*
X160961253Y-79908866D01*
X161089040Y-79766944D01*
X161184527Y-79601556D01*
X161243542Y-79419928D01*
X161263504Y-79230000D01*
X161243542Y-79040072D01*
X161184527Y-78858444D01*
X161089040Y-78693056D01*
X160961253Y-78551134D01*
X160806752Y-78438882D01*
X160632288Y-78361206D01*
X160632286Y-78361205D01*
X160445487Y-78321500D01*
X160254513Y-78321500D01*
X160067714Y-78361205D01*
X159893246Y-78438883D01*
X159738745Y-78551135D01*
X159610959Y-78693057D01*
X159515473Y-78858443D01*
X159515470Y-78858450D01*
X159456459Y-79040068D01*
X159456458Y-79040072D01*
X159436496Y-79230000D01*
X154813504Y-79230000D01*
X154793542Y-79040072D01*
X154734527Y-78858444D01*
X154639040Y-78693056D01*
X154511253Y-78551134D01*
X154356752Y-78438882D01*
X154182288Y-78361206D01*
X154182286Y-78361205D01*
X153995487Y-78321500D01*
X153804513Y-78321500D01*
X153617714Y-78361205D01*
X153443246Y-78438883D01*
X153288745Y-78551135D01*
X153160959Y-78693057D01*
X153065473Y-78858443D01*
X153065470Y-78858450D01*
X153006459Y-79040068D01*
X153006458Y-79040072D01*
X152986496Y-79230000D01*
X151082165Y-79230000D01*
X150956752Y-79138882D01*
X150782288Y-79061206D01*
X150782286Y-79061205D01*
X150595487Y-79021500D01*
X150404513Y-79021500D01*
X150217714Y-79061205D01*
X150043246Y-79138883D01*
X149888745Y-79251135D01*
X149760959Y-79393057D01*
X149665473Y-79558443D01*
X149665470Y-79558450D01*
X149606459Y-79740068D01*
X149606458Y-79740072D01*
X149586496Y-79930000D01*
X149037244Y-79930000D01*
X149139040Y-79816944D01*
X149234527Y-79651556D01*
X149293542Y-79469928D01*
X149313504Y-79280000D01*
X149293542Y-79090072D01*
X149234527Y-78908444D01*
X149139040Y-78743056D01*
X149011253Y-78601134D01*
X148856752Y-78488882D01*
X148682288Y-78411206D01*
X148682286Y-78411205D01*
X148495487Y-78371500D01*
X148304513Y-78371500D01*
X148304510Y-78371500D01*
X148304139Y-78371539D01*
X148303926Y-78371500D01*
X148298014Y-78371500D01*
X148298014Y-78370418D01*
X148235410Y-78358964D01*
X148184390Y-78311228D01*
X148167541Y-78257582D01*
X148163100Y-78198949D01*
X148156287Y-78157121D01*
X148134723Y-78071720D01*
X148089097Y-77983221D01*
X148067750Y-77941813D01*
X148059338Y-77930000D01*
X148050336Y-77917359D01*
X148027484Y-77851335D01*
X148043954Y-77783435D01*
X148058464Y-77763277D01*
X148074095Y-77745608D01*
X148136169Y-77613287D01*
X148156539Y-77546453D01*
X148178820Y-77402007D01*
X148183145Y-76980000D01*
X152636496Y-76980000D01*
X152656458Y-77169928D01*
X152656459Y-77169931D01*
X152715470Y-77351549D01*
X152715473Y-77351556D01*
X152810960Y-77516944D01*
X152938747Y-77658866D01*
X153093248Y-77771118D01*
X153267712Y-77848794D01*
X153454513Y-77888500D01*
X153645487Y-77888500D01*
X153832288Y-77848794D01*
X154006752Y-77771118D01*
X154161253Y-77658866D01*
X154289040Y-77516944D01*
X154384527Y-77351556D01*
X154443542Y-77169928D01*
X154447739Y-77130000D01*
X159436496Y-77130000D01*
X159456458Y-77319928D01*
X159456459Y-77319931D01*
X159515470Y-77501549D01*
X159515473Y-77501556D01*
X159610960Y-77666944D01*
X159738747Y-77808866D01*
X159893248Y-77921118D01*
X160067712Y-77998794D01*
X160254513Y-78038500D01*
X160445487Y-78038500D01*
X160632288Y-77998794D01*
X160806752Y-77921118D01*
X160961253Y-77808866D01*
X161089040Y-77666944D01*
X161184527Y-77501556D01*
X161224023Y-77380000D01*
X166336496Y-77380000D01*
X166356458Y-77569928D01*
X166356459Y-77569931D01*
X166415470Y-77751549D01*
X166415473Y-77751556D01*
X166510960Y-77916944D01*
X166638747Y-78058866D01*
X166793248Y-78171118D01*
X166967712Y-78248794D01*
X167154513Y-78288500D01*
X167345487Y-78288500D01*
X167532288Y-78248794D01*
X167706752Y-78171118D01*
X167861253Y-78058866D01*
X167989040Y-77916944D01*
X168084527Y-77751556D01*
X168143542Y-77569928D01*
X168163504Y-77380000D01*
X168143542Y-77190072D01*
X168084527Y-77008444D01*
X167989040Y-76843056D01*
X167861253Y-76701134D01*
X167706752Y-76588882D01*
X167532288Y-76511206D01*
X167532286Y-76511205D01*
X167345487Y-76471500D01*
X167154513Y-76471500D01*
X166967714Y-76511205D01*
X166793246Y-76588883D01*
X166638745Y-76701135D01*
X166510959Y-76843057D01*
X166415473Y-77008443D01*
X166415470Y-77008450D01*
X166363003Y-77169928D01*
X166356458Y-77190072D01*
X166336496Y-77380000D01*
X161224023Y-77380000D01*
X161243542Y-77319928D01*
X161263504Y-77130000D01*
X161243542Y-76940072D01*
X161184527Y-76758444D01*
X161089040Y-76593056D01*
X160961253Y-76451134D01*
X160806752Y-76338882D01*
X160632288Y-76261206D01*
X160632286Y-76261205D01*
X160445487Y-76221500D01*
X160254513Y-76221500D01*
X160067714Y-76261205D01*
X159893246Y-76338883D01*
X159738745Y-76451135D01*
X159610959Y-76593057D01*
X159515473Y-76758443D01*
X159515470Y-76758450D01*
X159456459Y-76940068D01*
X159456458Y-76940072D01*
X159436496Y-77130000D01*
X154447739Y-77130000D01*
X154463504Y-76980000D01*
X154443542Y-76790072D01*
X154384527Y-76608444D01*
X154289040Y-76443056D01*
X154161253Y-76301134D01*
X154006752Y-76188882D01*
X153832288Y-76111206D01*
X153832286Y-76111205D01*
X153645487Y-76071500D01*
X153454513Y-76071500D01*
X153267714Y-76111205D01*
X153093246Y-76188883D01*
X152938745Y-76301135D01*
X152810959Y-76443057D01*
X152715473Y-76608443D01*
X152715470Y-76608450D01*
X152663481Y-76768457D01*
X152656458Y-76790072D01*
X152636496Y-76980000D01*
X148183145Y-76980000D01*
X148207458Y-74607735D01*
X148216454Y-73730000D01*
X170736496Y-73730000D01*
X170756458Y-73919928D01*
X170756459Y-73919931D01*
X170815470Y-74101549D01*
X170815473Y-74101556D01*
X170910960Y-74266944D01*
X171038747Y-74408866D01*
X171193248Y-74521118D01*
X171367712Y-74598794D01*
X171554513Y-74638500D01*
X171745487Y-74638500D01*
X171932288Y-74598794D01*
X172106752Y-74521118D01*
X172261253Y-74408866D01*
X172389040Y-74266944D01*
X172484527Y-74101556D01*
X172543542Y-73919928D01*
X172563504Y-73730000D01*
X172543542Y-73540072D01*
X172484527Y-73358444D01*
X172389040Y-73193056D01*
X172261253Y-73051134D01*
X172106752Y-72938882D01*
X171932288Y-72861206D01*
X171932286Y-72861205D01*
X171745487Y-72821500D01*
X171554513Y-72821500D01*
X171367714Y-72861205D01*
X171193246Y-72938883D01*
X171038745Y-73051135D01*
X170910959Y-73193057D01*
X170815473Y-73358443D01*
X170815470Y-73358450D01*
X170756459Y-73540068D01*
X170756458Y-73540072D01*
X170736496Y-73730000D01*
X148216454Y-73730000D01*
X148237496Y-71676841D01*
X148237495Y-71676837D01*
X148237496Y-71676824D01*
X148223093Y-71550685D01*
X148208769Y-71491545D01*
X148163851Y-71372779D01*
X148163850Y-71372777D01*
X148163849Y-71372775D01*
X148118555Y-71310437D01*
X148077939Y-71254537D01*
X148029243Y-71204432D01*
X147967079Y-71156498D01*
X147926010Y-71099973D01*
X147918801Y-71059038D01*
X147917452Y-70830000D01*
X153186496Y-70830000D01*
X153206458Y-71019928D01*
X153206459Y-71019931D01*
X153265470Y-71201549D01*
X153265473Y-71201556D01*
X153360960Y-71366944D01*
X153488747Y-71508866D01*
X153643248Y-71621118D01*
X153817712Y-71698794D01*
X154004513Y-71738500D01*
X154195487Y-71738500D01*
X154382288Y-71698794D01*
X154556752Y-71621118D01*
X154711253Y-71508866D01*
X154839040Y-71366944D01*
X154934527Y-71201556D01*
X154993542Y-71019928D01*
X155013504Y-70830000D01*
X160036496Y-70830000D01*
X160056458Y-71019928D01*
X160056459Y-71019931D01*
X160115470Y-71201549D01*
X160115473Y-71201556D01*
X160210960Y-71366944D01*
X160338747Y-71508866D01*
X160493248Y-71621118D01*
X160667712Y-71698794D01*
X160854513Y-71738500D01*
X161045487Y-71738500D01*
X161232288Y-71698794D01*
X161406752Y-71621118D01*
X161561253Y-71508866D01*
X161689040Y-71366944D01*
X161784527Y-71201556D01*
X161843542Y-71019928D01*
X161863504Y-70830000D01*
X167236496Y-70830000D01*
X167256458Y-71019928D01*
X167256459Y-71019931D01*
X167315470Y-71201549D01*
X167315473Y-71201556D01*
X167410960Y-71366944D01*
X167538747Y-71508866D01*
X167693248Y-71621118D01*
X167867712Y-71698794D01*
X168054513Y-71738500D01*
X168245487Y-71738500D01*
X168432288Y-71698794D01*
X168606752Y-71621118D01*
X168761253Y-71508866D01*
X168889040Y-71366944D01*
X168984527Y-71201556D01*
X169043542Y-71019928D01*
X169063504Y-70830000D01*
X169043542Y-70640072D01*
X168984527Y-70458444D01*
X168889040Y-70293056D01*
X168761253Y-70151134D01*
X168606752Y-70038882D01*
X168432288Y-69961206D01*
X168432286Y-69961205D01*
X168245487Y-69921500D01*
X168054513Y-69921500D01*
X167867714Y-69961205D01*
X167693246Y-70038883D01*
X167538745Y-70151135D01*
X167410959Y-70293057D01*
X167315473Y-70458443D01*
X167315470Y-70458450D01*
X167260164Y-70628666D01*
X167256458Y-70640072D01*
X167236496Y-70830000D01*
X161863504Y-70830000D01*
X161843542Y-70640072D01*
X161784527Y-70458444D01*
X161689040Y-70293056D01*
X161561253Y-70151134D01*
X161406752Y-70038882D01*
X161232288Y-69961206D01*
X161232286Y-69961205D01*
X161045487Y-69921500D01*
X160854513Y-69921500D01*
X160667714Y-69961205D01*
X160493246Y-70038883D01*
X160338745Y-70151135D01*
X160210959Y-70293057D01*
X160115473Y-70458443D01*
X160115470Y-70458450D01*
X160060164Y-70628666D01*
X160056458Y-70640072D01*
X160036496Y-70830000D01*
X155013504Y-70830000D01*
X154993542Y-70640072D01*
X154934527Y-70458444D01*
X154839040Y-70293056D01*
X154711253Y-70151134D01*
X154556752Y-70038882D01*
X154382288Y-69961206D01*
X154382286Y-69961205D01*
X154195487Y-69921500D01*
X154004513Y-69921500D01*
X153817714Y-69961205D01*
X153643246Y-70038883D01*
X153488745Y-70151135D01*
X153360959Y-70293057D01*
X153265473Y-70458443D01*
X153265470Y-70458450D01*
X153210164Y-70628666D01*
X153206458Y-70640072D01*
X153186496Y-70830000D01*
X147917452Y-70830000D01*
X147916266Y-70628666D01*
X147935554Y-70561516D01*
X147974295Y-70522944D01*
X147999755Y-70506949D01*
X148050183Y-70464149D01*
X148051871Y-70462802D01*
X148053016Y-70461745D01*
X148053025Y-70461738D01*
X148053029Y-70461735D01*
X148149868Y-70352263D01*
X148211942Y-70219942D01*
X148232312Y-70153108D01*
X148254593Y-70008663D01*
X148287272Y-66820140D01*
X148287272Y-66820138D01*
X148286893Y-66794478D01*
X148286892Y-66794446D01*
X148286398Y-66782040D01*
X148284730Y-66756360D01*
X148251023Y-66614143D01*
X148240810Y-66588238D01*
X148234536Y-66518653D01*
X148266879Y-66456719D01*
X148300517Y-66431952D01*
X148394300Y-66384853D01*
X148687097Y-66192278D01*
X148704155Y-66177965D01*
X148792433Y-66103889D01*
X148955557Y-65967012D01*
X149196051Y-65712104D01*
X149405325Y-65431000D01*
X149580550Y-65127501D01*
X149719357Y-64805712D01*
X149819867Y-64469984D01*
X149840784Y-64351361D01*
X149880720Y-64124868D01*
X149880719Y-64124868D01*
X149880722Y-64124857D01*
X149901099Y-63775000D01*
X149880722Y-63425143D01*
X149880720Y-63425131D01*
X149819869Y-63080024D01*
X149819867Y-63080017D01*
X149819867Y-63080016D01*
X149719357Y-62744288D01*
X149580550Y-62422499D01*
X149405325Y-62119000D01*
X149405324Y-62118998D01*
X149196054Y-61837899D01*
X149196049Y-61837893D01*
X149065235Y-61699240D01*
X148955557Y-61582988D01*
X148955550Y-61582982D01*
X148955548Y-61582980D01*
X148687100Y-61357724D01*
X148636378Y-61324364D01*
X148394300Y-61165147D01*
X148307384Y-61121496D01*
X148081133Y-61007868D01*
X148081127Y-61007865D01*
X147940192Y-60956569D01*
X147883928Y-60915143D01*
X147858992Y-60849874D01*
X147858605Y-60840807D01*
X147857808Y-60705610D01*
X147877098Y-60638459D01*
X147929631Y-60592394D01*
X147981808Y-60580883D01*
X170254946Y-60581642D01*
G37*
%TD.AperFunction*%
%TD*%
%TA.AperFunction,Conductor*%
%TO.N,+BATT 4*%
G36*
X155017808Y-94589633D02*
G01*
X155084528Y-94610370D01*
X155123243Y-94651617D01*
X155139163Y-94679191D01*
X155160960Y-94716944D01*
X155288747Y-94858866D01*
X155443248Y-94971118D01*
X155617712Y-95048794D01*
X155804513Y-95088500D01*
X155995487Y-95088500D01*
X156182288Y-95048794D01*
X156356752Y-94971118D01*
X156511253Y-94858866D01*
X156639040Y-94716944D01*
X156660837Y-94679189D01*
X156711402Y-94630975D01*
X156770168Y-94617205D01*
X158837825Y-94649738D01*
X158904545Y-94670475D01*
X158908738Y-94673391D01*
X159043248Y-94771118D01*
X159217712Y-94848794D01*
X159404513Y-94888500D01*
X159595487Y-94888500D01*
X159782288Y-94848794D01*
X159956752Y-94771118D01*
X160063089Y-94693859D01*
X160128890Y-94670380D01*
X160137880Y-94670193D01*
X162246876Y-94703377D01*
X162313596Y-94724114D01*
X162352311Y-94765362D01*
X162410959Y-94866942D01*
X162410958Y-94866942D01*
X162504759Y-94971118D01*
X162538747Y-95008866D01*
X162693248Y-95121118D01*
X162867712Y-95198794D01*
X163054513Y-95238500D01*
X163245487Y-95238500D01*
X163432288Y-95198794D01*
X163606752Y-95121118D01*
X163761253Y-95008866D01*
X163889040Y-94866944D01*
X163931394Y-94793583D01*
X163981956Y-94745371D01*
X164040723Y-94731602D01*
X174502153Y-94896205D01*
X174568874Y-94916942D01*
X174613793Y-94970459D01*
X174624201Y-95020286D01*
X174614903Y-106388500D01*
X174601889Y-122299029D01*
X174582150Y-122366053D01*
X174529308Y-122411764D01*
X174477455Y-122422927D01*
X168211025Y-122401016D01*
X168144055Y-122381097D01*
X168098485Y-122328134D01*
X168088784Y-122258941D01*
X168118031Y-122195487D01*
X168161020Y-122163740D01*
X168256752Y-122121118D01*
X168411253Y-122008866D01*
X168539040Y-121866944D01*
X168634527Y-121701556D01*
X168693542Y-121519928D01*
X168713504Y-121330000D01*
X168693542Y-121140072D01*
X168634527Y-120958444D01*
X168539040Y-120793056D01*
X168411253Y-120651134D01*
X168398191Y-120641644D01*
X168355527Y-120586314D01*
X168349548Y-120516701D01*
X168382154Y-120454906D01*
X168398193Y-120441009D01*
X168464833Y-120392592D01*
X168511253Y-120358866D01*
X168639040Y-120216944D01*
X168734527Y-120051556D01*
X168793542Y-119869928D01*
X168813504Y-119680000D01*
X168793542Y-119490072D01*
X168734527Y-119308444D01*
X168639040Y-119143056D01*
X168511253Y-119001134D01*
X168356752Y-118888882D01*
X168182288Y-118811206D01*
X168182286Y-118811205D01*
X167995487Y-118771500D01*
X167804513Y-118771500D01*
X167617714Y-118811205D01*
X167443246Y-118888883D01*
X167288745Y-119001135D01*
X167160959Y-119143057D01*
X167065473Y-119308443D01*
X167065470Y-119308450D01*
X167006459Y-119490068D01*
X167006458Y-119490072D01*
X166986496Y-119680000D01*
X167006458Y-119869928D01*
X167006459Y-119869931D01*
X167065470Y-120051549D01*
X167065473Y-120051556D01*
X167160960Y-120216944D01*
X167288747Y-120358866D01*
X167298888Y-120366234D01*
X167301806Y-120368354D01*
X167344472Y-120423684D01*
X167350451Y-120493297D01*
X167317846Y-120555092D01*
X167301807Y-120568989D01*
X167188750Y-120651131D01*
X167188746Y-120651134D01*
X167060959Y-120793057D01*
X166965473Y-120958443D01*
X166965470Y-120958450D01*
X166906459Y-121140068D01*
X166906458Y-121140072D01*
X166886496Y-121330000D01*
X166906458Y-121519928D01*
X166906459Y-121519931D01*
X166965470Y-121701549D01*
X166965473Y-121701556D01*
X167060960Y-121866944D01*
X167188747Y-122008866D01*
X167343248Y-122121118D01*
X167432463Y-122160839D01*
X167485698Y-122206087D01*
X167506020Y-122272936D01*
X167486975Y-122340160D01*
X167434609Y-122386416D01*
X167381592Y-122398116D01*
X150455768Y-122338935D01*
X150388798Y-122319016D01*
X150368521Y-122302617D01*
X148519819Y-120453915D01*
X148486334Y-120392592D01*
X148483500Y-120366234D01*
X148483500Y-119680000D01*
X153136496Y-119680000D01*
X153156458Y-119869928D01*
X153156459Y-119869931D01*
X153215470Y-120051549D01*
X153215473Y-120051556D01*
X153310960Y-120216944D01*
X153438747Y-120358866D01*
X153593248Y-120471118D01*
X153767712Y-120548794D01*
X153954513Y-120588500D01*
X154145487Y-120588500D01*
X154332288Y-120548794D01*
X154506752Y-120471118D01*
X154661253Y-120358866D01*
X154789040Y-120216944D01*
X154884527Y-120051556D01*
X154943542Y-119869928D01*
X154963504Y-119680000D01*
X160336496Y-119680000D01*
X160356458Y-119869928D01*
X160356459Y-119869931D01*
X160415470Y-120051549D01*
X160415473Y-120051556D01*
X160510960Y-120216944D01*
X160638747Y-120358866D01*
X160793248Y-120471118D01*
X160967712Y-120548794D01*
X161154513Y-120588500D01*
X161345487Y-120588500D01*
X161532288Y-120548794D01*
X161706752Y-120471118D01*
X161861253Y-120358866D01*
X161989040Y-120216944D01*
X162084527Y-120051556D01*
X162143542Y-119869928D01*
X162163504Y-119680000D01*
X162143542Y-119490072D01*
X162084527Y-119308444D01*
X161989040Y-119143056D01*
X161861253Y-119001134D01*
X161706752Y-118888882D01*
X161532288Y-118811206D01*
X161532286Y-118811205D01*
X161345487Y-118771500D01*
X161154513Y-118771500D01*
X160967714Y-118811205D01*
X160793246Y-118888883D01*
X160638745Y-119001135D01*
X160510959Y-119143057D01*
X160415473Y-119308443D01*
X160415470Y-119308450D01*
X160356459Y-119490068D01*
X160356458Y-119490072D01*
X160336496Y-119680000D01*
X154963504Y-119680000D01*
X154943542Y-119490072D01*
X154884527Y-119308444D01*
X154789040Y-119143056D01*
X154661253Y-119001134D01*
X154506752Y-118888882D01*
X154332288Y-118811206D01*
X154332286Y-118811205D01*
X154145487Y-118771500D01*
X153954513Y-118771500D01*
X153767714Y-118811205D01*
X153593246Y-118888883D01*
X153438745Y-119001135D01*
X153310959Y-119143057D01*
X153215473Y-119308443D01*
X153215470Y-119308450D01*
X153156459Y-119490068D01*
X153156458Y-119490072D01*
X153136496Y-119680000D01*
X148483500Y-119680000D01*
X148483500Y-116130000D01*
X156036496Y-116130000D01*
X156056458Y-116319928D01*
X156056459Y-116319931D01*
X156115470Y-116501549D01*
X156115473Y-116501556D01*
X156210960Y-116666944D01*
X156338747Y-116808866D01*
X156493248Y-116921118D01*
X156667712Y-116998794D01*
X156854513Y-117038500D01*
X157045487Y-117038500D01*
X157232288Y-116998794D01*
X157406752Y-116921118D01*
X157561253Y-116808866D01*
X157689040Y-116666944D01*
X157784527Y-116501556D01*
X157843542Y-116319928D01*
X157863504Y-116130000D01*
X157852994Y-116030000D01*
X163436496Y-116030000D01*
X163456458Y-116219928D01*
X163456459Y-116219931D01*
X163515470Y-116401549D01*
X163515473Y-116401556D01*
X163610960Y-116566944D01*
X163738747Y-116708866D01*
X163893248Y-116821118D01*
X164067712Y-116898794D01*
X164254513Y-116938500D01*
X164445487Y-116938500D01*
X164632288Y-116898794D01*
X164806752Y-116821118D01*
X164961253Y-116708866D01*
X165089040Y-116566944D01*
X165184527Y-116401556D01*
X165243542Y-116219928D01*
X165263504Y-116030000D01*
X165243542Y-115840072D01*
X165184527Y-115658444D01*
X165089040Y-115493056D01*
X164961253Y-115351134D01*
X164806752Y-115238882D01*
X164632288Y-115161206D01*
X164632286Y-115161205D01*
X164445487Y-115121500D01*
X164254513Y-115121500D01*
X164067714Y-115161205D01*
X163893246Y-115238883D01*
X163738745Y-115351135D01*
X163610959Y-115493057D01*
X163515473Y-115658443D01*
X163515470Y-115658450D01*
X163456459Y-115840068D01*
X163456458Y-115840072D01*
X163436496Y-116030000D01*
X157852994Y-116030000D01*
X157843542Y-115940072D01*
X157784527Y-115758444D01*
X157689040Y-115593056D01*
X157561253Y-115451134D01*
X157406752Y-115338882D01*
X157232288Y-115261206D01*
X157232286Y-115261205D01*
X157045487Y-115221500D01*
X156854513Y-115221500D01*
X156667714Y-115261205D01*
X156493246Y-115338883D01*
X156338745Y-115451135D01*
X156210959Y-115593057D01*
X156115473Y-115758443D01*
X156115470Y-115758450D01*
X156056459Y-115940068D01*
X156056458Y-115940072D01*
X156036496Y-116130000D01*
X148483500Y-116130000D01*
X148483500Y-115840936D01*
X148503185Y-115773897D01*
X148555989Y-115728142D01*
X148625147Y-115718198D01*
X148657926Y-115727653D01*
X148817712Y-115798794D01*
X148817715Y-115798794D01*
X148817716Y-115798795D01*
X149004513Y-115838500D01*
X149195487Y-115838500D01*
X149382288Y-115798794D01*
X149556752Y-115721118D01*
X149711253Y-115608866D01*
X149839040Y-115466944D01*
X149934527Y-115301556D01*
X149993542Y-115119928D01*
X150013504Y-114930000D01*
X149993542Y-114740072D01*
X149934527Y-114558444D01*
X149860370Y-114430000D01*
X154136496Y-114430000D01*
X154156458Y-114619928D01*
X154156459Y-114619931D01*
X154215470Y-114801549D01*
X154215473Y-114801556D01*
X154310960Y-114966944D01*
X154438747Y-115108866D01*
X154593248Y-115221118D01*
X154767712Y-115298794D01*
X154954513Y-115338500D01*
X155145487Y-115338500D01*
X155332288Y-115298794D01*
X155506752Y-115221118D01*
X155661253Y-115108866D01*
X155789040Y-114966944D01*
X155884527Y-114801556D01*
X155891531Y-114780000D01*
X158836496Y-114780000D01*
X158856458Y-114969928D01*
X158856459Y-114969931D01*
X158915470Y-115151549D01*
X158915473Y-115151556D01*
X159010960Y-115316944D01*
X159138747Y-115458866D01*
X159293248Y-115571118D01*
X159467712Y-115648794D01*
X159654513Y-115688500D01*
X159845487Y-115688500D01*
X160032288Y-115648794D01*
X160206752Y-115571118D01*
X160361253Y-115458866D01*
X160489040Y-115316944D01*
X160584527Y-115151556D01*
X160643542Y-114969928D01*
X160663504Y-114780000D01*
X160643542Y-114590072D01*
X160584527Y-114408444D01*
X160489040Y-114243056D01*
X160361253Y-114101134D01*
X160206752Y-113988882D01*
X160032288Y-113911206D01*
X160032286Y-113911205D01*
X159845487Y-113871500D01*
X159654513Y-113871500D01*
X159467714Y-113911205D01*
X159293246Y-113988883D01*
X159138745Y-114101135D01*
X159010959Y-114243057D01*
X158915473Y-114408443D01*
X158915470Y-114408450D01*
X158856459Y-114590068D01*
X158856458Y-114590072D01*
X158836496Y-114780000D01*
X155891531Y-114780000D01*
X155943542Y-114619928D01*
X155963504Y-114430000D01*
X155943542Y-114240072D01*
X155884527Y-114058444D01*
X155789040Y-113893056D01*
X155661253Y-113751134D01*
X155506752Y-113638882D01*
X155332288Y-113561206D01*
X155332286Y-113561205D01*
X155145487Y-113521500D01*
X154954513Y-113521500D01*
X154767714Y-113561205D01*
X154593246Y-113638883D01*
X154438745Y-113751135D01*
X154310959Y-113893057D01*
X154215473Y-114058443D01*
X154215470Y-114058450D01*
X154156459Y-114240068D01*
X154156458Y-114240072D01*
X154136496Y-114430000D01*
X149860370Y-114430000D01*
X149839040Y-114393056D01*
X149711253Y-114251134D01*
X149556752Y-114138882D01*
X149382288Y-114061206D01*
X149382286Y-114061205D01*
X149195487Y-114021500D01*
X149004513Y-114021500D01*
X148817714Y-114061205D01*
X148657935Y-114132343D01*
X148588685Y-114141627D01*
X148525409Y-114111998D01*
X148488196Y-114052863D01*
X148483500Y-114019063D01*
X148483500Y-113012500D01*
X148503185Y-112945461D01*
X148555989Y-112899706D01*
X148607500Y-112888500D01*
X148695487Y-112888500D01*
X148882288Y-112848794D01*
X149056752Y-112771118D01*
X149182165Y-112680000D01*
X166986496Y-112680000D01*
X167006458Y-112869928D01*
X167006459Y-112869931D01*
X167065470Y-113051549D01*
X167065473Y-113051556D01*
X167160960Y-113216944D01*
X167288747Y-113358866D01*
X167443248Y-113471118D01*
X167617712Y-113548794D01*
X167804513Y-113588500D01*
X167995487Y-113588500D01*
X168182288Y-113548794D01*
X168356752Y-113471118D01*
X168511253Y-113358866D01*
X168639040Y-113216944D01*
X168734527Y-113051556D01*
X168793542Y-112869928D01*
X168813504Y-112680000D01*
X168793542Y-112490072D01*
X168734527Y-112308444D01*
X168639040Y-112143056D01*
X168511253Y-112001134D01*
X168356752Y-111888882D01*
X168182288Y-111811206D01*
X168182286Y-111811205D01*
X167995487Y-111771500D01*
X167804513Y-111771500D01*
X167617714Y-111811205D01*
X167443246Y-111888883D01*
X167288745Y-112001135D01*
X167160959Y-112143057D01*
X167065473Y-112308443D01*
X167065470Y-112308450D01*
X167006459Y-112490068D01*
X167006458Y-112490072D01*
X166986496Y-112680000D01*
X149182165Y-112680000D01*
X149211253Y-112658866D01*
X149339040Y-112516944D01*
X149434527Y-112351556D01*
X149493542Y-112169928D01*
X149513504Y-111980000D01*
X149493542Y-111790072D01*
X149434527Y-111608444D01*
X149339040Y-111443056D01*
X149211253Y-111301134D01*
X149056752Y-111188882D01*
X148882288Y-111111206D01*
X148882286Y-111111205D01*
X148695487Y-111071500D01*
X148607500Y-111071500D01*
X148540461Y-111051815D01*
X148494706Y-110999011D01*
X148483500Y-110947500D01*
X148483500Y-110730000D01*
X154836496Y-110730000D01*
X154856458Y-110919928D01*
X154856459Y-110919931D01*
X154915470Y-111101549D01*
X154915473Y-111101556D01*
X155010960Y-111266944D01*
X155138747Y-111408866D01*
X155293248Y-111521118D01*
X155467712Y-111598794D01*
X155654513Y-111638500D01*
X155845487Y-111638500D01*
X156032288Y-111598794D01*
X156206752Y-111521118D01*
X156361253Y-111408866D01*
X156489040Y-111266944D01*
X156584527Y-111101556D01*
X156643542Y-110919928D01*
X156658249Y-110780000D01*
X161936496Y-110780000D01*
X161956458Y-110969928D01*
X161956459Y-110969931D01*
X162015470Y-111151549D01*
X162015473Y-111151556D01*
X162110960Y-111316944D01*
X162193725Y-111408864D01*
X162224512Y-111443057D01*
X162238747Y-111458866D01*
X162393248Y-111571118D01*
X162567712Y-111648794D01*
X162754513Y-111688500D01*
X162945487Y-111688500D01*
X163132288Y-111648794D01*
X163306752Y-111571118D01*
X163461253Y-111458866D01*
X163589040Y-111316944D01*
X163684527Y-111151556D01*
X163743542Y-110969928D01*
X163763504Y-110780000D01*
X163743542Y-110590072D01*
X163684527Y-110408444D01*
X163589040Y-110243056D01*
X163461253Y-110101134D01*
X163306752Y-109988882D01*
X163132288Y-109911206D01*
X163132286Y-109911205D01*
X162945487Y-109871500D01*
X162754513Y-109871500D01*
X162567714Y-109911205D01*
X162393246Y-109988883D01*
X162238745Y-110101135D01*
X162110959Y-110243057D01*
X162015473Y-110408443D01*
X162015470Y-110408450D01*
X161972705Y-110540068D01*
X161956458Y-110590072D01*
X161936496Y-110780000D01*
X156658249Y-110780000D01*
X156663504Y-110730000D01*
X156643542Y-110540072D01*
X156584527Y-110358444D01*
X156489040Y-110193056D01*
X156361253Y-110051134D01*
X156206752Y-109938882D01*
X156032288Y-109861206D01*
X156032286Y-109861205D01*
X155845487Y-109821500D01*
X155654513Y-109821500D01*
X155467714Y-109861205D01*
X155293246Y-109938883D01*
X155138745Y-110051135D01*
X155010959Y-110193057D01*
X154915473Y-110358443D01*
X154915470Y-110358450D01*
X154856459Y-110540068D01*
X154856458Y-110540072D01*
X154836496Y-110730000D01*
X148483500Y-110730000D01*
X148483500Y-108280000D01*
X167236496Y-108280000D01*
X167256458Y-108469928D01*
X167256459Y-108469931D01*
X167315470Y-108651549D01*
X167315473Y-108651556D01*
X167410960Y-108816944D01*
X167538747Y-108958866D01*
X167693248Y-109071118D01*
X167867712Y-109148794D01*
X168054513Y-109188500D01*
X168245487Y-109188500D01*
X168432288Y-109148794D01*
X168606752Y-109071118D01*
X168761253Y-108958866D01*
X168889040Y-108816944D01*
X168984527Y-108651556D01*
X169043542Y-108469928D01*
X169063504Y-108280000D01*
X169043542Y-108090072D01*
X168984527Y-107908444D01*
X168889040Y-107743056D01*
X168761253Y-107601134D01*
X168606752Y-107488882D01*
X168432288Y-107411206D01*
X168432286Y-107411205D01*
X168245487Y-107371500D01*
X168054513Y-107371500D01*
X167867714Y-107411205D01*
X167693246Y-107488883D01*
X167538745Y-107601135D01*
X167410959Y-107743057D01*
X167315473Y-107908443D01*
X167315470Y-107908450D01*
X167256459Y-108090068D01*
X167256458Y-108090072D01*
X167236496Y-108280000D01*
X148483500Y-108280000D01*
X148483500Y-105480000D01*
X153186496Y-105480000D01*
X153206458Y-105669928D01*
X153206459Y-105669931D01*
X153265470Y-105851549D01*
X153265473Y-105851556D01*
X153360960Y-106016944D01*
X153488747Y-106158866D01*
X153643248Y-106271118D01*
X153817712Y-106348794D01*
X154004513Y-106388500D01*
X154195487Y-106388500D01*
X154382288Y-106348794D01*
X154556752Y-106271118D01*
X154711253Y-106158866D01*
X154839040Y-106016944D01*
X154934527Y-105851556D01*
X154993542Y-105669928D01*
X155013504Y-105480000D01*
X154993542Y-105290072D01*
X154934527Y-105108444D01*
X154839040Y-104943056D01*
X154711253Y-104801134D01*
X154556752Y-104688882D01*
X154536803Y-104680000D01*
X158936496Y-104680000D01*
X158956458Y-104869928D01*
X158956459Y-104869931D01*
X159015470Y-105051549D01*
X159015473Y-105051556D01*
X159110960Y-105216944D01*
X159238747Y-105358866D01*
X159393248Y-105471118D01*
X159567712Y-105548794D01*
X159754513Y-105588500D01*
X159945487Y-105588500D01*
X160132288Y-105548794D01*
X160306752Y-105471118D01*
X160363346Y-105430000D01*
X166236496Y-105430000D01*
X166256458Y-105619928D01*
X166256459Y-105619931D01*
X166315470Y-105801549D01*
X166315473Y-105801556D01*
X166410960Y-105966944D01*
X166538747Y-106108866D01*
X166693248Y-106221118D01*
X166867712Y-106298794D01*
X167054513Y-106338500D01*
X167245487Y-106338500D01*
X167432288Y-106298794D01*
X167606752Y-106221118D01*
X167761253Y-106108866D01*
X167889040Y-105966944D01*
X167984527Y-105801556D01*
X168043542Y-105619928D01*
X168063504Y-105430000D01*
X168043542Y-105240072D01*
X167984527Y-105058444D01*
X167889040Y-104893056D01*
X167761253Y-104751134D01*
X167606752Y-104638882D01*
X167432288Y-104561206D01*
X167432286Y-104561205D01*
X167245487Y-104521500D01*
X167054513Y-104521500D01*
X166867714Y-104561205D01*
X166693246Y-104638883D01*
X166538745Y-104751135D01*
X166410959Y-104893057D01*
X166315473Y-105058443D01*
X166315470Y-105058450D01*
X166256459Y-105240068D01*
X166256458Y-105240072D01*
X166236496Y-105430000D01*
X160363346Y-105430000D01*
X160461253Y-105358866D01*
X160589040Y-105216944D01*
X160684527Y-105051556D01*
X160743542Y-104869928D01*
X160763504Y-104680000D01*
X160743542Y-104490072D01*
X160684527Y-104308444D01*
X160589040Y-104143056D01*
X160461253Y-104001134D01*
X160306752Y-103888882D01*
X160132288Y-103811206D01*
X160132286Y-103811205D01*
X159945487Y-103771500D01*
X159754513Y-103771500D01*
X159567714Y-103811205D01*
X159393246Y-103888883D01*
X159238745Y-104001135D01*
X159110959Y-104143057D01*
X159015473Y-104308443D01*
X159015470Y-104308450D01*
X158971921Y-104442482D01*
X158956458Y-104490072D01*
X158936496Y-104680000D01*
X154536803Y-104680000D01*
X154382288Y-104611206D01*
X154382286Y-104611205D01*
X154195487Y-104571500D01*
X154004513Y-104571500D01*
X153817714Y-104611205D01*
X153817712Y-104611206D01*
X153663198Y-104680000D01*
X153643246Y-104688883D01*
X153488745Y-104801135D01*
X153360959Y-104943057D01*
X153265473Y-105108443D01*
X153265470Y-105108450D01*
X153222705Y-105240068D01*
X153206458Y-105290072D01*
X153186496Y-105480000D01*
X148483500Y-105480000D01*
X148483500Y-104555276D01*
X148503185Y-104488237D01*
X148555989Y-104442482D01*
X148625147Y-104432538D01*
X148633264Y-104433983D01*
X148654513Y-104438500D01*
X148845487Y-104438500D01*
X149032288Y-104398794D01*
X149206752Y-104321118D01*
X149361253Y-104208866D01*
X149489040Y-104066944D01*
X149584527Y-103901556D01*
X149643542Y-103719928D01*
X149663504Y-103530000D01*
X149643542Y-103340072D01*
X149584527Y-103158444D01*
X149489040Y-102993056D01*
X149361253Y-102851134D01*
X149206752Y-102738882D01*
X149032288Y-102661206D01*
X149032286Y-102661205D01*
X148845487Y-102621500D01*
X148654513Y-102621500D01*
X148633281Y-102626013D01*
X148563614Y-102620697D01*
X148507880Y-102578560D01*
X148483775Y-102512980D01*
X148483500Y-102504723D01*
X148483500Y-101180000D01*
X149436496Y-101180000D01*
X149456458Y-101369928D01*
X149456459Y-101369931D01*
X149515470Y-101551549D01*
X149515473Y-101551556D01*
X149610960Y-101716944D01*
X149738747Y-101858866D01*
X149893248Y-101971118D01*
X150067712Y-102048794D01*
X150254513Y-102088500D01*
X150445487Y-102088500D01*
X150632288Y-102048794D01*
X150806752Y-101971118D01*
X150961253Y-101858866D01*
X151089040Y-101716944D01*
X151184527Y-101551556D01*
X151243542Y-101369928D01*
X151263504Y-101180000D01*
X151243542Y-100990072D01*
X151184527Y-100808444D01*
X151089040Y-100643056D01*
X150961253Y-100501134D01*
X150806752Y-100388882D01*
X150632288Y-100311206D01*
X150632286Y-100311205D01*
X150445487Y-100271500D01*
X150254513Y-100271500D01*
X150067714Y-100311205D01*
X149893246Y-100388883D01*
X149738745Y-100501135D01*
X149610959Y-100643057D01*
X149515473Y-100808443D01*
X149515470Y-100808450D01*
X149456459Y-100990068D01*
X149456458Y-100990072D01*
X149436496Y-101180000D01*
X148483500Y-101180000D01*
X148483500Y-99480000D01*
X153336496Y-99480000D01*
X153356458Y-99669928D01*
X153356459Y-99669931D01*
X153415470Y-99851549D01*
X153415473Y-99851556D01*
X153510960Y-100016944D01*
X153638747Y-100158866D01*
X153793248Y-100271118D01*
X153967712Y-100348794D01*
X154154513Y-100388500D01*
X154345487Y-100388500D01*
X154532288Y-100348794D01*
X154706752Y-100271118D01*
X154861253Y-100158866D01*
X154989040Y-100016944D01*
X155084527Y-99851556D01*
X155143542Y-99669928D01*
X155152994Y-99580000D01*
X160436496Y-99580000D01*
X160456458Y-99769928D01*
X160456459Y-99769931D01*
X160515470Y-99951549D01*
X160515473Y-99951556D01*
X160610960Y-100116944D01*
X160738747Y-100258866D01*
X160893248Y-100371118D01*
X161067712Y-100448794D01*
X161254513Y-100488500D01*
X161445487Y-100488500D01*
X161632288Y-100448794D01*
X161806752Y-100371118D01*
X161961253Y-100258866D01*
X162089040Y-100116944D01*
X162184527Y-99951556D01*
X162243542Y-99769928D01*
X162247739Y-99730000D01*
X166986496Y-99730000D01*
X167006458Y-99919928D01*
X167006459Y-99919931D01*
X167065470Y-100101549D01*
X167065473Y-100101556D01*
X167160960Y-100266944D01*
X167288747Y-100408866D01*
X167443248Y-100521118D01*
X167617712Y-100598794D01*
X167804513Y-100638500D01*
X167995487Y-100638500D01*
X168182288Y-100598794D01*
X168356752Y-100521118D01*
X168511253Y-100408866D01*
X168639040Y-100266944D01*
X168734527Y-100101556D01*
X168793542Y-99919928D01*
X168813504Y-99730000D01*
X168793542Y-99540072D01*
X168734527Y-99358444D01*
X168647928Y-99208450D01*
X168635791Y-99187428D01*
X168638420Y-99185909D01*
X168619313Y-99132535D01*
X168635066Y-99064464D01*
X168670218Y-99025007D01*
X168725295Y-98984991D01*
X168761253Y-98958866D01*
X168889040Y-98816944D01*
X168984527Y-98651556D01*
X169043542Y-98469928D01*
X169063504Y-98280000D01*
X169043542Y-98090072D01*
X168984527Y-97908444D01*
X168889040Y-97743056D01*
X168761253Y-97601134D01*
X168606752Y-97488882D01*
X168432288Y-97411206D01*
X168432286Y-97411205D01*
X168245487Y-97371500D01*
X168054513Y-97371500D01*
X167867714Y-97411205D01*
X167693246Y-97488883D01*
X167538745Y-97601135D01*
X167410959Y-97743057D01*
X167315473Y-97908443D01*
X167315470Y-97908450D01*
X167256459Y-98090068D01*
X167256458Y-98090072D01*
X167236496Y-98280000D01*
X167256458Y-98469928D01*
X167256459Y-98469931D01*
X167315470Y-98651549D01*
X167315473Y-98651556D01*
X167414209Y-98822572D01*
X167411612Y-98824071D01*
X167430699Y-98877680D01*
X167414826Y-98945723D01*
X167379783Y-98984991D01*
X167288746Y-99051134D01*
X167160959Y-99193057D01*
X167065473Y-99358443D01*
X167065470Y-99358450D01*
X167006459Y-99540068D01*
X167006458Y-99540072D01*
X166986496Y-99730000D01*
X162247739Y-99730000D01*
X162263504Y-99580000D01*
X162243542Y-99390072D01*
X162184527Y-99208444D01*
X162089040Y-99043056D01*
X161961253Y-98901134D01*
X161806752Y-98788882D01*
X161632288Y-98711206D01*
X161632286Y-98711205D01*
X161445487Y-98671500D01*
X161254513Y-98671500D01*
X161067714Y-98711205D01*
X160893246Y-98788883D01*
X160738745Y-98901135D01*
X160610959Y-99043057D01*
X160515473Y-99208443D01*
X160515470Y-99208450D01*
X160456459Y-99390068D01*
X160456458Y-99390072D01*
X160436496Y-99580000D01*
X155152994Y-99580000D01*
X155163504Y-99480000D01*
X155143542Y-99290072D01*
X155084527Y-99108444D01*
X154989040Y-98943056D01*
X154861253Y-98801134D01*
X154706752Y-98688882D01*
X154532288Y-98611206D01*
X154532286Y-98611205D01*
X154345487Y-98571500D01*
X154154513Y-98571500D01*
X153967714Y-98611205D01*
X153793246Y-98688883D01*
X153638745Y-98801135D01*
X153510959Y-98943057D01*
X153415473Y-99108443D01*
X153415470Y-99108450D01*
X153356459Y-99290068D01*
X153356458Y-99290072D01*
X153336496Y-99480000D01*
X148483500Y-99480000D01*
X148483500Y-94962500D01*
X148503185Y-94895461D01*
X148555989Y-94849706D01*
X148607500Y-94838500D01*
X148745487Y-94838500D01*
X148932288Y-94798794D01*
X149106752Y-94721118D01*
X149261253Y-94608866D01*
X149321016Y-94542491D01*
X149380502Y-94505843D01*
X149415116Y-94501479D01*
X155017808Y-94589633D01*
G37*
%TD.AperFunction*%
%TD*%
%TA.AperFunction,Conductor*%
%TO.N,+BATT 2*%
G36*
X122261843Y-60580007D02*
G01*
X122328882Y-60599694D01*
X122374635Y-60652499D01*
X122384576Y-60721658D01*
X122355549Y-60785213D01*
X122296770Y-60822985D01*
X122290436Y-60824664D01*
X122023199Y-60888001D01*
X122023177Y-60888008D01*
X121693872Y-61007865D01*
X121693866Y-61007868D01*
X121380703Y-61165145D01*
X121087899Y-61357724D01*
X120819451Y-61582980D01*
X120819441Y-61582990D01*
X120578950Y-61837893D01*
X120578945Y-61837899D01*
X120369675Y-62118998D01*
X120194452Y-62422494D01*
X120194446Y-62422507D01*
X120055643Y-62744286D01*
X119955132Y-63080017D01*
X119955130Y-63080024D01*
X119894279Y-63425131D01*
X119894278Y-63425142D01*
X119873901Y-63774996D01*
X119873901Y-63775003D01*
X119894278Y-64124857D01*
X119894279Y-64124868D01*
X119955130Y-64469975D01*
X119955132Y-64469982D01*
X120055643Y-64805713D01*
X120194446Y-65127492D01*
X120194452Y-65127505D01*
X120369675Y-65431001D01*
X120578945Y-65712100D01*
X120578950Y-65712106D01*
X120703154Y-65843754D01*
X120819443Y-65967012D01*
X121087903Y-66192278D01*
X121380700Y-66384853D01*
X121693874Y-66542135D01*
X122023190Y-66661996D01*
X122023196Y-66661997D01*
X122023198Y-66661998D01*
X122364178Y-66742813D01*
X122364185Y-66742814D01*
X122364194Y-66742816D01*
X122712275Y-66783500D01*
X122712282Y-66783500D01*
X123062718Y-66783500D01*
X123062725Y-66783500D01*
X123410806Y-66742816D01*
X123410815Y-66742813D01*
X123410821Y-66742813D01*
X123685871Y-66677623D01*
X123751810Y-66661996D01*
X124081126Y-66542135D01*
X124394300Y-66384853D01*
X124687097Y-66192278D01*
X124955557Y-65967012D01*
X125196051Y-65712104D01*
X125405325Y-65431000D01*
X125580550Y-65127501D01*
X125719357Y-64805712D01*
X125819867Y-64469984D01*
X125880722Y-64124857D01*
X125901099Y-63775000D01*
X125880722Y-63425143D01*
X125880720Y-63425131D01*
X125819869Y-63080024D01*
X125819867Y-63080017D01*
X125819867Y-63080016D01*
X125719357Y-62744288D01*
X125580550Y-62422499D01*
X125405325Y-62119000D01*
X125405324Y-62118998D01*
X125196054Y-61837899D01*
X125196049Y-61837893D01*
X125075647Y-61710276D01*
X124955557Y-61582988D01*
X124955550Y-61582982D01*
X124955548Y-61582980D01*
X124687100Y-61357724D01*
X124492819Y-61229944D01*
X124394300Y-61165147D01*
X124333472Y-61134598D01*
X124081133Y-61007868D01*
X124081127Y-61007865D01*
X123751822Y-60888008D01*
X123751813Y-60888005D01*
X123751810Y-60888004D01*
X123751807Y-60888003D01*
X123751800Y-60888001D01*
X123484742Y-60824706D01*
X123424049Y-60790092D01*
X123391706Y-60728159D01*
X123397980Y-60658572D01*
X123440879Y-60603423D01*
X123506785Y-60580222D01*
X123513311Y-60580049D01*
X146258396Y-60580824D01*
X146325435Y-60600511D01*
X146371188Y-60653316D01*
X146381129Y-60722475D01*
X146352102Y-60786030D01*
X146293323Y-60823802D01*
X146286989Y-60825481D01*
X146023199Y-60888001D01*
X146023177Y-60888008D01*
X145693872Y-61007865D01*
X145693866Y-61007868D01*
X145380703Y-61165145D01*
X145087899Y-61357724D01*
X144819451Y-61582980D01*
X144819441Y-61582990D01*
X144578950Y-61837893D01*
X144578945Y-61837899D01*
X144369675Y-62118998D01*
X144194452Y-62422494D01*
X144194446Y-62422507D01*
X144055643Y-62744286D01*
X143955132Y-63080017D01*
X143955130Y-63080024D01*
X143894279Y-63425131D01*
X143894278Y-63425142D01*
X143873901Y-63774996D01*
X143873901Y-63775003D01*
X143894278Y-64124857D01*
X143894279Y-64124868D01*
X143955130Y-64469975D01*
X143955132Y-64469982D01*
X144055643Y-64805713D01*
X144194446Y-65127492D01*
X144194452Y-65127505D01*
X144369675Y-65431001D01*
X144578945Y-65712100D01*
X144578950Y-65712106D01*
X144703154Y-65843754D01*
X144819443Y-65967012D01*
X145087903Y-66192278D01*
X145380700Y-66384853D01*
X145693874Y-66542135D01*
X146023190Y-66661996D01*
X146023196Y-66661997D01*
X146023198Y-66661998D01*
X146364178Y-66742813D01*
X146364185Y-66742814D01*
X146364194Y-66742816D01*
X146712275Y-66783500D01*
X146712282Y-66783500D01*
X147062718Y-66783500D01*
X147062725Y-66783500D01*
X147410806Y-66742816D01*
X147410815Y-66742813D01*
X147410821Y-66742813D01*
X147560932Y-66707235D01*
X147621209Y-66692949D01*
X147690981Y-66696642D01*
X147747680Y-66737470D01*
X147773305Y-66802471D01*
X147773799Y-66814877D01*
X147741120Y-70003400D01*
X147720750Y-70070234D01*
X147667480Y-70115445D01*
X147598223Y-70124680D01*
X147544241Y-70102447D01*
X147456752Y-70038882D01*
X147282288Y-69961206D01*
X147282286Y-69961205D01*
X147095487Y-69921500D01*
X146904513Y-69921500D01*
X146717714Y-69961205D01*
X146543246Y-70038883D01*
X146388745Y-70151135D01*
X146260959Y-70293057D01*
X146165473Y-70458443D01*
X146165470Y-70458450D01*
X146122705Y-70590068D01*
X146106458Y-70640072D01*
X146086496Y-70830000D01*
X146106458Y-71019928D01*
X146106459Y-71019931D01*
X146165470Y-71201549D01*
X146165473Y-71201556D01*
X146260960Y-71366944D01*
X146388747Y-71508866D01*
X146543248Y-71621118D01*
X146717712Y-71698794D01*
X146904513Y-71738500D01*
X147095487Y-71738500D01*
X147282288Y-71698794D01*
X147456752Y-71621118D01*
X147527147Y-71569972D01*
X147592949Y-71546493D01*
X147661003Y-71562317D01*
X147709699Y-71612422D01*
X147724023Y-71671562D01*
X147665347Y-77396745D01*
X147644977Y-77463579D01*
X147591707Y-77508790D01*
X147522450Y-77518025D01*
X147459195Y-77488350D01*
X147433967Y-77457474D01*
X147343943Y-77301549D01*
X147339040Y-77293056D01*
X147211253Y-77151134D01*
X147056752Y-77038882D01*
X146882288Y-76961206D01*
X146882286Y-76961205D01*
X146695487Y-76921500D01*
X146504513Y-76921500D01*
X146317714Y-76961205D01*
X146143246Y-77038883D01*
X145988745Y-77151135D01*
X145860959Y-77293057D01*
X145765473Y-77458443D01*
X145765470Y-77458450D01*
X145706459Y-77640068D01*
X145706458Y-77640072D01*
X145686496Y-77830000D01*
X145706458Y-78019928D01*
X145706459Y-78019931D01*
X145765470Y-78201549D01*
X145765473Y-78201556D01*
X145860960Y-78366944D01*
X145934658Y-78448794D01*
X145974512Y-78493057D01*
X145988747Y-78508866D01*
X146143248Y-78621118D01*
X146317712Y-78698794D01*
X146504513Y-78738500D01*
X146695487Y-78738500D01*
X146882288Y-78698794D01*
X147056752Y-78621118D01*
X147211253Y-78508866D01*
X147339040Y-78366944D01*
X147424901Y-78218227D01*
X147475465Y-78170015D01*
X147544072Y-78156791D01*
X147608937Y-78182759D01*
X147649466Y-78239673D01*
X147656279Y-78281501D01*
X147651712Y-78727104D01*
X147635107Y-78787832D01*
X147565472Y-78908444D01*
X147506459Y-79090068D01*
X147506458Y-79090072D01*
X147486496Y-79280000D01*
X147506458Y-79469928D01*
X147506459Y-79469931D01*
X147565470Y-79651549D01*
X147565473Y-79651556D01*
X147623945Y-79752833D01*
X147640551Y-79816104D01*
X147562605Y-87421390D01*
X147542235Y-87488224D01*
X147526294Y-87507799D01*
X147446167Y-87587928D01*
X147446166Y-87587929D01*
X147357931Y-87676163D01*
X147357928Y-87676167D01*
X147288603Y-87779918D01*
X147288598Y-87779927D01*
X147240845Y-87895214D01*
X147240843Y-87895222D01*
X147216500Y-88017601D01*
X147216500Y-93404674D01*
X147196815Y-93471713D01*
X147144011Y-93517468D01*
X147092097Y-93528673D01*
X142337334Y-93513209D01*
X142270359Y-93493307D01*
X142230350Y-93451210D01*
X142226836Y-93445123D01*
X142139040Y-93293056D01*
X142011253Y-93151134D01*
X141856752Y-93038882D01*
X141682288Y-92961206D01*
X141682286Y-92961205D01*
X141495487Y-92921500D01*
X141304513Y-92921500D01*
X141117714Y-92961205D01*
X140943246Y-93038883D01*
X140788745Y-93151135D01*
X140660959Y-93293057D01*
X140573164Y-93445123D01*
X140522597Y-93493339D01*
X140465374Y-93507122D01*
X138531910Y-93500834D01*
X138464935Y-93480932D01*
X138459427Y-93477153D01*
X138406750Y-93438880D01*
X138272807Y-93379246D01*
X138232288Y-93361206D01*
X138232286Y-93361205D01*
X138045487Y-93321500D01*
X137854513Y-93321500D01*
X137667714Y-93361205D01*
X137493250Y-93438880D01*
X137445760Y-93473384D01*
X137379953Y-93496863D01*
X137372472Y-93497064D01*
X135299557Y-93490322D01*
X135232582Y-93470420D01*
X135186999Y-93417467D01*
X135182033Y-93404651D01*
X135134527Y-93258444D01*
X135039040Y-93093056D01*
X134911253Y-92951134D01*
X134756752Y-92838882D01*
X134582288Y-92761206D01*
X134582286Y-92761205D01*
X134395487Y-92721500D01*
X134204513Y-92721500D01*
X134017714Y-92761205D01*
X133843246Y-92838883D01*
X133688745Y-92951135D01*
X133560959Y-93093057D01*
X133465473Y-93258443D01*
X133465470Y-93258450D01*
X133420081Y-93398144D01*
X133380643Y-93455820D01*
X133316285Y-93483018D01*
X133301747Y-93483825D01*
X119250887Y-93438132D01*
X119183912Y-93418230D01*
X119138329Y-93365277D01*
X119127290Y-93314032D01*
X119127307Y-93293057D01*
X119128422Y-91930000D01*
X125136496Y-91930000D01*
X125156458Y-92119928D01*
X125156459Y-92119931D01*
X125215470Y-92301549D01*
X125215473Y-92301556D01*
X125310960Y-92466944D01*
X125438747Y-92608866D01*
X125593248Y-92721118D01*
X125767712Y-92798794D01*
X125954513Y-92838500D01*
X126145487Y-92838500D01*
X126332288Y-92798794D01*
X126506752Y-92721118D01*
X126661253Y-92608866D01*
X126789040Y-92466944D01*
X126884527Y-92301556D01*
X126943542Y-92119928D01*
X126963504Y-91930000D01*
X126943542Y-91740072D01*
X126884527Y-91558444D01*
X126789040Y-91393056D01*
X126661253Y-91251134D01*
X126506752Y-91138882D01*
X126332288Y-91061206D01*
X126332286Y-91061205D01*
X126145487Y-91021500D01*
X125954513Y-91021500D01*
X125767714Y-91061205D01*
X125593246Y-91138883D01*
X125438745Y-91251135D01*
X125310959Y-91393057D01*
X125215473Y-91558443D01*
X125215470Y-91558450D01*
X125156459Y-91740068D01*
X125156458Y-91740072D01*
X125136496Y-91930000D01*
X119128422Y-91930000D01*
X119132144Y-87380000D01*
X122136496Y-87380000D01*
X122156458Y-87569928D01*
X122156459Y-87569931D01*
X122215470Y-87751549D01*
X122215473Y-87751556D01*
X122310960Y-87916944D01*
X122438747Y-88058866D01*
X122593248Y-88171118D01*
X122767712Y-88248794D01*
X122954513Y-88288500D01*
X123145487Y-88288500D01*
X123332288Y-88248794D01*
X123374500Y-88230000D01*
X133286496Y-88230000D01*
X133306458Y-88419928D01*
X133306459Y-88419931D01*
X133365470Y-88601549D01*
X133365473Y-88601556D01*
X133460960Y-88766944D01*
X133588747Y-88908866D01*
X133743248Y-89021118D01*
X133917712Y-89098794D01*
X134104513Y-89138500D01*
X134295487Y-89138500D01*
X134482288Y-89098794D01*
X134656752Y-89021118D01*
X134811253Y-88908866D01*
X134939040Y-88766944D01*
X135034527Y-88601556D01*
X135093542Y-88419928D01*
X135113504Y-88230000D01*
X135093542Y-88040072D01*
X135034527Y-87858444D01*
X134989237Y-87780000D01*
X136686496Y-87780000D01*
X136706458Y-87969928D01*
X136706459Y-87969931D01*
X136765470Y-88151549D01*
X136765473Y-88151556D01*
X136860960Y-88316944D01*
X136988747Y-88458866D01*
X137143248Y-88571118D01*
X137317712Y-88648794D01*
X137504513Y-88688500D01*
X137695487Y-88688500D01*
X137882288Y-88648794D01*
X138056752Y-88571118D01*
X138211253Y-88458866D01*
X138327284Y-88330000D01*
X140386496Y-88330000D01*
X140406458Y-88519928D01*
X140406459Y-88519931D01*
X140465470Y-88701549D01*
X140465473Y-88701556D01*
X140560960Y-88866944D01*
X140688747Y-89008866D01*
X140843248Y-89121118D01*
X141017712Y-89198794D01*
X141204513Y-89238500D01*
X141395487Y-89238500D01*
X141582288Y-89198794D01*
X141756752Y-89121118D01*
X141911253Y-89008866D01*
X142039040Y-88866944D01*
X142134527Y-88701556D01*
X142193542Y-88519928D01*
X142213504Y-88330000D01*
X142193542Y-88140072D01*
X142157777Y-88030000D01*
X144336496Y-88030000D01*
X144356458Y-88219928D01*
X144356459Y-88219931D01*
X144415470Y-88401549D01*
X144415473Y-88401556D01*
X144510960Y-88566944D01*
X144638747Y-88708866D01*
X144793248Y-88821118D01*
X144967712Y-88898794D01*
X145154513Y-88938500D01*
X145345487Y-88938500D01*
X145532288Y-88898794D01*
X145706752Y-88821118D01*
X145861253Y-88708866D01*
X145989040Y-88566944D01*
X146084527Y-88401556D01*
X146143542Y-88219928D01*
X146163504Y-88030000D01*
X146143542Y-87840072D01*
X146084527Y-87658444D01*
X145989040Y-87493056D01*
X145861253Y-87351134D01*
X145706752Y-87238882D01*
X145532288Y-87161206D01*
X145532286Y-87161205D01*
X145345487Y-87121500D01*
X145154513Y-87121500D01*
X144967714Y-87161205D01*
X144793246Y-87238883D01*
X144638745Y-87351135D01*
X144510959Y-87493057D01*
X144415473Y-87658443D01*
X144415470Y-87658450D01*
X144371734Y-87793057D01*
X144356458Y-87840072D01*
X144336496Y-88030000D01*
X142157777Y-88030000D01*
X142134527Y-87958444D01*
X142039040Y-87793056D01*
X141911253Y-87651134D01*
X141756752Y-87538882D01*
X141582288Y-87461206D01*
X141582286Y-87461205D01*
X141395487Y-87421500D01*
X141204513Y-87421500D01*
X141017714Y-87461205D01*
X140843246Y-87538883D01*
X140688745Y-87651135D01*
X140560959Y-87793057D01*
X140465473Y-87958443D01*
X140465470Y-87958450D01*
X140406459Y-88140068D01*
X140406458Y-88140072D01*
X140386496Y-88330000D01*
X138327284Y-88330000D01*
X138339040Y-88316944D01*
X138434527Y-88151556D01*
X138493542Y-87969928D01*
X138513504Y-87780000D01*
X138493542Y-87590072D01*
X138434527Y-87408444D01*
X138339040Y-87243056D01*
X138211253Y-87101134D01*
X138056752Y-86988882D01*
X137882288Y-86911206D01*
X137882286Y-86911205D01*
X137695487Y-86871500D01*
X137504513Y-86871500D01*
X137317714Y-86911205D01*
X137143246Y-86988883D01*
X136988745Y-87101135D01*
X136860959Y-87243057D01*
X136765473Y-87408443D01*
X136765470Y-87408450D01*
X136707154Y-87587929D01*
X136706458Y-87590072D01*
X136686496Y-87780000D01*
X134989237Y-87780000D01*
X134939040Y-87693056D01*
X134811253Y-87551134D01*
X134656752Y-87438882D01*
X134482288Y-87361206D01*
X134482286Y-87361205D01*
X134295487Y-87321500D01*
X134104513Y-87321500D01*
X133917714Y-87361205D01*
X133743246Y-87438883D01*
X133588745Y-87551135D01*
X133460959Y-87693057D01*
X133365473Y-87858443D01*
X133365470Y-87858450D01*
X133306459Y-88040068D01*
X133306458Y-88040072D01*
X133286496Y-88230000D01*
X123374500Y-88230000D01*
X123506752Y-88171118D01*
X123661253Y-88058866D01*
X123789040Y-87916944D01*
X123884527Y-87751556D01*
X123943542Y-87569928D01*
X123963504Y-87380000D01*
X123943542Y-87190072D01*
X123884527Y-87008444D01*
X123789040Y-86843056D01*
X123661253Y-86701134D01*
X123506752Y-86588882D01*
X123332288Y-86511206D01*
X123332286Y-86511205D01*
X123145487Y-86471500D01*
X122954513Y-86471500D01*
X122767714Y-86511205D01*
X122593246Y-86588883D01*
X122438745Y-86701135D01*
X122310959Y-86843057D01*
X122215473Y-87008443D01*
X122215470Y-87008450D01*
X122165837Y-87161206D01*
X122156458Y-87190072D01*
X122136496Y-87380000D01*
X119132144Y-87380000D01*
X119134393Y-84630000D01*
X125286496Y-84630000D01*
X125306458Y-84819928D01*
X125306459Y-84819931D01*
X125365470Y-85001549D01*
X125365473Y-85001556D01*
X125460960Y-85166944D01*
X125588747Y-85308866D01*
X125743248Y-85421118D01*
X125917712Y-85498794D01*
X126104513Y-85538500D01*
X126295487Y-85538500D01*
X126482288Y-85498794D01*
X126656752Y-85421118D01*
X126811253Y-85308866D01*
X126939040Y-85166944D01*
X127034527Y-85001556D01*
X127093542Y-84819928D01*
X127113504Y-84630000D01*
X127093542Y-84440072D01*
X127034527Y-84258444D01*
X126939040Y-84093056D01*
X126811253Y-83951134D01*
X126656752Y-83838882D01*
X126482288Y-83761206D01*
X126482286Y-83761205D01*
X126295487Y-83721500D01*
X126104513Y-83721500D01*
X125917714Y-83761205D01*
X125743246Y-83838883D01*
X125588745Y-83951135D01*
X125460959Y-84093057D01*
X125365473Y-84258443D01*
X125365470Y-84258450D01*
X125306459Y-84440068D01*
X125306458Y-84440072D01*
X125286496Y-84630000D01*
X119134393Y-84630000D01*
X119135374Y-83430000D01*
X139886496Y-83430000D01*
X139906458Y-83619928D01*
X139906459Y-83619931D01*
X139965470Y-83801549D01*
X139965473Y-83801556D01*
X140060960Y-83966944D01*
X140163290Y-84080594D01*
X140174512Y-84093057D01*
X140188747Y-84108866D01*
X140343248Y-84221118D01*
X140517712Y-84298794D01*
X140704513Y-84338500D01*
X140895487Y-84338500D01*
X141082288Y-84298794D01*
X141256752Y-84221118D01*
X141411253Y-84108866D01*
X141539040Y-83966944D01*
X141634527Y-83801556D01*
X141693542Y-83619928D01*
X141713504Y-83430000D01*
X141693542Y-83240072D01*
X141634527Y-83058444D01*
X141539040Y-82893056D01*
X141411253Y-82751134D01*
X141256752Y-82638882D01*
X141082288Y-82561206D01*
X141082286Y-82561205D01*
X140895487Y-82521500D01*
X140704513Y-82521500D01*
X140517714Y-82561205D01*
X140343246Y-82638883D01*
X140188745Y-82751135D01*
X140060959Y-82893057D01*
X139965473Y-83058443D01*
X139965470Y-83058450D01*
X139906459Y-83240068D01*
X139906458Y-83240072D01*
X139886496Y-83430000D01*
X119135374Y-83430000D01*
X119136969Y-81480000D01*
X135186496Y-81480000D01*
X135206458Y-81669928D01*
X135206459Y-81669931D01*
X135265470Y-81851549D01*
X135265473Y-81851556D01*
X135360960Y-82016944D01*
X135488747Y-82158866D01*
X135643248Y-82271118D01*
X135817712Y-82348794D01*
X136004513Y-82388500D01*
X136195487Y-82388500D01*
X136382288Y-82348794D01*
X136556752Y-82271118D01*
X136711253Y-82158866D01*
X136839040Y-82016944D01*
X136934527Y-81851556D01*
X136993542Y-81669928D01*
X137013504Y-81480000D01*
X136993542Y-81290072D01*
X136990269Y-81280000D01*
X142386496Y-81280000D01*
X142406458Y-81469928D01*
X142406459Y-81469931D01*
X142465470Y-81651549D01*
X142465473Y-81651556D01*
X142560960Y-81816944D01*
X142688747Y-81958866D01*
X142843248Y-82071118D01*
X143017712Y-82148794D01*
X143204513Y-82188500D01*
X143395487Y-82188500D01*
X143582288Y-82148794D01*
X143756752Y-82071118D01*
X143911253Y-81958866D01*
X144039040Y-81816944D01*
X144134527Y-81651556D01*
X144193542Y-81469928D01*
X144213504Y-81280000D01*
X144193542Y-81090072D01*
X144134527Y-80908444D01*
X144039040Y-80743056D01*
X143911253Y-80601134D01*
X143756752Y-80488882D01*
X143582288Y-80411206D01*
X143582286Y-80411205D01*
X143395487Y-80371500D01*
X143204513Y-80371500D01*
X143017714Y-80411205D01*
X142843246Y-80488883D01*
X142688745Y-80601135D01*
X142560959Y-80743057D01*
X142465473Y-80908443D01*
X142465470Y-80908450D01*
X142406459Y-81090068D01*
X142406458Y-81090072D01*
X142386496Y-81280000D01*
X136990269Y-81280000D01*
X136934527Y-81108444D01*
X136839040Y-80943056D01*
X136711253Y-80801134D01*
X136556752Y-80688882D01*
X136382288Y-80611206D01*
X136382286Y-80611205D01*
X136195487Y-80571500D01*
X136004513Y-80571500D01*
X135817714Y-80611205D01*
X135643246Y-80688883D01*
X135488745Y-80801135D01*
X135360959Y-80943057D01*
X135265473Y-81108443D01*
X135265470Y-81108450D01*
X135206459Y-81290068D01*
X135206458Y-81290072D01*
X135186496Y-81480000D01*
X119136969Y-81480000D01*
X119137869Y-80380000D01*
X124486496Y-80380000D01*
X124506458Y-80569928D01*
X124506459Y-80569931D01*
X124565470Y-80751549D01*
X124565473Y-80751556D01*
X124660960Y-80916944D01*
X124788747Y-81058866D01*
X124943248Y-81171118D01*
X125117712Y-81248794D01*
X125304513Y-81288500D01*
X125495487Y-81288500D01*
X125682288Y-81248794D01*
X125856752Y-81171118D01*
X126011253Y-81058866D01*
X126139040Y-80916944D01*
X126234527Y-80751556D01*
X126293542Y-80569928D01*
X126313504Y-80380000D01*
X126308249Y-80330000D01*
X127286496Y-80330000D01*
X127306458Y-80519928D01*
X127306459Y-80519931D01*
X127365470Y-80701549D01*
X127365473Y-80701556D01*
X127460960Y-80866944D01*
X127588747Y-81008866D01*
X127743248Y-81121118D01*
X127917712Y-81198794D01*
X128104513Y-81238500D01*
X128295487Y-81238500D01*
X128482288Y-81198794D01*
X128656752Y-81121118D01*
X128811253Y-81008866D01*
X128939040Y-80866944D01*
X129034527Y-80701556D01*
X129093542Y-80519928D01*
X129113504Y-80330000D01*
X131486496Y-80330000D01*
X131506458Y-80519928D01*
X131506459Y-80519931D01*
X131565470Y-80701549D01*
X131565473Y-80701556D01*
X131660960Y-80866944D01*
X131788747Y-81008866D01*
X131943248Y-81121118D01*
X132117712Y-81198794D01*
X132304513Y-81238500D01*
X132495487Y-81238500D01*
X132682288Y-81198794D01*
X132856752Y-81121118D01*
X133011253Y-81008866D01*
X133139040Y-80866944D01*
X133234527Y-80701556D01*
X133293542Y-80519928D01*
X133313504Y-80330000D01*
X133293542Y-80140072D01*
X133234527Y-79958444D01*
X133139040Y-79793056D01*
X133011253Y-79651134D01*
X132856752Y-79538882D01*
X132682288Y-79461206D01*
X132682286Y-79461205D01*
X132495487Y-79421500D01*
X132304513Y-79421500D01*
X132117714Y-79461205D01*
X131943246Y-79538883D01*
X131788745Y-79651135D01*
X131660959Y-79793057D01*
X131565473Y-79958443D01*
X131565470Y-79958450D01*
X131506459Y-80140068D01*
X131506458Y-80140072D01*
X131486496Y-80330000D01*
X129113504Y-80330000D01*
X129093542Y-80140072D01*
X129034527Y-79958444D01*
X128939040Y-79793056D01*
X128811253Y-79651134D01*
X128656752Y-79538882D01*
X128482288Y-79461206D01*
X128482286Y-79461205D01*
X128295487Y-79421500D01*
X128104513Y-79421500D01*
X127917714Y-79461205D01*
X127743246Y-79538883D01*
X127588745Y-79651135D01*
X127460959Y-79793057D01*
X127365473Y-79958443D01*
X127365470Y-79958450D01*
X127306459Y-80140068D01*
X127306458Y-80140072D01*
X127286496Y-80330000D01*
X126308249Y-80330000D01*
X126293542Y-80190072D01*
X126234527Y-80008444D01*
X126139040Y-79843056D01*
X126011253Y-79701134D01*
X125856752Y-79588882D01*
X125682288Y-79511206D01*
X125682286Y-79511205D01*
X125495487Y-79471500D01*
X125304513Y-79471500D01*
X125117714Y-79511205D01*
X124943246Y-79588883D01*
X124788745Y-79701135D01*
X124660959Y-79843057D01*
X124565473Y-80008443D01*
X124565470Y-80008450D01*
X124506459Y-80190068D01*
X124506458Y-80190072D01*
X124486496Y-80380000D01*
X119137869Y-80380000D01*
X119140159Y-77580000D01*
X124936496Y-77580000D01*
X124956458Y-77769928D01*
X124956459Y-77769931D01*
X125015470Y-77951549D01*
X125015473Y-77951556D01*
X125110960Y-78116944D01*
X125238747Y-78258866D01*
X125393248Y-78371118D01*
X125567712Y-78448794D01*
X125754513Y-78488500D01*
X125945487Y-78488500D01*
X126132288Y-78448794D01*
X126306752Y-78371118D01*
X126461253Y-78258866D01*
X126589040Y-78116944D01*
X126684527Y-77951556D01*
X126691531Y-77930000D01*
X131486496Y-77930000D01*
X131506458Y-78119928D01*
X131506459Y-78119931D01*
X131565470Y-78301549D01*
X131565473Y-78301556D01*
X131660960Y-78466944D01*
X131788747Y-78608866D01*
X131943248Y-78721118D01*
X132117712Y-78798794D01*
X132304513Y-78838500D01*
X132495487Y-78838500D01*
X132682288Y-78798794D01*
X132856752Y-78721118D01*
X133011253Y-78608866D01*
X133139040Y-78466944D01*
X133234527Y-78301556D01*
X133293542Y-78119928D01*
X133313504Y-77930000D01*
X133313504Y-77929996D01*
X133313504Y-77924457D01*
X133333189Y-77857418D01*
X133385993Y-77811663D01*
X133455151Y-77801719D01*
X133463285Y-77803167D01*
X133542139Y-77819928D01*
X133629513Y-77838500D01*
X133820487Y-77838500D01*
X134007288Y-77798794D01*
X134181752Y-77721118D01*
X134307165Y-77630000D01*
X138536496Y-77630000D01*
X138556458Y-77819928D01*
X138556459Y-77819931D01*
X138615470Y-78001549D01*
X138615473Y-78001556D01*
X138710960Y-78166944D01*
X138838747Y-78308866D01*
X138993248Y-78421118D01*
X139167712Y-78498794D01*
X139354513Y-78538500D01*
X139545487Y-78538500D01*
X139732288Y-78498794D01*
X139754315Y-78488986D01*
X139823562Y-78479701D01*
X139886839Y-78509329D01*
X139924054Y-78568463D01*
X139923390Y-78638330D01*
X139918029Y-78652703D01*
X139915472Y-78658445D01*
X139856459Y-78840068D01*
X139856458Y-78840072D01*
X139836496Y-79030000D01*
X139856458Y-79219928D01*
X139856459Y-79219931D01*
X139915470Y-79401549D01*
X139915473Y-79401556D01*
X140010960Y-79566944D01*
X140138747Y-79708866D01*
X140293248Y-79821118D01*
X140467712Y-79898794D01*
X140654513Y-79938500D01*
X140845487Y-79938500D01*
X141032288Y-79898794D01*
X141206752Y-79821118D01*
X141361253Y-79708866D01*
X141489040Y-79566944D01*
X141584527Y-79401556D01*
X141643542Y-79219928D01*
X141663504Y-79030000D01*
X141643542Y-78840072D01*
X141584527Y-78658444D01*
X141489040Y-78493056D01*
X141361253Y-78351134D01*
X141206752Y-78238882D01*
X141032288Y-78161206D01*
X141032286Y-78161205D01*
X140845487Y-78121500D01*
X140654513Y-78121500D01*
X140467714Y-78161205D01*
X140445682Y-78171014D01*
X140376431Y-78180297D01*
X140313156Y-78150667D01*
X140275944Y-78091531D01*
X140276611Y-78021664D01*
X140281975Y-78007285D01*
X140284522Y-78001564D01*
X140284527Y-78001556D01*
X140343542Y-77819928D01*
X140363504Y-77630000D01*
X140343542Y-77440072D01*
X140284527Y-77258444D01*
X140189040Y-77093056D01*
X140061253Y-76951134D01*
X139906752Y-76838882D01*
X139732288Y-76761206D01*
X139732286Y-76761205D01*
X139545487Y-76721500D01*
X139354513Y-76721500D01*
X139167714Y-76761205D01*
X138993246Y-76838883D01*
X138838745Y-76951135D01*
X138710959Y-77093057D01*
X138615473Y-77258443D01*
X138615470Y-77258450D01*
X138556459Y-77440068D01*
X138556458Y-77440072D01*
X138536496Y-77630000D01*
X134307165Y-77630000D01*
X134336253Y-77608866D01*
X134464040Y-77466944D01*
X134559527Y-77301556D01*
X134618542Y-77119928D01*
X134638504Y-76930000D01*
X134618542Y-76740072D01*
X134559527Y-76558444D01*
X134464040Y-76393056D01*
X134336253Y-76251134D01*
X134181752Y-76138882D01*
X134007288Y-76061206D01*
X134007286Y-76061205D01*
X133820487Y-76021500D01*
X133629513Y-76021500D01*
X133442714Y-76061205D01*
X133268246Y-76138883D01*
X133113745Y-76251135D01*
X132985959Y-76393057D01*
X132890473Y-76558443D01*
X132890470Y-76558450D01*
X132840837Y-76711206D01*
X132831458Y-76740072D01*
X132811496Y-76930000D01*
X132811496Y-76930003D01*
X132811496Y-76935542D01*
X132791811Y-77002581D01*
X132739007Y-77048336D01*
X132669849Y-77058280D01*
X132661716Y-77056832D01*
X132495488Y-77021500D01*
X132495487Y-77021500D01*
X132304513Y-77021500D01*
X132117714Y-77061205D01*
X131943246Y-77138883D01*
X131788745Y-77251135D01*
X131660959Y-77393057D01*
X131565473Y-77558443D01*
X131565470Y-77558450D01*
X131509380Y-77731078D01*
X131506458Y-77740072D01*
X131486496Y-77930000D01*
X126691531Y-77930000D01*
X126743542Y-77769928D01*
X126763504Y-77580000D01*
X126743542Y-77390072D01*
X126684527Y-77208444D01*
X126589040Y-77043056D01*
X126461253Y-76901134D01*
X126306752Y-76788882D01*
X126132288Y-76711206D01*
X126132286Y-76711205D01*
X125945487Y-76671500D01*
X125754513Y-76671500D01*
X125567714Y-76711205D01*
X125393246Y-76788883D01*
X125238745Y-76901135D01*
X125110959Y-77043057D01*
X125015473Y-77208443D01*
X125015470Y-77208450D01*
X124956459Y-77390068D01*
X124956458Y-77390072D01*
X124936496Y-77580000D01*
X119140159Y-77580000D01*
X119142899Y-74230000D01*
X135086496Y-74230000D01*
X135106458Y-74419928D01*
X135106459Y-74419931D01*
X135165470Y-74601549D01*
X135165473Y-74601556D01*
X135260960Y-74766944D01*
X135388747Y-74908866D01*
X135543248Y-75021118D01*
X135717712Y-75098794D01*
X135904513Y-75138500D01*
X136095487Y-75138500D01*
X136282288Y-75098794D01*
X136456752Y-75021118D01*
X136611253Y-74908866D01*
X136739040Y-74766944D01*
X136834527Y-74601556D01*
X136893542Y-74419928D01*
X136913504Y-74230000D01*
X136893542Y-74040072D01*
X136834527Y-73858444D01*
X136739040Y-73693056D01*
X136611253Y-73551134D01*
X136456752Y-73438882D01*
X136282288Y-73361206D01*
X136282286Y-73361205D01*
X136095487Y-73321500D01*
X135904513Y-73321500D01*
X135717714Y-73361205D01*
X135543246Y-73438883D01*
X135388745Y-73551135D01*
X135260959Y-73693057D01*
X135165473Y-73858443D01*
X135165470Y-73858450D01*
X135106459Y-74040068D01*
X135106458Y-74040072D01*
X135086496Y-74230000D01*
X119142899Y-74230000D01*
X119145721Y-70780000D01*
X125136496Y-70780000D01*
X125156458Y-70969928D01*
X125156459Y-70969931D01*
X125215470Y-71151549D01*
X125215473Y-71151556D01*
X125310960Y-71316944D01*
X125438747Y-71458866D01*
X125593248Y-71571118D01*
X125767712Y-71648794D01*
X125954513Y-71688500D01*
X126145487Y-71688500D01*
X126332288Y-71648794D01*
X126506752Y-71571118D01*
X126661253Y-71458866D01*
X126789040Y-71316944D01*
X126884527Y-71151556D01*
X126943542Y-70969928D01*
X126958249Y-70830000D01*
X132236496Y-70830000D01*
X132256458Y-71019928D01*
X132256459Y-71019931D01*
X132315470Y-71201549D01*
X132315473Y-71201556D01*
X132410960Y-71366944D01*
X132538747Y-71508866D01*
X132693248Y-71621118D01*
X132867712Y-71698794D01*
X133054513Y-71738500D01*
X133245487Y-71738500D01*
X133432288Y-71698794D01*
X133606752Y-71621118D01*
X133761253Y-71508866D01*
X133889040Y-71366944D01*
X133984527Y-71201556D01*
X134043542Y-71019928D01*
X134063504Y-70830000D01*
X139186496Y-70830000D01*
X139206458Y-71019928D01*
X139206459Y-71019931D01*
X139265470Y-71201549D01*
X139265473Y-71201556D01*
X139360960Y-71366944D01*
X139488747Y-71508866D01*
X139643248Y-71621118D01*
X139817712Y-71698794D01*
X140004513Y-71738500D01*
X140195487Y-71738500D01*
X140382288Y-71698794D01*
X140556752Y-71621118D01*
X140711253Y-71508866D01*
X140839040Y-71366944D01*
X140934527Y-71201556D01*
X140993542Y-71019928D01*
X141013504Y-70830000D01*
X140993542Y-70640072D01*
X140934527Y-70458444D01*
X140839040Y-70293056D01*
X140711253Y-70151134D01*
X140556752Y-70038882D01*
X140382288Y-69961206D01*
X140382286Y-69961205D01*
X140195487Y-69921500D01*
X140004513Y-69921500D01*
X139817714Y-69961205D01*
X139643246Y-70038883D01*
X139488745Y-70151135D01*
X139360959Y-70293057D01*
X139265473Y-70458443D01*
X139265470Y-70458450D01*
X139222705Y-70590068D01*
X139206458Y-70640072D01*
X139186496Y-70830000D01*
X134063504Y-70830000D01*
X134043542Y-70640072D01*
X133984527Y-70458444D01*
X133889040Y-70293056D01*
X133761253Y-70151134D01*
X133606752Y-70038882D01*
X133432288Y-69961206D01*
X133432286Y-69961205D01*
X133245487Y-69921500D01*
X133054513Y-69921500D01*
X132867714Y-69961205D01*
X132693246Y-70038883D01*
X132538745Y-70151135D01*
X132410959Y-70293057D01*
X132315473Y-70458443D01*
X132315470Y-70458450D01*
X132272705Y-70590068D01*
X132256458Y-70640072D01*
X132236496Y-70830000D01*
X126958249Y-70830000D01*
X126963504Y-70780000D01*
X126943542Y-70590072D01*
X126884527Y-70408444D01*
X126789040Y-70243056D01*
X126661253Y-70101134D01*
X126506752Y-69988882D01*
X126332288Y-69911206D01*
X126332286Y-69911205D01*
X126145487Y-69871500D01*
X125954513Y-69871500D01*
X125767714Y-69911205D01*
X125593246Y-69988883D01*
X125438745Y-70101135D01*
X125310959Y-70243057D01*
X125215473Y-70408443D01*
X125215470Y-70408450D01*
X125156459Y-70590068D01*
X125156458Y-70590072D01*
X125136496Y-70780000D01*
X119145721Y-70780000D01*
X119151690Y-63482822D01*
X119151829Y-63477080D01*
X119159654Y-63312751D01*
X119160884Y-63300275D01*
X119210431Y-62970134D01*
X119213372Y-62956123D01*
X119300452Y-62634778D01*
X119304987Y-62621204D01*
X119428573Y-62312045D01*
X119434639Y-62299096D01*
X119593078Y-62006265D01*
X119600607Y-61994087D01*
X119791783Y-61721495D01*
X119800661Y-61710276D01*
X120022022Y-61461563D01*
X120032123Y-61451456D01*
X120280715Y-61229944D01*
X120291932Y-61221058D01*
X120415060Y-61134598D01*
X120564394Y-61029738D01*
X120576581Y-61022192D01*
X120603024Y-61007865D01*
X120869311Y-60863587D01*
X120882271Y-60857507D01*
X121191335Y-60733750D01*
X121204926Y-60729201D01*
X121348565Y-60690186D01*
X121526220Y-60641933D01*
X121540223Y-60638986D01*
X121870307Y-60589251D01*
X121882840Y-60588010D01*
X122047039Y-60580141D01*
X122052968Y-60580000D01*
X122261843Y-60580007D01*
G37*
%TD.AperFunction*%
%TD*%
%TA.AperFunction,Conductor*%
%TO.N,+BATT 3*%
G36*
X133898245Y-94457247D02*
G01*
X133948470Y-94467965D01*
X134017712Y-94498794D01*
X134204513Y-94538500D01*
X134395487Y-94538500D01*
X134582288Y-94498794D01*
X134648638Y-94469252D01*
X134699259Y-94458535D01*
X136980303Y-94462202D01*
X137047309Y-94481994D01*
X137092979Y-94534872D01*
X137098033Y-94547883D01*
X137115471Y-94601552D01*
X137115473Y-94601556D01*
X137210960Y-94766944D01*
X137338747Y-94908866D01*
X137493248Y-95021118D01*
X137667712Y-95098794D01*
X137854513Y-95138500D01*
X138045487Y-95138500D01*
X138232288Y-95098794D01*
X138406752Y-95021118D01*
X138561253Y-94908866D01*
X138689040Y-94766944D01*
X138784527Y-94601556D01*
X138800953Y-94551001D01*
X138840389Y-94493326D01*
X138904748Y-94466127D01*
X138919069Y-94465319D01*
X140697105Y-94468178D01*
X140764109Y-94487969D01*
X140783755Y-94504695D01*
X140783917Y-94504517D01*
X140788744Y-94508863D01*
X140788747Y-94508866D01*
X140943248Y-94621118D01*
X141117712Y-94698794D01*
X141304513Y-94738500D01*
X141495487Y-94738500D01*
X141682288Y-94698794D01*
X141856752Y-94621118D01*
X141953258Y-94551002D01*
X142011252Y-94508867D01*
X142016079Y-94504521D01*
X142017549Y-94506154D01*
X142068350Y-94474827D01*
X142101248Y-94470435D01*
X146642703Y-94477737D01*
X146709707Y-94497528D01*
X146755377Y-94550406D01*
X146766500Y-94601736D01*
X146766500Y-118675978D01*
X146746815Y-118743017D01*
X146694011Y-118788772D01*
X146624853Y-118798716D01*
X146616720Y-118797268D01*
X146495488Y-118771500D01*
X146495487Y-118771500D01*
X146304513Y-118771500D01*
X146117714Y-118811205D01*
X145943246Y-118888883D01*
X145788745Y-119001135D01*
X145660959Y-119143057D01*
X145565473Y-119308443D01*
X145565470Y-119308450D01*
X145506459Y-119490068D01*
X145506458Y-119490072D01*
X145486496Y-119680000D01*
X145506458Y-119869928D01*
X145506459Y-119869931D01*
X145565470Y-120051549D01*
X145565473Y-120051556D01*
X145660960Y-120216944D01*
X145788747Y-120358866D01*
X145943248Y-120471118D01*
X146117712Y-120548794D01*
X146304513Y-120588500D01*
X146495484Y-120588500D01*
X146495487Y-120588500D01*
X146530633Y-120581029D01*
X146600297Y-120586344D01*
X146656032Y-120628480D01*
X146680138Y-120694060D01*
X146664962Y-120762262D01*
X146644094Y-120790000D01*
X145121927Y-122312167D01*
X145060604Y-122345652D01*
X145035046Y-122348483D01*
X119228308Y-122514978D01*
X119161143Y-122495727D01*
X119115048Y-122443219D01*
X119103508Y-122390880D01*
X119103573Y-122312167D01*
X119105726Y-119680000D01*
X125286496Y-119680000D01*
X125306458Y-119869928D01*
X125306459Y-119869931D01*
X125365470Y-120051549D01*
X125365473Y-120051556D01*
X125460960Y-120216944D01*
X125588747Y-120358866D01*
X125743248Y-120471118D01*
X125917712Y-120548794D01*
X126104513Y-120588500D01*
X126295487Y-120588500D01*
X126482288Y-120548794D01*
X126656752Y-120471118D01*
X126811253Y-120358866D01*
X126939040Y-120216944D01*
X127034527Y-120051556D01*
X127090269Y-119880000D01*
X131386496Y-119880000D01*
X131406458Y-120069928D01*
X131406459Y-120069931D01*
X131465470Y-120251549D01*
X131465473Y-120251556D01*
X131560960Y-120416944D01*
X131688747Y-120558866D01*
X131843248Y-120671118D01*
X132017712Y-120748794D01*
X132204513Y-120788500D01*
X132395487Y-120788500D01*
X132582288Y-120748794D01*
X132756752Y-120671118D01*
X132911253Y-120558866D01*
X133039040Y-120416944D01*
X133134527Y-120251556D01*
X133193542Y-120069928D01*
X133213504Y-119880000D01*
X133193542Y-119690072D01*
X133190269Y-119680000D01*
X139686496Y-119680000D01*
X139706458Y-119869928D01*
X139706459Y-119869931D01*
X139765470Y-120051549D01*
X139765473Y-120051556D01*
X139860960Y-120216944D01*
X139988747Y-120358866D01*
X140143248Y-120471118D01*
X140317712Y-120548794D01*
X140504513Y-120588500D01*
X140695487Y-120588500D01*
X140882288Y-120548794D01*
X141056752Y-120471118D01*
X141211253Y-120358866D01*
X141339040Y-120216944D01*
X141434527Y-120051556D01*
X141493542Y-119869928D01*
X141513504Y-119680000D01*
X141493542Y-119490072D01*
X141434527Y-119308444D01*
X141339040Y-119143056D01*
X141211253Y-119001134D01*
X141056752Y-118888882D01*
X140882288Y-118811206D01*
X140882286Y-118811205D01*
X140695487Y-118771500D01*
X140504513Y-118771500D01*
X140317714Y-118811205D01*
X140143246Y-118888883D01*
X139988745Y-119001135D01*
X139860959Y-119143057D01*
X139765473Y-119308443D01*
X139765470Y-119308450D01*
X139706459Y-119490068D01*
X139706458Y-119490072D01*
X139686496Y-119680000D01*
X133190269Y-119680000D01*
X133134527Y-119508444D01*
X133039040Y-119343056D01*
X132911253Y-119201134D01*
X132756752Y-119088882D01*
X132582288Y-119011206D01*
X132582286Y-119011205D01*
X132395487Y-118971500D01*
X132204513Y-118971500D01*
X132017714Y-119011205D01*
X131843246Y-119088883D01*
X131688745Y-119201135D01*
X131560959Y-119343057D01*
X131465473Y-119508443D01*
X131465470Y-119508450D01*
X131406459Y-119690068D01*
X131406458Y-119690072D01*
X131386496Y-119880000D01*
X127090269Y-119880000D01*
X127093542Y-119869928D01*
X127113504Y-119680000D01*
X127093542Y-119490072D01*
X127034527Y-119308444D01*
X126939040Y-119143056D01*
X126811253Y-119001134D01*
X126656752Y-118888882D01*
X126482288Y-118811206D01*
X126482286Y-118811205D01*
X126295487Y-118771500D01*
X126104513Y-118771500D01*
X125917714Y-118811205D01*
X125743246Y-118888883D01*
X125588745Y-119001135D01*
X125460959Y-119143057D01*
X125365473Y-119308443D01*
X125365470Y-119308450D01*
X125306459Y-119490068D01*
X125306458Y-119490072D01*
X125286496Y-119680000D01*
X119105726Y-119680000D01*
X119110797Y-113480000D01*
X125186496Y-113480000D01*
X125206458Y-113669928D01*
X125206459Y-113669931D01*
X125265470Y-113851549D01*
X125265473Y-113851556D01*
X125360960Y-114016944D01*
X125423169Y-114086034D01*
X125474512Y-114143057D01*
X125488747Y-114158866D01*
X125643248Y-114271118D01*
X125817712Y-114348794D01*
X126004513Y-114388500D01*
X126195487Y-114388500D01*
X126382288Y-114348794D01*
X126556752Y-114271118D01*
X126682165Y-114180000D01*
X131536496Y-114180000D01*
X131556458Y-114369928D01*
X131556459Y-114369931D01*
X131615470Y-114551549D01*
X131615473Y-114551556D01*
X131710960Y-114716944D01*
X131838747Y-114858866D01*
X131993248Y-114971118D01*
X132167712Y-115048794D01*
X132354513Y-115088500D01*
X132545487Y-115088500D01*
X132732288Y-115048794D01*
X132906752Y-114971118D01*
X133061253Y-114858866D01*
X133189040Y-114716944D01*
X133284527Y-114551556D01*
X133343542Y-114369928D01*
X133363504Y-114180000D01*
X139836496Y-114180000D01*
X139856458Y-114369928D01*
X139856459Y-114369931D01*
X139915470Y-114551549D01*
X139915473Y-114551556D01*
X140010960Y-114716944D01*
X140138747Y-114858866D01*
X140293248Y-114971118D01*
X140467712Y-115048794D01*
X140654513Y-115088500D01*
X140845487Y-115088500D01*
X140972303Y-115061544D01*
X141041970Y-115066860D01*
X141097703Y-115108997D01*
X141105468Y-115120830D01*
X141160960Y-115216944D01*
X141288747Y-115358866D01*
X141443248Y-115471118D01*
X141617712Y-115548794D01*
X141804513Y-115588500D01*
X141995487Y-115588500D01*
X142182288Y-115548794D01*
X142356752Y-115471118D01*
X142511253Y-115358866D01*
X142639040Y-115216944D01*
X142734527Y-115051556D01*
X142793542Y-114869928D01*
X142813504Y-114680000D01*
X142793542Y-114490072D01*
X142734527Y-114308444D01*
X142639040Y-114143056D01*
X142511253Y-114001134D01*
X142356752Y-113888882D01*
X142182288Y-113811206D01*
X142182286Y-113811205D01*
X141995487Y-113771500D01*
X141804513Y-113771500D01*
X141677697Y-113798455D01*
X141608029Y-113793139D01*
X141552296Y-113751002D01*
X141544529Y-113739165D01*
X141504556Y-113669931D01*
X141489040Y-113643056D01*
X141361253Y-113501134D01*
X141283668Y-113444765D01*
X141241004Y-113389436D01*
X141235025Y-113319822D01*
X141267631Y-113258027D01*
X141328470Y-113223670D01*
X141382335Y-113223158D01*
X141454513Y-113238500D01*
X141645487Y-113238500D01*
X141832288Y-113198794D01*
X142006752Y-113121118D01*
X142161253Y-113008866D01*
X142289040Y-112866944D01*
X142384527Y-112701556D01*
X142443542Y-112519928D01*
X142463504Y-112330000D01*
X142443542Y-112140072D01*
X142384527Y-111958444D01*
X142289040Y-111793056D01*
X142161253Y-111651134D01*
X142006752Y-111538882D01*
X142006751Y-111538881D01*
X141975238Y-111524851D01*
X141922001Y-111479601D01*
X141901680Y-111412752D01*
X141920725Y-111345528D01*
X141933515Y-111328610D01*
X141989040Y-111266944D01*
X142084527Y-111101556D01*
X142143542Y-110919928D01*
X142163504Y-110730000D01*
X142143542Y-110540072D01*
X142084527Y-110358444D01*
X141989040Y-110193056D01*
X141861253Y-110051134D01*
X141706752Y-109938882D01*
X141532288Y-109861206D01*
X141532286Y-109861205D01*
X141345487Y-109821500D01*
X141154513Y-109821500D01*
X140967714Y-109861205D01*
X140793246Y-109938883D01*
X140638745Y-110051135D01*
X140510959Y-110193057D01*
X140415473Y-110358443D01*
X140415470Y-110358450D01*
X140356459Y-110540068D01*
X140356458Y-110540072D01*
X140336496Y-110730000D01*
X140356458Y-110919928D01*
X140356459Y-110919931D01*
X140415470Y-111101549D01*
X140415473Y-111101556D01*
X140510960Y-111266944D01*
X140638747Y-111408866D01*
X140793248Y-111521118D01*
X140824760Y-111535148D01*
X140877997Y-111580397D01*
X140898319Y-111647246D01*
X140879274Y-111714469D01*
X140866476Y-111731398D01*
X140810959Y-111793057D01*
X140715473Y-111958443D01*
X140715470Y-111958450D01*
X140656459Y-112140068D01*
X140656458Y-112140072D01*
X140636496Y-112330000D01*
X140656458Y-112519928D01*
X140656459Y-112519931D01*
X140715470Y-112701549D01*
X140715473Y-112701556D01*
X140810960Y-112866944D01*
X140938747Y-113008866D01*
X141016331Y-113065234D01*
X141058995Y-113120563D01*
X141064974Y-113190176D01*
X141032368Y-113251971D01*
X140971529Y-113286329D01*
X140917664Y-113286841D01*
X140845488Y-113271500D01*
X140845487Y-113271500D01*
X140654513Y-113271500D01*
X140467714Y-113311205D01*
X140293246Y-113388883D01*
X140138745Y-113501135D01*
X140010959Y-113643057D01*
X139915473Y-113808443D01*
X139915470Y-113808450D01*
X139856459Y-113990068D01*
X139856458Y-113990072D01*
X139836496Y-114180000D01*
X133363504Y-114180000D01*
X133343542Y-113990072D01*
X133284527Y-113808444D01*
X133189040Y-113643056D01*
X133061253Y-113501134D01*
X132906752Y-113388882D01*
X132732288Y-113311206D01*
X132732286Y-113311205D01*
X132545487Y-113271500D01*
X132354513Y-113271500D01*
X132167714Y-113311205D01*
X131993246Y-113388883D01*
X131838745Y-113501135D01*
X131710959Y-113643057D01*
X131615473Y-113808443D01*
X131615470Y-113808450D01*
X131556459Y-113990068D01*
X131556458Y-113990072D01*
X131536496Y-114180000D01*
X126682165Y-114180000D01*
X126711253Y-114158866D01*
X126839040Y-114016944D01*
X126934527Y-113851556D01*
X126993542Y-113669928D01*
X127013504Y-113480000D01*
X126993542Y-113290072D01*
X126934527Y-113108444D01*
X126839040Y-112943056D01*
X126711253Y-112801134D01*
X126620656Y-112735311D01*
X126577992Y-112679982D01*
X126572013Y-112610368D01*
X126604619Y-112548573D01*
X126643102Y-112521717D01*
X126756752Y-112471118D01*
X126911253Y-112358866D01*
X127039040Y-112216944D01*
X127134527Y-112051556D01*
X127193542Y-111869928D01*
X127213504Y-111680000D01*
X127193542Y-111490072D01*
X127134527Y-111308444D01*
X127039040Y-111143056D01*
X126911253Y-111001134D01*
X126756752Y-110888882D01*
X126582288Y-110811206D01*
X126582286Y-110811205D01*
X126395487Y-110771500D01*
X126204513Y-110771500D01*
X126017714Y-110811205D01*
X125843246Y-110888883D01*
X125688745Y-111001135D01*
X125560959Y-111143057D01*
X125465473Y-111308443D01*
X125465470Y-111308450D01*
X125418139Y-111454122D01*
X125406458Y-111490072D01*
X125386496Y-111680000D01*
X125406458Y-111869928D01*
X125406459Y-111869931D01*
X125465470Y-112051549D01*
X125465473Y-112051556D01*
X125560960Y-112216944D01*
X125688747Y-112358866D01*
X125779342Y-112424687D01*
X125822007Y-112480017D01*
X125827986Y-112549631D01*
X125795380Y-112611426D01*
X125756892Y-112638284D01*
X125643248Y-112688881D01*
X125488745Y-112801135D01*
X125360959Y-112943057D01*
X125265473Y-113108443D01*
X125265470Y-113108450D01*
X125216870Y-113258027D01*
X125206458Y-113290072D01*
X125186496Y-113480000D01*
X119110797Y-113480000D01*
X119111298Y-112866942D01*
X119113250Y-110480000D01*
X133386496Y-110480000D01*
X133406458Y-110669928D01*
X133406459Y-110669931D01*
X133465470Y-110851549D01*
X133465473Y-110851556D01*
X133560960Y-111016944D01*
X133657322Y-111123965D01*
X133687728Y-111157735D01*
X133688747Y-111158866D01*
X133843248Y-111271118D01*
X134017712Y-111348794D01*
X134204513Y-111388500D01*
X134395487Y-111388500D01*
X134582288Y-111348794D01*
X134756752Y-111271118D01*
X134911253Y-111158866D01*
X135039040Y-111016944D01*
X135134527Y-110851556D01*
X135193542Y-110669928D01*
X135213504Y-110480000D01*
X135193542Y-110290072D01*
X135134527Y-110108444D01*
X135039040Y-109943056D01*
X134911253Y-109801134D01*
X134756752Y-109688882D01*
X134582288Y-109611206D01*
X134582286Y-109611205D01*
X134395487Y-109571500D01*
X134204513Y-109571500D01*
X134017714Y-109611205D01*
X133843246Y-109688883D01*
X133688745Y-109801135D01*
X133560959Y-109943057D01*
X133465473Y-110108443D01*
X133465470Y-110108450D01*
X133437980Y-110193057D01*
X133406458Y-110290072D01*
X133386496Y-110480000D01*
X119113250Y-110480000D01*
X119116726Y-106230000D01*
X125436496Y-106230000D01*
X125456458Y-106419928D01*
X125456459Y-106419931D01*
X125515470Y-106601549D01*
X125515473Y-106601556D01*
X125610960Y-106766944D01*
X125738747Y-106908866D01*
X125893248Y-107021118D01*
X126067712Y-107098794D01*
X126254513Y-107138500D01*
X126445487Y-107138500D01*
X126632288Y-107098794D01*
X126806752Y-107021118D01*
X126961253Y-106908866D01*
X127089040Y-106766944D01*
X127184527Y-106601556D01*
X127243542Y-106419928D01*
X127263504Y-106230000D01*
X127243542Y-106040072D01*
X127184664Y-105858866D01*
X127184529Y-105858450D01*
X127184528Y-105858449D01*
X127184527Y-105858444D01*
X127089040Y-105693056D01*
X126961253Y-105551134D01*
X126806752Y-105438882D01*
X126632288Y-105361206D01*
X126632286Y-105361205D01*
X126445487Y-105321500D01*
X126254513Y-105321500D01*
X126067714Y-105361205D01*
X126067712Y-105361206D01*
X125913198Y-105430000D01*
X125893246Y-105438883D01*
X125738745Y-105551135D01*
X125610959Y-105693057D01*
X125515473Y-105858443D01*
X125515470Y-105858450D01*
X125456459Y-106040068D01*
X125456458Y-106040072D01*
X125436496Y-106230000D01*
X119116726Y-106230000D01*
X119117585Y-105180000D01*
X138886496Y-105180000D01*
X138906458Y-105369928D01*
X138906459Y-105369931D01*
X138965470Y-105551549D01*
X138965473Y-105551556D01*
X139060960Y-105716944D01*
X139157322Y-105823965D01*
X139187728Y-105857735D01*
X139188747Y-105858866D01*
X139343248Y-105971118D01*
X139517712Y-106048794D01*
X139704513Y-106088500D01*
X139895487Y-106088500D01*
X140082288Y-106048794D01*
X140256752Y-105971118D01*
X140411253Y-105858866D01*
X140539040Y-105716944D01*
X140634527Y-105551556D01*
X140693542Y-105369928D01*
X140713504Y-105180000D01*
X140693542Y-104990072D01*
X140634527Y-104808444D01*
X140602696Y-104753312D01*
X140586224Y-104685412D01*
X140609077Y-104619386D01*
X140663998Y-104576195D01*
X140733551Y-104569554D01*
X140782966Y-104590993D01*
X140893248Y-104671118D01*
X141067712Y-104748794D01*
X141254513Y-104788500D01*
X141445487Y-104788500D01*
X141632288Y-104748794D01*
X141806752Y-104671118D01*
X141961253Y-104558866D01*
X142089040Y-104416944D01*
X142184527Y-104251556D01*
X142243542Y-104069928D01*
X142263504Y-103880000D01*
X142243542Y-103690072D01*
X142184527Y-103508444D01*
X142089040Y-103343056D01*
X141961253Y-103201134D01*
X141806752Y-103088882D01*
X141632288Y-103011206D01*
X141632286Y-103011205D01*
X141445487Y-102971500D01*
X141254513Y-102971500D01*
X141067714Y-103011205D01*
X140893246Y-103088883D01*
X140738745Y-103201135D01*
X140610959Y-103343057D01*
X140515473Y-103508443D01*
X140515470Y-103508450D01*
X140456459Y-103690068D01*
X140456458Y-103690072D01*
X140436496Y-103880000D01*
X140456458Y-104069928D01*
X140456459Y-104069931D01*
X140515470Y-104251549D01*
X140515472Y-104251553D01*
X140515473Y-104251556D01*
X140526988Y-104271500D01*
X140547303Y-104306687D01*
X140563775Y-104374587D01*
X140540922Y-104440614D01*
X140486000Y-104483804D01*
X140416447Y-104490445D01*
X140367031Y-104469005D01*
X140256752Y-104388882D01*
X140082288Y-104311206D01*
X140082286Y-104311205D01*
X139895487Y-104271500D01*
X139704513Y-104271500D01*
X139517714Y-104311205D01*
X139343246Y-104388883D01*
X139188745Y-104501135D01*
X139060959Y-104643057D01*
X138965473Y-104808443D01*
X138965470Y-104808450D01*
X138906459Y-104990068D01*
X138906458Y-104990072D01*
X138886496Y-105180000D01*
X119117585Y-105180000D01*
X119118525Y-104030000D01*
X133286496Y-104030000D01*
X133306458Y-104219928D01*
X133306459Y-104219931D01*
X133365470Y-104401549D01*
X133365473Y-104401556D01*
X133460960Y-104566944D01*
X133588747Y-104708866D01*
X133743248Y-104821118D01*
X133917712Y-104898794D01*
X134104513Y-104938500D01*
X134295487Y-104938500D01*
X134482288Y-104898794D01*
X134656752Y-104821118D01*
X134811253Y-104708866D01*
X134939040Y-104566944D01*
X135034527Y-104401556D01*
X135093542Y-104219928D01*
X135113504Y-104030000D01*
X135093542Y-103840072D01*
X135034527Y-103658444D01*
X134939040Y-103493056D01*
X134811253Y-103351134D01*
X134656752Y-103238882D01*
X134482288Y-103161206D01*
X134482286Y-103161205D01*
X134295487Y-103121500D01*
X134104513Y-103121500D01*
X133917714Y-103161205D01*
X133743246Y-103238883D01*
X133588745Y-103351135D01*
X133460959Y-103493057D01*
X133365473Y-103658443D01*
X133365470Y-103658450D01*
X133306459Y-103840068D01*
X133306458Y-103840072D01*
X133286496Y-104030000D01*
X119118525Y-104030000D01*
X119120897Y-101130000D01*
X128836496Y-101130000D01*
X128856458Y-101319928D01*
X128856459Y-101319931D01*
X128915470Y-101501549D01*
X128915473Y-101501556D01*
X129010960Y-101666944D01*
X129138747Y-101808866D01*
X129293248Y-101921118D01*
X129467712Y-101998794D01*
X129654513Y-102038500D01*
X129839909Y-102038500D01*
X129906948Y-102058185D01*
X129952703Y-102110989D01*
X129957840Y-102124182D01*
X130015470Y-102301549D01*
X130015473Y-102301556D01*
X130110960Y-102466944D01*
X130238747Y-102608866D01*
X130393248Y-102721118D01*
X130567712Y-102798794D01*
X130754513Y-102838500D01*
X130945487Y-102838500D01*
X131132288Y-102798794D01*
X131306752Y-102721118D01*
X131461253Y-102608866D01*
X131589040Y-102466944D01*
X131684527Y-102301556D01*
X131743542Y-102119928D01*
X131763504Y-101930000D01*
X131743542Y-101740072D01*
X131684527Y-101558444D01*
X131610370Y-101430000D01*
X144186496Y-101430000D01*
X144206458Y-101619928D01*
X144206459Y-101619931D01*
X144265470Y-101801549D01*
X144265473Y-101801556D01*
X144360960Y-101966944D01*
X144488747Y-102108866D01*
X144643248Y-102221118D01*
X144817712Y-102298794D01*
X145004513Y-102338500D01*
X145195487Y-102338500D01*
X145382288Y-102298794D01*
X145556752Y-102221118D01*
X145711253Y-102108866D01*
X145839040Y-101966944D01*
X145934527Y-101801556D01*
X145993542Y-101619928D01*
X146013504Y-101430000D01*
X145993542Y-101240072D01*
X145934527Y-101058444D01*
X145839040Y-100893056D01*
X145711253Y-100751134D01*
X145556752Y-100638882D01*
X145382288Y-100561206D01*
X145382286Y-100561205D01*
X145195487Y-100521500D01*
X145004513Y-100521500D01*
X144817714Y-100561205D01*
X144643246Y-100638883D01*
X144488745Y-100751135D01*
X144360959Y-100893057D01*
X144265473Y-101058443D01*
X144265470Y-101058450D01*
X144206459Y-101240068D01*
X144206458Y-101240072D01*
X144186496Y-101430000D01*
X131610370Y-101430000D01*
X131589040Y-101393056D01*
X131461253Y-101251134D01*
X131306752Y-101138882D01*
X131132288Y-101061206D01*
X131132286Y-101061205D01*
X130945487Y-101021500D01*
X130760091Y-101021500D01*
X130693052Y-101001815D01*
X130647297Y-100949011D01*
X130642160Y-100935818D01*
X130584529Y-100758450D01*
X130584528Y-100758449D01*
X130584527Y-100758444D01*
X130489040Y-100593056D01*
X130361253Y-100451134D01*
X130206752Y-100338882D01*
X130032288Y-100261206D01*
X130032286Y-100261205D01*
X129845487Y-100221500D01*
X129654513Y-100221500D01*
X129467714Y-100261205D01*
X129293246Y-100338883D01*
X129138745Y-100451135D01*
X129010959Y-100593057D01*
X128915473Y-100758443D01*
X128915470Y-100758450D01*
X128871734Y-100893057D01*
X128856458Y-100940072D01*
X128836496Y-101130000D01*
X119120897Y-101130000D01*
X119122165Y-99580000D01*
X131536496Y-99580000D01*
X131556458Y-99769928D01*
X131556459Y-99769931D01*
X131615470Y-99951549D01*
X131615473Y-99951556D01*
X131710960Y-100116944D01*
X131838747Y-100258866D01*
X131993248Y-100371118D01*
X132167712Y-100448794D01*
X132354513Y-100488500D01*
X132545487Y-100488500D01*
X132732288Y-100448794D01*
X132906752Y-100371118D01*
X133061253Y-100258866D01*
X133189040Y-100116944D01*
X133284527Y-99951556D01*
X133343542Y-99769928D01*
X133363504Y-99580000D01*
X138836496Y-99580000D01*
X138856458Y-99769928D01*
X138856459Y-99769931D01*
X138915470Y-99951549D01*
X138915473Y-99951556D01*
X139010960Y-100116944D01*
X139138747Y-100258866D01*
X139293248Y-100371118D01*
X139467712Y-100448794D01*
X139654513Y-100488500D01*
X139845487Y-100488500D01*
X140032288Y-100448794D01*
X140206752Y-100371118D01*
X140361253Y-100258866D01*
X140489040Y-100116944D01*
X140584527Y-99951556D01*
X140643542Y-99769928D01*
X140663504Y-99580000D01*
X140643542Y-99390072D01*
X140584527Y-99208444D01*
X140489040Y-99043056D01*
X140361253Y-98901134D01*
X140206752Y-98788882D01*
X140032288Y-98711206D01*
X140032286Y-98711205D01*
X139845487Y-98671500D01*
X139654513Y-98671500D01*
X139467714Y-98711205D01*
X139293246Y-98788883D01*
X139138745Y-98901135D01*
X139010959Y-99043057D01*
X138915473Y-99208443D01*
X138915470Y-99208450D01*
X138866766Y-99358347D01*
X138856458Y-99390072D01*
X138836496Y-99580000D01*
X133363504Y-99580000D01*
X133343542Y-99390072D01*
X133284527Y-99208444D01*
X133189040Y-99043056D01*
X133061253Y-98901134D01*
X132906752Y-98788882D01*
X132732288Y-98711206D01*
X132732286Y-98711205D01*
X132545487Y-98671500D01*
X132354513Y-98671500D01*
X132167714Y-98711205D01*
X131993246Y-98788883D01*
X131838745Y-98901135D01*
X131710959Y-99043057D01*
X131615473Y-99208443D01*
X131615470Y-99208450D01*
X131566766Y-99358347D01*
X131556458Y-99390072D01*
X131536496Y-99580000D01*
X119122165Y-99580000D01*
X119123474Y-97980000D01*
X125186496Y-97980000D01*
X125206458Y-98169928D01*
X125206459Y-98169931D01*
X125265470Y-98351549D01*
X125265473Y-98351556D01*
X125360960Y-98516944D01*
X125488747Y-98658866D01*
X125643248Y-98771118D01*
X125817712Y-98848794D01*
X126004513Y-98888500D01*
X126195487Y-98888500D01*
X126382288Y-98848794D01*
X126556752Y-98771118D01*
X126711253Y-98658866D01*
X126839040Y-98516944D01*
X126934527Y-98351556D01*
X126993542Y-98169928D01*
X127013504Y-97980000D01*
X126993542Y-97790072D01*
X126934527Y-97608444D01*
X126839040Y-97443056D01*
X126711253Y-97301134D01*
X126556752Y-97188882D01*
X126382288Y-97111206D01*
X126382286Y-97111205D01*
X126195487Y-97071500D01*
X126004513Y-97071500D01*
X125817714Y-97111205D01*
X125643246Y-97188883D01*
X125488745Y-97301135D01*
X125360959Y-97443057D01*
X125265473Y-97608443D01*
X125265470Y-97608450D01*
X125206459Y-97790068D01*
X125206458Y-97790072D01*
X125186496Y-97980000D01*
X119123474Y-97980000D01*
X119125028Y-96080000D01*
X128136496Y-96080000D01*
X128156458Y-96269928D01*
X128156459Y-96269931D01*
X128215470Y-96451549D01*
X128215473Y-96451556D01*
X128310960Y-96616944D01*
X128438747Y-96758866D01*
X128593248Y-96871118D01*
X128767712Y-96948794D01*
X128954513Y-96988500D01*
X129145487Y-96988500D01*
X129332288Y-96948794D01*
X129506752Y-96871118D01*
X129661253Y-96758866D01*
X129789040Y-96616944D01*
X129884527Y-96451556D01*
X129943542Y-96269928D01*
X129963504Y-96080000D01*
X129943542Y-95890072D01*
X129884527Y-95708444D01*
X129789040Y-95543056D01*
X129661253Y-95401134D01*
X129506752Y-95288882D01*
X129332288Y-95211206D01*
X129332286Y-95211205D01*
X129145487Y-95171500D01*
X128954513Y-95171500D01*
X128767714Y-95211205D01*
X128593246Y-95288883D01*
X128438745Y-95401135D01*
X128310959Y-95543057D01*
X128215473Y-95708443D01*
X128215470Y-95708450D01*
X128156459Y-95890068D01*
X128156458Y-95890072D01*
X128136496Y-96080000D01*
X119125028Y-96080000D01*
X119126273Y-94557596D01*
X119146012Y-94490572D01*
X119198854Y-94444861D01*
X119250469Y-94433697D01*
X133898245Y-94457247D01*
G37*
%TD.AperFunction*%
%TD*%
M02*
