%TF.GenerationSoftware,KiCad,Pcbnew,8.0.5*%
%TF.CreationDate,2025-09-21T17:17:35-10:00*%
%TF.ProjectId,SiPMT.revA,5369504d-542e-4726-9576-412e6b696361,rev?*%
%TF.SameCoordinates,Original*%
%TF.FileFunction,Legend,Bot*%
%TF.FilePolarity,Positive*%
%FSLAX46Y46*%
G04 Gerber Fmt 4.6, Leading zero omitted, Abs format (unit mm)*
G04 Created by KiCad (PCBNEW 8.0.5) date 2025-09-21 17:17:35*
%MOMM*%
%LPD*%
G01*
G04 APERTURE LIST*
%ADD10C,0.200000*%
%ADD11C,0.250000*%
%ADD12C,0.350000*%
%ADD13C,0.300000*%
%ADD14C,0.120000*%
%ADD15C,0.010000*%
G04 APERTURE END LIST*
D10*
X138377945Y-70057549D02*
X138339850Y-70095645D01*
X138339850Y-70095645D02*
X138377945Y-70133740D01*
X138377945Y-70133740D02*
X138416041Y-70095645D01*
X138416041Y-70095645D02*
X138377945Y-70057549D01*
X138377945Y-70057549D02*
X138377945Y-70133740D01*
X138377945Y-71345504D02*
X138339850Y-71383600D01*
X138339850Y-71383600D02*
X138377945Y-71421695D01*
X138377945Y-71421695D02*
X138416041Y-71383600D01*
X138416041Y-71383600D02*
X138377945Y-71345504D01*
X138377945Y-71345504D02*
X138377945Y-71421695D01*
D11*
X147800000Y-67130000D02*
X147800000Y-122330000D01*
X119550000Y-94680000D02*
X174050000Y-94680000D01*
D12*
X134639786Y-107702485D02*
X134449310Y-107797723D01*
X134449310Y-107797723D02*
X134258834Y-107988200D01*
X134258834Y-107988200D02*
X133973120Y-108273914D01*
X133973120Y-108273914D02*
X133782643Y-108369152D01*
X133782643Y-108369152D02*
X133592167Y-108369152D01*
X133687405Y-107892961D02*
X133496929Y-107988200D01*
X133496929Y-107988200D02*
X133306453Y-108178676D01*
X133306453Y-108178676D02*
X133211215Y-108559628D01*
X133211215Y-108559628D02*
X133211215Y-109226295D01*
X133211215Y-109226295D02*
X133306453Y-109607247D01*
X133306453Y-109607247D02*
X133496929Y-109797723D01*
X133496929Y-109797723D02*
X133687405Y-109892961D01*
X133687405Y-109892961D02*
X134068358Y-109892961D01*
X134068358Y-109892961D02*
X134258834Y-109797723D01*
X134258834Y-109797723D02*
X134449310Y-109607247D01*
X134449310Y-109607247D02*
X134544548Y-109226295D01*
X134544548Y-109226295D02*
X134544548Y-108559628D01*
X134544548Y-108559628D02*
X134449310Y-108178676D01*
X134449310Y-108178676D02*
X134258834Y-107988200D01*
X134258834Y-107988200D02*
X134068358Y-107892961D01*
X134068358Y-107892961D02*
X133687405Y-107892961D01*
X135211215Y-109892961D02*
X136449310Y-109892961D01*
X136449310Y-109892961D02*
X135782643Y-109131057D01*
X135782643Y-109131057D02*
X136068358Y-109131057D01*
X136068358Y-109131057D02*
X136258834Y-109035819D01*
X136258834Y-109035819D02*
X136354072Y-108940580D01*
X136354072Y-108940580D02*
X136449310Y-108750104D01*
X136449310Y-108750104D02*
X136449310Y-108273914D01*
X136449310Y-108273914D02*
X136354072Y-108083438D01*
X136354072Y-108083438D02*
X136258834Y-107988200D01*
X136258834Y-107988200D02*
X136068358Y-107892961D01*
X136068358Y-107892961D02*
X135496929Y-107892961D01*
X135496929Y-107892961D02*
X135306453Y-107988200D01*
X135306453Y-107988200D02*
X135211215Y-108083438D01*
D13*
X128283082Y-67709003D02*
X128283082Y-66637574D01*
X128283082Y-66637574D02*
X128211653Y-66423289D01*
X128211653Y-66423289D02*
X128068796Y-66280432D01*
X128068796Y-66280432D02*
X127854510Y-66209003D01*
X127854510Y-66209003D02*
X127711653Y-66209003D01*
X129640225Y-66209003D02*
X129640225Y-66994717D01*
X129640225Y-66994717D02*
X129568796Y-67137574D01*
X129568796Y-67137574D02*
X129425939Y-67209003D01*
X129425939Y-67209003D02*
X129140225Y-67209003D01*
X129140225Y-67209003D02*
X128997367Y-67137574D01*
X129640225Y-66280432D02*
X129497367Y-66209003D01*
X129497367Y-66209003D02*
X129140225Y-66209003D01*
X129140225Y-66209003D02*
X128997367Y-66280432D01*
X128997367Y-66280432D02*
X128925939Y-66423289D01*
X128925939Y-66423289D02*
X128925939Y-66566146D01*
X128925939Y-66566146D02*
X128997367Y-66709003D01*
X128997367Y-66709003D02*
X129140225Y-66780432D01*
X129140225Y-66780432D02*
X129497367Y-66780432D01*
X129497367Y-66780432D02*
X129640225Y-66851860D01*
X130997368Y-66280432D02*
X130854510Y-66209003D01*
X130854510Y-66209003D02*
X130568796Y-66209003D01*
X130568796Y-66209003D02*
X130425939Y-66280432D01*
X130425939Y-66280432D02*
X130354510Y-66351860D01*
X130354510Y-66351860D02*
X130283082Y-66494717D01*
X130283082Y-66494717D02*
X130283082Y-66923289D01*
X130283082Y-66923289D02*
X130354510Y-67066146D01*
X130354510Y-67066146D02*
X130425939Y-67137574D01*
X130425939Y-67137574D02*
X130568796Y-67209003D01*
X130568796Y-67209003D02*
X130854510Y-67209003D01*
X130854510Y-67209003D02*
X130997368Y-67137574D01*
X131854510Y-66209003D02*
X131711653Y-66280432D01*
X131711653Y-66280432D02*
X131640224Y-66351860D01*
X131640224Y-66351860D02*
X131568796Y-66494717D01*
X131568796Y-66494717D02*
X131568796Y-66923289D01*
X131568796Y-66923289D02*
X131640224Y-67066146D01*
X131640224Y-67066146D02*
X131711653Y-67137574D01*
X131711653Y-67137574D02*
X131854510Y-67209003D01*
X131854510Y-67209003D02*
X132068796Y-67209003D01*
X132068796Y-67209003D02*
X132211653Y-67137574D01*
X132211653Y-67137574D02*
X132283082Y-67066146D01*
X132283082Y-67066146D02*
X132354510Y-66923289D01*
X132354510Y-66923289D02*
X132354510Y-66494717D01*
X132354510Y-66494717D02*
X132283082Y-66351860D01*
X132283082Y-66351860D02*
X132211653Y-66280432D01*
X132211653Y-66280432D02*
X132068796Y-66209003D01*
X132068796Y-66209003D02*
X131854510Y-66209003D01*
X132997367Y-66209003D02*
X132997367Y-67709003D01*
X132997367Y-67137574D02*
X133140225Y-67209003D01*
X133140225Y-67209003D02*
X133425939Y-67209003D01*
X133425939Y-67209003D02*
X133568796Y-67137574D01*
X133568796Y-67137574D02*
X133640225Y-67066146D01*
X133640225Y-67066146D02*
X133711653Y-66923289D01*
X133711653Y-66923289D02*
X133711653Y-66494717D01*
X133711653Y-66494717D02*
X133640225Y-66351860D01*
X133640225Y-66351860D02*
X133568796Y-66280432D01*
X133568796Y-66280432D02*
X133425939Y-66209003D01*
X133425939Y-66209003D02*
X133140225Y-66209003D01*
X133140225Y-66209003D02*
X132997367Y-66280432D01*
X136354510Y-66209003D02*
X135854510Y-66923289D01*
X135497367Y-66209003D02*
X135497367Y-67709003D01*
X135497367Y-67709003D02*
X136068796Y-67709003D01*
X136068796Y-67709003D02*
X136211653Y-67637574D01*
X136211653Y-67637574D02*
X136283082Y-67566146D01*
X136283082Y-67566146D02*
X136354510Y-67423289D01*
X136354510Y-67423289D02*
X136354510Y-67209003D01*
X136354510Y-67209003D02*
X136283082Y-67066146D01*
X136283082Y-67066146D02*
X136211653Y-66994717D01*
X136211653Y-66994717D02*
X136068796Y-66923289D01*
X136068796Y-66923289D02*
X135497367Y-66923289D01*
X137211653Y-66209003D02*
X137068796Y-66280432D01*
X137068796Y-66280432D02*
X136997367Y-66351860D01*
X136997367Y-66351860D02*
X136925939Y-66494717D01*
X136925939Y-66494717D02*
X136925939Y-66923289D01*
X136925939Y-66923289D02*
X136997367Y-67066146D01*
X136997367Y-67066146D02*
X137068796Y-67137574D01*
X137068796Y-67137574D02*
X137211653Y-67209003D01*
X137211653Y-67209003D02*
X137425939Y-67209003D01*
X137425939Y-67209003D02*
X137568796Y-67137574D01*
X137568796Y-67137574D02*
X137640225Y-67066146D01*
X137640225Y-67066146D02*
X137711653Y-66923289D01*
X137711653Y-66923289D02*
X137711653Y-66494717D01*
X137711653Y-66494717D02*
X137640225Y-66351860D01*
X137640225Y-66351860D02*
X137568796Y-66280432D01*
X137568796Y-66280432D02*
X137425939Y-66209003D01*
X137425939Y-66209003D02*
X137211653Y-66209003D01*
X138354510Y-66209003D02*
X138354510Y-67209003D01*
X138354510Y-67066146D02*
X138425939Y-67137574D01*
X138425939Y-67137574D02*
X138568796Y-67209003D01*
X138568796Y-67209003D02*
X138783082Y-67209003D01*
X138783082Y-67209003D02*
X138925939Y-67137574D01*
X138925939Y-67137574D02*
X138997368Y-66994717D01*
X138997368Y-66994717D02*
X138997368Y-66209003D01*
X138997368Y-66994717D02*
X139068796Y-67137574D01*
X139068796Y-67137574D02*
X139211653Y-67209003D01*
X139211653Y-67209003D02*
X139425939Y-67209003D01*
X139425939Y-67209003D02*
X139568796Y-67137574D01*
X139568796Y-67137574D02*
X139640225Y-66994717D01*
X139640225Y-66994717D02*
X139640225Y-66209003D01*
X140925939Y-66280432D02*
X140783082Y-66209003D01*
X140783082Y-66209003D02*
X140497368Y-66209003D01*
X140497368Y-66209003D02*
X140354510Y-66280432D01*
X140354510Y-66280432D02*
X140283082Y-66423289D01*
X140283082Y-66423289D02*
X140283082Y-66994717D01*
X140283082Y-66994717D02*
X140354510Y-67137574D01*
X140354510Y-67137574D02*
X140497368Y-67209003D01*
X140497368Y-67209003D02*
X140783082Y-67209003D01*
X140783082Y-67209003D02*
X140925939Y-67137574D01*
X140925939Y-67137574D02*
X140997368Y-66994717D01*
X140997368Y-66994717D02*
X140997368Y-66851860D01*
X140997368Y-66851860D02*
X140283082Y-66709003D01*
X141854510Y-66209003D02*
X141711653Y-66280432D01*
X141711653Y-66280432D02*
X141640224Y-66351860D01*
X141640224Y-66351860D02*
X141568796Y-66494717D01*
X141568796Y-66494717D02*
X141568796Y-66923289D01*
X141568796Y-66923289D02*
X141640224Y-67066146D01*
X141640224Y-67066146D02*
X141711653Y-67137574D01*
X141711653Y-67137574D02*
X141854510Y-67209003D01*
X141854510Y-67209003D02*
X142068796Y-67209003D01*
X142068796Y-67209003D02*
X142211653Y-67137574D01*
X142211653Y-67137574D02*
X142283082Y-67066146D01*
X142283082Y-67066146D02*
X142354510Y-66923289D01*
X142354510Y-66923289D02*
X142354510Y-66494717D01*
X142354510Y-66494717D02*
X142283082Y-66351860D01*
X142283082Y-66351860D02*
X142211653Y-66280432D01*
X142211653Y-66280432D02*
X142068796Y-66209003D01*
X142068796Y-66209003D02*
X141854510Y-66209003D01*
X127640225Y-65294087D02*
X128140225Y-63794087D01*
X128140225Y-63794087D02*
X128640225Y-65294087D01*
X129783082Y-63794087D02*
X129783082Y-64579801D01*
X129783082Y-64579801D02*
X129711653Y-64722658D01*
X129711653Y-64722658D02*
X129568796Y-64794087D01*
X129568796Y-64794087D02*
X129283082Y-64794087D01*
X129283082Y-64794087D02*
X129140224Y-64722658D01*
X129783082Y-63865516D02*
X129640224Y-63794087D01*
X129640224Y-63794087D02*
X129283082Y-63794087D01*
X129283082Y-63794087D02*
X129140224Y-63865516D01*
X129140224Y-63865516D02*
X129068796Y-64008373D01*
X129068796Y-64008373D02*
X129068796Y-64151230D01*
X129068796Y-64151230D02*
X129140224Y-64294087D01*
X129140224Y-64294087D02*
X129283082Y-64365516D01*
X129283082Y-64365516D02*
X129640224Y-64365516D01*
X129640224Y-64365516D02*
X129783082Y-64436944D01*
X130497367Y-63794087D02*
X130497367Y-64794087D01*
X130497367Y-64508373D02*
X130568796Y-64651230D01*
X130568796Y-64651230D02*
X130640225Y-64722658D01*
X130640225Y-64722658D02*
X130783082Y-64794087D01*
X130783082Y-64794087D02*
X130925939Y-64794087D01*
X131425938Y-64794087D02*
X131425938Y-63794087D01*
X131425938Y-64651230D02*
X131497367Y-64722658D01*
X131497367Y-64722658D02*
X131640224Y-64794087D01*
X131640224Y-64794087D02*
X131854510Y-64794087D01*
X131854510Y-64794087D02*
X131997367Y-64722658D01*
X131997367Y-64722658D02*
X132068796Y-64579801D01*
X132068796Y-64579801D02*
X132068796Y-63794087D01*
X133354510Y-63865516D02*
X133211653Y-63794087D01*
X133211653Y-63794087D02*
X132925939Y-63794087D01*
X132925939Y-63794087D02*
X132783081Y-63865516D01*
X132783081Y-63865516D02*
X132711653Y-64008373D01*
X132711653Y-64008373D02*
X132711653Y-64579801D01*
X132711653Y-64579801D02*
X132783081Y-64722658D01*
X132783081Y-64722658D02*
X132925939Y-64794087D01*
X132925939Y-64794087D02*
X133211653Y-64794087D01*
X133211653Y-64794087D02*
X133354510Y-64722658D01*
X133354510Y-64722658D02*
X133425939Y-64579801D01*
X133425939Y-64579801D02*
X133425939Y-64436944D01*
X133425939Y-64436944D02*
X132711653Y-64294087D01*
X134068795Y-63794087D02*
X134068795Y-64794087D01*
X134068795Y-64508373D02*
X134140224Y-64651230D01*
X134140224Y-64651230D02*
X134211653Y-64722658D01*
X134211653Y-64722658D02*
X134354510Y-64794087D01*
X134354510Y-64794087D02*
X134497367Y-64794087D01*
X136854509Y-63794087D02*
X136140223Y-63794087D01*
X136140223Y-63794087D02*
X136140223Y-65294087D01*
X137997367Y-63794087D02*
X137997367Y-64579801D01*
X137997367Y-64579801D02*
X137925938Y-64722658D01*
X137925938Y-64722658D02*
X137783081Y-64794087D01*
X137783081Y-64794087D02*
X137497367Y-64794087D01*
X137497367Y-64794087D02*
X137354509Y-64722658D01*
X137997367Y-63865516D02*
X137854509Y-63794087D01*
X137854509Y-63794087D02*
X137497367Y-63794087D01*
X137497367Y-63794087D02*
X137354509Y-63865516D01*
X137354509Y-63865516D02*
X137283081Y-64008373D01*
X137283081Y-64008373D02*
X137283081Y-64151230D01*
X137283081Y-64151230D02*
X137354509Y-64294087D01*
X137354509Y-64294087D02*
X137497367Y-64365516D01*
X137497367Y-64365516D02*
X137854509Y-64365516D01*
X137854509Y-64365516D02*
X137997367Y-64436944D01*
X138711652Y-63794087D02*
X138711652Y-65294087D01*
X138711652Y-64722658D02*
X138854510Y-64794087D01*
X138854510Y-64794087D02*
X139140224Y-64794087D01*
X139140224Y-64794087D02*
X139283081Y-64722658D01*
X139283081Y-64722658D02*
X139354510Y-64651230D01*
X139354510Y-64651230D02*
X139425938Y-64508373D01*
X139425938Y-64508373D02*
X139425938Y-64079801D01*
X139425938Y-64079801D02*
X139354510Y-63936944D01*
X139354510Y-63936944D02*
X139283081Y-63865516D01*
X139283081Y-63865516D02*
X139140224Y-63794087D01*
X139140224Y-63794087D02*
X138854510Y-63794087D01*
X138854510Y-63794087D02*
X138711652Y-63865516D01*
X127783082Y-62736314D02*
X127854510Y-62807742D01*
X127854510Y-62807742D02*
X127997368Y-62879171D01*
X127997368Y-62879171D02*
X128354510Y-62879171D01*
X128354510Y-62879171D02*
X128497368Y-62807742D01*
X128497368Y-62807742D02*
X128568796Y-62736314D01*
X128568796Y-62736314D02*
X128640225Y-62593457D01*
X128640225Y-62593457D02*
X128640225Y-62450600D01*
X128640225Y-62450600D02*
X128568796Y-62236314D01*
X128568796Y-62236314D02*
X127711653Y-61379171D01*
X127711653Y-61379171D02*
X128640225Y-61379171D01*
X129568796Y-62879171D02*
X129711653Y-62879171D01*
X129711653Y-62879171D02*
X129854510Y-62807742D01*
X129854510Y-62807742D02*
X129925939Y-62736314D01*
X129925939Y-62736314D02*
X129997367Y-62593457D01*
X129997367Y-62593457D02*
X130068796Y-62307742D01*
X130068796Y-62307742D02*
X130068796Y-61950600D01*
X130068796Y-61950600D02*
X129997367Y-61664885D01*
X129997367Y-61664885D02*
X129925939Y-61522028D01*
X129925939Y-61522028D02*
X129854510Y-61450600D01*
X129854510Y-61450600D02*
X129711653Y-61379171D01*
X129711653Y-61379171D02*
X129568796Y-61379171D01*
X129568796Y-61379171D02*
X129425939Y-61450600D01*
X129425939Y-61450600D02*
X129354510Y-61522028D01*
X129354510Y-61522028D02*
X129283081Y-61664885D01*
X129283081Y-61664885D02*
X129211653Y-61950600D01*
X129211653Y-61950600D02*
X129211653Y-62307742D01*
X129211653Y-62307742D02*
X129283081Y-62593457D01*
X129283081Y-62593457D02*
X129354510Y-62736314D01*
X129354510Y-62736314D02*
X129425939Y-62807742D01*
X129425939Y-62807742D02*
X129568796Y-62879171D01*
X130640224Y-62736314D02*
X130711652Y-62807742D01*
X130711652Y-62807742D02*
X130854510Y-62879171D01*
X130854510Y-62879171D02*
X131211652Y-62879171D01*
X131211652Y-62879171D02*
X131354510Y-62807742D01*
X131354510Y-62807742D02*
X131425938Y-62736314D01*
X131425938Y-62736314D02*
X131497367Y-62593457D01*
X131497367Y-62593457D02*
X131497367Y-62450600D01*
X131497367Y-62450600D02*
X131425938Y-62236314D01*
X131425938Y-62236314D02*
X130568795Y-61379171D01*
X130568795Y-61379171D02*
X131497367Y-61379171D01*
X132854509Y-62879171D02*
X132140223Y-62879171D01*
X132140223Y-62879171D02*
X132068795Y-62164885D01*
X132068795Y-62164885D02*
X132140223Y-62236314D01*
X132140223Y-62236314D02*
X132283081Y-62307742D01*
X132283081Y-62307742D02*
X132640223Y-62307742D01*
X132640223Y-62307742D02*
X132783081Y-62236314D01*
X132783081Y-62236314D02*
X132854509Y-62164885D01*
X132854509Y-62164885D02*
X132925938Y-62022028D01*
X132925938Y-62022028D02*
X132925938Y-61664885D01*
X132925938Y-61664885D02*
X132854509Y-61522028D01*
X132854509Y-61522028D02*
X132783081Y-61450600D01*
X132783081Y-61450600D02*
X132640223Y-61379171D01*
X132640223Y-61379171D02*
X132283081Y-61379171D01*
X132283081Y-61379171D02*
X132140223Y-61450600D01*
X132140223Y-61450600D02*
X132068795Y-61522028D01*
X133568794Y-61950600D02*
X134711652Y-61950600D01*
X135711652Y-62879171D02*
X135854509Y-62879171D01*
X135854509Y-62879171D02*
X135997366Y-62807742D01*
X135997366Y-62807742D02*
X136068795Y-62736314D01*
X136068795Y-62736314D02*
X136140223Y-62593457D01*
X136140223Y-62593457D02*
X136211652Y-62307742D01*
X136211652Y-62307742D02*
X136211652Y-61950600D01*
X136211652Y-61950600D02*
X136140223Y-61664885D01*
X136140223Y-61664885D02*
X136068795Y-61522028D01*
X136068795Y-61522028D02*
X135997366Y-61450600D01*
X135997366Y-61450600D02*
X135854509Y-61379171D01*
X135854509Y-61379171D02*
X135711652Y-61379171D01*
X135711652Y-61379171D02*
X135568795Y-61450600D01*
X135568795Y-61450600D02*
X135497366Y-61522028D01*
X135497366Y-61522028D02*
X135425937Y-61664885D01*
X135425937Y-61664885D02*
X135354509Y-61950600D01*
X135354509Y-61950600D02*
X135354509Y-62307742D01*
X135354509Y-62307742D02*
X135425937Y-62593457D01*
X135425937Y-62593457D02*
X135497366Y-62736314D01*
X135497366Y-62736314D02*
X135568795Y-62807742D01*
X135568795Y-62807742D02*
X135711652Y-62879171D01*
X136925937Y-61379171D02*
X137211651Y-61379171D01*
X137211651Y-61379171D02*
X137354508Y-61450600D01*
X137354508Y-61450600D02*
X137425937Y-61522028D01*
X137425937Y-61522028D02*
X137568794Y-61736314D01*
X137568794Y-61736314D02*
X137640223Y-62022028D01*
X137640223Y-62022028D02*
X137640223Y-62593457D01*
X137640223Y-62593457D02*
X137568794Y-62736314D01*
X137568794Y-62736314D02*
X137497366Y-62807742D01*
X137497366Y-62807742D02*
X137354508Y-62879171D01*
X137354508Y-62879171D02*
X137068794Y-62879171D01*
X137068794Y-62879171D02*
X136925937Y-62807742D01*
X136925937Y-62807742D02*
X136854508Y-62736314D01*
X136854508Y-62736314D02*
X136783080Y-62593457D01*
X136783080Y-62593457D02*
X136783080Y-62236314D01*
X136783080Y-62236314D02*
X136854508Y-62093457D01*
X136854508Y-62093457D02*
X136925937Y-62022028D01*
X136925937Y-62022028D02*
X137068794Y-61950600D01*
X137068794Y-61950600D02*
X137354508Y-61950600D01*
X137354508Y-61950600D02*
X137497366Y-62022028D01*
X137497366Y-62022028D02*
X137568794Y-62093457D01*
X137568794Y-62093457D02*
X137640223Y-62236314D01*
X138283079Y-61950600D02*
X139425937Y-61950600D01*
X140068794Y-62736314D02*
X140140222Y-62807742D01*
X140140222Y-62807742D02*
X140283080Y-62879171D01*
X140283080Y-62879171D02*
X140640222Y-62879171D01*
X140640222Y-62879171D02*
X140783080Y-62807742D01*
X140783080Y-62807742D02*
X140854508Y-62736314D01*
X140854508Y-62736314D02*
X140925937Y-62593457D01*
X140925937Y-62593457D02*
X140925937Y-62450600D01*
X140925937Y-62450600D02*
X140854508Y-62236314D01*
X140854508Y-62236314D02*
X139997365Y-61379171D01*
X139997365Y-61379171D02*
X140925937Y-61379171D01*
X142354508Y-61379171D02*
X141497365Y-61379171D01*
X141925936Y-61379171D02*
X141925936Y-62879171D01*
X141925936Y-62879171D02*
X141783079Y-62664885D01*
X141783079Y-62664885D02*
X141640222Y-62522028D01*
X141640222Y-62522028D02*
X141497365Y-62450600D01*
D12*
X162539786Y-107802485D02*
X162349310Y-107897723D01*
X162349310Y-107897723D02*
X162158834Y-108088200D01*
X162158834Y-108088200D02*
X161873120Y-108373914D01*
X161873120Y-108373914D02*
X161682643Y-108469152D01*
X161682643Y-108469152D02*
X161492167Y-108469152D01*
X161587405Y-107992961D02*
X161396929Y-108088200D01*
X161396929Y-108088200D02*
X161206453Y-108278676D01*
X161206453Y-108278676D02*
X161111215Y-108659628D01*
X161111215Y-108659628D02*
X161111215Y-109326295D01*
X161111215Y-109326295D02*
X161206453Y-109707247D01*
X161206453Y-109707247D02*
X161396929Y-109897723D01*
X161396929Y-109897723D02*
X161587405Y-109992961D01*
X161587405Y-109992961D02*
X161968358Y-109992961D01*
X161968358Y-109992961D02*
X162158834Y-109897723D01*
X162158834Y-109897723D02*
X162349310Y-109707247D01*
X162349310Y-109707247D02*
X162444548Y-109326295D01*
X162444548Y-109326295D02*
X162444548Y-108659628D01*
X162444548Y-108659628D02*
X162349310Y-108278676D01*
X162349310Y-108278676D02*
X162158834Y-108088200D01*
X162158834Y-108088200D02*
X161968358Y-107992961D01*
X161968358Y-107992961D02*
X161587405Y-107992961D01*
X164158834Y-109326295D02*
X164158834Y-107992961D01*
X163682643Y-110088200D02*
X163206453Y-108659628D01*
X163206453Y-108659628D02*
X164444548Y-108659628D01*
X134539786Y-79652485D02*
X134349310Y-79747723D01*
X134349310Y-79747723D02*
X134158834Y-79938200D01*
X134158834Y-79938200D02*
X133873120Y-80223914D01*
X133873120Y-80223914D02*
X133682643Y-80319152D01*
X133682643Y-80319152D02*
X133492167Y-80319152D01*
X133587405Y-79842961D02*
X133396929Y-79938200D01*
X133396929Y-79938200D02*
X133206453Y-80128676D01*
X133206453Y-80128676D02*
X133111215Y-80509628D01*
X133111215Y-80509628D02*
X133111215Y-81176295D01*
X133111215Y-81176295D02*
X133206453Y-81557247D01*
X133206453Y-81557247D02*
X133396929Y-81747723D01*
X133396929Y-81747723D02*
X133587405Y-81842961D01*
X133587405Y-81842961D02*
X133968358Y-81842961D01*
X133968358Y-81842961D02*
X134158834Y-81747723D01*
X134158834Y-81747723D02*
X134349310Y-81557247D01*
X134349310Y-81557247D02*
X134444548Y-81176295D01*
X134444548Y-81176295D02*
X134444548Y-80509628D01*
X134444548Y-80509628D02*
X134349310Y-80128676D01*
X134349310Y-80128676D02*
X134158834Y-79938200D01*
X134158834Y-79938200D02*
X133968358Y-79842961D01*
X133968358Y-79842961D02*
X133587405Y-79842961D01*
X135206453Y-81652485D02*
X135301691Y-81747723D01*
X135301691Y-81747723D02*
X135492167Y-81842961D01*
X135492167Y-81842961D02*
X135968358Y-81842961D01*
X135968358Y-81842961D02*
X136158834Y-81747723D01*
X136158834Y-81747723D02*
X136254072Y-81652485D01*
X136254072Y-81652485D02*
X136349310Y-81462009D01*
X136349310Y-81462009D02*
X136349310Y-81271533D01*
X136349310Y-81271533D02*
X136254072Y-80985819D01*
X136254072Y-80985819D02*
X135111215Y-79842961D01*
X135111215Y-79842961D02*
X136349310Y-79842961D01*
D13*
X152933082Y-63150600D02*
X153147368Y-63079171D01*
X153147368Y-63079171D02*
X153504510Y-63079171D01*
X153504510Y-63079171D02*
X153647368Y-63150600D01*
X153647368Y-63150600D02*
X153718796Y-63222028D01*
X153718796Y-63222028D02*
X153790225Y-63364885D01*
X153790225Y-63364885D02*
X153790225Y-63507742D01*
X153790225Y-63507742D02*
X153718796Y-63650600D01*
X153718796Y-63650600D02*
X153647368Y-63722028D01*
X153647368Y-63722028D02*
X153504510Y-63793457D01*
X153504510Y-63793457D02*
X153218796Y-63864885D01*
X153218796Y-63864885D02*
X153075939Y-63936314D01*
X153075939Y-63936314D02*
X153004510Y-64007742D01*
X153004510Y-64007742D02*
X152933082Y-64150600D01*
X152933082Y-64150600D02*
X152933082Y-64293457D01*
X152933082Y-64293457D02*
X153004510Y-64436314D01*
X153004510Y-64436314D02*
X153075939Y-64507742D01*
X153075939Y-64507742D02*
X153218796Y-64579171D01*
X153218796Y-64579171D02*
X153575939Y-64579171D01*
X153575939Y-64579171D02*
X153790225Y-64507742D01*
X154433081Y-63079171D02*
X154433081Y-64079171D01*
X154433081Y-64579171D02*
X154361653Y-64507742D01*
X154361653Y-64507742D02*
X154433081Y-64436314D01*
X154433081Y-64436314D02*
X154504510Y-64507742D01*
X154504510Y-64507742D02*
X154433081Y-64579171D01*
X154433081Y-64579171D02*
X154433081Y-64436314D01*
X155147367Y-63079171D02*
X155147367Y-64579171D01*
X155147367Y-64579171D02*
X155718796Y-64579171D01*
X155718796Y-64579171D02*
X155861653Y-64507742D01*
X155861653Y-64507742D02*
X155933082Y-64436314D01*
X155933082Y-64436314D02*
X156004510Y-64293457D01*
X156004510Y-64293457D02*
X156004510Y-64079171D01*
X156004510Y-64079171D02*
X155933082Y-63936314D01*
X155933082Y-63936314D02*
X155861653Y-63864885D01*
X155861653Y-63864885D02*
X155718796Y-63793457D01*
X155718796Y-63793457D02*
X155147367Y-63793457D01*
X156647367Y-63079171D02*
X156647367Y-64579171D01*
X156647367Y-64579171D02*
X157147367Y-63507742D01*
X157147367Y-63507742D02*
X157647367Y-64579171D01*
X157647367Y-64579171D02*
X157647367Y-63079171D01*
X158147368Y-64579171D02*
X159004511Y-64579171D01*
X158575939Y-63079171D02*
X158575939Y-64579171D01*
X160647367Y-63079171D02*
X160647367Y-64079171D01*
X160647367Y-63793457D02*
X160718796Y-63936314D01*
X160718796Y-63936314D02*
X160790225Y-64007742D01*
X160790225Y-64007742D02*
X160933082Y-64079171D01*
X160933082Y-64079171D02*
X161075939Y-64079171D01*
X162147367Y-63150600D02*
X162004510Y-63079171D01*
X162004510Y-63079171D02*
X161718796Y-63079171D01*
X161718796Y-63079171D02*
X161575938Y-63150600D01*
X161575938Y-63150600D02*
X161504510Y-63293457D01*
X161504510Y-63293457D02*
X161504510Y-63864885D01*
X161504510Y-63864885D02*
X161575938Y-64007742D01*
X161575938Y-64007742D02*
X161718796Y-64079171D01*
X161718796Y-64079171D02*
X162004510Y-64079171D01*
X162004510Y-64079171D02*
X162147367Y-64007742D01*
X162147367Y-64007742D02*
X162218796Y-63864885D01*
X162218796Y-63864885D02*
X162218796Y-63722028D01*
X162218796Y-63722028D02*
X161504510Y-63579171D01*
X162718795Y-64079171D02*
X163075938Y-63079171D01*
X163075938Y-63079171D02*
X163433081Y-64079171D01*
X163933081Y-63507742D02*
X164647367Y-63507742D01*
X163790224Y-63079171D02*
X164290224Y-64579171D01*
X164290224Y-64579171D02*
X164790224Y-63079171D01*
D12*
X162539786Y-79652485D02*
X162349310Y-79747723D01*
X162349310Y-79747723D02*
X162158834Y-79938200D01*
X162158834Y-79938200D02*
X161873120Y-80223914D01*
X161873120Y-80223914D02*
X161682643Y-80319152D01*
X161682643Y-80319152D02*
X161492167Y-80319152D01*
X161587405Y-79842961D02*
X161396929Y-79938200D01*
X161396929Y-79938200D02*
X161206453Y-80128676D01*
X161206453Y-80128676D02*
X161111215Y-80509628D01*
X161111215Y-80509628D02*
X161111215Y-81176295D01*
X161111215Y-81176295D02*
X161206453Y-81557247D01*
X161206453Y-81557247D02*
X161396929Y-81747723D01*
X161396929Y-81747723D02*
X161587405Y-81842961D01*
X161587405Y-81842961D02*
X161968358Y-81842961D01*
X161968358Y-81842961D02*
X162158834Y-81747723D01*
X162158834Y-81747723D02*
X162349310Y-81557247D01*
X162349310Y-81557247D02*
X162444548Y-81176295D01*
X162444548Y-81176295D02*
X162444548Y-80509628D01*
X162444548Y-80509628D02*
X162349310Y-80128676D01*
X162349310Y-80128676D02*
X162158834Y-79938200D01*
X162158834Y-79938200D02*
X161968358Y-79842961D01*
X161968358Y-79842961D02*
X161587405Y-79842961D01*
X164349310Y-79842961D02*
X163206453Y-79842961D01*
X163777881Y-79842961D02*
X163777881Y-81842961D01*
X163777881Y-81842961D02*
X163587405Y-81557247D01*
X163587405Y-81557247D02*
X163396929Y-81366771D01*
X163396929Y-81366771D02*
X163206453Y-81271533D01*
D10*
X124465445Y-70057549D02*
X124427350Y-70095645D01*
X124427350Y-70095645D02*
X124465445Y-70133740D01*
X124465445Y-70133740D02*
X124503541Y-70095645D01*
X124503541Y-70095645D02*
X124465445Y-70057549D01*
X124465445Y-70057549D02*
X124465445Y-70133740D01*
X124465445Y-71345504D02*
X124427350Y-71383600D01*
X124427350Y-71383600D02*
X124465445Y-71421695D01*
X124465445Y-71421695D02*
X124503541Y-71383600D01*
X124503541Y-71383600D02*
X124465445Y-71345504D01*
X124465445Y-71345504D02*
X124465445Y-71421695D01*
X145552945Y-105032549D02*
X145514850Y-105070645D01*
X145514850Y-105070645D02*
X145552945Y-105108740D01*
X145552945Y-105108740D02*
X145591041Y-105070645D01*
X145591041Y-105070645D02*
X145552945Y-105032549D01*
X145552945Y-105032549D02*
X145552945Y-105108740D01*
X145552945Y-106320504D02*
X145514850Y-106358600D01*
X145514850Y-106358600D02*
X145552945Y-106396695D01*
X145552945Y-106396695D02*
X145591041Y-106358600D01*
X145591041Y-106358600D02*
X145552945Y-106320504D01*
X145552945Y-106320504D02*
X145552945Y-106396695D01*
X124535445Y-91032549D02*
X124497350Y-91070645D01*
X124497350Y-91070645D02*
X124535445Y-91108740D01*
X124535445Y-91108740D02*
X124573541Y-91070645D01*
X124573541Y-91070645D02*
X124535445Y-91032549D01*
X124535445Y-91032549D02*
X124535445Y-91108740D01*
X124535445Y-92320504D02*
X124497350Y-92358600D01*
X124497350Y-92358600D02*
X124535445Y-92396695D01*
X124535445Y-92396695D02*
X124573541Y-92358600D01*
X124573541Y-92358600D02*
X124535445Y-92320504D01*
X124535445Y-92320504D02*
X124535445Y-92396695D01*
X152552945Y-84082549D02*
X152514850Y-84120645D01*
X152514850Y-84120645D02*
X152552945Y-84158740D01*
X152552945Y-84158740D02*
X152591041Y-84120645D01*
X152591041Y-84120645D02*
X152552945Y-84082549D01*
X152552945Y-84082549D02*
X152552945Y-84158740D01*
X152552945Y-85370504D02*
X152514850Y-85408600D01*
X152514850Y-85408600D02*
X152552945Y-85446695D01*
X152552945Y-85446695D02*
X152591041Y-85408600D01*
X152591041Y-85408600D02*
X152552945Y-85370504D01*
X152552945Y-85370504D02*
X152552945Y-85446695D01*
X131515445Y-77057549D02*
X131477350Y-77095645D01*
X131477350Y-77095645D02*
X131515445Y-77133740D01*
X131515445Y-77133740D02*
X131553541Y-77095645D01*
X131553541Y-77095645D02*
X131515445Y-77057549D01*
X131515445Y-77057549D02*
X131515445Y-77133740D01*
X131515445Y-78345504D02*
X131477350Y-78383600D01*
X131477350Y-78383600D02*
X131515445Y-78421695D01*
X131515445Y-78421695D02*
X131553541Y-78383600D01*
X131553541Y-78383600D02*
X131515445Y-78345504D01*
X131515445Y-78345504D02*
X131515445Y-78421695D01*
X152552945Y-105032549D02*
X152514850Y-105070645D01*
X152514850Y-105070645D02*
X152552945Y-105108740D01*
X152552945Y-105108740D02*
X152591041Y-105070645D01*
X152591041Y-105070645D02*
X152552945Y-105032549D01*
X152552945Y-105032549D02*
X152552945Y-105108740D01*
X152552945Y-106320504D02*
X152514850Y-106358600D01*
X152514850Y-106358600D02*
X152552945Y-106396695D01*
X152552945Y-106396695D02*
X152591041Y-106358600D01*
X152591041Y-106358600D02*
X152552945Y-106320504D01*
X152552945Y-106320504D02*
X152552945Y-106396695D01*
X159552945Y-77032549D02*
X159514850Y-77070645D01*
X159514850Y-77070645D02*
X159552945Y-77108740D01*
X159552945Y-77108740D02*
X159591041Y-77070645D01*
X159591041Y-77070645D02*
X159552945Y-77032549D01*
X159552945Y-77032549D02*
X159552945Y-77108740D01*
X159552945Y-78320504D02*
X159514850Y-78358600D01*
X159514850Y-78358600D02*
X159552945Y-78396695D01*
X159552945Y-78396695D02*
X159591041Y-78358600D01*
X159591041Y-78358600D02*
X159552945Y-78320504D01*
X159552945Y-78320504D02*
X159552945Y-78396695D01*
X145552945Y-112032549D02*
X145514850Y-112070645D01*
X145514850Y-112070645D02*
X145552945Y-112108740D01*
X145552945Y-112108740D02*
X145591041Y-112070645D01*
X145591041Y-112070645D02*
X145552945Y-112032549D01*
X145552945Y-112032549D02*
X145552945Y-112108740D01*
X145552945Y-113320504D02*
X145514850Y-113358600D01*
X145514850Y-113358600D02*
X145552945Y-113396695D01*
X145552945Y-113396695D02*
X145591041Y-113358600D01*
X145591041Y-113358600D02*
X145552945Y-113320504D01*
X145552945Y-113320504D02*
X145552945Y-113396695D01*
X173552945Y-91032549D02*
X173514850Y-91070645D01*
X173514850Y-91070645D02*
X173552945Y-91108740D01*
X173552945Y-91108740D02*
X173591041Y-91070645D01*
X173591041Y-91070645D02*
X173552945Y-91032549D01*
X173552945Y-91032549D02*
X173552945Y-91108740D01*
X173552945Y-92320504D02*
X173514850Y-92358600D01*
X173514850Y-92358600D02*
X173552945Y-92396695D01*
X173552945Y-92396695D02*
X173591041Y-92358600D01*
X173591041Y-92358600D02*
X173552945Y-92320504D01*
X173552945Y-92320504D02*
X173552945Y-92396695D01*
X131502945Y-105032549D02*
X131464850Y-105070645D01*
X131464850Y-105070645D02*
X131502945Y-105108740D01*
X131502945Y-105108740D02*
X131541041Y-105070645D01*
X131541041Y-105070645D02*
X131502945Y-105032549D01*
X131502945Y-105032549D02*
X131502945Y-105108740D01*
X131502945Y-106320504D02*
X131464850Y-106358600D01*
X131464850Y-106358600D02*
X131502945Y-106396695D01*
X131502945Y-106396695D02*
X131541041Y-106358600D01*
X131541041Y-106358600D02*
X131502945Y-106320504D01*
X131502945Y-106320504D02*
X131502945Y-106396695D01*
X159502945Y-98032549D02*
X159464850Y-98070645D01*
X159464850Y-98070645D02*
X159502945Y-98108740D01*
X159502945Y-98108740D02*
X159541041Y-98070645D01*
X159541041Y-98070645D02*
X159502945Y-98032549D01*
X159502945Y-98032549D02*
X159502945Y-98108740D01*
X159502945Y-99320504D02*
X159464850Y-99358600D01*
X159464850Y-99358600D02*
X159502945Y-99396695D01*
X159502945Y-99396695D02*
X159541041Y-99358600D01*
X159541041Y-99358600D02*
X159502945Y-99320504D01*
X159502945Y-99320504D02*
X159502945Y-99396695D01*
X138552945Y-112032549D02*
X138514850Y-112070645D01*
X138514850Y-112070645D02*
X138552945Y-112108740D01*
X138552945Y-112108740D02*
X138591041Y-112070645D01*
X138591041Y-112070645D02*
X138552945Y-112032549D01*
X138552945Y-112032549D02*
X138552945Y-112108740D01*
X138552945Y-113320504D02*
X138514850Y-113358600D01*
X138514850Y-113358600D02*
X138552945Y-113396695D01*
X138552945Y-113396695D02*
X138591041Y-113358600D01*
X138591041Y-113358600D02*
X138552945Y-113320504D01*
X138552945Y-113320504D02*
X138552945Y-113396695D01*
X124530445Y-84082549D02*
X124492350Y-84120645D01*
X124492350Y-84120645D02*
X124530445Y-84158740D01*
X124530445Y-84158740D02*
X124568541Y-84120645D01*
X124568541Y-84120645D02*
X124530445Y-84082549D01*
X124530445Y-84082549D02*
X124530445Y-84158740D01*
X124530445Y-85370504D02*
X124492350Y-85408600D01*
X124492350Y-85408600D02*
X124530445Y-85446695D01*
X124530445Y-85446695D02*
X124568541Y-85408600D01*
X124568541Y-85408600D02*
X124530445Y-85370504D01*
X124530445Y-85370504D02*
X124530445Y-85446695D01*
X145527945Y-77057549D02*
X145489850Y-77095645D01*
X145489850Y-77095645D02*
X145527945Y-77133740D01*
X145527945Y-77133740D02*
X145566041Y-77095645D01*
X145566041Y-77095645D02*
X145527945Y-77057549D01*
X145527945Y-77057549D02*
X145527945Y-77133740D01*
X145527945Y-78345504D02*
X145489850Y-78383600D01*
X145489850Y-78383600D02*
X145527945Y-78421695D01*
X145527945Y-78421695D02*
X145566041Y-78383600D01*
X145566041Y-78383600D02*
X145527945Y-78345504D01*
X145527945Y-78345504D02*
X145527945Y-78421695D01*
X138577945Y-84082549D02*
X138539850Y-84120645D01*
X138539850Y-84120645D02*
X138577945Y-84158740D01*
X138577945Y-84158740D02*
X138616041Y-84120645D01*
X138616041Y-84120645D02*
X138577945Y-84082549D01*
X138577945Y-84082549D02*
X138577945Y-84158740D01*
X138577945Y-85370504D02*
X138539850Y-85408600D01*
X138539850Y-85408600D02*
X138577945Y-85446695D01*
X138577945Y-85446695D02*
X138616041Y-85408600D01*
X138616041Y-85408600D02*
X138577945Y-85370504D01*
X138577945Y-85370504D02*
X138577945Y-85446695D01*
X138565445Y-119032549D02*
X138527350Y-119070645D01*
X138527350Y-119070645D02*
X138565445Y-119108740D01*
X138565445Y-119108740D02*
X138603541Y-119070645D01*
X138603541Y-119070645D02*
X138565445Y-119032549D01*
X138565445Y-119032549D02*
X138565445Y-119108740D01*
X138565445Y-120320504D02*
X138527350Y-120358600D01*
X138527350Y-120358600D02*
X138565445Y-120396695D01*
X138565445Y-120396695D02*
X138603541Y-120358600D01*
X138603541Y-120358600D02*
X138565445Y-120320504D01*
X138565445Y-120320504D02*
X138565445Y-120396695D01*
X138602945Y-105032549D02*
X138564850Y-105070645D01*
X138564850Y-105070645D02*
X138602945Y-105108740D01*
X138602945Y-105108740D02*
X138641041Y-105070645D01*
X138641041Y-105070645D02*
X138602945Y-105032549D01*
X138602945Y-105032549D02*
X138602945Y-105108740D01*
X138602945Y-106320504D02*
X138564850Y-106358600D01*
X138564850Y-106358600D02*
X138602945Y-106396695D01*
X138602945Y-106396695D02*
X138641041Y-106358600D01*
X138641041Y-106358600D02*
X138602945Y-106320504D01*
X138602945Y-106320504D02*
X138602945Y-106396695D01*
X124552945Y-98032549D02*
X124514850Y-98070645D01*
X124514850Y-98070645D02*
X124552945Y-98108740D01*
X124552945Y-98108740D02*
X124591041Y-98070645D01*
X124591041Y-98070645D02*
X124552945Y-98032549D01*
X124552945Y-98032549D02*
X124552945Y-98108740D01*
X124552945Y-99320504D02*
X124514850Y-99358600D01*
X124514850Y-99358600D02*
X124552945Y-99396695D01*
X124552945Y-99396695D02*
X124591041Y-99358600D01*
X124591041Y-99358600D02*
X124552945Y-99320504D01*
X124552945Y-99320504D02*
X124552945Y-99396695D01*
X166515445Y-119032549D02*
X166477350Y-119070645D01*
X166477350Y-119070645D02*
X166515445Y-119108740D01*
X166515445Y-119108740D02*
X166553541Y-119070645D01*
X166553541Y-119070645D02*
X166515445Y-119032549D01*
X166515445Y-119032549D02*
X166515445Y-119108740D01*
X166515445Y-120320504D02*
X166477350Y-120358600D01*
X166477350Y-120358600D02*
X166515445Y-120396695D01*
X166515445Y-120396695D02*
X166553541Y-120358600D01*
X166553541Y-120358600D02*
X166515445Y-120320504D01*
X166515445Y-120320504D02*
X166515445Y-120396695D01*
X173552945Y-70032549D02*
X173514850Y-70070645D01*
X173514850Y-70070645D02*
X173552945Y-70108740D01*
X173552945Y-70108740D02*
X173591041Y-70070645D01*
X173591041Y-70070645D02*
X173552945Y-70032549D01*
X173552945Y-70032549D02*
X173552945Y-70108740D01*
X173552945Y-71320504D02*
X173514850Y-71358600D01*
X173514850Y-71358600D02*
X173552945Y-71396695D01*
X173552945Y-71396695D02*
X173591041Y-71358600D01*
X173591041Y-71358600D02*
X173552945Y-71320504D01*
X173552945Y-71320504D02*
X173552945Y-71396695D01*
X173515445Y-119032549D02*
X173477350Y-119070645D01*
X173477350Y-119070645D02*
X173515445Y-119108740D01*
X173515445Y-119108740D02*
X173553541Y-119070645D01*
X173553541Y-119070645D02*
X173515445Y-119032549D01*
X173515445Y-119032549D02*
X173515445Y-119108740D01*
X173515445Y-120320504D02*
X173477350Y-120358600D01*
X173477350Y-120358600D02*
X173515445Y-120396695D01*
X173515445Y-120396695D02*
X173553541Y-120358600D01*
X173553541Y-120358600D02*
X173515445Y-120320504D01*
X173515445Y-120320504D02*
X173515445Y-120396695D01*
X138602945Y-98032549D02*
X138564850Y-98070645D01*
X138564850Y-98070645D02*
X138602945Y-98108740D01*
X138602945Y-98108740D02*
X138641041Y-98070645D01*
X138641041Y-98070645D02*
X138602945Y-98032549D01*
X138602945Y-98032549D02*
X138602945Y-98108740D01*
X138602945Y-99320504D02*
X138564850Y-99358600D01*
X138564850Y-99358600D02*
X138602945Y-99396695D01*
X138602945Y-99396695D02*
X138641041Y-99358600D01*
X138641041Y-99358600D02*
X138602945Y-99320504D01*
X138602945Y-99320504D02*
X138602945Y-99396695D01*
X131552945Y-84082549D02*
X131514850Y-84120645D01*
X131514850Y-84120645D02*
X131552945Y-84158740D01*
X131552945Y-84158740D02*
X131591041Y-84120645D01*
X131591041Y-84120645D02*
X131552945Y-84082549D01*
X131552945Y-84082549D02*
X131552945Y-84158740D01*
X131552945Y-85370504D02*
X131514850Y-85408600D01*
X131514850Y-85408600D02*
X131552945Y-85446695D01*
X131552945Y-85446695D02*
X131591041Y-85408600D01*
X131591041Y-85408600D02*
X131552945Y-85370504D01*
X131552945Y-85370504D02*
X131552945Y-85446695D01*
X166552945Y-105032549D02*
X166514850Y-105070645D01*
X166514850Y-105070645D02*
X166552945Y-105108740D01*
X166552945Y-105108740D02*
X166591041Y-105070645D01*
X166591041Y-105070645D02*
X166552945Y-105032549D01*
X166552945Y-105032549D02*
X166552945Y-105108740D01*
X166552945Y-106320504D02*
X166514850Y-106358600D01*
X166514850Y-106358600D02*
X166552945Y-106396695D01*
X166552945Y-106396695D02*
X166591041Y-106358600D01*
X166591041Y-106358600D02*
X166552945Y-106320504D01*
X166552945Y-106320504D02*
X166552945Y-106396695D01*
X152552945Y-91032549D02*
X152514850Y-91070645D01*
X152514850Y-91070645D02*
X152552945Y-91108740D01*
X152552945Y-91108740D02*
X152591041Y-91070645D01*
X152591041Y-91070645D02*
X152552945Y-91032549D01*
X152552945Y-91032549D02*
X152552945Y-91108740D01*
X152552945Y-92320504D02*
X152514850Y-92358600D01*
X152514850Y-92358600D02*
X152552945Y-92396695D01*
X152552945Y-92396695D02*
X152591041Y-92358600D01*
X152591041Y-92358600D02*
X152552945Y-92320504D01*
X152552945Y-92320504D02*
X152552945Y-92396695D01*
X159565445Y-119032549D02*
X159527350Y-119070645D01*
X159527350Y-119070645D02*
X159565445Y-119108740D01*
X159565445Y-119108740D02*
X159603541Y-119070645D01*
X159603541Y-119070645D02*
X159565445Y-119032549D01*
X159565445Y-119032549D02*
X159565445Y-119108740D01*
X159565445Y-120320504D02*
X159527350Y-120358600D01*
X159527350Y-120358600D02*
X159565445Y-120396695D01*
X159565445Y-120396695D02*
X159603541Y-120358600D01*
X159603541Y-120358600D02*
X159565445Y-120320504D01*
X159565445Y-120320504D02*
X159565445Y-120396695D01*
X124477945Y-77057549D02*
X124439850Y-77095645D01*
X124439850Y-77095645D02*
X124477945Y-77133740D01*
X124477945Y-77133740D02*
X124516041Y-77095645D01*
X124516041Y-77095645D02*
X124477945Y-77057549D01*
X124477945Y-77057549D02*
X124477945Y-77133740D01*
X124477945Y-78345504D02*
X124439850Y-78383600D01*
X124439850Y-78383600D02*
X124477945Y-78421695D01*
X124477945Y-78421695D02*
X124516041Y-78383600D01*
X124516041Y-78383600D02*
X124477945Y-78345504D01*
X124477945Y-78345504D02*
X124477945Y-78421695D01*
X152552945Y-77032549D02*
X152514850Y-77070645D01*
X152514850Y-77070645D02*
X152552945Y-77108740D01*
X152552945Y-77108740D02*
X152591041Y-77070645D01*
X152591041Y-77070645D02*
X152552945Y-77032549D01*
X152552945Y-77032549D02*
X152552945Y-77108740D01*
X152552945Y-78320504D02*
X152514850Y-78358600D01*
X152514850Y-78358600D02*
X152552945Y-78396695D01*
X152552945Y-78396695D02*
X152591041Y-78358600D01*
X152591041Y-78358600D02*
X152552945Y-78320504D01*
X152552945Y-78320504D02*
X152552945Y-78396695D01*
X152565445Y-119032549D02*
X152527350Y-119070645D01*
X152527350Y-119070645D02*
X152565445Y-119108740D01*
X152565445Y-119108740D02*
X152603541Y-119070645D01*
X152603541Y-119070645D02*
X152565445Y-119032549D01*
X152565445Y-119032549D02*
X152565445Y-119108740D01*
X152565445Y-120320504D02*
X152527350Y-120358600D01*
X152527350Y-120358600D02*
X152565445Y-120396695D01*
X152565445Y-120396695D02*
X152603541Y-120358600D01*
X152603541Y-120358600D02*
X152565445Y-120320504D01*
X152565445Y-120320504D02*
X152565445Y-120396695D01*
X159502945Y-105032549D02*
X159464850Y-105070645D01*
X159464850Y-105070645D02*
X159502945Y-105108740D01*
X159502945Y-105108740D02*
X159541041Y-105070645D01*
X159541041Y-105070645D02*
X159502945Y-105032549D01*
X159502945Y-105032549D02*
X159502945Y-105108740D01*
X159502945Y-106320504D02*
X159464850Y-106358600D01*
X159464850Y-106358600D02*
X159502945Y-106396695D01*
X159502945Y-106396695D02*
X159541041Y-106358600D01*
X159541041Y-106358600D02*
X159502945Y-106320504D01*
X159502945Y-106320504D02*
X159502945Y-106396695D01*
X145552945Y-91032549D02*
X145514850Y-91070645D01*
X145514850Y-91070645D02*
X145552945Y-91108740D01*
X145552945Y-91108740D02*
X145591041Y-91070645D01*
X145591041Y-91070645D02*
X145552945Y-91032549D01*
X145552945Y-91032549D02*
X145552945Y-91108740D01*
X145552945Y-92320504D02*
X145514850Y-92358600D01*
X145514850Y-92358600D02*
X145552945Y-92396695D01*
X145552945Y-92396695D02*
X145591041Y-92358600D01*
X145591041Y-92358600D02*
X145552945Y-92320504D01*
X145552945Y-92320504D02*
X145552945Y-92396695D01*
X145552945Y-84082549D02*
X145514850Y-84120645D01*
X145514850Y-84120645D02*
X145552945Y-84158740D01*
X145552945Y-84158740D02*
X145591041Y-84120645D01*
X145591041Y-84120645D02*
X145552945Y-84082549D01*
X145552945Y-84082549D02*
X145552945Y-84158740D01*
X145552945Y-85370504D02*
X145514850Y-85408600D01*
X145514850Y-85408600D02*
X145552945Y-85446695D01*
X145552945Y-85446695D02*
X145591041Y-85408600D01*
X145591041Y-85408600D02*
X145552945Y-85370504D01*
X145552945Y-85370504D02*
X145552945Y-85446695D01*
X166502945Y-69957549D02*
X166464850Y-69995645D01*
X166464850Y-69995645D02*
X166502945Y-70033740D01*
X166502945Y-70033740D02*
X166541041Y-69995645D01*
X166541041Y-69995645D02*
X166502945Y-69957549D01*
X166502945Y-69957549D02*
X166502945Y-70033740D01*
X166502945Y-71245504D02*
X166464850Y-71283600D01*
X166464850Y-71283600D02*
X166502945Y-71321695D01*
X166502945Y-71321695D02*
X166541041Y-71283600D01*
X166541041Y-71283600D02*
X166502945Y-71245504D01*
X166502945Y-71245504D02*
X166502945Y-71321695D01*
X159452945Y-69982549D02*
X159414850Y-70020645D01*
X159414850Y-70020645D02*
X159452945Y-70058740D01*
X159452945Y-70058740D02*
X159491041Y-70020645D01*
X159491041Y-70020645D02*
X159452945Y-69982549D01*
X159452945Y-69982549D02*
X159452945Y-70058740D01*
X159452945Y-71270504D02*
X159414850Y-71308600D01*
X159414850Y-71308600D02*
X159452945Y-71346695D01*
X159452945Y-71346695D02*
X159491041Y-71308600D01*
X159491041Y-71308600D02*
X159452945Y-71270504D01*
X159452945Y-71270504D02*
X159452945Y-71346695D01*
X166552945Y-77032549D02*
X166514850Y-77070645D01*
X166514850Y-77070645D02*
X166552945Y-77108740D01*
X166552945Y-77108740D02*
X166591041Y-77070645D01*
X166591041Y-77070645D02*
X166552945Y-77032549D01*
X166552945Y-77032549D02*
X166552945Y-77108740D01*
X166552945Y-78320504D02*
X166514850Y-78358600D01*
X166514850Y-78358600D02*
X166552945Y-78396695D01*
X166552945Y-78396695D02*
X166591041Y-78358600D01*
X166591041Y-78358600D02*
X166552945Y-78320504D01*
X166552945Y-78320504D02*
X166552945Y-78396695D01*
X173565445Y-105032549D02*
X173527350Y-105070645D01*
X173527350Y-105070645D02*
X173565445Y-105108740D01*
X173565445Y-105108740D02*
X173603541Y-105070645D01*
X173603541Y-105070645D02*
X173565445Y-105032549D01*
X173565445Y-105032549D02*
X173565445Y-105108740D01*
X173565445Y-106320504D02*
X173527350Y-106358600D01*
X173527350Y-106358600D02*
X173565445Y-106396695D01*
X173565445Y-106396695D02*
X173603541Y-106358600D01*
X173603541Y-106358600D02*
X173565445Y-106320504D01*
X173565445Y-106320504D02*
X173565445Y-106396695D01*
X124552945Y-112032549D02*
X124514850Y-112070645D01*
X124514850Y-112070645D02*
X124552945Y-112108740D01*
X124552945Y-112108740D02*
X124591041Y-112070645D01*
X124591041Y-112070645D02*
X124552945Y-112032549D01*
X124552945Y-112032549D02*
X124552945Y-112108740D01*
X124552945Y-113320504D02*
X124514850Y-113358600D01*
X124514850Y-113358600D02*
X124552945Y-113396695D01*
X124552945Y-113396695D02*
X124591041Y-113358600D01*
X124591041Y-113358600D02*
X124552945Y-113320504D01*
X124552945Y-113320504D02*
X124552945Y-113396695D01*
X131602945Y-91032549D02*
X131564850Y-91070645D01*
X131564850Y-91070645D02*
X131602945Y-91108740D01*
X131602945Y-91108740D02*
X131641041Y-91070645D01*
X131641041Y-91070645D02*
X131602945Y-91032549D01*
X131602945Y-91032549D02*
X131602945Y-91108740D01*
X131602945Y-92320504D02*
X131564850Y-92358600D01*
X131564850Y-92358600D02*
X131602945Y-92396695D01*
X131602945Y-92396695D02*
X131641041Y-92358600D01*
X131641041Y-92358600D02*
X131602945Y-92320504D01*
X131602945Y-92320504D02*
X131602945Y-92396695D01*
X173515445Y-112032549D02*
X173477350Y-112070645D01*
X173477350Y-112070645D02*
X173515445Y-112108740D01*
X173515445Y-112108740D02*
X173553541Y-112070645D01*
X173553541Y-112070645D02*
X173515445Y-112032549D01*
X173515445Y-112032549D02*
X173515445Y-112108740D01*
X173515445Y-113320504D02*
X173477350Y-113358600D01*
X173477350Y-113358600D02*
X173515445Y-113396695D01*
X173515445Y-113396695D02*
X173553541Y-113358600D01*
X173553541Y-113358600D02*
X173515445Y-113320504D01*
X173515445Y-113320504D02*
X173515445Y-113396695D01*
X138527945Y-70007549D02*
X138489850Y-70045645D01*
X138489850Y-70045645D02*
X138527945Y-70083740D01*
X138527945Y-70083740D02*
X138566041Y-70045645D01*
X138566041Y-70045645D02*
X138527945Y-70007549D01*
X138527945Y-70007549D02*
X138527945Y-70083740D01*
X138527945Y-71295504D02*
X138489850Y-71333600D01*
X138489850Y-71333600D02*
X138527945Y-71371695D01*
X138527945Y-71371695D02*
X138566041Y-71333600D01*
X138566041Y-71333600D02*
X138527945Y-71295504D01*
X138527945Y-71295504D02*
X138527945Y-71371695D01*
X166515445Y-112032549D02*
X166477350Y-112070645D01*
X166477350Y-112070645D02*
X166515445Y-112108740D01*
X166515445Y-112108740D02*
X166553541Y-112070645D01*
X166553541Y-112070645D02*
X166515445Y-112032549D01*
X166515445Y-112032549D02*
X166515445Y-112108740D01*
X166515445Y-113320504D02*
X166477350Y-113358600D01*
X166477350Y-113358600D02*
X166515445Y-113396695D01*
X166515445Y-113396695D02*
X166553541Y-113358600D01*
X166553541Y-113358600D02*
X166515445Y-113320504D01*
X166515445Y-113320504D02*
X166515445Y-113396695D01*
X131502945Y-112032549D02*
X131464850Y-112070645D01*
X131464850Y-112070645D02*
X131502945Y-112108740D01*
X131502945Y-112108740D02*
X131541041Y-112070645D01*
X131541041Y-112070645D02*
X131502945Y-112032549D01*
X131502945Y-112032549D02*
X131502945Y-112108740D01*
X131502945Y-113320504D02*
X131464850Y-113358600D01*
X131464850Y-113358600D02*
X131502945Y-113396695D01*
X131502945Y-113396695D02*
X131541041Y-113358600D01*
X131541041Y-113358600D02*
X131502945Y-113320504D01*
X131502945Y-113320504D02*
X131502945Y-113396695D01*
X145565445Y-119032549D02*
X145527350Y-119070645D01*
X145527350Y-119070645D02*
X145565445Y-119108740D01*
X145565445Y-119108740D02*
X145603541Y-119070645D01*
X145603541Y-119070645D02*
X145565445Y-119032549D01*
X145565445Y-119032549D02*
X145565445Y-119108740D01*
X145565445Y-120320504D02*
X145527350Y-120358600D01*
X145527350Y-120358600D02*
X145565445Y-120396695D01*
X145565445Y-120396695D02*
X145603541Y-120358600D01*
X145603541Y-120358600D02*
X145565445Y-120320504D01*
X145565445Y-120320504D02*
X145565445Y-120396695D01*
X131465445Y-98032549D02*
X131427350Y-98070645D01*
X131427350Y-98070645D02*
X131465445Y-98108740D01*
X131465445Y-98108740D02*
X131503541Y-98070645D01*
X131503541Y-98070645D02*
X131465445Y-98032549D01*
X131465445Y-98032549D02*
X131465445Y-98108740D01*
X131465445Y-99320504D02*
X131427350Y-99358600D01*
X131427350Y-99358600D02*
X131465445Y-99396695D01*
X131465445Y-99396695D02*
X131503541Y-99358600D01*
X131503541Y-99358600D02*
X131465445Y-99320504D01*
X131465445Y-99320504D02*
X131465445Y-99396695D01*
X159502945Y-91032549D02*
X159464850Y-91070645D01*
X159464850Y-91070645D02*
X159502945Y-91108740D01*
X159502945Y-91108740D02*
X159541041Y-91070645D01*
X159541041Y-91070645D02*
X159502945Y-91032549D01*
X159502945Y-91032549D02*
X159502945Y-91108740D01*
X159502945Y-92320504D02*
X159464850Y-92358600D01*
X159464850Y-92358600D02*
X159502945Y-92396695D01*
X159502945Y-92396695D02*
X159541041Y-92358600D01*
X159541041Y-92358600D02*
X159502945Y-92320504D01*
X159502945Y-92320504D02*
X159502945Y-92396695D01*
X166552945Y-91032549D02*
X166514850Y-91070645D01*
X166514850Y-91070645D02*
X166552945Y-91108740D01*
X166552945Y-91108740D02*
X166591041Y-91070645D01*
X166591041Y-91070645D02*
X166552945Y-91032549D01*
X166552945Y-91032549D02*
X166552945Y-91108740D01*
X166552945Y-92320504D02*
X166514850Y-92358600D01*
X166514850Y-92358600D02*
X166552945Y-92396695D01*
X166552945Y-92396695D02*
X166591041Y-92358600D01*
X166591041Y-92358600D02*
X166552945Y-92320504D01*
X166552945Y-92320504D02*
X166552945Y-92396695D01*
X173552945Y-98032549D02*
X173514850Y-98070645D01*
X173514850Y-98070645D02*
X173552945Y-98108740D01*
X173552945Y-98108740D02*
X173591041Y-98070645D01*
X173591041Y-98070645D02*
X173552945Y-98032549D01*
X173552945Y-98032549D02*
X173552945Y-98108740D01*
X173552945Y-99320504D02*
X173514850Y-99358600D01*
X173514850Y-99358600D02*
X173552945Y-99396695D01*
X173552945Y-99396695D02*
X173591041Y-99358600D01*
X173591041Y-99358600D02*
X173552945Y-99320504D01*
X173552945Y-99320504D02*
X173552945Y-99396695D01*
X131415445Y-70007549D02*
X131377350Y-70045645D01*
X131377350Y-70045645D02*
X131415445Y-70083740D01*
X131415445Y-70083740D02*
X131453541Y-70045645D01*
X131453541Y-70045645D02*
X131415445Y-70007549D01*
X131415445Y-70007549D02*
X131415445Y-70083740D01*
X131415445Y-71295504D02*
X131377350Y-71333600D01*
X131377350Y-71333600D02*
X131415445Y-71371695D01*
X131415445Y-71371695D02*
X131453541Y-71333600D01*
X131453541Y-71333600D02*
X131415445Y-71295504D01*
X131415445Y-71295504D02*
X131415445Y-71371695D01*
X145515445Y-70007549D02*
X145477350Y-70045645D01*
X145477350Y-70045645D02*
X145515445Y-70083740D01*
X145515445Y-70083740D02*
X145553541Y-70045645D01*
X145553541Y-70045645D02*
X145515445Y-70007549D01*
X145515445Y-70007549D02*
X145515445Y-70083740D01*
X145515445Y-71295504D02*
X145477350Y-71333600D01*
X145477350Y-71333600D02*
X145515445Y-71371695D01*
X145515445Y-71371695D02*
X145553541Y-71333600D01*
X145553541Y-71333600D02*
X145515445Y-71295504D01*
X145515445Y-71295504D02*
X145515445Y-71371695D01*
X138515445Y-77057549D02*
X138477350Y-77095645D01*
X138477350Y-77095645D02*
X138515445Y-77133740D01*
X138515445Y-77133740D02*
X138553541Y-77095645D01*
X138553541Y-77095645D02*
X138515445Y-77057549D01*
X138515445Y-77057549D02*
X138515445Y-77133740D01*
X138515445Y-78345504D02*
X138477350Y-78383600D01*
X138477350Y-78383600D02*
X138515445Y-78421695D01*
X138515445Y-78421695D02*
X138553541Y-78383600D01*
X138553541Y-78383600D02*
X138515445Y-78345504D01*
X138515445Y-78345504D02*
X138515445Y-78421695D01*
X152552945Y-70057549D02*
X152514850Y-70095645D01*
X152514850Y-70095645D02*
X152552945Y-70133740D01*
X152552945Y-70133740D02*
X152591041Y-70095645D01*
X152591041Y-70095645D02*
X152552945Y-70057549D01*
X152552945Y-70057549D02*
X152552945Y-70133740D01*
X152552945Y-71345504D02*
X152514850Y-71383600D01*
X152514850Y-71383600D02*
X152552945Y-71421695D01*
X152552945Y-71421695D02*
X152591041Y-71383600D01*
X152591041Y-71383600D02*
X152552945Y-71345504D01*
X152552945Y-71345504D02*
X152552945Y-71421695D01*
X166552945Y-84082549D02*
X166514850Y-84120645D01*
X166514850Y-84120645D02*
X166552945Y-84158740D01*
X166552945Y-84158740D02*
X166591041Y-84120645D01*
X166591041Y-84120645D02*
X166552945Y-84082549D01*
X166552945Y-84082549D02*
X166552945Y-84158740D01*
X166552945Y-85370504D02*
X166514850Y-85408600D01*
X166514850Y-85408600D02*
X166552945Y-85446695D01*
X166552945Y-85446695D02*
X166591041Y-85408600D01*
X166591041Y-85408600D02*
X166552945Y-85370504D01*
X166552945Y-85370504D02*
X166552945Y-85446695D01*
X152552945Y-98032549D02*
X152514850Y-98070645D01*
X152514850Y-98070645D02*
X152552945Y-98108740D01*
X152552945Y-98108740D02*
X152591041Y-98070645D01*
X152591041Y-98070645D02*
X152552945Y-98032549D01*
X152552945Y-98032549D02*
X152552945Y-98108740D01*
X152552945Y-99320504D02*
X152514850Y-99358600D01*
X152514850Y-99358600D02*
X152552945Y-99396695D01*
X152552945Y-99396695D02*
X152591041Y-99358600D01*
X152591041Y-99358600D02*
X152552945Y-99320504D01*
X152552945Y-99320504D02*
X152552945Y-99396695D01*
X138602945Y-91032549D02*
X138564850Y-91070645D01*
X138564850Y-91070645D02*
X138602945Y-91108740D01*
X138602945Y-91108740D02*
X138641041Y-91070645D01*
X138641041Y-91070645D02*
X138602945Y-91032549D01*
X138602945Y-91032549D02*
X138602945Y-91108740D01*
X138602945Y-92320504D02*
X138564850Y-92358600D01*
X138564850Y-92358600D02*
X138602945Y-92396695D01*
X138602945Y-92396695D02*
X138641041Y-92358600D01*
X138641041Y-92358600D02*
X138602945Y-92320504D01*
X138602945Y-92320504D02*
X138602945Y-92396695D01*
X173552945Y-84082549D02*
X173514850Y-84120645D01*
X173514850Y-84120645D02*
X173552945Y-84158740D01*
X173552945Y-84158740D02*
X173591041Y-84120645D01*
X173591041Y-84120645D02*
X173552945Y-84082549D01*
X173552945Y-84082549D02*
X173552945Y-84158740D01*
X173552945Y-85370504D02*
X173514850Y-85408600D01*
X173514850Y-85408600D02*
X173552945Y-85446695D01*
X173552945Y-85446695D02*
X173591041Y-85408600D01*
X173591041Y-85408600D02*
X173552945Y-85370504D01*
X173552945Y-85370504D02*
X173552945Y-85446695D01*
X173552945Y-77032549D02*
X173514850Y-77070645D01*
X173514850Y-77070645D02*
X173552945Y-77108740D01*
X173552945Y-77108740D02*
X173591041Y-77070645D01*
X173591041Y-77070645D02*
X173552945Y-77032549D01*
X173552945Y-77032549D02*
X173552945Y-77108740D01*
X173552945Y-78320504D02*
X173514850Y-78358600D01*
X173514850Y-78358600D02*
X173552945Y-78396695D01*
X173552945Y-78396695D02*
X173591041Y-78358600D01*
X173591041Y-78358600D02*
X173552945Y-78320504D01*
X173552945Y-78320504D02*
X173552945Y-78396695D01*
X124552945Y-105032549D02*
X124514850Y-105070645D01*
X124514850Y-105070645D02*
X124552945Y-105108740D01*
X124552945Y-105108740D02*
X124591041Y-105070645D01*
X124591041Y-105070645D02*
X124552945Y-105032549D01*
X124552945Y-105032549D02*
X124552945Y-105108740D01*
X124552945Y-106320504D02*
X124514850Y-106358600D01*
X124514850Y-106358600D02*
X124552945Y-106396695D01*
X124552945Y-106396695D02*
X124591041Y-106358600D01*
X124591041Y-106358600D02*
X124552945Y-106320504D01*
X124552945Y-106320504D02*
X124552945Y-106396695D01*
X152515445Y-112032549D02*
X152477350Y-112070645D01*
X152477350Y-112070645D02*
X152515445Y-112108740D01*
X152515445Y-112108740D02*
X152553541Y-112070645D01*
X152553541Y-112070645D02*
X152515445Y-112032549D01*
X152515445Y-112032549D02*
X152515445Y-112108740D01*
X152515445Y-113320504D02*
X152477350Y-113358600D01*
X152477350Y-113358600D02*
X152515445Y-113396695D01*
X152515445Y-113396695D02*
X152553541Y-113358600D01*
X152553541Y-113358600D02*
X152515445Y-113320504D01*
X152515445Y-113320504D02*
X152515445Y-113396695D01*
X159415445Y-112032549D02*
X159377350Y-112070645D01*
X159377350Y-112070645D02*
X159415445Y-112108740D01*
X159415445Y-112108740D02*
X159453541Y-112070645D01*
X159453541Y-112070645D02*
X159415445Y-112032549D01*
X159415445Y-112032549D02*
X159415445Y-112108740D01*
X159415445Y-113320504D02*
X159377350Y-113358600D01*
X159377350Y-113358600D02*
X159415445Y-113396695D01*
X159415445Y-113396695D02*
X159453541Y-113358600D01*
X159453541Y-113358600D02*
X159415445Y-113320504D01*
X159415445Y-113320504D02*
X159415445Y-113396695D01*
X166552945Y-98032549D02*
X166514850Y-98070645D01*
X166514850Y-98070645D02*
X166552945Y-98108740D01*
X166552945Y-98108740D02*
X166591041Y-98070645D01*
X166591041Y-98070645D02*
X166552945Y-98032549D01*
X166552945Y-98032549D02*
X166552945Y-98108740D01*
X166552945Y-99320504D02*
X166514850Y-99358600D01*
X166514850Y-99358600D02*
X166552945Y-99396695D01*
X166552945Y-99396695D02*
X166591041Y-99358600D01*
X166591041Y-99358600D02*
X166552945Y-99320504D01*
X166552945Y-99320504D02*
X166552945Y-99396695D01*
X145552945Y-98032549D02*
X145514850Y-98070645D01*
X145514850Y-98070645D02*
X145552945Y-98108740D01*
X145552945Y-98108740D02*
X145591041Y-98070645D01*
X145591041Y-98070645D02*
X145552945Y-98032549D01*
X145552945Y-98032549D02*
X145552945Y-98108740D01*
X145552945Y-99320504D02*
X145514850Y-99358600D01*
X145514850Y-99358600D02*
X145552945Y-99396695D01*
X145552945Y-99396695D02*
X145591041Y-99358600D01*
X145591041Y-99358600D02*
X145552945Y-99320504D01*
X145552945Y-99320504D02*
X145552945Y-99396695D01*
X131552945Y-119032549D02*
X131514850Y-119070645D01*
X131514850Y-119070645D02*
X131552945Y-119108740D01*
X131552945Y-119108740D02*
X131591041Y-119070645D01*
X131591041Y-119070645D02*
X131552945Y-119032549D01*
X131552945Y-119032549D02*
X131552945Y-119108740D01*
X131552945Y-120320504D02*
X131514850Y-120358600D01*
X131514850Y-120358600D02*
X131552945Y-120396695D01*
X131552945Y-120396695D02*
X131591041Y-120358600D01*
X131591041Y-120358600D02*
X131552945Y-120320504D01*
X131552945Y-120320504D02*
X131552945Y-120396695D01*
X124552945Y-119032549D02*
X124514850Y-119070645D01*
X124514850Y-119070645D02*
X124552945Y-119108740D01*
X124552945Y-119108740D02*
X124591041Y-119070645D01*
X124591041Y-119070645D02*
X124552945Y-119032549D01*
X124552945Y-119032549D02*
X124552945Y-119108740D01*
X124552945Y-120320504D02*
X124514850Y-120358600D01*
X124514850Y-120358600D02*
X124552945Y-120396695D01*
X124552945Y-120396695D02*
X124591041Y-120358600D01*
X124591041Y-120358600D02*
X124552945Y-120320504D01*
X124552945Y-120320504D02*
X124552945Y-120396695D01*
X159515445Y-84082549D02*
X159477350Y-84120645D01*
X159477350Y-84120645D02*
X159515445Y-84158740D01*
X159515445Y-84158740D02*
X159553541Y-84120645D01*
X159553541Y-84120645D02*
X159515445Y-84082549D01*
X159515445Y-84082549D02*
X159515445Y-84158740D01*
X159515445Y-85370504D02*
X159477350Y-85408600D01*
X159477350Y-85408600D02*
X159515445Y-85446695D01*
X159515445Y-85446695D02*
X159553541Y-85408600D01*
X159553541Y-85408600D02*
X159515445Y-85370504D01*
X159515445Y-85370504D02*
X159515445Y-85446695D01*
%TO.C,D18*%
D14*
X123812500Y-69730000D02*
X121387500Y-69730000D01*
X121387500Y-71630000D01*
X123812500Y-71630000D01*
X123812500Y-69730000D01*
D15*
X122787500Y-70180000D02*
X121787500Y-70180000D01*
X121787500Y-71180000D01*
X122787500Y-71180000D01*
X122787500Y-70180000D01*
G36*
X122787500Y-70180000D02*
G01*
X121787500Y-70180000D01*
X121787500Y-71180000D01*
X122787500Y-71180000D01*
X122787500Y-70180000D01*
G37*
%TO.C,D40*%
D14*
X144900000Y-104705000D02*
X142475000Y-104705000D01*
X142475000Y-106605000D01*
X144900000Y-106605000D01*
X144900000Y-104705000D01*
D15*
X143875000Y-105155000D02*
X142875000Y-105155000D01*
X142875000Y-106155000D01*
X143875000Y-106155000D01*
X143875000Y-105155000D01*
G36*
X143875000Y-105155000D02*
G01*
X142875000Y-105155000D01*
X142875000Y-106155000D01*
X143875000Y-106155000D01*
X143875000Y-105155000D01*
G37*
%TO.C,D11*%
D14*
X123882500Y-90705000D02*
X121457500Y-90705000D01*
X121457500Y-92605000D01*
X123882500Y-92605000D01*
X123882500Y-90705000D01*
D15*
X122857500Y-91155000D02*
X121857500Y-91155000D01*
X121857500Y-92155000D01*
X122857500Y-92155000D01*
X122857500Y-91155000D01*
G36*
X122857500Y-91155000D02*
G01*
X121857500Y-91155000D01*
X121857500Y-92155000D01*
X122857500Y-92155000D01*
X122857500Y-91155000D01*
G37*
%TO.C,D25*%
D14*
X151900000Y-83755000D02*
X149475000Y-83755000D01*
X149475000Y-85655000D01*
X151900000Y-85655000D01*
X151900000Y-83755000D01*
D15*
X150875000Y-84205000D02*
X149875000Y-84205000D01*
X149875000Y-85205000D01*
X150875000Y-85205000D01*
X150875000Y-84205000D01*
G36*
X150875000Y-84205000D02*
G01*
X149875000Y-84205000D01*
X149875000Y-85205000D01*
X150875000Y-85205000D01*
X150875000Y-84205000D01*
G37*
%TO.C,D20*%
D14*
X130862500Y-76730000D02*
X128437500Y-76730000D01*
X128437500Y-78630000D01*
X130862500Y-78630000D01*
X130862500Y-76730000D01*
D15*
X129837500Y-77180000D02*
X128837500Y-77180000D01*
X128837500Y-78180000D01*
X129837500Y-78180000D01*
X129837500Y-77180000D01*
G36*
X129837500Y-77180000D02*
G01*
X128837500Y-77180000D01*
X128837500Y-78180000D01*
X129837500Y-78180000D01*
X129837500Y-77180000D01*
G37*
%TO.C,D42*%
D14*
X151900000Y-104705000D02*
X149475000Y-104705000D01*
X149475000Y-106605000D01*
X151900000Y-106605000D01*
X151900000Y-104705000D01*
D15*
X150875000Y-105155000D02*
X149875000Y-105155000D01*
X149875000Y-106155000D01*
X150875000Y-106155000D01*
X150875000Y-105155000D01*
G36*
X150875000Y-105155000D02*
G01*
X149875000Y-105155000D01*
X149875000Y-106155000D01*
X150875000Y-106155000D01*
X150875000Y-105155000D01*
G37*
%TO.C,D4*%
D14*
X158900000Y-76705000D02*
X156475000Y-76705000D01*
X156475000Y-78605000D01*
X158900000Y-78605000D01*
X158900000Y-76705000D01*
D15*
X157875000Y-77155000D02*
X156875000Y-77155000D01*
X156875000Y-78155000D01*
X157875000Y-78155000D01*
X157875000Y-77155000D01*
G36*
X157875000Y-77155000D02*
G01*
X156875000Y-77155000D01*
X156875000Y-78155000D01*
X157875000Y-78155000D01*
X157875000Y-77155000D01*
G37*
%TO.C,D55*%
D14*
X144900000Y-111705000D02*
X142475000Y-111705000D01*
X142475000Y-113605000D01*
X144900000Y-113605000D01*
X144900000Y-111705000D01*
D15*
X143875000Y-112155000D02*
X142875000Y-112155000D01*
X142875000Y-113155000D01*
X143875000Y-113155000D01*
X143875000Y-112155000D01*
G36*
X143875000Y-112155000D02*
G01*
X142875000Y-112155000D01*
X142875000Y-113155000D01*
X143875000Y-113155000D01*
X143875000Y-112155000D01*
G37*
%TO.C,D32*%
D14*
X172900000Y-90705000D02*
X170475000Y-90705000D01*
X170475000Y-92605000D01*
X172900000Y-92605000D01*
X172900000Y-90705000D01*
D15*
X171875000Y-91155000D02*
X170875000Y-91155000D01*
X170875000Y-92155000D01*
X171875000Y-92155000D01*
X171875000Y-91155000D01*
G36*
X171875000Y-91155000D02*
G01*
X170875000Y-91155000D01*
X170875000Y-92155000D01*
X171875000Y-92155000D01*
X171875000Y-91155000D01*
G37*
%TO.C,D36*%
D14*
X130850000Y-104705000D02*
X128425000Y-104705000D01*
X128425000Y-106605000D01*
X130850000Y-106605000D01*
X130850000Y-104705000D01*
D15*
X129825000Y-105155000D02*
X128825000Y-105155000D01*
X128825000Y-106155000D01*
X129825000Y-106155000D01*
X129825000Y-105155000D01*
G36*
X129825000Y-105155000D02*
G01*
X128825000Y-105155000D01*
X128825000Y-106155000D01*
X129825000Y-106155000D01*
X129825000Y-105155000D01*
G37*
%TO.C,D43*%
D14*
X158850000Y-97705000D02*
X156425000Y-97705000D01*
X156425000Y-99605000D01*
X158850000Y-99605000D01*
X158850000Y-97705000D01*
D15*
X157825000Y-98155000D02*
X156825000Y-98155000D01*
X156825000Y-99155000D01*
X157825000Y-99155000D01*
X157825000Y-98155000D01*
G36*
X157825000Y-98155000D02*
G01*
X156825000Y-98155000D01*
X156825000Y-99155000D01*
X157825000Y-99155000D01*
X157825000Y-98155000D01*
G37*
%TO.C,D53*%
D14*
X137900000Y-111705000D02*
X135475000Y-111705000D01*
X135475000Y-113605000D01*
X137900000Y-113605000D01*
X137900000Y-111705000D01*
D15*
X136875000Y-112155000D02*
X135875000Y-112155000D01*
X135875000Y-113155000D01*
X136875000Y-113155000D01*
X136875000Y-112155000D01*
G36*
X136875000Y-112155000D02*
G01*
X135875000Y-112155000D01*
X135875000Y-113155000D01*
X136875000Y-113155000D01*
X136875000Y-112155000D01*
G37*
%TO.C,D10*%
D14*
X123877500Y-83755000D02*
X121452500Y-83755000D01*
X121452500Y-85655000D01*
X123877500Y-85655000D01*
X123877500Y-83755000D01*
D15*
X122852500Y-84205000D02*
X121852500Y-84205000D01*
X121852500Y-85205000D01*
X122852500Y-85205000D01*
X122852500Y-84205000D01*
G36*
X122852500Y-84205000D02*
G01*
X121852500Y-84205000D01*
X121852500Y-85205000D01*
X122852500Y-85205000D01*
X122852500Y-84205000D01*
G37*
%TO.C,D17*%
D14*
X144875000Y-76730000D02*
X142450000Y-76730000D01*
X142450000Y-78630000D01*
X144875000Y-78630000D01*
X144875000Y-76730000D01*
D15*
X143850000Y-77180000D02*
X142850000Y-77180000D01*
X142850000Y-78180000D01*
X143850000Y-78180000D01*
X143850000Y-77180000D01*
G36*
X143850000Y-77180000D02*
G01*
X142850000Y-77180000D01*
X142850000Y-78180000D01*
X143850000Y-78180000D01*
X143850000Y-77180000D01*
G37*
%TO.C,D14*%
D14*
X137925000Y-83755000D02*
X135500000Y-83755000D01*
X135500000Y-85655000D01*
X137925000Y-85655000D01*
X137925000Y-83755000D01*
D15*
X136900000Y-84205000D02*
X135900000Y-84205000D01*
X135900000Y-85205000D01*
X136900000Y-85205000D01*
X136900000Y-84205000D01*
G36*
X136900000Y-84205000D02*
G01*
X135900000Y-84205000D01*
X135900000Y-85205000D01*
X136900000Y-85205000D01*
X136900000Y-84205000D01*
G37*
%TO.C,D54*%
D14*
X137912500Y-118705000D02*
X135487500Y-118705000D01*
X135487500Y-120605000D01*
X137912500Y-120605000D01*
X137912500Y-118705000D01*
D15*
X136887500Y-119155000D02*
X135887500Y-119155000D01*
X135887500Y-120155000D01*
X136887500Y-120155000D01*
X136887500Y-119155000D01*
G36*
X136887500Y-119155000D02*
G01*
X135887500Y-119155000D01*
X135887500Y-120155000D01*
X136887500Y-120155000D01*
X136887500Y-119155000D01*
G37*
%TO.C,D38*%
D14*
X137950000Y-104705000D02*
X135525000Y-104705000D01*
X135525000Y-106605000D01*
X137950000Y-106605000D01*
X137950000Y-104705000D01*
D15*
X136925000Y-105155000D02*
X135925000Y-105155000D01*
X135925000Y-106155000D01*
X136925000Y-106155000D01*
X136925000Y-105155000D01*
G36*
X136925000Y-105155000D02*
G01*
X135925000Y-105155000D01*
X135925000Y-106155000D01*
X136925000Y-106155000D01*
X136925000Y-105155000D01*
G37*
%TO.C,D33*%
D14*
X123900000Y-97705000D02*
X121475000Y-97705000D01*
X121475000Y-99605000D01*
X123900000Y-99605000D01*
X123900000Y-97705000D01*
D15*
X122875000Y-98155000D02*
X121875000Y-98155000D01*
X121875000Y-99155000D01*
X122875000Y-99155000D01*
X122875000Y-98155000D01*
G36*
X122875000Y-98155000D02*
G01*
X121875000Y-98155000D01*
X121875000Y-99155000D01*
X122875000Y-99155000D01*
X122875000Y-98155000D01*
G37*
%TO.C,D62*%
D14*
X165862500Y-118705000D02*
X163437500Y-118705000D01*
X163437500Y-120605000D01*
X165862500Y-120605000D01*
X165862500Y-118705000D01*
D15*
X164837500Y-119155000D02*
X163837500Y-119155000D01*
X163837500Y-120155000D01*
X164837500Y-120155000D01*
X164837500Y-119155000D01*
G36*
X164837500Y-119155000D02*
G01*
X163837500Y-119155000D01*
X163837500Y-120155000D01*
X164837500Y-120155000D01*
X164837500Y-119155000D01*
G37*
%TO.C,D8*%
D14*
X172900000Y-69705000D02*
X170475000Y-69705000D01*
X170475000Y-71605000D01*
X172900000Y-71605000D01*
X172900000Y-69705000D01*
D15*
X171875000Y-70155000D02*
X170875000Y-70155000D01*
X170875000Y-71155000D01*
X171875000Y-71155000D01*
X171875000Y-70155000D01*
G36*
X171875000Y-70155000D02*
G01*
X170875000Y-70155000D01*
X170875000Y-71155000D01*
X171875000Y-71155000D01*
X171875000Y-70155000D01*
G37*
%TO.C,D64*%
D14*
X172862500Y-118705000D02*
X170437500Y-118705000D01*
X170437500Y-120605000D01*
X172862500Y-120605000D01*
X172862500Y-118705000D01*
D15*
X171837500Y-119155000D02*
X170837500Y-119155000D01*
X170837500Y-120155000D01*
X171837500Y-120155000D01*
X171837500Y-119155000D01*
G36*
X171837500Y-119155000D02*
G01*
X170837500Y-119155000D01*
X170837500Y-120155000D01*
X171837500Y-120155000D01*
X171837500Y-119155000D01*
G37*
%TO.C,D37*%
D14*
X137950000Y-97705000D02*
X135525000Y-97705000D01*
X135525000Y-99605000D01*
X137950000Y-99605000D01*
X137950000Y-97705000D01*
D15*
X136925000Y-98155000D02*
X135925000Y-98155000D01*
X135925000Y-99155000D01*
X136925000Y-99155000D01*
X136925000Y-98155000D01*
G36*
X136925000Y-98155000D02*
G01*
X135925000Y-98155000D01*
X135925000Y-99155000D01*
X136925000Y-99155000D01*
X136925000Y-98155000D01*
G37*
%TO.C,D12*%
D14*
X130900000Y-83755000D02*
X128475000Y-83755000D01*
X128475000Y-85655000D01*
X130900000Y-85655000D01*
X130900000Y-83755000D01*
D15*
X129875000Y-84205000D02*
X128875000Y-84205000D01*
X128875000Y-85205000D01*
X129875000Y-85205000D01*
X129875000Y-84205000D01*
G36*
X129875000Y-84205000D02*
G01*
X128875000Y-84205000D01*
X128875000Y-85205000D01*
X129875000Y-85205000D01*
X129875000Y-84205000D01*
G37*
%TO.C,D46*%
D14*
X165900000Y-104705000D02*
X163475000Y-104705000D01*
X163475000Y-106605000D01*
X165900000Y-106605000D01*
X165900000Y-104705000D01*
D15*
X164875000Y-105155000D02*
X163875000Y-105155000D01*
X163875000Y-106155000D01*
X164875000Y-106155000D01*
X164875000Y-105155000D01*
G36*
X164875000Y-105155000D02*
G01*
X163875000Y-105155000D01*
X163875000Y-106155000D01*
X164875000Y-106155000D01*
X164875000Y-105155000D01*
G37*
%TO.C,D26*%
D14*
X151900000Y-90705000D02*
X149475000Y-90705000D01*
X149475000Y-92605000D01*
X151900000Y-92605000D01*
X151900000Y-90705000D01*
D15*
X150875000Y-91155000D02*
X149875000Y-91155000D01*
X149875000Y-92155000D01*
X150875000Y-92155000D01*
X150875000Y-91155000D01*
G36*
X150875000Y-91155000D02*
G01*
X149875000Y-91155000D01*
X149875000Y-92155000D01*
X150875000Y-92155000D01*
X150875000Y-91155000D01*
G37*
%TO.C,D60*%
D14*
X158912500Y-118705000D02*
X156487500Y-118705000D01*
X156487500Y-120605000D01*
X158912500Y-120605000D01*
X158912500Y-118705000D01*
D15*
X157887500Y-119155000D02*
X156887500Y-119155000D01*
X156887500Y-120155000D01*
X157887500Y-120155000D01*
X157887500Y-119155000D01*
G36*
X157887500Y-119155000D02*
G01*
X156887500Y-119155000D01*
X156887500Y-120155000D01*
X157887500Y-120155000D01*
X157887500Y-119155000D01*
G37*
%TO.C,D7*%
D14*
X123825000Y-76730000D02*
X121400000Y-76730000D01*
X121400000Y-78630000D01*
X123825000Y-78630000D01*
X123825000Y-76730000D01*
D15*
X122800000Y-77180000D02*
X121800000Y-77180000D01*
X121800000Y-78180000D01*
X122800000Y-78180000D01*
X122800000Y-77180000D01*
G36*
X122800000Y-77180000D02*
G01*
X121800000Y-77180000D01*
X121800000Y-78180000D01*
X122800000Y-78180000D01*
X122800000Y-77180000D01*
G37*
%TO.C,D2*%
D14*
X151900000Y-76705000D02*
X149475000Y-76705000D01*
X149475000Y-78605000D01*
X151900000Y-78605000D01*
X151900000Y-76705000D01*
D15*
X150875000Y-77155000D02*
X149875000Y-77155000D01*
X149875000Y-78155000D01*
X150875000Y-78155000D01*
X150875000Y-77155000D01*
G36*
X150875000Y-77155000D02*
G01*
X149875000Y-77155000D01*
X149875000Y-78155000D01*
X150875000Y-78155000D01*
X150875000Y-77155000D01*
G37*
%TO.C,D58*%
D14*
X151912500Y-118705000D02*
X149487500Y-118705000D01*
X149487500Y-120605000D01*
X151912500Y-120605000D01*
X151912500Y-118705000D01*
D15*
X150887500Y-119155000D02*
X149887500Y-119155000D01*
X149887500Y-120155000D01*
X150887500Y-120155000D01*
X150887500Y-119155000D01*
G36*
X150887500Y-119155000D02*
G01*
X149887500Y-119155000D01*
X149887500Y-120155000D01*
X150887500Y-120155000D01*
X150887500Y-119155000D01*
G37*
%TO.C,D44*%
D14*
X158850000Y-104705000D02*
X156425000Y-104705000D01*
X156425000Y-106605000D01*
X158850000Y-106605000D01*
X158850000Y-104705000D01*
D15*
X157825000Y-105155000D02*
X156825000Y-105155000D01*
X156825000Y-106155000D01*
X157825000Y-106155000D01*
X157825000Y-105155000D01*
G36*
X157825000Y-105155000D02*
G01*
X156825000Y-105155000D01*
X156825000Y-106155000D01*
X157825000Y-106155000D01*
X157825000Y-105155000D01*
G37*
%TO.C,D24*%
D14*
X144900000Y-90705000D02*
X142475000Y-90705000D01*
X142475000Y-92605000D01*
X144900000Y-92605000D01*
X144900000Y-90705000D01*
D15*
X143875000Y-91155000D02*
X142875000Y-91155000D01*
X142875000Y-92155000D01*
X143875000Y-92155000D01*
X143875000Y-91155000D01*
G36*
X143875000Y-91155000D02*
G01*
X142875000Y-91155000D01*
X142875000Y-92155000D01*
X143875000Y-92155000D01*
X143875000Y-91155000D01*
G37*
%TO.C,D23*%
D14*
X144900000Y-83755000D02*
X142475000Y-83755000D01*
X142475000Y-85655000D01*
X144900000Y-85655000D01*
X144900000Y-83755000D01*
D15*
X143875000Y-84205000D02*
X142875000Y-84205000D01*
X142875000Y-85205000D01*
X143875000Y-85205000D01*
X143875000Y-84205000D01*
G36*
X143875000Y-84205000D02*
G01*
X142875000Y-84205000D01*
X142875000Y-85205000D01*
X143875000Y-85205000D01*
X143875000Y-84205000D01*
G37*
%TO.C,D5*%
D14*
X165850000Y-69630000D02*
X163425000Y-69630000D01*
X163425000Y-71530000D01*
X165850000Y-71530000D01*
X165850000Y-69630000D01*
D15*
X164825000Y-70080000D02*
X163825000Y-70080000D01*
X163825000Y-71080000D01*
X164825000Y-71080000D01*
X164825000Y-70080000D01*
G36*
X164825000Y-70080000D02*
G01*
X163825000Y-70080000D01*
X163825000Y-71080000D01*
X164825000Y-71080000D01*
X164825000Y-70080000D01*
G37*
%TO.C,D3*%
D14*
X158800000Y-69655000D02*
X156375000Y-69655000D01*
X156375000Y-71555000D01*
X158800000Y-71555000D01*
X158800000Y-69655000D01*
D15*
X157775000Y-70105000D02*
X156775000Y-70105000D01*
X156775000Y-71105000D01*
X157775000Y-71105000D01*
X157775000Y-70105000D01*
G36*
X157775000Y-70105000D02*
G01*
X156775000Y-70105000D01*
X156775000Y-71105000D01*
X157775000Y-71105000D01*
X157775000Y-70105000D01*
G37*
%TO.C,D6*%
D14*
X165900000Y-76705000D02*
X163475000Y-76705000D01*
X163475000Y-78605000D01*
X165900000Y-78605000D01*
X165900000Y-76705000D01*
D15*
X164875000Y-77155000D02*
X163875000Y-77155000D01*
X163875000Y-78155000D01*
X164875000Y-78155000D01*
X164875000Y-77155000D01*
G36*
X164875000Y-77155000D02*
G01*
X163875000Y-77155000D01*
X163875000Y-78155000D01*
X164875000Y-78155000D01*
X164875000Y-77155000D01*
G37*
%TO.C,D48*%
D14*
X172912500Y-104705000D02*
X170487500Y-104705000D01*
X170487500Y-106605000D01*
X172912500Y-106605000D01*
X172912500Y-104705000D01*
D15*
X171887500Y-105155000D02*
X170887500Y-105155000D01*
X170887500Y-106155000D01*
X171887500Y-106155000D01*
X171887500Y-105155000D01*
G36*
X171887500Y-105155000D02*
G01*
X170887500Y-105155000D01*
X170887500Y-106155000D01*
X171887500Y-106155000D01*
X171887500Y-105155000D01*
G37*
%TO.C,D49*%
D14*
X123900000Y-111705000D02*
X121475000Y-111705000D01*
X121475000Y-113605000D01*
X123900000Y-113605000D01*
X123900000Y-111705000D01*
D15*
X122875000Y-112155000D02*
X121875000Y-112155000D01*
X121875000Y-113155000D01*
X122875000Y-113155000D01*
X122875000Y-112155000D01*
G36*
X122875000Y-112155000D02*
G01*
X121875000Y-112155000D01*
X121875000Y-113155000D01*
X122875000Y-113155000D01*
X122875000Y-112155000D01*
G37*
%TO.C,D13*%
D14*
X130950000Y-90705000D02*
X128525000Y-90705000D01*
X128525000Y-92605000D01*
X130950000Y-92605000D01*
X130950000Y-90705000D01*
D15*
X129925000Y-91155000D02*
X128925000Y-91155000D01*
X128925000Y-92155000D01*
X129925000Y-92155000D01*
X129925000Y-91155000D01*
G36*
X129925000Y-91155000D02*
G01*
X128925000Y-91155000D01*
X128925000Y-92155000D01*
X129925000Y-92155000D01*
X129925000Y-91155000D01*
G37*
%TO.C,D63*%
D14*
X172862500Y-111705000D02*
X170437500Y-111705000D01*
X170437500Y-113605000D01*
X172862500Y-113605000D01*
X172862500Y-111705000D01*
D15*
X171837500Y-112155000D02*
X170837500Y-112155000D01*
X170837500Y-113155000D01*
X171837500Y-113155000D01*
X171837500Y-112155000D01*
G36*
X171837500Y-112155000D02*
G01*
X170837500Y-112155000D01*
X170837500Y-113155000D01*
X171837500Y-113155000D01*
X171837500Y-112155000D01*
G37*
%TO.C,D21*%
D14*
X137875000Y-69680000D02*
X135450000Y-69680000D01*
X135450000Y-71580000D01*
X137875000Y-71580000D01*
X137875000Y-69680000D01*
D15*
X136850000Y-70130000D02*
X135850000Y-70130000D01*
X135850000Y-71130000D01*
X136850000Y-71130000D01*
X136850000Y-70130000D01*
G36*
X136850000Y-70130000D02*
G01*
X135850000Y-70130000D01*
X135850000Y-71130000D01*
X136850000Y-71130000D01*
X136850000Y-70130000D01*
G37*
%TO.C,D61*%
D14*
X165862500Y-111705000D02*
X163437500Y-111705000D01*
X163437500Y-113605000D01*
X165862500Y-113605000D01*
X165862500Y-111705000D01*
D15*
X164837500Y-112155000D02*
X163837500Y-112155000D01*
X163837500Y-113155000D01*
X164837500Y-113155000D01*
X164837500Y-112155000D01*
G36*
X164837500Y-112155000D02*
G01*
X163837500Y-112155000D01*
X163837500Y-113155000D01*
X164837500Y-113155000D01*
X164837500Y-112155000D01*
G37*
%TO.C,D51*%
D14*
X130850000Y-111705000D02*
X128425000Y-111705000D01*
X128425000Y-113605000D01*
X130850000Y-113605000D01*
X130850000Y-111705000D01*
D15*
X129825000Y-112155000D02*
X128825000Y-112155000D01*
X128825000Y-113155000D01*
X129825000Y-113155000D01*
X129825000Y-112155000D01*
G36*
X129825000Y-112155000D02*
G01*
X128825000Y-112155000D01*
X128825000Y-113155000D01*
X129825000Y-113155000D01*
X129825000Y-112155000D01*
G37*
%TO.C,D56*%
D14*
X144912500Y-118705000D02*
X142487500Y-118705000D01*
X142487500Y-120605000D01*
X144912500Y-120605000D01*
X144912500Y-118705000D01*
D15*
X143887500Y-119155000D02*
X142887500Y-119155000D01*
X142887500Y-120155000D01*
X143887500Y-120155000D01*
X143887500Y-119155000D01*
G36*
X143887500Y-119155000D02*
G01*
X142887500Y-119155000D01*
X142887500Y-120155000D01*
X143887500Y-120155000D01*
X143887500Y-119155000D01*
G37*
%TO.C,D35*%
D14*
X130812500Y-97705000D02*
X128387500Y-97705000D01*
X128387500Y-99605000D01*
X130812500Y-99605000D01*
X130812500Y-97705000D01*
D15*
X129787500Y-98155000D02*
X128787500Y-98155000D01*
X128787500Y-99155000D01*
X129787500Y-99155000D01*
X129787500Y-98155000D01*
G36*
X129787500Y-98155000D02*
G01*
X128787500Y-98155000D01*
X128787500Y-99155000D01*
X129787500Y-99155000D01*
X129787500Y-98155000D01*
G37*
%TO.C,D28*%
D14*
X158850000Y-90705000D02*
X156425000Y-90705000D01*
X156425000Y-92605000D01*
X158850000Y-92605000D01*
X158850000Y-90705000D01*
D15*
X157825000Y-91155000D02*
X156825000Y-91155000D01*
X156825000Y-92155000D01*
X157825000Y-92155000D01*
X157825000Y-91155000D01*
G36*
X157825000Y-91155000D02*
G01*
X156825000Y-91155000D01*
X156825000Y-92155000D01*
X157825000Y-92155000D01*
X157825000Y-91155000D01*
G37*
%TO.C,D30*%
D14*
X165900000Y-90705000D02*
X163475000Y-90705000D01*
X163475000Y-92605000D01*
X165900000Y-92605000D01*
X165900000Y-90705000D01*
D15*
X164875000Y-91155000D02*
X163875000Y-91155000D01*
X163875000Y-92155000D01*
X164875000Y-92155000D01*
X164875000Y-91155000D01*
G36*
X164875000Y-91155000D02*
G01*
X163875000Y-91155000D01*
X163875000Y-92155000D01*
X164875000Y-92155000D01*
X164875000Y-91155000D01*
G37*
%TO.C,D47*%
D14*
X172900000Y-97705000D02*
X170475000Y-97705000D01*
X170475000Y-99605000D01*
X172900000Y-99605000D01*
X172900000Y-97705000D01*
D15*
X171875000Y-98155000D02*
X170875000Y-98155000D01*
X170875000Y-99155000D01*
X171875000Y-99155000D01*
X171875000Y-98155000D01*
G36*
X171875000Y-98155000D02*
G01*
X170875000Y-98155000D01*
X170875000Y-99155000D01*
X171875000Y-99155000D01*
X171875000Y-98155000D01*
G37*
%TO.C,D19*%
D14*
X130762500Y-69680000D02*
X128337500Y-69680000D01*
X128337500Y-71580000D01*
X130762500Y-71580000D01*
X130762500Y-69680000D01*
D15*
X129737500Y-70130000D02*
X128737500Y-70130000D01*
X128737500Y-71130000D01*
X129737500Y-71130000D01*
X129737500Y-70130000D01*
G36*
X129737500Y-70130000D02*
G01*
X128737500Y-70130000D01*
X128737500Y-71130000D01*
X129737500Y-71130000D01*
X129737500Y-70130000D01*
G37*
%TO.C,D22*%
D14*
X144862500Y-69680000D02*
X142437500Y-69680000D01*
X142437500Y-71580000D01*
X144862500Y-71580000D01*
X144862500Y-69680000D01*
D15*
X143837500Y-70130000D02*
X142837500Y-70130000D01*
X142837500Y-71130000D01*
X143837500Y-71130000D01*
X143837500Y-70130000D01*
G36*
X143837500Y-70130000D02*
G01*
X142837500Y-70130000D01*
X142837500Y-71130000D01*
X143837500Y-71130000D01*
X143837500Y-70130000D01*
G37*
%TO.C,D15*%
D14*
X137862500Y-76730000D02*
X135437500Y-76730000D01*
X135437500Y-78630000D01*
X137862500Y-78630000D01*
X137862500Y-76730000D01*
D15*
X136837500Y-77180000D02*
X135837500Y-77180000D01*
X135837500Y-78180000D01*
X136837500Y-78180000D01*
X136837500Y-77180000D01*
G36*
X136837500Y-77180000D02*
G01*
X135837500Y-77180000D01*
X135837500Y-78180000D01*
X136837500Y-78180000D01*
X136837500Y-77180000D01*
G37*
%TO.C,D1*%
D14*
X151900000Y-69730000D02*
X149475000Y-69730000D01*
X149475000Y-71630000D01*
X151900000Y-71630000D01*
X151900000Y-69730000D01*
D15*
X150875000Y-70180000D02*
X149875000Y-70180000D01*
X149875000Y-71180000D01*
X150875000Y-71180000D01*
X150875000Y-70180000D01*
G36*
X150875000Y-70180000D02*
G01*
X149875000Y-70180000D01*
X149875000Y-71180000D01*
X150875000Y-71180000D01*
X150875000Y-70180000D01*
G37*
%TO.C,D29*%
D14*
X165900000Y-83755000D02*
X163475000Y-83755000D01*
X163475000Y-85655000D01*
X165900000Y-85655000D01*
X165900000Y-83755000D01*
D15*
X164875000Y-84205000D02*
X163875000Y-84205000D01*
X163875000Y-85205000D01*
X164875000Y-85205000D01*
X164875000Y-84205000D01*
G36*
X164875000Y-84205000D02*
G01*
X163875000Y-84205000D01*
X163875000Y-85205000D01*
X164875000Y-85205000D01*
X164875000Y-84205000D01*
G37*
%TO.C,D41*%
D14*
X151900000Y-97705000D02*
X149475000Y-97705000D01*
X149475000Y-99605000D01*
X151900000Y-99605000D01*
X151900000Y-97705000D01*
D15*
X150875000Y-98155000D02*
X149875000Y-98155000D01*
X149875000Y-99155000D01*
X150875000Y-99155000D01*
X150875000Y-98155000D01*
G36*
X150875000Y-98155000D02*
G01*
X149875000Y-98155000D01*
X149875000Y-99155000D01*
X150875000Y-99155000D01*
X150875000Y-98155000D01*
G37*
%TO.C,D16*%
D14*
X137950000Y-90705000D02*
X135525000Y-90705000D01*
X135525000Y-92605000D01*
X137950000Y-92605000D01*
X137950000Y-90705000D01*
D15*
X136925000Y-91155000D02*
X135925000Y-91155000D01*
X135925000Y-92155000D01*
X136925000Y-92155000D01*
X136925000Y-91155000D01*
G36*
X136925000Y-91155000D02*
G01*
X135925000Y-91155000D01*
X135925000Y-92155000D01*
X136925000Y-92155000D01*
X136925000Y-91155000D01*
G37*
%TO.C,D31*%
D14*
X172900000Y-83755000D02*
X170475000Y-83755000D01*
X170475000Y-85655000D01*
X172900000Y-85655000D01*
X172900000Y-83755000D01*
D15*
X171875000Y-84205000D02*
X170875000Y-84205000D01*
X170875000Y-85205000D01*
X171875000Y-85205000D01*
X171875000Y-84205000D01*
G36*
X171875000Y-84205000D02*
G01*
X170875000Y-84205000D01*
X170875000Y-85205000D01*
X171875000Y-85205000D01*
X171875000Y-84205000D01*
G37*
%TO.C,D9*%
D14*
X172900000Y-76705000D02*
X170475000Y-76705000D01*
X170475000Y-78605000D01*
X172900000Y-78605000D01*
X172900000Y-76705000D01*
D15*
X171875000Y-77155000D02*
X170875000Y-77155000D01*
X170875000Y-78155000D01*
X171875000Y-78155000D01*
X171875000Y-77155000D01*
G36*
X171875000Y-77155000D02*
G01*
X170875000Y-77155000D01*
X170875000Y-78155000D01*
X171875000Y-78155000D01*
X171875000Y-77155000D01*
G37*
%TO.C,D34*%
D14*
X123900000Y-104705000D02*
X121475000Y-104705000D01*
X121475000Y-106605000D01*
X123900000Y-106605000D01*
X123900000Y-104705000D01*
D15*
X122875000Y-105155000D02*
X121875000Y-105155000D01*
X121875000Y-106155000D01*
X122875000Y-106155000D01*
X122875000Y-105155000D01*
G36*
X122875000Y-105155000D02*
G01*
X121875000Y-105155000D01*
X121875000Y-106155000D01*
X122875000Y-106155000D01*
X122875000Y-105155000D01*
G37*
%TO.C,D57*%
D14*
X151862500Y-111705000D02*
X149437500Y-111705000D01*
X149437500Y-113605000D01*
X151862500Y-113605000D01*
X151862500Y-111705000D01*
D15*
X150837500Y-112155000D02*
X149837500Y-112155000D01*
X149837500Y-113155000D01*
X150837500Y-113155000D01*
X150837500Y-112155000D01*
G36*
X150837500Y-112155000D02*
G01*
X149837500Y-112155000D01*
X149837500Y-113155000D01*
X150837500Y-113155000D01*
X150837500Y-112155000D01*
G37*
%TO.C,D59*%
D14*
X158762500Y-111705000D02*
X156337500Y-111705000D01*
X156337500Y-113605000D01*
X158762500Y-113605000D01*
X158762500Y-111705000D01*
D15*
X157737500Y-112155000D02*
X156737500Y-112155000D01*
X156737500Y-113155000D01*
X157737500Y-113155000D01*
X157737500Y-112155000D01*
G36*
X157737500Y-112155000D02*
G01*
X156737500Y-112155000D01*
X156737500Y-113155000D01*
X157737500Y-113155000D01*
X157737500Y-112155000D01*
G37*
%TO.C,D45*%
D14*
X165900000Y-97705000D02*
X163475000Y-97705000D01*
X163475000Y-99605000D01*
X165900000Y-99605000D01*
X165900000Y-97705000D01*
D15*
X164875000Y-98155000D02*
X163875000Y-98155000D01*
X163875000Y-99155000D01*
X164875000Y-99155000D01*
X164875000Y-98155000D01*
G36*
X164875000Y-98155000D02*
G01*
X163875000Y-98155000D01*
X163875000Y-99155000D01*
X164875000Y-99155000D01*
X164875000Y-98155000D01*
G37*
%TO.C,D39*%
D14*
X144900000Y-97705000D02*
X142475000Y-97705000D01*
X142475000Y-99605000D01*
X144900000Y-99605000D01*
X144900000Y-97705000D01*
D15*
X143875000Y-98155000D02*
X142875000Y-98155000D01*
X142875000Y-99155000D01*
X143875000Y-99155000D01*
X143875000Y-98155000D01*
G36*
X143875000Y-98155000D02*
G01*
X142875000Y-98155000D01*
X142875000Y-99155000D01*
X143875000Y-99155000D01*
X143875000Y-98155000D01*
G37*
%TO.C,D52*%
D14*
X130900000Y-118705000D02*
X128475000Y-118705000D01*
X128475000Y-120605000D01*
X130900000Y-120605000D01*
X130900000Y-118705000D01*
D15*
X129875000Y-119155000D02*
X128875000Y-119155000D01*
X128875000Y-120155000D01*
X129875000Y-120155000D01*
X129875000Y-119155000D01*
G36*
X129875000Y-119155000D02*
G01*
X128875000Y-119155000D01*
X128875000Y-120155000D01*
X129875000Y-120155000D01*
X129875000Y-119155000D01*
G37*
%TO.C,D50*%
D14*
X123900000Y-118705000D02*
X121475000Y-118705000D01*
X121475000Y-120605000D01*
X123900000Y-120605000D01*
X123900000Y-118705000D01*
D15*
X122875000Y-119155000D02*
X121875000Y-119155000D01*
X121875000Y-120155000D01*
X122875000Y-120155000D01*
X122875000Y-119155000D01*
G36*
X122875000Y-119155000D02*
G01*
X121875000Y-119155000D01*
X121875000Y-120155000D01*
X122875000Y-120155000D01*
X122875000Y-119155000D01*
G37*
%TO.C,D27*%
D14*
X158862500Y-83755000D02*
X156437500Y-83755000D01*
X156437500Y-85655000D01*
X158862500Y-85655000D01*
X158862500Y-83755000D01*
D15*
X157837500Y-84205000D02*
X156837500Y-84205000D01*
X156837500Y-85205000D01*
X157837500Y-85205000D01*
X157837500Y-84205000D01*
G36*
X157837500Y-84205000D02*
G01*
X156837500Y-84205000D01*
X156837500Y-85205000D01*
X157837500Y-85205000D01*
X157837500Y-84205000D01*
G37*
D14*
%TO.C,R3*%
X159025000Y-67805000D02*
X159775000Y-67805000D01*
X159025000Y-68505000D02*
X159775000Y-68505000D01*
%TO.C,R1*%
X152112500Y-67805000D02*
X152862500Y-67805000D01*
X152112500Y-68505000D02*
X152862500Y-68505000D01*
%TO.C,R55*%
X144962500Y-109855000D02*
X145712500Y-109855000D01*
X144962500Y-110555000D02*
X145712500Y-110555000D01*
%TO.C,R58*%
X152062500Y-116855000D02*
X152812500Y-116855000D01*
X152062500Y-117555000D02*
X152812500Y-117555000D01*
%TO.C,R5*%
X166112500Y-67805000D02*
X166862500Y-67805000D01*
X166112500Y-68505000D02*
X166862500Y-68505000D01*
%TO.C,R43*%
X159012500Y-95855000D02*
X159762500Y-95855000D01*
X159012500Y-96555000D02*
X159762500Y-96555000D01*
%TO.C,R48*%
X171575000Y-102855000D02*
X170825000Y-102855000D01*
X171575000Y-103555000D02*
X170825000Y-103555000D01*
%TO.C,C4*%
X130166233Y-123120000D02*
X130458767Y-123120000D01*
X130166233Y-124140000D02*
X130458767Y-124140000D01*
%TO.C,R24*%
X144950000Y-88855000D02*
X145700000Y-88855000D01*
X144950000Y-89555000D02*
X145700000Y-89555000D01*
%TO.C,R16*%
X138012500Y-88855000D02*
X138762500Y-88855000D01*
X138012500Y-89555000D02*
X138762500Y-89555000D01*
%TO.C,R21*%
X138025000Y-67780000D02*
X138775000Y-67780000D01*
X138025000Y-68480000D02*
X138775000Y-68480000D01*
%TO.C,R57*%
X152062500Y-109855000D02*
X152812500Y-109855000D01*
X152062500Y-110555000D02*
X152812500Y-110555000D01*
%TO.C,R7*%
X124025000Y-74780000D02*
X124775000Y-74780000D01*
X124025000Y-75480000D02*
X124775000Y-75480000D01*
%TO.C,R8*%
X171575000Y-67830000D02*
X170825000Y-67830000D01*
X171575000Y-68530000D02*
X170825000Y-68530000D01*
%TO.C,R52*%
X130962500Y-116855000D02*
X131712500Y-116855000D01*
X130962500Y-117555000D02*
X131712500Y-117555000D01*
%TO.C,R23*%
X144962500Y-81855000D02*
X145712500Y-81855000D01*
X144962500Y-82555000D02*
X145712500Y-82555000D01*
%TO.C,R17*%
X145025000Y-74780000D02*
X145775000Y-74780000D01*
X145025000Y-75480000D02*
X145775000Y-75480000D01*
%TO.C,R20*%
X131025000Y-74780000D02*
X131775000Y-74780000D01*
X131025000Y-75480000D02*
X131775000Y-75480000D01*
%TO.C,R38*%
X138012500Y-102855000D02*
X138762500Y-102855000D01*
X138012500Y-103555000D02*
X138762500Y-103555000D01*
%TO.C,R22*%
X145025000Y-67830000D02*
X145775000Y-67830000D01*
X145025000Y-68530000D02*
X145775000Y-68530000D01*
%TO.C,R46*%
X166112500Y-102855000D02*
X166862500Y-102855000D01*
X166112500Y-103555000D02*
X166862500Y-103555000D01*
%TO.C,C7*%
X154503733Y-123120000D02*
X154796267Y-123120000D01*
X154503733Y-124140000D02*
X154796267Y-124140000D01*
%TO.C,R39*%
X144962500Y-95855000D02*
X145712500Y-95855000D01*
X144962500Y-96555000D02*
X145712500Y-96555000D01*
%TO.C,R34*%
X124012500Y-102855000D02*
X124762500Y-102855000D01*
X124012500Y-103555000D02*
X124762500Y-103555000D01*
%TO.C,R56*%
X144962500Y-116855000D02*
X145712500Y-116855000D01*
X144962500Y-117555000D02*
X145712500Y-117555000D01*
%TO.C,R26*%
X152062500Y-88855000D02*
X152812500Y-88855000D01*
X152062500Y-89555000D02*
X152812500Y-89555000D01*
%TO.C,R41*%
X152062500Y-95855000D02*
X152812500Y-95855000D01*
X152062500Y-96555000D02*
X152812500Y-96555000D01*
%TO.C,R30*%
X166112500Y-88855000D02*
X166862500Y-88855000D01*
X166112500Y-89555000D02*
X166862500Y-89555000D01*
%TO.C,R19*%
X131025000Y-67780000D02*
X131775000Y-67780000D01*
X131025000Y-68480000D02*
X131775000Y-68480000D01*
%TO.C,R47*%
X171575000Y-95855000D02*
X170825000Y-95855000D01*
X171575000Y-96555000D02*
X170825000Y-96555000D01*
%TO.C,R44*%
X159012500Y-102855000D02*
X159762500Y-102855000D01*
X159012500Y-103555000D02*
X159762500Y-103555000D01*
%TO.C,C6*%
X163291233Y-123120000D02*
X163583767Y-123120000D01*
X163291233Y-124140000D02*
X163583767Y-124140000D01*
%TO.C,R62*%
X166112500Y-116855000D02*
X166862500Y-116855000D01*
X166112500Y-117555000D02*
X166862500Y-117555000D01*
%TO.C,R12*%
X131012500Y-81855000D02*
X131762500Y-81855000D01*
X131012500Y-82555000D02*
X131762500Y-82555000D01*
%TO.C,R45*%
X166112500Y-95855000D02*
X166862500Y-95855000D01*
X166112500Y-96555000D02*
X166862500Y-96555000D01*
%TO.C,R2*%
X152112500Y-74805000D02*
X152862500Y-74805000D01*
X152112500Y-75505000D02*
X152862500Y-75505000D01*
%TO.C,R63*%
X171575000Y-109855000D02*
X170825000Y-109855000D01*
X171575000Y-110555000D02*
X170825000Y-110555000D01*
%TO.C,R15*%
X138025000Y-74780000D02*
X138775000Y-74780000D01*
X138025000Y-75480000D02*
X138775000Y-75480000D01*
%TO.C,R33*%
X124012500Y-95855000D02*
X124762500Y-95855000D01*
X124012500Y-96555000D02*
X124762500Y-96555000D01*
%TO.C,R28*%
X159012500Y-88855000D02*
X159762500Y-88855000D01*
X159012500Y-89555000D02*
X159762500Y-89555000D01*
%TO.C,R11*%
X124012500Y-88855000D02*
X124762500Y-88855000D01*
X124012500Y-89555000D02*
X124762500Y-89555000D01*
%TO.C,C5*%
X138916233Y-123120000D02*
X139208767Y-123120000D01*
X138916233Y-124140000D02*
X139208767Y-124140000D01*
%TO.C,R10*%
X124012500Y-81855000D02*
X124762500Y-81855000D01*
X124012500Y-82555000D02*
X124762500Y-82555000D01*
%TO.C,R60*%
X159012500Y-116855000D02*
X159762500Y-116855000D01*
X159012500Y-117555000D02*
X159762500Y-117555000D01*
%TO.C,R9*%
X171575000Y-74805000D02*
X170825000Y-74805000D01*
X171575000Y-75505000D02*
X170825000Y-75505000D01*
%TO.C,R59*%
X159012500Y-109855000D02*
X159762500Y-109855000D01*
X159012500Y-110555000D02*
X159762500Y-110555000D01*
%TO.C,R32*%
X171575000Y-88855000D02*
X170825000Y-88855000D01*
X171575000Y-89555000D02*
X170825000Y-89555000D01*
%TO.C,R36*%
X131012500Y-102855000D02*
X131762500Y-102855000D01*
X131012500Y-103555000D02*
X131762500Y-103555000D01*
%TO.C,R64*%
X171575000Y-116855000D02*
X170825000Y-116855000D01*
X171575000Y-117555000D02*
X170825000Y-117555000D01*
%TO.C,R51*%
X130962500Y-109855000D02*
X131712500Y-109855000D01*
X130962500Y-110555000D02*
X131712500Y-110555000D01*
%TO.C,R4*%
X159000000Y-74805000D02*
X159750000Y-74805000D01*
X159000000Y-75505000D02*
X159750000Y-75505000D01*
%TO.C,R27*%
X159012500Y-81855000D02*
X159762500Y-81855000D01*
X159012500Y-82555000D02*
X159762500Y-82555000D01*
%TO.C,R31*%
X171575000Y-81855000D02*
X170825000Y-81855000D01*
X171575000Y-82555000D02*
X170825000Y-82555000D01*
%TO.C,R25*%
X152112500Y-81855000D02*
X152862500Y-81855000D01*
X152112500Y-82555000D02*
X152862500Y-82555000D01*
%TO.C,R40*%
X144962500Y-102855000D02*
X145712500Y-102855000D01*
X144962500Y-103555000D02*
X145712500Y-103555000D01*
%TO.C,R6*%
X166112500Y-74805000D02*
X166862500Y-74805000D01*
X166112500Y-75505000D02*
X166862500Y-75505000D01*
%TO.C,R53*%
X138012500Y-109855000D02*
X138762500Y-109855000D01*
X138012500Y-110555000D02*
X138762500Y-110555000D01*
%TO.C,R13*%
X131012500Y-88855000D02*
X131762500Y-88855000D01*
X131012500Y-89555000D02*
X131762500Y-89555000D01*
%TO.C,R42*%
X152062500Y-102855000D02*
X152812500Y-102855000D01*
X152062500Y-103555000D02*
X152812500Y-103555000D01*
%TO.C,R14*%
X138000000Y-81855000D02*
X138750000Y-81855000D01*
X138000000Y-82555000D02*
X138750000Y-82555000D01*
%TO.C,R37*%
X138012500Y-95855000D02*
X138762500Y-95855000D01*
X138012500Y-96555000D02*
X138762500Y-96555000D01*
%TO.C,R54*%
X138012500Y-116855000D02*
X138762500Y-116855000D01*
X138012500Y-117555000D02*
X138762500Y-117555000D01*
%TO.C,R29*%
X166112500Y-81855000D02*
X166862500Y-81855000D01*
X166112500Y-82555000D02*
X166862500Y-82555000D01*
%TO.C,R49*%
X124012500Y-109855000D02*
X124762500Y-109855000D01*
X124012500Y-110555000D02*
X124762500Y-110555000D01*
%TO.C,R61*%
X166112500Y-109855000D02*
X166862500Y-109855000D01*
X166112500Y-110555000D02*
X166862500Y-110555000D01*
%TO.C,R50*%
X124012500Y-116855000D02*
X124762500Y-116855000D01*
X124012500Y-117555000D02*
X124762500Y-117555000D01*
%TO.C,R35*%
X131012500Y-95855000D02*
X131762500Y-95855000D01*
X131012500Y-96555000D02*
X131762500Y-96555000D01*
%TO.C,R18*%
X124025000Y-67780000D02*
X124775000Y-67780000D01*
X124025000Y-68480000D02*
X124775000Y-68480000D01*
%TD*%
M02*
