%TF.GenerationSoftware,KiCad,Pcbnew,8.0.5*%
%TF.CreationDate,2025-09-21T17:17:36-10:00*%
%TF.ProjectId,SiPMT.revA,5369504d-542e-4726-9576-412e6b696361,rev?*%
%TF.SameCoordinates,Original*%
%TF.FileFunction,Other,User*%
%FSLAX46Y46*%
G04 Gerber Fmt 4.6, Leading zero omitted, Abs format (unit mm)*
G04 Created by KiCad (PCBNEW 8.0.5) date 2025-09-21 17:17:36*
%MOMM*%
%LPD*%
G01*
G04 APERTURE LIST*
%ADD10C,0.120000*%
%ADD11C,0.050000*%
G04 APERTURE END LIST*
%TO.C,D18*%
D10*
X123812500Y-69730000D02*
X121387500Y-69730000D01*
X121387500Y-71630000D01*
X123812500Y-71630000D01*
X123812500Y-69730000D01*
%TO.C,D40*%
X144900000Y-104705000D02*
X142475000Y-104705000D01*
X142475000Y-106605000D01*
X144900000Y-106605000D01*
X144900000Y-104705000D01*
%TO.C,D11*%
X123882500Y-90705000D02*
X121457500Y-90705000D01*
X121457500Y-92605000D01*
X123882500Y-92605000D01*
X123882500Y-90705000D01*
%TO.C,D25*%
X151900000Y-83755000D02*
X149475000Y-83755000D01*
X149475000Y-85655000D01*
X151900000Y-85655000D01*
X151900000Y-83755000D01*
%TO.C,D20*%
X130862500Y-76730000D02*
X128437500Y-76730000D01*
X128437500Y-78630000D01*
X130862500Y-78630000D01*
X130862500Y-76730000D01*
%TO.C,D42*%
X151900000Y-104705000D02*
X149475000Y-104705000D01*
X149475000Y-106605000D01*
X151900000Y-106605000D01*
X151900000Y-104705000D01*
%TO.C,D4*%
X158900000Y-76705000D02*
X156475000Y-76705000D01*
X156475000Y-78605000D01*
X158900000Y-78605000D01*
X158900000Y-76705000D01*
%TO.C,D55*%
X144900000Y-111705000D02*
X142475000Y-111705000D01*
X142475000Y-113605000D01*
X144900000Y-113605000D01*
X144900000Y-111705000D01*
%TO.C,D32*%
X172900000Y-90705000D02*
X170475000Y-90705000D01*
X170475000Y-92605000D01*
X172900000Y-92605000D01*
X172900000Y-90705000D01*
%TO.C,D36*%
X130850000Y-104705000D02*
X128425000Y-104705000D01*
X128425000Y-106605000D01*
X130850000Y-106605000D01*
X130850000Y-104705000D01*
%TO.C,D43*%
X158850000Y-97705000D02*
X156425000Y-97705000D01*
X156425000Y-99605000D01*
X158850000Y-99605000D01*
X158850000Y-97705000D01*
%TO.C,D53*%
X137900000Y-111705000D02*
X135475000Y-111705000D01*
X135475000Y-113605000D01*
X137900000Y-113605000D01*
X137900000Y-111705000D01*
%TO.C,D10*%
X123877500Y-83755000D02*
X121452500Y-83755000D01*
X121452500Y-85655000D01*
X123877500Y-85655000D01*
X123877500Y-83755000D01*
%TO.C,D17*%
X144875000Y-76730000D02*
X142450000Y-76730000D01*
X142450000Y-78630000D01*
X144875000Y-78630000D01*
X144875000Y-76730000D01*
%TO.C,D14*%
X137925000Y-83755000D02*
X135500000Y-83755000D01*
X135500000Y-85655000D01*
X137925000Y-85655000D01*
X137925000Y-83755000D01*
%TO.C,D54*%
X137912500Y-118705000D02*
X135487500Y-118705000D01*
X135487500Y-120605000D01*
X137912500Y-120605000D01*
X137912500Y-118705000D01*
%TO.C,D38*%
X137950000Y-104705000D02*
X135525000Y-104705000D01*
X135525000Y-106605000D01*
X137950000Y-106605000D01*
X137950000Y-104705000D01*
%TO.C,D33*%
X123900000Y-97705000D02*
X121475000Y-97705000D01*
X121475000Y-99605000D01*
X123900000Y-99605000D01*
X123900000Y-97705000D01*
%TO.C,D62*%
X165862500Y-118705000D02*
X163437500Y-118705000D01*
X163437500Y-120605000D01*
X165862500Y-120605000D01*
X165862500Y-118705000D01*
%TO.C,D8*%
X172900000Y-69705000D02*
X170475000Y-69705000D01*
X170475000Y-71605000D01*
X172900000Y-71605000D01*
X172900000Y-69705000D01*
%TO.C,D64*%
X172862500Y-118705000D02*
X170437500Y-118705000D01*
X170437500Y-120605000D01*
X172862500Y-120605000D01*
X172862500Y-118705000D01*
%TO.C,D37*%
X137950000Y-97705000D02*
X135525000Y-97705000D01*
X135525000Y-99605000D01*
X137950000Y-99605000D01*
X137950000Y-97705000D01*
%TO.C,D12*%
X130900000Y-83755000D02*
X128475000Y-83755000D01*
X128475000Y-85655000D01*
X130900000Y-85655000D01*
X130900000Y-83755000D01*
%TO.C,D46*%
X165900000Y-104705000D02*
X163475000Y-104705000D01*
X163475000Y-106605000D01*
X165900000Y-106605000D01*
X165900000Y-104705000D01*
%TO.C,D26*%
X151900000Y-90705000D02*
X149475000Y-90705000D01*
X149475000Y-92605000D01*
X151900000Y-92605000D01*
X151900000Y-90705000D01*
%TO.C,D60*%
X158912500Y-118705000D02*
X156487500Y-118705000D01*
X156487500Y-120605000D01*
X158912500Y-120605000D01*
X158912500Y-118705000D01*
%TO.C,D7*%
X123825000Y-76730000D02*
X121400000Y-76730000D01*
X121400000Y-78630000D01*
X123825000Y-78630000D01*
X123825000Y-76730000D01*
%TO.C,D2*%
X151900000Y-76705000D02*
X149475000Y-76705000D01*
X149475000Y-78605000D01*
X151900000Y-78605000D01*
X151900000Y-76705000D01*
%TO.C,D58*%
X151912500Y-118705000D02*
X149487500Y-118705000D01*
X149487500Y-120605000D01*
X151912500Y-120605000D01*
X151912500Y-118705000D01*
%TO.C,D44*%
X158850000Y-104705000D02*
X156425000Y-104705000D01*
X156425000Y-106605000D01*
X158850000Y-106605000D01*
X158850000Y-104705000D01*
%TO.C,D24*%
X144900000Y-90705000D02*
X142475000Y-90705000D01*
X142475000Y-92605000D01*
X144900000Y-92605000D01*
X144900000Y-90705000D01*
%TO.C,D23*%
X144900000Y-83755000D02*
X142475000Y-83755000D01*
X142475000Y-85655000D01*
X144900000Y-85655000D01*
X144900000Y-83755000D01*
%TO.C,D5*%
X165850000Y-69630000D02*
X163425000Y-69630000D01*
X163425000Y-71530000D01*
X165850000Y-71530000D01*
X165850000Y-69630000D01*
%TO.C,D3*%
X158800000Y-69655000D02*
X156375000Y-69655000D01*
X156375000Y-71555000D01*
X158800000Y-71555000D01*
X158800000Y-69655000D01*
%TO.C,D6*%
X165900000Y-76705000D02*
X163475000Y-76705000D01*
X163475000Y-78605000D01*
X165900000Y-78605000D01*
X165900000Y-76705000D01*
%TO.C,D48*%
X172912500Y-104705000D02*
X170487500Y-104705000D01*
X170487500Y-106605000D01*
X172912500Y-106605000D01*
X172912500Y-104705000D01*
%TO.C,D49*%
X123900000Y-111705000D02*
X121475000Y-111705000D01*
X121475000Y-113605000D01*
X123900000Y-113605000D01*
X123900000Y-111705000D01*
%TO.C,D13*%
X130950000Y-90705000D02*
X128525000Y-90705000D01*
X128525000Y-92605000D01*
X130950000Y-92605000D01*
X130950000Y-90705000D01*
%TO.C,D63*%
X172862500Y-111705000D02*
X170437500Y-111705000D01*
X170437500Y-113605000D01*
X172862500Y-113605000D01*
X172862500Y-111705000D01*
%TO.C,D21*%
X137875000Y-69680000D02*
X135450000Y-69680000D01*
X135450000Y-71580000D01*
X137875000Y-71580000D01*
X137875000Y-69680000D01*
%TO.C,D61*%
X165862500Y-111705000D02*
X163437500Y-111705000D01*
X163437500Y-113605000D01*
X165862500Y-113605000D01*
X165862500Y-111705000D01*
%TO.C,D51*%
X130850000Y-111705000D02*
X128425000Y-111705000D01*
X128425000Y-113605000D01*
X130850000Y-113605000D01*
X130850000Y-111705000D01*
%TO.C,D56*%
X144912500Y-118705000D02*
X142487500Y-118705000D01*
X142487500Y-120605000D01*
X144912500Y-120605000D01*
X144912500Y-118705000D01*
%TO.C,D35*%
X130812500Y-97705000D02*
X128387500Y-97705000D01*
X128387500Y-99605000D01*
X130812500Y-99605000D01*
X130812500Y-97705000D01*
%TO.C,D28*%
X158850000Y-90705000D02*
X156425000Y-90705000D01*
X156425000Y-92605000D01*
X158850000Y-92605000D01*
X158850000Y-90705000D01*
%TO.C,D30*%
X165900000Y-90705000D02*
X163475000Y-90705000D01*
X163475000Y-92605000D01*
X165900000Y-92605000D01*
X165900000Y-90705000D01*
%TO.C,D47*%
X172900000Y-97705000D02*
X170475000Y-97705000D01*
X170475000Y-99605000D01*
X172900000Y-99605000D01*
X172900000Y-97705000D01*
%TO.C,D19*%
X130762500Y-69680000D02*
X128337500Y-69680000D01*
X128337500Y-71580000D01*
X130762500Y-71580000D01*
X130762500Y-69680000D01*
%TO.C,D22*%
X144862500Y-69680000D02*
X142437500Y-69680000D01*
X142437500Y-71580000D01*
X144862500Y-71580000D01*
X144862500Y-69680000D01*
%TO.C,D15*%
X137862500Y-76730000D02*
X135437500Y-76730000D01*
X135437500Y-78630000D01*
X137862500Y-78630000D01*
X137862500Y-76730000D01*
%TO.C,D1*%
X151900000Y-69730000D02*
X149475000Y-69730000D01*
X149475000Y-71630000D01*
X151900000Y-71630000D01*
X151900000Y-69730000D01*
%TO.C,D29*%
X165900000Y-83755000D02*
X163475000Y-83755000D01*
X163475000Y-85655000D01*
X165900000Y-85655000D01*
X165900000Y-83755000D01*
%TO.C,D41*%
X151900000Y-97705000D02*
X149475000Y-97705000D01*
X149475000Y-99605000D01*
X151900000Y-99605000D01*
X151900000Y-97705000D01*
%TO.C,D16*%
X137950000Y-90705000D02*
X135525000Y-90705000D01*
X135525000Y-92605000D01*
X137950000Y-92605000D01*
X137950000Y-90705000D01*
%TO.C,D31*%
X172900000Y-83755000D02*
X170475000Y-83755000D01*
X170475000Y-85655000D01*
X172900000Y-85655000D01*
X172900000Y-83755000D01*
%TO.C,D9*%
X172900000Y-76705000D02*
X170475000Y-76705000D01*
X170475000Y-78605000D01*
X172900000Y-78605000D01*
X172900000Y-76705000D01*
%TO.C,D34*%
X123900000Y-104705000D02*
X121475000Y-104705000D01*
X121475000Y-106605000D01*
X123900000Y-106605000D01*
X123900000Y-104705000D01*
%TO.C,D57*%
X151862500Y-111705000D02*
X149437500Y-111705000D01*
X149437500Y-113605000D01*
X151862500Y-113605000D01*
X151862500Y-111705000D01*
%TO.C,D59*%
X158762500Y-111705000D02*
X156337500Y-111705000D01*
X156337500Y-113605000D01*
X158762500Y-113605000D01*
X158762500Y-111705000D01*
%TO.C,D45*%
X165900000Y-97705000D02*
X163475000Y-97705000D01*
X163475000Y-99605000D01*
X165900000Y-99605000D01*
X165900000Y-97705000D01*
%TO.C,D39*%
X144900000Y-97705000D02*
X142475000Y-97705000D01*
X142475000Y-99605000D01*
X144900000Y-99605000D01*
X144900000Y-97705000D01*
%TO.C,D52*%
X130900000Y-118705000D02*
X128475000Y-118705000D01*
X128475000Y-120605000D01*
X130900000Y-120605000D01*
X130900000Y-118705000D01*
%TO.C,D50*%
X123900000Y-118705000D02*
X121475000Y-118705000D01*
X121475000Y-120605000D01*
X123900000Y-120605000D01*
X123900000Y-118705000D01*
%TO.C,D27*%
X158862500Y-83755000D02*
X156437500Y-83755000D01*
X156437500Y-85655000D01*
X158862500Y-85655000D01*
X158862500Y-83755000D01*
%TO.C,R3*%
D11*
X160825000Y-67655000D02*
X157975000Y-67655000D01*
X157975000Y-68655000D01*
X160825000Y-68655000D01*
X160825000Y-67655000D01*
%TO.C,R1*%
X153912500Y-67655000D02*
X151062500Y-67655000D01*
X151062500Y-68655000D01*
X153912500Y-68655000D01*
X153912500Y-67655000D01*
%TO.C,R55*%
X146762500Y-109705000D02*
X143912500Y-109705000D01*
X143912500Y-110705000D01*
X146762500Y-110705000D01*
X146762500Y-109705000D01*
%TO.C,R58*%
X153862500Y-116705000D02*
X151012500Y-116705000D01*
X151012500Y-117705000D01*
X153862500Y-117705000D01*
X153862500Y-116705000D01*
%TO.C,R5*%
X167912500Y-67655000D02*
X165062500Y-67655000D01*
X165062500Y-68655000D01*
X167912500Y-68655000D01*
X167912500Y-67655000D01*
%TO.C,R43*%
X160812500Y-95705000D02*
X157962500Y-95705000D01*
X157962500Y-96705000D01*
X160812500Y-96705000D01*
X160812500Y-95705000D01*
%TO.C,R48*%
X169775000Y-103705000D02*
X172625000Y-103705000D01*
X172625000Y-102705000D01*
X169775000Y-102705000D01*
X169775000Y-103705000D01*
%TO.C,C4*%
X128662500Y-122900000D02*
X131962500Y-122900000D01*
X128662500Y-124360000D02*
X128662500Y-122900000D01*
X131962500Y-122900000D02*
X131962500Y-124360000D01*
X131962500Y-124360000D02*
X128662500Y-124360000D01*
%TO.C,R24*%
X146750000Y-88705000D02*
X143900000Y-88705000D01*
X143900000Y-89705000D01*
X146750000Y-89705000D01*
X146750000Y-88705000D01*
%TO.C,R16*%
X139812500Y-88705000D02*
X136962500Y-88705000D01*
X136962500Y-89705000D01*
X139812500Y-89705000D01*
X139812500Y-88705000D01*
%TO.C,R21*%
X139825000Y-67630000D02*
X136975000Y-67630000D01*
X136975000Y-68630000D01*
X139825000Y-68630000D01*
X139825000Y-67630000D01*
%TO.C,R57*%
X153862500Y-109705000D02*
X151012500Y-109705000D01*
X151012500Y-110705000D01*
X153862500Y-110705000D01*
X153862500Y-109705000D01*
%TO.C,R7*%
X125825000Y-74630000D02*
X122975000Y-74630000D01*
X122975000Y-75630000D01*
X125825000Y-75630000D01*
X125825000Y-74630000D01*
%TO.C,R8*%
X169775000Y-68680000D02*
X172625000Y-68680000D01*
X172625000Y-67680000D01*
X169775000Y-67680000D01*
X169775000Y-68680000D01*
%TO.C,R52*%
X132762500Y-116705000D02*
X129912500Y-116705000D01*
X129912500Y-117705000D01*
X132762500Y-117705000D01*
X132762500Y-116705000D01*
%TO.C,R23*%
X146762500Y-81705000D02*
X143912500Y-81705000D01*
X143912500Y-82705000D01*
X146762500Y-82705000D01*
X146762500Y-81705000D01*
%TO.C,R17*%
X146825000Y-74630000D02*
X143975000Y-74630000D01*
X143975000Y-75630000D01*
X146825000Y-75630000D01*
X146825000Y-74630000D01*
%TO.C,R20*%
X132825000Y-74630000D02*
X129975000Y-74630000D01*
X129975000Y-75630000D01*
X132825000Y-75630000D01*
X132825000Y-74630000D01*
%TO.C,R38*%
X139812500Y-102705000D02*
X136962500Y-102705000D01*
X136962500Y-103705000D01*
X139812500Y-103705000D01*
X139812500Y-102705000D01*
%TO.C,R22*%
X146825000Y-67680000D02*
X143975000Y-67680000D01*
X143975000Y-68680000D01*
X146825000Y-68680000D01*
X146825000Y-67680000D01*
%TO.C,R46*%
X167912500Y-102705000D02*
X165062500Y-102705000D01*
X165062500Y-103705000D01*
X167912500Y-103705000D01*
X167912500Y-102705000D01*
%TO.C,C7*%
X153000000Y-122900000D02*
X156300000Y-122900000D01*
X153000000Y-124360000D02*
X153000000Y-122900000D01*
X156300000Y-122900000D02*
X156300000Y-124360000D01*
X156300000Y-124360000D02*
X153000000Y-124360000D01*
%TO.C,R39*%
X146762500Y-95705000D02*
X143912500Y-95705000D01*
X143912500Y-96705000D01*
X146762500Y-96705000D01*
X146762500Y-95705000D01*
%TO.C,R34*%
X125812500Y-102705000D02*
X122962500Y-102705000D01*
X122962500Y-103705000D01*
X125812500Y-103705000D01*
X125812500Y-102705000D01*
%TO.C,R56*%
X146762500Y-116705000D02*
X143912500Y-116705000D01*
X143912500Y-117705000D01*
X146762500Y-117705000D01*
X146762500Y-116705000D01*
%TO.C,R26*%
X153862500Y-88705000D02*
X151012500Y-88705000D01*
X151012500Y-89705000D01*
X153862500Y-89705000D01*
X153862500Y-88705000D01*
%TO.C,R41*%
X153862500Y-95705000D02*
X151012500Y-95705000D01*
X151012500Y-96705000D01*
X153862500Y-96705000D01*
X153862500Y-95705000D01*
%TO.C,R30*%
X167912500Y-88705000D02*
X165062500Y-88705000D01*
X165062500Y-89705000D01*
X167912500Y-89705000D01*
X167912500Y-88705000D01*
%TO.C,R19*%
X132825000Y-67630000D02*
X129975000Y-67630000D01*
X129975000Y-68630000D01*
X132825000Y-68630000D01*
X132825000Y-67630000D01*
%TO.C,R47*%
X169775000Y-96705000D02*
X172625000Y-96705000D01*
X172625000Y-95705000D01*
X169775000Y-95705000D01*
X169775000Y-96705000D01*
%TO.C,R44*%
X160812500Y-102705000D02*
X157962500Y-102705000D01*
X157962500Y-103705000D01*
X160812500Y-103705000D01*
X160812500Y-102705000D01*
%TO.C,C6*%
X161787500Y-122900000D02*
X165087500Y-122900000D01*
X161787500Y-124360000D02*
X161787500Y-122900000D01*
X165087500Y-122900000D02*
X165087500Y-124360000D01*
X165087500Y-124360000D02*
X161787500Y-124360000D01*
%TO.C,R62*%
X167912500Y-116705000D02*
X165062500Y-116705000D01*
X165062500Y-117705000D01*
X167912500Y-117705000D01*
X167912500Y-116705000D01*
%TO.C,R12*%
X132812500Y-81705000D02*
X129962500Y-81705000D01*
X129962500Y-82705000D01*
X132812500Y-82705000D01*
X132812500Y-81705000D01*
%TO.C,R45*%
X167912500Y-95705000D02*
X165062500Y-95705000D01*
X165062500Y-96705000D01*
X167912500Y-96705000D01*
X167912500Y-95705000D01*
%TO.C,R2*%
X153912500Y-74655000D02*
X151062500Y-74655000D01*
X151062500Y-75655000D01*
X153912500Y-75655000D01*
X153912500Y-74655000D01*
%TO.C,R63*%
X169775000Y-110705000D02*
X172625000Y-110705000D01*
X172625000Y-109705000D01*
X169775000Y-109705000D01*
X169775000Y-110705000D01*
%TO.C,R15*%
X139825000Y-74630000D02*
X136975000Y-74630000D01*
X136975000Y-75630000D01*
X139825000Y-75630000D01*
X139825000Y-74630000D01*
%TO.C,R33*%
X125812500Y-95705000D02*
X122962500Y-95705000D01*
X122962500Y-96705000D01*
X125812500Y-96705000D01*
X125812500Y-95705000D01*
%TO.C,R28*%
X160812500Y-88705000D02*
X157962500Y-88705000D01*
X157962500Y-89705000D01*
X160812500Y-89705000D01*
X160812500Y-88705000D01*
%TO.C,R11*%
X125812500Y-88705000D02*
X122962500Y-88705000D01*
X122962500Y-89705000D01*
X125812500Y-89705000D01*
X125812500Y-88705000D01*
%TO.C,C5*%
X137412500Y-122900000D02*
X140712500Y-122900000D01*
X137412500Y-124360000D02*
X137412500Y-122900000D01*
X140712500Y-122900000D02*
X140712500Y-124360000D01*
X140712500Y-124360000D02*
X137412500Y-124360000D01*
%TO.C,R10*%
X125812500Y-81705000D02*
X122962500Y-81705000D01*
X122962500Y-82705000D01*
X125812500Y-82705000D01*
X125812500Y-81705000D01*
%TO.C,R60*%
X160812500Y-116705000D02*
X157962500Y-116705000D01*
X157962500Y-117705000D01*
X160812500Y-117705000D01*
X160812500Y-116705000D01*
%TO.C,R9*%
X169775000Y-75655000D02*
X172625000Y-75655000D01*
X172625000Y-74655000D01*
X169775000Y-74655000D01*
X169775000Y-75655000D01*
%TO.C,R59*%
X160812500Y-109705000D02*
X157962500Y-109705000D01*
X157962500Y-110705000D01*
X160812500Y-110705000D01*
X160812500Y-109705000D01*
%TO.C,R32*%
X169775000Y-89705000D02*
X172625000Y-89705000D01*
X172625000Y-88705000D01*
X169775000Y-88705000D01*
X169775000Y-89705000D01*
%TO.C,R36*%
X132812500Y-102705000D02*
X129962500Y-102705000D01*
X129962500Y-103705000D01*
X132812500Y-103705000D01*
X132812500Y-102705000D01*
%TO.C,R64*%
X169775000Y-117705000D02*
X172625000Y-117705000D01*
X172625000Y-116705000D01*
X169775000Y-116705000D01*
X169775000Y-117705000D01*
%TO.C,R51*%
X132762500Y-109705000D02*
X129912500Y-109705000D01*
X129912500Y-110705000D01*
X132762500Y-110705000D01*
X132762500Y-109705000D01*
%TO.C,R4*%
X160800000Y-74655000D02*
X157950000Y-74655000D01*
X157950000Y-75655000D01*
X160800000Y-75655000D01*
X160800000Y-74655000D01*
%TO.C,R27*%
X160812500Y-81705000D02*
X157962500Y-81705000D01*
X157962500Y-82705000D01*
X160812500Y-82705000D01*
X160812500Y-81705000D01*
%TO.C,R31*%
X169775000Y-82705000D02*
X172625000Y-82705000D01*
X172625000Y-81705000D01*
X169775000Y-81705000D01*
X169775000Y-82705000D01*
%TO.C,R25*%
X153912500Y-81705000D02*
X151062500Y-81705000D01*
X151062500Y-82705000D01*
X153912500Y-82705000D01*
X153912500Y-81705000D01*
%TO.C,R40*%
X146762500Y-102705000D02*
X143912500Y-102705000D01*
X143912500Y-103705000D01*
X146762500Y-103705000D01*
X146762500Y-102705000D01*
%TO.C,R6*%
X167912500Y-74655000D02*
X165062500Y-74655000D01*
X165062500Y-75655000D01*
X167912500Y-75655000D01*
X167912500Y-74655000D01*
%TO.C,R53*%
X139812500Y-109705000D02*
X136962500Y-109705000D01*
X136962500Y-110705000D01*
X139812500Y-110705000D01*
X139812500Y-109705000D01*
%TO.C,R13*%
X132812500Y-88705000D02*
X129962500Y-88705000D01*
X129962500Y-89705000D01*
X132812500Y-89705000D01*
X132812500Y-88705000D01*
%TO.C,R42*%
X153862500Y-102705000D02*
X151012500Y-102705000D01*
X151012500Y-103705000D01*
X153862500Y-103705000D01*
X153862500Y-102705000D01*
%TO.C,R14*%
X139800000Y-81705000D02*
X136950000Y-81705000D01*
X136950000Y-82705000D01*
X139800000Y-82705000D01*
X139800000Y-81705000D01*
%TO.C,R37*%
X139812500Y-95705000D02*
X136962500Y-95705000D01*
X136962500Y-96705000D01*
X139812500Y-96705000D01*
X139812500Y-95705000D01*
%TO.C,R54*%
X139812500Y-116705000D02*
X136962500Y-116705000D01*
X136962500Y-117705000D01*
X139812500Y-117705000D01*
X139812500Y-116705000D01*
%TO.C,R29*%
X167912500Y-81705000D02*
X165062500Y-81705000D01*
X165062500Y-82705000D01*
X167912500Y-82705000D01*
X167912500Y-81705000D01*
%TO.C,R49*%
X125812500Y-109705000D02*
X122962500Y-109705000D01*
X122962500Y-110705000D01*
X125812500Y-110705000D01*
X125812500Y-109705000D01*
%TO.C,R61*%
X167912500Y-109705000D02*
X165062500Y-109705000D01*
X165062500Y-110705000D01*
X167912500Y-110705000D01*
X167912500Y-109705000D01*
%TO.C,R50*%
X125812500Y-116705000D02*
X122962500Y-116705000D01*
X122962500Y-117705000D01*
X125812500Y-117705000D01*
X125812500Y-116705000D01*
%TO.C,R35*%
X132812500Y-95705000D02*
X129962500Y-95705000D01*
X129962500Y-96705000D01*
X132812500Y-96705000D01*
X132812500Y-95705000D01*
%TO.C,R18*%
X125825000Y-67630000D02*
X122975000Y-67630000D01*
X122975000Y-68630000D01*
X125825000Y-68630000D01*
X125825000Y-67630000D01*
%TD*%
M02*
