M48
; DRILL file {KiCad 8.0.5} date 2024-10-28T15:41:32-1000
; FORMAT={-:-/ absolute / inch / decimal}
; #@! TF.CreationDate,2024-10-28T15:41:32-10:00
; #@! TF.GenerationSoftware,Kicad,Pcbnew,8.0.5
; #@! TF.FileFunction,Plated,1,4,PTH
FMAT,2
INCH
; #@! TA.AperFunction,Plated,PTH,ViaDrill
T1C0.0157
; #@! TA.AperFunction,Plated,PTH,ComponentDrill
T2C0.0591
; #@! TA.AperFunction,Plated,PTH,ComponentDrill
T3C0.0984
%
G90
G05
T1
X4.8445Y-3.4402
X4.8976Y-4.0091
X4.9331Y-3.4638
X4.9331Y-4.5622
X4.937Y-3.1646
X4.9547Y-3.0543
X4.9587Y-4.2984
X4.9626Y-2.7866
X4.9626Y-3.6193
X4.9646Y-3.8575
X4.9646Y-4.4677
X4.9685Y-3.3319
X4.9685Y-4.7118
X4.9705Y-3.0051
X4.9724Y-4.3969
X4.9744Y-4.1823
X4.9838Y-3.7871
X4.9843Y-2.6823
X4.9843Y-3.2335
X5.0472Y-3.1626
X5.0807Y-3.7827
X5.1083Y-3.9815
X5.1516Y-4.013
X5.2067Y-4.5622
X5.2087Y-3.4638
X5.2087Y-4.7197
X5.2106Y-2.9087
X5.2116Y-3.2787
X5.2126Y-3.0681
X5.2126Y-3.1626
X5.2146Y-3.9205
X5.2146Y-4.4953
X5.2205Y-4.8673
X5.2264Y-4.2984
X5.2382Y-4.7827
X5.2383Y-3.9883
X5.2421Y-2.7886
X5.2598Y-2.6803
X5.2638Y-3.7866
X5.2648Y-3.0287
X5.2835Y-3.4736
X5.2835Y-4.0957
X5.2874Y-3.6862
X5.2874Y-4.3496
X5.3543Y-2.9224
X5.3583Y-3.2079
X5.4173Y-3.4559
X5.4311Y-3.7098
X5.4467Y-4.0074
X5.4823Y-3.4638
X5.4843Y-2.9087
X5.4843Y-4.5622
X5.4902Y-3.0563
X5.5Y-3.1843
X5.502Y-3.9205
X5.502Y-4.2984
X5.5039Y-4.1409
X5.5157Y-2.7886
X5.5354Y-4.7118
X5.5374Y-2.6823
X5.5374Y-3.7866
X5.5413Y-3.1114
X5.5413Y-4.4953
X5.5433Y-3.2846
X5.561Y-4.3594
X5.561Y-4.8673
X5.563Y-3.4776
X5.565Y-4.0898
X5.5669Y-3.6941
X5.5728Y-4.4224
X5.5866Y-4.515
X5.6417Y-3.2
X5.7126Y-3.9933
X5.7185Y-3.4657
X5.7578Y-3.4637
X5.7579Y-3.8398
X5.7579Y-4.5622
X5.7598Y-2.9087
X5.7618Y-2.7374
X5.7638Y-4.7118
X5.7717Y-3.0642
X5.7736Y-3.2787
X5.7736Y-3.6193
X5.7746Y-3.9882
X5.7746Y-4.2984
X5.7874Y-2.7886
X5.8425Y-3.1213
X5.8504Y-4.4087
X5.8524Y-3.698
X5.8563Y-4.076
X5.8661Y-3.4224
X5.8701Y-4.5248
X5.8858Y-3.4756
X5.9193Y-3.9835
X5.9252Y-3.1469
X5.9961Y-4.8673
X6.002Y-4.0091
X6.0197Y-3.2787
X6.0374Y-3.4638
X6.0374Y-4.5622
X6.0394Y-2.9087
X6.0453Y-3.0307
X6.0591Y-3.1193
X6.065Y-4.7118
X6.0669Y-2.7886
X6.0669Y-4.1528
X6.0669Y-4.2984
X6.0689Y-3.1803
X6.0728Y-3.9165
X6.0906Y-2.6823
X6.0925Y-3.4835
X6.0945Y-3.7866
X6.1043Y-4.5051
X6.1319Y-4.3594
X6.1378Y-3.7079
X6.1791Y-4.572
X6.2756Y-4.0091
X6.2795Y-3.7
X6.2894Y-4.5189
X6.2933Y-4.1213
X6.311Y-2.9087
X6.311Y-3.4638
X6.311Y-4.5622
X6.313Y-3.0366
X6.313Y-3.1193
X6.315Y-4.765
X6.3327Y-4.8673
X6.3366Y-2.7886
X6.3484Y-4.7118
X6.3512Y-4.2996
X6.3524Y-3.1961
X6.3524Y-3.9205
X6.3622Y-3.2787
X6.3642Y-2.6823
X6.3701Y-3.7866
X6.374Y-3.4815
X6.4114Y-4.3614
X6.4232Y-3.7138
X6.4606Y-3.4756
X6.4705Y-4.5681
X6.5157Y-3.1921
X6.5807Y-4.1508
X6.5846Y-3.0465
X6.6063Y-4.7768
X6.6102Y-3.9264
X6.6102Y-4.4362
X6.6102Y-4.7118
X6.6142Y-3.6055
X6.6201Y-2.7886
X6.6201Y-3.8693
X6.6201Y-4.263
X6.622Y-3.3535
X6.6496Y-2.6843
X6.6496Y-2.9579
X6.6496Y-3.2335
X6.6496Y-3.511
X6.6496Y-3.7886
X6.6496Y-4.0642
X6.6496Y-4.3378
X6.6496Y-4.6154
X6.7579Y-2.9028
X6.8406Y-2.8772
T2
X5.045Y-4.9864
X5.2205Y-4.9874
X5.3952Y-4.9864
X5.565Y-4.9874
X6.0039Y-4.9864
X6.1713Y-4.9854
X6.3386Y-4.9864
X6.5098Y-4.9854
T3
X4.8381Y-2.5108
X4.8381Y-4.9793
X5.783Y-2.5108
X5.783Y-4.9793
X6.7279Y-2.5108
X6.7279Y-4.9793
M30
