M48
; DRILL file {KiCad 8.0.5} date 2024-10-21T18:22:35-1000
; FORMAT={-:-/ absolute / inch / decimal}
; #@! TF.CreationDate,2024-10-21T18:22:35-10:00
; #@! TF.GenerationSoftware,Kicad,Pcbnew,8.0.5
; #@! TF.FileFunction,Plated,1,2,PTH
FMAT,2
INCH
; #@! TA.AperFunction,Plated,PTH,ViaDrill
T1C0.0157
; #@! TA.AperFunction,Plated,PTH,ComponentDrill
T2C0.0591
; #@! TA.AperFunction,Plated,PTH,ComponentDrill
T3C0.0984
%
G90
G05
T1
X4.8445Y-3.4402
X4.937Y-3.1646
X4.9724Y-4.3969
X5.0472Y-3.1626
X5.0807Y-3.7827
X5.1083Y-3.9815
X5.1516Y-4.013
X5.2087Y-4.7197
X5.2126Y-3.1626
X5.2146Y-3.9205
X5.2146Y-4.4953
X5.2382Y-4.7827
X5.2648Y-3.0287
X5.2835Y-3.4736
X5.2835Y-4.0957
X5.2874Y-3.6862
X5.2874Y-4.3496
X5.3012Y-3.1232
X5.3583Y-3.2079
X5.4311Y-3.7098
X5.502Y-3.9205
X5.5039Y-4.1409
X5.5413Y-3.1114
X5.5413Y-4.4953
X5.561Y-4.3594
X5.563Y-3.4776
X5.565Y-4.0898
X5.5669Y-3.6941
X5.5728Y-4.4224
X5.5866Y-4.515
X5.6417Y-3.2
X5.7126Y-3.9933
X5.7185Y-3.4657
X5.7736Y-3.6193
X5.8425Y-3.1213
X5.8504Y-4.4087
X5.8524Y-3.698
X5.8563Y-4.076
X5.8661Y-3.4224
X5.8701Y-4.5248
X5.8858Y-3.4756
X5.9193Y-3.9835
X5.9252Y-3.1469
X6.0591Y-3.1193
X6.0669Y-4.1528
X6.0689Y-3.1803
X6.0728Y-3.9165
X6.0925Y-3.4835
X6.1043Y-4.5051
X6.1319Y-4.3594
X6.1378Y-3.7079
X6.2795Y-3.7
X6.2894Y-4.5189
X6.2933Y-4.1213
X6.313Y-3.1193
X6.315Y-4.765
X6.3524Y-3.1961
X6.3524Y-3.9205
X6.374Y-3.4815
X6.3917Y-4.5051
X6.4114Y-4.3614
X6.4232Y-3.7138
X6.4606Y-3.4756
X6.5157Y-3.1921
X6.5453Y-3.1547
X6.5807Y-4.1508
X6.6102Y-3.9264
X6.6102Y-4.4362
T2
X5.045Y-4.9549
X5.2205Y-4.9559
X5.3952Y-4.9549
X5.565Y-4.9559
X6.0039Y-4.9549
X6.1713Y-4.9539
X6.3386Y-4.9549
X6.5098Y-4.9539
T3
X4.8381Y-2.5108
X4.8381Y-4.9793
X5.783Y-2.5108
X5.783Y-4.9793
X6.7279Y-2.5108
X6.7279Y-4.9793
M30
