%TF.GenerationSoftware,KiCad,Pcbnew,8.0.5*%
%TF.CreationDate,2024-11-25T13:54:07-10:00*%
%TF.ProjectId,SiPMT.revA,5369504d-542e-4726-9576-412e6b696361,rev?*%
%TF.SameCoordinates,Original*%
%TF.FileFunction,Soldermask,Top*%
%TF.FilePolarity,Negative*%
%FSLAX46Y46*%
G04 Gerber Fmt 4.6, Leading zero omitted, Abs format (unit mm)*
G04 Created by KiCad (PCBNEW 8.0.5) date 2024-11-25 13:54:07*
%MOMM*%
%LPD*%
G01*
G04 APERTURE LIST*
G04 Aperture macros list*
%AMRoundRect*
0 Rectangle with rounded corners*
0 $1 Rounding radius*
0 $2 $3 $4 $5 $6 $7 $8 $9 X,Y pos of 4 corners*
0 Add a 4 corners polygon primitive as box body*
4,1,4,$2,$3,$4,$5,$6,$7,$8,$9,$2,$3,0*
0 Add four circle primitives for the rounded corners*
1,1,$1+$1,$2,$3*
1,1,$1+$1,$4,$5*
1,1,$1+$1,$6,$7*
1,1,$1+$1,$8,$9*
0 Add four rect primitives between the rounded corners*
20,1,$1+$1,$2,$3,$4,$5,0*
20,1,$1+$1,$4,$5,$6,$7,0*
20,1,$1+$1,$6,$7,$8,$9,0*
20,1,$1+$1,$8,$9,$2,$3,0*%
G04 Aperture macros list end*
%ADD10C,5.000000*%
%ADD11RoundRect,0.450000X0.450000X-0.800000X0.450000X0.800000X-0.450000X0.800000X-0.450000X-0.800000X0*%
%ADD12C,3.000000*%
G04 APERTURE END LIST*
D10*
%TO.C,H1*%
X122887500Y-63775000D03*
%TD*%
%TO.C,H6*%
X170837500Y-126475000D03*
%TD*%
%TO.C,H3*%
X170887500Y-63775000D03*
%TD*%
%TO.C,H5*%
X146887500Y-126475000D03*
%TD*%
%TO.C,H2*%
X146887500Y-63775000D03*
%TD*%
%TO.C,H4*%
X122887500Y-126475000D03*
%TD*%
D11*
%TO.C,c0*%
X128887500Y-112150000D03*
X130687500Y-108400000D03*
X132487500Y-112150000D03*
X134287500Y-108400000D03*
X136087500Y-112150000D03*
X137887500Y-108400000D03*
X139687500Y-112150000D03*
X141487500Y-108400000D03*
X143287500Y-112150000D03*
X145087500Y-108400000D03*
X146887500Y-112150000D03*
X148687500Y-108400000D03*
X150487500Y-112150000D03*
X152287500Y-108400000D03*
X154087500Y-112150000D03*
X155887500Y-108400000D03*
X157687500Y-112150000D03*
X159487500Y-108400000D03*
X161287500Y-112150000D03*
X163087500Y-108400000D03*
X164887500Y-112150000D03*
%TD*%
D12*
%TO.C,H10*%
X165350000Y-126630000D03*
%TD*%
D11*
%TO.C,c3*%
X128887500Y-85150000D03*
X130687500Y-81400000D03*
X132487500Y-85150000D03*
X134287500Y-81400000D03*
X136087500Y-85150000D03*
X137887500Y-81400000D03*
X139687500Y-85150000D03*
X141487500Y-81400000D03*
X143287500Y-85150000D03*
X145087500Y-81400000D03*
X146887500Y-85150000D03*
X148687500Y-81400000D03*
X150487500Y-85150000D03*
X152287500Y-81400000D03*
X154087500Y-85150000D03*
X155887500Y-81400000D03*
X157687500Y-85150000D03*
X159487500Y-81400000D03*
X161287500Y-85150000D03*
X163087500Y-81400000D03*
X164887500Y-85150000D03*
%TD*%
%TO.C,c2*%
X128887500Y-94150000D03*
X130687500Y-90400000D03*
X132487500Y-94150000D03*
X134287500Y-90400000D03*
X136087500Y-94150000D03*
X137887500Y-90400000D03*
X139687500Y-94150000D03*
X141487500Y-90400000D03*
X143287500Y-94150000D03*
X145087500Y-90400000D03*
X146887500Y-94150000D03*
X148687500Y-90400000D03*
X150487500Y-94150000D03*
X152287500Y-90400000D03*
X154087500Y-94150000D03*
X155887500Y-90400000D03*
X157687500Y-94150000D03*
X159487500Y-90400000D03*
X161287500Y-94150000D03*
X163087500Y-90400000D03*
X164887500Y-94150000D03*
%TD*%
D12*
%TO.C,H9*%
X137037500Y-126655000D03*
%TD*%
%TO.C,Q3*%
X132600000Y-126680000D03*
%TD*%
%TO.C,H7*%
X156750000Y-126630000D03*
%TD*%
%TO.C,Q4*%
X161000000Y-126655000D03*
%TD*%
D11*
%TO.C,c1*%
X128887500Y-103150000D03*
X130687500Y-99400000D03*
X132487500Y-103150000D03*
X134287500Y-99400000D03*
X136087500Y-103150000D03*
X137887500Y-99400000D03*
X139687500Y-103150000D03*
X141487500Y-99400000D03*
X143287500Y-103150000D03*
X145087500Y-99400000D03*
X146887500Y-103150000D03*
X148687500Y-99400000D03*
X150487500Y-103150000D03*
X152287500Y-99400000D03*
X154087500Y-103150000D03*
X155887500Y-99400000D03*
X157687500Y-103150000D03*
X159487500Y-99400000D03*
X161287500Y-103150000D03*
X163087500Y-99400000D03*
X164887500Y-103150000D03*
%TD*%
D12*
%TO.C,Q2*%
X141350000Y-126680000D03*
%TD*%
%TO.C,Q1*%
X152500000Y-126655000D03*
%TD*%
%TO.C,H8*%
X128143148Y-126655000D03*
%TD*%
M02*
