%TF.GenerationSoftware,KiCad,Pcbnew,8.0.5*%
%TF.CreationDate,2024-10-28T15:41:29-10:00*%
%TF.ProjectId,SiPMT.revA,5369504d-542e-4726-9576-412e6b696361,rev?*%
%TF.SameCoordinates,Original*%
%TF.FileFunction,Legend,Bot*%
%TF.FilePolarity,Positive*%
%FSLAX46Y46*%
G04 Gerber Fmt 4.6, Leading zero omitted, Abs format (unit mm)*
G04 Created by KiCad (PCBNEW 8.0.5) date 2024-10-28 15:41:29*
%MOMM*%
%LPD*%
G01*
G04 APERTURE LIST*
%ADD10C,0.150000*%
%ADD11C,0.120000*%
%ADD12C,0.010000*%
G04 APERTURE END LIST*
D10*
X161246554Y-108795057D02*
X161341792Y-108747438D01*
X161341792Y-108747438D02*
X161437030Y-108652200D01*
X161437030Y-108652200D02*
X161579887Y-108509342D01*
X161579887Y-108509342D02*
X161675125Y-108461723D01*
X161675125Y-108461723D02*
X161770363Y-108461723D01*
X161722744Y-108699819D02*
X161817982Y-108652200D01*
X161817982Y-108652200D02*
X161913220Y-108556961D01*
X161913220Y-108556961D02*
X161960839Y-108366485D01*
X161960839Y-108366485D02*
X161960839Y-108033152D01*
X161960839Y-108033152D02*
X161913220Y-107842676D01*
X161913220Y-107842676D02*
X161817982Y-107747438D01*
X161817982Y-107747438D02*
X161722744Y-107699819D01*
X161722744Y-107699819D02*
X161532268Y-107699819D01*
X161532268Y-107699819D02*
X161437030Y-107747438D01*
X161437030Y-107747438D02*
X161341792Y-107842676D01*
X161341792Y-107842676D02*
X161294173Y-108033152D01*
X161294173Y-108033152D02*
X161294173Y-108366485D01*
X161294173Y-108366485D02*
X161341792Y-108556961D01*
X161341792Y-108556961D02*
X161437030Y-108652200D01*
X161437030Y-108652200D02*
X161532268Y-108699819D01*
X161532268Y-108699819D02*
X161722744Y-108699819D01*
X160437030Y-108033152D02*
X160437030Y-108699819D01*
X160675125Y-107652200D02*
X160913220Y-108366485D01*
X160913220Y-108366485D02*
X160294173Y-108366485D01*
X133796554Y-108795057D02*
X133891792Y-108747438D01*
X133891792Y-108747438D02*
X133987030Y-108652200D01*
X133987030Y-108652200D02*
X134129887Y-108509342D01*
X134129887Y-108509342D02*
X134225125Y-108461723D01*
X134225125Y-108461723D02*
X134320363Y-108461723D01*
X134272744Y-108699819D02*
X134367982Y-108652200D01*
X134367982Y-108652200D02*
X134463220Y-108556961D01*
X134463220Y-108556961D02*
X134510839Y-108366485D01*
X134510839Y-108366485D02*
X134510839Y-108033152D01*
X134510839Y-108033152D02*
X134463220Y-107842676D01*
X134463220Y-107842676D02*
X134367982Y-107747438D01*
X134367982Y-107747438D02*
X134272744Y-107699819D01*
X134272744Y-107699819D02*
X134082268Y-107699819D01*
X134082268Y-107699819D02*
X133987030Y-107747438D01*
X133987030Y-107747438D02*
X133891792Y-107842676D01*
X133891792Y-107842676D02*
X133844173Y-108033152D01*
X133844173Y-108033152D02*
X133844173Y-108366485D01*
X133844173Y-108366485D02*
X133891792Y-108556961D01*
X133891792Y-108556961D02*
X133987030Y-108652200D01*
X133987030Y-108652200D02*
X134082268Y-108699819D01*
X134082268Y-108699819D02*
X134272744Y-108699819D01*
X133510839Y-107699819D02*
X132891792Y-107699819D01*
X132891792Y-107699819D02*
X133225125Y-108080771D01*
X133225125Y-108080771D02*
X133082268Y-108080771D01*
X133082268Y-108080771D02*
X132987030Y-108128390D01*
X132987030Y-108128390D02*
X132939411Y-108176009D01*
X132939411Y-108176009D02*
X132891792Y-108271247D01*
X132891792Y-108271247D02*
X132891792Y-108509342D01*
X132891792Y-108509342D02*
X132939411Y-108604580D01*
X132939411Y-108604580D02*
X132987030Y-108652200D01*
X132987030Y-108652200D02*
X133082268Y-108699819D01*
X133082268Y-108699819D02*
X133367982Y-108699819D01*
X133367982Y-108699819D02*
X133463220Y-108652200D01*
X133463220Y-108652200D02*
X133510839Y-108604580D01*
X133796554Y-80545057D02*
X133891792Y-80497438D01*
X133891792Y-80497438D02*
X133987030Y-80402200D01*
X133987030Y-80402200D02*
X134129887Y-80259342D01*
X134129887Y-80259342D02*
X134225125Y-80211723D01*
X134225125Y-80211723D02*
X134320363Y-80211723D01*
X134272744Y-80449819D02*
X134367982Y-80402200D01*
X134367982Y-80402200D02*
X134463220Y-80306961D01*
X134463220Y-80306961D02*
X134510839Y-80116485D01*
X134510839Y-80116485D02*
X134510839Y-79783152D01*
X134510839Y-79783152D02*
X134463220Y-79592676D01*
X134463220Y-79592676D02*
X134367982Y-79497438D01*
X134367982Y-79497438D02*
X134272744Y-79449819D01*
X134272744Y-79449819D02*
X134082268Y-79449819D01*
X134082268Y-79449819D02*
X133987030Y-79497438D01*
X133987030Y-79497438D02*
X133891792Y-79592676D01*
X133891792Y-79592676D02*
X133844173Y-79783152D01*
X133844173Y-79783152D02*
X133844173Y-80116485D01*
X133844173Y-80116485D02*
X133891792Y-80306961D01*
X133891792Y-80306961D02*
X133987030Y-80402200D01*
X133987030Y-80402200D02*
X134082268Y-80449819D01*
X134082268Y-80449819D02*
X134272744Y-80449819D01*
X133463220Y-79545057D02*
X133415601Y-79497438D01*
X133415601Y-79497438D02*
X133320363Y-79449819D01*
X133320363Y-79449819D02*
X133082268Y-79449819D01*
X133082268Y-79449819D02*
X132987030Y-79497438D01*
X132987030Y-79497438D02*
X132939411Y-79545057D01*
X132939411Y-79545057D02*
X132891792Y-79640295D01*
X132891792Y-79640295D02*
X132891792Y-79735533D01*
X132891792Y-79735533D02*
X132939411Y-79878390D01*
X132939411Y-79878390D02*
X133510839Y-80449819D01*
X133510839Y-80449819D02*
X132891792Y-80449819D01*
X161446554Y-80545057D02*
X161541792Y-80497438D01*
X161541792Y-80497438D02*
X161637030Y-80402200D01*
X161637030Y-80402200D02*
X161779887Y-80259342D01*
X161779887Y-80259342D02*
X161875125Y-80211723D01*
X161875125Y-80211723D02*
X161970363Y-80211723D01*
X161922744Y-80449819D02*
X162017982Y-80402200D01*
X162017982Y-80402200D02*
X162113220Y-80306961D01*
X162113220Y-80306961D02*
X162160839Y-80116485D01*
X162160839Y-80116485D02*
X162160839Y-79783152D01*
X162160839Y-79783152D02*
X162113220Y-79592676D01*
X162113220Y-79592676D02*
X162017982Y-79497438D01*
X162017982Y-79497438D02*
X161922744Y-79449819D01*
X161922744Y-79449819D02*
X161732268Y-79449819D01*
X161732268Y-79449819D02*
X161637030Y-79497438D01*
X161637030Y-79497438D02*
X161541792Y-79592676D01*
X161541792Y-79592676D02*
X161494173Y-79783152D01*
X161494173Y-79783152D02*
X161494173Y-80116485D01*
X161494173Y-80116485D02*
X161541792Y-80306961D01*
X161541792Y-80306961D02*
X161637030Y-80402200D01*
X161637030Y-80402200D02*
X161732268Y-80449819D01*
X161732268Y-80449819D02*
X161922744Y-80449819D01*
X160541792Y-80449819D02*
X161113220Y-80449819D01*
X160827506Y-80449819D02*
X160827506Y-79449819D01*
X160827506Y-79449819D02*
X160922744Y-79592676D01*
X160922744Y-79592676D02*
X161017982Y-79687914D01*
X161017982Y-79687914D02*
X161113220Y-79735533D01*
X119550000Y-94680000D02*
X174050000Y-94680000D01*
X147800000Y-67130000D02*
X147800000Y-122330000D01*
X132676190Y-129418485D02*
X132752380Y-129380390D01*
X132752380Y-129380390D02*
X132828571Y-129304200D01*
X132828571Y-129304200D02*
X132942857Y-129189914D01*
X132942857Y-129189914D02*
X133019047Y-129151819D01*
X133019047Y-129151819D02*
X133095238Y-129151819D01*
X133057142Y-129342295D02*
X133133333Y-129304200D01*
X133133333Y-129304200D02*
X133209523Y-129228009D01*
X133209523Y-129228009D02*
X133247619Y-129075628D01*
X133247619Y-129075628D02*
X133247619Y-128808961D01*
X133247619Y-128808961D02*
X133209523Y-128656580D01*
X133209523Y-128656580D02*
X133133333Y-128580390D01*
X133133333Y-128580390D02*
X133057142Y-128542295D01*
X133057142Y-128542295D02*
X132904761Y-128542295D01*
X132904761Y-128542295D02*
X132828571Y-128580390D01*
X132828571Y-128580390D02*
X132752380Y-128656580D01*
X132752380Y-128656580D02*
X132714285Y-128808961D01*
X132714285Y-128808961D02*
X132714285Y-129075628D01*
X132714285Y-129075628D02*
X132752380Y-129228009D01*
X132752380Y-129228009D02*
X132828571Y-129304200D01*
X132828571Y-129304200D02*
X132904761Y-129342295D01*
X132904761Y-129342295D02*
X133057142Y-129342295D01*
X132447619Y-128542295D02*
X131952381Y-128542295D01*
X131952381Y-128542295D02*
X132219047Y-128847057D01*
X132219047Y-128847057D02*
X132104762Y-128847057D01*
X132104762Y-128847057D02*
X132028571Y-128885152D01*
X132028571Y-128885152D02*
X131990476Y-128923247D01*
X131990476Y-128923247D02*
X131952381Y-128999438D01*
X131952381Y-128999438D02*
X131952381Y-129189914D01*
X131952381Y-129189914D02*
X131990476Y-129266104D01*
X131990476Y-129266104D02*
X132028571Y-129304200D01*
X132028571Y-129304200D02*
X132104762Y-129342295D01*
X132104762Y-129342295D02*
X132333333Y-129342295D01*
X132333333Y-129342295D02*
X132409524Y-129304200D01*
X132409524Y-129304200D02*
X132447619Y-129266104D01*
X161076190Y-129418485D02*
X161152380Y-129380390D01*
X161152380Y-129380390D02*
X161228571Y-129304200D01*
X161228571Y-129304200D02*
X161342857Y-129189914D01*
X161342857Y-129189914D02*
X161419047Y-129151819D01*
X161419047Y-129151819D02*
X161495238Y-129151819D01*
X161457142Y-129342295D02*
X161533333Y-129304200D01*
X161533333Y-129304200D02*
X161609523Y-129228009D01*
X161609523Y-129228009D02*
X161647619Y-129075628D01*
X161647619Y-129075628D02*
X161647619Y-128808961D01*
X161647619Y-128808961D02*
X161609523Y-128656580D01*
X161609523Y-128656580D02*
X161533333Y-128580390D01*
X161533333Y-128580390D02*
X161457142Y-128542295D01*
X161457142Y-128542295D02*
X161304761Y-128542295D01*
X161304761Y-128542295D02*
X161228571Y-128580390D01*
X161228571Y-128580390D02*
X161152380Y-128656580D01*
X161152380Y-128656580D02*
X161114285Y-128808961D01*
X161114285Y-128808961D02*
X161114285Y-129075628D01*
X161114285Y-129075628D02*
X161152380Y-129228009D01*
X161152380Y-129228009D02*
X161228571Y-129304200D01*
X161228571Y-129304200D02*
X161304761Y-129342295D01*
X161304761Y-129342295D02*
X161457142Y-129342295D01*
X160428571Y-128808961D02*
X160428571Y-129342295D01*
X160619047Y-128504200D02*
X160809524Y-129075628D01*
X160809524Y-129075628D02*
X160314285Y-129075628D01*
X141426190Y-129468485D02*
X141502380Y-129430390D01*
X141502380Y-129430390D02*
X141578571Y-129354200D01*
X141578571Y-129354200D02*
X141692857Y-129239914D01*
X141692857Y-129239914D02*
X141769047Y-129201819D01*
X141769047Y-129201819D02*
X141845238Y-129201819D01*
X141807142Y-129392295D02*
X141883333Y-129354200D01*
X141883333Y-129354200D02*
X141959523Y-129278009D01*
X141959523Y-129278009D02*
X141997619Y-129125628D01*
X141997619Y-129125628D02*
X141997619Y-128858961D01*
X141997619Y-128858961D02*
X141959523Y-128706580D01*
X141959523Y-128706580D02*
X141883333Y-128630390D01*
X141883333Y-128630390D02*
X141807142Y-128592295D01*
X141807142Y-128592295D02*
X141654761Y-128592295D01*
X141654761Y-128592295D02*
X141578571Y-128630390D01*
X141578571Y-128630390D02*
X141502380Y-128706580D01*
X141502380Y-128706580D02*
X141464285Y-128858961D01*
X141464285Y-128858961D02*
X141464285Y-129125628D01*
X141464285Y-129125628D02*
X141502380Y-129278009D01*
X141502380Y-129278009D02*
X141578571Y-129354200D01*
X141578571Y-129354200D02*
X141654761Y-129392295D01*
X141654761Y-129392295D02*
X141807142Y-129392295D01*
X141159524Y-128668485D02*
X141121428Y-128630390D01*
X141121428Y-128630390D02*
X141045238Y-128592295D01*
X141045238Y-128592295D02*
X140854762Y-128592295D01*
X140854762Y-128592295D02*
X140778571Y-128630390D01*
X140778571Y-128630390D02*
X140740476Y-128668485D01*
X140740476Y-128668485D02*
X140702381Y-128744676D01*
X140702381Y-128744676D02*
X140702381Y-128820866D01*
X140702381Y-128820866D02*
X140740476Y-128935152D01*
X140740476Y-128935152D02*
X141197619Y-129392295D01*
X141197619Y-129392295D02*
X140702381Y-129392295D01*
X152626190Y-129418485D02*
X152702380Y-129380390D01*
X152702380Y-129380390D02*
X152778571Y-129304200D01*
X152778571Y-129304200D02*
X152892857Y-129189914D01*
X152892857Y-129189914D02*
X152969047Y-129151819D01*
X152969047Y-129151819D02*
X153045238Y-129151819D01*
X153007142Y-129342295D02*
X153083333Y-129304200D01*
X153083333Y-129304200D02*
X153159523Y-129228009D01*
X153159523Y-129228009D02*
X153197619Y-129075628D01*
X153197619Y-129075628D02*
X153197619Y-128808961D01*
X153197619Y-128808961D02*
X153159523Y-128656580D01*
X153159523Y-128656580D02*
X153083333Y-128580390D01*
X153083333Y-128580390D02*
X153007142Y-128542295D01*
X153007142Y-128542295D02*
X152854761Y-128542295D01*
X152854761Y-128542295D02*
X152778571Y-128580390D01*
X152778571Y-128580390D02*
X152702380Y-128656580D01*
X152702380Y-128656580D02*
X152664285Y-128808961D01*
X152664285Y-128808961D02*
X152664285Y-129075628D01*
X152664285Y-129075628D02*
X152702380Y-129228009D01*
X152702380Y-129228009D02*
X152778571Y-129304200D01*
X152778571Y-129304200D02*
X152854761Y-129342295D01*
X152854761Y-129342295D02*
X153007142Y-129342295D01*
X151902381Y-129342295D02*
X152359524Y-129342295D01*
X152130952Y-129342295D02*
X152130952Y-128542295D01*
X152130952Y-128542295D02*
X152207143Y-128656580D01*
X152207143Y-128656580D02*
X152283333Y-128732771D01*
X152283333Y-128732771D02*
X152359524Y-128770866D01*
D11*
%TO.C,R3*%
X159025000Y-67805000D02*
X159775000Y-67805000D01*
X159025000Y-68505000D02*
X159775000Y-68505000D01*
%TO.C,D40*%
D12*
X143875000Y-105155000D02*
X142875000Y-105155000D01*
X142875000Y-106155000D01*
X143875000Y-106155000D01*
X143875000Y-105155000D01*
G36*
X143875000Y-105155000D02*
G01*
X142875000Y-105155000D01*
X142875000Y-106155000D01*
X143875000Y-106155000D01*
X143875000Y-105155000D01*
G37*
D11*
X144900000Y-104705000D02*
X142475000Y-104705000D01*
X142475000Y-106605000D01*
X144900000Y-106605000D01*
X144900000Y-104705000D01*
%TO.C,D11*%
D12*
X122857500Y-91155000D02*
X121857500Y-91155000D01*
X121857500Y-92155000D01*
X122857500Y-92155000D01*
X122857500Y-91155000D01*
G36*
X122857500Y-91155000D02*
G01*
X121857500Y-91155000D01*
X121857500Y-92155000D01*
X122857500Y-92155000D01*
X122857500Y-91155000D01*
G37*
D11*
X123882500Y-90705000D02*
X121457500Y-90705000D01*
X121457500Y-92605000D01*
X123882500Y-92605000D01*
X123882500Y-90705000D01*
%TO.C,D25*%
D12*
X150875000Y-84205000D02*
X149875000Y-84205000D01*
X149875000Y-85205000D01*
X150875000Y-85205000D01*
X150875000Y-84205000D01*
G36*
X150875000Y-84205000D02*
G01*
X149875000Y-84205000D01*
X149875000Y-85205000D01*
X150875000Y-85205000D01*
X150875000Y-84205000D01*
G37*
D11*
X151900000Y-83755000D02*
X149475000Y-83755000D01*
X149475000Y-85655000D01*
X151900000Y-85655000D01*
X151900000Y-83755000D01*
%TO.C,D20*%
D12*
X129837500Y-77180000D02*
X128837500Y-77180000D01*
X128837500Y-78180000D01*
X129837500Y-78180000D01*
X129837500Y-77180000D01*
G36*
X129837500Y-77180000D02*
G01*
X128837500Y-77180000D01*
X128837500Y-78180000D01*
X129837500Y-78180000D01*
X129837500Y-77180000D01*
G37*
D11*
X130862500Y-76730000D02*
X128437500Y-76730000D01*
X128437500Y-78630000D01*
X130862500Y-78630000D01*
X130862500Y-76730000D01*
%TO.C,D42*%
D12*
X150875000Y-105155000D02*
X149875000Y-105155000D01*
X149875000Y-106155000D01*
X150875000Y-106155000D01*
X150875000Y-105155000D01*
G36*
X150875000Y-105155000D02*
G01*
X149875000Y-105155000D01*
X149875000Y-106155000D01*
X150875000Y-106155000D01*
X150875000Y-105155000D01*
G37*
D11*
X151900000Y-104705000D02*
X149475000Y-104705000D01*
X149475000Y-106605000D01*
X151900000Y-106605000D01*
X151900000Y-104705000D01*
%TO.C,R1*%
X152112500Y-67805000D02*
X152862500Y-67805000D01*
X152112500Y-68505000D02*
X152862500Y-68505000D01*
%TO.C,R55*%
X144962500Y-109855000D02*
X145712500Y-109855000D01*
X144962500Y-110555000D02*
X145712500Y-110555000D01*
%TO.C,R58*%
X152062500Y-116855000D02*
X152812500Y-116855000D01*
X152062500Y-117555000D02*
X152812500Y-117555000D01*
%TO.C,D4*%
D12*
X157875000Y-77155000D02*
X156875000Y-77155000D01*
X156875000Y-78155000D01*
X157875000Y-78155000D01*
X157875000Y-77155000D01*
G36*
X157875000Y-77155000D02*
G01*
X156875000Y-77155000D01*
X156875000Y-78155000D01*
X157875000Y-78155000D01*
X157875000Y-77155000D01*
G37*
D11*
X158900000Y-76705000D02*
X156475000Y-76705000D01*
X156475000Y-78605000D01*
X158900000Y-78605000D01*
X158900000Y-76705000D01*
%TO.C,R5*%
X166112500Y-67805000D02*
X166862500Y-67805000D01*
X166112500Y-68505000D02*
X166862500Y-68505000D01*
%TO.C,D55*%
D12*
X143875000Y-112155000D02*
X142875000Y-112155000D01*
X142875000Y-113155000D01*
X143875000Y-113155000D01*
X143875000Y-112155000D01*
G36*
X143875000Y-112155000D02*
G01*
X142875000Y-112155000D01*
X142875000Y-113155000D01*
X143875000Y-113155000D01*
X143875000Y-112155000D01*
G37*
D11*
X144900000Y-111705000D02*
X142475000Y-111705000D01*
X142475000Y-113605000D01*
X144900000Y-113605000D01*
X144900000Y-111705000D01*
%TO.C,R43*%
X159012500Y-95855000D02*
X159762500Y-95855000D01*
X159012500Y-96555000D02*
X159762500Y-96555000D01*
%TO.C,D32*%
D12*
X171875000Y-91155000D02*
X170875000Y-91155000D01*
X170875000Y-92155000D01*
X171875000Y-92155000D01*
X171875000Y-91155000D01*
G36*
X171875000Y-91155000D02*
G01*
X170875000Y-91155000D01*
X170875000Y-92155000D01*
X171875000Y-92155000D01*
X171875000Y-91155000D01*
G37*
D11*
X172900000Y-90705000D02*
X170475000Y-90705000D01*
X170475000Y-92605000D01*
X172900000Y-92605000D01*
X172900000Y-90705000D01*
%TO.C,D36*%
D12*
X129825000Y-105155000D02*
X128825000Y-105155000D01*
X128825000Y-106155000D01*
X129825000Y-106155000D01*
X129825000Y-105155000D01*
G36*
X129825000Y-105155000D02*
G01*
X128825000Y-105155000D01*
X128825000Y-106155000D01*
X129825000Y-106155000D01*
X129825000Y-105155000D01*
G37*
D11*
X130850000Y-104705000D02*
X128425000Y-104705000D01*
X128425000Y-106605000D01*
X130850000Y-106605000D01*
X130850000Y-104705000D01*
%TO.C,D43*%
D12*
X157825000Y-98155000D02*
X156825000Y-98155000D01*
X156825000Y-99155000D01*
X157825000Y-99155000D01*
X157825000Y-98155000D01*
G36*
X157825000Y-98155000D02*
G01*
X156825000Y-98155000D01*
X156825000Y-99155000D01*
X157825000Y-99155000D01*
X157825000Y-98155000D01*
G37*
D11*
X158850000Y-97705000D02*
X156425000Y-97705000D01*
X156425000Y-99605000D01*
X158850000Y-99605000D01*
X158850000Y-97705000D01*
%TO.C,D53*%
D12*
X136875000Y-112155000D02*
X135875000Y-112155000D01*
X135875000Y-113155000D01*
X136875000Y-113155000D01*
X136875000Y-112155000D01*
G36*
X136875000Y-112155000D02*
G01*
X135875000Y-112155000D01*
X135875000Y-113155000D01*
X136875000Y-113155000D01*
X136875000Y-112155000D01*
G37*
D11*
X137900000Y-111705000D02*
X135475000Y-111705000D01*
X135475000Y-113605000D01*
X137900000Y-113605000D01*
X137900000Y-111705000D01*
%TO.C,R48*%
X171575000Y-102855000D02*
X170825000Y-102855000D01*
X171575000Y-103555000D02*
X170825000Y-103555000D01*
%TO.C,D10*%
D12*
X122852500Y-84205000D02*
X121852500Y-84205000D01*
X121852500Y-85205000D01*
X122852500Y-85205000D01*
X122852500Y-84205000D01*
G36*
X122852500Y-84205000D02*
G01*
X121852500Y-84205000D01*
X121852500Y-85205000D01*
X122852500Y-85205000D01*
X122852500Y-84205000D01*
G37*
D11*
X123877500Y-83755000D02*
X121452500Y-83755000D01*
X121452500Y-85655000D01*
X123877500Y-85655000D01*
X123877500Y-83755000D01*
%TO.C,C4*%
X130166233Y-124140000D02*
X130458767Y-124140000D01*
X130166233Y-123120000D02*
X130458767Y-123120000D01*
%TO.C,D17*%
D12*
X143850000Y-77180000D02*
X142850000Y-77180000D01*
X142850000Y-78180000D01*
X143850000Y-78180000D01*
X143850000Y-77180000D01*
G36*
X143850000Y-77180000D02*
G01*
X142850000Y-77180000D01*
X142850000Y-78180000D01*
X143850000Y-78180000D01*
X143850000Y-77180000D01*
G37*
D11*
X144875000Y-76730000D02*
X142450000Y-76730000D01*
X142450000Y-78630000D01*
X144875000Y-78630000D01*
X144875000Y-76730000D01*
%TO.C,R24*%
X144950000Y-88855000D02*
X145700000Y-88855000D01*
X144950000Y-89555000D02*
X145700000Y-89555000D01*
%TO.C,R16*%
X138012500Y-88855000D02*
X138762500Y-88855000D01*
X138012500Y-89555000D02*
X138762500Y-89555000D01*
%TO.C,D14*%
D12*
X136900000Y-84205000D02*
X135900000Y-84205000D01*
X135900000Y-85205000D01*
X136900000Y-85205000D01*
X136900000Y-84205000D01*
G36*
X136900000Y-84205000D02*
G01*
X135900000Y-84205000D01*
X135900000Y-85205000D01*
X136900000Y-85205000D01*
X136900000Y-84205000D01*
G37*
D11*
X137925000Y-83755000D02*
X135500000Y-83755000D01*
X135500000Y-85655000D01*
X137925000Y-85655000D01*
X137925000Y-83755000D01*
%TO.C,D18*%
D12*
X122787500Y-70180000D02*
X121787500Y-70180000D01*
X121787500Y-71180000D01*
X122787500Y-71180000D01*
X122787500Y-70180000D01*
G36*
X122787500Y-70180000D02*
G01*
X121787500Y-70180000D01*
X121787500Y-71180000D01*
X122787500Y-71180000D01*
X122787500Y-70180000D01*
G37*
D11*
X123812500Y-69730000D02*
X121387500Y-69730000D01*
X121387500Y-71630000D01*
X123812500Y-71630000D01*
X123812500Y-69730000D01*
%TO.C,D54*%
D12*
X136887500Y-119155000D02*
X135887500Y-119155000D01*
X135887500Y-120155000D01*
X136887500Y-120155000D01*
X136887500Y-119155000D01*
G36*
X136887500Y-119155000D02*
G01*
X135887500Y-119155000D01*
X135887500Y-120155000D01*
X136887500Y-120155000D01*
X136887500Y-119155000D01*
G37*
D11*
X137912500Y-118705000D02*
X135487500Y-118705000D01*
X135487500Y-120605000D01*
X137912500Y-120605000D01*
X137912500Y-118705000D01*
%TO.C,R21*%
X138025000Y-67780000D02*
X138775000Y-67780000D01*
X138025000Y-68480000D02*
X138775000Y-68480000D01*
%TO.C,R57*%
X152062500Y-109855000D02*
X152812500Y-109855000D01*
X152062500Y-110555000D02*
X152812500Y-110555000D01*
%TO.C,R7*%
X124025000Y-74780000D02*
X124775000Y-74780000D01*
X124025000Y-75480000D02*
X124775000Y-75480000D01*
%TO.C,D38*%
D12*
X136925000Y-105155000D02*
X135925000Y-105155000D01*
X135925000Y-106155000D01*
X136925000Y-106155000D01*
X136925000Y-105155000D01*
G36*
X136925000Y-105155000D02*
G01*
X135925000Y-105155000D01*
X135925000Y-106155000D01*
X136925000Y-106155000D01*
X136925000Y-105155000D01*
G37*
D11*
X137950000Y-104705000D02*
X135525000Y-104705000D01*
X135525000Y-106605000D01*
X137950000Y-106605000D01*
X137950000Y-104705000D01*
%TO.C,D33*%
D12*
X122875000Y-98155000D02*
X121875000Y-98155000D01*
X121875000Y-99155000D01*
X122875000Y-99155000D01*
X122875000Y-98155000D01*
G36*
X122875000Y-98155000D02*
G01*
X121875000Y-98155000D01*
X121875000Y-99155000D01*
X122875000Y-99155000D01*
X122875000Y-98155000D01*
G37*
D11*
X123900000Y-97705000D02*
X121475000Y-97705000D01*
X121475000Y-99605000D01*
X123900000Y-99605000D01*
X123900000Y-97705000D01*
%TO.C,D62*%
D12*
X164837500Y-119155000D02*
X163837500Y-119155000D01*
X163837500Y-120155000D01*
X164837500Y-120155000D01*
X164837500Y-119155000D01*
G36*
X164837500Y-119155000D02*
G01*
X163837500Y-119155000D01*
X163837500Y-120155000D01*
X164837500Y-120155000D01*
X164837500Y-119155000D01*
G37*
D11*
X165862500Y-118705000D02*
X163437500Y-118705000D01*
X163437500Y-120605000D01*
X165862500Y-120605000D01*
X165862500Y-118705000D01*
%TO.C,R8*%
X171575000Y-67830000D02*
X170825000Y-67830000D01*
X171575000Y-68530000D02*
X170825000Y-68530000D01*
%TO.C,R52*%
X130962500Y-116855000D02*
X131712500Y-116855000D01*
X130962500Y-117555000D02*
X131712500Y-117555000D01*
%TO.C,R23*%
X144962500Y-81855000D02*
X145712500Y-81855000D01*
X144962500Y-82555000D02*
X145712500Y-82555000D01*
%TO.C,R17*%
X145025000Y-74780000D02*
X145775000Y-74780000D01*
X145025000Y-75480000D02*
X145775000Y-75480000D01*
%TO.C,R20*%
X131025000Y-74780000D02*
X131775000Y-74780000D01*
X131025000Y-75480000D02*
X131775000Y-75480000D01*
%TO.C,R38*%
X138012500Y-102855000D02*
X138762500Y-102855000D01*
X138012500Y-103555000D02*
X138762500Y-103555000D01*
%TO.C,R22*%
X145025000Y-67830000D02*
X145775000Y-67830000D01*
X145025000Y-68530000D02*
X145775000Y-68530000D01*
%TO.C,D8*%
D12*
X171875000Y-70155000D02*
X170875000Y-70155000D01*
X170875000Y-71155000D01*
X171875000Y-71155000D01*
X171875000Y-70155000D01*
G36*
X171875000Y-70155000D02*
G01*
X170875000Y-70155000D01*
X170875000Y-71155000D01*
X171875000Y-71155000D01*
X171875000Y-70155000D01*
G37*
D11*
X172900000Y-69705000D02*
X170475000Y-69705000D01*
X170475000Y-71605000D01*
X172900000Y-71605000D01*
X172900000Y-69705000D01*
%TO.C,D64*%
D12*
X171837500Y-119155000D02*
X170837500Y-119155000D01*
X170837500Y-120155000D01*
X171837500Y-120155000D01*
X171837500Y-119155000D01*
G36*
X171837500Y-119155000D02*
G01*
X170837500Y-119155000D01*
X170837500Y-120155000D01*
X171837500Y-120155000D01*
X171837500Y-119155000D01*
G37*
D11*
X172862500Y-118705000D02*
X170437500Y-118705000D01*
X170437500Y-120605000D01*
X172862500Y-120605000D01*
X172862500Y-118705000D01*
%TO.C,D37*%
D12*
X136925000Y-98155000D02*
X135925000Y-98155000D01*
X135925000Y-99155000D01*
X136925000Y-99155000D01*
X136925000Y-98155000D01*
G36*
X136925000Y-98155000D02*
G01*
X135925000Y-98155000D01*
X135925000Y-99155000D01*
X136925000Y-99155000D01*
X136925000Y-98155000D01*
G37*
D11*
X137950000Y-97705000D02*
X135525000Y-97705000D01*
X135525000Y-99605000D01*
X137950000Y-99605000D01*
X137950000Y-97705000D01*
%TO.C,D12*%
D12*
X129875000Y-84205000D02*
X128875000Y-84205000D01*
X128875000Y-85205000D01*
X129875000Y-85205000D01*
X129875000Y-84205000D01*
G36*
X129875000Y-84205000D02*
G01*
X128875000Y-84205000D01*
X128875000Y-85205000D01*
X129875000Y-85205000D01*
X129875000Y-84205000D01*
G37*
D11*
X130900000Y-83755000D02*
X128475000Y-83755000D01*
X128475000Y-85655000D01*
X130900000Y-85655000D01*
X130900000Y-83755000D01*
%TO.C,R46*%
X166112500Y-102855000D02*
X166862500Y-102855000D01*
X166112500Y-103555000D02*
X166862500Y-103555000D01*
%TO.C,C7*%
X154503733Y-124140000D02*
X154796267Y-124140000D01*
X154503733Y-123120000D02*
X154796267Y-123120000D01*
%TO.C,D46*%
D12*
X164875000Y-105155000D02*
X163875000Y-105155000D01*
X163875000Y-106155000D01*
X164875000Y-106155000D01*
X164875000Y-105155000D01*
G36*
X164875000Y-105155000D02*
G01*
X163875000Y-105155000D01*
X163875000Y-106155000D01*
X164875000Y-106155000D01*
X164875000Y-105155000D01*
G37*
D11*
X165900000Y-104705000D02*
X163475000Y-104705000D01*
X163475000Y-106605000D01*
X165900000Y-106605000D01*
X165900000Y-104705000D01*
%TO.C,D26*%
D12*
X150875000Y-91155000D02*
X149875000Y-91155000D01*
X149875000Y-92155000D01*
X150875000Y-92155000D01*
X150875000Y-91155000D01*
G36*
X150875000Y-91155000D02*
G01*
X149875000Y-91155000D01*
X149875000Y-92155000D01*
X150875000Y-92155000D01*
X150875000Y-91155000D01*
G37*
D11*
X151900000Y-90705000D02*
X149475000Y-90705000D01*
X149475000Y-92605000D01*
X151900000Y-92605000D01*
X151900000Y-90705000D01*
%TO.C,R39*%
X144962500Y-95855000D02*
X145712500Y-95855000D01*
X144962500Y-96555000D02*
X145712500Y-96555000D01*
%TO.C,D60*%
D12*
X157887500Y-119155000D02*
X156887500Y-119155000D01*
X156887500Y-120155000D01*
X157887500Y-120155000D01*
X157887500Y-119155000D01*
G36*
X157887500Y-119155000D02*
G01*
X156887500Y-119155000D01*
X156887500Y-120155000D01*
X157887500Y-120155000D01*
X157887500Y-119155000D01*
G37*
D11*
X158912500Y-118705000D02*
X156487500Y-118705000D01*
X156487500Y-120605000D01*
X158912500Y-120605000D01*
X158912500Y-118705000D01*
%TO.C,D7*%
D12*
X122800000Y-77180000D02*
X121800000Y-77180000D01*
X121800000Y-78180000D01*
X122800000Y-78180000D01*
X122800000Y-77180000D01*
G36*
X122800000Y-77180000D02*
G01*
X121800000Y-77180000D01*
X121800000Y-78180000D01*
X122800000Y-78180000D01*
X122800000Y-77180000D01*
G37*
D11*
X123825000Y-76730000D02*
X121400000Y-76730000D01*
X121400000Y-78630000D01*
X123825000Y-78630000D01*
X123825000Y-76730000D01*
%TO.C,D2*%
D12*
X150875000Y-77155000D02*
X149875000Y-77155000D01*
X149875000Y-78155000D01*
X150875000Y-78155000D01*
X150875000Y-77155000D01*
G36*
X150875000Y-77155000D02*
G01*
X149875000Y-77155000D01*
X149875000Y-78155000D01*
X150875000Y-78155000D01*
X150875000Y-77155000D01*
G37*
D11*
X151900000Y-76705000D02*
X149475000Y-76705000D01*
X149475000Y-78605000D01*
X151900000Y-78605000D01*
X151900000Y-76705000D01*
%TO.C,D58*%
D12*
X150887500Y-119155000D02*
X149887500Y-119155000D01*
X149887500Y-120155000D01*
X150887500Y-120155000D01*
X150887500Y-119155000D01*
G36*
X150887500Y-119155000D02*
G01*
X149887500Y-119155000D01*
X149887500Y-120155000D01*
X150887500Y-120155000D01*
X150887500Y-119155000D01*
G37*
D11*
X151912500Y-118705000D02*
X149487500Y-118705000D01*
X149487500Y-120605000D01*
X151912500Y-120605000D01*
X151912500Y-118705000D01*
%TO.C,D44*%
D12*
X157825000Y-105155000D02*
X156825000Y-105155000D01*
X156825000Y-106155000D01*
X157825000Y-106155000D01*
X157825000Y-105155000D01*
G36*
X157825000Y-105155000D02*
G01*
X156825000Y-105155000D01*
X156825000Y-106155000D01*
X157825000Y-106155000D01*
X157825000Y-105155000D01*
G37*
D11*
X158850000Y-104705000D02*
X156425000Y-104705000D01*
X156425000Y-106605000D01*
X158850000Y-106605000D01*
X158850000Y-104705000D01*
%TO.C,R34*%
X124012500Y-102855000D02*
X124762500Y-102855000D01*
X124012500Y-103555000D02*
X124762500Y-103555000D01*
%TO.C,D24*%
D12*
X143875000Y-91155000D02*
X142875000Y-91155000D01*
X142875000Y-92155000D01*
X143875000Y-92155000D01*
X143875000Y-91155000D01*
G36*
X143875000Y-91155000D02*
G01*
X142875000Y-91155000D01*
X142875000Y-92155000D01*
X143875000Y-92155000D01*
X143875000Y-91155000D01*
G37*
D11*
X144900000Y-90705000D02*
X142475000Y-90705000D01*
X142475000Y-92605000D01*
X144900000Y-92605000D01*
X144900000Y-90705000D01*
%TO.C,R56*%
X144962500Y-116855000D02*
X145712500Y-116855000D01*
X144962500Y-117555000D02*
X145712500Y-117555000D01*
%TO.C,R26*%
X152062500Y-88855000D02*
X152812500Y-88855000D01*
X152062500Y-89555000D02*
X152812500Y-89555000D01*
%TO.C,R41*%
X152062500Y-95855000D02*
X152812500Y-95855000D01*
X152062500Y-96555000D02*
X152812500Y-96555000D01*
%TO.C,R30*%
X166112500Y-88855000D02*
X166862500Y-88855000D01*
X166112500Y-89555000D02*
X166862500Y-89555000D01*
%TO.C,D23*%
D12*
X143875000Y-84205000D02*
X142875000Y-84205000D01*
X142875000Y-85205000D01*
X143875000Y-85205000D01*
X143875000Y-84205000D01*
G36*
X143875000Y-84205000D02*
G01*
X142875000Y-84205000D01*
X142875000Y-85205000D01*
X143875000Y-85205000D01*
X143875000Y-84205000D01*
G37*
D11*
X144900000Y-83755000D02*
X142475000Y-83755000D01*
X142475000Y-85655000D01*
X144900000Y-85655000D01*
X144900000Y-83755000D01*
%TO.C,D5*%
D12*
X164825000Y-70080000D02*
X163825000Y-70080000D01*
X163825000Y-71080000D01*
X164825000Y-71080000D01*
X164825000Y-70080000D01*
G36*
X164825000Y-70080000D02*
G01*
X163825000Y-70080000D01*
X163825000Y-71080000D01*
X164825000Y-71080000D01*
X164825000Y-70080000D01*
G37*
D11*
X165850000Y-69630000D02*
X163425000Y-69630000D01*
X163425000Y-71530000D01*
X165850000Y-71530000D01*
X165850000Y-69630000D01*
%TO.C,R19*%
X131025000Y-67780000D02*
X131775000Y-67780000D01*
X131025000Y-68480000D02*
X131775000Y-68480000D01*
%TO.C,R47*%
X171575000Y-95855000D02*
X170825000Y-95855000D01*
X171575000Y-96555000D02*
X170825000Y-96555000D01*
%TO.C,R44*%
X159012500Y-102855000D02*
X159762500Y-102855000D01*
X159012500Y-103555000D02*
X159762500Y-103555000D01*
%TO.C,C6*%
X163291233Y-124140000D02*
X163583767Y-124140000D01*
X163291233Y-123120000D02*
X163583767Y-123120000D01*
%TO.C,D3*%
D12*
X157775000Y-70105000D02*
X156775000Y-70105000D01*
X156775000Y-71105000D01*
X157775000Y-71105000D01*
X157775000Y-70105000D01*
G36*
X157775000Y-70105000D02*
G01*
X156775000Y-70105000D01*
X156775000Y-71105000D01*
X157775000Y-71105000D01*
X157775000Y-70105000D01*
G37*
D11*
X158800000Y-69655000D02*
X156375000Y-69655000D01*
X156375000Y-71555000D01*
X158800000Y-71555000D01*
X158800000Y-69655000D01*
%TO.C,R62*%
X166112500Y-116855000D02*
X166862500Y-116855000D01*
X166112500Y-117555000D02*
X166862500Y-117555000D01*
%TO.C,R12*%
X131012500Y-81855000D02*
X131762500Y-81855000D01*
X131012500Y-82555000D02*
X131762500Y-82555000D01*
%TO.C,R45*%
X166112500Y-95855000D02*
X166862500Y-95855000D01*
X166112500Y-96555000D02*
X166862500Y-96555000D01*
%TO.C,R2*%
X152112500Y-74805000D02*
X152862500Y-74805000D01*
X152112500Y-75505000D02*
X152862500Y-75505000D01*
%TO.C,R63*%
X171575000Y-109855000D02*
X170825000Y-109855000D01*
X171575000Y-110555000D02*
X170825000Y-110555000D01*
%TO.C,R15*%
X138025000Y-74780000D02*
X138775000Y-74780000D01*
X138025000Y-75480000D02*
X138775000Y-75480000D01*
%TO.C,D6*%
D12*
X164875000Y-77155000D02*
X163875000Y-77155000D01*
X163875000Y-78155000D01*
X164875000Y-78155000D01*
X164875000Y-77155000D01*
G36*
X164875000Y-77155000D02*
G01*
X163875000Y-77155000D01*
X163875000Y-78155000D01*
X164875000Y-78155000D01*
X164875000Y-77155000D01*
G37*
D11*
X165900000Y-76705000D02*
X163475000Y-76705000D01*
X163475000Y-78605000D01*
X165900000Y-78605000D01*
X165900000Y-76705000D01*
%TO.C,R33*%
X124012500Y-95855000D02*
X124762500Y-95855000D01*
X124012500Y-96555000D02*
X124762500Y-96555000D01*
%TO.C,R28*%
X159012500Y-88855000D02*
X159762500Y-88855000D01*
X159012500Y-89555000D02*
X159762500Y-89555000D01*
%TO.C,D48*%
D12*
X171887500Y-105155000D02*
X170887500Y-105155000D01*
X170887500Y-106155000D01*
X171887500Y-106155000D01*
X171887500Y-105155000D01*
G36*
X171887500Y-105155000D02*
G01*
X170887500Y-105155000D01*
X170887500Y-106155000D01*
X171887500Y-106155000D01*
X171887500Y-105155000D01*
G37*
D11*
X172912500Y-104705000D02*
X170487500Y-104705000D01*
X170487500Y-106605000D01*
X172912500Y-106605000D01*
X172912500Y-104705000D01*
%TO.C,R11*%
X124012500Y-88855000D02*
X124762500Y-88855000D01*
X124012500Y-89555000D02*
X124762500Y-89555000D01*
%TO.C,C5*%
X138916233Y-124140000D02*
X139208767Y-124140000D01*
X138916233Y-123120000D02*
X139208767Y-123120000D01*
%TO.C,R10*%
X124012500Y-81855000D02*
X124762500Y-81855000D01*
X124012500Y-82555000D02*
X124762500Y-82555000D01*
%TO.C,D49*%
D12*
X122875000Y-112155000D02*
X121875000Y-112155000D01*
X121875000Y-113155000D01*
X122875000Y-113155000D01*
X122875000Y-112155000D01*
G36*
X122875000Y-112155000D02*
G01*
X121875000Y-112155000D01*
X121875000Y-113155000D01*
X122875000Y-113155000D01*
X122875000Y-112155000D01*
G37*
D11*
X123900000Y-111705000D02*
X121475000Y-111705000D01*
X121475000Y-113605000D01*
X123900000Y-113605000D01*
X123900000Y-111705000D01*
%TO.C,R60*%
X159012500Y-116855000D02*
X159762500Y-116855000D01*
X159012500Y-117555000D02*
X159762500Y-117555000D01*
%TO.C,R9*%
X171575000Y-75505000D02*
X170825000Y-75505000D01*
X171575000Y-74805000D02*
X170825000Y-74805000D01*
%TO.C,D13*%
D12*
X129925000Y-91155000D02*
X128925000Y-91155000D01*
X128925000Y-92155000D01*
X129925000Y-92155000D01*
X129925000Y-91155000D01*
G36*
X129925000Y-91155000D02*
G01*
X128925000Y-91155000D01*
X128925000Y-92155000D01*
X129925000Y-92155000D01*
X129925000Y-91155000D01*
G37*
D11*
X130950000Y-90705000D02*
X128525000Y-90705000D01*
X128525000Y-92605000D01*
X130950000Y-92605000D01*
X130950000Y-90705000D01*
%TO.C,R59*%
X159012500Y-109855000D02*
X159762500Y-109855000D01*
X159012500Y-110555000D02*
X159762500Y-110555000D01*
%TO.C,D63*%
D12*
X171837500Y-112155000D02*
X170837500Y-112155000D01*
X170837500Y-113155000D01*
X171837500Y-113155000D01*
X171837500Y-112155000D01*
G36*
X171837500Y-112155000D02*
G01*
X170837500Y-112155000D01*
X170837500Y-113155000D01*
X171837500Y-113155000D01*
X171837500Y-112155000D01*
G37*
D11*
X172862500Y-111705000D02*
X170437500Y-111705000D01*
X170437500Y-113605000D01*
X172862500Y-113605000D01*
X172862500Y-111705000D01*
%TO.C,D21*%
D12*
X136850000Y-70130000D02*
X135850000Y-70130000D01*
X135850000Y-71130000D01*
X136850000Y-71130000D01*
X136850000Y-70130000D01*
G36*
X136850000Y-70130000D02*
G01*
X135850000Y-70130000D01*
X135850000Y-71130000D01*
X136850000Y-71130000D01*
X136850000Y-70130000D01*
G37*
D11*
X137875000Y-69680000D02*
X135450000Y-69680000D01*
X135450000Y-71580000D01*
X137875000Y-71580000D01*
X137875000Y-69680000D01*
%TO.C,R32*%
X171575000Y-89555000D02*
X170825000Y-89555000D01*
X171575000Y-88855000D02*
X170825000Y-88855000D01*
%TO.C,D61*%
D12*
X164837500Y-112155000D02*
X163837500Y-112155000D01*
X163837500Y-113155000D01*
X164837500Y-113155000D01*
X164837500Y-112155000D01*
G36*
X164837500Y-112155000D02*
G01*
X163837500Y-112155000D01*
X163837500Y-113155000D01*
X164837500Y-113155000D01*
X164837500Y-112155000D01*
G37*
D11*
X165862500Y-111705000D02*
X163437500Y-111705000D01*
X163437500Y-113605000D01*
X165862500Y-113605000D01*
X165862500Y-111705000D01*
%TO.C,D51*%
D12*
X129825000Y-112155000D02*
X128825000Y-112155000D01*
X128825000Y-113155000D01*
X129825000Y-113155000D01*
X129825000Y-112155000D01*
G36*
X129825000Y-112155000D02*
G01*
X128825000Y-112155000D01*
X128825000Y-113155000D01*
X129825000Y-113155000D01*
X129825000Y-112155000D01*
G37*
D11*
X130850000Y-111705000D02*
X128425000Y-111705000D01*
X128425000Y-113605000D01*
X130850000Y-113605000D01*
X130850000Y-111705000D01*
%TO.C,R36*%
X131012500Y-102855000D02*
X131762500Y-102855000D01*
X131012500Y-103555000D02*
X131762500Y-103555000D01*
%TO.C,D56*%
D12*
X143887500Y-119155000D02*
X142887500Y-119155000D01*
X142887500Y-120155000D01*
X143887500Y-120155000D01*
X143887500Y-119155000D01*
G36*
X143887500Y-119155000D02*
G01*
X142887500Y-119155000D01*
X142887500Y-120155000D01*
X143887500Y-120155000D01*
X143887500Y-119155000D01*
G37*
D11*
X144912500Y-118705000D02*
X142487500Y-118705000D01*
X142487500Y-120605000D01*
X144912500Y-120605000D01*
X144912500Y-118705000D01*
%TO.C,R64*%
X171575000Y-116855000D02*
X170825000Y-116855000D01*
X171575000Y-117555000D02*
X170825000Y-117555000D01*
%TO.C,D35*%
D12*
X129787500Y-98155000D02*
X128787500Y-98155000D01*
X128787500Y-99155000D01*
X129787500Y-99155000D01*
X129787500Y-98155000D01*
G36*
X129787500Y-98155000D02*
G01*
X128787500Y-98155000D01*
X128787500Y-99155000D01*
X129787500Y-99155000D01*
X129787500Y-98155000D01*
G37*
D11*
X130812500Y-97705000D02*
X128387500Y-97705000D01*
X128387500Y-99605000D01*
X130812500Y-99605000D01*
X130812500Y-97705000D01*
%TO.C,D28*%
D12*
X157825000Y-91155000D02*
X156825000Y-91155000D01*
X156825000Y-92155000D01*
X157825000Y-92155000D01*
X157825000Y-91155000D01*
G36*
X157825000Y-91155000D02*
G01*
X156825000Y-91155000D01*
X156825000Y-92155000D01*
X157825000Y-92155000D01*
X157825000Y-91155000D01*
G37*
D11*
X158850000Y-90705000D02*
X156425000Y-90705000D01*
X156425000Y-92605000D01*
X158850000Y-92605000D01*
X158850000Y-90705000D01*
%TO.C,R51*%
X130962500Y-109855000D02*
X131712500Y-109855000D01*
X130962500Y-110555000D02*
X131712500Y-110555000D01*
%TO.C,D30*%
D12*
X164875000Y-91155000D02*
X163875000Y-91155000D01*
X163875000Y-92155000D01*
X164875000Y-92155000D01*
X164875000Y-91155000D01*
G36*
X164875000Y-91155000D02*
G01*
X163875000Y-91155000D01*
X163875000Y-92155000D01*
X164875000Y-92155000D01*
X164875000Y-91155000D01*
G37*
D11*
X165900000Y-90705000D02*
X163475000Y-90705000D01*
X163475000Y-92605000D01*
X165900000Y-92605000D01*
X165900000Y-90705000D01*
%TO.C,D47*%
D12*
X171875000Y-98155000D02*
X170875000Y-98155000D01*
X170875000Y-99155000D01*
X171875000Y-99155000D01*
X171875000Y-98155000D01*
G36*
X171875000Y-98155000D02*
G01*
X170875000Y-98155000D01*
X170875000Y-99155000D01*
X171875000Y-99155000D01*
X171875000Y-98155000D01*
G37*
D11*
X172900000Y-97705000D02*
X170475000Y-97705000D01*
X170475000Y-99605000D01*
X172900000Y-99605000D01*
X172900000Y-97705000D01*
%TO.C,D19*%
D12*
X129737500Y-70130000D02*
X128737500Y-70130000D01*
X128737500Y-71130000D01*
X129737500Y-71130000D01*
X129737500Y-70130000D01*
G36*
X129737500Y-70130000D02*
G01*
X128737500Y-70130000D01*
X128737500Y-71130000D01*
X129737500Y-71130000D01*
X129737500Y-70130000D01*
G37*
D11*
X130762500Y-69680000D02*
X128337500Y-69680000D01*
X128337500Y-71580000D01*
X130762500Y-71580000D01*
X130762500Y-69680000D01*
%TO.C,D22*%
D12*
X143837500Y-70130000D02*
X142837500Y-70130000D01*
X142837500Y-71130000D01*
X143837500Y-71130000D01*
X143837500Y-70130000D01*
G36*
X143837500Y-70130000D02*
G01*
X142837500Y-70130000D01*
X142837500Y-71130000D01*
X143837500Y-71130000D01*
X143837500Y-70130000D01*
G37*
D11*
X144862500Y-69680000D02*
X142437500Y-69680000D01*
X142437500Y-71580000D01*
X144862500Y-71580000D01*
X144862500Y-69680000D01*
%TO.C,D15*%
D12*
X136837500Y-77180000D02*
X135837500Y-77180000D01*
X135837500Y-78180000D01*
X136837500Y-78180000D01*
X136837500Y-77180000D01*
G36*
X136837500Y-77180000D02*
G01*
X135837500Y-77180000D01*
X135837500Y-78180000D01*
X136837500Y-78180000D01*
X136837500Y-77180000D01*
G37*
D11*
X137862500Y-76730000D02*
X135437500Y-76730000D01*
X135437500Y-78630000D01*
X137862500Y-78630000D01*
X137862500Y-76730000D01*
%TO.C,R4*%
X159000000Y-74805000D02*
X159750000Y-74805000D01*
X159000000Y-75505000D02*
X159750000Y-75505000D01*
%TO.C,R27*%
X159012500Y-81855000D02*
X159762500Y-81855000D01*
X159012500Y-82555000D02*
X159762500Y-82555000D01*
%TO.C,D1*%
D12*
X150875000Y-70180000D02*
X149875000Y-70180000D01*
X149875000Y-71180000D01*
X150875000Y-71180000D01*
X150875000Y-70180000D01*
G36*
X150875000Y-70180000D02*
G01*
X149875000Y-70180000D01*
X149875000Y-71180000D01*
X150875000Y-71180000D01*
X150875000Y-70180000D01*
G37*
D11*
X151900000Y-69730000D02*
X149475000Y-69730000D01*
X149475000Y-71630000D01*
X151900000Y-71630000D01*
X151900000Y-69730000D01*
%TO.C,D29*%
D12*
X164875000Y-84205000D02*
X163875000Y-84205000D01*
X163875000Y-85205000D01*
X164875000Y-85205000D01*
X164875000Y-84205000D01*
G36*
X164875000Y-84205000D02*
G01*
X163875000Y-84205000D01*
X163875000Y-85205000D01*
X164875000Y-85205000D01*
X164875000Y-84205000D01*
G37*
D11*
X165900000Y-83755000D02*
X163475000Y-83755000D01*
X163475000Y-85655000D01*
X165900000Y-85655000D01*
X165900000Y-83755000D01*
%TO.C,R31*%
X171575000Y-81855000D02*
X170825000Y-81855000D01*
X171575000Y-82555000D02*
X170825000Y-82555000D01*
%TO.C,R25*%
X152112500Y-81855000D02*
X152862500Y-81855000D01*
X152112500Y-82555000D02*
X152862500Y-82555000D01*
%TO.C,D41*%
D12*
X150875000Y-98155000D02*
X149875000Y-98155000D01*
X149875000Y-99155000D01*
X150875000Y-99155000D01*
X150875000Y-98155000D01*
G36*
X150875000Y-98155000D02*
G01*
X149875000Y-98155000D01*
X149875000Y-99155000D01*
X150875000Y-99155000D01*
X150875000Y-98155000D01*
G37*
D11*
X151900000Y-97705000D02*
X149475000Y-97705000D01*
X149475000Y-99605000D01*
X151900000Y-99605000D01*
X151900000Y-97705000D01*
%TO.C,D16*%
D12*
X136925000Y-91155000D02*
X135925000Y-91155000D01*
X135925000Y-92155000D01*
X136925000Y-92155000D01*
X136925000Y-91155000D01*
G36*
X136925000Y-91155000D02*
G01*
X135925000Y-91155000D01*
X135925000Y-92155000D01*
X136925000Y-92155000D01*
X136925000Y-91155000D01*
G37*
D11*
X137950000Y-90705000D02*
X135525000Y-90705000D01*
X135525000Y-92605000D01*
X137950000Y-92605000D01*
X137950000Y-90705000D01*
%TO.C,R40*%
X144962500Y-102855000D02*
X145712500Y-102855000D01*
X144962500Y-103555000D02*
X145712500Y-103555000D01*
%TO.C,R6*%
X166112500Y-74805000D02*
X166862500Y-74805000D01*
X166112500Y-75505000D02*
X166862500Y-75505000D01*
%TO.C,R53*%
X138012500Y-109855000D02*
X138762500Y-109855000D01*
X138012500Y-110555000D02*
X138762500Y-110555000D01*
%TO.C,D31*%
D12*
X171875000Y-84205000D02*
X170875000Y-84205000D01*
X170875000Y-85205000D01*
X171875000Y-85205000D01*
X171875000Y-84205000D01*
G36*
X171875000Y-84205000D02*
G01*
X170875000Y-84205000D01*
X170875000Y-85205000D01*
X171875000Y-85205000D01*
X171875000Y-84205000D01*
G37*
D11*
X172900000Y-83755000D02*
X170475000Y-83755000D01*
X170475000Y-85655000D01*
X172900000Y-85655000D01*
X172900000Y-83755000D01*
%TO.C,D9*%
D12*
X171875000Y-77155000D02*
X170875000Y-77155000D01*
X170875000Y-78155000D01*
X171875000Y-78155000D01*
X171875000Y-77155000D01*
G36*
X171875000Y-77155000D02*
G01*
X170875000Y-77155000D01*
X170875000Y-78155000D01*
X171875000Y-78155000D01*
X171875000Y-77155000D01*
G37*
D11*
X172900000Y-76705000D02*
X170475000Y-76705000D01*
X170475000Y-78605000D01*
X172900000Y-78605000D01*
X172900000Y-76705000D01*
%TO.C,D34*%
D12*
X122875000Y-105155000D02*
X121875000Y-105155000D01*
X121875000Y-106155000D01*
X122875000Y-106155000D01*
X122875000Y-105155000D01*
G36*
X122875000Y-105155000D02*
G01*
X121875000Y-105155000D01*
X121875000Y-106155000D01*
X122875000Y-106155000D01*
X122875000Y-105155000D01*
G37*
D11*
X123900000Y-104705000D02*
X121475000Y-104705000D01*
X121475000Y-106605000D01*
X123900000Y-106605000D01*
X123900000Y-104705000D01*
%TO.C,R13*%
X131012500Y-88855000D02*
X131762500Y-88855000D01*
X131012500Y-89555000D02*
X131762500Y-89555000D01*
%TO.C,R42*%
X152062500Y-102855000D02*
X152812500Y-102855000D01*
X152062500Y-103555000D02*
X152812500Y-103555000D01*
%TO.C,D57*%
D12*
X150837500Y-112155000D02*
X149837500Y-112155000D01*
X149837500Y-113155000D01*
X150837500Y-113155000D01*
X150837500Y-112155000D01*
G36*
X150837500Y-112155000D02*
G01*
X149837500Y-112155000D01*
X149837500Y-113155000D01*
X150837500Y-113155000D01*
X150837500Y-112155000D01*
G37*
D11*
X151862500Y-111705000D02*
X149437500Y-111705000D01*
X149437500Y-113605000D01*
X151862500Y-113605000D01*
X151862500Y-111705000D01*
%TO.C,D59*%
D12*
X157737500Y-112155000D02*
X156737500Y-112155000D01*
X156737500Y-113155000D01*
X157737500Y-113155000D01*
X157737500Y-112155000D01*
G36*
X157737500Y-112155000D02*
G01*
X156737500Y-112155000D01*
X156737500Y-113155000D01*
X157737500Y-113155000D01*
X157737500Y-112155000D01*
G37*
D11*
X158762500Y-111705000D02*
X156337500Y-111705000D01*
X156337500Y-113605000D01*
X158762500Y-113605000D01*
X158762500Y-111705000D01*
%TO.C,R14*%
X138000000Y-81855000D02*
X138750000Y-81855000D01*
X138000000Y-82555000D02*
X138750000Y-82555000D01*
%TO.C,D45*%
D12*
X164875000Y-98155000D02*
X163875000Y-98155000D01*
X163875000Y-99155000D01*
X164875000Y-99155000D01*
X164875000Y-98155000D01*
G36*
X164875000Y-98155000D02*
G01*
X163875000Y-98155000D01*
X163875000Y-99155000D01*
X164875000Y-99155000D01*
X164875000Y-98155000D01*
G37*
D11*
X165900000Y-97705000D02*
X163475000Y-97705000D01*
X163475000Y-99605000D01*
X165900000Y-99605000D01*
X165900000Y-97705000D01*
%TO.C,D39*%
D12*
X143875000Y-98155000D02*
X142875000Y-98155000D01*
X142875000Y-99155000D01*
X143875000Y-99155000D01*
X143875000Y-98155000D01*
G36*
X143875000Y-98155000D02*
G01*
X142875000Y-98155000D01*
X142875000Y-99155000D01*
X143875000Y-99155000D01*
X143875000Y-98155000D01*
G37*
D11*
X144900000Y-97705000D02*
X142475000Y-97705000D01*
X142475000Y-99605000D01*
X144900000Y-99605000D01*
X144900000Y-97705000D01*
%TO.C,R37*%
X138012500Y-95855000D02*
X138762500Y-95855000D01*
X138012500Y-96555000D02*
X138762500Y-96555000D01*
%TO.C,D52*%
D12*
X129875000Y-119155000D02*
X128875000Y-119155000D01*
X128875000Y-120155000D01*
X129875000Y-120155000D01*
X129875000Y-119155000D01*
G36*
X129875000Y-119155000D02*
G01*
X128875000Y-119155000D01*
X128875000Y-120155000D01*
X129875000Y-120155000D01*
X129875000Y-119155000D01*
G37*
D11*
X130900000Y-118705000D02*
X128475000Y-118705000D01*
X128475000Y-120605000D01*
X130900000Y-120605000D01*
X130900000Y-118705000D01*
%TO.C,R54*%
X138012500Y-116855000D02*
X138762500Y-116855000D01*
X138012500Y-117555000D02*
X138762500Y-117555000D01*
%TO.C,D50*%
D12*
X122875000Y-119155000D02*
X121875000Y-119155000D01*
X121875000Y-120155000D01*
X122875000Y-120155000D01*
X122875000Y-119155000D01*
G36*
X122875000Y-119155000D02*
G01*
X121875000Y-119155000D01*
X121875000Y-120155000D01*
X122875000Y-120155000D01*
X122875000Y-119155000D01*
G37*
D11*
X123900000Y-118705000D02*
X121475000Y-118705000D01*
X121475000Y-120605000D01*
X123900000Y-120605000D01*
X123900000Y-118705000D01*
%TO.C,R29*%
X166112500Y-81855000D02*
X166862500Y-81855000D01*
X166112500Y-82555000D02*
X166862500Y-82555000D01*
%TO.C,R49*%
X124012500Y-109855000D02*
X124762500Y-109855000D01*
X124012500Y-110555000D02*
X124762500Y-110555000D01*
%TO.C,R61*%
X166112500Y-109855000D02*
X166862500Y-109855000D01*
X166112500Y-110555000D02*
X166862500Y-110555000D01*
%TO.C,D27*%
D12*
X157837500Y-84205000D02*
X156837500Y-84205000D01*
X156837500Y-85205000D01*
X157837500Y-85205000D01*
X157837500Y-84205000D01*
G36*
X157837500Y-84205000D02*
G01*
X156837500Y-84205000D01*
X156837500Y-85205000D01*
X157837500Y-85205000D01*
X157837500Y-84205000D01*
G37*
D11*
X158862500Y-83755000D02*
X156437500Y-83755000D01*
X156437500Y-85655000D01*
X158862500Y-85655000D01*
X158862500Y-83755000D01*
%TO.C,R50*%
X124012500Y-116855000D02*
X124762500Y-116855000D01*
X124012500Y-117555000D02*
X124762500Y-117555000D01*
%TO.C,R35*%
X131012500Y-95855000D02*
X131762500Y-95855000D01*
X131012500Y-96555000D02*
X131762500Y-96555000D01*
%TO.C,R18*%
X124025000Y-67780000D02*
X124775000Y-67780000D01*
X124025000Y-68480000D02*
X124775000Y-68480000D01*
%TD*%
M02*
