<?xml version="1.0" encoding="UTF-8" standalone="no"?>
<svg
   version="1.1"
   width="297.002200mm"
   height="210.007200mm"
   viewBox="0.000000 0.000000 297.002200 210.007200"
   id="svg276"
   sodipodi:docname="SiPMT.revA-B_Mask.svg"
   inkscape:version="1.3.2 (091e20e, 2023-11-25)"
   xmlns:inkscape="http://www.inkscape.org/namespaces/inkscape"
   xmlns:sodipodi="http://sodipodi.sourceforge.net/DTD/sodipodi-0.dtd"
   xmlns="http://www.w3.org/2000/svg"
   xmlns:svg="http://www.w3.org/2000/svg"
   xmlns:rdf="http://www.w3.org/1999/02/22-rdf-syntax-ns#"
   xmlns:cc="http://creativecommons.org/ns#"
   xmlns:dc="http://purl.org/dc/elements/1.1/">
  <defs
     id="defs276" />
  <sodipodi:namedview
     id="namedview276"
     pagecolor="#ffffff"
     bordercolor="#000000"
     borderopacity="0.25"
     inkscape:showpageshadow="2"
     inkscape:pageopacity="0.0"
     inkscape:pagecheckerboard="0"
     inkscape:deskcolor="#d1d1d1"
     inkscape:document-units="mm"
     inkscape:zoom="1.2061729"
     inkscape:cx="228.40839"
     inkscape:cy="196.48925"
     inkscape:window-width="1312"
     inkscape:window-height="835"
     inkscape:window-x="0"
     inkscape:window-y="25"
     inkscape:window-maximized="0"
     inkscape:current-layer="svg276" />
  <title
     id="title1">SVG Image created as SiPMT.revA-B_Mask.svg date 2025/01/14 11:49:23 </title>
  <desc
     id="desc1">Image generated by PCBNEW </desc>
  <path
     style="fill:none;fill-opacity:1;fill-rule:evenodd;stroke:#000000;stroke-width:0.1016;stroke-linecap:round;stroke-linejoin:round;stroke-dasharray:none;stroke-opacity:1"
     d="m 30.613135,31.167488 -0.0181,0.09089 -0.0515,0.07705 -0.077,0.05148 -0.0909,0.01808 h -0.5 l -0.0909,-0.01808 -0.0771,-0.05148 -0.0515,-0.07705 -0.0181,-0.09089 v -0.475 l 0.0181,-0.09089 0.0515,-0.07705 0.0771,-0.05148 0.0909,-0.01808 h 0.5 l 0.0909,0.01808 0.077,0.05148 0.0515,0.07705 0.0181,0.09089 z"
     id="path43" />
  <path
     style="fill:none;fill-opacity:1;fill-rule:evenodd;stroke:#000000;stroke-width:0.1016;stroke-linecap:round;stroke-linejoin:round;stroke-dasharray:none;stroke-opacity:1"
     d="m 28.788135,31.167488 -0.0181,0.09089 -0.0515,0.07705 -0.0771,0.05148 -0.0909,0.01808 h -0.5 l -0.0909,-0.01808 -0.077,-0.05148 -0.0515,-0.07705 -0.0181,-0.09089 v -0.475 l 0.0181,-0.09089 0.0515,-0.07705 0.077,-0.05148 0.0909,-0.01808 h 0.5 l 0.0909,0.01808 0.0771,0.05148 0.0515,0.07705 0.0181,0.09089 z"
     id="path44" />
  <path
     style="fill:none;fill-opacity:1;fill-rule:evenodd;stroke:#000000;stroke-width:0.1016;stroke-linecap:round;stroke-linejoin:round;stroke-dasharray:none;stroke-opacity:1"
     d="m 35.788135,31.804988 v 1.3 h -2.325 v -1.3 z"
     id="path91" />
  <path
     style="fill:none;fill-opacity:1;fill-rule:evenodd;stroke:#000000;stroke-width:0.1016;stroke-linecap:round;stroke-linejoin:round;stroke-dasharray:none;stroke-opacity:1"
     d="m 35.788135,33.654988 v 1.3 h -2.325 v -1.3 z"
     id="path92" />
  <path
     style="fill:none;fill-opacity:1;fill-rule:evenodd;stroke:#000000;stroke-width:0.1016;stroke-linecap:round;stroke-linejoin:round;stroke-dasharray:none;stroke-opacity:1"
     d="m 30.625635,38.167488 -0.0181,0.09089 -0.0515,0.07705 -0.077,0.05148 -0.0909,0.01808 h -0.5 l -0.0909,-0.01808 -0.077,-0.05148 -0.0515,-0.07705 -0.0181,-0.09089 v -0.475 l 0.0181,-0.09089 0.0515,-0.07705 0.077,-0.05148 0.0909,-0.01808 h 0.5 l 0.0909,0.01808 0.077,0.05148 0.0515,0.07705 0.0181,0.09089 z"
     id="path93" />
  <path
     style="fill:none;fill-opacity:1;fill-rule:evenodd;stroke:#000000;stroke-width:0.1016;stroke-linecap:round;stroke-linejoin:round;stroke-dasharray:none;stroke-opacity:1"
     d="m 28.800635,38.167488 -0.0181,0.09089 -0.0515,0.07705 -0.077,0.05148 -0.0909,0.01808 h -0.5 l -0.0909,-0.01808 -0.0771,-0.05148 -0.0515,-0.07705 -0.0181,-0.09089 v -0.475 l 0.0181,-0.09089 0.0515,-0.07705 0.0771,-0.05148 0.0909,-0.01808 h 0.5 l 0.0909,0.01808 0.077,0.05148 0.0515,0.07705 0.0181,0.09089 z"
     id="path94" />
  <path
     style="fill:none;fill-opacity:1;fill-rule:evenodd;stroke:#000000;stroke-width:0.1016;stroke-linecap:round;stroke-linejoin:round;stroke-dasharray:none;stroke-opacity:1"
     d="m 28.788135,31.804988 v 1.3 h -2.325 v -1.3 z"
     id="path107" />
  <path
     style="fill:none;fill-opacity:1;fill-rule:evenodd;stroke:#000000;stroke-width:0.1016;stroke-linecap:round;stroke-linejoin:round;stroke-dasharray:none;stroke-opacity:1"
     d="m 28.788135,33.654988 v 1.3 h -2.325 v -1.3 z"
     id="path108" />
  <path
     style="fill:none;fill-opacity:1;fill-rule:evenodd;stroke:#000000;stroke-width:0.1016;stroke-linecap:round;stroke-linejoin:round;stroke-dasharray:none;stroke-opacity:1"
     d="m 37.725635,31.167488 -0.0181,0.09089 -0.0515,0.07705 -0.0771,0.05148 -0.0908,0.01808 h -0.5 l -0.0909,-0.01808 -0.077,-0.05148 -0.0515,-0.07705 -0.0181,-0.09089 v -0.475 l 0.0181,-0.09089 0.0515,-0.07705 0.077,-0.05148 0.0909,-0.01808 h 0.5 l 0.0909,0.01808 0.0771,0.05148 0.0515,0.07705 0.0181,0.09089 z"
     id="path111" />
  <path
     style="fill:none;fill-opacity:1;fill-rule:evenodd;stroke:#000000;stroke-width:0.1016;stroke-linecap:round;stroke-linejoin:round;stroke-dasharray:none;stroke-opacity:1"
     d="m 35.900635,31.167488 -0.0181,0.09089 -0.0515,0.07705 -0.077,0.05148 -0.0909,0.01808 h -0.5 l -0.0909,-0.01808 -0.0771,-0.05148 -0.0515,-0.07705 -0.0181,-0.09089 v -0.475 l 0.0181,-0.09089 0.0515,-0.07705 0.0771,-0.05148 0.0909,-0.01808 h 0.5 l 0.0909,0.01808 0.077,0.05148 0.0515,0.07705 0.0181,0.09089 z"
     id="path112" />
  <path
     style="fill:none;fill-opacity:1;fill-rule:evenodd;stroke:#000000;stroke-width:0.1016;stroke-linecap:round;stroke-linejoin:round;stroke-dasharray:none;stroke-opacity:1"
     d="m 37.725635,38.167488 -0.0181,0.09089 -0.0515,0.07705 -0.0771,0.05148 -0.0908,0.01808 h -0.5 l -0.0909,-0.01808 -0.077,-0.05148 -0.0515,-0.07705 -0.0181,-0.09089 v -0.475 l 0.0181,-0.09089 0.0515,-0.07705 0.077,-0.05148 0.0909,-0.01808 h 0.5 l 0.0909,0.01808 0.0771,0.05148 0.0515,0.07705 0.0181,0.09089 z"
     id="path113" />
  <path
     style="fill:none;fill-opacity:1;fill-rule:evenodd;stroke:#000000;stroke-width:0.1016;stroke-linecap:round;stroke-linejoin:round;stroke-dasharray:none;stroke-opacity:1"
     d="m 35.900635,38.167488 -0.0181,0.09089 -0.0515,0.07705 -0.077,0.05148 -0.0909,0.01808 h -0.5 l -0.0909,-0.01808 -0.0771,-0.05148 -0.0515,-0.07705 -0.0181,-0.09089 v -0.475 l 0.0181,-0.09089 0.0515,-0.07705 0.0771,-0.05148 0.0909,-0.01808 h 0.5 l 0.0909,0.01808 0.077,0.05148 0.0515,0.07705 0.0181,0.09089 z"
     id="path114" />
  <path
     style="fill:none;fill-opacity:1;fill-rule:evenodd;stroke:#000000;stroke-width:0.1016;stroke-linecap:round;stroke-linejoin:round;stroke-dasharray:none;stroke-opacity:1"
     d="m 35.788135,38.804988 v 1.3 h -2.325 v -1.3 z"
     id="path205" />
  <path
     style="fill:none;fill-opacity:1;fill-rule:evenodd;stroke:#000000;stroke-width:0.1016;stroke-linecap:round;stroke-linejoin:round;stroke-dasharray:none;stroke-opacity:1"
     d="m 35.788135,40.654988 v 1.3 h -2.325 v -1.3 z"
     id="path206" />
  <path
     style="fill:none;fill-opacity:1;fill-rule:evenodd;stroke:#000000;stroke-width:0.1016;stroke-linecap:round;stroke-linejoin:round;stroke-dasharray:none;stroke-opacity:1"
     d="m 28.788135,38.804988 v 1.3 h -2.325 v -1.3 z"
     id="path233" />
  <path
     style="fill:none;fill-opacity:1;fill-rule:evenodd;stroke:#000000;stroke-width:0.1016;stroke-linecap:round;stroke-linejoin:round;stroke-dasharray:none;stroke-opacity:1"
     d="m 28.788135,40.654988 v 1.3 h -2.325 v -1.3 z"
     id="path234" />
  <circle
     cx="49.23814"
     cy="68.354988"
     r="1.5"
     id="circle256"
     style="fill:none;fill-opacity:1;stroke:#000000;stroke-width:0.1016;stroke-dasharray:none;stroke-opacity:1" />
  <circle
     cx="20.92564"
     cy="68.37999"
     r="1.5"
     id="circle257"
     style="fill:none;fill-opacity:1;stroke:#000000;stroke-width:0.1016;stroke-dasharray:none;stroke-opacity:1" />
  <circle
     cx="6.7756314"
     cy="5.49999"
     r="2.5"
     id="circle258"
     style="fill:none;fill-opacity:1;stroke:#000000;stroke-width:0.1016;stroke-dasharray:none;stroke-opacity:1" />
  <circle
     cx="16.48814"
     cy="68.404991"
     r="1.5"
     id="circle259"
     style="fill:none;fill-opacity:1;stroke:#000000;stroke-width:0.1016;stroke-dasharray:none;stroke-opacity:1" />
  <circle
     cx="40.638134"
     cy="68.354988"
     r="1.5"
     id="circle260"
     style="fill:none;fill-opacity:1;stroke:#000000;stroke-width:0.1016;stroke-dasharray:none;stroke-opacity:1" />
  <circle
     cx="44.888134"
     cy="68.37999"
     r="1.5"
     id="circle261"
     style="fill:none;fill-opacity:1;stroke:#000000;stroke-width:0.1016;stroke-dasharray:none;stroke-opacity:1" />
  <circle
     cx="54.725628"
     cy="68.199989"
     r="2.5"
     id="circle262"
     style="fill:none;fill-opacity:1;stroke:#000000;stroke-width:0.1016;stroke-dasharray:none;stroke-opacity:1" />
  <circle
     cx="25.23814"
     cy="68.404991"
     r="1.5"
     id="circle263"
     style="fill:none;fill-opacity:1;stroke:#000000;stroke-width:0.1016;stroke-dasharray:none;stroke-opacity:1" />
  <circle
     cx="36.388134"
     cy="68.37999"
     r="1.5"
     id="circle264"
     style="fill:none;fill-opacity:1;stroke:#000000;stroke-width:0.1016;stroke-dasharray:none;stroke-opacity:1" />
  <circle
     cx="54.775631"
     cy="5.49999"
     r="2.5"
     id="circle265"
     style="fill:none;fill-opacity:1;stroke:#000000;stroke-width:0.1016;stroke-dasharray:none;stroke-opacity:1" />
  <circle
     cx="30.775631"
     cy="68.199989"
     r="2.5"
     id="circle266"
     style="fill:none;fill-opacity:1;stroke:#000000;stroke-width:0.1016;stroke-dasharray:none;stroke-opacity:1" />
  <circle
     cx="30.775631"
     cy="5.49999"
     r="2.5"
     id="circle267"
     style="fill:none;fill-opacity:1;stroke:#000000;stroke-width:0.1016;stroke-dasharray:none;stroke-opacity:1" />
  <circle
     cx="12.031278"
     cy="68.37999"
     r="1.5"
     id="circle268"
     style="fill:none;fill-opacity:1;stroke:#000000;stroke-width:0.1016;stroke-dasharray:none;stroke-opacity:1" />
  <circle
     cx="6.7756314"
     cy="68.199989"
     r="2.5"
     id="circle269"
     style="fill:none;fill-opacity:1;stroke:#000000;stroke-width:0.1016;stroke-dasharray:none;stroke-opacity:1" />
  <path
     style="fill:none;fill-opacity:1;fill-rule:evenodd;stroke:#000000;stroke-width:0.1016;stroke-dasharray:none;stroke-opacity:1"
     d="m 15.600635,65.592488 -0.0181,0.0909 -0.0515,0.077 -0.0771,0.0515 -0.0909,0.0181 h -0.6 l -0.0909,-0.0181 -0.077,-0.0515 -0.0515,-0.077 -0.0181,-0.0909 v -0.475 l 0.0181,-0.0909 0.0515,-0.077 0.077,-0.0515 0.0909,-0.0181 h 0.6 l 0.0909,0.0181 0.0771,0.0515 0.0515,0.077 0.0181,0.0909 z"
     id="path269" />
  <path
     style="fill:none;fill-opacity:1;fill-rule:evenodd;stroke:#000000;stroke-width:0.1016;stroke-dasharray:none;stroke-opacity:1"
     d="m 13.875635,65.592488 -0.0181,0.0909 -0.0515,0.077 -0.077,0.0515 -0.0909,0.0181 h -0.6 l -0.0909,-0.0181 -0.0771,-0.0515 -0.0515,-0.077 -0.0181,-0.0909 v -0.475 l 0.0181,-0.0909 0.0515,-0.077 0.0771,-0.0515 0.0909,-0.0181 h 0.6 l 0.0909,0.0181 0.077,0.0515 0.0515,0.077 0.0181,0.0909 z"
     id="path270" />
  <path
     style="fill:none;fill-opacity:1;fill-rule:evenodd;stroke:#000000;stroke-width:0.1016;stroke-dasharray:none;stroke-opacity:1"
     d="m 39.938135,65.592488 -0.0181,0.0909 -0.0515,0.077 -0.077,0.0515 -0.0909,0.0181 h -0.6 l -0.0909,-0.0181 -0.0771,-0.0515 -0.0515,-0.077 -0.0181,-0.0909 v -0.475 l 0.0181,-0.0909 0.0515,-0.077 0.0771,-0.0515 0.0909,-0.0181 h 0.6 l 0.0909,0.0181 0.077,0.0515 0.0515,0.077 0.0181,0.0909 z"
     id="path271" />
  <path
     style="fill:none;fill-opacity:1;fill-rule:evenodd;stroke:#000000;stroke-width:0.1016;stroke-dasharray:none;stroke-opacity:1"
     d="m 38.213135,65.592488 -0.0181,0.0909 -0.0515,0.077 -0.077,0.0515 -0.0909,0.0181 h -0.6 l -0.0909,-0.0181 -0.0771,-0.0515 -0.0515,-0.077 -0.0181,-0.0909 v -0.475 l 0.0181,-0.0909 0.0515,-0.077 0.0771,-0.0515 0.0909,-0.0181 h 0.6 l 0.0909,0.0181 0.077,0.0515 0.0515,0.077 0.0181,0.0909 z"
     id="path272" />
  <path
     style="fill:none;fill-opacity:1;fill-rule:evenodd;stroke:#000000;stroke-width:0.1016;stroke-dasharray:none;stroke-opacity:1"
     d="m 48.725635,65.592488 -0.0181,0.0909 -0.0515,0.077 -0.0771,0.0515 -0.0909,0.0181 h -0.5999 l -0.0909,-0.0181 -0.077,-0.0515 -0.0515,-0.077 -0.0181,-0.0909 v -0.475 l 0.0181,-0.0909 0.0515,-0.077 0.077,-0.0515 0.0909,-0.0181 h 0.6 l 0.0909,0.0181 0.0771,0.0515 0.0515,0.077 0.0181,0.0909 z"
     id="path273" />
  <path
     style="fill:none;fill-opacity:1;fill-rule:evenodd;stroke:#000000;stroke-width:0.1016;stroke-dasharray:none;stroke-opacity:1"
     d="m 47.000635,65.592488 -0.0181,0.0909 -0.0515,0.077 -0.077,0.0515 -0.0909,0.0181 h -0.6 l -0.0909,-0.0181 -0.0771,-0.0515 -0.0515,-0.077 -0.0181,-0.0909 v -0.475 l 0.0181,-0.0909 0.0515,-0.077 0.0771,-0.0515 0.0909,-0.0181 h 0.6 l 0.0909,0.0181 0.077,0.0515 0.0515,0.077 0.0181,0.0909 z"
     id="path274" />
  <path
     style="fill:none;fill-opacity:1;fill-rule:evenodd;stroke:#000000;stroke-width:0.1016;stroke-dasharray:none;stroke-opacity:1"
     d="m 24.350635,65.592488 -0.0181,0.0909 -0.0515,0.077 -0.0771,0.0515 -0.0909,0.0181 h -0.6 l -0.0909,-0.0181 -0.077,-0.0515 -0.0515,-0.077 -0.0181,-0.0909 v -0.475 l 0.0181,-0.0909 0.0515,-0.077 0.077,-0.0515 0.0909,-0.0181 h 0.6 l 0.0909,0.0181 0.0771,0.0515 0.0515,0.077 0.0181,0.0909 z"
     id="path275" />
  <path
     style="fill:none;fill-opacity:1;fill-rule:evenodd;stroke:#000000;stroke-width:0.1016;stroke-dasharray:none;stroke-opacity:1"
     d="m 22.625635,65.592488 -0.0181,0.0909 -0.0515,0.077 -0.077,0.0515 -0.0909,0.0181 h -0.6 l -0.0909,-0.0181 -0.0771,-0.0515 -0.0515,-0.077 -0.0181,-0.0909 v -0.475 l 0.0181,-0.0909 0.0515,-0.077 0.0771,-0.0515 0.0909,-0.0181 h 0.6 l 0.0909,0.0181 0.077,0.0515 0.0515,0.077 0.0181,0.0909 z"
     id="path276" />
  <metadata
     id="metadata276">
    <rdf:RDF>
      <cc:Work
         rdf:about="">
        <dc:title>SVG Image created as SiPMT.revA-B_Mask.svg date 2025/01/14 11:49:23 </dc:title>
      </cc:Work>
    </rdf:RDF>
  </metadata>
</svg>
